<?xml version="1.0" encoding="UTF-8" standalone="no"?>
<!DOCTYPE svg PUBLIC "-//W3C//DTD SVG 1.1//EN"
 "http://www.w3.org/Graphics/SVG/1.1/DTD/svg11.dtd">
<!-- Generated by graphviz version 2.40.1 (20161225.0304)
 -->
<!-- Title: dependencies Pages: 1 -->
<svg width="504pt" height="284pt"
 viewBox="0.00 0.00 504.00 284.00" xmlns="http://www.w3.org/2000/svg" xmlns:xlink="http://www.w3.org/1999/xlink">
<g id="graph0" class="graph" transform="scale(1 1) rotate(0) translate(4 280)">
<title>dependencies</title>
<polygon fill="#ffffff" stroke="transparent" points="-4,4 -4,-280 500,-280 500,4 -4,4"/>
<text text-anchor="start" x="227.0091" y="-42.4" font-family="sans-serif" font-weight="bold" font-size="14.00" fill="#000000">Legend</text>
<polygon fill="#ffffb3" stroke="transparent" points="14,-10 14,-30 34,-30 34,-10 14,-10"/>
<text text-anchor="start" x="37.629" y="-15.4" font-family="sans-serif" font-size="14.00" fill="#000000"> &#160;Declarations</text>
<polygon fill="#8dd3c7" stroke="transparent" points="127,-10 127,-30 147,-30 147,-10 127,-10"/>
<text text-anchor="start" x="150.7251" y="-15.4" font-family="sans-serif" font-size="14.00" fill="#000000"> &#160;Module</text>
<polygon fill="#80b1d3" stroke="transparent" points="213,-10 213,-30 233,-30 233,-10 213,-10"/>
<text text-anchor="start" x="236.7812" y="-15.4" font-family="sans-serif" font-size="14.00" fill="#000000"> &#160;Bootstrap</text>
<polygon fill="#fdb462" stroke="transparent" points="310,-10 310,-30 330,-30 330,-10 310,-10"/>
<text text-anchor="start" x="333.6732" y="-15.4" font-family="sans-serif" font-size="14.00" fill="#000000"> &#160;Providers</text>
<polygon fill="#fb8072" stroke="transparent" points="406,-10 406,-30 426,-30 426,-10 406,-10"/>
<text text-anchor="start" x="429.7258" y="-15.4" font-family="sans-serif" font-size="14.00" fill="#000000"> &#160;Exports</text>
<g id="clust1" class="cluster">
<title>cluster_FactSheetModule</title>
<polygon fill="none" stroke="#000000" stroke-dasharray="1,5" points="77,-70 77,-268 419,-268 419,-70 77,-70"/>
</g>
<g id="clust2" class="cluster">
<title>cluster_FactSheetModule_declarations</title>
<polygon fill="none" stroke="#000000" points="85,-78 85,-130 411,-130 411,-78 85,-78"/>
</g>
<g id="clust6" class="cluster">
<title>cluster_FactSheetModule_exports</title>
<polygon fill="none" stroke="#000000" points="174,-208 174,-260 330,-260 330,-208 174,-208"/>
</g>
<!-- FactSheetComponent -->
<g id="node1" class="node">
<title>FactSheetComponent</title>
<polygon fill="#ffffb3" stroke="#000000" points="403.038,-122 266.962,-122 266.962,-86 403.038,-86 403.038,-122"/>
<text text-anchor="middle" x="335" y="-99.8" font-family="Times,serif" font-size="14.00" fill="#000000">FactSheetComponent</text>
</g>
<!-- FactSheetModule -->
<g id="node3" class="node">
<title>FactSheetModule</title>
<polygon fill="#8dd3c7" stroke="#000000" points="309.2549,-187 306.2549,-191 285.2549,-191 282.2549,-187 194.7451,-187 194.7451,-151 309.2549,-151 309.2549,-187"/>
<text text-anchor="middle" x="252" y="-164.8" font-family="Times,serif" font-size="14.00" fill="#000000">FactSheetModule</text>
</g>
<!-- FactSheetComponent&#45;&gt;FactSheetModule -->
<g id="edge1" class="edge">
<title>FactSheetComponent&#45;&gt;FactSheetModule</title>
<path fill="none" stroke="#000000" d="M288.0544,-122.1061C288.0544,-122.1061 288.0544,-140.991 288.0544,-140.991"/>
<polygon fill="#000000" stroke="#000000" points="284.5544,-140.9909 288.0544,-150.991 291.5544,-140.991 284.5544,-140.9909"/>
</g>
<!-- IndirectEntryComponent -->
<g id="node2" class="node">
<title>IndirectEntryComponent</title>
<polygon fill="#ffffb3" stroke="#000000" points="248.9678,-122 93.0322,-122 93.0322,-86 248.9678,-86 248.9678,-122"/>
<text text-anchor="middle" x="171" y="-99.8" font-family="Times,serif" font-size="14.00" fill="#000000">IndirectEntryComponent</text>
</g>
<!-- IndirectEntryComponent&#45;&gt;FactSheetModule -->
<g id="edge2" class="edge">
<title>IndirectEntryComponent&#45;&gt;FactSheetModule</title>
<path fill="none" stroke="#000000" d="M221.8033,-122.1061C221.8033,-122.1061 221.8033,-140.991 221.8033,-140.991"/>
<polygon fill="#000000" stroke="#000000" points="218.3034,-140.9909 221.8033,-150.991 225.3034,-140.991 218.3034,-140.9909"/>
</g>
<!-- FactSheetComponent  -->
<g id="node4" class="node">
<title>FactSheetComponent </title>
<polygon fill="#fb8072" stroke="#000000" points="322.0372,-252 181.9628,-252 181.9628,-216 322.0372,-216 322.0372,-252"/>
<text text-anchor="middle" x="252" y="-229.8" font-family="Times,serif" font-size="14.00" fill="#000000">FactSheetComponent </text>
</g>
<!-- FactSheetModule&#45;&gt;FactSheetComponent  -->
<g id="edge3" class="edge">
<title>FactSheetModule&#45;&gt;FactSheetComponent </title>
<path fill="none" stroke="#000000" stroke-dasharray="5,2" d="M252,-187.1061C252,-187.1061 252,-205.991 252,-205.991"/>
<polygon fill="#000000" stroke="#000000" points="248.5001,-205.9909 252,-215.991 255.5001,-205.991 248.5001,-205.9909"/>
</g>
</g>
</svg>
