<?xml version="1.0" encoding="UTF-8" standalone="no"?>
<!DOCTYPE svg PUBLIC "-//W3C//DTD SVG 1.1//EN"
 "http://www.w3.org/Graphics/SVG/1.1/DTD/svg11.dtd">
<!-- Generated by graphviz version 2.40.1 (20161225.0304)
 -->
<!-- Title: dependencies Pages: 1 -->
<svg width="3937pt" height="284pt"
 viewBox="0.00 0.00 3937.00 284.00" xmlns="http://www.w3.org/2000/svg" xmlns:xlink="http://www.w3.org/1999/xlink">
<g id="graph0" class="graph" transform="scale(1 1) rotate(0) translate(4 280)">
<title>dependencies</title>
<polygon fill="#ffffff" stroke="transparent" points="-4,4 -4,-280 3933,-280 3933,4 -4,4"/>
<text text-anchor="start" x="1943.5091" y="-42.4" font-family="sans-serif" font-weight="bold" font-size="14.00" fill="#000000">Legend</text>
<polygon fill="#ffffb3" stroke="transparent" points="1730.5,-10 1730.5,-30 1750.5,-30 1750.5,-10 1730.5,-10"/>
<text text-anchor="start" x="1754.129" y="-15.4" font-family="sans-serif" font-size="14.00" fill="#000000"> &#160;Declarations</text>
<polygon fill="#8dd3c7" stroke="transparent" points="1843.5,-10 1843.5,-30 1863.5,-30 1863.5,-10 1843.5,-10"/>
<text text-anchor="start" x="1867.2251" y="-15.4" font-family="sans-serif" font-size="14.00" fill="#000000"> &#160;Module</text>
<polygon fill="#80b1d3" stroke="transparent" points="1929.5,-10 1929.5,-30 1949.5,-30 1949.5,-10 1929.5,-10"/>
<text text-anchor="start" x="1953.2812" y="-15.4" font-family="sans-serif" font-size="14.00" fill="#000000"> &#160;Bootstrap</text>
<polygon fill="#fdb462" stroke="transparent" points="2026.5,-10 2026.5,-30 2046.5,-30 2046.5,-10 2026.5,-10"/>
<text text-anchor="start" x="2050.1732" y="-15.4" font-family="sans-serif" font-size="14.00" fill="#000000"> &#160;Providers</text>
<polygon fill="#fb8072" stroke="transparent" points="2122.5,-10 2122.5,-30 2142.5,-30 2142.5,-10 2122.5,-10"/>
<text text-anchor="start" x="2146.2258" y="-15.4" font-family="sans-serif" font-size="14.00" fill="#000000"> &#160;Exports</text>
<g id="clust1" class="cluster">
<title>cluster_CoreModule</title>
<polygon fill="none" stroke="#000000" stroke-dasharray="1,5" points="8,-70 8,-268 3921,-268 3921,-70 8,-70"/>
</g>
<g id="clust2" class="cluster">
<title>cluster_CoreModule_declarations</title>
<polygon fill="none" stroke="#000000" points="2764,-78 2764,-130 3913,-130 3913,-78 2764,-78"/>
</g>
<g id="clust10" class="cluster">
<title>cluster_CoreModule_imports</title>
<polygon fill="none" stroke="#000000" points="1380,-78 1380,-130 2756,-130 2756,-78 1380,-78"/>
</g>
<g id="clust11" class="cluster">
<title>cluster_CoreModule_exports</title>
<polygon fill="none" stroke="#000000" points="1994,-208 1994,-260 2124,-260 2124,-208 1994,-208"/>
</g>
<g id="clust13" class="cluster">
<title>cluster_CoreModule_providers</title>
<polygon fill="none" stroke="#000000" points="16,-78 16,-130 1372,-130 1372,-78 16,-78"/>
</g>
<!-- DialogUserSettingsDialog -->
<g id="node1" class="node">
<title>DialogUserSettingsDialog</title>
<polygon fill="#ffffb3" stroke="#000000" points="3904.745,-122 3741.255,-122 3741.255,-86 3904.745,-86 3904.745,-122"/>
<text text-anchor="middle" x="3823" y="-99.8" font-family="Times,serif" font-size="14.00" fill="#000000">DialogUserSettingsDialog</text>
</g>
<!-- CoreModule -->
<g id="node8" class="node">
<title>CoreModule</title>
<polygon fill="#8dd3c7" stroke="#000000" points="2102.2619,-187 2099.2619,-191 2078.2619,-191 2075.2619,-187 2015.7381,-187 2015.7381,-151 2102.2619,-151 2102.2619,-187"/>
<text text-anchor="middle" x="2059" y="-164.8" font-family="Times,serif" font-size="14.00" fill="#000000">CoreModule</text>
</g>
<!-- DialogUserSettingsDialog&#45;&gt;CoreModule -->
<g id="edge1" class="edge">
<title>DialogUserSettingsDialog&#45;&gt;CoreModule</title>
<path fill="none" stroke="#000000" d="M3823,-122.1532C3823,-145.7566 3823,-184 3823,-184 3823,-184 2112.6047,-184 2112.6047,-184"/>
<polygon fill="#000000" stroke="#000000" points="2112.6048,-180.5001 2102.6047,-184 2112.6047,-187.5001 2112.6048,-180.5001"/>
</g>
<!-- ExtendSessionComponent -->
<g id="node2" class="node">
<title>ExtendSessionComponent</title>
<polygon fill="#ffffb3" stroke="#000000" points="3722.7674,-122 3559.2326,-122 3559.2326,-86 3722.7674,-86 3722.7674,-122"/>
<text text-anchor="middle" x="3641" y="-99.8" font-family="Times,serif" font-size="14.00" fill="#000000">ExtendSessionComponent</text>
</g>
<!-- ExtendSessionComponent&#45;&gt;CoreModule -->
<g id="edge2" class="edge">
<title>ExtendSessionComponent&#45;&gt;CoreModule</title>
<path fill="none" stroke="#000000" d="M3641,-122.2479C3641,-145.0179 3641,-181 3641,-181 3641,-181 2112.5481,-181 2112.5481,-181"/>
<polygon fill="#000000" stroke="#000000" points="2112.5481,-177.5001 2102.5481,-181 2112.5481,-184.5001 2112.5481,-177.5001"/>
</g>
<!-- InitPopupComponent -->
<g id="node3" class="node">
<title>InitPopupComponent</title>
<polygon fill="#ffffb3" stroke="#000000" points="3541.0575,-122 3404.9425,-122 3404.9425,-86 3541.0575,-86 3541.0575,-122"/>
<text text-anchor="middle" x="3473" y="-99.8" font-family="Times,serif" font-size="14.00" fill="#000000">InitPopupComponent</text>
</g>
<!-- InitPopupComponent&#45;&gt;CoreModule -->
<g id="edge3" class="edge">
<title>InitPopupComponent&#45;&gt;CoreModule</title>
<path fill="none" stroke="#000000" d="M3473,-122.2921C3473,-144.2057 3473,-178 3473,-178 3473,-178 2112.4787,-178 2112.4787,-178"/>
<polygon fill="#000000" stroke="#000000" points="2112.4788,-174.5001 2102.4787,-178 2112.4787,-181.5001 2112.4788,-174.5001"/>
</g>
<!-- MainComponent -->
<g id="node4" class="node">
<title>MainComponent</title>
<polygon fill="#ffffb3" stroke="#000000" points="3386.3823,-122 3275.6177,-122 3275.6177,-86 3386.3823,-86 3386.3823,-122"/>
<text text-anchor="middle" x="3331" y="-99.8" font-family="Times,serif" font-size="14.00" fill="#000000">MainComponent</text>
</g>
<!-- MainComponent&#45;&gt;CoreModule -->
<g id="edge4" class="edge">
<title>MainComponent&#45;&gt;CoreModule</title>
<path fill="none" stroke="#000000" d="M3331,-122.0267C3331,-142.7672 3331,-174 3331,-174 3331,-174 2112.4171,-174 2112.4171,-174"/>
<polygon fill="#000000" stroke="#000000" points="2112.4172,-170.5001 2102.4171,-174 2112.4171,-177.5001 2112.4172,-170.5001"/>
</g>
<!-- NavigationComponent -->
<g id="node5" class="node">
<title>NavigationComponent</title>
<polygon fill="#ffffb3" stroke="#000000" points="3257.5407,-122 3114.4593,-122 3114.4593,-86 3257.5407,-86 3257.5407,-122"/>
<text text-anchor="middle" x="3186" y="-99.8" font-family="Times,serif" font-size="14.00" fill="#000000">NavigationComponent</text>
</g>
<!-- NavigationComponent&#45;&gt;CoreModule -->
<g id="edge5" class="edge">
<title>NavigationComponent&#45;&gt;CoreModule</title>
<path fill="none" stroke="#000000" d="M3186,-122.308C3186,-142.1455 3186,-171 3186,-171 3186,-171 2112.4892,-171 2112.4892,-171"/>
<polygon fill="#000000" stroke="#000000" points="2112.4892,-167.5001 2102.4892,-171 2112.4891,-174.5001 2112.4892,-167.5001"/>
</g>
<!-- PageNotFoundComponent -->
<g id="node6" class="node">
<title>PageNotFoundComponent</title>
<polygon fill="#ffffb3" stroke="#000000" points="3096.8243,-122 2931.1757,-122 2931.1757,-86 3096.8243,-86 3096.8243,-122"/>
<text text-anchor="middle" x="3014" y="-99.8" font-family="Times,serif" font-size="14.00" fill="#000000">PageNotFoundComponent</text>
</g>
<!-- PageNotFoundComponent&#45;&gt;CoreModule -->
<g id="edge6" class="edge">
<title>PageNotFoundComponent&#45;&gt;CoreModule</title>
<path fill="none" stroke="#000000" d="M3014,-122.1686C3014,-141.0898 3014,-168 3014,-168 3014,-168 2112.5159,-168 2112.5159,-168"/>
<polygon fill="#000000" stroke="#000000" points="2112.516,-164.5001 2102.5159,-168 2112.5159,-171.5001 2112.516,-164.5001"/>
</g>
<!-- PizzaPartyComponent -->
<g id="node7" class="node">
<title>PizzaPartyComponent</title>
<polygon fill="#ffffb3" stroke="#000000" points="2913.6979,-122 2772.3021,-122 2772.3021,-86 2913.6979,-86 2913.6979,-122"/>
<text text-anchor="middle" x="2843" y="-99.8" font-family="Times,serif" font-size="14.00" fill="#000000">PizzaPartyComponent</text>
</g>
<!-- PizzaPartyComponent&#45;&gt;CoreModule -->
<g id="edge7" class="edge">
<title>PizzaPartyComponent&#45;&gt;CoreModule</title>
<path fill="none" stroke="#000000" d="M2843,-122.302C2843,-140.2699 2843,-165 2843,-165 2843,-165 2112.268,-165 2112.268,-165"/>
<polygon fill="#000000" stroke="#000000" points="2112.268,-161.5001 2102.268,-165 2112.268,-168.5001 2112.268,-161.5001"/>
</g>
<!-- MainComponent  -->
<g id="node18" class="node">
<title>MainComponent </title>
<polygon fill="#fb8072" stroke="#000000" points="2116.3828,-252 2001.6172,-252 2001.6172,-216 2116.3828,-216 2116.3828,-252"/>
<text text-anchor="middle" x="2059" y="-229.8" font-family="Times,serif" font-size="14.00" fill="#000000">MainComponent </text>
</g>
<!-- CoreModule&#45;&gt;MainComponent  -->
<g id="edge17" class="edge">
<title>CoreModule&#45;&gt;MainComponent </title>
<path fill="none" stroke="#000000" stroke-dasharray="5,2" d="M2059,-187.1061C2059,-187.1061 2059,-205.991 2059,-205.991"/>
<polygon fill="#000000" stroke="#000000" points="2055.5001,-205.9909 2059,-215.991 2062.5001,-205.991 2055.5001,-205.9909"/>
</g>
<!-- DashboardModule -->
<g id="node9" class="node">
<title>DashboardModule</title>
<polygon fill="#8dd3c7" stroke="#000000" points="2748.191,-122 2745.191,-126 2724.191,-126 2721.191,-122 2627.809,-122 2627.809,-86 2748.191,-86 2748.191,-122"/>
<text text-anchor="middle" x="2688" y="-99.8" font-family="Times,serif" font-size="14.00" fill="#000000">DashboardModule</text>
</g>
<!-- DashboardModule&#45;&gt;CoreModule -->
<g id="edge8" class="edge">
<title>DashboardModule&#45;&gt;CoreModule</title>
<path fill="none" stroke="#000000" d="M2688,-122.0352C2688,-138.7344 2688,-161 2688,-161 2688,-161 2112.7307,-161 2112.7307,-161"/>
<polygon fill="#000000" stroke="#000000" points="2112.7307,-157.5001 2102.7307,-161 2112.7306,-164.5001 2112.7307,-157.5001"/>
</g>
<!-- DevelopmentViewsModule -->
<g id="node10" class="node">
<title>DevelopmentViewsModule</title>
<polygon fill="#8dd3c7" stroke="#000000" points="2610.2352,-122 2607.2352,-126 2586.2352,-126 2583.2352,-122 2439.7648,-122 2439.7648,-86 2610.2352,-86 2610.2352,-122"/>
<text text-anchor="middle" x="2525" y="-99.8" font-family="Times,serif" font-size="14.00" fill="#000000">DevelopmentViewsModule</text>
</g>
<!-- DevelopmentViewsModule&#45;&gt;CoreModule -->
<g id="edge9" class="edge">
<title>DevelopmentViewsModule&#45;&gt;CoreModule</title>
<path fill="none" stroke="#000000" d="M2525,-122.2819C2525,-137.9478 2525,-158 2525,-158 2525,-158 2112.4217,-158 2112.4217,-158"/>
<polygon fill="#000000" stroke="#000000" points="2112.4217,-154.5001 2102.4217,-158 2112.4217,-161.5001 2112.4217,-154.5001"/>
</g>
<!-- HowToProgramWithNieOSModule -->
<g id="node11" class="node">
<title>HowToProgramWithNieOSModule</title>
<polygon fill="#8dd3c7" stroke="#000000" points="2421.1217,-122 2418.1217,-126 2397.1217,-126 2394.1217,-122 2204.8783,-122 2204.8783,-86 2421.1217,-86 2421.1217,-122"/>
<text text-anchor="middle" x="2313" y="-99.8" font-family="Times,serif" font-size="14.00" fill="#000000">HowToProgramWithNieOSModule</text>
</g>
<!-- HowToProgramWithNieOSModule&#45;&gt;CoreModule -->
<g id="edge10" class="edge">
<title>HowToProgramWithNieOSModule&#45;&gt;CoreModule</title>
<path fill="none" stroke="#000000" d="M2313,-122.1243C2313,-136.7832 2313,-155 2313,-155 2313,-155 2112.3756,-155 2112.3756,-155"/>
<polygon fill="#000000" stroke="#000000" points="2112.3756,-151.5001 2102.3756,-155 2112.3755,-158.5001 2112.3756,-151.5001"/>
</g>
<!-- MaterialModule -->
<g id="node12" class="node">
<title>MaterialModule</title>
<polygon fill="#8dd3c7" stroke="#000000" points="2186.4706,-122 2183.4706,-126 2162.4706,-126 2159.4706,-122 2079.5294,-122 2079.5294,-86 2186.4706,-86 2186.4706,-122"/>
<text text-anchor="middle" x="2133" y="-99.8" font-family="Times,serif" font-size="14.00" fill="#000000">MaterialModule</text>
</g>
<!-- MaterialModule&#45;&gt;CoreModule -->
<g id="edge11" class="edge">
<title>MaterialModule&#45;&gt;CoreModule</title>
<path fill="none" stroke="#000000" d="M2090.9478,-122.1061C2090.9478,-122.1061 2090.9478,-140.991 2090.9478,-140.991"/>
<polygon fill="#000000" stroke="#000000" points="2087.4478,-140.9909 2090.9478,-150.991 2094.4478,-140.991 2087.4478,-140.9909"/>
</g>
<!-- MockupTutorialModule -->
<g id="node13" class="node">
<title>MockupTutorialModule</title>
<polygon fill="#8dd3c7" stroke="#000000" points="2061.8089,-122 2058.8089,-126 2037.8089,-126 2034.8089,-122 1910.1911,-122 1910.1911,-86 2061.8089,-86 2061.8089,-122"/>
<text text-anchor="middle" x="1986" y="-99.8" font-family="Times,serif" font-size="14.00" fill="#000000">MockupTutorialModule</text>
</g>
<!-- MockupTutorialModule&#45;&gt;CoreModule -->
<g id="edge12" class="edge">
<title>MockupTutorialModule&#45;&gt;CoreModule</title>
<path fill="none" stroke="#000000" d="M2038.6368,-122.1061C2038.6368,-122.1061 2038.6368,-140.991 2038.6368,-140.991"/>
<polygon fill="#000000" stroke="#000000" points="2035.1368,-140.9909 2038.6368,-150.991 2042.1368,-140.991 2035.1368,-140.9909"/>
</g>
<!-- NIEOSModule -->
<g id="node14" class="node">
<title>NIEOSModule</title>
<polygon fill="#8dd3c7" stroke="#000000" points="1892.2591,-122 1889.2591,-126 1868.2591,-126 1865.2591,-122 1791.7409,-122 1791.7409,-86 1892.2591,-86 1892.2591,-122"/>
<text text-anchor="middle" x="1842" y="-99.8" font-family="Times,serif" font-size="14.00" fill="#000000">NIEOSModule</text>
</g>
<!-- NIEOSModule&#45;&gt;CoreModule -->
<g id="edge13" class="edge">
<title>NIEOSModule&#45;&gt;CoreModule</title>
<path fill="none" stroke="#000000" d="M1842,-122.1243C1842,-136.7832 1842,-155 1842,-155 1842,-155 2005.6084,-155 2005.6084,-155"/>
<polygon fill="#000000" stroke="#000000" points="2005.6084,-158.5001 2015.6084,-155 2005.6083,-151.5001 2005.6084,-158.5001"/>
</g>
<!-- StaticPagesModule -->
<g id="node15" class="node">
<title>StaticPagesModule</title>
<polygon fill="#8dd3c7" stroke="#000000" points="1774.0898,-122 1771.0898,-126 1750.0898,-126 1747.0898,-122 1649.9102,-122 1649.9102,-86 1774.0898,-86 1774.0898,-122"/>
<text text-anchor="middle" x="1712" y="-99.8" font-family="Times,serif" font-size="14.00" fill="#000000">StaticPagesModule</text>
</g>
<!-- StaticPagesModule&#45;&gt;CoreModule -->
<g id="edge14" class="edge">
<title>StaticPagesModule&#45;&gt;CoreModule</title>
<path fill="none" stroke="#000000" d="M1712,-122.2819C1712,-137.9478 1712,-158 1712,-158 1712,-158 2005.4036,-158 2005.4036,-158"/>
<polygon fill="#000000" stroke="#000000" points="2005.4036,-161.5001 2015.4036,-158 2005.4035,-154.5001 2005.4036,-161.5001"/>
</g>
<!-- SynopsisModule -->
<g id="node16" class="node">
<title>SynopsisModule</title>
<polygon fill="#8dd3c7" stroke="#000000" points="1632.1123,-122 1629.1123,-126 1608.1123,-126 1605.1123,-122 1521.8877,-122 1521.8877,-86 1632.1123,-86 1632.1123,-122"/>
<text text-anchor="middle" x="1577" y="-99.8" font-family="Times,serif" font-size="14.00" fill="#000000">SynopsisModule</text>
</g>
<!-- SynopsisModule&#45;&gt;CoreModule -->
<g id="edge15" class="edge">
<title>SynopsisModule&#45;&gt;CoreModule</title>
<path fill="none" stroke="#000000" d="M1577,-122.0352C1577,-138.7344 1577,-161 1577,-161 1577,-161 2005.3756,-161 2005.3756,-161"/>
<polygon fill="#000000" stroke="#000000" points="2005.3756,-164.5001 2015.3756,-161 2005.3756,-157.5001 2005.3756,-164.5001"/>
</g>
<!-- TextViewModule -->
<g id="node17" class="node">
<title>TextViewModule</title>
<polygon fill="#8dd3c7" stroke="#000000" points="1503.527,-122 1500.527,-126 1479.527,-126 1476.527,-122 1388.473,-122 1388.473,-86 1503.527,-86 1503.527,-122"/>
<text text-anchor="middle" x="1446" y="-99.8" font-family="Times,serif" font-size="14.00" fill="#000000">TextViewModule</text>
</g>
<!-- TextViewModule&#45;&gt;CoreModule -->
<g id="edge16" class="edge">
<title>TextViewModule&#45;&gt;CoreModule</title>
<path fill="none" stroke="#000000" d="M1446,-122.302C1446,-140.2699 1446,-165 1446,-165 1446,-165 2005.406,-165 2005.406,-165"/>
<polygon fill="#000000" stroke="#000000" points="2005.406,-168.5001 2015.406,-165 2005.4059,-161.5001 2005.406,-168.5001"/>
</g>
<!-- AuthenticationService -->
<g id="node19" class="node">
<title>AuthenticationService</title>
<ellipse fill="#fdb462" stroke="#000000" cx="1267" cy="-104" rx="97.2683" ry="18"/>
<text text-anchor="middle" x="1267" y="-99.8" font-family="Times,serif" font-size="14.00" fill="#000000">AuthenticationService</text>
</g>
<!-- AuthenticationService&#45;&gt;CoreModule -->
<g id="edge18" class="edge">
<title>AuthenticationService&#45;&gt;CoreModule</title>
<path fill="none" stroke="#000000" d="M1267,-122.1686C1267,-141.0898 1267,-168 1267,-168 1267,-168 2005.5738,-168 2005.5738,-168"/>
<polygon fill="#000000" stroke="#000000" points="2005.5738,-171.5001 2015.5738,-168 2005.5737,-164.5001 2005.5738,-171.5001"/>
</g>
<!-- KnoraAuthService -->
<g id="node20" class="node">
<title>KnoraAuthService</title>
<ellipse fill="#fdb462" stroke="#000000" cx="1068" cy="-104" rx="83.3674" ry="18"/>
<text text-anchor="middle" x="1068" y="-99.8" font-family="Times,serif" font-size="14.00" fill="#000000">KnoraAuthService</text>
</g>
<!-- KnoraAuthService&#45;&gt;CoreModule -->
<g id="edge19" class="edge">
<title>KnoraAuthService&#45;&gt;CoreModule</title>
<path fill="none" stroke="#000000" d="M1068,-122.308C1068,-142.1455 1068,-171 1068,-171 1068,-171 2005.4605,-171 2005.4605,-171"/>
<polygon fill="#000000" stroke="#000000" points="2005.4606,-174.5001 2015.4605,-171 2005.4605,-167.5001 2005.4606,-174.5001"/>
</g>
<!-- KnoraRequestService -->
<g id="node21" class="node">
<title>KnoraRequestService</title>
<ellipse fill="#fdb462" stroke="#000000" cx="871" cy="-104" rx="95.4637" ry="18"/>
<text text-anchor="middle" x="871" y="-99.8" font-family="Times,serif" font-size="14.00" fill="#000000">KnoraRequestService</text>
</g>
<!-- KnoraRequestService&#45;&gt;CoreModule -->
<g id="edge20" class="edge">
<title>KnoraRequestService&#45;&gt;CoreModule</title>
<path fill="none" stroke="#000000" d="M871,-122.0267C871,-142.7672 871,-174 871,-174 871,-174 2005.6637,-174 2005.6637,-174"/>
<polygon fill="#000000" stroke="#000000" points="2005.6638,-177.5001 2015.6637,-174 2005.6637,-170.5001 2005.6638,-177.5001"/>
</g>
<!-- ResultToTextMapperService -->
<g id="node22" class="node">
<title>ResultToTextMapperService</title>
<ellipse fill="#fdb462" stroke="#000000" cx="635" cy="-104" rx="123.2514" ry="18"/>
<text text-anchor="middle" x="635" y="-99.8" font-family="Times,serif" font-size="14.00" fill="#000000">ResultToTextMapperService</text>
</g>
<!-- ResultToTextMapperService&#45;&gt;CoreModule -->
<g id="edge21" class="edge">
<title>ResultToTextMapperService&#45;&gt;CoreModule</title>
<path fill="none" stroke="#000000" d="M635,-122.2921C635,-144.2057 635,-178 635,-178 635,-178 2005.605,-178 2005.605,-178"/>
<polygon fill="#000000" stroke="#000000" points="2005.605,-181.5001 2015.605,-178 2005.6049,-174.5001 2005.605,-181.5001"/>
</g>
<!-- SparqlRequestService -->
<g id="node23" class="node">
<title>SparqlRequestService</title>
<ellipse fill="#fdb462" stroke="#000000" cx="398" cy="-104" rx="96.1247" ry="18"/>
<text text-anchor="middle" x="398" y="-99.8" font-family="Times,serif" font-size="14.00" fill="#000000">SparqlRequestService</text>
</g>
<!-- SparqlRequestService&#45;&gt;CoreModule -->
<g id="edge22" class="edge">
<title>SparqlRequestService&#45;&gt;CoreModule</title>
<path fill="none" stroke="#000000" d="M398,-122.2479C398,-145.0179 398,-181 398,-181 398,-181 2005.4261,-181 2005.4261,-181"/>
<polygon fill="#000000" stroke="#000000" points="2005.4261,-184.5001 2015.4261,-181 2005.426,-177.5001 2005.4261,-184.5001"/>
</g>
<!-- SynopsisObjectStorageService -->
<g id="node24" class="node">
<title>SynopsisObjectStorageService</title>
<ellipse fill="#fdb462" stroke="#000000" cx="154" cy="-104" rx="130.2134" ry="18"/>
<text text-anchor="middle" x="154" y="-99.8" font-family="Times,serif" font-size="14.00" fill="#000000">SynopsisObjectStorageService</text>
</g>
<!-- SynopsisObjectStorageService&#45;&gt;CoreModule -->
<g id="edge23" class="edge">
<title>SynopsisObjectStorageService&#45;&gt;CoreModule</title>
<path fill="none" stroke="#000000" d="M154,-122.1532C154,-145.7566 154,-184 154,-184 154,-184 2005.6321,-184 2005.6321,-184"/>
<polygon fill="#000000" stroke="#000000" points="2005.6322,-187.5001 2015.6321,-184 2005.6321,-180.5001 2005.6322,-187.5001"/>
</g>
</g>
</svg>
