<?xml version="1.0" encoding="UTF-8" standalone="no"?>
<!DOCTYPE svg PUBLIC "-//W3C//DTD SVG 1.1//EN"
 "http://www.w3.org/Graphics/SVG/1.1/DTD/svg11.dtd">
<!-- Generated by graphviz version 2.40.1 (20161225.0304)
 -->
<!-- Title: dependencies Pages: 1 -->
<svg width="3624pt" height="284pt"
 viewBox="0.00 0.00 3624.00 284.00" xmlns="http://www.w3.org/2000/svg" xmlns:xlink="http://www.w3.org/1999/xlink">
<g id="graph0" class="graph" transform="scale(1 1) rotate(0) translate(4 280)">
<title>dependencies</title>
<polygon fill="#ffffff" stroke="transparent" points="-4,4 -4,-280 3620,-280 3620,4 -4,4"/>
<text text-anchor="start" x="1787.0091" y="-42.4" font-family="sans-serif" font-weight="bold" font-size="14.00" fill="#000000">Legend</text>
<polygon fill="#ffffb3" stroke="transparent" points="1574,-10 1574,-30 1594,-30 1594,-10 1574,-10"/>
<text text-anchor="start" x="1597.629" y="-15.4" font-family="sans-serif" font-size="14.00" fill="#000000"> &#160;Declarations</text>
<polygon fill="#8dd3c7" stroke="transparent" points="1687,-10 1687,-30 1707,-30 1707,-10 1687,-10"/>
<text text-anchor="start" x="1710.7251" y="-15.4" font-family="sans-serif" font-size="14.00" fill="#000000"> &#160;Module</text>
<polygon fill="#80b1d3" stroke="transparent" points="1773,-10 1773,-30 1793,-30 1793,-10 1773,-10"/>
<text text-anchor="start" x="1796.7812" y="-15.4" font-family="sans-serif" font-size="14.00" fill="#000000"> &#160;Bootstrap</text>
<polygon fill="#fdb462" stroke="transparent" points="1870,-10 1870,-30 1890,-30 1890,-10 1870,-10"/>
<text text-anchor="start" x="1893.6732" y="-15.4" font-family="sans-serif" font-size="14.00" fill="#000000"> &#160;Providers</text>
<polygon fill="#fb8072" stroke="transparent" points="1966,-10 1966,-30 1986,-30 1986,-10 1966,-10"/>
<text text-anchor="start" x="1989.7258" y="-15.4" font-family="sans-serif" font-size="14.00" fill="#000000"> &#160;Exports</text>
<g id="clust1" class="cluster">
<title>cluster_CoreModule</title>
<polygon fill="none" stroke="#000000" stroke-dasharray="1,5" points="8,-70 8,-268 3608,-268 3608,-70 8,-70"/>
</g>
<g id="clust2" class="cluster">
<title>cluster_CoreModule_declarations</title>
<polygon fill="none" stroke="#000000" points="2853,-78 2853,-130 3600,-130 3600,-78 2853,-78"/>
</g>
<g id="clust8" class="cluster">
<title>cluster_CoreModule_imports</title>
<polygon fill="none" stroke="#000000" points="1380,-78 1380,-130 2845,-130 2845,-78 1380,-78"/>
</g>
<g id="clust9" class="cluster">
<title>cluster_CoreModule_exports</title>
<polygon fill="none" stroke="#000000" points="1778,-208 1778,-260 2191,-260 2191,-208 1778,-208"/>
</g>
<g id="clust11" class="cluster">
<title>cluster_CoreModule_providers</title>
<polygon fill="none" stroke="#000000" points="16,-78 16,-130 1372,-130 1372,-78 16,-78"/>
</g>
<!-- FooterComponent -->
<g id="node1" class="node">
<title>FooterComponent</title>
<polygon fill="#ffffb3" stroke="#000000" points="3591.8809,-122 3474.1191,-122 3474.1191,-86 3591.8809,-86 3591.8809,-122"/>
<text text-anchor="middle" x="3533" y="-99.8" font-family="Times,serif" font-size="14.00" fill="#000000">FooterComponent</text>
</g>
<!-- CoreModule -->
<g id="node6" class="node">
<title>CoreModule</title>
<polygon fill="#8dd3c7" stroke="#000000" points="2024.2619,-187 2021.2619,-191 2000.2619,-191 1997.2619,-187 1937.7381,-187 1937.7381,-151 2024.2619,-151 2024.2619,-187"/>
<text text-anchor="middle" x="1981" y="-164.8" font-family="Times,serif" font-size="14.00" fill="#000000">CoreModule</text>
</g>
<!-- FooterComponent&#45;&gt;CoreModule -->
<g id="edge1" class="edge">
<title>FooterComponent&#45;&gt;CoreModule</title>
<path fill="none" stroke="#000000" d="M3533,-122.2479C3533,-145.0179 3533,-181 3533,-181 3533,-181 2034.5379,-181 2034.5379,-181"/>
<polygon fill="#000000" stroke="#000000" points="2034.5379,-177.5001 2024.5379,-181 2034.5378,-184.5001 2034.5379,-177.5001"/>
</g>
<!-- HeaderComponent -->
<g id="node2" class="node">
<title>HeaderComponent</title>
<polygon fill="#ffffb3" stroke="#000000" points="3455.7437,-122 3334.2563,-122 3334.2563,-86 3455.7437,-86 3455.7437,-122"/>
<text text-anchor="middle" x="3395" y="-99.8" font-family="Times,serif" font-size="14.00" fill="#000000">HeaderComponent</text>
</g>
<!-- HeaderComponent&#45;&gt;CoreModule -->
<g id="edge2" class="edge">
<title>HeaderComponent&#45;&gt;CoreModule</title>
<path fill="none" stroke="#000000" d="M3395,-122.2921C3395,-144.2057 3395,-178 3395,-178 3395,-178 2034.4787,-178 2034.4787,-178"/>
<polygon fill="#000000" stroke="#000000" points="2034.4788,-174.5001 2024.4787,-178 2034.4787,-181.5001 2034.4788,-174.5001"/>
</g>
<!-- MainComponent -->
<g id="node3" class="node">
<title>MainComponent</title>
<polygon fill="#ffffb3" stroke="#000000" points="3316.3823,-122 3205.6177,-122 3205.6177,-86 3316.3823,-86 3316.3823,-122"/>
<text text-anchor="middle" x="3261" y="-99.8" font-family="Times,serif" font-size="14.00" fill="#000000">MainComponent</text>
</g>
<!-- MainComponent&#45;&gt;CoreModule -->
<g id="edge3" class="edge">
<title>MainComponent&#45;&gt;CoreModule</title>
<path fill="none" stroke="#000000" d="M3261,-122.2843C3261,-143.3211 3261,-175 3261,-175 3261,-175 2034.3213,-175 2034.3213,-175"/>
<polygon fill="#000000" stroke="#000000" points="2034.3214,-171.5001 2024.3213,-175 2034.3213,-178.5001 2034.3214,-171.5001"/>
</g>
<!-- NavigationComponent -->
<g id="node4" class="node">
<title>NavigationComponent</title>
<polygon fill="#ffffb3" stroke="#000000" points="3187.5407,-122 3044.4593,-122 3044.4593,-86 3187.5407,-86 3187.5407,-122"/>
<text text-anchor="middle" x="3116" y="-99.8" font-family="Times,serif" font-size="14.00" fill="#000000">NavigationComponent</text>
</g>
<!-- NavigationComponent&#45;&gt;CoreModule -->
<g id="edge4" class="edge">
<title>NavigationComponent&#45;&gt;CoreModule</title>
<path fill="none" stroke="#000000" d="M3116,-122.2228C3116,-142.3652 3116,-172 3116,-172 3116,-172 2034.452,-172 2034.452,-172"/>
<polygon fill="#000000" stroke="#000000" points="2034.4521,-168.5001 2024.452,-172 2034.452,-175.5001 2034.4521,-168.5001"/>
</g>
<!-- PageNotFoundComponent -->
<g id="node5" class="node">
<title>PageNotFoundComponent</title>
<polygon fill="#ffffb3" stroke="#000000" points="3026.8243,-122 2861.1757,-122 2861.1757,-86 3026.8243,-86 3026.8243,-122"/>
<text text-anchor="middle" x="2944" y="-99.8" font-family="Times,serif" font-size="14.00" fill="#000000">PageNotFoundComponent</text>
</g>
<!-- PageNotFoundComponent&#45;&gt;CoreModule -->
<g id="edge5" class="edge">
<title>PageNotFoundComponent&#45;&gt;CoreModule</title>
<path fill="none" stroke="#000000" d="M2944,-122.1061C2944,-141.3391 2944,-169 2944,-169 2944,-169 2034.5642,-169 2034.5642,-169"/>
<polygon fill="#000000" stroke="#000000" points="2034.5642,-165.5001 2024.5642,-169 2034.5642,-172.5001 2034.5642,-165.5001"/>
</g>
<!-- FooterComponent  -->
<g id="node17" class="node">
<title>FooterComponent </title>
<polygon fill="#fb8072" stroke="#000000" points="2182.8814,-252 2061.1186,-252 2061.1186,-216 2182.8814,-216 2182.8814,-252"/>
<text text-anchor="middle" x="2122" y="-229.8" font-family="Times,serif" font-size="14.00" fill="#000000">FooterComponent </text>
</g>
<!-- CoreModule&#45;&gt;FooterComponent  -->
<g id="edge16" class="edge">
<title>CoreModule&#45;&gt;FooterComponent </title>
<path fill="none" stroke="#000000" stroke-dasharray="5,2" d="M2024.6896,-184C2045.2867,-184 2065.4122,-184 2065.4122,-184 2065.4122,-184 2065.4122,-205.9489 2065.4122,-205.9489"/>
<polygon fill="#000000" stroke="#000000" points="2061.9122,-205.9488 2065.4122,-215.9489 2068.9122,-205.9489 2061.9122,-205.9488"/>
</g>
<!-- HeaderComponent  -->
<g id="node18" class="node">
<title>HeaderComponent </title>
<polygon fill="#fb8072" stroke="#000000" points="2043.7436,-252 1918.2564,-252 1918.2564,-216 2043.7436,-216 2043.7436,-252"/>
<text text-anchor="middle" x="1981" y="-229.8" font-family="Times,serif" font-size="14.00" fill="#000000">HeaderComponent </text>
</g>
<!-- CoreModule&#45;&gt;HeaderComponent  -->
<g id="edge17" class="edge">
<title>CoreModule&#45;&gt;HeaderComponent </title>
<path fill="none" stroke="#000000" stroke-dasharray="5,2" d="M1981,-187.1061C1981,-187.1061 1981,-205.991 1981,-205.991"/>
<polygon fill="#000000" stroke="#000000" points="1977.5001,-205.9909 1981,-215.991 1984.5001,-205.991 1977.5001,-205.9909"/>
</g>
<!-- MainComponent  -->
<g id="node19" class="node">
<title>MainComponent </title>
<polygon fill="#fb8072" stroke="#000000" points="1900.3828,-252 1785.6172,-252 1785.6172,-216 1900.3828,-216 1900.3828,-252"/>
<text text-anchor="middle" x="1843" y="-229.8" font-family="Times,serif" font-size="14.00" fill="#000000">MainComponent </text>
</g>
<!-- CoreModule&#45;&gt;MainComponent  -->
<g id="edge18" class="edge">
<title>CoreModule&#45;&gt;MainComponent </title>
<path fill="none" stroke="#000000" stroke-dasharray="5,2" d="M1937.65,-184C1916.8073,-184 1896.2853,-184 1896.2853,-184 1896.2853,-184 1896.2853,-205.9489 1896.2853,-205.9489"/>
<polygon fill="#000000" stroke="#000000" points="1892.7853,-205.9488 1896.2853,-215.9489 1899.7853,-205.9489 1892.7853,-205.9488"/>
</g>
<!-- CreateResourceViewModule -->
<g id="node7" class="node">
<title>CreateResourceViewModule</title>
<polygon fill="#8dd3c7" stroke="#000000" points="2837.4861,-122 2834.4861,-126 2813.4861,-126 2810.4861,-122 2658.5139,-122 2658.5139,-86 2837.4861,-86 2837.4861,-122"/>
<text text-anchor="middle" x="2748" y="-99.8" font-family="Times,serif" font-size="14.00" fill="#000000">CreateResourceViewModule</text>
</g>
<!-- CreateResourceViewModule&#45;&gt;CoreModule -->
<g id="edge6" class="edge">
<title>CreateResourceViewModule&#45;&gt;CoreModule</title>
<path fill="none" stroke="#000000" d="M2748,-122.2667C2748,-140.5552 2748,-166 2748,-166 2748,-166 2034.4349,-166 2034.4349,-166"/>
<polygon fill="#000000" stroke="#000000" points="2034.4349,-162.5001 2024.4349,-166 2034.4348,-169.5001 2034.4349,-162.5001"/>
</g>
<!-- DashboardModule -->
<g id="node8" class="node">
<title>DashboardModule</title>
<polygon fill="#8dd3c7" stroke="#000000" points="2641.191,-122 2638.191,-126 2617.191,-126 2614.191,-122 2520.809,-122 2520.809,-86 2641.191,-86 2641.191,-122"/>
<text text-anchor="middle" x="2581" y="-99.8" font-family="Times,serif" font-size="14.00" fill="#000000">DashboardModule</text>
</g>
<!-- DashboardModule&#45;&gt;CoreModule -->
<g id="edge7" class="edge">
<title>DashboardModule&#45;&gt;CoreModule</title>
<path fill="none" stroke="#000000" d="M2581,-122.0225C2581,-139.3734 2581,-163 2581,-163 2581,-163 2034.6338,-163 2034.6338,-163"/>
<polygon fill="#000000" stroke="#000000" points="2034.6339,-159.5001 2024.6338,-163 2034.6338,-166.5001 2034.6339,-159.5001"/>
</g>
<!-- EditResourceViewModule -->
<g id="node9" class="node">
<title>EditResourceViewModule</title>
<polygon fill="#8dd3c7" stroke="#000000" points="2502.7879,-122 2499.7879,-126 2478.7879,-126 2475.7879,-122 2337.2121,-122 2337.2121,-86 2502.7879,-86 2502.7879,-122"/>
<text text-anchor="middle" x="2420" y="-99.8" font-family="Times,serif" font-size="14.00" fill="#000000">EditResourceViewModule</text>
</g>
<!-- EditResourceViewModule&#45;&gt;CoreModule -->
<g id="edge8" class="edge">
<title>EditResourceViewModule&#45;&gt;CoreModule</title>
<path fill="none" stroke="#000000" d="M2420,-122.027C2420,-138.3976 2420,-160 2420,-160 2420,-160 2034.2944,-160 2034.2944,-160"/>
<polygon fill="#000000" stroke="#000000" points="2034.2945,-156.5001 2024.2944,-160 2034.2944,-163.5001 2034.2945,-156.5001"/>
</g>
<!-- ImageViewModule -->
<g id="node10" class="node">
<title>ImageViewModule</title>
<polygon fill="#8dd3c7" stroke="#000000" points="2319.3487,-122 2316.3487,-126 2295.3487,-126 2292.3487,-122 2194.6513,-122 2194.6513,-86 2319.3487,-86 2319.3487,-122"/>
<text text-anchor="middle" x="2257" y="-99.8" font-family="Times,serif" font-size="14.00" fill="#000000">ImageViewModule</text>
</g>
<!-- ImageViewModule&#45;&gt;CoreModule -->
<g id="edge9" class="edge">
<title>ImageViewModule&#45;&gt;CoreModule</title>
<path fill="none" stroke="#000000" d="M2257,-122.2396C2257,-137.5706 2257,-157 2257,-157 2257,-157 2034.4286,-157 2034.4286,-157"/>
<polygon fill="#000000" stroke="#000000" points="2034.4287,-153.5001 2024.4286,-157 2034.4286,-160.5001 2034.4287,-153.5001"/>
</g>
<!-- MaterialModule -->
<g id="node11" class="node">
<title>MaterialModule</title>
<polygon fill="#8dd3c7" stroke="#000000" points="2176.4706,-122 2173.4706,-126 2152.4706,-126 2149.4706,-122 2069.5294,-122 2069.5294,-86 2176.4706,-86 2176.4706,-122"/>
<text text-anchor="middle" x="2123" y="-99.8" font-family="Times,serif" font-size="14.00" fill="#000000">MaterialModule</text>
</g>
<!-- MaterialModule&#45;&gt;CoreModule -->
<g id="edge10" class="edge">
<title>MaterialModule&#45;&gt;CoreModule</title>
<path fill="none" stroke="#000000" d="M2123,-122.0511C2123,-136.373 2123,-154 2123,-154 2123,-154 2034.3763,-154 2034.3763,-154"/>
<polygon fill="#000000" stroke="#000000" points="2034.3763,-150.5001 2024.3763,-154 2034.3762,-157.5001 2034.3763,-150.5001"/>
</g>
<!-- MetadataViewModule -->
<g id="node12" class="node">
<title>MetadataViewModule</title>
<polygon fill="#8dd3c7" stroke="#000000" points="2051.9524,-122 2048.9524,-126 2027.9524,-126 2024.9524,-122 1910.0476,-122 1910.0476,-86 2051.9524,-86 2051.9524,-122"/>
<text text-anchor="middle" x="1981" y="-99.8" font-family="Times,serif" font-size="14.00" fill="#000000">MetadataViewModule</text>
</g>
<!-- MetadataViewModule&#45;&gt;CoreModule -->
<g id="edge11" class="edge">
<title>MetadataViewModule&#45;&gt;CoreModule</title>
<path fill="none" stroke="#000000" d="M1981,-122.1061C1981,-122.1061 1981,-140.991 1981,-140.991"/>
<polygon fill="#000000" stroke="#000000" points="1977.5001,-140.9909 1981,-150.991 1984.5001,-140.991 1977.5001,-140.9909"/>
</g>
<!-- NIEOSModule -->
<g id="node13" class="node">
<title>NIEOSModule</title>
<polygon fill="#8dd3c7" stroke="#000000" points="1892.2591,-122 1889.2591,-126 1868.2591,-126 1865.2591,-122 1791.7409,-122 1791.7409,-86 1892.2591,-86 1892.2591,-122"/>
<text text-anchor="middle" x="1842" y="-99.8" font-family="Times,serif" font-size="14.00" fill="#000000">NIEOSModule</text>
</g>
<!-- NIEOSModule&#45;&gt;CoreModule -->
<g id="edge12" class="edge">
<title>NIEOSModule&#45;&gt;CoreModule</title>
<path fill="none" stroke="#000000" d="M1842,-122.0511C1842,-136.373 1842,-154 1842,-154 1842,-154 1927.4009,-154 1927.4009,-154"/>
<polygon fill="#000000" stroke="#000000" points="1927.4009,-157.5001 1937.4009,-154 1927.4009,-150.5001 1927.4009,-157.5001"/>
</g>
<!-- StaticPagesModule -->
<g id="node14" class="node">
<title>StaticPagesModule</title>
<polygon fill="#8dd3c7" stroke="#000000" points="1774.0898,-122 1771.0898,-126 1750.0898,-126 1747.0898,-122 1649.9102,-122 1649.9102,-86 1774.0898,-86 1774.0898,-122"/>
<text text-anchor="middle" x="1712" y="-99.8" font-family="Times,serif" font-size="14.00" fill="#000000">StaticPagesModule</text>
</g>
<!-- StaticPagesModule&#45;&gt;CoreModule -->
<g id="edge13" class="edge">
<title>StaticPagesModule&#45;&gt;CoreModule</title>
<path fill="none" stroke="#000000" d="M1712,-122.2396C1712,-137.5706 1712,-157 1712,-157 1712,-157 1927.4815,-157 1927.4815,-157"/>
<polygon fill="#000000" stroke="#000000" points="1927.4816,-160.5001 1937.4815,-157 1927.4815,-153.5001 1927.4816,-160.5001"/>
</g>
<!-- SynopsisModule -->
<g id="node15" class="node">
<title>SynopsisModule</title>
<polygon fill="#8dd3c7" stroke="#000000" points="1632.1123,-122 1629.1123,-126 1608.1123,-126 1605.1123,-122 1521.8877,-122 1521.8877,-86 1632.1123,-86 1632.1123,-122"/>
<text text-anchor="middle" x="1577" y="-99.8" font-family="Times,serif" font-size="14.00" fill="#000000">SynopsisModule</text>
</g>
<!-- SynopsisModule&#45;&gt;CoreModule -->
<g id="edge14" class="edge">
<title>SynopsisModule&#45;&gt;CoreModule</title>
<path fill="none" stroke="#000000" d="M1577,-122.027C1577,-138.3976 1577,-160 1577,-160 1577,-160 1927.3811,-160 1927.3811,-160"/>
<polygon fill="#000000" stroke="#000000" points="1927.3811,-163.5001 1937.3811,-160 1927.381,-156.5001 1927.3811,-163.5001"/>
</g>
<!-- TextViewModule -->
<g id="node16" class="node">
<title>TextViewModule</title>
<polygon fill="#8dd3c7" stroke="#000000" points="1503.527,-122 1500.527,-126 1479.527,-126 1476.527,-122 1388.473,-122 1388.473,-86 1503.527,-86 1503.527,-122"/>
<text text-anchor="middle" x="1446" y="-99.8" font-family="Times,serif" font-size="14.00" fill="#000000">TextViewModule</text>
</g>
<!-- TextViewModule&#45;&gt;CoreModule -->
<g id="edge15" class="edge">
<title>TextViewModule&#45;&gt;CoreModule</title>
<path fill="none" stroke="#000000" d="M1446,-122.0225C1446,-139.3734 1446,-163 1446,-163 1446,-163 1927.6719,-163 1927.6719,-163"/>
<polygon fill="#000000" stroke="#000000" points="1927.6719,-166.5001 1937.6719,-163 1927.6718,-159.5001 1927.6719,-166.5001"/>
</g>
<!-- AuthenticationService -->
<g id="node20" class="node">
<title>AuthenticationService</title>
<ellipse fill="#fdb462" stroke="#000000" cx="1267" cy="-104" rx="97.2683" ry="18"/>
<text text-anchor="middle" x="1267" y="-99.8" font-family="Times,serif" font-size="14.00" fill="#000000">AuthenticationService</text>
</g>
<!-- AuthenticationService&#45;&gt;CoreModule -->
<g id="edge19" class="edge">
<title>AuthenticationService&#45;&gt;CoreModule</title>
<path fill="none" stroke="#000000" d="M1267,-122.2667C1267,-140.5552 1267,-166 1267,-166 1267,-166 1927.6778,-166 1927.6778,-166"/>
<polygon fill="#000000" stroke="#000000" points="1927.6779,-169.5001 1937.6778,-166 1927.6778,-162.5001 1927.6779,-169.5001"/>
</g>
<!-- KnoraAuthService -->
<g id="node21" class="node">
<title>KnoraAuthService</title>
<ellipse fill="#fdb462" stroke="#000000" cx="1068" cy="-104" rx="83.3674" ry="18"/>
<text text-anchor="middle" x="1068" y="-99.8" font-family="Times,serif" font-size="14.00" fill="#000000">KnoraAuthService</text>
</g>
<!-- KnoraAuthService&#45;&gt;CoreModule -->
<g id="edge20" class="edge">
<title>KnoraAuthService&#45;&gt;CoreModule</title>
<path fill="none" stroke="#000000" d="M1068,-122.1061C1068,-141.3391 1068,-169 1068,-169 1068,-169 1927.5783,-169 1927.5783,-169"/>
<polygon fill="#000000" stroke="#000000" points="1927.5784,-172.5001 1937.5783,-169 1927.5783,-165.5001 1927.5784,-172.5001"/>
</g>
<!-- KnoraRequestService -->
<g id="node22" class="node">
<title>KnoraRequestService</title>
<ellipse fill="#fdb462" stroke="#000000" cx="871" cy="-104" rx="95.4637" ry="18"/>
<text text-anchor="middle" x="871" y="-99.8" font-family="Times,serif" font-size="14.00" fill="#000000">KnoraRequestService</text>
</g>
<!-- KnoraRequestService&#45;&gt;CoreModule -->
<g id="edge21" class="edge">
<title>KnoraRequestService&#45;&gt;CoreModule</title>
<path fill="none" stroke="#000000" d="M871,-122.2228C871,-142.3652 871,-172 871,-172 871,-172 1927.4867,-172 1927.4867,-172"/>
<polygon fill="#000000" stroke="#000000" points="1927.4867,-175.5001 1937.4867,-172 1927.4866,-168.5001 1927.4867,-175.5001"/>
</g>
<!-- ResultToTextMapperService -->
<g id="node23" class="node">
<title>ResultToTextMapperService</title>
<ellipse fill="#fdb462" stroke="#000000" cx="635" cy="-104" rx="123.2514" ry="18"/>
<text text-anchor="middle" x="635" y="-99.8" font-family="Times,serif" font-size="14.00" fill="#000000">ResultToTextMapperService</text>
</g>
<!-- ResultToTextMapperService&#45;&gt;CoreModule -->
<g id="edge22" class="edge">
<title>ResultToTextMapperService&#45;&gt;CoreModule</title>
<path fill="none" stroke="#000000" d="M635,-122.2843C635,-143.3211 635,-175 635,-175 635,-175 1927.3618,-175 1927.3618,-175"/>
<polygon fill="#000000" stroke="#000000" points="1927.3618,-178.5001 1937.3618,-175 1927.3618,-171.5001 1927.3618,-178.5001"/>
</g>
<!-- SparqlRequestService -->
<g id="node24" class="node">
<title>SparqlRequestService</title>
<ellipse fill="#fdb462" stroke="#000000" cx="398" cy="-104" rx="96.1247" ry="18"/>
<text text-anchor="middle" x="398" y="-99.8" font-family="Times,serif" font-size="14.00" fill="#000000">SparqlRequestService</text>
</g>
<!-- SparqlRequestService&#45;&gt;CoreModule -->
<g id="edge23" class="edge">
<title>SparqlRequestService&#45;&gt;CoreModule</title>
<path fill="none" stroke="#000000" d="M398,-122.2921C398,-144.2057 398,-178 398,-178 398,-178 1927.4244,-178 1927.4244,-178"/>
<polygon fill="#000000" stroke="#000000" points="1927.4244,-181.5001 1937.4244,-178 1927.4243,-174.5001 1927.4244,-181.5001"/>
</g>
<!-- SynopsisObjectStorageService -->
<g id="node25" class="node">
<title>SynopsisObjectStorageService</title>
<ellipse fill="#fdb462" stroke="#000000" cx="154" cy="-104" rx="130.2134" ry="18"/>
<text text-anchor="middle" x="154" y="-99.8" font-family="Times,serif" font-size="14.00" fill="#000000">SynopsisObjectStorageService</text>
</g>
<!-- SynopsisObjectStorageService&#45;&gt;CoreModule -->
<g id="edge24" class="edge">
<title>SynopsisObjectStorageService&#45;&gt;CoreModule</title>
<path fill="none" stroke="#000000" d="M154,-122.2479C154,-145.0179 154,-181 154,-181 154,-181 1927.64,-181 1927.64,-181"/>
<polygon fill="#000000" stroke="#000000" points="1927.64,-184.5001 1937.64,-181 1927.6399,-177.5001 1927.64,-184.5001"/>
</g>
</g>
</svg>
