<?xml version="1.0" encoding="UTF-8" standalone="no"?>
<!DOCTYPE svg PUBLIC "-//W3C//DTD SVG 1.1//EN"
 "http://www.w3.org/Graphics/SVG/1.1/DTD/svg11.dtd">
<!-- Generated by graphviz version 2.47.0 (20210316.0004)
 -->
<!-- Title: dependencies Pages: 1 -->
<svg width="2919pt" height="284pt"
 viewBox="0.00 0.00 2919.00 284.00" xmlns="http://www.w3.org/2000/svg" xmlns:xlink="http://www.w3.org/1999/xlink">
<g id="graph0" class="graph" transform="scale(1 1) rotate(0) translate(4 280)">
<title>dependencies</title>
<polygon fill="white" stroke="transparent" points="-4,4 -4,-280 2915,-280 2915,4 -4,4"/>
<text text-anchor="start" x="1434.51" y="-42.4" font-family="sans-serif" font-weight="bold" font-size="14.00">Legend</text>
<polygon fill="#ffffb3" stroke="transparent" points="1221.5,-10 1221.5,-30 1241.5,-30 1241.5,-10 1221.5,-10"/>
<text text-anchor="start" x="1245.13" y="-15.4" font-family="sans-serif" font-size="14.00"> &#160;Declarations</text>
<polygon fill="#8dd3c7" stroke="transparent" points="1334.5,-10 1334.5,-30 1354.5,-30 1354.5,-10 1334.5,-10"/>
<text text-anchor="start" x="1358.23" y="-15.4" font-family="sans-serif" font-size="14.00"> &#160;Module</text>
<polygon fill="#80b1d3" stroke="transparent" points="1420.5,-10 1420.5,-30 1440.5,-30 1440.5,-10 1420.5,-10"/>
<text text-anchor="start" x="1444.28" y="-15.4" font-family="sans-serif" font-size="14.00"> &#160;Bootstrap</text>
<polygon fill="#fdb462" stroke="transparent" points="1517.5,-10 1517.5,-30 1537.5,-30 1537.5,-10 1517.5,-10"/>
<text text-anchor="start" x="1541.17" y="-15.4" font-family="sans-serif" font-size="14.00"> &#160;Providers</text>
<polygon fill="#fb8072" stroke="transparent" points="1613.5,-10 1613.5,-30 1633.5,-30 1633.5,-10 1613.5,-10"/>
<text text-anchor="start" x="1637.23" y="-15.4" font-family="sans-serif" font-size="14.00"> &#160;Exports</text>
<g id="clust1" class="cluster">
<title>cluster_CoreModule</title>
<polygon fill="none" stroke="black" stroke-dasharray="1,5" points="8,-70 8,-268 2903,-268 2903,-70 8,-70"/>
</g>
<g id="clust2" class="cluster">
<title>cluster_CoreModule_declarations</title>
<polygon fill="none" stroke="black" points="1746,-78 1746,-130 2895,-130 2895,-78 1746,-78"/>
</g>
<g id="clust10" class="cluster">
<title>cluster_CoreModule_imports</title>
<polygon fill="none" stroke="black" points="679,-78 679,-130 1738,-130 1738,-78 679,-78"/>
</g>
<g id="clust11" class="cluster">
<title>cluster_CoreModule_exports</title>
<polygon fill="none" stroke="black" points="1419,-208 1419,-260 1549,-260 1549,-208 1419,-208"/>
</g>
<g id="clust13" class="cluster">
<title>cluster_CoreModule_providers</title>
<polygon fill="none" stroke="black" points="16,-78 16,-130 671,-130 671,-78 16,-78"/>
</g>
<!-- DialogUserSettingsDialog -->
<g id="node1" class="node">
<title>DialogUserSettingsDialog</title>
<polygon fill="#ffffb3" stroke="black" points="2886.74,-122 2723.26,-122 2723.26,-86 2886.74,-86 2886.74,-122"/>
<text text-anchor="middle" x="2805" y="-99.8" font-family="Times,serif" font-size="14.00">DialogUserSettingsDialog</text>
</g>
<!-- CoreModule -->
<g id="node8" class="node">
<title>CoreModule</title>
<polygon fill="#8dd3c7" stroke="black" points="1527.26,-187 1524.26,-191 1503.26,-191 1500.26,-187 1440.74,-187 1440.74,-151 1527.26,-151 1527.26,-187"/>
<text text-anchor="middle" x="1484" y="-164.8" font-family="Times,serif" font-size="14.00">CoreModule</text>
</g>
<!-- DialogUserSettingsDialog&#45;&gt;CoreModule -->
<g id="edge1" class="edge">
<title>DialogUserSettingsDialog&#45;&gt;CoreModule</title>
<path fill="none" stroke="black" d="M2805,-122.32C2805,-145.66 2805,-183 2805,-183 2805,-183 1537.58,-183 1537.58,-183"/>
<polygon fill="black" stroke="black" points="1537.58,-179.5 1527.58,-183 1537.58,-186.5 1537.58,-179.5"/>
</g>
<!-- ExtendSessionComponent -->
<g id="node2" class="node">
<title>ExtendSessionComponent</title>
<polygon fill="#ffffb3" stroke="black" points="2704.77,-122 2541.23,-122 2541.23,-86 2704.77,-86 2704.77,-122"/>
<text text-anchor="middle" x="2623" y="-99.8" font-family="Times,serif" font-size="14.00">ExtendSessionComponent</text>
</g>
<!-- ExtendSessionComponent&#45;&gt;CoreModule -->
<g id="edge2" class="edge">
<title>ExtendSessionComponent&#45;&gt;CoreModule</title>
<path fill="none" stroke="black" d="M2623,-122.16C2623,-144.35 2623,-179 2623,-179 2623,-179 1537.61,-179 1537.61,-179"/>
<polygon fill="black" stroke="black" points="1537.61,-175.5 1527.61,-179 1537.61,-182.5 1537.61,-175.5"/>
</g>
<!-- InitPopupComponent -->
<g id="node3" class="node">
<title>InitPopupComponent</title>
<polygon fill="#ffffb3" stroke="black" points="2523.06,-122 2386.94,-122 2386.94,-86 2523.06,-86 2523.06,-122"/>
<text text-anchor="middle" x="2455" y="-99.8" font-family="Times,serif" font-size="14.00">InitPopupComponent</text>
</g>
<!-- InitPopupComponent&#45;&gt;CoreModule -->
<g id="edge3" class="edge">
<title>InitPopupComponent&#45;&gt;CoreModule</title>
<path fill="none" stroke="black" d="M2455,-122.28C2455,-143.32 2455,-175 2455,-175 2455,-175 1537.29,-175 1537.29,-175"/>
<polygon fill="black" stroke="black" points="1537.29,-171.5 1527.29,-175 1537.29,-178.5 1537.29,-171.5"/>
</g>
<!-- MainComponent -->
<g id="node4" class="node">
<title>MainComponent</title>
<polygon fill="#ffffb3" stroke="black" points="2368.38,-122 2257.62,-122 2257.62,-86 2368.38,-86 2368.38,-122"/>
<text text-anchor="middle" x="2313" y="-99.8" font-family="Times,serif" font-size="14.00">MainComponent</text>
</g>
<!-- MainComponent&#45;&gt;CoreModule -->
<g id="edge4" class="edge">
<title>MainComponent&#45;&gt;CoreModule</title>
<path fill="none" stroke="black" d="M2313,-122.31C2313,-142.15 2313,-171 2313,-171 2313,-171 1537.4,-171 1537.4,-171"/>
<polygon fill="black" stroke="black" points="1537.4,-167.5 1527.4,-171 1537.4,-174.5 1537.4,-167.5"/>
</g>
<!-- NavigationComponent -->
<g id="node5" class="node">
<title>NavigationComponent</title>
<polygon fill="#ffffb3" stroke="black" points="2239.54,-122 2096.46,-122 2096.46,-86 2239.54,-86 2239.54,-122"/>
<text text-anchor="middle" x="2168" y="-99.8" font-family="Times,serif" font-size="14.00">NavigationComponent</text>
</g>
<!-- NavigationComponent&#45;&gt;CoreModule -->
<g id="edge5" class="edge">
<title>NavigationComponent&#45;&gt;CoreModule</title>
<path fill="none" stroke="black" d="M2168,-122.22C2168,-140.83 2168,-167 2168,-167 2168,-167 1537.31,-167 1537.31,-167"/>
<polygon fill="black" stroke="black" points="1537.31,-163.5 1527.31,-167 1537.31,-170.5 1537.31,-163.5"/>
</g>
<!-- PageNotFoundComponent -->
<g id="node6" class="node">
<title>PageNotFoundComponent</title>
<polygon fill="#ffffb3" stroke="black" points="2078.82,-122 1913.18,-122 1913.18,-86 2078.82,-86 2078.82,-122"/>
<text text-anchor="middle" x="1996" y="-99.8" font-family="Times,serif" font-size="14.00">PageNotFoundComponent</text>
</g>
<!-- PageNotFoundComponent&#45;&gt;CoreModule -->
<g id="edge6" class="edge">
<title>PageNotFoundComponent&#45;&gt;CoreModule</title>
<path fill="none" stroke="black" d="M1996,-122.02C1996,-139.37 1996,-163 1996,-163 1996,-163 1537.65,-163 1537.65,-163"/>
<polygon fill="black" stroke="black" points="1537.65,-159.5 1527.65,-163 1537.65,-166.5 1537.65,-159.5"/>
</g>
<!-- PizzaPartyComponent -->
<g id="node7" class="node">
<title>PizzaPartyComponent</title>
<polygon fill="#ffffb3" stroke="black" points="1895.7,-122 1754.3,-122 1754.3,-86 1895.7,-86 1895.7,-122"/>
<text text-anchor="middle" x="1825" y="-99.8" font-family="Times,serif" font-size="14.00">PizzaPartyComponent</text>
</g>
<!-- PizzaPartyComponent&#45;&gt;CoreModule -->
<g id="edge7" class="edge">
<title>PizzaPartyComponent&#45;&gt;CoreModule</title>
<path fill="none" stroke="black" d="M1825,-122.01C1825,-138.05 1825,-159 1825,-159 1825,-159 1537.53,-159 1537.53,-159"/>
<polygon fill="black" stroke="black" points="1537.53,-155.5 1527.53,-159 1537.53,-162.5 1537.53,-155.5"/>
</g>
<!-- MainComponent  -->
<g id="node16" class="node">
<title>MainComponent </title>
<polygon fill="#fb8072" stroke="black" points="1541.38,-252 1426.62,-252 1426.62,-216 1541.38,-216 1541.38,-252"/>
<text text-anchor="middle" x="1484" y="-229.8" font-family="Times,serif" font-size="14.00">MainComponent </text>
</g>
<!-- CoreModule&#45;&gt;MainComponent  -->
<g id="edge15" class="edge">
<title>CoreModule&#45;&gt;MainComponent </title>
<path fill="none" stroke="black" stroke-dasharray="5,2" d="M1484,-187.11C1484,-187.11 1484,-205.99 1484,-205.99"/>
<polygon fill="black" stroke="black" points="1480.5,-205.99 1484,-215.99 1487.5,-205.99 1480.5,-205.99"/>
</g>
<!-- DashboardModule -->
<g id="node9" class="node">
<title>DashboardModule</title>
<polygon fill="#8dd3c7" stroke="black" points="1730.19,-122 1727.19,-126 1706.19,-126 1703.19,-122 1609.81,-122 1609.81,-86 1730.19,-86 1730.19,-122"/>
<text text-anchor="middle" x="1670" y="-99.8" font-family="Times,serif" font-size="14.00">DashboardModule</text>
</g>
<!-- DashboardModule&#45;&gt;CoreModule -->
<g id="edge8" class="edge">
<title>DashboardModule&#45;&gt;CoreModule</title>
<path fill="none" stroke="black" d="M1670,-122.12C1670,-136.78 1670,-155 1670,-155 1670,-155 1537.61,-155 1537.61,-155"/>
<polygon fill="black" stroke="black" points="1537.61,-151.5 1527.61,-155 1537.61,-158.5 1537.61,-151.5"/>
</g>
<!-- HowToProgramWithNieOSModule -->
<g id="node10" class="node">
<title>HowToProgramWithNieOSModule</title>
<polygon fill="#8dd3c7" stroke="black" points="1592.12,-122 1589.12,-126 1568.12,-126 1565.12,-122 1375.88,-122 1375.88,-86 1592.12,-86 1592.12,-122"/>
<text text-anchor="middle" x="1484" y="-99.8" font-family="Times,serif" font-size="14.00">HowToProgramWithNieOSModule</text>
</g>
<!-- HowToProgramWithNieOSModule&#45;&gt;CoreModule -->
<g id="edge9" class="edge">
<title>HowToProgramWithNieOSModule&#45;&gt;CoreModule</title>
<path fill="none" stroke="black" d="M1484,-122.11C1484,-122.11 1484,-140.99 1484,-140.99"/>
<polygon fill="black" stroke="black" points="1480.5,-140.99 1484,-150.99 1487.5,-140.99 1480.5,-140.99"/>
</g>
<!-- MaterialModule -->
<g id="node11" class="node">
<title>MaterialModule</title>
<polygon fill="#8dd3c7" stroke="black" points="1357.47,-122 1354.47,-126 1333.47,-126 1330.47,-122 1250.53,-122 1250.53,-86 1357.47,-86 1357.47,-122"/>
<text text-anchor="middle" x="1304" y="-99.8" font-family="Times,serif" font-size="14.00">MaterialModule</text>
</g>
<!-- MaterialModule&#45;&gt;CoreModule -->
<g id="edge10" class="edge">
<title>MaterialModule&#45;&gt;CoreModule</title>
<path fill="none" stroke="black" d="M1304,-122.12C1304,-136.78 1304,-155 1304,-155 1304,-155 1430.43,-155 1430.43,-155"/>
<polygon fill="black" stroke="black" points="1430.43,-158.5 1440.43,-155 1430.43,-151.5 1430.43,-158.5"/>
</g>
<!-- MockupTutorialModule -->
<g id="node12" class="node">
<title>MockupTutorialModule</title>
<polygon fill="#8dd3c7" stroke="black" points="1232.81,-122 1229.81,-126 1208.81,-126 1205.81,-122 1081.19,-122 1081.19,-86 1232.81,-86 1232.81,-122"/>
<text text-anchor="middle" x="1157" y="-99.8" font-family="Times,serif" font-size="14.00">MockupTutorialModule</text>
</g>
<!-- MockupTutorialModule&#45;&gt;CoreModule -->
<g id="edge11" class="edge">
<title>MockupTutorialModule&#45;&gt;CoreModule</title>
<path fill="none" stroke="black" d="M1157,-122.01C1157,-138.05 1157,-159 1157,-159 1157,-159 1430.58,-159 1430.58,-159"/>
<polygon fill="black" stroke="black" points="1430.58,-162.5 1440.58,-159 1430.58,-155.5 1430.58,-162.5"/>
</g>
<!-- NIEOSModule -->
<g id="node13" class="node">
<title>NIEOSModule</title>
<polygon fill="#8dd3c7" stroke="black" points="1063.26,-122 1060.26,-126 1039.26,-126 1036.26,-122 962.74,-122 962.74,-86 1063.26,-86 1063.26,-122"/>
<text text-anchor="middle" x="1013" y="-99.8" font-family="Times,serif" font-size="14.00">NIEOSModule</text>
</g>
<!-- NIEOSModule&#45;&gt;CoreModule -->
<g id="edge12" class="edge">
<title>NIEOSModule&#45;&gt;CoreModule</title>
<path fill="none" stroke="black" d="M1013,-122.02C1013,-139.37 1013,-163 1013,-163 1013,-163 1430.53,-163 1430.53,-163"/>
<polygon fill="black" stroke="black" points="1430.53,-166.5 1440.53,-163 1430.53,-159.5 1430.53,-166.5"/>
</g>
<!-- StaticPagesModule -->
<g id="node14" class="node">
<title>StaticPagesModule</title>
<polygon fill="#8dd3c7" stroke="black" points="945.09,-122 942.09,-126 921.09,-126 918.09,-122 820.91,-122 820.91,-86 945.09,-86 945.09,-122"/>
<text text-anchor="middle" x="883" y="-99.8" font-family="Times,serif" font-size="14.00">StaticPagesModule</text>
</g>
<!-- StaticPagesModule&#45;&gt;CoreModule -->
<g id="edge13" class="edge">
<title>StaticPagesModule&#45;&gt;CoreModule</title>
<path fill="none" stroke="black" d="M883,-122.22C883,-140.83 883,-167 883,-167 883,-167 1430.29,-167 1430.29,-167"/>
<polygon fill="black" stroke="black" points="1430.29,-170.5 1440.29,-167 1430.29,-163.5 1430.29,-170.5"/>
</g>
<!-- TextViewModule -->
<g id="node15" class="node">
<title>TextViewModule</title>
<polygon fill="#8dd3c7" stroke="black" points="802.53,-122 799.53,-126 778.53,-126 775.53,-122 687.47,-122 687.47,-86 802.53,-86 802.53,-122"/>
<text text-anchor="middle" x="745" y="-99.8" font-family="Times,serif" font-size="14.00">TextViewModule</text>
</g>
<!-- TextViewModule&#45;&gt;CoreModule -->
<g id="edge14" class="edge">
<title>TextViewModule&#45;&gt;CoreModule</title>
<path fill="none" stroke="black" d="M745,-122.31C745,-142.15 745,-171 745,-171 745,-171 1430.53,-171 1430.53,-171"/>
<polygon fill="black" stroke="black" points="1430.53,-174.5 1440.53,-171 1430.53,-167.5 1430.53,-174.5"/>
</g>
<!-- KnoraAuthService -->
<g id="node17" class="node">
<title>KnoraAuthService</title>
<ellipse fill="#fdb462" stroke="black" cx="580" cy="-104" rx="83.37" ry="18"/>
<text text-anchor="middle" x="580" y="-99.8" font-family="Times,serif" font-size="14.00">KnoraAuthService</text>
</g>
<!-- KnoraAuthService&#45;&gt;CoreModule -->
<g id="edge16" class="edge">
<title>KnoraAuthService&#45;&gt;CoreModule</title>
<path fill="none" stroke="black" d="M580,-122.28C580,-143.32 580,-175 580,-175 580,-175 1430.7,-175 1430.7,-175"/>
<polygon fill="black" stroke="black" points="1430.7,-178.5 1440.7,-175 1430.7,-171.5 1430.7,-178.5"/>
</g>
<!-- KnoraRequestService -->
<g id="node18" class="node">
<title>KnoraRequestService</title>
<ellipse fill="#fdb462" stroke="black" cx="383" cy="-104" rx="95.46" ry="18"/>
<text text-anchor="middle" x="383" y="-99.8" font-family="Times,serif" font-size="14.00">KnoraRequestService</text>
</g>
<!-- KnoraRequestService&#45;&gt;CoreModule -->
<g id="edge17" class="edge">
<title>KnoraRequestService&#45;&gt;CoreModule</title>
<path fill="none" stroke="black" d="M383,-122.16C383,-144.35 383,-179 383,-179 383,-179 1430.5,-179 1430.5,-179"/>
<polygon fill="black" stroke="black" points="1430.5,-182.5 1440.5,-179 1430.5,-175.5 1430.5,-182.5"/>
</g>
<!-- ResultToTextMapperService -->
<g id="node19" class="node">
<title>ResultToTextMapperService</title>
<ellipse fill="#fdb462" stroke="black" cx="147" cy="-104" rx="123.25" ry="18"/>
<text text-anchor="middle" x="147" y="-99.8" font-family="Times,serif" font-size="14.00">ResultToTextMapperService</text>
</g>
<!-- ResultToTextMapperService&#45;&gt;CoreModule -->
<g id="edge18" class="edge">
<title>ResultToTextMapperService&#45;&gt;CoreModule</title>
<path fill="none" stroke="black" d="M147,-122.32C147,-145.66 147,-183 147,-183 147,-183 1430.65,-183 1430.65,-183"/>
<polygon fill="black" stroke="black" points="1430.65,-186.5 1440.65,-183 1430.65,-179.5 1430.65,-186.5"/>
</g>
</g>
</svg>
