<?xml version="1.0" encoding="UTF-8" standalone="no"?>
<!DOCTYPE svg PUBLIC "-//W3C//DTD SVG 1.1//EN"
 "http://www.w3.org/Graphics/SVG/1.1/DTD/svg11.dtd">
<!-- Generated by graphviz version 2.40.1 (20161225.0304)
 -->
<!-- Title: dependencies Pages: 1 -->
<svg width="4167pt" height="284pt"
 viewBox="0.00 0.00 4167.00 284.00" xmlns="http://www.w3.org/2000/svg" xmlns:xlink="http://www.w3.org/1999/xlink">
<g id="graph0" class="graph" transform="scale(1 1) rotate(0) translate(4 280)">
<title>dependencies</title>
<polygon fill="#ffffff" stroke="transparent" points="-4,4 -4,-280 4163,-280 4163,4 -4,4"/>
<text text-anchor="start" x="2058.5091" y="-42.4" font-family="sans-serif" font-weight="bold" font-size="14.00" fill="#000000">Legend</text>
<polygon fill="#ffffb3" stroke="transparent" points="1845.5,-10 1845.5,-30 1865.5,-30 1865.5,-10 1845.5,-10"/>
<text text-anchor="start" x="1869.129" y="-15.4" font-family="sans-serif" font-size="14.00" fill="#000000"> &#160;Declarations</text>
<polygon fill="#8dd3c7" stroke="transparent" points="1958.5,-10 1958.5,-30 1978.5,-30 1978.5,-10 1958.5,-10"/>
<text text-anchor="start" x="1982.2251" y="-15.4" font-family="sans-serif" font-size="14.00" fill="#000000"> &#160;Module</text>
<polygon fill="#80b1d3" stroke="transparent" points="2044.5,-10 2044.5,-30 2064.5,-30 2064.5,-10 2044.5,-10"/>
<text text-anchor="start" x="2068.2812" y="-15.4" font-family="sans-serif" font-size="14.00" fill="#000000"> &#160;Bootstrap</text>
<polygon fill="#fdb462" stroke="transparent" points="2141.5,-10 2141.5,-30 2161.5,-30 2161.5,-10 2141.5,-10"/>
<text text-anchor="start" x="2165.1732" y="-15.4" font-family="sans-serif" font-size="14.00" fill="#000000"> &#160;Providers</text>
<polygon fill="#fb8072" stroke="transparent" points="2237.5,-10 2237.5,-30 2257.5,-30 2257.5,-10 2237.5,-10"/>
<text text-anchor="start" x="2261.2258" y="-15.4" font-family="sans-serif" font-size="14.00" fill="#000000"> &#160;Exports</text>
<g id="clust1" class="cluster">
<title>cluster_CoreModule</title>
<polygon fill="none" stroke="#000000" stroke-dasharray="1,5" points="8,-70 8,-268 4151,-268 4151,-70 8,-70"/>
</g>
<g id="clust2" class="cluster">
<title>cluster_CoreModule_declarations</title>
<polygon fill="none" stroke="#000000" points="2900,-78 2900,-130 4143,-130 4143,-78 2900,-78"/>
</g>
<g id="clust11" class="cluster">
<title>cluster_CoreModule_imports</title>
<polygon fill="none" stroke="#000000" points="1516,-78 1516,-130 2892,-130 2892,-78 1516,-78"/>
</g>
<g id="clust12" class="cluster">
<title>cluster_CoreModule_exports</title>
<polygon fill="none" stroke="#000000" points="1992,-208 1992,-260 2405,-260 2405,-208 1992,-208"/>
</g>
<g id="clust14" class="cluster">
<title>cluster_CoreModule_providers</title>
<polygon fill="none" stroke="#000000" points="16,-78 16,-130 1508,-130 1508,-78 16,-78"/>
</g>
<!-- DialogUserSettingsDialog -->
<g id="node1" class="node">
<title>DialogUserSettingsDialog</title>
<polygon fill="#ffffb3" stroke="#000000" points="4134.745,-122 3971.255,-122 3971.255,-86 4134.745,-86 4134.745,-122"/>
<text text-anchor="middle" x="4053" y="-99.8" font-family="Times,serif" font-size="14.00" fill="#000000">DialogUserSettingsDialog</text>
</g>
<!-- CoreModule -->
<g id="node9" class="node">
<title>CoreModule</title>
<polygon fill="#8dd3c7" stroke="#000000" points="2238.2619,-187 2235.2619,-191 2214.2619,-191 2211.2619,-187 2151.7381,-187 2151.7381,-151 2238.2619,-151 2238.2619,-187"/>
<text text-anchor="middle" x="2195" y="-164.8" font-family="Times,serif" font-size="14.00" fill="#000000">CoreModule</text>
</g>
<!-- DialogUserSettingsDialog&#45;&gt;CoreModule -->
<g id="edge1" class="edge">
<title>DialogUserSettingsDialog&#45;&gt;CoreModule</title>
<path fill="none" stroke="#000000" d="M4053,-122.0908C4053,-145.1328 4053,-182 4053,-182 4053,-182 2248.643,-182 2248.643,-182"/>
<polygon fill="#000000" stroke="#000000" points="2248.6431,-178.5001 2238.643,-182 2248.643,-185.5001 2248.6431,-178.5001"/>
</g>
<!-- FooterComponent -->
<g id="node2" class="node">
<title>FooterComponent</title>
<polygon fill="#ffffb3" stroke="#000000" points="3952.8809,-122 3835.1191,-122 3835.1191,-86 3952.8809,-86 3952.8809,-122"/>
<text text-anchor="middle" x="3894" y="-99.8" font-family="Times,serif" font-size="14.00" fill="#000000">FooterComponent</text>
</g>
<!-- FooterComponent&#45;&gt;CoreModule -->
<g id="edge2" class="edge">
<title>FooterComponent&#45;&gt;CoreModule</title>
<path fill="none" stroke="#000000" d="M3894,-122.1554C3894,-144.3519 3894,-179 3894,-179 3894,-179 2248.2756,-179 2248.2756,-179"/>
<polygon fill="#000000" stroke="#000000" points="2248.2756,-175.5001 2238.2756,-179 2248.2755,-182.5001 2248.2756,-175.5001"/>
</g>
<!-- HeaderComponent -->
<g id="node3" class="node">
<title>HeaderComponent</title>
<polygon fill="#ffffb3" stroke="#000000" points="3816.7437,-122 3695.2563,-122 3695.2563,-86 3816.7437,-86 3816.7437,-122"/>
<text text-anchor="middle" x="3756" y="-99.8" font-family="Times,serif" font-size="14.00" fill="#000000">HeaderComponent</text>
</g>
<!-- HeaderComponent&#45;&gt;CoreModule -->
<g id="edge3" class="edge">
<title>HeaderComponent&#45;&gt;CoreModule</title>
<path fill="none" stroke="#000000" d="M3756,-122.1686C3756,-143.498 3756,-176 3756,-176 3756,-176 2248.3793,-176 2248.3793,-176"/>
<polygon fill="#000000" stroke="#000000" points="2248.3793,-172.5001 2238.3793,-176 2248.3793,-179.5001 2248.3793,-172.5001"/>
</g>
<!-- InitPopupComponent -->
<g id="node4" class="node">
<title>InitPopupComponent</title>
<polygon fill="#ffffb3" stroke="#000000" points="3677.0575,-122 3540.9425,-122 3540.9425,-86 3677.0575,-86 3677.0575,-122"/>
<text text-anchor="middle" x="3609" y="-99.8" font-family="Times,serif" font-size="14.00" fill="#000000">InitPopupComponent</text>
</g>
<!-- InitPopupComponent&#45;&gt;CoreModule -->
<g id="edge4" class="edge">
<title>InitPopupComponent&#45;&gt;CoreModule</title>
<path fill="none" stroke="#000000" d="M3609,-122.0267C3609,-142.7672 3609,-174 3609,-174 3609,-174 2248.4787,-174 2248.4787,-174"/>
<polygon fill="#000000" stroke="#000000" points="2248.4788,-170.5001 2238.4787,-174 2248.4787,-177.5001 2248.4788,-170.5001"/>
</g>
<!-- MainComponent -->
<g id="node5" class="node">
<title>MainComponent</title>
<polygon fill="#ffffb3" stroke="#000000" points="3522.3823,-122 3411.6177,-122 3411.6177,-86 3522.3823,-86 3522.3823,-122"/>
<text text-anchor="middle" x="3467" y="-99.8" font-family="Times,serif" font-size="14.00" fill="#000000">MainComponent</text>
</g>
<!-- MainComponent&#45;&gt;CoreModule -->
<g id="edge5" class="edge">
<title>MainComponent&#45;&gt;CoreModule</title>
<path fill="none" stroke="#000000" d="M3467,-122.308C3467,-142.1455 3467,-171 3467,-171 3467,-171 2248.4171,-171 2248.4171,-171"/>
<polygon fill="#000000" stroke="#000000" points="2248.4172,-167.5001 2238.4171,-171 2248.4171,-174.5001 2248.4172,-167.5001"/>
</g>
<!-- NavigationComponent -->
<g id="node6" class="node">
<title>NavigationComponent</title>
<polygon fill="#ffffb3" stroke="#000000" points="3393.5407,-122 3250.4593,-122 3250.4593,-86 3393.5407,-86 3393.5407,-122"/>
<text text-anchor="middle" x="3322" y="-99.8" font-family="Times,serif" font-size="14.00" fill="#000000">NavigationComponent</text>
</g>
<!-- NavigationComponent&#45;&gt;CoreModule -->
<g id="edge6" class="edge">
<title>NavigationComponent&#45;&gt;CoreModule</title>
<path fill="none" stroke="#000000" d="M3322,-122.1686C3322,-141.0898 3322,-168 3322,-168 3322,-168 2248.4892,-168 2248.4892,-168"/>
<polygon fill="#000000" stroke="#000000" points="2248.4892,-164.5001 2238.4892,-168 2248.4891,-171.5001 2248.4892,-164.5001"/>
</g>
<!-- PageNotFoundComponent -->
<g id="node7" class="node">
<title>PageNotFoundComponent</title>
<polygon fill="#ffffb3" stroke="#000000" points="3232.8243,-122 3067.1757,-122 3067.1757,-86 3232.8243,-86 3232.8243,-122"/>
<text text-anchor="middle" x="3150" y="-99.8" font-family="Times,serif" font-size="14.00" fill="#000000">PageNotFoundComponent</text>
</g>
<!-- PageNotFoundComponent&#45;&gt;CoreModule -->
<g id="edge7" class="edge">
<title>PageNotFoundComponent&#45;&gt;CoreModule</title>
<path fill="none" stroke="#000000" d="M3150,-122.302C3150,-140.2699 3150,-165 3150,-165 3150,-165 2248.5159,-165 2248.5159,-165"/>
<polygon fill="#000000" stroke="#000000" points="2248.516,-161.5001 2238.5159,-165 2248.5159,-168.5001 2248.516,-161.5001"/>
</g>
<!-- PizzaPartyComponent -->
<g id="node8" class="node">
<title>PizzaPartyComponent</title>
<polygon fill="#ffffb3" stroke="#000000" points="3049.6979,-122 2908.3021,-122 2908.3021,-86 3049.6979,-86 3049.6979,-122"/>
<text text-anchor="middle" x="2979" y="-99.8" font-family="Times,serif" font-size="14.00" fill="#000000">PizzaPartyComponent</text>
</g>
<!-- PizzaPartyComponent&#45;&gt;CoreModule -->
<g id="edge8" class="edge">
<title>PizzaPartyComponent&#45;&gt;CoreModule</title>
<path fill="none" stroke="#000000" d="M2979,-122.0225C2979,-139.3734 2979,-163 2979,-163 2979,-163 2248.268,-163 2248.268,-163"/>
<polygon fill="#000000" stroke="#000000" points="2248.268,-159.5001 2238.268,-163 2248.268,-166.5001 2248.268,-159.5001"/>
</g>
<!-- FooterComponent  -->
<g id="node19" class="node">
<title>FooterComponent </title>
<polygon fill="#fb8072" stroke="#000000" points="2396.8814,-252 2275.1186,-252 2275.1186,-216 2396.8814,-216 2396.8814,-252"/>
<text text-anchor="middle" x="2336" y="-229.8" font-family="Times,serif" font-size="14.00" fill="#000000">FooterComponent </text>
</g>
<!-- CoreModule&#45;&gt;FooterComponent  -->
<g id="edge18" class="edge">
<title>CoreModule&#45;&gt;FooterComponent </title>
<path fill="none" stroke="#000000" stroke-dasharray="5,2" d="M2238.4599,-185C2266.9305,-185 2298.8975,-185 2298.8975,-185 2298.8975,-185 2298.8975,-205.7542 2298.8975,-205.7542"/>
<polygon fill="#000000" stroke="#000000" points="2295.3975,-205.7542 2298.8975,-215.7542 2302.3975,-205.7542 2295.3975,-205.7542"/>
</g>
<!-- HeaderComponent  -->
<g id="node20" class="node">
<title>HeaderComponent </title>
<polygon fill="#fb8072" stroke="#000000" points="2257.7436,-252 2132.2564,-252 2132.2564,-216 2257.7436,-216 2257.7436,-252"/>
<text text-anchor="middle" x="2195" y="-229.8" font-family="Times,serif" font-size="14.00" fill="#000000">HeaderComponent </text>
</g>
<!-- CoreModule&#45;&gt;HeaderComponent  -->
<g id="edge19" class="edge">
<title>CoreModule&#45;&gt;HeaderComponent </title>
<path fill="none" stroke="#000000" stroke-dasharray="5,2" d="M2195,-187.1061C2195,-187.1061 2195,-205.991 2195,-205.991"/>
<polygon fill="#000000" stroke="#000000" points="2191.5001,-205.9909 2195,-215.991 2198.5001,-205.991 2191.5001,-205.9909"/>
</g>
<!-- MainComponent  -->
<g id="node21" class="node">
<title>MainComponent </title>
<polygon fill="#fb8072" stroke="#000000" points="2114.3828,-252 1999.6172,-252 1999.6172,-216 2114.3828,-216 2114.3828,-252"/>
<text text-anchor="middle" x="2057" y="-229.8" font-family="Times,serif" font-size="14.00" fill="#000000">MainComponent </text>
</g>
<!-- CoreModule&#45;&gt;MainComponent  -->
<g id="edge20" class="edge">
<title>CoreModule&#45;&gt;MainComponent </title>
<path fill="none" stroke="#000000" stroke-dasharray="5,2" d="M2151.6249,-185C2119.1349,-185 2080.2684,-185 2080.2684,-185 2080.2684,-185 2080.2684,-205.7542 2080.2684,-205.7542"/>
<polygon fill="#000000" stroke="#000000" points="2076.7685,-205.7542 2080.2684,-215.7542 2083.7685,-205.7542 2076.7685,-205.7542"/>
</g>
<!-- DashboardModule -->
<g id="node10" class="node">
<title>DashboardModule</title>
<polygon fill="#8dd3c7" stroke="#000000" points="2884.191,-122 2881.191,-126 2860.191,-126 2857.191,-122 2763.809,-122 2763.809,-86 2884.191,-86 2884.191,-122"/>
<text text-anchor="middle" x="2824" y="-99.8" font-family="Times,serif" font-size="14.00" fill="#000000">DashboardModule</text>
</g>
<!-- DashboardModule&#45;&gt;CoreModule -->
<g id="edge9" class="edge">
<title>DashboardModule&#45;&gt;CoreModule</title>
<path fill="none" stroke="#000000" d="M2824,-122.027C2824,-138.3976 2824,-160 2824,-160 2824,-160 2248.7307,-160 2248.7307,-160"/>
<polygon fill="#000000" stroke="#000000" points="2248.7307,-156.5001 2238.7307,-160 2248.7306,-163.5001 2248.7307,-156.5001"/>
</g>
<!-- DevelopmentViewsModule -->
<g id="node11" class="node">
<title>DevelopmentViewsModule</title>
<polygon fill="#8dd3c7" stroke="#000000" points="2746.2352,-122 2743.2352,-126 2722.2352,-126 2719.2352,-122 2575.7648,-122 2575.7648,-86 2746.2352,-86 2746.2352,-122"/>
<text text-anchor="middle" x="2661" y="-99.8" font-family="Times,serif" font-size="14.00" fill="#000000">DevelopmentViewsModule</text>
</g>
<!-- DevelopmentViewsModule&#45;&gt;CoreModule -->
<g id="edge10" class="edge">
<title>DevelopmentViewsModule&#45;&gt;CoreModule</title>
<path fill="none" stroke="#000000" d="M2661,-122.2396C2661,-137.5706 2661,-157 2661,-157 2661,-157 2248.4217,-157 2248.4217,-157"/>
<polygon fill="#000000" stroke="#000000" points="2248.4217,-153.5001 2238.4217,-157 2248.4217,-160.5001 2248.4217,-153.5001"/>
</g>
<!-- HowToProgramWithNieOSModule -->
<g id="node12" class="node">
<title>HowToProgramWithNieOSModule</title>
<polygon fill="#8dd3c7" stroke="#000000" points="2557.1217,-122 2554.1217,-126 2533.1217,-126 2530.1217,-122 2340.8783,-122 2340.8783,-86 2557.1217,-86 2557.1217,-122"/>
<text text-anchor="middle" x="2449" y="-99.8" font-family="Times,serif" font-size="14.00" fill="#000000">HowToProgramWithNieOSModule</text>
</g>
<!-- HowToProgramWithNieOSModule&#45;&gt;CoreModule -->
<g id="edge11" class="edge">
<title>HowToProgramWithNieOSModule&#45;&gt;CoreModule</title>
<path fill="none" stroke="#000000" d="M2368.6898,-122.0511C2368.6898,-136.373 2368.6898,-154 2368.6898,-154 2368.6898,-154 2248.3812,-154 2248.3812,-154"/>
<polygon fill="#000000" stroke="#000000" points="2248.3813,-150.5001 2238.3812,-154 2248.3812,-157.5001 2248.3813,-150.5001"/>
</g>
<!-- MaterialModule -->
<g id="node13" class="node">
<title>MaterialModule</title>
<polygon fill="#8dd3c7" stroke="#000000" points="2322.4706,-122 2319.4706,-126 2298.4706,-126 2295.4706,-122 2215.5294,-122 2215.5294,-86 2322.4706,-86 2322.4706,-122"/>
<text text-anchor="middle" x="2269" y="-99.8" font-family="Times,serif" font-size="14.00" fill="#000000">MaterialModule</text>
</g>
<!-- MaterialModule&#45;&gt;CoreModule -->
<g id="edge12" class="edge">
<title>MaterialModule&#45;&gt;CoreModule</title>
<path fill="none" stroke="#000000" d="M2226.9478,-122.1061C2226.9478,-122.1061 2226.9478,-140.991 2226.9478,-140.991"/>
<polygon fill="#000000" stroke="#000000" points="2223.4478,-140.9909 2226.9478,-150.991 2230.4478,-140.991 2223.4478,-140.9909"/>
</g>
<!-- MockupTutorialModule -->
<g id="node14" class="node">
<title>MockupTutorialModule</title>
<polygon fill="#8dd3c7" stroke="#000000" points="2197.8089,-122 2194.8089,-126 2173.8089,-126 2170.8089,-122 2046.1911,-122 2046.1911,-86 2197.8089,-86 2197.8089,-122"/>
<text text-anchor="middle" x="2122" y="-99.8" font-family="Times,serif" font-size="14.00" fill="#000000">MockupTutorialModule</text>
</g>
<!-- MockupTutorialModule&#45;&gt;CoreModule -->
<g id="edge13" class="edge">
<title>MockupTutorialModule&#45;&gt;CoreModule</title>
<path fill="none" stroke="#000000" d="M2174.6368,-122.1061C2174.6368,-122.1061 2174.6368,-140.991 2174.6368,-140.991"/>
<polygon fill="#000000" stroke="#000000" points="2171.1368,-140.9909 2174.6368,-150.991 2178.1368,-140.991 2171.1368,-140.9909"/>
</g>
<!-- NIEOSModule -->
<g id="node15" class="node">
<title>NIEOSModule</title>
<polygon fill="#8dd3c7" stroke="#000000" points="2028.2591,-122 2025.2591,-126 2004.2591,-126 2001.2591,-122 1927.7409,-122 1927.7409,-86 2028.2591,-86 2028.2591,-122"/>
<text text-anchor="middle" x="1978" y="-99.8" font-family="Times,serif" font-size="14.00" fill="#000000">NIEOSModule</text>
</g>
<!-- NIEOSModule&#45;&gt;CoreModule -->
<g id="edge14" class="edge">
<title>NIEOSModule&#45;&gt;CoreModule</title>
<path fill="none" stroke="#000000" d="M2014.0942,-122.0511C2014.0942,-136.373 2014.0942,-154 2014.0942,-154 2014.0942,-154 2141.6685,-154 2141.6685,-154"/>
<polygon fill="#000000" stroke="#000000" points="2141.6686,-157.5001 2151.6685,-154 2141.6685,-150.5001 2141.6686,-157.5001"/>
</g>
<!-- StaticPagesModule -->
<g id="node16" class="node">
<title>StaticPagesModule</title>
<polygon fill="#8dd3c7" stroke="#000000" points="1910.0898,-122 1907.0898,-126 1886.0898,-126 1883.0898,-122 1785.9102,-122 1785.9102,-86 1910.0898,-86 1910.0898,-122"/>
<text text-anchor="middle" x="1848" y="-99.8" font-family="Times,serif" font-size="14.00" fill="#000000">StaticPagesModule</text>
</g>
<!-- StaticPagesModule&#45;&gt;CoreModule -->
<g id="edge15" class="edge">
<title>StaticPagesModule&#45;&gt;CoreModule</title>
<path fill="none" stroke="#000000" d="M1848,-122.2396C1848,-137.5706 1848,-157 1848,-157 1848,-157 2141.4036,-157 2141.4036,-157"/>
<polygon fill="#000000" stroke="#000000" points="2141.4036,-160.5001 2151.4036,-157 2141.4035,-153.5001 2141.4036,-160.5001"/>
</g>
<!-- SynopsisModule -->
<g id="node17" class="node">
<title>SynopsisModule</title>
<polygon fill="#8dd3c7" stroke="#000000" points="1768.1123,-122 1765.1123,-126 1744.1123,-126 1741.1123,-122 1657.8877,-122 1657.8877,-86 1768.1123,-86 1768.1123,-122"/>
<text text-anchor="middle" x="1713" y="-99.8" font-family="Times,serif" font-size="14.00" fill="#000000">SynopsisModule</text>
</g>
<!-- SynopsisModule&#45;&gt;CoreModule -->
<g id="edge16" class="edge">
<title>SynopsisModule&#45;&gt;CoreModule</title>
<path fill="none" stroke="#000000" d="M1713,-122.027C1713,-138.3976 1713,-160 1713,-160 1713,-160 2141.3756,-160 2141.3756,-160"/>
<polygon fill="#000000" stroke="#000000" points="2141.3756,-163.5001 2151.3756,-160 2141.3756,-156.5001 2141.3756,-163.5001"/>
</g>
<!-- TextViewModule -->
<g id="node18" class="node">
<title>TextViewModule</title>
<polygon fill="#8dd3c7" stroke="#000000" points="1639.527,-122 1636.527,-126 1615.527,-126 1612.527,-122 1524.473,-122 1524.473,-86 1639.527,-86 1639.527,-122"/>
<text text-anchor="middle" x="1582" y="-99.8" font-family="Times,serif" font-size="14.00" fill="#000000">TextViewModule</text>
</g>
<!-- TextViewModule&#45;&gt;CoreModule -->
<g id="edge17" class="edge">
<title>TextViewModule&#45;&gt;CoreModule</title>
<path fill="none" stroke="#000000" d="M1582,-122.0225C1582,-139.3734 1582,-163 1582,-163 1582,-163 2141.406,-163 2141.406,-163"/>
<polygon fill="#000000" stroke="#000000" points="2141.406,-166.5001 2151.406,-163 2141.4059,-159.5001 2141.406,-166.5001"/>
</g>
<!-- AuthenticationService -->
<g id="node22" class="node">
<title>AuthenticationService</title>
<ellipse fill="#fdb462" stroke="#000000" cx="1403" cy="-104" rx="97.2683" ry="18"/>
<text text-anchor="middle" x="1403" y="-99.8" font-family="Times,serif" font-size="14.00" fill="#000000">AuthenticationService</text>
</g>
<!-- AuthenticationService&#45;&gt;CoreModule -->
<g id="edge21" class="edge">
<title>AuthenticationService&#45;&gt;CoreModule</title>
<path fill="none" stroke="#000000" d="M1403,-122.302C1403,-140.2699 1403,-165 1403,-165 1403,-165 2141.5738,-165 2141.5738,-165"/>
<polygon fill="#000000" stroke="#000000" points="2141.5738,-168.5001 2151.5738,-165 2141.5737,-161.5001 2141.5738,-168.5001"/>
</g>
<!-- KnoraAuthService -->
<g id="node23" class="node">
<title>KnoraAuthService</title>
<ellipse fill="#fdb462" stroke="#000000" cx="1204" cy="-104" rx="83.3674" ry="18"/>
<text text-anchor="middle" x="1204" y="-99.8" font-family="Times,serif" font-size="14.00" fill="#000000">KnoraAuthService</text>
</g>
<!-- KnoraAuthService&#45;&gt;CoreModule -->
<g id="edge22" class="edge">
<title>KnoraAuthService&#45;&gt;CoreModule</title>
<path fill="none" stroke="#000000" d="M1204,-122.1686C1204,-141.0898 1204,-168 1204,-168 1204,-168 2141.4605,-168 2141.4605,-168"/>
<polygon fill="#000000" stroke="#000000" points="2141.4606,-171.5001 2151.4605,-168 2141.4605,-164.5001 2141.4606,-171.5001"/>
</g>
<!-- KnoraRequestService -->
<g id="node24" class="node">
<title>KnoraRequestService</title>
<ellipse fill="#fdb462" stroke="#000000" cx="1007" cy="-104" rx="95.4637" ry="18"/>
<text text-anchor="middle" x="1007" y="-99.8" font-family="Times,serif" font-size="14.00" fill="#000000">KnoraRequestService</text>
</g>
<!-- KnoraRequestService&#45;&gt;CoreModule -->
<g id="edge23" class="edge">
<title>KnoraRequestService&#45;&gt;CoreModule</title>
<path fill="none" stroke="#000000" d="M1007,-122.308C1007,-142.1455 1007,-171 1007,-171 1007,-171 2141.6637,-171 2141.6637,-171"/>
<polygon fill="#000000" stroke="#000000" points="2141.6638,-174.5001 2151.6637,-171 2141.6637,-167.5001 2141.6638,-174.5001"/>
</g>
<!-- PageService -->
<g id="node25" class="node">
<title>PageService</title>
<ellipse fill="#fdb462" stroke="#000000" cx="835" cy="-104" rx="58.5251" ry="18"/>
<text text-anchor="middle" x="835" y="-99.8" font-family="Times,serif" font-size="14.00" fill="#000000">PageService</text>
</g>
<!-- PageService&#45;&gt;CoreModule -->
<g id="edge24" class="edge">
<title>PageService&#45;&gt;CoreModule</title>
<path fill="none" stroke="#000000" d="M835,-122.0267C835,-142.7672 835,-174 835,-174 835,-174 2141.672,-174 2141.672,-174"/>
<polygon fill="#000000" stroke="#000000" points="2141.672,-177.5001 2151.672,-174 2141.6719,-170.5001 2141.672,-177.5001"/>
</g>
<!-- ResultToTextMapperService -->
<g id="node26" class="node">
<title>ResultToTextMapperService</title>
<ellipse fill="#fdb462" stroke="#000000" cx="635" cy="-104" rx="123.2514" ry="18"/>
<text text-anchor="middle" x="635" y="-99.8" font-family="Times,serif" font-size="14.00" fill="#000000">ResultToTextMapperService</text>
</g>
<!-- ResultToTextMapperService&#45;&gt;CoreModule -->
<g id="edge25" class="edge">
<title>ResultToTextMapperService&#45;&gt;CoreModule</title>
<path fill="none" stroke="#000000" d="M635,-122.1686C635,-143.498 635,-176 635,-176 635,-176 2141.6485,-176 2141.6485,-176"/>
<polygon fill="#000000" stroke="#000000" points="2141.6485,-179.5001 2151.6485,-176 2141.6485,-172.5001 2141.6485,-179.5001"/>
</g>
<!-- SparqlRequestService -->
<g id="node27" class="node">
<title>SparqlRequestService</title>
<ellipse fill="#fdb462" stroke="#000000" cx="398" cy="-104" rx="96.1247" ry="18"/>
<text text-anchor="middle" x="398" y="-99.8" font-family="Times,serif" font-size="14.00" fill="#000000">SparqlRequestService</text>
</g>
<!-- SparqlRequestService&#45;&gt;CoreModule -->
<g id="edge26" class="edge">
<title>SparqlRequestService&#45;&gt;CoreModule</title>
<path fill="none" stroke="#000000" d="M398,-122.1554C398,-144.3519 398,-179 398,-179 398,-179 2141.4699,-179 2141.4699,-179"/>
<polygon fill="#000000" stroke="#000000" points="2141.47,-182.5001 2151.4699,-179 2141.4699,-175.5001 2141.47,-182.5001"/>
</g>
<!-- SynopsisObjectStorageService -->
<g id="node28" class="node">
<title>SynopsisObjectStorageService</title>
<ellipse fill="#fdb462" stroke="#000000" cx="154" cy="-104" rx="130.2134" ry="18"/>
<text text-anchor="middle" x="154" y="-99.8" font-family="Times,serif" font-size="14.00" fill="#000000">SynopsisObjectStorageService</text>
</g>
<!-- SynopsisObjectStorageService&#45;&gt;CoreModule -->
<g id="edge27" class="edge">
<title>SynopsisObjectStorageService&#45;&gt;CoreModule</title>
<path fill="none" stroke="#000000" d="M154,-122.0908C154,-145.1328 154,-182 154,-182 154,-182 2141.4266,-182 2141.4266,-182"/>
<polygon fill="#000000" stroke="#000000" points="2141.4266,-185.5001 2151.4266,-182 2141.4265,-178.5001 2141.4266,-185.5001"/>
</g>
</g>
</svg>
