<?xml version="1.0" encoding="UTF-8" standalone="no"?>
<!DOCTYPE svg PUBLIC "-//W3C//DTD SVG 1.1//EN"
 "http://www.w3.org/Graphics/SVG/1.1/DTD/svg11.dtd">
<!-- Generated by graphviz version 2.40.1 (20161225.0304)
 -->
<!-- Title: dependencies Pages: 1 -->
<svg width="3441pt" height="284pt"
 viewBox="0.00 0.00 3441.00 284.00" xmlns="http://www.w3.org/2000/svg" xmlns:xlink="http://www.w3.org/1999/xlink">
<g id="graph0" class="graph" transform="scale(1 1) rotate(0) translate(4 280)">
<title>dependencies</title>
<polygon fill="#ffffff" stroke="transparent" points="-4,4 -4,-280 3437,-280 3437,4 -4,4"/>
<text text-anchor="start" x="1695.5091" y="-42.4" font-family="sans-serif" font-weight="bold" font-size="14.00" fill="#000000">Legend</text>
<polygon fill="#ffffb3" stroke="transparent" points="1482.5,-10 1482.5,-30 1502.5,-30 1502.5,-10 1482.5,-10"/>
<text text-anchor="start" x="1506.129" y="-15.4" font-family="sans-serif" font-size="14.00" fill="#000000"> &#160;Declarations</text>
<polygon fill="#8dd3c7" stroke="transparent" points="1595.5,-10 1595.5,-30 1615.5,-30 1615.5,-10 1595.5,-10"/>
<text text-anchor="start" x="1619.2251" y="-15.4" font-family="sans-serif" font-size="14.00" fill="#000000"> &#160;Module</text>
<polygon fill="#80b1d3" stroke="transparent" points="1681.5,-10 1681.5,-30 1701.5,-30 1701.5,-10 1681.5,-10"/>
<text text-anchor="start" x="1705.2812" y="-15.4" font-family="sans-serif" font-size="14.00" fill="#000000"> &#160;Bootstrap</text>
<polygon fill="#fdb462" stroke="transparent" points="1778.5,-10 1778.5,-30 1798.5,-30 1798.5,-10 1778.5,-10"/>
<text text-anchor="start" x="1802.1732" y="-15.4" font-family="sans-serif" font-size="14.00" fill="#000000"> &#160;Providers</text>
<polygon fill="#fb8072" stroke="transparent" points="1874.5,-10 1874.5,-30 1894.5,-30 1894.5,-10 1874.5,-10"/>
<text text-anchor="start" x="1898.2258" y="-15.4" font-family="sans-serif" font-size="14.00" fill="#000000"> &#160;Exports</text>
<g id="clust1" class="cluster">
<title>cluster_CoreModule</title>
<polygon fill="none" stroke="#000000" stroke-dasharray="1,5" points="8,-70 8,-268 3425,-268 3425,-70 8,-70"/>
</g>
<g id="clust2" class="cluster">
<title>cluster_CoreModule_declarations</title>
<polygon fill="none" stroke="#000000" points="2670,-78 2670,-130 3417,-130 3417,-78 2670,-78"/>
</g>
<g id="clust8" class="cluster">
<title>cluster_CoreModule_imports</title>
<polygon fill="none" stroke="#000000" points="1380,-78 1380,-130 2662,-130 2662,-78 1380,-78"/>
</g>
<g id="clust9" class="cluster">
<title>cluster_CoreModule_exports</title>
<polygon fill="none" stroke="#000000" points="1708,-208 1708,-260 2121,-260 2121,-208 1708,-208"/>
</g>
<g id="clust11" class="cluster">
<title>cluster_CoreModule_providers</title>
<polygon fill="none" stroke="#000000" points="16,-78 16,-130 1372,-130 1372,-78 16,-78"/>
</g>
<!-- FooterComponent -->
<g id="node1" class="node">
<title>FooterComponent</title>
<polygon fill="#ffffb3" stroke="#000000" points="3408.8809,-122 3291.1191,-122 3291.1191,-86 3408.8809,-86 3408.8809,-122"/>
<text text-anchor="middle" x="3350" y="-99.8" font-family="Times,serif" font-size="14.00" fill="#000000">FooterComponent</text>
</g>
<!-- CoreModule -->
<g id="node6" class="node">
<title>CoreModule</title>
<polygon fill="#8dd3c7" stroke="#000000" points="1954.2619,-187 1951.2619,-191 1930.2619,-191 1927.2619,-187 1867.7381,-187 1867.7381,-151 1954.2619,-151 1954.2619,-187"/>
<text text-anchor="middle" x="1911" y="-164.8" font-family="Times,serif" font-size="14.00" fill="#000000">CoreModule</text>
</g>
<!-- FooterComponent&#45;&gt;CoreModule -->
<g id="edge1" class="edge">
<title>FooterComponent&#45;&gt;CoreModule</title>
<path fill="none" stroke="#000000" d="M3350,-122.2479C3350,-145.0179 3350,-181 3350,-181 3350,-181 1964.4585,-181 1964.4585,-181"/>
<polygon fill="#000000" stroke="#000000" points="1964.4585,-177.5001 1954.4585,-181 1964.4584,-184.5001 1964.4585,-177.5001"/>
</g>
<!-- HeaderComponent -->
<g id="node2" class="node">
<title>HeaderComponent</title>
<polygon fill="#ffffb3" stroke="#000000" points="3272.7437,-122 3151.2563,-122 3151.2563,-86 3272.7437,-86 3272.7437,-122"/>
<text text-anchor="middle" x="3212" y="-99.8" font-family="Times,serif" font-size="14.00" fill="#000000">HeaderComponent</text>
</g>
<!-- HeaderComponent&#45;&gt;CoreModule -->
<g id="edge2" class="edge">
<title>HeaderComponent&#45;&gt;CoreModule</title>
<path fill="none" stroke="#000000" d="M3212,-122.2921C3212,-144.2057 3212,-178 3212,-178 3212,-178 1964.2866,-178 1964.2866,-178"/>
<polygon fill="#000000" stroke="#000000" points="1964.2866,-174.5001 1954.2866,-178 1964.2866,-181.5001 1964.2866,-174.5001"/>
</g>
<!-- MainComponent -->
<g id="node3" class="node">
<title>MainComponent</title>
<polygon fill="#ffffb3" stroke="#000000" points="3133.3823,-122 3022.6177,-122 3022.6177,-86 3133.3823,-86 3133.3823,-122"/>
<text text-anchor="middle" x="3078" y="-99.8" font-family="Times,serif" font-size="14.00" fill="#000000">MainComponent</text>
</g>
<!-- MainComponent&#45;&gt;CoreModule -->
<g id="edge3" class="edge">
<title>MainComponent&#45;&gt;CoreModule</title>
<path fill="none" stroke="#000000" d="M3078,-122.0267C3078,-142.7672 3078,-174 3078,-174 3078,-174 1964.2674,-174 1964.2674,-174"/>
<polygon fill="#000000" stroke="#000000" points="1964.2674,-170.5001 1954.2674,-174 1964.2674,-177.5001 1964.2674,-170.5001"/>
</g>
<!-- NavigationComponent -->
<g id="node4" class="node">
<title>NavigationComponent</title>
<polygon fill="#ffffb3" stroke="#000000" points="3004.5407,-122 2861.4593,-122 2861.4593,-86 3004.5407,-86 3004.5407,-122"/>
<text text-anchor="middle" x="2933" y="-99.8" font-family="Times,serif" font-size="14.00" fill="#000000">NavigationComponent</text>
</g>
<!-- NavigationComponent&#45;&gt;CoreModule -->
<g id="edge4" class="edge">
<title>NavigationComponent&#45;&gt;CoreModule</title>
<path fill="none" stroke="#000000" d="M2933,-122.308C2933,-142.1455 2933,-171 2933,-171 2933,-171 1964.5871,-171 1964.5871,-171"/>
<polygon fill="#000000" stroke="#000000" points="1964.5872,-167.5001 1954.5871,-171 1964.5871,-174.5001 1964.5872,-167.5001"/>
</g>
<!-- PageNotFoundComponent -->
<g id="node5" class="node">
<title>PageNotFoundComponent</title>
<polygon fill="#ffffb3" stroke="#000000" points="2843.8243,-122 2678.1757,-122 2678.1757,-86 2843.8243,-86 2843.8243,-122"/>
<text text-anchor="middle" x="2761" y="-99.8" font-family="Times,serif" font-size="14.00" fill="#000000">PageNotFoundComponent</text>
</g>
<!-- PageNotFoundComponent&#45;&gt;CoreModule -->
<g id="edge5" class="edge">
<title>PageNotFoundComponent&#45;&gt;CoreModule</title>
<path fill="none" stroke="#000000" d="M2761,-122.1686C2761,-141.0898 2761,-168 2761,-168 2761,-168 1964.3202,-168 1964.3202,-168"/>
<polygon fill="#000000" stroke="#000000" points="1964.3202,-164.5001 1954.3202,-168 1964.3202,-171.5001 1964.3202,-164.5001"/>
</g>
<!-- FooterComponent  -->
<g id="node16" class="node">
<title>FooterComponent </title>
<polygon fill="#fb8072" stroke="#000000" points="2112.8814,-252 1991.1186,-252 1991.1186,-216 2112.8814,-216 2112.8814,-252"/>
<text text-anchor="middle" x="2052" y="-229.8" font-family="Times,serif" font-size="14.00" fill="#000000">FooterComponent </text>
</g>
<!-- CoreModule&#45;&gt;FooterComponent  -->
<g id="edge15" class="edge">
<title>CoreModule&#45;&gt;FooterComponent </title>
<path fill="none" stroke="#000000" stroke-dasharray="5,2" d="M1954.4114,-184C1985.4087,-184 2021.6429,-184 2021.6429,-184 2021.6429,-184 2021.6429,-205.9489 2021.6429,-205.9489"/>
<polygon fill="#000000" stroke="#000000" points="2018.143,-205.9488 2021.6429,-215.9489 2025.143,-205.9489 2018.143,-205.9488"/>
</g>
<!-- HeaderComponent  -->
<g id="node17" class="node">
<title>HeaderComponent </title>
<polygon fill="#fb8072" stroke="#000000" points="1973.7436,-252 1848.2564,-252 1848.2564,-216 1973.7436,-216 1973.7436,-252"/>
<text text-anchor="middle" x="1911" y="-229.8" font-family="Times,serif" font-size="14.00" fill="#000000">HeaderComponent </text>
</g>
<!-- CoreModule&#45;&gt;HeaderComponent  -->
<g id="edge16" class="edge">
<title>CoreModule&#45;&gt;HeaderComponent </title>
<path fill="none" stroke="#000000" stroke-dasharray="5,2" d="M1911,-187.1061C1911,-187.1061 1911,-205.991 1911,-205.991"/>
<polygon fill="#000000" stroke="#000000" points="1907.5001,-205.9909 1911,-215.991 1914.5001,-205.991 1907.5001,-205.9909"/>
</g>
<!-- MainComponent  -->
<g id="node18" class="node">
<title>MainComponent </title>
<polygon fill="#fb8072" stroke="#000000" points="1830.3828,-252 1715.6172,-252 1715.6172,-216 1830.3828,-216 1830.3828,-252"/>
<text text-anchor="middle" x="1773" y="-229.8" font-family="Times,serif" font-size="14.00" fill="#000000">MainComponent </text>
</g>
<!-- CoreModule&#45;&gt;MainComponent  -->
<g id="edge17" class="edge">
<title>CoreModule&#45;&gt;MainComponent </title>
<path fill="none" stroke="#000000" stroke-dasharray="5,2" d="M1867.6794,-184C1840.6278,-184 1810.9059,-184 1810.9059,-184 1810.9059,-184 1810.9059,-205.9489 1810.9059,-205.9489"/>
<polygon fill="#000000" stroke="#000000" points="1807.4059,-205.9488 1810.9059,-215.9489 1814.4059,-205.9489 1807.4059,-205.9488"/>
</g>
<!-- CreateResourceViewModule -->
<g id="node7" class="node">
<title>CreateResourceViewModule</title>
<polygon fill="#8dd3c7" stroke="#000000" points="2654.4861,-122 2651.4861,-126 2630.4861,-126 2627.4861,-122 2475.5139,-122 2475.5139,-86 2654.4861,-86 2654.4861,-122"/>
<text text-anchor="middle" x="2565" y="-99.8" font-family="Times,serif" font-size="14.00" fill="#000000">CreateResourceViewModule</text>
</g>
<!-- CreateResourceViewModule&#45;&gt;CoreModule -->
<g id="edge6" class="edge">
<title>CreateResourceViewModule&#45;&gt;CoreModule</title>
<path fill="none" stroke="#000000" d="M2565,-122.302C2565,-140.2699 2565,-165 2565,-165 2565,-165 1964.4173,-165 1964.4173,-165"/>
<polygon fill="#000000" stroke="#000000" points="1964.4173,-161.5001 1954.4173,-165 1964.4172,-168.5001 1964.4173,-161.5001"/>
</g>
<!-- DashboardModule -->
<g id="node8" class="node">
<title>DashboardModule</title>
<polygon fill="#8dd3c7" stroke="#000000" points="2458.191,-122 2455.191,-126 2434.191,-126 2431.191,-122 2337.809,-122 2337.809,-86 2458.191,-86 2458.191,-122"/>
<text text-anchor="middle" x="2398" y="-99.8" font-family="Times,serif" font-size="14.00" fill="#000000">DashboardModule</text>
</g>
<!-- DashboardModule&#45;&gt;CoreModule -->
<g id="edge7" class="edge">
<title>DashboardModule&#45;&gt;CoreModule</title>
<path fill="none" stroke="#000000" d="M2398,-122.0352C2398,-138.7344 2398,-161 2398,-161 2398,-161 1964.6466,-161 1964.6466,-161"/>
<polygon fill="#000000" stroke="#000000" points="1964.6466,-157.5001 1954.6466,-161 1964.6466,-164.5001 1964.6466,-157.5001"/>
</g>
<!-- ImageViewModule -->
<g id="node9" class="node">
<title>ImageViewModule</title>
<polygon fill="#8dd3c7" stroke="#000000" points="2319.3487,-122 2316.3487,-126 2295.3487,-126 2292.3487,-122 2194.6513,-122 2194.6513,-86 2319.3487,-86 2319.3487,-122"/>
<text text-anchor="middle" x="2257" y="-99.8" font-family="Times,serif" font-size="14.00" fill="#000000">ImageViewModule</text>
</g>
<!-- ImageViewModule&#45;&gt;CoreModule -->
<g id="edge8" class="edge">
<title>ImageViewModule&#45;&gt;CoreModule</title>
<path fill="none" stroke="#000000" d="M2257,-122.2819C2257,-137.9478 2257,-158 2257,-158 2257,-158 1964.4708,-158 1964.4708,-158"/>
<polygon fill="#000000" stroke="#000000" points="1964.4708,-154.5001 1954.4708,-158 1964.4708,-161.5001 1964.4708,-154.5001"/>
</g>
<!-- MaterialModule -->
<g id="node10" class="node">
<title>MaterialModule</title>
<polygon fill="#8dd3c7" stroke="#000000" points="2176.4706,-122 2173.4706,-126 2152.4706,-126 2149.4706,-122 2069.5294,-122 2069.5294,-86 2176.4706,-86 2176.4706,-122"/>
<text text-anchor="middle" x="2123" y="-99.8" font-family="Times,serif" font-size="14.00" fill="#000000">MaterialModule</text>
</g>
<!-- MaterialModule&#45;&gt;CoreModule -->
<g id="edge9" class="edge">
<title>MaterialModule&#45;&gt;CoreModule</title>
<path fill="none" stroke="#000000" d="M2091.1026,-122.1243C2091.1026,-136.7832 2091.1026,-155 2091.1026,-155 2091.1026,-155 1964.5978,-155 1964.5978,-155"/>
<polygon fill="#000000" stroke="#000000" points="1964.5978,-151.5001 1954.5978,-155 1964.5978,-158.5001 1964.5978,-151.5001"/>
</g>
<!-- MetadataViewModule -->
<g id="node11" class="node">
<title>MetadataViewModule</title>
<polygon fill="#8dd3c7" stroke="#000000" points="2051.9524,-122 2048.9524,-126 2027.9524,-126 2024.9524,-122 1910.0476,-122 1910.0476,-86 2051.9524,-86 2051.9524,-122"/>
<text text-anchor="middle" x="1981" y="-99.8" font-family="Times,serif" font-size="14.00" fill="#000000">MetadataViewModule</text>
</g>
<!-- MetadataViewModule&#45;&gt;CoreModule -->
<g id="edge10" class="edge">
<title>MetadataViewModule&#45;&gt;CoreModule</title>
<path fill="none" stroke="#000000" d="M1932.2023,-122.1061C1932.2023,-122.1061 1932.2023,-140.991 1932.2023,-140.991"/>
<polygon fill="#000000" stroke="#000000" points="1928.7024,-140.9909 1932.2023,-150.991 1935.7024,-140.991 1928.7024,-140.9909"/>
</g>
<!-- NIEOSModule -->
<g id="node12" class="node">
<title>NIEOSModule</title>
<polygon fill="#8dd3c7" stroke="#000000" points="1892.2591,-122 1889.2591,-126 1868.2591,-126 1865.2591,-122 1791.7409,-122 1791.7409,-86 1892.2591,-86 1892.2591,-122"/>
<text text-anchor="middle" x="1842" y="-99.8" font-family="Times,serif" font-size="14.00" fill="#000000">NIEOSModule</text>
</g>
<!-- NIEOSModule&#45;&gt;CoreModule -->
<g id="edge11" class="edge">
<title>NIEOSModule&#45;&gt;CoreModule</title>
<path fill="none" stroke="#000000" d="M1879.9993,-122.1061C1879.9993,-122.1061 1879.9993,-140.991 1879.9993,-140.991"/>
<polygon fill="#000000" stroke="#000000" points="1876.4994,-140.9909 1879.9993,-150.991 1883.4994,-140.991 1876.4994,-140.9909"/>
</g>
<!-- StaticPagesModule -->
<g id="node13" class="node">
<title>StaticPagesModule</title>
<polygon fill="#8dd3c7" stroke="#000000" points="1774.0898,-122 1771.0898,-126 1750.0898,-126 1747.0898,-122 1649.9102,-122 1649.9102,-86 1774.0898,-86 1774.0898,-122"/>
<text text-anchor="middle" x="1712" y="-99.8" font-family="Times,serif" font-size="14.00" fill="#000000">StaticPagesModule</text>
</g>
<!-- StaticPagesModule&#45;&gt;CoreModule -->
<g id="edge12" class="edge">
<title>StaticPagesModule&#45;&gt;CoreModule</title>
<path fill="none" stroke="#000000" d="M1744.9269,-122.1243C1744.9269,-136.7832 1744.9269,-155 1744.9269,-155 1744.9269,-155 1857.3662,-155 1857.3662,-155"/>
<polygon fill="#000000" stroke="#000000" points="1857.3663,-158.5001 1867.3662,-155 1857.3662,-151.5001 1857.3663,-158.5001"/>
</g>
<!-- SynopsisModule -->
<g id="node14" class="node">
<title>SynopsisModule</title>
<polygon fill="#8dd3c7" stroke="#000000" points="1632.1123,-122 1629.1123,-126 1608.1123,-126 1605.1123,-122 1521.8877,-122 1521.8877,-86 1632.1123,-86 1632.1123,-122"/>
<text text-anchor="middle" x="1577" y="-99.8" font-family="Times,serif" font-size="14.00" fill="#000000">SynopsisModule</text>
</g>
<!-- SynopsisModule&#45;&gt;CoreModule -->
<g id="edge13" class="edge">
<title>SynopsisModule&#45;&gt;CoreModule</title>
<path fill="none" stroke="#000000" d="M1577,-122.2819C1577,-137.9478 1577,-158 1577,-158 1577,-158 1857.6777,-158 1857.6777,-158"/>
<polygon fill="#000000" stroke="#000000" points="1857.6778,-161.5001 1867.6777,-158 1857.6777,-154.5001 1857.6778,-161.5001"/>
</g>
<!-- TextViewModule -->
<g id="node15" class="node">
<title>TextViewModule</title>
<polygon fill="#8dd3c7" stroke="#000000" points="1503.527,-122 1500.527,-126 1479.527,-126 1476.527,-122 1388.473,-122 1388.473,-86 1503.527,-86 1503.527,-122"/>
<text text-anchor="middle" x="1446" y="-99.8" font-family="Times,serif" font-size="14.00" fill="#000000">TextViewModule</text>
</g>
<!-- TextViewModule&#45;&gt;CoreModule -->
<g id="edge14" class="edge">
<title>TextViewModule&#45;&gt;CoreModule</title>
<path fill="none" stroke="#000000" d="M1446,-122.0352C1446,-138.7344 1446,-161 1446,-161 1446,-161 1857.6715,-161 1857.6715,-161"/>
<polygon fill="#000000" stroke="#000000" points="1857.6715,-164.5001 1867.6715,-161 1857.6715,-157.5001 1857.6715,-164.5001"/>
</g>
<!-- AuthenticationService -->
<g id="node19" class="node">
<title>AuthenticationService</title>
<ellipse fill="#fdb462" stroke="#000000" cx="1267" cy="-104" rx="97.2683" ry="18"/>
<text text-anchor="middle" x="1267" y="-99.8" font-family="Times,serif" font-size="14.00" fill="#000000">AuthenticationService</text>
</g>
<!-- AuthenticationService&#45;&gt;CoreModule -->
<g id="edge18" class="edge">
<title>AuthenticationService&#45;&gt;CoreModule</title>
<path fill="none" stroke="#000000" d="M1267,-122.302C1267,-140.2699 1267,-165 1267,-165 1267,-165 1857.4938,-165 1857.4938,-165"/>
<polygon fill="#000000" stroke="#000000" points="1857.4938,-168.5001 1867.4938,-165 1857.4937,-161.5001 1857.4938,-168.5001"/>
</g>
<!-- KnoraAuthService -->
<g id="node20" class="node">
<title>KnoraAuthService</title>
<ellipse fill="#fdb462" stroke="#000000" cx="1068" cy="-104" rx="83.3674" ry="18"/>
<text text-anchor="middle" x="1068" y="-99.8" font-family="Times,serif" font-size="14.00" fill="#000000">KnoraAuthService</text>
</g>
<!-- KnoraAuthService&#45;&gt;CoreModule -->
<g id="edge19" class="edge">
<title>KnoraAuthService&#45;&gt;CoreModule</title>
<path fill="none" stroke="#000000" d="M1068,-122.1686C1068,-141.0898 1068,-168 1068,-168 1068,-168 1857.4518,-168 1857.4518,-168"/>
<polygon fill="#000000" stroke="#000000" points="1857.4518,-171.5001 1867.4518,-168 1857.4518,-164.5001 1857.4518,-171.5001"/>
</g>
<!-- KnoraRequestService -->
<g id="node21" class="node">
<title>KnoraRequestService</title>
<ellipse fill="#fdb462" stroke="#000000" cx="871" cy="-104" rx="95.4637" ry="18"/>
<text text-anchor="middle" x="871" y="-99.8" font-family="Times,serif" font-size="14.00" fill="#000000">KnoraRequestService</text>
</g>
<!-- KnoraRequestService&#45;&gt;CoreModule -->
<g id="edge20" class="edge">
<title>KnoraRequestService&#45;&gt;CoreModule</title>
<path fill="none" stroke="#000000" d="M871,-122.308C871,-142.1455 871,-171 871,-171 871,-171 1857.6366,-171 1857.6366,-171"/>
<polygon fill="#000000" stroke="#000000" points="1857.6366,-174.5001 1867.6366,-171 1857.6365,-167.5001 1857.6366,-174.5001"/>
</g>
<!-- ResultToTextMapperService -->
<g id="node22" class="node">
<title>ResultToTextMapperService</title>
<ellipse fill="#fdb462" stroke="#000000" cx="635" cy="-104" rx="123.2514" ry="18"/>
<text text-anchor="middle" x="635" y="-99.8" font-family="Times,serif" font-size="14.00" fill="#000000">ResultToTextMapperService</text>
</g>
<!-- ResultToTextMapperService&#45;&gt;CoreModule -->
<g id="edge21" class="edge">
<title>ResultToTextMapperService&#45;&gt;CoreModule</title>
<path fill="none" stroke="#000000" d="M635,-122.0267C635,-142.7672 635,-174 635,-174 635,-174 1857.4463,-174 1857.4463,-174"/>
<polygon fill="#000000" stroke="#000000" points="1857.4464,-177.5001 1867.4463,-174 1857.4463,-170.5001 1857.4464,-177.5001"/>
</g>
<!-- SparqlRequestService -->
<g id="node23" class="node">
<title>SparqlRequestService</title>
<ellipse fill="#fdb462" stroke="#000000" cx="398" cy="-104" rx="96.1247" ry="18"/>
<text text-anchor="middle" x="398" y="-99.8" font-family="Times,serif" font-size="14.00" fill="#000000">SparqlRequestService</text>
</g>
<!-- SparqlRequestService&#45;&gt;CoreModule -->
<g id="edge22" class="edge">
<title>SparqlRequestService&#45;&gt;CoreModule</title>
<path fill="none" stroke="#000000" d="M398,-122.2921C398,-144.2057 398,-178 398,-178 398,-178 1857.3506,-178 1857.3506,-178"/>
<polygon fill="#000000" stroke="#000000" points="1857.3506,-181.5001 1867.3506,-178 1857.3505,-174.5001 1857.3506,-181.5001"/>
</g>
<!-- SynopsisObjectStorageService -->
<g id="node24" class="node">
<title>SynopsisObjectStorageService</title>
<ellipse fill="#fdb462" stroke="#000000" cx="154" cy="-104" rx="130.2134" ry="18"/>
<text text-anchor="middle" x="154" y="-99.8" font-family="Times,serif" font-size="14.00" fill="#000000">SynopsisObjectStorageService</text>
</g>
<!-- SynopsisObjectStorageService&#45;&gt;CoreModule -->
<g id="edge23" class="edge">
<title>SynopsisObjectStorageService&#45;&gt;CoreModule</title>
<path fill="none" stroke="#000000" d="M154,-122.2479C154,-145.0179 154,-181 154,-181 154,-181 1857.5683,-181 1857.5683,-181"/>
<polygon fill="#000000" stroke="#000000" points="1857.5683,-184.5001 1867.5683,-181 1857.5683,-177.5001 1857.5683,-184.5001"/>
</g>
</g>
</svg>
