<?xml version="1.0" encoding="UTF-8" standalone="no"?>
<!DOCTYPE svg PUBLIC "-//W3C//DTD SVG 1.1//EN"
 "http://www.w3.org/Graphics/SVG/1.1/DTD/svg11.dtd">
<!-- Generated by graphviz version 2.40.1 (20161225.0304)
 -->
<!-- Title: dependencies Pages: 1 -->
<svg width="3514pt" height="284pt"
 viewBox="0.00 0.00 3514.00 284.00" xmlns="http://www.w3.org/2000/svg" xmlns:xlink="http://www.w3.org/1999/xlink">
<g id="graph0" class="graph" transform="scale(1 1) rotate(0) translate(4 280)">
<title>dependencies</title>
<polygon fill="#ffffff" stroke="transparent" points="-4,4 -4,-280 3510,-280 3510,4 -4,4"/>
<text text-anchor="start" x="1732.0091" y="-42.4" font-family="sans-serif" font-weight="bold" font-size="14.00" fill="#000000">Legend</text>
<polygon fill="#ffffb3" stroke="transparent" points="1519,-10 1519,-30 1539,-30 1539,-10 1519,-10"/>
<text text-anchor="start" x="1542.629" y="-15.4" font-family="sans-serif" font-size="14.00" fill="#000000"> &#160;Declarations</text>
<polygon fill="#8dd3c7" stroke="transparent" points="1632,-10 1632,-30 1652,-30 1652,-10 1632,-10"/>
<text text-anchor="start" x="1655.7251" y="-15.4" font-family="sans-serif" font-size="14.00" fill="#000000"> &#160;Module</text>
<polygon fill="#80b1d3" stroke="transparent" points="1718,-10 1718,-30 1738,-30 1738,-10 1718,-10"/>
<text text-anchor="start" x="1741.7812" y="-15.4" font-family="sans-serif" font-size="14.00" fill="#000000"> &#160;Bootstrap</text>
<polygon fill="#fdb462" stroke="transparent" points="1815,-10 1815,-30 1835,-30 1835,-10 1815,-10"/>
<text text-anchor="start" x="1838.6732" y="-15.4" font-family="sans-serif" font-size="14.00" fill="#000000"> &#160;Providers</text>
<polygon fill="#fb8072" stroke="transparent" points="1911,-10 1911,-30 1931,-30 1931,-10 1911,-10"/>
<text text-anchor="start" x="1934.7258" y="-15.4" font-family="sans-serif" font-size="14.00" fill="#000000"> &#160;Exports</text>
<g id="clust1" class="cluster">
<title>cluster_CoreModule</title>
<polygon fill="none" stroke="#000000" stroke-dasharray="1,5" points="8,-70 8,-268 3498,-268 3498,-70 8,-70"/>
</g>
<g id="clust2" class="cluster">
<title>cluster_CoreModule_declarations</title>
<polygon fill="none" stroke="#000000" points="2341,-78 2341,-130 3490,-130 3490,-78 2341,-78"/>
</g>
<g id="clust10" class="cluster">
<title>cluster_CoreModule_imports</title>
<polygon fill="none" stroke="#000000" points="957,-78 957,-130 2333,-130 2333,-78 957,-78"/>
</g>
<g id="clust11" class="cluster">
<title>cluster_CoreModule_exports</title>
<polygon fill="none" stroke="#000000" points="1735,-208 1735,-260 1865,-260 1865,-208 1735,-208"/>
</g>
<g id="clust13" class="cluster">
<title>cluster_CoreModule_providers</title>
<polygon fill="none" stroke="#000000" points="16,-78 16,-130 949,-130 949,-78 16,-78"/>
</g>
<!-- DialogUserSettingsDialog -->
<g id="node1" class="node">
<title>DialogUserSettingsDialog</title>
<polygon fill="#ffffb3" stroke="#000000" points="3481.745,-122 3318.255,-122 3318.255,-86 3481.745,-86 3481.745,-122"/>
<text text-anchor="middle" x="3400" y="-99.8" font-family="Times,serif" font-size="14.00" fill="#000000">DialogUserSettingsDialog</text>
</g>
<!-- CoreModule -->
<g id="node8" class="node">
<title>CoreModule</title>
<polygon fill="#8dd3c7" stroke="#000000" points="1843.2619,-187 1840.2619,-191 1819.2619,-191 1816.2619,-187 1756.7381,-187 1756.7381,-151 1843.2619,-151 1843.2619,-187"/>
<text text-anchor="middle" x="1800" y="-164.8" font-family="Times,serif" font-size="14.00" fill="#000000">CoreModule</text>
</g>
<!-- DialogUserSettingsDialog&#45;&gt;CoreModule -->
<g id="edge1" class="edge">
<title>DialogUserSettingsDialog&#45;&gt;CoreModule</title>
<path fill="none" stroke="#000000" d="M3400,-122.1532C3400,-145.7566 3400,-184 3400,-184 3400,-184 1853.6259,-184 1853.6259,-184"/>
<polygon fill="#000000" stroke="#000000" points="1853.626,-180.5001 1843.6259,-184 1853.6259,-187.5001 1853.626,-180.5001"/>
</g>
<!-- ExtendSessionComponent -->
<g id="node2" class="node">
<title>ExtendSessionComponent</title>
<polygon fill="#ffffb3" stroke="#000000" points="3299.7674,-122 3136.2326,-122 3136.2326,-86 3299.7674,-86 3299.7674,-122"/>
<text text-anchor="middle" x="3218" y="-99.8" font-family="Times,serif" font-size="14.00" fill="#000000">ExtendSessionComponent</text>
</g>
<!-- ExtendSessionComponent&#45;&gt;CoreModule -->
<g id="edge2" class="edge">
<title>ExtendSessionComponent&#45;&gt;CoreModule</title>
<path fill="none" stroke="#000000" d="M3218,-122.0109C3218,-144.4852 3218,-180 3218,-180 3218,-180 1853.6017,-180 1853.6017,-180"/>
<polygon fill="#000000" stroke="#000000" points="1853.6017,-176.5001 1843.6017,-180 1853.6017,-183.5001 1853.6017,-176.5001"/>
</g>
<!-- InitPopupComponent -->
<g id="node3" class="node">
<title>InitPopupComponent</title>
<polygon fill="#ffffb3" stroke="#000000" points="3118.0575,-122 2981.9425,-122 2981.9425,-86 3118.0575,-86 3118.0575,-122"/>
<text text-anchor="middle" x="3050" y="-99.8" font-family="Times,serif" font-size="14.00" fill="#000000">InitPopupComponent</text>
</g>
<!-- InitPopupComponent&#45;&gt;CoreModule -->
<g id="edge3" class="edge">
<title>InitPopupComponent&#45;&gt;CoreModule</title>
<path fill="none" stroke="#000000" d="M3050,-122.0449C3050,-143.6623 3050,-177 3050,-177 3050,-177 1853.3908,-177 1853.3908,-177"/>
<polygon fill="#000000" stroke="#000000" points="1853.3909,-173.5001 1843.3908,-177 1853.3908,-180.5001 1853.3909,-173.5001"/>
</g>
<!-- MainComponent -->
<g id="node4" class="node">
<title>MainComponent</title>
<polygon fill="#ffffb3" stroke="#000000" points="2963.3823,-122 2852.6177,-122 2852.6177,-86 2963.3823,-86 2963.3823,-122"/>
<text text-anchor="middle" x="2908" y="-99.8" font-family="Times,serif" font-size="14.00" fill="#000000">MainComponent</text>
</g>
<!-- MainComponent&#45;&gt;CoreModule -->
<g id="edge4" class="edge">
<title>MainComponent&#45;&gt;CoreModule</title>
<path fill="none" stroke="#000000" d="M2908,-122.1289C2908,-142.5724 2908,-173 2908,-173 2908,-173 1853.4349,-173 1853.4349,-173"/>
<polygon fill="#000000" stroke="#000000" points="1853.4349,-169.5001 1843.4349,-173 1853.4349,-176.5001 1853.4349,-169.5001"/>
</g>
<!-- NavigationComponent -->
<g id="node5" class="node">
<title>NavigationComponent</title>
<polygon fill="#ffffb3" stroke="#000000" points="2834.5407,-122 2691.4593,-122 2691.4593,-86 2834.5407,-86 2834.5407,-122"/>
<text text-anchor="middle" x="2763" y="-99.8" font-family="Times,serif" font-size="14.00" fill="#000000">NavigationComponent</text>
</g>
<!-- NavigationComponent&#45;&gt;CoreModule -->
<g id="edge5" class="edge">
<title>NavigationComponent&#45;&gt;CoreModule</title>
<path fill="none" stroke="#000000" d="M2763,-122.1061C2763,-141.3391 2763,-169 2763,-169 2763,-169 1853.5642,-169 1853.5642,-169"/>
<polygon fill="#000000" stroke="#000000" points="1853.5642,-165.5001 1843.5642,-169 1853.5642,-172.5001 1853.5642,-165.5001"/>
</g>
<!-- PageNotFoundComponent -->
<g id="node6" class="node">
<title>PageNotFoundComponent</title>
<polygon fill="#ffffb3" stroke="#000000" points="2673.8243,-122 2508.1757,-122 2508.1757,-86 2673.8243,-86 2673.8243,-122"/>
<text text-anchor="middle" x="2591" y="-99.8" font-family="Times,serif" font-size="14.00" fill="#000000">PageNotFoundComponent</text>
</g>
<!-- PageNotFoundComponent&#45;&gt;CoreModule -->
<g id="edge6" class="edge">
<title>PageNotFoundComponent&#45;&gt;CoreModule</title>
<path fill="none" stroke="#000000" d="M2591,-122.2667C2591,-140.5552 2591,-166 2591,-166 2591,-166 1853.3714,-166 1853.3714,-166"/>
<polygon fill="#000000" stroke="#000000" points="1853.3714,-162.5001 1843.3714,-166 1853.3714,-169.5001 1853.3714,-162.5001"/>
</g>
<!-- PizzaPartyComponent -->
<g id="node7" class="node">
<title>PizzaPartyComponent</title>
<polygon fill="#ffffb3" stroke="#000000" points="2490.6979,-122 2349.3021,-122 2349.3021,-86 2490.6979,-86 2490.6979,-122"/>
<text text-anchor="middle" x="2420" y="-99.8" font-family="Times,serif" font-size="14.00" fill="#000000">PizzaPartyComponent</text>
</g>
<!-- PizzaPartyComponent&#45;&gt;CoreModule -->
<g id="edge7" class="edge">
<title>PizzaPartyComponent&#45;&gt;CoreModule</title>
<path fill="none" stroke="#000000" d="M2420,-122.0336C2420,-139.0597 2420,-162 2420,-162 2420,-162 1853.5972,-162 1853.5972,-162"/>
<polygon fill="#000000" stroke="#000000" points="1853.5972,-158.5001 1843.5972,-162 1853.5972,-165.5001 1853.5972,-158.5001"/>
</g>
<!-- MainComponent  -->
<g id="node18" class="node">
<title>MainComponent </title>
<polygon fill="#fb8072" stroke="#000000" points="1857.3828,-252 1742.6172,-252 1742.6172,-216 1857.3828,-216 1857.3828,-252"/>
<text text-anchor="middle" x="1800" y="-229.8" font-family="Times,serif" font-size="14.00" fill="#000000">MainComponent </text>
</g>
<!-- CoreModule&#45;&gt;MainComponent  -->
<g id="edge17" class="edge">
<title>CoreModule&#45;&gt;MainComponent </title>
<path fill="none" stroke="#000000" stroke-dasharray="5,2" d="M1800,-187.1061C1800,-187.1061 1800,-205.991 1800,-205.991"/>
<polygon fill="#000000" stroke="#000000" points="1796.5001,-205.9909 1800,-215.991 1803.5001,-205.991 1796.5001,-205.9909"/>
</g>
<!-- DashboardModule -->
<g id="node9" class="node">
<title>DashboardModule</title>
<polygon fill="#8dd3c7" stroke="#000000" points="2325.191,-122 2322.191,-126 2301.191,-126 2298.191,-122 2204.809,-122 2204.809,-86 2325.191,-86 2325.191,-122"/>
<text text-anchor="middle" x="2265" y="-99.8" font-family="Times,serif" font-size="14.00" fill="#000000">DashboardModule</text>
</g>
<!-- DashboardModule&#45;&gt;CoreModule -->
<g id="edge8" class="edge">
<title>DashboardModule&#45;&gt;CoreModule</title>
<path fill="none" stroke="#000000" d="M2265,-122.0091C2265,-138.0494 2265,-159 2265,-159 2265,-159 1853.3285,-159 1853.3285,-159"/>
<polygon fill="#000000" stroke="#000000" points="1853.3285,-155.5001 1843.3285,-159 1853.3285,-162.5001 1853.3285,-155.5001"/>
</g>
<!-- DevelopmentViewsModule -->
<g id="node10" class="node">
<title>DevelopmentViewsModule</title>
<polygon fill="#8dd3c7" stroke="#000000" points="2187.2352,-122 2184.2352,-126 2163.2352,-126 2160.2352,-122 2016.7648,-122 2016.7648,-86 2187.2352,-86 2187.2352,-122"/>
<text text-anchor="middle" x="2102" y="-99.8" font-family="Times,serif" font-size="14.00" fill="#000000">DevelopmentViewsModule</text>
</g>
<!-- DevelopmentViewsModule&#45;&gt;CoreModule -->
<g id="edge9" class="edge">
<title>DevelopmentViewsModule&#45;&gt;CoreModule</title>
<path fill="none" stroke="#000000" d="M2102,-122.1243C2102,-136.7832 2102,-155 2102,-155 2102,-155 1853.2692,-155 1853.2692,-155"/>
<polygon fill="#000000" stroke="#000000" points="1853.2693,-151.5001 1843.2692,-155 1853.2692,-158.5001 1853.2693,-151.5001"/>
</g>
<!-- HowToProgramWithNieOSModule -->
<g id="node11" class="node">
<title>HowToProgramWithNieOSModule</title>
<polygon fill="#8dd3c7" stroke="#000000" points="1998.1217,-122 1995.1217,-126 1974.1217,-126 1971.1217,-122 1781.8783,-122 1781.8783,-86 1998.1217,-86 1998.1217,-122"/>
<text text-anchor="middle" x="1890" y="-99.8" font-family="Times,serif" font-size="14.00" fill="#000000">HowToProgramWithNieOSModule</text>
</g>
<!-- HowToProgramWithNieOSModule&#45;&gt;CoreModule -->
<g id="edge10" class="edge">
<title>HowToProgramWithNieOSModule&#45;&gt;CoreModule</title>
<path fill="none" stroke="#000000" d="M1812.5351,-122.1061C1812.5351,-122.1061 1812.5351,-140.991 1812.5351,-140.991"/>
<polygon fill="#000000" stroke="#000000" points="1809.0351,-140.9909 1812.5351,-150.991 1816.0351,-140.991 1809.0351,-140.9909"/>
</g>
<!-- MaterialModule -->
<g id="node12" class="node">
<title>MaterialModule</title>
<polygon fill="#8dd3c7" stroke="#000000" points="1763.4706,-122 1760.4706,-126 1739.4706,-126 1736.4706,-122 1656.5294,-122 1656.5294,-86 1763.4706,-86 1763.4706,-122"/>
<text text-anchor="middle" x="1710" y="-99.8" font-family="Times,serif" font-size="14.00" fill="#000000">MaterialModule</text>
</g>
<!-- MaterialModule&#45;&gt;CoreModule -->
<g id="edge11" class="edge">
<title>MaterialModule&#45;&gt;CoreModule</title>
<path fill="none" stroke="#000000" d="M1749.7141,-122.1532C1749.7141,-145.7566 1749.7141,-184 1749.7141,-184 1749.7141,-184 1750.4133,-184 1750.4133,-184"/>
<polygon fill="#000000" stroke="#000000" points="1746.7062,-187.5002 1756.7061,-184 1746.706,-180.5002 1746.7062,-187.5002"/>
</g>
<!-- MockupTutorialModule -->
<g id="node13" class="node">
<title>MockupTutorialModule</title>
<polygon fill="#8dd3c7" stroke="#000000" points="1638.8089,-122 1635.8089,-126 1614.8089,-126 1611.8089,-122 1487.1911,-122 1487.1911,-86 1638.8089,-86 1638.8089,-122"/>
<text text-anchor="middle" x="1563" y="-99.8" font-family="Times,serif" font-size="14.00" fill="#000000">MockupTutorialModule</text>
</g>
<!-- MockupTutorialModule&#45;&gt;CoreModule -->
<g id="edge12" class="edge">
<title>MockupTutorialModule&#45;&gt;CoreModule</title>
<path fill="none" stroke="#000000" d="M1563,-122.1243C1563,-136.7832 1563,-155 1563,-155 1563,-155 1746.5305,-155 1746.5305,-155"/>
<polygon fill="#000000" stroke="#000000" points="1746.5306,-158.5001 1756.5305,-155 1746.5305,-151.5001 1746.5306,-158.5001"/>
</g>
<!-- NIEOSModule -->
<g id="node14" class="node">
<title>NIEOSModule</title>
<polygon fill="#8dd3c7" stroke="#000000" points="1469.2591,-122 1466.2591,-126 1445.2591,-126 1442.2591,-122 1368.7409,-122 1368.7409,-86 1469.2591,-86 1469.2591,-122"/>
<text text-anchor="middle" x="1419" y="-99.8" font-family="Times,serif" font-size="14.00" fill="#000000">NIEOSModule</text>
</g>
<!-- NIEOSModule&#45;&gt;CoreModule -->
<g id="edge13" class="edge">
<title>NIEOSModule&#45;&gt;CoreModule</title>
<path fill="none" stroke="#000000" d="M1419,-122.2819C1419,-137.9478 1419,-158 1419,-158 1419,-158 1746.6654,-158 1746.6654,-158"/>
<polygon fill="#000000" stroke="#000000" points="1746.6654,-161.5001 1756.6654,-158 1746.6654,-154.5001 1746.6654,-161.5001"/>
</g>
<!-- StaticPagesModule -->
<g id="node15" class="node">
<title>StaticPagesModule</title>
<polygon fill="#8dd3c7" stroke="#000000" points="1351.0898,-122 1348.0898,-126 1327.0898,-126 1324.0898,-122 1226.9102,-122 1226.9102,-86 1351.0898,-86 1351.0898,-122"/>
<text text-anchor="middle" x="1289" y="-99.8" font-family="Times,serif" font-size="14.00" fill="#000000">StaticPagesModule</text>
</g>
<!-- StaticPagesModule&#45;&gt;CoreModule -->
<g id="edge14" class="edge">
<title>StaticPagesModule&#45;&gt;CoreModule</title>
<path fill="none" stroke="#000000" d="M1289,-122.0352C1289,-138.7344 1289,-161 1289,-161 1289,-161 1746.4324,-161 1746.4324,-161"/>
<polygon fill="#000000" stroke="#000000" points="1746.4325,-164.5001 1756.4324,-161 1746.4324,-157.5001 1746.4325,-164.5001"/>
</g>
<!-- SynopsisModule -->
<g id="node16" class="node">
<title>SynopsisModule</title>
<polygon fill="#8dd3c7" stroke="#000000" points="1209.1123,-122 1206.1123,-126 1185.1123,-126 1182.1123,-122 1098.8877,-122 1098.8877,-86 1209.1123,-86 1209.1123,-122"/>
<text text-anchor="middle" x="1154" y="-99.8" font-family="Times,serif" font-size="14.00" fill="#000000">SynopsisModule</text>
</g>
<!-- SynopsisModule&#45;&gt;CoreModule -->
<g id="edge15" class="edge">
<title>SynopsisModule&#45;&gt;CoreModule</title>
<path fill="none" stroke="#000000" d="M1154,-122.302C1154,-140.2699 1154,-165 1154,-165 1154,-165 1746.611,-165 1746.611,-165"/>
<polygon fill="#000000" stroke="#000000" points="1746.6111,-168.5001 1756.611,-165 1746.611,-161.5001 1746.6111,-168.5001"/>
</g>
<!-- TextViewModule -->
<g id="node17" class="node">
<title>TextViewModule</title>
<polygon fill="#8dd3c7" stroke="#000000" points="1080.527,-122 1077.527,-126 1056.527,-126 1053.527,-122 965.473,-122 965.473,-86 1080.527,-86 1080.527,-122"/>
<text text-anchor="middle" x="1023" y="-99.8" font-family="Times,serif" font-size="14.00" fill="#000000">TextViewModule</text>
</g>
<!-- TextViewModule&#45;&gt;CoreModule -->
<g id="edge16" class="edge">
<title>TextViewModule&#45;&gt;CoreModule</title>
<path fill="none" stroke="#000000" d="M1023,-122.1686C1023,-141.0898 1023,-168 1023,-168 1023,-168 1746.5602,-168 1746.5602,-168"/>
<polygon fill="#000000" stroke="#000000" points="1746.5602,-171.5001 1756.5602,-168 1746.5601,-164.5001 1746.5602,-171.5001"/>
</g>
<!-- KnoraAuthService -->
<g id="node19" class="node">
<title>KnoraAuthService</title>
<ellipse fill="#fdb462" stroke="#000000" cx="858" cy="-104" rx="83.3674" ry="18"/>
<text text-anchor="middle" x="858" y="-99.8" font-family="Times,serif" font-size="14.00" fill="#000000">KnoraAuthService</text>
</g>
<!-- KnoraAuthService&#45;&gt;CoreModule -->
<g id="edge18" class="edge">
<title>KnoraAuthService&#45;&gt;CoreModule</title>
<path fill="none" stroke="#000000" d="M858,-122.308C858,-142.1455 858,-171 858,-171 858,-171 1746.4546,-171 1746.4546,-171"/>
<polygon fill="#000000" stroke="#000000" points="1746.4547,-174.5001 1756.4546,-171 1746.4546,-167.5001 1746.4547,-174.5001"/>
</g>
<!-- KnoraRequestService -->
<g id="node20" class="node">
<title>KnoraRequestService</title>
<ellipse fill="#fdb462" stroke="#000000" cx="661" cy="-104" rx="95.4637" ry="18"/>
<text text-anchor="middle" x="661" y="-99.8" font-family="Times,serif" font-size="14.00" fill="#000000">KnoraRequestService</text>
</g>
<!-- KnoraRequestService&#45;&gt;CoreModule -->
<g id="edge19" class="edge">
<title>KnoraRequestService&#45;&gt;CoreModule</title>
<path fill="none" stroke="#000000" d="M661,-122.0267C661,-142.7672 661,-174 661,-174 661,-174 1746.3948,-174 1746.3948,-174"/>
<polygon fill="#000000" stroke="#000000" points="1746.3949,-177.5001 1756.3948,-174 1746.3948,-170.5001 1746.3949,-177.5001"/>
</g>
<!-- ResultToTextMapperService -->
<g id="node21" class="node">
<title>ResultToTextMapperService</title>
<ellipse fill="#fdb462" stroke="#000000" cx="425" cy="-104" rx="123.2514" ry="18"/>
<text text-anchor="middle" x="425" y="-99.8" font-family="Times,serif" font-size="14.00" fill="#000000">ResultToTextMapperService</text>
</g>
<!-- ResultToTextMapperService&#45;&gt;CoreModule -->
<g id="edge20" class="edge">
<title>ResultToTextMapperService&#45;&gt;CoreModule</title>
<path fill="none" stroke="#000000" d="M425,-122.2921C425,-144.2057 425,-178 425,-178 425,-178 1746.578,-178 1746.578,-178"/>
<polygon fill="#000000" stroke="#000000" points="1746.578,-181.5001 1756.578,-178 1746.578,-174.5001 1746.578,-181.5001"/>
</g>
<!-- SynopsisObjectStorageService -->
<g id="node22" class="node">
<title>SynopsisObjectStorageService</title>
<ellipse fill="#fdb462" stroke="#000000" cx="154" cy="-104" rx="130.2134" ry="18"/>
<text text-anchor="middle" x="154" y="-99.8" font-family="Times,serif" font-size="14.00" fill="#000000">SynopsisObjectStorageService</text>
</g>
<!-- SynopsisObjectStorageService&#45;&gt;CoreModule -->
<g id="edge21" class="edge">
<title>SynopsisObjectStorageService&#45;&gt;CoreModule</title>
<path fill="none" stroke="#000000" d="M154,-122.2479C154,-145.0179 154,-181 154,-181 154,-181 1746.3975,-181 1746.3975,-181"/>
<polygon fill="#000000" stroke="#000000" points="1746.3975,-184.5001 1756.3975,-181 1746.3974,-177.5001 1746.3975,-184.5001"/>
</g>
</g>
</svg>
