<?xml version="1.0" encoding="UTF-8" standalone="no"?>
<!DOCTYPE svg PUBLIC "-//W3C//DTD SVG 1.1//EN"
 "http://www.w3.org/Graphics/SVG/1.1/DTD/svg11.dtd">
<!-- Generated by graphviz version 2.40.1 (20161225.0304)
 -->
<!-- Title: dependencies Pages: 1 -->
<svg width="696pt" height="211pt"
 viewBox="0.00 0.00 696.00 211.00" xmlns="http://www.w3.org/2000/svg" xmlns:xlink="http://www.w3.org/1999/xlink">
<g id="graph0" class="graph" transform="scale(1 1) rotate(0) translate(4 207)">
<title>dependencies</title>
<polygon fill="#ffffff" stroke="transparent" points="-4,4 -4,-207 692,-207 692,4 -4,4"/>
<text text-anchor="start" x="323.0091" y="-42.4" font-family="sans-serif" font-weight="bold" font-size="14.00" fill="#000000">Legend</text>
<polygon fill="#ffffb3" stroke="transparent" points="110,-10 110,-30 130,-30 130,-10 110,-10"/>
<text text-anchor="start" x="133.629" y="-15.4" font-family="sans-serif" font-size="14.00" fill="#000000"> &#160;Declarations</text>
<polygon fill="#8dd3c7" stroke="transparent" points="223,-10 223,-30 243,-30 243,-10 223,-10"/>
<text text-anchor="start" x="246.7251" y="-15.4" font-family="sans-serif" font-size="14.00" fill="#000000"> &#160;Module</text>
<polygon fill="#80b1d3" stroke="transparent" points="309,-10 309,-30 329,-30 329,-10 309,-10"/>
<text text-anchor="start" x="332.7812" y="-15.4" font-family="sans-serif" font-size="14.00" fill="#000000"> &#160;Bootstrap</text>
<polygon fill="#fdb462" stroke="transparent" points="406,-10 406,-30 426,-30 426,-10 406,-10"/>
<text text-anchor="start" x="429.6732" y="-15.4" font-family="sans-serif" font-size="14.00" fill="#000000"> &#160;Providers</text>
<polygon fill="#fb8072" stroke="transparent" points="502,-10 502,-30 522,-30 522,-10 502,-10"/>
<text text-anchor="start" x="525.7258" y="-15.4" font-family="sans-serif" font-size="14.00" fill="#000000"> &#160;Exports</text>
<g id="clust1" class="cluster">
<title>cluster_TextDevViewModule</title>
<polygon fill="none" stroke="#000000" stroke-dasharray="1,5" points="8,-70 8,-195 680,-195 680,-70 8,-70"/>
</g>
<g id="clust2" class="cluster">
<title>cluster_TextDevViewModule_declarations</title>
<polygon fill="none" stroke="#000000" points="496,-78 496,-130 672,-130 672,-78 496,-78"/>
</g>
<g id="clust4" class="cluster">
<title>cluster_TextDevViewModule_imports</title>
<polygon fill="none" stroke="#000000" points="16,-78 16,-130 488,-130 488,-78 16,-78"/>
</g>
<!-- TextDevViewComponent -->
<g id="node1" class="node">
<title>TextDevViewComponent</title>
<polygon fill="#ffffb3" stroke="#000000" points="664.1302,-122 503.8698,-122 503.8698,-86 664.1302,-86 664.1302,-122"/>
<text text-anchor="middle" x="584" y="-99.8" font-family="Times,serif" font-size="14.00" fill="#000000">TextDevViewComponent</text>
</g>
<!-- TextDevViewModule -->
<g id="node2" class="node">
<title>TextDevViewModule</title>
<polygon fill="#8dd3c7" stroke="#000000" points="383.3473,-187 380.3473,-191 359.3473,-191 356.3473,-187 244.6527,-187 244.6527,-151 383.3473,-151 383.3473,-187"/>
<text text-anchor="middle" x="314" y="-164.8" font-family="Times,serif" font-size="14.00" fill="#000000">TextDevViewModule</text>
</g>
<!-- TextDevViewComponent&#45;&gt;TextDevViewModule -->
<g id="edge1" class="edge">
<title>TextDevViewComponent&#45;&gt;TextDevViewModule</title>
<path fill="none" stroke="#000000" d="M584,-122.1061C584,-141.3391 584,-169 584,-169 584,-169 393.5317,-169 393.5317,-169"/>
<polygon fill="#000000" stroke="#000000" points="393.5317,-165.5001 383.5317,-169 393.5317,-172.5001 393.5317,-165.5001"/>
</g>
<!-- ComplexTextViewsModule -->
<g id="node3" class="node">
<title>ComplexTextViewsModule</title>
<polygon fill="#8dd3c7" stroke="#000000" points="480.3033,-122 477.3033,-126 456.3033,-126 453.3033,-122 307.6967,-122 307.6967,-86 480.3033,-86 480.3033,-122"/>
<text text-anchor="middle" x="394" y="-99.8" font-family="Times,serif" font-size="14.00" fill="#000000">ComplexTextViewsModule</text>
</g>
<!-- ComplexTextViewsModule&#45;&gt;TextDevViewModule -->
<g id="edge2" class="edge">
<title>ComplexTextViewsModule&#45;&gt;TextDevViewModule</title>
<path fill="none" stroke="#000000" d="M345.6361,-122.1061C345.6361,-122.1061 345.6361,-140.991 345.6361,-140.991"/>
<polygon fill="#000000" stroke="#000000" points="342.1361,-140.9909 345.6361,-150.991 349.1361,-140.991 342.1361,-140.9909"/>
</g>
<!-- RichTextModule -->
<g id="node4" class="node">
<title>RichTextModule</title>
<polygon fill="#8dd3c7" stroke="#000000" points="289.6499,-122 286.6499,-126 265.6499,-126 262.6499,-122 178.3501,-122 178.3501,-86 289.6499,-86 289.6499,-122"/>
<text text-anchor="middle" x="234" y="-99.8" font-family="Times,serif" font-size="14.00" fill="#000000">RichTextModule</text>
</g>
<!-- RichTextModule&#45;&gt;TextDevViewModule -->
<g id="edge3" class="edge">
<title>RichTextModule&#45;&gt;TextDevViewModule</title>
<path fill="none" stroke="#000000" d="M267.2006,-122.1061C267.2006,-122.1061 267.2006,-140.991 267.2006,-140.991"/>
<polygon fill="#000000" stroke="#000000" points="263.7006,-140.9909 267.2006,-150.991 270.7006,-140.991 263.7006,-140.9909"/>
</g>
<!-- TextStructureModule -->
<g id="node5" class="node">
<title>TextStructureModule</title>
<polygon fill="#8dd3c7" stroke="#000000" points="160.0226,-122 157.0226,-126 136.0226,-126 133.0226,-122 23.9774,-122 23.9774,-86 160.0226,-86 160.0226,-122"/>
<text text-anchor="middle" x="92" y="-99.8" font-family="Times,serif" font-size="14.00" fill="#000000">TextStructureModule</text>
</g>
<!-- TextStructureModule&#45;&gt;TextDevViewModule -->
<g id="edge4" class="edge">
<title>TextStructureModule&#45;&gt;TextDevViewModule</title>
<path fill="none" stroke="#000000" d="M92,-122.1061C92,-141.3391 92,-169 92,-169 92,-169 234.3669,-169 234.3669,-169"/>
<polygon fill="#000000" stroke="#000000" points="234.367,-172.5001 244.3669,-169 234.3669,-165.5001 234.367,-172.5001"/>
</g>
</g>
</svg>
