<?xml version="1.0" encoding="UTF-8" standalone="no"?>
<!DOCTYPE svg PUBLIC "-//W3C//DTD SVG 1.1//EN"
 "http://www.w3.org/Graphics/SVG/1.1/DTD/svg11.dtd">
<!-- Generated by graphviz version 2.40.1 (20161225.0304)
 -->
<!-- Title: dependencies Pages: 1 -->
<svg width="690pt" height="211pt"
 viewBox="0.00 0.00 690.00 211.00" xmlns="http://www.w3.org/2000/svg" xmlns:xlink="http://www.w3.org/1999/xlink">
<g id="graph0" class="graph" transform="scale(1 1) rotate(0) translate(4 207)">
<title>dependencies</title>
<polygon fill="#ffffff" stroke="transparent" points="-4,4 -4,-207 686,-207 686,4 -4,4"/>
<text text-anchor="start" x="320.0091" y="-42.4" font-family="sans-serif" font-weight="bold" font-size="14.00" fill="#000000">Legend</text>
<polygon fill="#ffffb3" stroke="transparent" points="107,-10 107,-30 127,-30 127,-10 107,-10"/>
<text text-anchor="start" x="130.629" y="-15.4" font-family="sans-serif" font-size="14.00" fill="#000000"> &#160;Declarations</text>
<polygon fill="#8dd3c7" stroke="transparent" points="220,-10 220,-30 240,-30 240,-10 220,-10"/>
<text text-anchor="start" x="243.7251" y="-15.4" font-family="sans-serif" font-size="14.00" fill="#000000"> &#160;Module</text>
<polygon fill="#80b1d3" stroke="transparent" points="306,-10 306,-30 326,-30 326,-10 306,-10"/>
<text text-anchor="start" x="329.7812" y="-15.4" font-family="sans-serif" font-size="14.00" fill="#000000"> &#160;Bootstrap</text>
<polygon fill="#fdb462" stroke="transparent" points="403,-10 403,-30 423,-30 423,-10 403,-10"/>
<text text-anchor="start" x="426.6732" y="-15.4" font-family="sans-serif" font-size="14.00" fill="#000000"> &#160;Providers</text>
<polygon fill="#fb8072" stroke="transparent" points="499,-10 499,-30 519,-30 519,-10 499,-10"/>
<text text-anchor="start" x="522.7258" y="-15.4" font-family="sans-serif" font-size="14.00" fill="#000000"> &#160;Exports</text>
<g id="clust1" class="cluster">
<title>cluster_TextDevViewModule</title>
<polygon fill="none" stroke="#000000" stroke-dasharray="1,5" points="8,-70 8,-195 674,-195 674,-70 8,-70"/>
</g>
<g id="clust2" class="cluster">
<title>cluster_TextDevViewModule_declarations</title>
<polygon fill="none" stroke="#000000" points="490,-78 490,-130 666,-130 666,-78 490,-78"/>
</g>
<g id="clust4" class="cluster">
<title>cluster_TextDevViewModule_imports</title>
<polygon fill="none" stroke="#000000" points="16,-78 16,-130 482,-130 482,-78 16,-78"/>
</g>
<!-- TextDevViewComponent -->
<g id="node1" class="node">
<title>TextDevViewComponent</title>
<polygon fill="#ffffb3" stroke="#000000" points="658.1302,-122 497.8698,-122 497.8698,-86 658.1302,-86 658.1302,-122"/>
<text text-anchor="middle" x="578" y="-99.8" font-family="Times,serif" font-size="14.00" fill="#000000">TextDevViewComponent</text>
</g>
<!-- TextDevViewModule -->
<g id="node2" class="node">
<title>TextDevViewModule</title>
<polygon fill="#8dd3c7" stroke="#000000" points="378.3473,-187 375.3473,-191 354.3473,-191 351.3473,-187 239.6527,-187 239.6527,-151 378.3473,-151 378.3473,-187"/>
<text text-anchor="middle" x="309" y="-164.8" font-family="Times,serif" font-size="14.00" fill="#000000">TextDevViewModule</text>
</g>
<!-- TextDevViewComponent&#45;&gt;TextDevViewModule -->
<g id="edge1" class="edge">
<title>TextDevViewComponent&#45;&gt;TextDevViewModule</title>
<path fill="none" stroke="#000000" d="M578,-122.1061C578,-141.3391 578,-169 578,-169 578,-169 388.624,-169 388.624,-169"/>
<polygon fill="#000000" stroke="#000000" points="388.6241,-165.5001 378.624,-169 388.624,-172.5001 388.6241,-165.5001"/>
</g>
<!-- ComplexTextViewsModule -->
<g id="node3" class="node">
<title>ComplexTextViewsModule</title>
<polygon fill="#8dd3c7" stroke="#000000" points="474.3033,-122 471.3033,-126 450.3033,-126 447.3033,-122 301.6967,-122 301.6967,-86 474.3033,-86 474.3033,-122"/>
<text text-anchor="middle" x="388" y="-99.8" font-family="Times,serif" font-size="14.00" fill="#000000">ComplexTextViewsModule</text>
</g>
<!-- ComplexTextViewsModule&#45;&gt;TextDevViewModule -->
<g id="edge2" class="edge">
<title>ComplexTextViewsModule&#45;&gt;TextDevViewModule</title>
<path fill="none" stroke="#000000" d="M340.1361,-122.1061C340.1361,-122.1061 340.1361,-140.991 340.1361,-140.991"/>
<polygon fill="#000000" stroke="#000000" points="336.6361,-140.9909 340.1361,-150.991 343.6361,-140.991 336.6361,-140.9909"/>
</g>
<!-- SpaTextModule -->
<g id="node4" class="node">
<title>SpaTextModule</title>
<polygon fill="#8dd3c7" stroke="#000000" points="284.205,-122 281.205,-126 260.205,-126 257.205,-122 177.795,-122 177.795,-86 284.205,-86 284.205,-122"/>
<text text-anchor="middle" x="231" y="-99.8" font-family="Times,serif" font-size="14.00" fill="#000000">SpaTextModule</text>
</g>
<!-- SpaTextModule&#45;&gt;TextDevViewModule -->
<g id="edge3" class="edge">
<title>SpaTextModule&#45;&gt;TextDevViewModule</title>
<path fill="none" stroke="#000000" d="M261.8394,-122.1061C261.8394,-122.1061 261.8394,-140.991 261.8394,-140.991"/>
<polygon fill="#000000" stroke="#000000" points="258.3395,-140.9909 261.8394,-150.991 265.3395,-140.991 258.3395,-140.9909"/>
</g>
<!-- TextStructureModule -->
<g id="node5" class="node">
<title>TextStructureModule</title>
<polygon fill="#8dd3c7" stroke="#000000" points="160.0226,-122 157.0226,-126 136.0226,-126 133.0226,-122 23.9774,-122 23.9774,-86 160.0226,-86 160.0226,-122"/>
<text text-anchor="middle" x="92" y="-99.8" font-family="Times,serif" font-size="14.00" fill="#000000">TextStructureModule</text>
</g>
<!-- TextStructureModule&#45;&gt;TextDevViewModule -->
<g id="edge4" class="edge">
<title>TextStructureModule&#45;&gt;TextDevViewModule</title>
<path fill="none" stroke="#000000" d="M92,-122.1061C92,-141.3391 92,-169 92,-169 92,-169 229.4444,-169 229.4444,-169"/>
<polygon fill="#000000" stroke="#000000" points="229.4445,-172.5001 239.4444,-169 229.4444,-165.5001 229.4445,-172.5001"/>
</g>
</g>
</svg>
