<?xml version="1.0" encoding="UTF-8" standalone="no"?>
<!DOCTYPE svg PUBLIC "-//W3C//DTD SVG 1.1//EN"
 "http://www.w3.org/Graphics/SVG/1.1/DTD/svg11.dtd">
<!-- Generated by graphviz version 2.40.1 (20161225.0304)
 -->
<!-- Title: dependencies Pages: 1 -->
<svg width="866pt" height="211pt"
 viewBox="0.00 0.00 866.00 211.00" xmlns="http://www.w3.org/2000/svg" xmlns:xlink="http://www.w3.org/1999/xlink">
<g id="graph0" class="graph" transform="scale(1 1) rotate(0) translate(4 207)">
<title>dependencies</title>
<polygon fill="#ffffff" stroke="transparent" points="-4,4 -4,-207 862,-207 862,4 -4,4"/>
<text text-anchor="start" x="408.0091" y="-42.4" font-family="sans-serif" font-weight="bold" font-size="14.00" fill="#000000">Legend</text>
<polygon fill="#ffffb3" stroke="transparent" points="195,-10 195,-30 215,-30 215,-10 195,-10"/>
<text text-anchor="start" x="218.629" y="-15.4" font-family="sans-serif" font-size="14.00" fill="#000000"> &#160;Declarations</text>
<polygon fill="#8dd3c7" stroke="transparent" points="308,-10 308,-30 328,-30 328,-10 308,-10"/>
<text text-anchor="start" x="331.7251" y="-15.4" font-family="sans-serif" font-size="14.00" fill="#000000"> &#160;Module</text>
<polygon fill="#80b1d3" stroke="transparent" points="394,-10 394,-30 414,-30 414,-10 394,-10"/>
<text text-anchor="start" x="417.7812" y="-15.4" font-family="sans-serif" font-size="14.00" fill="#000000"> &#160;Bootstrap</text>
<polygon fill="#fdb462" stroke="transparent" points="491,-10 491,-30 511,-30 511,-10 491,-10"/>
<text text-anchor="start" x="514.6732" y="-15.4" font-family="sans-serif" font-size="14.00" fill="#000000"> &#160;Providers</text>
<polygon fill="#fb8072" stroke="transparent" points="587,-10 587,-30 607,-30 607,-10 587,-10"/>
<text text-anchor="start" x="610.7258" y="-15.4" font-family="sans-serif" font-size="14.00" fill="#000000"> &#160;Exports</text>
<g id="clust1" class="cluster">
<title>cluster_TextDevViewModule</title>
<polygon fill="none" stroke="#000000" stroke-dasharray="1,5" points="8,-70 8,-195 850,-195 850,-70 8,-70"/>
</g>
<g id="clust2" class="cluster">
<title>cluster_TextDevViewModule_declarations</title>
<polygon fill="none" stroke="#000000" points="666,-78 666,-130 842,-130 842,-78 666,-78"/>
</g>
<g id="clust4" class="cluster">
<title>cluster_TextDevViewModule_imports</title>
<polygon fill="none" stroke="#000000" points="16,-78 16,-130 658,-130 658,-78 16,-78"/>
</g>
<!-- TextDevViewComponent -->
<g id="node1" class="node">
<title>TextDevViewComponent</title>
<polygon fill="#ffffb3" stroke="#000000" points="834.1302,-122 673.8698,-122 673.8698,-86 834.1302,-86 834.1302,-122"/>
<text text-anchor="middle" x="754" y="-99.8" font-family="Times,serif" font-size="14.00" fill="#000000">TextDevViewComponent</text>
</g>
<!-- TextDevViewModule -->
<g id="node2" class="node">
<title>TextDevViewModule</title>
<polygon fill="#8dd3c7" stroke="#000000" points="453.3473,-187 450.3473,-191 429.3473,-191 426.3473,-187 314.6527,-187 314.6527,-151 453.3473,-151 453.3473,-187"/>
<text text-anchor="middle" x="384" y="-164.8" font-family="Times,serif" font-size="14.00" fill="#000000">TextDevViewModule</text>
</g>
<!-- TextDevViewComponent&#45;&gt;TextDevViewModule -->
<g id="edge1" class="edge">
<title>TextDevViewComponent&#45;&gt;TextDevViewModule</title>
<path fill="none" stroke="#000000" d="M754,-122.2843C754,-143.3211 754,-175 754,-175 754,-175 463.5942,-175 463.5942,-175"/>
<polygon fill="#000000" stroke="#000000" points="463.5942,-171.5001 453.5942,-175 463.5941,-178.5001 463.5942,-171.5001"/>
</g>
<!-- ComplexTextViewsModule -->
<g id="node3" class="node">
<title>ComplexTextViewsModule</title>
<polygon fill="#8dd3c7" stroke="#000000" points="650.3033,-122 647.3033,-126 626.3033,-126 623.3033,-122 477.6967,-122 477.6967,-86 650.3033,-86 650.3033,-122"/>
<text text-anchor="middle" x="564" y="-99.8" font-family="Times,serif" font-size="14.00" fill="#000000">ComplexTextViewsModule</text>
</g>
<!-- ComplexTextViewsModule&#45;&gt;TextDevViewModule -->
<g id="edge2" class="edge">
<title>ComplexTextViewsModule&#45;&gt;TextDevViewModule</title>
<path fill="none" stroke="#000000" d="M564,-122.0225C564,-139.3734 564,-163 564,-163 564,-163 463.5927,-163 463.5927,-163"/>
<polygon fill="#000000" stroke="#000000" points="463.5927,-159.5001 453.5927,-163 463.5927,-166.5001 463.5927,-159.5001"/>
</g>
<!-- JoinedTextViewModule -->
<g id="node4" class="node">
<title>JoinedTextViewModule</title>
<polygon fill="#8dd3c7" stroke="#000000" points="460.0758,-122 457.0758,-126 436.0758,-126 433.0758,-122 307.9242,-122 307.9242,-86 460.0758,-86 460.0758,-122"/>
<text text-anchor="middle" x="384" y="-99.8" font-family="Times,serif" font-size="14.00" fill="#000000">JoinedTextViewModule</text>
</g>
<!-- JoinedTextViewModule&#45;&gt;TextDevViewModule -->
<g id="edge3" class="edge">
<title>JoinedTextViewModule&#45;&gt;TextDevViewModule</title>
<path fill="none" stroke="#000000" d="M384,-122.1061C384,-122.1061 384,-140.991 384,-140.991"/>
<polygon fill="#000000" stroke="#000000" points="380.5001,-140.9909 384,-150.991 387.5001,-140.991 380.5001,-140.9909"/>
</g>
<!-- RichTextModule -->
<g id="node5" class="node">
<title>RichTextModule</title>
<polygon fill="#8dd3c7" stroke="#000000" points="289.6499,-122 286.6499,-126 265.6499,-126 262.6499,-122 178.3501,-122 178.3501,-86 289.6499,-86 289.6499,-122"/>
<text text-anchor="middle" x="234" y="-99.8" font-family="Times,serif" font-size="14.00" fill="#000000">RichTextModule</text>
</g>
<!-- RichTextModule&#45;&gt;TextDevViewModule -->
<g id="edge4" class="edge">
<title>RichTextModule&#45;&gt;TextDevViewModule</title>
<path fill="none" stroke="#000000" d="M234,-122.0225C234,-139.3734 234,-163 234,-163 234,-163 304.2696,-163 304.2696,-163"/>
<polygon fill="#000000" stroke="#000000" points="304.2696,-166.5001 314.2696,-163 304.2695,-159.5001 304.2696,-166.5001"/>
</g>
<!-- TextStructureModule -->
<g id="node6" class="node">
<title>TextStructureModule</title>
<polygon fill="#8dd3c7" stroke="#000000" points="160.0226,-122 157.0226,-126 136.0226,-126 133.0226,-122 23.9774,-122 23.9774,-86 160.0226,-86 160.0226,-122"/>
<text text-anchor="middle" x="92" y="-99.8" font-family="Times,serif" font-size="14.00" fill="#000000">TextStructureModule</text>
</g>
<!-- TextStructureModule&#45;&gt;TextDevViewModule -->
<g id="edge5" class="edge">
<title>TextStructureModule&#45;&gt;TextDevViewModule</title>
<path fill="none" stroke="#000000" d="M92,-122.2843C92,-143.3211 92,-175 92,-175 92,-175 304.4297,-175 304.4297,-175"/>
<polygon fill="#000000" stroke="#000000" points="304.4297,-178.5001 314.4297,-175 304.4297,-171.5001 304.4297,-178.5001"/>
</g>
</g>
</svg>
