<?xml version="1.0" encoding="UTF-8" standalone="no"?>
<!DOCTYPE svg PUBLIC "-//W3C//DTD SVG 1.1//EN"
 "http://www.w3.org/Graphics/SVG/1.1/DTD/svg11.dtd">
<!-- Generated by graphviz version 2.40.1 (20161225.0304)
 -->
<!-- Title: dependencies Pages: 1 -->
<svg width="1457pt" height="284pt"
 viewBox="0.00 0.00 1457.00 284.00" xmlns="http://www.w3.org/2000/svg" xmlns:xlink="http://www.w3.org/1999/xlink">
<g id="graph0" class="graph" transform="scale(1 1) rotate(0) translate(4 280)">
<title>dependencies</title>
<polygon fill="#ffffff" stroke="transparent" points="-4,4 -4,-280 1453,-280 1453,4 -4,4"/>
<text text-anchor="start" x="703.5091" y="-42.4" font-family="sans-serif" font-weight="bold" font-size="14.00" fill="#000000">Legend</text>
<polygon fill="#ffffb3" stroke="transparent" points="490.5,-10 490.5,-30 510.5,-30 510.5,-10 490.5,-10"/>
<text text-anchor="start" x="514.129" y="-15.4" font-family="sans-serif" font-size="14.00" fill="#000000"> &#160;Declarations</text>
<polygon fill="#8dd3c7" stroke="transparent" points="603.5,-10 603.5,-30 623.5,-30 623.5,-10 603.5,-10"/>
<text text-anchor="start" x="627.2251" y="-15.4" font-family="sans-serif" font-size="14.00" fill="#000000"> &#160;Module</text>
<polygon fill="#80b1d3" stroke="transparent" points="689.5,-10 689.5,-30 709.5,-30 709.5,-10 689.5,-10"/>
<text text-anchor="start" x="713.2812" y="-15.4" font-family="sans-serif" font-size="14.00" fill="#000000"> &#160;Bootstrap</text>
<polygon fill="#fdb462" stroke="transparent" points="786.5,-10 786.5,-30 806.5,-30 806.5,-10 786.5,-10"/>
<text text-anchor="start" x="810.1732" y="-15.4" font-family="sans-serif" font-size="14.00" fill="#000000"> &#160;Providers</text>
<polygon fill="#fb8072" stroke="transparent" points="882.5,-10 882.5,-30 902.5,-30 902.5,-10 882.5,-10"/>
<text text-anchor="start" x="906.2258" y="-15.4" font-family="sans-serif" font-size="14.00" fill="#000000"> &#160;Exports</text>
<g id="clust1" class="cluster">
<title>cluster_BaseTypeFormsModule</title>
<polygon fill="none" stroke="#000000" stroke-dasharray="1,5" points="8,-70 8,-268 1441,-268 1441,-70 8,-70"/>
</g>
<g id="clust2" class="cluster">
<title>cluster_BaseTypeFormsModule_declarations</title>
<polygon fill="none" stroke="#000000" points="27,-78 27,-130 1420,-130 1420,-78 27,-78"/>
</g>
<g id="clust11" class="cluster">
<title>cluster_BaseTypeFormsModule_exports</title>
<polygon fill="none" stroke="#000000" points="16,-208 16,-260 1433,-260 1433,-208 16,-208"/>
</g>
<!-- BooleanValueEditorComponent -->
<g id="node1" class="node">
<title>BooleanValueEditorComponent</title>
<polygon fill="#ffffb3" stroke="#000000" points="1412.41,-122 1215.59,-122 1215.59,-86 1412.41,-86 1412.41,-122"/>
<text text-anchor="middle" x="1314" y="-99.8" font-family="Times,serif" font-size="14.00" fill="#000000">BooleanValueEditorComponent</text>
</g>
<!-- BaseTypeFormsModule -->
<g id="node8" class="node">
<title>BaseTypeFormsModule</title>
<polygon fill="#8dd3c7" stroke="#000000" points="780.8061,-187 777.8061,-191 756.8061,-191 753.8061,-187 629.1939,-187 629.1939,-151 780.8061,-151 780.8061,-187"/>
<text text-anchor="middle" x="705" y="-164.8" font-family="Times,serif" font-size="14.00" fill="#000000">BaseTypeFormsModule</text>
</g>
<!-- BooleanValueEditorComponent&#45;&gt;BaseTypeFormsModule -->
<g id="edge1" class="edge">
<title>BooleanValueEditorComponent&#45;&gt;BaseTypeFormsModule</title>
<path fill="none" stroke="#000000" d="M1220.4202,-122.2222C1220.4202,-140.8285 1220.4202,-167 1220.4202,-167 1220.4202,-167 790.7751,-167 790.7751,-167"/>
<polygon fill="#000000" stroke="#000000" points="790.7751,-163.5001 780.7751,-167 790.775,-170.5001 790.7751,-163.5001"/>
</g>
<!-- DateValueEditorComponent -->
<g id="node2" class="node">
<title>DateValueEditorComponent</title>
<polygon fill="#ffffb3" stroke="#000000" points="1198.1797,-122 1021.8203,-122 1021.8203,-86 1198.1797,-86 1198.1797,-122"/>
<text text-anchor="middle" x="1110" y="-99.8" font-family="Times,serif" font-size="14.00" fill="#000000">DateValueEditorComponent</text>
</g>
<!-- DateValueEditorComponent&#45;&gt;BaseTypeFormsModule -->
<g id="edge2" class="edge">
<title>DateValueEditorComponent&#45;&gt;BaseTypeFormsModule</title>
<path fill="none" stroke="#000000" d="M1141.1133,-122.0336C1141.1133,-139.0597 1141.1133,-162 1141.1133,-162 1141.1133,-162 790.9651,-162 790.9651,-162"/>
<polygon fill="#000000" stroke="#000000" points="790.9652,-158.5001 780.9651,-162 790.9651,-165.5001 790.9652,-158.5001"/>
</g>
<!-- DateValueViewerComponent -->
<g id="node3" class="node">
<title>DateValueViewerComponent</title>
<polygon fill="#ffffb3" stroke="#000000" points="1004.3792,-122 821.6208,-122 821.6208,-86 1004.3792,-86 1004.3792,-122"/>
<text text-anchor="middle" x="913" y="-99.8" font-family="Times,serif" font-size="14.00" fill="#000000">DateValueViewerComponent</text>
</g>
<!-- DateValueViewerComponent&#45;&gt;BaseTypeFormsModule -->
<g id="edge3" class="edge">
<title>DateValueViewerComponent&#45;&gt;BaseTypeFormsModule</title>
<path fill="none" stroke="#000000" d="M943.8131,-122.2396C943.8131,-137.5706 943.8131,-157 943.8131,-157 943.8131,-157 790.8901,-157 790.8901,-157"/>
<polygon fill="#000000" stroke="#000000" points="790.8901,-153.5001 780.8901,-157 790.8901,-160.5001 790.8901,-153.5001"/>
</g>
<!-- DecimalValueEditorComponent -->
<g id="node4" class="node">
<title>DecimalValueEditorComponent</title>
<polygon fill="#ffffb3" stroke="#000000" points="803.6755,-122 606.3245,-122 606.3245,-86 803.6755,-86 803.6755,-122"/>
<text text-anchor="middle" x="705" y="-99.8" font-family="Times,serif" font-size="14.00" fill="#000000">DecimalValueEditorComponent</text>
</g>
<!-- DecimalValueEditorComponent&#45;&gt;BaseTypeFormsModule -->
<g id="edge4" class="edge">
<title>DecimalValueEditorComponent&#45;&gt;BaseTypeFormsModule</title>
<path fill="none" stroke="#000000" d="M705,-122.1061C705,-122.1061 705,-140.991 705,-140.991"/>
<polygon fill="#000000" stroke="#000000" points="701.5001,-140.9909 705,-150.991 708.5001,-140.991 701.5001,-140.9909"/>
</g>
<!-- IntValueEditorComponent -->
<g id="node5" class="node">
<title>IntValueEditorComponent</title>
<polygon fill="#ffffb3" stroke="#000000" points="588.8047,-122 423.1953,-122 423.1953,-86 588.8047,-86 588.8047,-122"/>
<text text-anchor="middle" x="506" y="-99.8" font-family="Times,serif" font-size="14.00" fill="#000000">IntValueEditorComponent</text>
</g>
<!-- IntValueEditorComponent&#45;&gt;BaseTypeFormsModule -->
<g id="edge5" class="edge">
<title>IntValueEditorComponent&#45;&gt;BaseTypeFormsModule</title>
<path fill="none" stroke="#000000" d="M532.0507,-122.2396C532.0507,-137.5706 532.0507,-157 532.0507,-157 532.0507,-157 619.1419,-157 619.1419,-157"/>
<polygon fill="#000000" stroke="#000000" points="619.142,-160.5001 629.1419,-157 619.1419,-153.5001 619.142,-160.5001"/>
</g>
<!-- LinkValueEditorComponent -->
<g id="node6" class="node">
<title>LinkValueEditorComponent</title>
<polygon fill="#ffffb3" stroke="#000000" points="405.1965,-122 228.8035,-122 228.8035,-86 405.1965,-86 405.1965,-122"/>
<text text-anchor="middle" x="317" y="-99.8" font-family="Times,serif" font-size="14.00" fill="#000000">LinkValueEditorComponent</text>
</g>
<!-- LinkValueEditorComponent&#45;&gt;BaseTypeFormsModule -->
<g id="edge6" class="edge">
<title>LinkValueEditorComponent&#45;&gt;BaseTypeFormsModule</title>
<path fill="none" stroke="#000000" d="M342.8661,-122.0336C342.8661,-139.0597 342.8661,-162 342.8661,-162 342.8661,-162 619.0849,-162 619.0849,-162"/>
<polygon fill="#000000" stroke="#000000" points="619.0849,-165.5001 629.0849,-162 619.0848,-158.5001 619.0849,-165.5001"/>
</g>
<!-- TextValueEditorComponent -->
<g id="node7" class="node">
<title>TextValueEditorComponent</title>
<polygon fill="#ffffb3" stroke="#000000" points="210.9115,-122 35.0885,-122 35.0885,-86 210.9115,-86 210.9115,-122"/>
<text text-anchor="middle" x="123" y="-99.8" font-family="Times,serif" font-size="14.00" fill="#000000">TextValueEditorComponent</text>
</g>
<!-- TextValueEditorComponent&#45;&gt;BaseTypeFormsModule -->
<g id="edge7" class="edge">
<title>TextValueEditorComponent&#45;&gt;BaseTypeFormsModule</title>
<path fill="none" stroke="#000000" d="M206.5805,-122.2222C206.5805,-140.8285 206.5805,-167 206.5805,-167 206.5805,-167 619.3008,-167 619.3008,-167"/>
<polygon fill="#000000" stroke="#000000" points="619.3008,-170.5001 629.3008,-167 619.3008,-163.5001 619.3008,-170.5001"/>
</g>
<!-- BooleanValueEditorComponent  -->
<g id="node9" class="node">
<title>BooleanValueEditorComponent </title>
<polygon fill="#fb8072" stroke="#000000" points="1424.9096,-252 1225.0904,-252 1225.0904,-216 1424.9096,-216 1424.9096,-252"/>
<text text-anchor="middle" x="1325" y="-229.8" font-family="Times,serif" font-size="14.00" fill="#000000">BooleanValueEditorComponent </text>
</g>
<!-- BaseTypeFormsModule&#45;&gt;BooleanValueEditorComponent  -->
<g id="edge8" class="edge">
<title>BaseTypeFormsModule&#45;&gt;BooleanValueEditorComponent </title>
<path fill="none" stroke="#000000" stroke-dasharray="5,2" d="M780.8579,-172C945.0338,-172 1318.625,-172 1318.625,-172 1318.625,-172 1318.625,-205.7333 1318.625,-205.7333"/>
<polygon fill="#000000" stroke="#000000" points="1315.1251,-205.7333 1318.625,-215.7333 1322.1251,-205.7333 1315.1251,-205.7333"/>
</g>
<!-- DateValueEditorComponent  -->
<g id="node10" class="node">
<title>DateValueEditorComponent </title>
<polygon fill="#fb8072" stroke="#000000" points="1206.6799,-252 1027.3201,-252 1027.3201,-216 1206.6799,-216 1206.6799,-252"/>
<text text-anchor="middle" x="1117" y="-229.8" font-family="Times,serif" font-size="14.00" fill="#000000">DateValueEditorComponent </text>
</g>
<!-- BaseTypeFormsModule&#45;&gt;DateValueEditorComponent  -->
<g id="edge9" class="edge">
<title>BaseTypeFormsModule&#45;&gt;DateValueEditorComponent </title>
<path fill="none" stroke="#000000" stroke-dasharray="5,2" d="M780.8127,-177C891.4545,-177 1084.1367,-177 1084.1367,-177 1084.1367,-177 1084.1367,-205.9648 1084.1367,-205.9648"/>
<polygon fill="#000000" stroke="#000000" points="1080.6368,-205.9648 1084.1367,-215.9648 1087.6368,-205.9649 1080.6368,-205.9648"/>
</g>
<!-- DateValueViewerComponent  -->
<g id="node11" class="node">
<title>DateValueViewerComponent </title>
<polygon fill="#fb8072" stroke="#000000" points="1008.8788,-252 823.1212,-252 823.1212,-216 1008.8788,-216 1008.8788,-252"/>
<text text-anchor="middle" x="916" y="-229.8" font-family="Times,serif" font-size="14.00" fill="#000000">DateValueViewerComponent </text>
</g>
<!-- BaseTypeFormsModule&#45;&gt;DateValueViewerComponent  -->
<g id="edge10" class="edge">
<title>BaseTypeFormsModule&#45;&gt;DateValueViewerComponent </title>
<path fill="none" stroke="#000000" stroke-dasharray="5,2" d="M780.6733,-182C829.3063,-182 883.4369,-182 883.4369,-182 883.4369,-182 883.4369,-205.8129 883.4369,-205.8129"/>
<polygon fill="#000000" stroke="#000000" points="879.937,-205.8129 883.4369,-215.8129 886.937,-205.813 879.937,-205.8129"/>
</g>
<!-- DecimalValueEditorComponent  -->
<g id="node12" class="node">
<title>DecimalValueEditorComponent </title>
<polygon fill="#fb8072" stroke="#000000" points="805.1757,-252 604.8243,-252 604.8243,-216 805.1757,-216 805.1757,-252"/>
<text text-anchor="middle" x="705" y="-229.8" font-family="Times,serif" font-size="14.00" fill="#000000">DecimalValueEditorComponent </text>
</g>
<!-- BaseTypeFormsModule&#45;&gt;DecimalValueEditorComponent  -->
<g id="edge11" class="edge">
<title>BaseTypeFormsModule&#45;&gt;DecimalValueEditorComponent </title>
<path fill="none" stroke="#000000" stroke-dasharray="5,2" d="M705,-187.1061C705,-187.1061 705,-205.991 705,-205.991"/>
<polygon fill="#000000" stroke="#000000" points="701.5001,-205.9909 705,-215.991 708.5001,-205.991 701.5001,-205.9909"/>
</g>
<!-- IntValueEditorComponent  -->
<g id="node13" class="node">
<title>IntValueEditorComponent </title>
<polygon fill="#fb8072" stroke="#000000" points="586.3045,-252 417.6955,-252 417.6955,-216 586.3045,-216 586.3045,-252"/>
<text text-anchor="middle" x="502" y="-229.8" font-family="Times,serif" font-size="14.00" fill="#000000">IntValueEditorComponent </text>
</g>
<!-- BaseTypeFormsModule&#45;&gt;IntValueEditorComponent  -->
<g id="edge12" class="edge">
<title>BaseTypeFormsModule&#45;&gt;IntValueEditorComponent </title>
<path fill="none" stroke="#000000" stroke-dasharray="5,2" d="M629.3121,-182C563.1902,-182 477.6993,-182 477.6993,-182 477.6993,-182 477.6993,-205.8129 477.6993,-205.8129"/>
<polygon fill="#000000" stroke="#000000" points="474.1994,-205.8129 477.6993,-215.8129 481.1994,-205.813 474.1994,-205.8129"/>
</g>
<!-- LinkValueEditorComponent  -->
<g id="node14" class="node">
<title>LinkValueEditorComponent </title>
<polygon fill="#fb8072" stroke="#000000" points="399.6967,-252 220.3033,-252 220.3033,-216 399.6967,-216 399.6967,-252"/>
<text text-anchor="middle" x="310" y="-229.8" font-family="Times,serif" font-size="14.00" fill="#000000">LinkValueEditorComponent </text>
</g>
<!-- BaseTypeFormsModule&#45;&gt;LinkValueEditorComponent  -->
<g id="edge13" class="edge">
<title>BaseTypeFormsModule&#45;&gt;LinkValueEditorComponent </title>
<path fill="none" stroke="#000000" stroke-dasharray="5,2" d="M629.1012,-177C508.3235,-177 285.8839,-177 285.8839,-177 285.8839,-177 285.8839,-205.9648 285.8839,-205.9648"/>
<polygon fill="#000000" stroke="#000000" points="282.384,-205.9648 285.8839,-215.9648 289.384,-205.9649 282.384,-205.9648"/>
</g>
<!-- TextValueEditorComponent  -->
<g id="node15" class="node">
<title>TextValueEditorComponent </title>
<polygon fill="#fb8072" stroke="#000000" points="202.411,-252 23.589,-252 23.589,-216 202.411,-216 202.411,-252"/>
<text text-anchor="middle" x="113" y="-229.8" font-family="Times,serif" font-size="14.00" fill="#000000">TextValueEditorComponent </text>
</g>
<!-- BaseTypeFormsModule&#45;&gt;TextValueEditorComponent  -->
<g id="edge14" class="edge">
<title>BaseTypeFormsModule&#45;&gt;TextValueEditorComponent </title>
<path fill="none" stroke="#000000" stroke-dasharray="5,2" d="M629.275,-172C470.8276,-172 118.875,-172 118.875,-172 118.875,-172 118.875,-205.7333 118.875,-205.7333"/>
<polygon fill="#000000" stroke="#000000" points="115.3751,-205.7333 118.875,-215.7333 122.3751,-205.7333 115.3751,-205.7333"/>
</g>
</g>
</svg>
