<?xml version="1.0" encoding="UTF-8" standalone="no"?>
<!DOCTYPE svg PUBLIC "-//W3C//DTD SVG 1.1//EN"
 "http://www.w3.org/Graphics/SVG/1.1/DTD/svg11.dtd">
<!-- Generated by graphviz version 2.40.1 (20161225.0304)
 -->
<!-- Title: dependencies Pages: 1 -->
<svg width="1144pt" height="284pt"
 viewBox="0.00 0.00 1144.00 284.00" xmlns="http://www.w3.org/2000/svg" xmlns:xlink="http://www.w3.org/1999/xlink">
<g id="graph0" class="graph" transform="scale(1 1) rotate(0) translate(4 280)">
<title>dependencies</title>
<polygon fill="#ffffff" stroke="transparent" points="-4,4 -4,-280 1140,-280 1140,4 -4,4"/>
<text text-anchor="start" x="547.0091" y="-42.4" font-family="sans-serif" font-weight="bold" font-size="14.00" fill="#000000">Legend</text>
<polygon fill="#ffffb3" stroke="transparent" points="334,-10 334,-30 354,-30 354,-10 334,-10"/>
<text text-anchor="start" x="357.629" y="-15.4" font-family="sans-serif" font-size="14.00" fill="#000000"> &#160;Declarations</text>
<polygon fill="#8dd3c7" stroke="transparent" points="447,-10 447,-30 467,-30 467,-10 447,-10"/>
<text text-anchor="start" x="470.7251" y="-15.4" font-family="sans-serif" font-size="14.00" fill="#000000"> &#160;Module</text>
<polygon fill="#80b1d3" stroke="transparent" points="533,-10 533,-30 553,-30 553,-10 533,-10"/>
<text text-anchor="start" x="556.7812" y="-15.4" font-family="sans-serif" font-size="14.00" fill="#000000"> &#160;Bootstrap</text>
<polygon fill="#fdb462" stroke="transparent" points="630,-10 630,-30 650,-30 650,-10 630,-10"/>
<text text-anchor="start" x="653.6732" y="-15.4" font-family="sans-serif" font-size="14.00" fill="#000000"> &#160;Providers</text>
<polygon fill="#fb8072" stroke="transparent" points="726,-10 726,-30 746,-30 746,-10 726,-10"/>
<text text-anchor="start" x="749.7258" y="-15.4" font-family="sans-serif" font-size="14.00" fill="#000000"> &#160;Exports</text>
<g id="clust1" class="cluster">
<title>cluster_ComplexTextViewsModule</title>
<polygon fill="none" stroke="#000000" stroke-dasharray="1,5" points="8,-70 8,-268 1128,-268 1128,-70 8,-70"/>
</g>
<g id="clust2" class="cluster">
<title>cluster_ComplexTextViewsModule_declarations</title>
<polygon fill="none" stroke="#000000" points="306,-78 306,-130 1120,-130 1120,-78 306,-78"/>
</g>
<g id="clust7" class="cluster">
<title>cluster_ComplexTextViewsModule_imports</title>
<polygon fill="none" stroke="#000000" points="16,-78 16,-130 298,-130 298,-78 16,-78"/>
</g>
<g id="clust8" class="cluster">
<title>cluster_ComplexTextViewsModule_exports</title>
<polygon fill="none" stroke="#000000" points="106,-208 106,-260 932,-260 932,-208 106,-208"/>
</g>
<!-- InterlinearGlossingComponent -->
<g id="node1" class="node">
<title>InterlinearGlossingComponent</title>
<polygon fill="#ffffb3" stroke="#000000" points="1111.9072,-122 922.0928,-122 922.0928,-86 1111.9072,-86 1111.9072,-122"/>
<text text-anchor="middle" x="1017" y="-99.8" font-family="Times,serif" font-size="14.00" fill="#000000">InterlinearGlossingComponent</text>
</g>
<!-- ComplexTextViewsModule -->
<g id="node5" class="node">
<title>ComplexTextViewsModule</title>
<polygon fill="#8dd3c7" stroke="#000000" points="601.3033,-187 598.3033,-191 577.3033,-191 574.3033,-187 428.6967,-187 428.6967,-151 601.3033,-151 601.3033,-187"/>
<text text-anchor="middle" x="515" y="-164.8" font-family="Times,serif" font-size="14.00" fill="#000000">ComplexTextViewsModule</text>
</g>
<!-- InterlinearGlossingComponent&#45;&gt;ComplexTextViewsModule -->
<g id="edge1" class="edge">
<title>InterlinearGlossingComponent&#45;&gt;ComplexTextViewsModule</title>
<path fill="none" stroke="#000000" d="M1018.0784,-122.1061C1018.0784,-141.3391 1018.0784,-169 1018.0784,-169 1018.0784,-169 611.1963,-169 611.1963,-169"/>
<polygon fill="#000000" stroke="#000000" points="611.1963,-165.5001 601.1963,-169 611.1962,-172.5001 611.1963,-165.5001"/>
</g>
<!-- TextPageOfWordsComponent -->
<g id="node2" class="node">
<title>TextPageOfWordsComponent</title>
<polygon fill="#ffffb3" stroke="#000000" points="904.2892,-122 717.7108,-122 717.7108,-86 904.2892,-86 904.2892,-122"/>
<text text-anchor="middle" x="811" y="-99.8" font-family="Times,serif" font-size="14.00" fill="#000000">TextPageOfWordsComponent</text>
</g>
<!-- TextPageOfWordsComponent&#45;&gt;ComplexTextViewsModule -->
<g id="edge2" class="edge">
<title>TextPageOfWordsComponent&#45;&gt;ComplexTextViewsModule</title>
<path fill="none" stroke="#000000" d="M724.7011,-122.027C724.7011,-138.3976 724.7011,-160 724.7011,-160 724.7011,-160 611.2012,-160 611.2012,-160"/>
<polygon fill="#000000" stroke="#000000" points="611.2013,-156.5001 601.2012,-160 611.2012,-163.5001 611.2013,-156.5001"/>
</g>
<!-- TextSvgViewComponent -->
<g id="node3" class="node">
<title>TextSvgViewComponent</title>
<polygon fill="#ffffb3" stroke="#000000" points="699.5912,-122 540.4088,-122 540.4088,-86 699.5912,-86 699.5912,-122"/>
<text text-anchor="middle" x="620" y="-99.8" font-family="Times,serif" font-size="14.00" fill="#000000">TextSvgViewComponent</text>
</g>
<!-- TextSvgViewComponent&#45;&gt;ComplexTextViewsModule -->
<g id="edge3" class="edge">
<title>TextSvgViewComponent&#45;&gt;ComplexTextViewsModule</title>
<path fill="none" stroke="#000000" d="M570.803,-122.1061C570.803,-122.1061 570.803,-140.991 570.803,-140.991"/>
<polygon fill="#000000" stroke="#000000" points="567.303,-140.9909 570.803,-150.991 574.303,-140.991 567.303,-140.9909"/>
</g>
<!-- TextSvgViewWrapperComponent -->
<g id="node4" class="node">
<title>TextSvgViewWrapperComponent</title>
<polygon fill="#ffffb3" stroke="#000000" points="522.0562,-122 313.9438,-122 313.9438,-86 522.0562,-86 522.0562,-122"/>
<text text-anchor="middle" x="418" y="-99.8" font-family="Times,serif" font-size="14.00" fill="#000000">TextSvgViewWrapperComponent</text>
</g>
<!-- TextSvgViewWrapperComponent&#45;&gt;ComplexTextViewsModule -->
<g id="edge4" class="edge">
<title>TextSvgViewWrapperComponent&#45;&gt;ComplexTextViewsModule</title>
<path fill="none" stroke="#000000" d="M475.4383,-122.1061C475.4383,-122.1061 475.4383,-140.991 475.4383,-140.991"/>
<polygon fill="#000000" stroke="#000000" points="471.9384,-140.9909 475.4383,-150.991 478.9384,-140.991 471.9384,-140.9909"/>
</g>
<!-- InterlinearGlossingComponent  -->
<g id="node8" class="node">
<title>InterlinearGlossingComponent </title>
<polygon fill="#fb8072" stroke="#000000" points="924.4068,-252 731.5932,-252 731.5932,-216 924.4068,-216 924.4068,-252"/>
<text text-anchor="middle" x="828" y="-229.8" font-family="Times,serif" font-size="14.00" fill="#000000">InterlinearGlossingComponent </text>
</g>
<!-- ComplexTextViewsModule&#45;&gt;InterlinearGlossingComponent  -->
<g id="edge7" class="edge">
<title>ComplexTextViewsModule&#45;&gt;InterlinearGlossingComponent </title>
<path fill="none" stroke="#000000" stroke-dasharray="5,2" d="M601.3781,-178C690.891,-178 817.8456,-178 817.8456,-178 817.8456,-178 817.8456,-205.973 817.8456,-205.973"/>
<polygon fill="#000000" stroke="#000000" points="814.3456,-205.973 817.8456,-215.973 821.3456,-205.973 814.3456,-205.973"/>
</g>
<!-- TextPageOfWordsComponent  -->
<g id="node9" class="node">
<title>TextPageOfWordsComponent </title>
<polygon fill="#fb8072" stroke="#000000" points="713.7891,-252 524.2109,-252 524.2109,-216 713.7891,-216 713.7891,-252"/>
<text text-anchor="middle" x="619" y="-229.8" font-family="Times,serif" font-size="14.00" fill="#000000">TextPageOfWordsComponent </text>
</g>
<!-- ComplexTextViewsModule&#45;&gt;TextPageOfWordsComponent  -->
<g id="edge8" class="edge">
<title>ComplexTextViewsModule&#45;&gt;TextPageOfWordsComponent </title>
<path fill="none" stroke="#000000" stroke-dasharray="5,2" d="M562.6285,-187.1061C562.6285,-187.1061 562.6285,-205.991 562.6285,-205.991"/>
<polygon fill="#000000" stroke="#000000" points="559.1286,-205.9909 562.6285,-215.991 566.1286,-205.991 559.1286,-205.9909"/>
</g>
<!-- TextSvgViewComponent  -->
<g id="node10" class="node">
<title>TextSvgViewComponent </title>
<polygon fill="#fb8072" stroke="#000000" points="506.0917,-252 343.9083,-252 343.9083,-216 506.0917,-216 506.0917,-252"/>
<text text-anchor="middle" x="425" y="-229.8" font-family="Times,serif" font-size="14.00" fill="#000000">TextSvgViewComponent </text>
</g>
<!-- ComplexTextViewsModule&#45;&gt;TextSvgViewComponent  -->
<g id="edge9" class="edge">
<title>ComplexTextViewsModule&#45;&gt;TextSvgViewComponent </title>
<path fill="none" stroke="#000000" stroke-dasharray="5,2" d="M467.5721,-187.1061C467.5721,-187.1061 467.5721,-205.991 467.5721,-205.991"/>
<polygon fill="#000000" stroke="#000000" points="464.0721,-205.9909 467.5721,-215.991 471.0721,-205.991 464.0721,-205.9909"/>
</g>
<!-- TextSvgViewWrapperComponent  -->
<g id="node11" class="node">
<title>TextSvgViewWrapperComponent </title>
<polygon fill="#fb8072" stroke="#000000" points="325.5567,-252 114.4433,-252 114.4433,-216 325.5567,-216 325.5567,-252"/>
<text text-anchor="middle" x="220" y="-229.8" font-family="Times,serif" font-size="14.00" fill="#000000">TextSvgViewWrapperComponent </text>
</g>
<!-- ComplexTextViewsModule&#45;&gt;TextSvgViewWrapperComponent  -->
<g id="edge10" class="edge">
<title>ComplexTextViewsModule&#45;&gt;TextSvgViewWrapperComponent </title>
<path fill="none" stroke="#000000" stroke-dasharray="5,2" d="M428.8473,-178C376.5761,-178 319.875,-178 319.875,-178 319.875,-178 319.875,-205.973 319.875,-205.973"/>
<polygon fill="#000000" stroke="#000000" points="316.3751,-205.973 319.875,-215.973 323.3751,-205.973 316.3751,-205.973"/>
</g>
<!-- RichTextModule -->
<g id="node6" class="node">
<title>RichTextModule</title>
<polygon fill="#8dd3c7" stroke="#000000" points="289.6499,-122 286.6499,-126 265.6499,-126 262.6499,-122 178.3501,-122 178.3501,-86 289.6499,-86 289.6499,-122"/>
<text text-anchor="middle" x="234" y="-99.8" font-family="Times,serif" font-size="14.00" fill="#000000">RichTextModule</text>
</g>
<!-- RichTextModule&#45;&gt;ComplexTextViewsModule -->
<g id="edge5" class="edge">
<title>RichTextModule&#45;&gt;ComplexTextViewsModule</title>
<path fill="none" stroke="#000000" d="M234,-122.027C234,-138.3976 234,-160 234,-160 234,-160 418.7811,-160 418.7811,-160"/>
<polygon fill="#000000" stroke="#000000" points="418.7811,-163.5001 428.7811,-160 418.781,-156.5001 418.7811,-163.5001"/>
</g>
<!-- TextStructureModule -->
<g id="node7" class="node">
<title>TextStructureModule</title>
<polygon fill="#8dd3c7" stroke="#000000" points="160.0226,-122 157.0226,-126 136.0226,-126 133.0226,-122 23.9774,-122 23.9774,-86 160.0226,-86 160.0226,-122"/>
<text text-anchor="middle" x="92" y="-99.8" font-family="Times,serif" font-size="14.00" fill="#000000">TextStructureModule</text>
</g>
<!-- TextStructureModule&#45;&gt;ComplexTextViewsModule -->
<g id="edge6" class="edge">
<title>TextStructureModule&#45;&gt;ComplexTextViewsModule</title>
<path fill="none" stroke="#000000" d="M137.2414,-122.1061C137.2414,-141.3391 137.2414,-169 137.2414,-169 137.2414,-169 418.808,-169 418.808,-169"/>
<polygon fill="#000000" stroke="#000000" points="418.8081,-172.5001 428.808,-169 418.808,-165.5001 418.8081,-172.5001"/>
</g>
</g>
</svg>
