<?xml version="1.0" encoding="UTF-8" standalone="no"?>
<!DOCTYPE svg PUBLIC "-//W3C//DTD SVG 1.1//EN"
 "http://www.w3.org/Graphics/SVG/1.1/DTD/svg11.dtd">
<!-- Generated by graphviz version 2.40.1 (20161225.0304)
 -->
<!-- Title: dependencies Pages: 1 -->
<svg width="704pt" height="284pt"
 viewBox="0.00 0.00 704.00 284.00" xmlns="http://www.w3.org/2000/svg" xmlns:xlink="http://www.w3.org/1999/xlink">
<g id="graph0" class="graph" transform="scale(1 1) rotate(0) translate(4 280)">
<title>dependencies</title>
<polygon fill="#ffffff" stroke="transparent" points="-4,4 -4,-280 700,-280 700,4 -4,4"/>
<text text-anchor="start" x="327.0091" y="-42.4" font-family="sans-serif" font-weight="bold" font-size="14.00" fill="#000000">Legend</text>
<polygon fill="#ffffb3" stroke="transparent" points="114,-10 114,-30 134,-30 134,-10 114,-10"/>
<text text-anchor="start" x="137.629" y="-15.4" font-family="sans-serif" font-size="14.00" fill="#000000"> &#160;Declarations</text>
<polygon fill="#8dd3c7" stroke="transparent" points="227,-10 227,-30 247,-30 247,-10 227,-10"/>
<text text-anchor="start" x="250.7251" y="-15.4" font-family="sans-serif" font-size="14.00" fill="#000000"> &#160;Module</text>
<polygon fill="#80b1d3" stroke="transparent" points="313,-10 313,-30 333,-30 333,-10 313,-10"/>
<text text-anchor="start" x="336.7812" y="-15.4" font-family="sans-serif" font-size="14.00" fill="#000000"> &#160;Bootstrap</text>
<polygon fill="#fdb462" stroke="transparent" points="410,-10 410,-30 430,-30 430,-10 410,-10"/>
<text text-anchor="start" x="433.6732" y="-15.4" font-family="sans-serif" font-size="14.00" fill="#000000"> &#160;Providers</text>
<polygon fill="#fb8072" stroke="transparent" points="506,-10 506,-30 526,-30 526,-10 506,-10"/>
<text text-anchor="start" x="529.7258" y="-15.4" font-family="sans-serif" font-size="14.00" fill="#000000"> &#160;Exports</text>
<g id="clust1" class="cluster">
<title>cluster_ComplexTextViewsModule</title>
<polygon fill="none" stroke="#000000" stroke-dasharray="1,5" points="8,-70 8,-268 688,-268 688,-70 8,-70"/>
</g>
<g id="clust2" class="cluster">
<title>cluster_ComplexTextViewsModule_declarations</title>
<polygon fill="none" stroke="#000000" points="300,-78 300,-130 680,-130 680,-78 300,-78"/>
</g>
<g id="clust5" class="cluster">
<title>cluster_ComplexTextViewsModule_imports</title>
<polygon fill="none" stroke="#000000" points="16,-78 16,-130 292,-130 292,-78 16,-78"/>
</g>
<g id="clust6" class="cluster">
<title>cluster_ComplexTextViewsModule_exports</title>
<polygon fill="none" stroke="#000000" points="121,-208 121,-260 507,-260 507,-208 121,-208"/>
</g>
<!-- TextPageOfWordsComponent -->
<g id="node1" class="node">
<title>TextPageOfWordsComponent</title>
<polygon fill="#ffffb3" stroke="#000000" points="672.2892,-122 485.7108,-122 485.7108,-86 672.2892,-86 672.2892,-122"/>
<text text-anchor="middle" x="579" y="-99.8" font-family="Times,serif" font-size="14.00" fill="#000000">TextPageOfWordsComponent</text>
</g>
<!-- ComplexTextViewsModule -->
<g id="node3" class="node">
<title>ComplexTextViewsModule</title>
<polygon fill="#8dd3c7" stroke="#000000" points="393.3033,-187 390.3033,-191 369.3033,-191 366.3033,-187 220.6967,-187 220.6967,-151 393.3033,-151 393.3033,-187"/>
<text text-anchor="middle" x="307" y="-164.8" font-family="Times,serif" font-size="14.00" fill="#000000">ComplexTextViewsModule</text>
</g>
<!-- TextPageOfWordsComponent&#45;&gt;ComplexTextViewsModule -->
<g id="edge1" class="edge">
<title>TextPageOfWordsComponent&#45;&gt;ComplexTextViewsModule</title>
<path fill="none" stroke="#000000" d="M492.375,-122.1061C492.375,-141.3391 492.375,-169 492.375,-169 492.375,-169 403.1752,-169 403.1752,-169"/>
<polygon fill="#000000" stroke="#000000" points="403.1752,-165.5001 393.1752,-169 403.1751,-172.5001 403.1752,-165.5001"/>
</g>
<!-- TextSvgViewComponent -->
<g id="node2" class="node">
<title>TextSvgViewComponent</title>
<polygon fill="#ffffb3" stroke="#000000" points="467.5912,-122 308.4088,-122 308.4088,-86 467.5912,-86 467.5912,-122"/>
<text text-anchor="middle" x="388" y="-99.8" font-family="Times,serif" font-size="14.00" fill="#000000">TextSvgViewComponent</text>
</g>
<!-- TextSvgViewComponent&#45;&gt;ComplexTextViewsModule -->
<g id="edge2" class="edge">
<title>TextSvgViewComponent&#45;&gt;ComplexTextViewsModule</title>
<path fill="none" stroke="#000000" d="M350.803,-122.1061C350.803,-122.1061 350.803,-140.991 350.803,-140.991"/>
<polygon fill="#000000" stroke="#000000" points="347.303,-140.9909 350.803,-150.991 354.303,-140.991 347.303,-140.9909"/>
</g>
<!-- TextPageOfWordsComponent  -->
<g id="node6" class="node">
<title>TextPageOfWordsComponent </title>
<polygon fill="#fb8072" stroke="#000000" points="498.7891,-252 309.2109,-252 309.2109,-216 498.7891,-216 498.7891,-252"/>
<text text-anchor="middle" x="404" y="-229.8" font-family="Times,serif" font-size="14.00" fill="#000000">TextPageOfWordsComponent </text>
</g>
<!-- ComplexTextViewsModule&#45;&gt;TextPageOfWordsComponent  -->
<g id="edge5" class="edge">
<title>ComplexTextViewsModule&#45;&gt;TextPageOfWordsComponent </title>
<path fill="none" stroke="#000000" stroke-dasharray="5,2" d="M351.1285,-187.1061C351.1285,-187.1061 351.1285,-205.991 351.1285,-205.991"/>
<polygon fill="#000000" stroke="#000000" points="347.6286,-205.9909 351.1285,-215.991 354.6286,-205.991 347.6286,-205.9909"/>
</g>
<!-- TextSvgViewComponent  -->
<g id="node7" class="node">
<title>TextSvgViewComponent </title>
<polygon fill="#fb8072" stroke="#000000" points="291.0917,-252 128.9083,-252 128.9083,-216 291.0917,-216 291.0917,-252"/>
<text text-anchor="middle" x="210" y="-229.8" font-family="Times,serif" font-size="14.00" fill="#000000">TextSvgViewComponent </text>
</g>
<!-- ComplexTextViewsModule&#45;&gt;TextSvgViewComponent  -->
<g id="edge6" class="edge">
<title>ComplexTextViewsModule&#45;&gt;TextSvgViewComponent </title>
<path fill="none" stroke="#000000" stroke-dasharray="5,2" d="M256.0721,-187.1061C256.0721,-187.1061 256.0721,-205.991 256.0721,-205.991"/>
<polygon fill="#000000" stroke="#000000" points="252.5721,-205.9909 256.0721,-215.991 259.5721,-205.991 252.5721,-205.9909"/>
</g>
<!-- SpaTextModule -->
<g id="node4" class="node">
<title>SpaTextModule</title>
<polygon fill="#8dd3c7" stroke="#000000" points="284.205,-122 281.205,-126 260.205,-126 257.205,-122 177.795,-122 177.795,-86 284.205,-86 284.205,-122"/>
<text text-anchor="middle" x="231" y="-99.8" font-family="Times,serif" font-size="14.00" fill="#000000">SpaTextModule</text>
</g>
<!-- SpaTextModule&#45;&gt;ComplexTextViewsModule -->
<g id="edge3" class="edge">
<title>SpaTextModule&#45;&gt;ComplexTextViewsModule</title>
<path fill="none" stroke="#000000" d="M252.4755,-122.1061C252.4755,-122.1061 252.4755,-140.991 252.4755,-140.991"/>
<polygon fill="#000000" stroke="#000000" points="248.9755,-140.9909 252.4755,-150.991 255.9755,-140.991 248.9755,-140.9909"/>
</g>
<!-- TextStructureModule -->
<g id="node5" class="node">
<title>TextStructureModule</title>
<polygon fill="#8dd3c7" stroke="#000000" points="160.0226,-122 157.0226,-126 136.0226,-126 133.0226,-122 23.9774,-122 23.9774,-86 160.0226,-86 160.0226,-122"/>
<text text-anchor="middle" x="92" y="-99.8" font-family="Times,serif" font-size="14.00" fill="#000000">TextStructureModule</text>
</g>
<!-- TextStructureModule&#45;&gt;ComplexTextViewsModule -->
<g id="edge4" class="edge">
<title>TextStructureModule&#45;&gt;ComplexTextViewsModule</title>
<path fill="none" stroke="#000000" d="M144.4827,-122.1061C144.4827,-141.3391 144.4827,-169 144.4827,-169 144.4827,-169 210.5072,-169 210.5072,-169"/>
<polygon fill="#000000" stroke="#000000" points="210.5072,-172.5001 220.5072,-169 210.5071,-165.5001 210.5072,-172.5001"/>
</g>
</g>
</svg>
