<?xml version="1.0" encoding="UTF-8" standalone="no"?>
<!DOCTYPE svg PUBLIC "-//W3C//DTD SVG 1.1//EN"
 "http://www.w3.org/Graphics/SVG/1.1/DTD/svg11.dtd">
<!-- Generated by graphviz version 2.40.1 (20161225.0304)
 -->
<!-- Title: dependencies Pages: 1 -->
<svg width="1985pt" height="284pt"
 viewBox="0.00 0.00 1985.00 284.00" xmlns="http://www.w3.org/2000/svg" xmlns:xlink="http://www.w3.org/1999/xlink">
<g id="graph0" class="graph" transform="scale(1 1) rotate(0) translate(4 280)">
<title>dependencies</title>
<polygon fill="#ffffff" stroke="transparent" points="-4,4 -4,-280 1981,-280 1981,4 -4,4"/>
<text text-anchor="start" x="967.5091" y="-42.4" font-family="sans-serif" font-weight="bold" font-size="14.00" fill="#000000">Legend</text>
<polygon fill="#ffffb3" stroke="transparent" points="754.5,-10 754.5,-30 774.5,-30 774.5,-10 754.5,-10"/>
<text text-anchor="start" x="778.129" y="-15.4" font-family="sans-serif" font-size="14.00" fill="#000000"> &#160;Declarations</text>
<polygon fill="#8dd3c7" stroke="transparent" points="867.5,-10 867.5,-30 887.5,-30 887.5,-10 867.5,-10"/>
<text text-anchor="start" x="891.2251" y="-15.4" font-family="sans-serif" font-size="14.00" fill="#000000"> &#160;Module</text>
<polygon fill="#80b1d3" stroke="transparent" points="953.5,-10 953.5,-30 973.5,-30 973.5,-10 953.5,-10"/>
<text text-anchor="start" x="977.2812" y="-15.4" font-family="sans-serif" font-size="14.00" fill="#000000"> &#160;Bootstrap</text>
<polygon fill="#fdb462" stroke="transparent" points="1050.5,-10 1050.5,-30 1070.5,-30 1070.5,-10 1050.5,-10"/>
<text text-anchor="start" x="1074.1732" y="-15.4" font-family="sans-serif" font-size="14.00" fill="#000000"> &#160;Providers</text>
<polygon fill="#fb8072" stroke="transparent" points="1146.5,-10 1146.5,-30 1166.5,-30 1166.5,-10 1146.5,-10"/>
<text text-anchor="start" x="1170.2258" y="-15.4" font-family="sans-serif" font-size="14.00" fill="#000000"> &#160;Exports</text>
<g id="clust1" class="cluster">
<title>cluster_D3jsModule</title>
<polygon fill="none" stroke="#000000" stroke-dasharray="1,5" points="8,-70 8,-268 1969,-268 1969,-70 8,-70"/>
</g>
<g id="clust2" class="cluster">
<title>cluster_D3jsModule_declarations</title>
<polygon fill="none" stroke="#000000" points="36,-78 36,-130 1942,-130 1942,-78 36,-78"/>
</g>
<g id="clust15" class="cluster">
<title>cluster_D3jsModule_exports</title>
<polygon fill="none" stroke="#000000" points="16,-208 16,-260 1961,-260 1961,-208 16,-208"/>
</g>
<!-- BarChartComponent -->
<g id="node1" class="node">
<title>BarChartComponent</title>
<polygon fill="#ffffb3" stroke="#000000" points="1934.1471,-122 1801.8529,-122 1801.8529,-86 1934.1471,-86 1934.1471,-122"/>
<text text-anchor="middle" x="1868" y="-99.8" font-family="Times,serif" font-size="14.00" fill="#000000">BarChartComponent</text>
</g>
<!-- D3jsModule -->
<g id="node12" class="node">
<title>D3jsModule</title>
<polygon fill="#8dd3c7" stroke="#000000" points="1022.9916,-187 1019.9916,-191 998.9916,-191 995.9916,-187 937.0084,-187 937.0084,-151 1022.9916,-151 1022.9916,-187"/>
<text text-anchor="middle" x="980" y="-164.8" font-family="Times,serif" font-size="14.00" fill="#000000">D3jsModule</text>
</g>
<!-- BarChartComponent&#45;&gt;D3jsModule -->
<g id="edge1" class="edge">
<title>BarChartComponent&#45;&gt;D3jsModule</title>
<path fill="none" stroke="#000000" d="M1809.3017,-122.1686C1809.3017,-141.0898 1809.3017,-168 1809.3017,-168 1809.3017,-168 1033.1295,-168 1033.1295,-168"/>
<polygon fill="#000000" stroke="#000000" points="1033.1295,-164.5001 1023.1295,-168 1033.1294,-171.5001 1033.1295,-164.5001"/>
</g>
<!-- BrushAndZoomComponent -->
<g id="node2" class="node">
<title>BrushAndZoomComponent</title>
<polygon fill="#ffffb3" stroke="#000000" points="1784.3243,-122 1611.6757,-122 1611.6757,-86 1784.3243,-86 1784.3243,-122"/>
<text text-anchor="middle" x="1698" y="-99.8" font-family="Times,serif" font-size="14.00" fill="#000000">BrushAndZoomComponent</text>
</g>
<!-- BrushAndZoomComponent&#45;&gt;D3jsModule -->
<g id="edge2" class="edge">
<title>BrushAndZoomComponent&#45;&gt;D3jsModule</title>
<path fill="none" stroke="#000000" d="M1617.463,-122.302C1617.463,-140.2699 1617.463,-165 1617.463,-165 1617.463,-165 1033.3143,-165 1033.3143,-165"/>
<polygon fill="#000000" stroke="#000000" points="1033.3143,-161.5001 1023.3143,-165 1033.3142,-168.5001 1033.3143,-161.5001"/>
</g>
<!-- ChordDiagramComponent -->
<g id="node3" class="node">
<title>ChordDiagramComponent</title>
<polygon fill="#ffffb3" stroke="#000000" points="1593.8075,-122 1428.1925,-122 1428.1925,-86 1593.8075,-86 1593.8075,-122"/>
<text text-anchor="middle" x="1511" y="-99.8" font-family="Times,serif" font-size="14.00" fill="#000000">ChordDiagramComponent</text>
</g>
<!-- ChordDiagramComponent&#45;&gt;D3jsModule -->
<g id="edge3" class="edge">
<title>ChordDiagramComponent&#45;&gt;D3jsModule</title>
<path fill="none" stroke="#000000" d="M1432.4714,-122.0352C1432.4714,-138.7344 1432.4714,-161 1432.4714,-161 1432.4714,-161 1033.3849,-161 1033.3849,-161"/>
<polygon fill="#000000" stroke="#000000" points="1033.3849,-157.5001 1023.3849,-161 1033.3848,-164.5001 1033.3849,-157.5001"/>
</g>
<!-- D3tutorialComponent -->
<g id="node4" class="node">
<title>D3tutorialComponent</title>
<polygon fill="#ffffb3" stroke="#000000" points="1410.3767,-122 1271.6233,-122 1271.6233,-86 1410.3767,-86 1410.3767,-122"/>
<text text-anchor="middle" x="1341" y="-99.8" font-family="Times,serif" font-size="14.00" fill="#000000">D3tutorialComponent</text>
</g>
<!-- D3tutorialComponent&#45;&gt;D3jsModule -->
<g id="edge4" class="edge">
<title>D3tutorialComponent&#45;&gt;D3jsModule</title>
<path fill="none" stroke="#000000" d="M1365.5628,-122.2819C1365.5628,-137.9478 1365.5628,-158 1365.5628,-158 1365.5628,-158 1033.1066,-158 1033.1066,-158"/>
<polygon fill="#000000" stroke="#000000" points="1033.1067,-154.5001 1023.1066,-158 1033.1066,-161.5001 1033.1067,-154.5001"/>
</g>
<!-- LeafletExampleComponent -->
<g id="node5" class="node">
<title>LeafletExampleComponent</title>
<polygon fill="#ffffb3" stroke="#000000" points="1253.2338,-122 1082.7662,-122 1082.7662,-86 1253.2338,-86 1253.2338,-122"/>
<text text-anchor="middle" x="1168" y="-99.8" font-family="Times,serif" font-size="14.00" fill="#000000">LeafletExampleComponent</text>
</g>
<!-- LeafletExampleComponent&#45;&gt;D3jsModule -->
<g id="edge5" class="edge">
<title>LeafletExampleComponent&#45;&gt;D3jsModule</title>
<path fill="none" stroke="#000000" d="M1196.8723,-122.1243C1196.8723,-136.7832 1196.8723,-155 1196.8723,-155 1196.8723,-155 1033.1063,-155 1033.1063,-155"/>
<polygon fill="#000000" stroke="#000000" points="1033.1063,-151.5001 1023.1063,-155 1033.1062,-158.5001 1033.1063,-151.5001"/>
</g>
<!-- MultiLineChartComponent -->
<g id="node6" class="node">
<title>MultiLineChartComponent</title>
<polygon fill="#ffffb3" stroke="#000000" points="1064.7091,-122 895.2909,-122 895.2909,-86 1064.7091,-86 1064.7091,-122"/>
<text text-anchor="middle" x="980" y="-99.8" font-family="Times,serif" font-size="14.00" fill="#000000">MultiLineChartComponent</text>
</g>
<!-- MultiLineChartComponent&#45;&gt;D3jsModule -->
<g id="edge6" class="edge">
<title>MultiLineChartComponent&#45;&gt;D3jsModule</title>
<path fill="none" stroke="#000000" d="M980,-122.1061C980,-122.1061 980,-140.991 980,-140.991"/>
<polygon fill="#000000" stroke="#000000" points="976.5001,-140.9909 980,-150.991 983.5001,-140.991 976.5001,-140.9909"/>
</g>
<!-- PieChartComponent -->
<g id="node7" class="node">
<title>PieChartComponent</title>
<polygon fill="#ffffb3" stroke="#000000" points="877.323,-122 746.677,-122 746.677,-86 877.323,-86 877.323,-122"/>
<text text-anchor="middle" x="812" y="-99.8" font-family="Times,serif" font-size="14.00" fill="#000000">PieChartComponent</text>
</g>
<!-- PieChartComponent&#45;&gt;D3jsModule -->
<g id="edge7" class="edge">
<title>PieChartComponent&#45;&gt;D3jsModule</title>
<path fill="none" stroke="#000000" d="M832.8871,-122.1243C832.8871,-136.7832 832.8871,-155 832.8871,-155 832.8871,-155 926.657,-155 926.657,-155"/>
<polygon fill="#000000" stroke="#000000" points="926.657,-158.5001 936.657,-155 926.6569,-151.5001 926.657,-158.5001"/>
</g>
<!-- RadialBarchartComponent -->
<g id="node8" class="node">
<title>RadialBarchartComponent</title>
<polygon fill="#ffffb3" stroke="#000000" points="729.0716,-122 562.9284,-122 562.9284,-86 729.0716,-86 729.0716,-122"/>
<text text-anchor="middle" x="646" y="-99.8" font-family="Times,serif" font-size="14.00" fill="#000000">RadialBarchartComponent</text>
</g>
<!-- RadialBarchartComponent&#45;&gt;D3jsModule -->
<g id="edge8" class="edge">
<title>RadialBarchartComponent&#45;&gt;D3jsModule</title>
<path fill="none" stroke="#000000" d="M670.1786,-122.2819C670.1786,-137.9478 670.1786,-158 670.1786,-158 670.1786,-158 926.9207,-158 926.9207,-158"/>
<polygon fill="#000000" stroke="#000000" points="926.9207,-161.5001 936.9207,-158 926.9206,-154.5001 926.9207,-161.5001"/>
</g>
<!-- SankeyComponent -->
<g id="node9" class="node">
<title>SankeyComponent</title>
<polygon fill="#ffffb3" stroke="#000000" points="545.045,-122 422.955,-122 422.955,-86 545.045,-86 545.045,-122"/>
<text text-anchor="middle" x="484" y="-99.8" font-family="Times,serif" font-size="14.00" fill="#000000">SankeyComponent</text>
</g>
<!-- SankeyComponent&#45;&gt;D3jsModule -->
<g id="edge9" class="edge">
<title>SankeyComponent&#45;&gt;D3jsModule</title>
<path fill="none" stroke="#000000" d="M540.6471,-122.0352C540.6471,-138.7344 540.6471,-161 540.6471,-161 540.6471,-161 926.6707,-161 926.6707,-161"/>
<polygon fill="#000000" stroke="#000000" points="926.6708,-164.5001 936.6707,-161 926.6707,-157.5001 926.6708,-164.5001"/>
</g>
<!-- SpiralBarChartComponent -->
<g id="node10" class="node">
<title>SpiralBarChartComponent</title>
<polygon fill="#ffffb3" stroke="#000000" points="405.0856,-122 238.9144,-122 238.9144,-86 405.0856,-86 405.0856,-122"/>
<text text-anchor="middle" x="322" y="-99.8" font-family="Times,serif" font-size="14.00" fill="#000000">SpiralBarChartComponent</text>
</g>
<!-- SpiralBarChartComponent&#45;&gt;D3jsModule -->
<g id="edge10" class="edge">
<title>SpiralBarChartComponent&#45;&gt;D3jsModule</title>
<path fill="none" stroke="#000000" d="M398.4178,-122.302C398.4178,-140.2699 398.4178,-165 398.4178,-165 398.4178,-165 926.7619,-165 926.7619,-165"/>
<polygon fill="#000000" stroke="#000000" points="926.762,-168.5001 936.7619,-165 926.7619,-161.5001 926.762,-168.5001"/>
</g>
<!-- StackedBarChartComponent -->
<g id="node11" class="node">
<title>StackedBarChartComponent</title>
<polygon fill="#ffffb3" stroke="#000000" points="220.4636,-122 43.5364,-122 43.5364,-86 220.4636,-86 220.4636,-122"/>
<text text-anchor="middle" x="132" y="-99.8" font-family="Times,serif" font-size="14.00" fill="#000000">StackedBarChartComponent</text>
</g>
<!-- StackedBarChartComponent&#45;&gt;D3jsModule -->
<g id="edge11" class="edge">
<title>StackedBarChartComponent&#45;&gt;D3jsModule</title>
<path fill="none" stroke="#000000" d="M212.3568,-122.1686C212.3568,-141.0898 212.3568,-168 212.3568,-168 212.3568,-168 926.8064,-168 926.8064,-168"/>
<polygon fill="#000000" stroke="#000000" points="926.8064,-171.5001 936.8064,-168 926.8064,-164.5001 926.8064,-171.5001"/>
</g>
<!-- BarChartComponent  -->
<g id="node13" class="node">
<title>BarChartComponent </title>
<polygon fill="#fb8072" stroke="#000000" points="1953.1467,-252 1816.8533,-252 1816.8533,-216 1953.1467,-216 1953.1467,-252"/>
<text text-anchor="middle" x="1885" y="-229.8" font-family="Times,serif" font-size="14.00" fill="#000000">BarChartComponent </text>
</g>
<!-- D3jsModule&#45;&gt;BarChartComponent  -->
<g id="edge12" class="edge">
<title>D3jsModule&#45;&gt;BarChartComponent </title>
<path fill="none" stroke="#000000" stroke-dasharray="5,2" d="M1023.1979,-171C1202.1023,-171 1875.625,-171 1875.625,-171 1875.625,-171 1875.625,-205.7778 1875.625,-205.7778"/>
<polygon fill="#000000" stroke="#000000" points="1872.1251,-205.7778 1875.625,-215.7778 1879.1251,-205.7778 1872.1251,-205.7778"/>
</g>
<!-- BrushAndZoomComponent  -->
<g id="node14" class="node">
<title>BrushAndZoomComponent </title>
<polygon fill="#fb8072" stroke="#000000" points="1798.8241,-252 1623.1759,-252 1623.1759,-216 1798.8241,-216 1798.8241,-252"/>
<text text-anchor="middle" x="1711" y="-229.8" font-family="Times,serif" font-size="14.00" fill="#000000">BrushAndZoomComponent </text>
</g>
<!-- D3jsModule&#45;&gt;BrushAndZoomComponent  -->
<g id="edge13" class="edge">
<title>D3jsModule&#45;&gt;BrushAndZoomComponent </title>
<path fill="none" stroke="#000000" stroke-dasharray="5,2" d="M1023.099,-174C1178.882,-174 1703.625,-174 1703.625,-174 1703.625,-174 1703.625,-205.998 1703.625,-205.998"/>
<polygon fill="#000000" stroke="#000000" points="1700.1251,-205.998 1703.625,-215.998 1707.1251,-205.9981 1700.1251,-205.998"/>
</g>
<!-- ChordDiagramComponent  -->
<g id="node15" class="node">
<title>ChordDiagramComponent </title>
<polygon fill="#fb8072" stroke="#000000" points="1605.3073,-252 1436.6927,-252 1436.6927,-216 1605.3073,-216 1605.3073,-252"/>
<text text-anchor="middle" x="1521" y="-229.8" font-family="Times,serif" font-size="14.00" fill="#000000">ChordDiagramComponent </text>
</g>
<!-- D3jsModule&#45;&gt;ChordDiagramComponent  -->
<g id="edge14" class="edge">
<title>D3jsModule&#45;&gt;ChordDiagramComponent </title>
<path fill="none" stroke="#000000" stroke-dasharray="5,2" d="M1023.3382,-178C1150.7331,-178 1515.125,-178 1515.125,-178 1515.125,-178 1515.125,-205.973 1515.125,-205.973"/>
<polygon fill="#000000" stroke="#000000" points="1511.6251,-205.973 1515.125,-215.973 1518.6251,-205.973 1511.6251,-205.973"/>
</g>
<!-- D3tutorialComponent  -->
<g id="node16" class="node">
<title>D3tutorialComponent </title>
<polygon fill="#fb8072" stroke="#000000" points="1418.3771,-252 1275.6229,-252 1275.6229,-216 1418.3771,-216 1418.3771,-252"/>
<text text-anchor="middle" x="1347" y="-229.8" font-family="Times,serif" font-size="14.00" fill="#000000">D3tutorialComponent </text>
</g>
<!-- D3jsModule&#45;&gt;D3tutorialComponent  -->
<g id="edge15" class="edge">
<title>D3jsModule&#45;&gt;D3tutorialComponent </title>
<path fill="none" stroke="#000000" stroke-dasharray="5,2" d="M1023.1483,-181C1114.8224,-181 1320.6872,-181 1320.6872,-181 1320.6872,-181 1320.6872,-205.7604 1320.6872,-205.7604"/>
<polygon fill="#000000" stroke="#000000" points="1317.1873,-205.7604 1320.6872,-215.7604 1324.1873,-205.7604 1317.1873,-205.7604"/>
</g>
<!-- LeafletExampleComponent  -->
<g id="node17" class="node">
<title>LeafletExampleComponent </title>
<polygon fill="#fb8072" stroke="#000000" points="1258.2338,-252 1083.7662,-252 1083.7662,-216 1258.2338,-216 1258.2338,-252"/>
<text text-anchor="middle" x="1171" y="-229.8" font-family="Times,serif" font-size="14.00" fill="#000000">LeafletExampleComponent </text>
</g>
<!-- D3jsModule&#45;&gt;LeafletExampleComponent  -->
<g id="edge16" class="edge">
<title>D3jsModule&#45;&gt;LeafletExampleComponent </title>
<path fill="none" stroke="#000000" stroke-dasharray="5,2" d="M1023.4005,-184C1070.8971,-184 1140.3777,-184 1140.3777,-184 1140.3777,-184 1140.3777,-205.9489 1140.3777,-205.9489"/>
<polygon fill="#000000" stroke="#000000" points="1136.8778,-205.9488 1140.3777,-215.9489 1143.8778,-205.9489 1136.8778,-205.9488"/>
</g>
<!-- MultiLineChartComponent  -->
<g id="node18" class="node">
<title>MultiLineChartComponent </title>
<polygon fill="#fb8072" stroke="#000000" points="1066.2092,-252 893.7908,-252 893.7908,-216 1066.2092,-216 1066.2092,-252"/>
<text text-anchor="middle" x="980" y="-229.8" font-family="Times,serif" font-size="14.00" fill="#000000">MultiLineChartComponent </text>
</g>
<!-- D3jsModule&#45;&gt;MultiLineChartComponent  -->
<g id="edge17" class="edge">
<title>D3jsModule&#45;&gt;MultiLineChartComponent </title>
<path fill="none" stroke="#000000" stroke-dasharray="5,2" d="M980,-187.1061C980,-187.1061 980,-205.991 980,-205.991"/>
<polygon fill="#000000" stroke="#000000" points="976.5001,-205.9909 980,-215.991 983.5001,-205.991 976.5001,-205.9909"/>
</g>
<!-- PieChartComponent  -->
<g id="node19" class="node">
<title>PieChartComponent </title>
<polygon fill="#fb8072" stroke="#000000" points="875.8227,-252 742.1773,-252 742.1773,-216 875.8227,-216 875.8227,-252"/>
<text text-anchor="middle" x="809" y="-229.8" font-family="Times,serif" font-size="14.00" fill="#000000">PieChartComponent </text>
</g>
<!-- D3jsModule&#45;&gt;PieChartComponent  -->
<g id="edge18" class="edge">
<title>D3jsModule&#45;&gt;PieChartComponent </title>
<path fill="none" stroke="#000000" stroke-dasharray="5,2" d="M936.8549,-184C880.7565,-184 789.8629,-184 789.8629,-184 789.8629,-184 789.8629,-205.9489 789.8629,-205.9489"/>
<polygon fill="#000000" stroke="#000000" points="786.363,-205.9488 789.8629,-215.9489 793.363,-205.9489 786.363,-205.9488"/>
</g>
<!-- RadialBarchartComponent  -->
<g id="node20" class="node">
<title>RadialBarchartComponent </title>
<polygon fill="#fb8072" stroke="#000000" points="723.5721,-252 554.4279,-252 554.4279,-216 723.5721,-216 723.5721,-252"/>
<text text-anchor="middle" x="639" y="-229.8" font-family="Times,serif" font-size="14.00" fill="#000000">RadialBarchartComponent </text>
</g>
<!-- D3jsModule&#45;&gt;RadialBarchartComponent  -->
<g id="edge19" class="edge">
<title>D3jsModule&#45;&gt;RadialBarchartComponent </title>
<path fill="none" stroke="#000000" stroke-dasharray="5,2" d="M936.8828,-181C840.6144,-181 616.5714,-181 616.5714,-181 616.5714,-181 616.5714,-205.7604 616.5714,-205.7604"/>
<polygon fill="#000000" stroke="#000000" points="613.0715,-205.7604 616.5714,-215.7604 620.0715,-205.7604 613.0715,-205.7604"/>
</g>
<!-- SankeyComponent  -->
<g id="node21" class="node">
<title>SankeyComponent </title>
<polygon fill="#fb8072" stroke="#000000" points="536.0442,-252 409.9558,-252 409.9558,-216 536.0442,-216 536.0442,-252"/>
<text text-anchor="middle" x="473" y="-229.8" font-family="Times,serif" font-size="14.00" fill="#000000">SankeyComponent </text>
</g>
<!-- D3jsModule&#45;&gt;SankeyComponent  -->
<g id="edge20" class="edge">
<title>D3jsModule&#45;&gt;SankeyComponent </title>
<path fill="none" stroke="#000000" stroke-dasharray="5,2" d="M936.8837,-178C815.4503,-178 479.375,-178 479.375,-178 479.375,-178 479.375,-205.973 479.375,-205.973"/>
<polygon fill="#000000" stroke="#000000" points="475.8751,-205.973 479.375,-215.973 482.8751,-205.973 475.8751,-205.973"/>
</g>
<!-- SpiralBarChartComponent  -->
<g id="node22" class="node">
<title>SpiralBarChartComponent </title>
<polygon fill="#fb8072" stroke="#000000" points="391.5861,-252 222.4139,-252 222.4139,-216 391.5861,-216 391.5861,-252"/>
<text text-anchor="middle" x="307" y="-229.8" font-family="Times,serif" font-size="14.00" fill="#000000">SpiralBarChartComponent </text>
</g>
<!-- D3jsModule&#45;&gt;SpiralBarChartComponent  -->
<g id="edge21" class="edge">
<title>D3jsModule&#45;&gt;SpiralBarChartComponent </title>
<path fill="none" stroke="#000000" stroke-dasharray="5,2" d="M936.9042,-174C789.6268,-174 315.375,-174 315.375,-174 315.375,-174 315.375,-205.998 315.375,-205.998"/>
<polygon fill="#000000" stroke="#000000" points="311.8751,-205.998 315.375,-215.998 318.8751,-205.9981 311.8751,-205.998"/>
</g>
<!-- StackedBarChartComponent  -->
<g id="node23" class="node">
<title>StackedBarChartComponent </title>
<polygon fill="#fb8072" stroke="#000000" points="204.4642,-252 23.5358,-252 23.5358,-216 204.4642,-216 204.4642,-252"/>
<text text-anchor="middle" x="114" y="-229.8" font-family="Times,serif" font-size="14.00" fill="#000000">StackedBarChartComponent </text>
</g>
<!-- D3jsModule&#45;&gt;StackedBarChartComponent  -->
<g id="edge22" class="edge">
<title>D3jsModule&#45;&gt;StackedBarChartComponent </title>
<path fill="none" stroke="#000000" stroke-dasharray="5,2" d="M936.9579,-171C763.3503,-171 123.875,-171 123.875,-171 123.875,-171 123.875,-205.7778 123.875,-205.7778"/>
<polygon fill="#000000" stroke="#000000" points="120.3751,-205.7778 123.875,-215.7778 127.3751,-205.7778 120.3751,-205.7778"/>
</g>
</g>
</svg>
