<?xml version="1.0" encoding="UTF-8" standalone="no"?>
<!DOCTYPE svg PUBLIC "-//W3C//DTD SVG 1.1//EN"
 "http://www.w3.org/Graphics/SVG/1.1/DTD/svg11.dtd">
<!-- Generated by graphviz version 2.47.0 (20210316.0004)
 -->
<!-- Title: dependencies Pages: 1 -->
<svg width="1985pt" height="284pt"
 viewBox="0.00 0.00 1985.00 284.00" xmlns="http://www.w3.org/2000/svg" xmlns:xlink="http://www.w3.org/1999/xlink">
<g id="graph0" class="graph" transform="scale(1 1) rotate(0) translate(4 280)">
<title>dependencies</title>
<polygon fill="white" stroke="transparent" points="-4,4 -4,-280 1981,-280 1981,4 -4,4"/>
<text text-anchor="start" x="967.51" y="-42.4" font-family="sans-serif" font-weight="bold" font-size="14.00">Legend</text>
<polygon fill="#ffffb3" stroke="transparent" points="754.5,-10 754.5,-30 774.5,-30 774.5,-10 754.5,-10"/>
<text text-anchor="start" x="778.13" y="-15.4" font-family="sans-serif" font-size="14.00"> &#160;Declarations</text>
<polygon fill="#8dd3c7" stroke="transparent" points="867.5,-10 867.5,-30 887.5,-30 887.5,-10 867.5,-10"/>
<text text-anchor="start" x="891.23" y="-15.4" font-family="sans-serif" font-size="14.00"> &#160;Module</text>
<polygon fill="#80b1d3" stroke="transparent" points="953.5,-10 953.5,-30 973.5,-30 973.5,-10 953.5,-10"/>
<text text-anchor="start" x="977.28" y="-15.4" font-family="sans-serif" font-size="14.00"> &#160;Bootstrap</text>
<polygon fill="#fdb462" stroke="transparent" points="1050.5,-10 1050.5,-30 1070.5,-30 1070.5,-10 1050.5,-10"/>
<text text-anchor="start" x="1074.17" y="-15.4" font-family="sans-serif" font-size="14.00"> &#160;Providers</text>
<polygon fill="#fb8072" stroke="transparent" points="1146.5,-10 1146.5,-30 1166.5,-30 1166.5,-10 1146.5,-10"/>
<text text-anchor="start" x="1170.23" y="-15.4" font-family="sans-serif" font-size="14.00"> &#160;Exports</text>
<g id="clust1" class="cluster">
<title>cluster_D3jsModule</title>
<polygon fill="none" stroke="black" stroke-dasharray="1,5" points="8,-70 8,-268 1969,-268 1969,-70 8,-70"/>
</g>
<g id="clust2" class="cluster">
<title>cluster_D3jsModule_declarations</title>
<polygon fill="none" stroke="black" points="36,-78 36,-130 1942,-130 1942,-78 36,-78"/>
</g>
<g id="clust15" class="cluster">
<title>cluster_D3jsModule_exports</title>
<polygon fill="none" stroke="black" points="16,-208 16,-260 1961,-260 1961,-208 16,-208"/>
</g>
<!-- BarChartComponent -->
<g id="node1" class="node">
<title>BarChartComponent</title>
<polygon fill="#ffffb3" stroke="black" points="1934.15,-122 1801.85,-122 1801.85,-86 1934.15,-86 1934.15,-122"/>
<text text-anchor="middle" x="1868" y="-99.8" font-family="Times,serif" font-size="14.00">BarChartComponent</text>
</g>
<!-- D3jsModule -->
<g id="node12" class="node">
<title>D3jsModule</title>
<polygon fill="#8dd3c7" stroke="black" points="1022.99,-187 1019.99,-191 998.99,-191 995.99,-187 937.01,-187 937.01,-151 1022.99,-151 1022.99,-187"/>
<text text-anchor="middle" x="980" y="-164.8" font-family="Times,serif" font-size="14.00">D3jsModule</text>
</g>
<!-- BarChartComponent&#45;&gt;D3jsModule -->
<g id="edge1" class="edge">
<title>BarChartComponent&#45;&gt;D3jsModule</title>
<path fill="none" stroke="black" d="M1809.3,-122.17C1809.3,-141.09 1809.3,-168 1809.3,-168 1809.3,-168 1033.13,-168 1033.13,-168"/>
<polygon fill="black" stroke="black" points="1033.13,-164.5 1023.13,-168 1033.13,-171.5 1033.13,-164.5"/>
</g>
<!-- BrushAndZoomComponent -->
<g id="node2" class="node">
<title>BrushAndZoomComponent</title>
<polygon fill="#ffffb3" stroke="black" points="1784.32,-122 1611.68,-122 1611.68,-86 1784.32,-86 1784.32,-122"/>
<text text-anchor="middle" x="1698" y="-99.8" font-family="Times,serif" font-size="14.00">BrushAndZoomComponent</text>
</g>
<!-- BrushAndZoomComponent&#45;&gt;D3jsModule -->
<g id="edge2" class="edge">
<title>BrushAndZoomComponent&#45;&gt;D3jsModule</title>
<path fill="none" stroke="black" d="M1617.46,-122.3C1617.46,-140.27 1617.46,-165 1617.46,-165 1617.46,-165 1033.31,-165 1033.31,-165"/>
<polygon fill="black" stroke="black" points="1033.31,-161.5 1023.31,-165 1033.31,-168.5 1033.31,-161.5"/>
</g>
<!-- ChordDiagramComponent -->
<g id="node3" class="node">
<title>ChordDiagramComponent</title>
<polygon fill="#ffffb3" stroke="black" points="1593.81,-122 1428.19,-122 1428.19,-86 1593.81,-86 1593.81,-122"/>
<text text-anchor="middle" x="1511" y="-99.8" font-family="Times,serif" font-size="14.00">ChordDiagramComponent</text>
</g>
<!-- ChordDiagramComponent&#45;&gt;D3jsModule -->
<g id="edge3" class="edge">
<title>ChordDiagramComponent&#45;&gt;D3jsModule</title>
<path fill="none" stroke="black" d="M1432.47,-122.04C1432.47,-138.73 1432.47,-161 1432.47,-161 1432.47,-161 1033.38,-161 1033.38,-161"/>
<polygon fill="black" stroke="black" points="1033.38,-157.5 1023.38,-161 1033.38,-164.5 1033.38,-157.5"/>
</g>
<!-- D3tutorialComponent -->
<g id="node4" class="node">
<title>D3tutorialComponent</title>
<polygon fill="#ffffb3" stroke="black" points="1410.38,-122 1271.62,-122 1271.62,-86 1410.38,-86 1410.38,-122"/>
<text text-anchor="middle" x="1341" y="-99.8" font-family="Times,serif" font-size="14.00">D3tutorialComponent</text>
</g>
<!-- D3tutorialComponent&#45;&gt;D3jsModule -->
<g id="edge4" class="edge">
<title>D3tutorialComponent&#45;&gt;D3jsModule</title>
<path fill="none" stroke="black" d="M1365.56,-122.28C1365.56,-137.95 1365.56,-158 1365.56,-158 1365.56,-158 1033.11,-158 1033.11,-158"/>
<polygon fill="black" stroke="black" points="1033.11,-154.5 1023.11,-158 1033.11,-161.5 1033.11,-154.5"/>
</g>
<!-- LeafletExampleComponent -->
<g id="node5" class="node">
<title>LeafletExampleComponent</title>
<polygon fill="#ffffb3" stroke="black" points="1253.23,-122 1082.77,-122 1082.77,-86 1253.23,-86 1253.23,-122"/>
<text text-anchor="middle" x="1168" y="-99.8" font-family="Times,serif" font-size="14.00">LeafletExampleComponent</text>
</g>
<!-- LeafletExampleComponent&#45;&gt;D3jsModule -->
<g id="edge5" class="edge">
<title>LeafletExampleComponent&#45;&gt;D3jsModule</title>
<path fill="none" stroke="black" d="M1196.87,-122.12C1196.87,-136.78 1196.87,-155 1196.87,-155 1196.87,-155 1033.11,-155 1033.11,-155"/>
<polygon fill="black" stroke="black" points="1033.11,-151.5 1023.11,-155 1033.11,-158.5 1033.11,-151.5"/>
</g>
<!-- MultiLineChartComponent -->
<g id="node6" class="node">
<title>MultiLineChartComponent</title>
<polygon fill="#ffffb3" stroke="black" points="1064.71,-122 895.29,-122 895.29,-86 1064.71,-86 1064.71,-122"/>
<text text-anchor="middle" x="980" y="-99.8" font-family="Times,serif" font-size="14.00">MultiLineChartComponent</text>
</g>
<!-- MultiLineChartComponent&#45;&gt;D3jsModule -->
<g id="edge6" class="edge">
<title>MultiLineChartComponent&#45;&gt;D3jsModule</title>
<path fill="none" stroke="black" d="M980,-122.11C980,-122.11 980,-140.99 980,-140.99"/>
<polygon fill="black" stroke="black" points="976.5,-140.99 980,-150.99 983.5,-140.99 976.5,-140.99"/>
</g>
<!-- PieChartComponent -->
<g id="node7" class="node">
<title>PieChartComponent</title>
<polygon fill="#ffffb3" stroke="black" points="877.32,-122 746.68,-122 746.68,-86 877.32,-86 877.32,-122"/>
<text text-anchor="middle" x="812" y="-99.8" font-family="Times,serif" font-size="14.00">PieChartComponent</text>
</g>
<!-- PieChartComponent&#45;&gt;D3jsModule -->
<g id="edge7" class="edge">
<title>PieChartComponent&#45;&gt;D3jsModule</title>
<path fill="none" stroke="black" d="M832.89,-122.12C832.89,-136.78 832.89,-155 832.89,-155 832.89,-155 926.66,-155 926.66,-155"/>
<polygon fill="black" stroke="black" points="926.66,-158.5 936.66,-155 926.66,-151.5 926.66,-158.5"/>
</g>
<!-- RadialBarchartComponent -->
<g id="node8" class="node">
<title>RadialBarchartComponent</title>
<polygon fill="#ffffb3" stroke="black" points="729.07,-122 562.93,-122 562.93,-86 729.07,-86 729.07,-122"/>
<text text-anchor="middle" x="646" y="-99.8" font-family="Times,serif" font-size="14.00">RadialBarchartComponent</text>
</g>
<!-- RadialBarchartComponent&#45;&gt;D3jsModule -->
<g id="edge8" class="edge">
<title>RadialBarchartComponent&#45;&gt;D3jsModule</title>
<path fill="none" stroke="black" d="M670.18,-122.28C670.18,-137.95 670.18,-158 670.18,-158 670.18,-158 926.92,-158 926.92,-158"/>
<polygon fill="black" stroke="black" points="926.92,-161.5 936.92,-158 926.92,-154.5 926.92,-161.5"/>
</g>
<!-- SankeyComponent -->
<g id="node9" class="node">
<title>SankeyComponent</title>
<polygon fill="#ffffb3" stroke="black" points="545.05,-122 422.95,-122 422.95,-86 545.05,-86 545.05,-122"/>
<text text-anchor="middle" x="484" y="-99.8" font-family="Times,serif" font-size="14.00">SankeyComponent</text>
</g>
<!-- SankeyComponent&#45;&gt;D3jsModule -->
<g id="edge9" class="edge">
<title>SankeyComponent&#45;&gt;D3jsModule</title>
<path fill="none" stroke="black" d="M540.65,-122.04C540.65,-138.73 540.65,-161 540.65,-161 540.65,-161 926.67,-161 926.67,-161"/>
<polygon fill="black" stroke="black" points="926.67,-164.5 936.67,-161 926.67,-157.5 926.67,-164.5"/>
</g>
<!-- SpiralBarChartComponent -->
<g id="node10" class="node">
<title>SpiralBarChartComponent</title>
<polygon fill="#ffffb3" stroke="black" points="405.09,-122 238.91,-122 238.91,-86 405.09,-86 405.09,-122"/>
<text text-anchor="middle" x="322" y="-99.8" font-family="Times,serif" font-size="14.00">SpiralBarChartComponent</text>
</g>
<!-- SpiralBarChartComponent&#45;&gt;D3jsModule -->
<g id="edge10" class="edge">
<title>SpiralBarChartComponent&#45;&gt;D3jsModule</title>
<path fill="none" stroke="black" d="M398.42,-122.3C398.42,-140.27 398.42,-165 398.42,-165 398.42,-165 926.76,-165 926.76,-165"/>
<polygon fill="black" stroke="black" points="926.76,-168.5 936.76,-165 926.76,-161.5 926.76,-168.5"/>
</g>
<!-- StackedBarChartComponent -->
<g id="node11" class="node">
<title>StackedBarChartComponent</title>
<polygon fill="#ffffb3" stroke="black" points="220.46,-122 43.54,-122 43.54,-86 220.46,-86 220.46,-122"/>
<text text-anchor="middle" x="132" y="-99.8" font-family="Times,serif" font-size="14.00">StackedBarChartComponent</text>
</g>
<!-- StackedBarChartComponent&#45;&gt;D3jsModule -->
<g id="edge11" class="edge">
<title>StackedBarChartComponent&#45;&gt;D3jsModule</title>
<path fill="none" stroke="black" d="M212.36,-122.17C212.36,-141.09 212.36,-168 212.36,-168 212.36,-168 926.81,-168 926.81,-168"/>
<polygon fill="black" stroke="black" points="926.81,-171.5 936.81,-168 926.81,-164.5 926.81,-171.5"/>
</g>
<!-- BarChartComponent  -->
<g id="node13" class="node">
<title>BarChartComponent </title>
<polygon fill="#fb8072" stroke="black" points="1953.15,-252 1816.85,-252 1816.85,-216 1953.15,-216 1953.15,-252"/>
<text text-anchor="middle" x="1885" y="-229.8" font-family="Times,serif" font-size="14.00">BarChartComponent </text>
</g>
<!-- D3jsModule&#45;&gt;BarChartComponent  -->
<g id="edge12" class="edge">
<title>D3jsModule&#45;&gt;BarChartComponent </title>
<path fill="none" stroke="black" stroke-dasharray="5,2" d="M1023.2,-171C1202.1,-171 1875.62,-171 1875.62,-171 1875.62,-171 1875.62,-205.78 1875.62,-205.78"/>
<polygon fill="black" stroke="black" points="1872.13,-205.78 1875.62,-215.78 1879.13,-205.78 1872.13,-205.78"/>
</g>
<!-- BrushAndZoomComponent  -->
<g id="node14" class="node">
<title>BrushAndZoomComponent </title>
<polygon fill="#fb8072" stroke="black" points="1798.82,-252 1623.18,-252 1623.18,-216 1798.82,-216 1798.82,-252"/>
<text text-anchor="middle" x="1711" y="-229.8" font-family="Times,serif" font-size="14.00">BrushAndZoomComponent </text>
</g>
<!-- D3jsModule&#45;&gt;BrushAndZoomComponent  -->
<g id="edge13" class="edge">
<title>D3jsModule&#45;&gt;BrushAndZoomComponent </title>
<path fill="none" stroke="black" stroke-dasharray="5,2" d="M1023.1,-174C1178.88,-174 1703.62,-174 1703.62,-174 1703.62,-174 1703.62,-206 1703.62,-206"/>
<polygon fill="black" stroke="black" points="1700.13,-206 1703.62,-216 1707.13,-206 1700.13,-206"/>
</g>
<!-- ChordDiagramComponent  -->
<g id="node15" class="node">
<title>ChordDiagramComponent </title>
<polygon fill="#fb8072" stroke="black" points="1605.31,-252 1436.69,-252 1436.69,-216 1605.31,-216 1605.31,-252"/>
<text text-anchor="middle" x="1521" y="-229.8" font-family="Times,serif" font-size="14.00">ChordDiagramComponent </text>
</g>
<!-- D3jsModule&#45;&gt;ChordDiagramComponent  -->
<g id="edge14" class="edge">
<title>D3jsModule&#45;&gt;ChordDiagramComponent </title>
<path fill="none" stroke="black" stroke-dasharray="5,2" d="M1023.34,-178C1150.73,-178 1515.12,-178 1515.12,-178 1515.12,-178 1515.12,-205.97 1515.12,-205.97"/>
<polygon fill="black" stroke="black" points="1511.63,-205.97 1515.12,-215.97 1518.63,-205.97 1511.63,-205.97"/>
</g>
<!-- D3tutorialComponent  -->
<g id="node16" class="node">
<title>D3tutorialComponent </title>
<polygon fill="#fb8072" stroke="black" points="1418.38,-252 1275.62,-252 1275.62,-216 1418.38,-216 1418.38,-252"/>
<text text-anchor="middle" x="1347" y="-229.8" font-family="Times,serif" font-size="14.00">D3tutorialComponent </text>
</g>
<!-- D3jsModule&#45;&gt;D3tutorialComponent  -->
<g id="edge15" class="edge">
<title>D3jsModule&#45;&gt;D3tutorialComponent </title>
<path fill="none" stroke="black" stroke-dasharray="5,2" d="M1023.15,-181C1114.82,-181 1320.69,-181 1320.69,-181 1320.69,-181 1320.69,-205.76 1320.69,-205.76"/>
<polygon fill="black" stroke="black" points="1317.19,-205.76 1320.69,-215.76 1324.19,-205.76 1317.19,-205.76"/>
</g>
<!-- LeafletExampleComponent  -->
<g id="node17" class="node">
<title>LeafletExampleComponent </title>
<polygon fill="#fb8072" stroke="black" points="1258.23,-252 1083.77,-252 1083.77,-216 1258.23,-216 1258.23,-252"/>
<text text-anchor="middle" x="1171" y="-229.8" font-family="Times,serif" font-size="14.00">LeafletExampleComponent </text>
</g>
<!-- D3jsModule&#45;&gt;LeafletExampleComponent  -->
<g id="edge16" class="edge">
<title>D3jsModule&#45;&gt;LeafletExampleComponent </title>
<path fill="none" stroke="black" stroke-dasharray="5,2" d="M1023.4,-184C1070.9,-184 1140.38,-184 1140.38,-184 1140.38,-184 1140.38,-205.95 1140.38,-205.95"/>
<polygon fill="black" stroke="black" points="1136.88,-205.95 1140.38,-215.95 1143.88,-205.95 1136.88,-205.95"/>
</g>
<!-- MultiLineChartComponent  -->
<g id="node18" class="node">
<title>MultiLineChartComponent </title>
<polygon fill="#fb8072" stroke="black" points="1066.21,-252 893.79,-252 893.79,-216 1066.21,-216 1066.21,-252"/>
<text text-anchor="middle" x="980" y="-229.8" font-family="Times,serif" font-size="14.00">MultiLineChartComponent </text>
</g>
<!-- D3jsModule&#45;&gt;MultiLineChartComponent  -->
<g id="edge17" class="edge">
<title>D3jsModule&#45;&gt;MultiLineChartComponent </title>
<path fill="none" stroke="black" stroke-dasharray="5,2" d="M980,-187.11C980,-187.11 980,-205.99 980,-205.99"/>
<polygon fill="black" stroke="black" points="976.5,-205.99 980,-215.99 983.5,-205.99 976.5,-205.99"/>
</g>
<!-- PieChartComponent  -->
<g id="node19" class="node">
<title>PieChartComponent </title>
<polygon fill="#fb8072" stroke="black" points="875.82,-252 742.18,-252 742.18,-216 875.82,-216 875.82,-252"/>
<text text-anchor="middle" x="809" y="-229.8" font-family="Times,serif" font-size="14.00">PieChartComponent </text>
</g>
<!-- D3jsModule&#45;&gt;PieChartComponent  -->
<g id="edge18" class="edge">
<title>D3jsModule&#45;&gt;PieChartComponent </title>
<path fill="none" stroke="black" stroke-dasharray="5,2" d="M936.85,-184C880.76,-184 789.86,-184 789.86,-184 789.86,-184 789.86,-205.95 789.86,-205.95"/>
<polygon fill="black" stroke="black" points="786.36,-205.95 789.86,-215.95 793.36,-205.95 786.36,-205.95"/>
</g>
<!-- RadialBarchartComponent  -->
<g id="node20" class="node">
<title>RadialBarchartComponent </title>
<polygon fill="#fb8072" stroke="black" points="723.57,-252 554.43,-252 554.43,-216 723.57,-216 723.57,-252"/>
<text text-anchor="middle" x="639" y="-229.8" font-family="Times,serif" font-size="14.00">RadialBarchartComponent </text>
</g>
<!-- D3jsModule&#45;&gt;RadialBarchartComponent  -->
<g id="edge19" class="edge">
<title>D3jsModule&#45;&gt;RadialBarchartComponent </title>
<path fill="none" stroke="black" stroke-dasharray="5,2" d="M936.88,-181C840.61,-181 616.57,-181 616.57,-181 616.57,-181 616.57,-205.76 616.57,-205.76"/>
<polygon fill="black" stroke="black" points="613.07,-205.76 616.57,-215.76 620.07,-205.76 613.07,-205.76"/>
</g>
<!-- SankeyComponent  -->
<g id="node21" class="node">
<title>SankeyComponent </title>
<polygon fill="#fb8072" stroke="black" points="536.04,-252 409.96,-252 409.96,-216 536.04,-216 536.04,-252"/>
<text text-anchor="middle" x="473" y="-229.8" font-family="Times,serif" font-size="14.00">SankeyComponent </text>
</g>
<!-- D3jsModule&#45;&gt;SankeyComponent  -->
<g id="edge20" class="edge">
<title>D3jsModule&#45;&gt;SankeyComponent </title>
<path fill="none" stroke="black" stroke-dasharray="5,2" d="M936.88,-178C815.45,-178 479.38,-178 479.38,-178 479.38,-178 479.38,-205.97 479.38,-205.97"/>
<polygon fill="black" stroke="black" points="475.88,-205.97 479.38,-215.97 482.88,-205.97 475.88,-205.97"/>
</g>
<!-- SpiralBarChartComponent  -->
<g id="node22" class="node">
<title>SpiralBarChartComponent </title>
<polygon fill="#fb8072" stroke="black" points="391.59,-252 222.41,-252 222.41,-216 391.59,-216 391.59,-252"/>
<text text-anchor="middle" x="307" y="-229.8" font-family="Times,serif" font-size="14.00">SpiralBarChartComponent </text>
</g>
<!-- D3jsModule&#45;&gt;SpiralBarChartComponent  -->
<g id="edge21" class="edge">
<title>D3jsModule&#45;&gt;SpiralBarChartComponent </title>
<path fill="none" stroke="black" stroke-dasharray="5,2" d="M936.9,-174C789.63,-174 315.38,-174 315.38,-174 315.38,-174 315.38,-206 315.38,-206"/>
<polygon fill="black" stroke="black" points="311.88,-206 315.38,-216 318.88,-206 311.88,-206"/>
</g>
<!-- StackedBarChartComponent  -->
<g id="node23" class="node">
<title>StackedBarChartComponent </title>
<polygon fill="#fb8072" stroke="black" points="204.46,-252 23.54,-252 23.54,-216 204.46,-216 204.46,-252"/>
<text text-anchor="middle" x="114" y="-229.8" font-family="Times,serif" font-size="14.00">StackedBarChartComponent </text>
</g>
<!-- D3jsModule&#45;&gt;StackedBarChartComponent  -->
<g id="edge22" class="edge">
<title>D3jsModule&#45;&gt;StackedBarChartComponent </title>
<path fill="none" stroke="black" stroke-dasharray="5,2" d="M936.96,-171C763.35,-171 123.88,-171 123.88,-171 123.88,-171 123.88,-205.78 123.88,-205.78"/>
<polygon fill="black" stroke="black" points="120.38,-205.78 123.88,-215.78 127.38,-205.78 120.38,-205.78"/>
</g>
</g>
</svg>
