<?xml version="1.0" encoding="UTF-8" standalone="no"?>
<!DOCTYPE svg PUBLIC "-//W3C//DTD SVG 1.1//EN"
 "http://www.w3.org/Graphics/SVG/1.1/DTD/svg11.dtd">
<!-- Generated by graphviz version 2.40.1 (20161225.0304)
 -->
<!-- Title: dependencies Pages: 1 -->
<svg width="504pt" height="284pt"
 viewBox="0.00 0.00 504.00 284.00" xmlns="http://www.w3.org/2000/svg" xmlns:xlink="http://www.w3.org/1999/xlink">
<g id="graph0" class="graph" transform="scale(1 1) rotate(0) translate(4 280)">
<title>dependencies</title>
<polygon fill="#ffffff" stroke="transparent" points="-4,4 -4,-280 500,-280 500,4 -4,4"/>
<text text-anchor="start" x="227.0091" y="-42.4" font-family="sans-serif" font-weight="bold" font-size="14.00" fill="#000000">Legend</text>
<polygon fill="#ffffb3" stroke="transparent" points="14,-10 14,-30 34,-30 34,-10 14,-10"/>
<text text-anchor="start" x="37.629" y="-15.4" font-family="sans-serif" font-size="14.00" fill="#000000"> &#160;Declarations</text>
<polygon fill="#8dd3c7" stroke="transparent" points="127,-10 127,-30 147,-30 147,-10 127,-10"/>
<text text-anchor="start" x="150.7251" y="-15.4" font-family="sans-serif" font-size="14.00" fill="#000000"> &#160;Module</text>
<polygon fill="#80b1d3" stroke="transparent" points="213,-10 213,-30 233,-30 233,-10 213,-10"/>
<text text-anchor="start" x="236.7812" y="-15.4" font-family="sans-serif" font-size="14.00" fill="#000000"> &#160;Bootstrap</text>
<polygon fill="#fdb462" stroke="transparent" points="310,-10 310,-30 330,-30 330,-10 310,-10"/>
<text text-anchor="start" x="333.6732" y="-15.4" font-family="sans-serif" font-size="14.00" fill="#000000"> &#160;Providers</text>
<polygon fill="#fb8072" stroke="transparent" points="406,-10 406,-30 426,-30 426,-10 406,-10"/>
<text text-anchor="start" x="429.7258" y="-15.4" font-family="sans-serif" font-size="14.00" fill="#000000"> &#160;Exports</text>
<g id="clust1" class="cluster">
<title>cluster_HtmlViewerModule</title>
<polygon fill="none" stroke="#000000" stroke-dasharray="1,5" points="88,-70 88,-268 408,-268 408,-70 88,-70"/>
</g>
<g id="clust2" class="cluster">
<title>cluster_HtmlViewerModule_declarations</title>
<polygon fill="none" stroke="#000000" points="232,-78 232,-130 400,-130 400,-78 232,-78"/>
</g>
<g id="clust4" class="cluster">
<title>cluster_HtmlViewerModule_imports</title>
<polygon fill="none" stroke="#000000" points="96,-78 96,-130 224,-130 224,-78 96,-78"/>
</g>
<g id="clust5" class="cluster">
<title>cluster_HtmlViewerModule_exports</title>
<polygon fill="none" stroke="#000000" points="163,-208 163,-260 333,-260 333,-208 163,-208"/>
</g>
<!-- HtmlViewerComponent -->
<g id="node1" class="node">
<title>HtmlViewerComponent</title>
<polygon fill="#ffffb3" stroke="#000000" points="391.8047,-122 240.1953,-122 240.1953,-86 391.8047,-86 391.8047,-122"/>
<text text-anchor="middle" x="316" y="-99.8" font-family="Times,serif" font-size="14.00" fill="#000000">HtmlViewerComponent</text>
</g>
<!-- HtmlViewerModule -->
<g id="node2" class="node">
<title>HtmlViewerModule</title>
<polygon fill="#8dd3c7" stroke="#000000" points="312.5227,-187 309.5227,-191 288.5227,-191 285.5227,-187 183.4773,-187 183.4773,-151 312.5227,-151 312.5227,-187"/>
<text text-anchor="middle" x="248" y="-164.8" font-family="Times,serif" font-size="14.00" fill="#000000">HtmlViewerModule</text>
</g>
<!-- HtmlViewerComponent&#45;&gt;HtmlViewerModule -->
<g id="edge1" class="edge">
<title>HtmlViewerComponent&#45;&gt;HtmlViewerModule</title>
<path fill="none" stroke="#000000" d="M276.5544,-122.1061C276.5544,-122.1061 276.5544,-140.991 276.5544,-140.991"/>
<polygon fill="#000000" stroke="#000000" points="273.0544,-140.9909 276.5544,-150.991 280.0544,-140.991 273.0544,-140.9909"/>
</g>
<!-- HtmlViewerComponent  -->
<g id="node4" class="node">
<title>HtmlViewerComponent </title>
<polygon fill="#fb8072" stroke="#000000" points="325.3045,-252 170.6955,-252 170.6955,-216 325.3045,-216 325.3045,-252"/>
<text text-anchor="middle" x="248" y="-229.8" font-family="Times,serif" font-size="14.00" fill="#000000">HtmlViewerComponent </text>
</g>
<!-- HtmlViewerModule&#45;&gt;HtmlViewerComponent  -->
<g id="edge3" class="edge">
<title>HtmlViewerModule&#45;&gt;HtmlViewerComponent </title>
<path fill="none" stroke="#000000" stroke-dasharray="5,2" d="M248,-187.1061C248,-187.1061 248,-205.991 248,-205.991"/>
<polygon fill="#000000" stroke="#000000" points="244.5001,-205.9909 248,-215.991 251.5001,-205.991 244.5001,-205.9909"/>
</g>
<!-- RichTextModule -->
<g id="node3" class="node">
<title>RichTextModule</title>
<polygon fill="#8dd3c7" stroke="#000000" points="215.6499,-122 212.6499,-126 191.6499,-126 188.6499,-122 104.3501,-122 104.3501,-86 215.6499,-86 215.6499,-122"/>
<text text-anchor="middle" x="160" y="-99.8" font-family="Times,serif" font-size="14.00" fill="#000000">RichTextModule</text>
</g>
<!-- RichTextModule&#45;&gt;HtmlViewerModule -->
<g id="edge2" class="edge">
<title>RichTextModule&#45;&gt;HtmlViewerModule</title>
<path fill="none" stroke="#000000" d="M199.5319,-122.1061C199.5319,-122.1061 199.5319,-140.991 199.5319,-140.991"/>
<polygon fill="#000000" stroke="#000000" points="196.032,-140.9909 199.5319,-150.991 203.032,-140.991 196.032,-140.9909"/>
</g>
</g>
</svg>
