<?xml version="1.0" encoding="UTF-8" standalone="no"?>
<!DOCTYPE svg PUBLIC "-//W3C//DTD SVG 1.1//EN"
 "http://www.w3.org/Graphics/SVG/1.1/DTD/svg11.dtd">
<!-- Generated by graphviz version 2.47.0 (20210316.0004)
 -->
<!-- Title: dependencies Pages: 1 -->
<svg width="504pt" height="284pt"
 viewBox="0.00 0.00 504.00 284.00" xmlns="http://www.w3.org/2000/svg" xmlns:xlink="http://www.w3.org/1999/xlink">
<g id="graph0" class="graph" transform="scale(1 1) rotate(0) translate(4 280)">
<title>dependencies</title>
<polygon fill="white" stroke="transparent" points="-4,4 -4,-280 500,-280 500,4 -4,4"/>
<text text-anchor="start" x="227.01" y="-42.4" font-family="sans-serif" font-weight="bold" font-size="14.00">Legend</text>
<polygon fill="#ffffb3" stroke="transparent" points="14,-10 14,-30 34,-30 34,-10 14,-10"/>
<text text-anchor="start" x="37.63" y="-15.4" font-family="sans-serif" font-size="14.00"> &#160;Declarations</text>
<polygon fill="#8dd3c7" stroke="transparent" points="127,-10 127,-30 147,-30 147,-10 127,-10"/>
<text text-anchor="start" x="150.73" y="-15.4" font-family="sans-serif" font-size="14.00"> &#160;Module</text>
<polygon fill="#80b1d3" stroke="transparent" points="213,-10 213,-30 233,-30 233,-10 213,-10"/>
<text text-anchor="start" x="236.78" y="-15.4" font-family="sans-serif" font-size="14.00"> &#160;Bootstrap</text>
<polygon fill="#fdb462" stroke="transparent" points="310,-10 310,-30 330,-30 330,-10 310,-10"/>
<text text-anchor="start" x="333.67" y="-15.4" font-family="sans-serif" font-size="14.00"> &#160;Providers</text>
<polygon fill="#fb8072" stroke="transparent" points="406,-10 406,-30 426,-30 426,-10 406,-10"/>
<text text-anchor="start" x="429.73" y="-15.4" font-family="sans-serif" font-size="14.00"> &#160;Exports</text>
<g id="clust1" class="cluster">
<title>cluster_HtmlViewerModule</title>
<polygon fill="none" stroke="black" stroke-dasharray="1,5" points="44,-70 44,-268 452,-268 452,-70 44,-70"/>
</g>
<g id="clust6" class="cluster">
<title>cluster_HtmlViewerModule_exports</title>
<polygon fill="none" stroke="black" points="176,-208 176,-260 346,-260 346,-208 176,-208"/>
</g>
<g id="clust2" class="cluster">
<title>cluster_HtmlViewerModule_declarations</title>
<polygon fill="none" stroke="black" points="52,-78 52,-130 444,-130 444,-78 52,-78"/>
</g>
<!-- HtmlViewerComponent -->
<g id="node1" class="node">
<title>HtmlViewerComponent</title>
<polygon fill="#ffffb3" stroke="black" points="435.8,-122 284.2,-122 284.2,-86 435.8,-86 435.8,-122"/>
<text text-anchor="middle" x="360" y="-99.8" font-family="Times,serif" font-size="14.00">HtmlViewerComponent</text>
</g>
<!-- HtmlViewerModule -->
<g id="node3" class="node">
<title>HtmlViewerModule</title>
<polygon fill="#8dd3c7" stroke="black" points="325.52,-187 322.52,-191 301.52,-191 298.52,-187 196.48,-187 196.48,-151 325.52,-151 325.52,-187"/>
<text text-anchor="middle" x="261" y="-164.8" font-family="Times,serif" font-size="14.00">HtmlViewerModule</text>
</g>
<!-- HtmlViewerComponent&#45;&gt;HtmlViewerModule -->
<g id="edge1" class="edge">
<title>HtmlViewerComponent&#45;&gt;HtmlViewerModule</title>
<path fill="none" stroke="black" d="M305.05,-122.11C305.05,-122.11 305.05,-140.99 305.05,-140.99"/>
<polygon fill="black" stroke="black" points="301.55,-140.99 305.05,-150.99 308.55,-140.99 301.55,-140.99"/>
</g>
<!-- HtmlViewerInnerhtmlComponent -->
<g id="node2" class="node">
<title>HtmlViewerInnerhtmlComponent</title>
<polygon fill="#ffffb3" stroke="black" points="266.01,-122 59.99,-122 59.99,-86 266.01,-86 266.01,-122"/>
<text text-anchor="middle" x="163" y="-99.8" font-family="Times,serif" font-size="14.00">HtmlViewerInnerhtmlComponent</text>
</g>
<!-- HtmlViewerInnerhtmlComponent&#45;&gt;HtmlViewerModule -->
<g id="edge2" class="edge">
<title>HtmlViewerInnerhtmlComponent&#45;&gt;HtmlViewerModule</title>
<path fill="none" stroke="black" d="M231.25,-122.11C231.25,-122.11 231.25,-140.99 231.25,-140.99"/>
<polygon fill="black" stroke="black" points="227.75,-140.99 231.25,-150.99 234.75,-140.99 227.75,-140.99"/>
</g>
<!-- HtmlViewerComponent  -->
<g id="node4" class="node">
<title>HtmlViewerComponent </title>
<polygon fill="#fb8072" stroke="black" points="338.3,-252 183.7,-252 183.7,-216 338.3,-216 338.3,-252"/>
<text text-anchor="middle" x="261" y="-229.8" font-family="Times,serif" font-size="14.00">HtmlViewerComponent </text>
</g>
<!-- HtmlViewerModule&#45;&gt;HtmlViewerComponent  -->
<g id="edge3" class="edge">
<title>HtmlViewerModule&#45;&gt;HtmlViewerComponent </title>
<path fill="none" stroke="black" stroke-dasharray="5,2" d="M261,-187.11C261,-187.11 261,-205.99 261,-205.99"/>
<polygon fill="black" stroke="black" points="257.5,-205.99 261,-215.99 264.5,-205.99 257.5,-205.99"/>
</g>
</g>
</svg>
