<?xml version="1.0" encoding="UTF-8" standalone="no"?>
<!DOCTYPE svg PUBLIC "-//W3C//DTD SVG 1.1//EN"
 "http://www.w3.org/Graphics/SVG/1.1/DTD/svg11.dtd">
<!-- Generated by graphviz version 2.40.1 (20161225.0304)
 -->
<!-- Title: dependencies Pages: 1 -->
<svg width="1184pt" height="284pt"
 viewBox="0.00 0.00 1184.00 284.00" xmlns="http://www.w3.org/2000/svg" xmlns:xlink="http://www.w3.org/1999/xlink">
<g id="graph0" class="graph" transform="scale(1 1) rotate(0) translate(4 280)">
<title>dependencies</title>
<polygon fill="#ffffff" stroke="transparent" points="-4,4 -4,-280 1180,-280 1180,4 -4,4"/>
<text text-anchor="start" x="567.0091" y="-42.4" font-family="sans-serif" font-weight="bold" font-size="14.00" fill="#000000">Legend</text>
<polygon fill="#ffffb3" stroke="transparent" points="354,-10 354,-30 374,-30 374,-10 354,-10"/>
<text text-anchor="start" x="377.629" y="-15.4" font-family="sans-serif" font-size="14.00" fill="#000000"> &#160;Declarations</text>
<polygon fill="#8dd3c7" stroke="transparent" points="467,-10 467,-30 487,-30 487,-10 467,-10"/>
<text text-anchor="start" x="490.7251" y="-15.4" font-family="sans-serif" font-size="14.00" fill="#000000"> &#160;Module</text>
<polygon fill="#80b1d3" stroke="transparent" points="553,-10 553,-30 573,-30 573,-10 553,-10"/>
<text text-anchor="start" x="576.7812" y="-15.4" font-family="sans-serif" font-size="14.00" fill="#000000"> &#160;Bootstrap</text>
<polygon fill="#fdb462" stroke="transparent" points="650,-10 650,-30 670,-30 670,-10 650,-10"/>
<text text-anchor="start" x="673.6732" y="-15.4" font-family="sans-serif" font-size="14.00" fill="#000000"> &#160;Providers</text>
<polygon fill="#fb8072" stroke="transparent" points="746,-10 746,-30 766,-30 766,-10 746,-10"/>
<text text-anchor="start" x="769.7258" y="-15.4" font-family="sans-serif" font-size="14.00" fill="#000000"> &#160;Exports</text>
<g id="clust1" class="cluster">
<title>cluster_NIEOSModule</title>
<polygon fill="none" stroke="#000000" stroke-dasharray="1,5" points="8,-70 8,-268 1168,-268 1168,-70 8,-70"/>
</g>
<g id="clust2" class="cluster">
<title>cluster_NIEOSModule_declarations</title>
<polygon fill="none" stroke="#000000" points="802,-78 802,-130 1160,-130 1160,-78 802,-78"/>
</g>
<g id="clust6" class="cluster">
<title>cluster_NIEOSModule_imports</title>
<polygon fill="none" stroke="#000000" points="230,-78 230,-130 794,-130 794,-78 230,-78"/>
</g>
<g id="clust7" class="cluster">
<title>cluster_NIEOSModule_exports</title>
<polygon fill="none" stroke="#000000" points="565,-208 565,-260 707,-260 707,-208 565,-208"/>
</g>
<g id="clust9" class="cluster">
<title>cluster_NIEOSModule_providers</title>
<polygon fill="none" stroke="#000000" points="16,-78 16,-130 222,-130 222,-78 16,-78"/>
</g>
<!-- GrapesjsComponent -->
<g id="node1" class="node">
<title>GrapesjsComponent</title>
<polygon fill="#ffffb3" stroke="#000000" points="1152.309,-122 1021.691,-122 1021.691,-86 1152.309,-86 1152.309,-122"/>
<text text-anchor="middle" x="1087" y="-99.8" font-family="Times,serif" font-size="14.00" fill="#000000">GrapesjsComponent</text>
</g>
<!-- NIEOSModule -->
<g id="node4" class="node">
<title>NIEOSModule</title>
<polygon fill="#8dd3c7" stroke="#000000" points="686.2591,-187 683.2591,-191 662.2591,-191 659.2591,-187 585.7409,-187 585.7409,-151 686.2591,-151 686.2591,-187"/>
<text text-anchor="middle" x="636" y="-164.8" font-family="Times,serif" font-size="14.00" fill="#000000">NIEOSModule</text>
</g>
<!-- GrapesjsComponent&#45;&gt;NIEOSModule -->
<g id="edge1" class="edge">
<title>GrapesjsComponent&#45;&gt;NIEOSModule</title>
<path fill="none" stroke="#000000" d="M1087,-122.2921C1087,-144.2057 1087,-178 1087,-178 1087,-178 696.4227,-178 696.4227,-178"/>
<polygon fill="#000000" stroke="#000000" points="696.4227,-174.5001 686.4227,-178 696.4226,-181.5001 696.4227,-174.5001"/>
</g>
<!-- NIEOSComponent -->
<g id="node2" class="node">
<title>NIEOSComponent</title>
<polygon fill="#ffffb3" stroke="#000000" points="1004.0423,-122 881.9577,-122 881.9577,-86 1004.0423,-86 1004.0423,-122"/>
<text text-anchor="middle" x="943" y="-99.8" font-family="Times,serif" font-size="14.00" fill="#000000">NIEOSComponent</text>
</g>
<!-- NIEOSComponent&#45;&gt;NIEOSModule -->
<g id="edge2" class="edge">
<title>NIEOSComponent&#45;&gt;NIEOSModule</title>
<path fill="none" stroke="#000000" d="M943,-122.1061C943,-141.3391 943,-169 943,-169 943,-169 696.351,-169 696.351,-169"/>
<polygon fill="#000000" stroke="#000000" points="696.3511,-165.5001 686.351,-169 696.351,-172.5001 696.3511,-165.5001"/>
</g>
<!-- Popup -->
<g id="node3" class="node">
<title>Popup</title>
<polygon fill="#ffffb3" stroke="#000000" points="864,-122 810,-122 810,-86 864,-86 864,-122"/>
<text text-anchor="middle" x="837" y="-99.8" font-family="Times,serif" font-size="14.00" fill="#000000">Popup</text>
</g>
<!-- Popup&#45;&gt;NIEOSModule -->
<g id="edge3" class="edge">
<title>Popup&#45;&gt;NIEOSModule</title>
<path fill="none" stroke="#000000" d="M837,-122.027C837,-138.3976 837,-160 837,-160 837,-160 696.4613,-160 696.4613,-160"/>
<polygon fill="#000000" stroke="#000000" points="696.4614,-156.5001 686.4613,-160 696.4613,-163.5001 696.4614,-156.5001"/>
</g>
<!-- NIEOSComponent  -->
<g id="node9" class="node">
<title>NIEOSComponent </title>
<polygon fill="#fb8072" stroke="#000000" points="699.0414,-252 572.9586,-252 572.9586,-216 699.0414,-216 699.0414,-252"/>
<text text-anchor="middle" x="636" y="-229.8" font-family="Times,serif" font-size="14.00" fill="#000000">NIEOSComponent </text>
</g>
<!-- NIEOSModule&#45;&gt;NIEOSComponent  -->
<g id="edge8" class="edge">
<title>NIEOSModule&#45;&gt;NIEOSComponent </title>
<path fill="none" stroke="#000000" stroke-dasharray="5,2" d="M636,-187.1061C636,-187.1061 636,-205.991 636,-205.991"/>
<polygon fill="#000000" stroke="#000000" points="632.5001,-205.9909 636,-215.991 639.5001,-205.991 632.5001,-205.9909"/>
</g>
<!-- CreateResourceModule -->
<g id="node5" class="node">
<title>CreateResourceModule</title>
<polygon fill="#8dd3c7" stroke="#000000" points="786.1671,-122 783.1671,-126 762.1671,-126 759.1671,-122 637.8329,-122 637.8329,-86 786.1671,-86 786.1671,-122"/>
<text text-anchor="middle" x="712" y="-99.8" font-family="Times,serif" font-size="14.00" fill="#000000">CreateResourceModule</text>
</g>
<!-- CreateResourceModule&#45;&gt;NIEOSModule -->
<g id="edge4" class="edge">
<title>CreateResourceModule&#45;&gt;NIEOSModule</title>
<path fill="none" stroke="#000000" d="M662.148,-122.1061C662.148,-122.1061 662.148,-140.991 662.148,-140.991"/>
<polygon fill="#000000" stroke="#000000" points="658.648,-140.9909 662.148,-150.991 665.648,-140.991 658.648,-140.9909"/>
</g>
<!-- MyEditionModule -->
<g id="node6" class="node">
<title>MyEditionModule</title>
<polygon fill="#8dd3c7" stroke="#000000" points="620.219,-122 617.219,-126 596.219,-126 593.219,-122 499.781,-122 499.781,-86 620.219,-86 620.219,-122"/>
<text text-anchor="middle" x="560" y="-99.8" font-family="Times,serif" font-size="14.00" fill="#000000">MyEditionModule</text>
</g>
<!-- MyEditionModule&#45;&gt;NIEOSModule -->
<g id="edge5" class="edge">
<title>MyEditionModule&#45;&gt;NIEOSModule</title>
<path fill="none" stroke="#000000" d="M602.865,-122.1061C602.865,-122.1061 602.865,-140.991 602.865,-140.991"/>
<polygon fill="#000000" stroke="#000000" points="599.3651,-140.9909 602.865,-150.991 606.3651,-140.991 599.3651,-140.9909"/>
</g>
<!-- SynopsisModule -->
<g id="node7" class="node">
<title>SynopsisModule</title>
<polygon fill="#8dd3c7" stroke="#000000" points="482.1123,-122 479.1123,-126 458.1123,-126 455.1123,-122 371.8877,-122 371.8877,-86 482.1123,-86 482.1123,-122"/>
<text text-anchor="middle" x="427" y="-99.8" font-family="Times,serif" font-size="14.00" fill="#000000">SynopsisModule</text>
</g>
<!-- SynopsisModule&#45;&gt;NIEOSModule -->
<g id="edge6" class="edge">
<title>SynopsisModule&#45;&gt;NIEOSModule</title>
<path fill="none" stroke="#000000" d="M427,-122.027C427,-138.3976 427,-160 427,-160 427,-160 575.6733,-160 575.6733,-160"/>
<polygon fill="#000000" stroke="#000000" points="575.6734,-163.5001 585.6733,-160 575.6733,-156.5001 575.6734,-163.5001"/>
</g>
<!-- TextViewModule -->
<g id="node8" class="node">
<title>TextViewModule</title>
<polygon fill="#8dd3c7" stroke="#000000" points="353.527,-122 350.527,-126 329.527,-126 326.527,-122 238.473,-122 238.473,-86 353.527,-86 353.527,-122"/>
<text text-anchor="middle" x="296" y="-99.8" font-family="Times,serif" font-size="14.00" fill="#000000">TextViewModule</text>
</g>
<!-- TextViewModule&#45;&gt;NIEOSModule -->
<g id="edge7" class="edge">
<title>TextViewModule&#45;&gt;NIEOSModule</title>
<path fill="none" stroke="#000000" d="M296,-122.1061C296,-141.3391 296,-169 296,-169 296,-169 575.4657,-169 575.4657,-169"/>
<polygon fill="#000000" stroke="#000000" points="575.4657,-172.5001 585.4657,-169 575.4657,-165.5001 575.4657,-172.5001"/>
</g>
<!-- GenerateHashService -->
<g id="node10" class="node">
<title>GenerateHashService</title>
<ellipse fill="#fdb462" stroke="#000000" cx="119" cy="-104" rx="94.8587" ry="18"/>
<text text-anchor="middle" x="119" y="-99.8" font-family="Times,serif" font-size="14.00" fill="#000000">GenerateHashService</text>
</g>
<!-- GenerateHashService&#45;&gt;NIEOSModule -->
<g id="edge9" class="edge">
<title>GenerateHashService&#45;&gt;NIEOSModule</title>
<path fill="none" stroke="#000000" d="M119,-122.2921C119,-144.2057 119,-178 119,-178 119,-178 575.4865,-178 575.4865,-178"/>
<polygon fill="#000000" stroke="#000000" points="575.4866,-181.5001 585.4865,-178 575.4865,-174.5001 575.4866,-181.5001"/>
</g>
</g>
</svg>
