<?xml version="1.0" encoding="UTF-8" standalone="no"?>
<!DOCTYPE svg PUBLIC "-//W3C//DTD SVG 1.1//EN"
 "http://www.w3.org/Graphics/SVG/1.1/DTD/svg11.dtd">
<!-- Generated by graphviz version 2.40.1 (20161225.0304)
 -->
<!-- Title: dependencies Pages: 1 -->
<svg width="658pt" height="284pt"
 viewBox="0.00 0.00 658.00 284.00" xmlns="http://www.w3.org/2000/svg" xmlns:xlink="http://www.w3.org/1999/xlink">
<g id="graph0" class="graph" transform="scale(1 1) rotate(0) translate(4 280)">
<title>dependencies</title>
<polygon fill="#ffffff" stroke="transparent" points="-4,4 -4,-280 654,-280 654,4 -4,4"/>
<text text-anchor="start" x="304.0091" y="-42.4" font-family="sans-serif" font-weight="bold" font-size="14.00" fill="#000000">Legend</text>
<polygon fill="#ffffb3" stroke="transparent" points="91,-10 91,-30 111,-30 111,-10 91,-10"/>
<text text-anchor="start" x="114.629" y="-15.4" font-family="sans-serif" font-size="14.00" fill="#000000"> &#160;Declarations</text>
<polygon fill="#8dd3c7" stroke="transparent" points="204,-10 204,-30 224,-30 224,-10 204,-10"/>
<text text-anchor="start" x="227.7251" y="-15.4" font-family="sans-serif" font-size="14.00" fill="#000000"> &#160;Module</text>
<polygon fill="#80b1d3" stroke="transparent" points="290,-10 290,-30 310,-30 310,-10 290,-10"/>
<text text-anchor="start" x="313.7812" y="-15.4" font-family="sans-serif" font-size="14.00" fill="#000000"> &#160;Bootstrap</text>
<polygon fill="#fdb462" stroke="transparent" points="387,-10 387,-30 407,-30 407,-10 387,-10"/>
<text text-anchor="start" x="410.6732" y="-15.4" font-family="sans-serif" font-size="14.00" fill="#000000"> &#160;Providers</text>
<polygon fill="#fb8072" stroke="transparent" points="483,-10 483,-30 503,-30 503,-10 483,-10"/>
<text text-anchor="start" x="506.7258" y="-15.4" font-family="sans-serif" font-size="14.00" fill="#000000"> &#160;Exports</text>
<g id="clust1" class="cluster">
<title>cluster_ImageFrameModule</title>
<polygon fill="none" stroke="#000000" stroke-dasharray="1,5" points="8,-70 8,-268 642,-268 642,-70 8,-70"/>
</g>
<g id="clust2" class="cluster">
<title>cluster_ImageFrameModule_declarations</title>
<polygon fill="none" stroke="#000000" points="228,-78 228,-130 634,-130 634,-78 228,-78"/>
</g>
<g id="clust6" class="cluster">
<title>cluster_ImageFrameModule_exports</title>
<polygon fill="none" stroke="#000000" points="121,-208 121,-260 533,-260 533,-208 121,-208"/>
</g>
<g id="clust8" class="cluster">
<title>cluster_ImageFrameModule_providers</title>
<polygon fill="none" stroke="#000000" points="16,-78 16,-130 220,-130 220,-78 16,-78"/>
</g>
<!-- ImageFrameSizesComponent -->
<g id="node1" class="node">
<title>ImageFrameSizesComponent</title>
<polygon fill="#ffffb3" stroke="#000000" points="625.6232,-122 444.3768,-122 444.3768,-86 625.6232,-86 625.6232,-122"/>
<text text-anchor="middle" x="535" y="-99.8" font-family="Times,serif" font-size="14.00" fill="#000000">ImageFrameSizesComponent</text>
</g>
<!-- ImageFrameModule -->
<g id="node3" class="node">
<title>ImageFrameModule</title>
<polygon fill="#8dd3c7" stroke="#000000" points="396.2935,-187 393.2935,-191 372.2935,-191 369.2935,-187 265.7065,-187 265.7065,-151 396.2935,-151 396.2935,-187"/>
<text text-anchor="middle" x="331" y="-164.8" font-family="Times,serif" font-size="14.00" fill="#000000">ImageFrameModule</text>
</g>
<!-- ImageFrameSizesComponent&#45;&gt;ImageFrameModule -->
<g id="edge1" class="edge">
<title>ImageFrameSizesComponent&#45;&gt;ImageFrameModule</title>
<path fill="none" stroke="#000000" d="M484.375,-122.1061C484.375,-141.3391 484.375,-169 484.375,-169 484.375,-169 406.4897,-169 406.4897,-169"/>
<polygon fill="#000000" stroke="#000000" points="406.4897,-165.5001 396.4897,-169 406.4897,-172.5001 406.4897,-165.5001"/>
</g>
<!-- ImageWithOverlayComponent -->
<g id="node2" class="node">
<title>ImageWithOverlayComponent</title>
<polygon fill="#ffffb3" stroke="#000000" points="425.896,-122 236.104,-122 236.104,-86 425.896,-86 425.896,-122"/>
<text text-anchor="middle" x="331" y="-99.8" font-family="Times,serif" font-size="14.00" fill="#000000">ImageWithOverlayComponent</text>
</g>
<!-- ImageWithOverlayComponent&#45;&gt;ImageFrameModule -->
<g id="edge2" class="edge">
<title>ImageWithOverlayComponent&#45;&gt;ImageFrameModule</title>
<path fill="none" stroke="#000000" d="M331,-122.1061C331,-122.1061 331,-140.991 331,-140.991"/>
<polygon fill="#000000" stroke="#000000" points="327.5001,-140.9909 331,-150.991 334.5001,-140.991 327.5001,-140.9909"/>
</g>
<!-- ImageFrameSizesComponent  -->
<g id="node4" class="node">
<title>ImageFrameSizesComponent </title>
<polygon fill="#fb8072" stroke="#000000" points="524.6228,-252 339.3772,-252 339.3772,-216 524.6228,-216 524.6228,-252"/>
<text text-anchor="middle" x="432" y="-229.8" font-family="Times,serif" font-size="14.00" fill="#000000">ImageFrameSizesComponent </text>
</g>
<!-- ImageFrameModule&#45;&gt;ImageFrameSizesComponent  -->
<g id="edge3" class="edge">
<title>ImageFrameModule&#45;&gt;ImageFrameSizesComponent </title>
<path fill="none" stroke="#000000" stroke-dasharray="5,2" d="M367.7926,-187.1061C367.7926,-187.1061 367.7926,-205.991 367.7926,-205.991"/>
<polygon fill="#000000" stroke="#000000" points="364.2927,-205.9909 367.7926,-215.991 371.2927,-205.991 364.2927,-205.9909"/>
</g>
<!-- ImageWithOverlayComponent  -->
<g id="node5" class="node">
<title>ImageWithOverlayComponent </title>
<polygon fill="#fb8072" stroke="#000000" points="321.3956,-252 128.6044,-252 128.6044,-216 321.3956,-216 321.3956,-252"/>
<text text-anchor="middle" x="225" y="-229.8" font-family="Times,serif" font-size="14.00" fill="#000000">ImageWithOverlayComponent </text>
</g>
<!-- ImageFrameModule&#45;&gt;ImageWithOverlayComponent  -->
<g id="edge4" class="edge">
<title>ImageFrameModule&#45;&gt;ImageWithOverlayComponent </title>
<path fill="none" stroke="#000000" stroke-dasharray="5,2" d="M293.6506,-187.1061C293.6506,-187.1061 293.6506,-205.991 293.6506,-205.991"/>
<polygon fill="#000000" stroke="#000000" points="290.1507,-205.9909 293.6506,-215.991 297.1507,-205.991 290.1507,-205.9909"/>
</g>
<!-- RegionToSvgService -->
<g id="node6" class="node">
<title>RegionToSvgService</title>
<ellipse fill="#fdb462" stroke="#000000" cx="118" cy="-104" rx="93.7823" ry="18"/>
<text text-anchor="middle" x="118" y="-99.8" font-family="Times,serif" font-size="14.00" fill="#000000">RegionToSvgService</text>
</g>
<!-- RegionToSvgService&#45;&gt;ImageFrameModule -->
<g id="edge5" class="edge">
<title>RegionToSvgService&#45;&gt;ImageFrameModule</title>
<path fill="none" stroke="#000000" d="M170.0966,-119.0757C170.0966,-138.2773 170.0966,-169 170.0966,-169 170.0966,-169 255.5544,-169 255.5544,-169"/>
<polygon fill="#000000" stroke="#000000" points="255.5545,-172.5001 265.5544,-169 255.5544,-165.5001 255.5545,-172.5001"/>
</g>
</g>
</svg>
