<?xml version="1.0" encoding="UTF-8" standalone="no"?>
<!DOCTYPE svg PUBLIC "-//W3C//DTD SVG 1.1//EN"
 "http://www.w3.org/Graphics/SVG/1.1/DTD/svg11.dtd">
<!-- Generated by graphviz version 2.40.1 (20161225.0304)
 -->
<!-- Title: dependencies Pages: 1 -->
<svg width="625pt" height="284pt"
 viewBox="0.00 0.00 625.00 284.00" xmlns="http://www.w3.org/2000/svg" xmlns:xlink="http://www.w3.org/1999/xlink">
<g id="graph0" class="graph" transform="scale(1 1) rotate(0) translate(4 280)">
<title>dependencies</title>
<polygon fill="#ffffff" stroke="transparent" points="-4,4 -4,-280 621,-280 621,4 -4,4"/>
<text text-anchor="start" x="287.5091" y="-42.4" font-family="sans-serif" font-weight="bold" font-size="14.00" fill="#000000">Legend</text>
<polygon fill="#ffffb3" stroke="transparent" points="74.5,-10 74.5,-30 94.5,-30 94.5,-10 74.5,-10"/>
<text text-anchor="start" x="98.129" y="-15.4" font-family="sans-serif" font-size="14.00" fill="#000000"> &#160;Declarations</text>
<polygon fill="#8dd3c7" stroke="transparent" points="187.5,-10 187.5,-30 207.5,-30 207.5,-10 187.5,-10"/>
<text text-anchor="start" x="211.2251" y="-15.4" font-family="sans-serif" font-size="14.00" fill="#000000"> &#160;Module</text>
<polygon fill="#80b1d3" stroke="transparent" points="273.5,-10 273.5,-30 293.5,-30 293.5,-10 273.5,-10"/>
<text text-anchor="start" x="297.2812" y="-15.4" font-family="sans-serif" font-size="14.00" fill="#000000"> &#160;Bootstrap</text>
<polygon fill="#fdb462" stroke="transparent" points="370.5,-10 370.5,-30 390.5,-30 390.5,-10 370.5,-10"/>
<text text-anchor="start" x="394.1732" y="-15.4" font-family="sans-serif" font-size="14.00" fill="#000000"> &#160;Providers</text>
<polygon fill="#fb8072" stroke="transparent" points="466.5,-10 466.5,-30 486.5,-30 486.5,-10 466.5,-10"/>
<text text-anchor="start" x="490.2258" y="-15.4" font-family="sans-serif" font-size="14.00" fill="#000000"> &#160;Exports</text>
<g id="clust1" class="cluster">
<title>cluster_ImageFrameModule</title>
<polygon fill="none" stroke="#000000" stroke-dasharray="1,5" points="8,-70 8,-268 609,-268 609,-70 8,-70"/>
</g>
<g id="clust2" class="cluster">
<title>cluster_ImageFrameModule_declarations</title>
<polygon fill="none" stroke="#000000" points="20,-78 20,-130 596,-130 596,-78 20,-78"/>
</g>
<g id="clust7" class="cluster">
<title>cluster_ImageFrameModule_exports</title>
<polygon fill="none" stroke="#000000" points="16,-208 16,-260 601,-260 601,-208 16,-208"/>
</g>
<!-- ImageFrameComponent -->
<g id="node1" class="node">
<title>ImageFrameComponent</title>
<polygon fill="#ffffb3" stroke="#000000" points="588.0758,-122 435.9242,-122 435.9242,-86 588.0758,-86 588.0758,-122"/>
<text text-anchor="middle" x="512" y="-99.8" font-family="Times,serif" font-size="14.00" fill="#000000">ImageFrameComponent</text>
</g>
<!-- ImageFrameModule -->
<g id="node4" class="node">
<title>ImageFrameModule</title>
<polygon fill="#8dd3c7" stroke="#000000" points="392.2935,-187 389.2935,-191 368.2935,-191 365.2935,-187 261.7065,-187 261.7065,-151 392.2935,-151 392.2935,-187"/>
<text text-anchor="middle" x="327" y="-164.8" font-family="Times,serif" font-size="14.00" fill="#000000">ImageFrameModule</text>
</g>
<!-- ImageFrameComponent&#45;&gt;ImageFrameModule -->
<g id="edge1" class="edge">
<title>ImageFrameComponent&#45;&gt;ImageFrameModule</title>
<path fill="none" stroke="#000000" d="M537.7626,-122.0225C537.7626,-139.3734 537.7626,-163 537.7626,-163 537.7626,-163 402.2432,-163 402.2432,-163"/>
<polygon fill="#000000" stroke="#000000" points="402.2433,-159.5001 392.2432,-163 402.2432,-166.5001 402.2433,-159.5001"/>
</g>
<!-- ImageFrameSizesComponent -->
<g id="node2" class="node">
<title>ImageFrameSizesComponent</title>
<polygon fill="#ffffb3" stroke="#000000" points="417.6232,-122 236.3768,-122 236.3768,-86 417.6232,-86 417.6232,-122"/>
<text text-anchor="middle" x="327" y="-99.8" font-family="Times,serif" font-size="14.00" fill="#000000">ImageFrameSizesComponent</text>
</g>
<!-- ImageFrameSizesComponent&#45;&gt;ImageFrameModule -->
<g id="edge2" class="edge">
<title>ImageFrameSizesComponent&#45;&gt;ImageFrameModule</title>
<path fill="none" stroke="#000000" d="M327,-122.1061C327,-122.1061 327,-140.991 327,-140.991"/>
<polygon fill="#000000" stroke="#000000" points="323.5001,-140.9909 327,-150.991 330.5001,-140.991 323.5001,-140.9909"/>
</g>
<!-- ImageWithOverlayComponent -->
<g id="node3" class="node">
<title>ImageWithOverlayComponent</title>
<polygon fill="#ffffb3" stroke="#000000" points="217.896,-122 28.104,-122 28.104,-86 217.896,-86 217.896,-122"/>
<text text-anchor="middle" x="123" y="-99.8" font-family="Times,serif" font-size="14.00" fill="#000000">ImageWithOverlayComponent</text>
</g>
<!-- ImageWithOverlayComponent&#45;&gt;ImageFrameModule -->
<g id="edge3" class="edge">
<title>ImageWithOverlayComponent&#45;&gt;ImageFrameModule</title>
<path fill="none" stroke="#000000" d="M153.7326,-122.0225C153.7326,-139.3734 153.7326,-163 153.7326,-163 153.7326,-163 251.495,-163 251.495,-163"/>
<polygon fill="#000000" stroke="#000000" points="251.4951,-166.5001 261.495,-163 251.495,-159.5001 251.4951,-166.5001"/>
</g>
<!-- ImageFrameComponent  -->
<g id="node5" class="node">
<title>ImageFrameComponent </title>
<polygon fill="#fb8072" stroke="#000000" points="592.5764,-252 437.4236,-252 437.4236,-216 592.5764,-216 592.5764,-252"/>
<text text-anchor="middle" x="515" y="-229.8" font-family="Times,serif" font-size="14.00" fill="#000000">ImageFrameComponent </text>
</g>
<!-- ImageFrameModule&#45;&gt;ImageFrameComponent  -->
<g id="edge4" class="edge">
<title>ImageFrameModule&#45;&gt;ImageFrameComponent </title>
<path fill="none" stroke="#000000" stroke-dasharray="5,2" d="M392.2764,-175C436.7082,-175 487.4874,-175 487.4874,-175 487.4874,-175 487.4874,-205.9775 487.4874,-205.9775"/>
<polygon fill="#000000" stroke="#000000" points="483.9875,-205.9774 487.4874,-215.9775 490.9875,-205.9775 483.9875,-205.9774"/>
</g>
<!-- ImageFrameSizesComponent  -->
<g id="node6" class="node">
<title>ImageFrameSizesComponent </title>
<polygon fill="#fb8072" stroke="#000000" points="419.6228,-252 234.3772,-252 234.3772,-216 419.6228,-216 419.6228,-252"/>
<text text-anchor="middle" x="327" y="-229.8" font-family="Times,serif" font-size="14.00" fill="#000000">ImageFrameSizesComponent </text>
</g>
<!-- ImageFrameModule&#45;&gt;ImageFrameSizesComponent  -->
<g id="edge5" class="edge">
<title>ImageFrameModule&#45;&gt;ImageFrameSizesComponent </title>
<path fill="none" stroke="#000000" stroke-dasharray="5,2" d="M327,-187.1061C327,-187.1061 327,-205.991 327,-205.991"/>
<polygon fill="#000000" stroke="#000000" points="323.5001,-205.9909 327,-215.991 330.5001,-205.991 323.5001,-205.9909"/>
</g>
<!-- ImageWithOverlayComponent  -->
<g id="node7" class="node">
<title>ImageWithOverlayComponent </title>
<polygon fill="#fb8072" stroke="#000000" points="216.3956,-252 23.6044,-252 23.6044,-216 216.3956,-216 216.3956,-252"/>
<text text-anchor="middle" x="120" y="-229.8" font-family="Times,serif" font-size="14.00" fill="#000000">ImageWithOverlayComponent </text>
</g>
<!-- ImageFrameModule&#45;&gt;ImageWithOverlayComponent  -->
<g id="edge6" class="edge">
<title>ImageFrameModule&#45;&gt;ImageWithOverlayComponent </title>
<path fill="none" stroke="#000000" stroke-dasharray="5,2" d="M261.5791,-175C191.7412,-175 91.0174,-175 91.0174,-175 91.0174,-175 91.0174,-205.9775 91.0174,-205.9775"/>
<polygon fill="#000000" stroke="#000000" points="87.5175,-205.9774 91.0174,-215.9775 94.5175,-205.9775 87.5175,-205.9774"/>
</g>
</g>
</svg>
