<?xml version="1.0" encoding="UTF-8" standalone="no"?>
<!DOCTYPE svg PUBLIC "-//W3C//DTD SVG 1.1//EN"
 "http://www.w3.org/Graphics/SVG/1.1/DTD/svg11.dtd">
<!-- Generated by graphviz version 2.47.0 (20210316.0004)
 -->
<!-- Title: dependencies Pages: 1 -->
<svg width="1692pt" height="284pt"
 viewBox="0.00 0.00 1692.00 284.00" xmlns="http://www.w3.org/2000/svg" xmlns:xlink="http://www.w3.org/1999/xlink">
<g id="graph0" class="graph" transform="scale(1 1) rotate(0) translate(4 280)">
<title>dependencies</title>
<polygon fill="white" stroke="transparent" points="-4,4 -4,-280 1688,-280 1688,4 -4,4"/>
<text text-anchor="start" x="821.01" y="-42.4" font-family="sans-serif" font-weight="bold" font-size="14.00">Legend</text>
<polygon fill="#ffffb3" stroke="transparent" points="608,-10 608,-30 628,-30 628,-10 608,-10"/>
<text text-anchor="start" x="631.63" y="-15.4" font-family="sans-serif" font-size="14.00"> &#160;Declarations</text>
<polygon fill="#8dd3c7" stroke="transparent" points="721,-10 721,-30 741,-30 741,-10 721,-10"/>
<text text-anchor="start" x="744.73" y="-15.4" font-family="sans-serif" font-size="14.00"> &#160;Module</text>
<polygon fill="#80b1d3" stroke="transparent" points="807,-10 807,-30 827,-30 827,-10 807,-10"/>
<text text-anchor="start" x="830.78" y="-15.4" font-family="sans-serif" font-size="14.00"> &#160;Bootstrap</text>
<polygon fill="#fdb462" stroke="transparent" points="904,-10 904,-30 924,-30 924,-10 904,-10"/>
<text text-anchor="start" x="927.67" y="-15.4" font-family="sans-serif" font-size="14.00"> &#160;Providers</text>
<polygon fill="#fb8072" stroke="transparent" points="1000,-10 1000,-30 1020,-30 1020,-10 1000,-10"/>
<text text-anchor="start" x="1023.73" y="-15.4" font-family="sans-serif" font-size="14.00"> &#160;Exports</text>
<g id="clust1" class="cluster">
<title>cluster_DashboardModule</title>
<polygon fill="none" stroke="black" stroke-dasharray="1,5" points="8,-70 8,-268 1676,-268 1676,-70 8,-70"/>
</g>
<g id="clust10" class="cluster">
<title>cluster_DashboardModule_imports</title>
<polygon fill="none" stroke="black" points="1410,-78 1410,-130 1668,-130 1668,-78 1410,-78"/>
</g>
<g id="clust2" class="cluster">
<title>cluster_DashboardModule_declarations</title>
<polygon fill="none" stroke="black" points="230,-78 230,-130 1402,-130 1402,-78 230,-78"/>
</g>
<g id="clust11" class="cluster">
<title>cluster_DashboardModule_exports</title>
<polygon fill="none" stroke="black" points="720,-208 720,-260 1025,-260 1025,-208 720,-208"/>
</g>
<g id="clust13" class="cluster">
<title>cluster_DashboardModule_providers</title>
<polygon fill="none" stroke="black" points="16,-78 16,-130 222,-130 222,-78 16,-78"/>
</g>
<!-- DashboardComponent -->
<g id="node1" class="node">
<title>DashboardComponent</title>
<polygon fill="#ffffb3" stroke="black" points="1393.97,-122 1252.03,-122 1252.03,-86 1393.97,-86 1393.97,-122"/>
<text text-anchor="middle" x="1323" y="-99.8" font-family="Times,serif" font-size="14.00">DashboardComponent</text>
</g>
<!-- DashboardModule -->
<g id="node8" class="node">
<title>DashboardModule</title>
<polygon fill="#8dd3c7" stroke="black" points="927.19,-187 924.19,-191 903.19,-191 900.19,-187 806.81,-187 806.81,-151 927.19,-151 927.19,-187"/>
<text text-anchor="middle" x="867" y="-164.8" font-family="Times,serif" font-size="14.00">DashboardModule</text>
</g>
<!-- DashboardComponent&#45;&gt;DashboardModule -->
<g id="edge1" class="edge">
<title>DashboardComponent&#45;&gt;DashboardModule</title>
<path fill="none" stroke="black" d="M1323,-122.27C1323,-140.56 1323,-166 1323,-166 1323,-166 937.55,-166 937.55,-166"/>
<polygon fill="black" stroke="black" points="937.55,-162.5 927.55,-166 937.55,-169.5 937.55,-162.5"/>
</g>
<!-- DeleteActionComponent -->
<g id="node2" class="node">
<title>DeleteActionComponent</title>
<polygon fill="#ffffb3" stroke="black" points="1233.97,-122 1078.03,-122 1078.03,-86 1233.97,-86 1233.97,-122"/>
<text text-anchor="middle" x="1156" y="-99.8" font-family="Times,serif" font-size="14.00">DeleteActionComponent</text>
</g>
<!-- DeleteActionComponent&#45;&gt;DashboardModule -->
<g id="edge2" class="edge">
<title>DeleteActionComponent&#45;&gt;DashboardModule</title>
<path fill="none" stroke="black" d="M1156,-122.01C1156,-138.05 1156,-159 1156,-159 1156,-159 937.23,-159 937.23,-159"/>
<polygon fill="black" stroke="black" points="937.23,-155.5 927.23,-159 937.23,-162.5 937.23,-155.5"/>
</g>
<!-- DialogOverviewExampleDialog -->
<g id="node3" class="node">
<title>DialogOverviewExampleDialog</title>
<polygon fill="#ffffb3" stroke="black" points="1059.66,-122 862.34,-122 862.34,-86 1059.66,-86 1059.66,-122"/>
<text text-anchor="middle" x="961" y="-99.8" font-family="Times,serif" font-size="14.00">DialogOverviewExampleDialog</text>
</g>
<!-- DialogOverviewExampleDialog&#45;&gt;DashboardModule -->
<g id="edge3" class="edge">
<title>DialogOverviewExampleDialog&#45;&gt;DashboardModule</title>
<path fill="none" stroke="black" d="M894.76,-122.11C894.76,-122.11 894.76,-140.99 894.76,-140.99"/>
<polygon fill="black" stroke="black" points="891.26,-140.99 894.76,-150.99 898.26,-140.99 891.26,-140.99"/>
</g>
<!-- EditActionComponent -->
<g id="node4" class="node">
<title>EditActionComponent</title>
<polygon fill="#ffffb3" stroke="black" points="844.27,-122 701.73,-122 701.73,-86 844.27,-86 844.27,-122"/>
<text text-anchor="middle" x="773" y="-99.8" font-family="Times,serif" font-size="14.00">EditActionComponent</text>
</g>
<!-- EditActionComponent&#45;&gt;DashboardModule -->
<g id="edge4" class="edge">
<title>EditActionComponent&#45;&gt;DashboardModule</title>
<path fill="none" stroke="black" d="M825.64,-122.11C825.64,-122.11 825.64,-140.99 825.64,-140.99"/>
<polygon fill="black" stroke="black" points="822.14,-140.99 825.64,-150.99 829.14,-140.99 822.14,-140.99"/>
</g>
<!-- HeaderComponent -->
<g id="node5" class="node">
<title>HeaderComponent</title>
<polygon fill="#ffffb3" stroke="black" points="683.74,-122 562.26,-122 562.26,-86 683.74,-86 683.74,-122"/>
<text text-anchor="middle" x="623" y="-99.8" font-family="Times,serif" font-size="14.00">HeaderComponent</text>
</g>
<!-- HeaderComponent&#45;&gt;DashboardModule -->
<g id="edge5" class="edge">
<title>HeaderComponent&#45;&gt;DashboardModule</title>
<path fill="none" stroke="black" d="M623,-122.01C623,-138.05 623,-159 623,-159 623,-159 796.69,-159 796.69,-159"/>
<polygon fill="black" stroke="black" points="796.69,-162.5 806.69,-159 796.69,-155.5 796.69,-162.5"/>
</g>
<!-- ImpressumComponent -->
<g id="node6" class="node">
<title>ImpressumComponent</title>
<polygon fill="#ffffb3" stroke="black" points="543.54,-122 400.46,-122 400.46,-86 543.54,-86 543.54,-122"/>
<text text-anchor="middle" x="472" y="-99.8" font-family="Times,serif" font-size="14.00">ImpressumComponent</text>
</g>
<!-- ImpressumComponent&#45;&gt;DashboardModule -->
<g id="edge6" class="edge">
<title>ImpressumComponent&#45;&gt;DashboardModule</title>
<path fill="none" stroke="black" d="M472,-122.27C472,-140.56 472,-166 472,-166 472,-166 796.58,-166 796.58,-166"/>
<polygon fill="black" stroke="black" points="796.58,-169.5 806.58,-166 796.58,-162.5 796.58,-169.5"/>
</g>
<!-- UserGroupComponent -->
<g id="node7" class="node">
<title>UserGroupComponent</title>
<polygon fill="#ffffb3" stroke="black" points="381.53,-122 238.47,-122 238.47,-86 381.53,-86 381.53,-122"/>
<text text-anchor="middle" x="310" y="-99.8" font-family="Times,serif" font-size="14.00">UserGroupComponent</text>
</g>
<!-- UserGroupComponent&#45;&gt;DashboardModule -->
<g id="edge7" class="edge">
<title>UserGroupComponent&#45;&gt;DashboardModule</title>
<path fill="none" stroke="black" d="M310,-122.13C310,-142.57 310,-173 310,-173 310,-173 796.86,-173 796.86,-173"/>
<polygon fill="black" stroke="black" points="796.86,-176.5 806.86,-173 796.86,-169.5 796.86,-176.5"/>
</g>
<!-- DashboardComponent  -->
<g id="node11" class="node">
<title>DashboardComponent </title>
<polygon fill="#fb8072" stroke="black" points="1016.97,-252 871.03,-252 871.03,-216 1016.97,-216 1016.97,-252"/>
<text text-anchor="middle" x="944" y="-229.8" font-family="Times,serif" font-size="14.00">DashboardComponent </text>
</g>
<!-- DashboardModule&#45;&gt;DashboardComponent  -->
<g id="edge10" class="edge">
<title>DashboardModule&#45;&gt;DashboardComponent </title>
<path fill="none" stroke="black" stroke-dasharray="5,2" d="M899.18,-187.11C899.18,-187.11 899.18,-205.99 899.18,-205.99"/>
<polygon fill="black" stroke="black" points="895.68,-205.99 899.18,-215.99 902.68,-205.99 895.68,-205.99"/>
</g>
<!-- HeaderComponent  -->
<g id="node12" class="node">
<title>HeaderComponent </title>
<polygon fill="#fb8072" stroke="black" points="853.74,-252 728.26,-252 728.26,-216 853.74,-216 853.74,-252"/>
<text text-anchor="middle" x="791" y="-229.8" font-family="Times,serif" font-size="14.00">HeaderComponent </text>
</g>
<!-- DashboardModule&#45;&gt;HeaderComponent  -->
<g id="edge11" class="edge">
<title>DashboardModule&#45;&gt;HeaderComponent </title>
<path fill="none" stroke="black" stroke-dasharray="5,2" d="M830.26,-187.11C830.26,-187.11 830.26,-205.99 830.26,-205.99"/>
<polygon fill="black" stroke="black" points="826.76,-205.99 830.26,-215.99 833.76,-205.99 826.76,-205.99"/>
</g>
<!-- NIEOSModule -->
<g id="node9" class="node">
<title>NIEOSModule</title>
<polygon fill="#8dd3c7" stroke="black" points="1660.26,-122 1657.26,-126 1636.26,-126 1633.26,-122 1559.74,-122 1559.74,-86 1660.26,-86 1660.26,-122"/>
<text text-anchor="middle" x="1610" y="-99.8" font-family="Times,serif" font-size="14.00">NIEOSModule</text>
</g>
<!-- NIEOSModule&#45;&gt;DashboardModule -->
<g id="edge8" class="edge">
<title>NIEOSModule&#45;&gt;DashboardModule</title>
<path fill="none" stroke="black" d="M1610,-122.01C1610,-144.49 1610,-180 1610,-180 1610,-180 937.17,-180 937.17,-180"/>
<polygon fill="black" stroke="black" points="937.17,-176.5 927.17,-180 937.17,-183.5 937.17,-176.5"/>
</g>
<!-- StaticPagesModule -->
<g id="node10" class="node">
<title>StaticPagesModule</title>
<polygon fill="#8dd3c7" stroke="black" points="1542.09,-122 1539.09,-126 1518.09,-126 1515.09,-122 1417.91,-122 1417.91,-86 1542.09,-86 1542.09,-122"/>
<text text-anchor="middle" x="1480" y="-99.8" font-family="Times,serif" font-size="14.00">StaticPagesModule</text>
</g>
<!-- StaticPagesModule&#45;&gt;DashboardModule -->
<g id="edge9" class="edge">
<title>StaticPagesModule&#45;&gt;DashboardModule</title>
<path fill="none" stroke="black" d="M1480,-122.13C1480,-142.57 1480,-173 1480,-173 1480,-173 937.17,-173 937.17,-173"/>
<polygon fill="black" stroke="black" points="937.17,-169.5 927.17,-173 937.17,-176.5 937.17,-169.5"/>
</g>
<!-- TermsAndConditions -->
<g id="node13" class="node">
<title>TermsAndConditions</title>
<ellipse fill="#fdb462" stroke="black" cx="119" cy="-104" rx="94.95" ry="18"/>
<text text-anchor="middle" x="119" y="-99.8" font-family="Times,serif" font-size="14.00">TermsAndConditions</text>
</g>
<!-- TermsAndConditions&#45;&gt;DashboardModule -->
<g id="edge12" class="edge">
<title>TermsAndConditions&#45;&gt;DashboardModule</title>
<path fill="none" stroke="black" d="M119,-122.01C119,-144.49 119,-180 119,-180 119,-180 796.74,-180 796.74,-180"/>
<polygon fill="black" stroke="black" points="796.74,-183.5 806.74,-180 796.74,-176.5 796.74,-183.5"/>
</g>
</g>
</svg>
