<?xml version="1.0" encoding="UTF-8" standalone="no"?>
<!DOCTYPE svg PUBLIC "-//W3C//DTD SVG 1.1//EN"
 "http://www.w3.org/Graphics/SVG/1.1/DTD/svg11.dtd">
<!-- Generated by graphviz version 2.40.1 (20161225.0304)
 -->
<!-- Title: dependencies Pages: 1 -->
<svg width="748pt" height="211pt"
 viewBox="0.00 0.00 748.00 211.00" xmlns="http://www.w3.org/2000/svg" xmlns:xlink="http://www.w3.org/1999/xlink">
<g id="graph0" class="graph" transform="scale(1 1) rotate(0) translate(4 207)">
<title>dependencies</title>
<polygon fill="#ffffff" stroke="transparent" points="-4,4 -4,-207 744,-207 744,4 -4,4"/>
<text text-anchor="start" x="349.0091" y="-42.4" font-family="sans-serif" font-weight="bold" font-size="14.00" fill="#000000">Legend</text>
<polygon fill="#ffffb3" stroke="transparent" points="136,-10 136,-30 156,-30 156,-10 136,-10"/>
<text text-anchor="start" x="159.629" y="-15.4" font-family="sans-serif" font-size="14.00" fill="#000000"> &#160;Declarations</text>
<polygon fill="#8dd3c7" stroke="transparent" points="249,-10 249,-30 269,-30 269,-10 249,-10"/>
<text text-anchor="start" x="272.7251" y="-15.4" font-family="sans-serif" font-size="14.00" fill="#000000"> &#160;Module</text>
<polygon fill="#80b1d3" stroke="transparent" points="335,-10 335,-30 355,-30 355,-10 335,-10"/>
<text text-anchor="start" x="358.7812" y="-15.4" font-family="sans-serif" font-size="14.00" fill="#000000"> &#160;Bootstrap</text>
<polygon fill="#fdb462" stroke="transparent" points="432,-10 432,-30 452,-30 452,-10 432,-10"/>
<text text-anchor="start" x="455.6732" y="-15.4" font-family="sans-serif" font-size="14.00" fill="#000000"> &#160;Providers</text>
<polygon fill="#fb8072" stroke="transparent" points="528,-10 528,-30 548,-30 548,-10 528,-10"/>
<text text-anchor="start" x="551.7258" y="-15.4" font-family="sans-serif" font-size="14.00" fill="#000000"> &#160;Exports</text>
<g id="clust1" class="cluster">
<title>cluster_DashboardModule</title>
<polygon fill="none" stroke="#000000" stroke-dasharray="1,5" points="8,-70 8,-195 732,-195 732,-70 8,-70"/>
</g>
<g id="clust2" class="cluster">
<title>cluster_DashboardModule_declarations</title>
<polygon fill="none" stroke="#000000" points="16,-78 16,-130 724,-130 724,-78 16,-78"/>
</g>
<!-- DashboardComponent -->
<g id="node1" class="node">
<title>DashboardComponent</title>
<polygon fill="#ffffb3" stroke="#000000" points="715.9734,-122 574.0266,-122 574.0266,-86 715.9734,-86 715.9734,-122"/>
<text text-anchor="middle" x="645" y="-99.8" font-family="Times,serif" font-size="14.00" fill="#000000">DashboardComponent</text>
</g>
<!-- DashboardModule -->
<g id="node5" class="node">
<title>DashboardModule</title>
<polygon fill="#8dd3c7" stroke="#000000" points="440.191,-187 437.191,-191 416.191,-191 413.191,-187 319.809,-187 319.809,-151 440.191,-151 440.191,-187"/>
<text text-anchor="middle" x="380" y="-164.8" font-family="Times,serif" font-size="14.00" fill="#000000">DashboardModule</text>
</g>
<!-- DashboardComponent&#45;&gt;DashboardModule -->
<g id="edge1" class="edge">
<title>DashboardComponent&#45;&gt;DashboardModule</title>
<path fill="none" stroke="#000000" d="M645,-122.1061C645,-141.3391 645,-169 645,-169 645,-169 450.1326,-169 450.1326,-169"/>
<polygon fill="#000000" stroke="#000000" points="450.1326,-165.5001 440.1326,-169 450.1326,-172.5001 450.1326,-165.5001"/>
</g>
<!-- DeleteActionComponent -->
<g id="node2" class="node">
<title>DeleteActionComponent</title>
<polygon fill="#ffffb3" stroke="#000000" points="555.9664,-122 400.0336,-122 400.0336,-86 555.9664,-86 555.9664,-122"/>
<text text-anchor="middle" x="478" y="-99.8" font-family="Times,serif" font-size="14.00" fill="#000000">DeleteActionComponent</text>
</g>
<!-- DeleteActionComponent&#45;&gt;DashboardModule -->
<g id="edge2" class="edge">
<title>DeleteActionComponent&#45;&gt;DashboardModule</title>
<path fill="none" stroke="#000000" d="M420.0561,-122.1061C420.0561,-122.1061 420.0561,-140.991 420.0561,-140.991"/>
<polygon fill="#000000" stroke="#000000" points="416.5562,-140.9909 420.0561,-150.991 423.5562,-140.991 416.5562,-140.9909"/>
</g>
<!-- DialogOverviewExampleDialog -->
<g id="node3" class="node">
<title>DialogOverviewExampleDialog</title>
<polygon fill="#ffffb3" stroke="#000000" points="381.6615,-122 184.3385,-122 184.3385,-86 381.6615,-86 381.6615,-122"/>
<text text-anchor="middle" x="283" y="-99.8" font-family="Times,serif" font-size="14.00" fill="#000000">DialogOverviewExampleDialog</text>
</g>
<!-- DialogOverviewExampleDialog&#45;&gt;DashboardModule -->
<g id="edge3" class="edge">
<title>DialogOverviewExampleDialog&#45;&gt;DashboardModule</title>
<path fill="none" stroke="#000000" d="M350.7427,-122.1061C350.7427,-122.1061 350.7427,-140.991 350.7427,-140.991"/>
<polygon fill="#000000" stroke="#000000" points="347.2427,-140.9909 350.7427,-150.991 354.2427,-140.991 347.2427,-140.9909"/>
</g>
<!-- EditActionComponent -->
<g id="node4" class="node">
<title>EditActionComponent</title>
<polygon fill="#ffffb3" stroke="#000000" points="166.2688,-122 23.7312,-122 23.7312,-86 166.2688,-86 166.2688,-122"/>
<text text-anchor="middle" x="95" y="-99.8" font-family="Times,serif" font-size="14.00" fill="#000000">EditActionComponent</text>
</g>
<!-- EditActionComponent&#45;&gt;DashboardModule -->
<g id="edge4" class="edge">
<title>EditActionComponent&#45;&gt;DashboardModule</title>
<path fill="none" stroke="#000000" d="M95,-122.1061C95,-141.3391 95,-169 95,-169 95,-169 309.5588,-169 309.5588,-169"/>
<polygon fill="#000000" stroke="#000000" points="309.5589,-172.5001 319.5588,-169 309.5588,-165.5001 309.5589,-172.5001"/>
</g>
</g>
</svg>
