<?xml version="1.0" encoding="UTF-8" standalone="no"?>
<!DOCTYPE svg PUBLIC "-//W3C//DTD SVG 1.1//EN"
 "http://www.w3.org/Graphics/SVG/1.1/DTD/svg11.dtd">
<!-- Generated by graphviz version 2.40.1 (20161225.0304)
 -->
<!-- Title: dependencies Pages: 1 -->
<svg width="1198pt" height="284pt"
 viewBox="0.00 0.00 1198.00 284.00" xmlns="http://www.w3.org/2000/svg" xmlns:xlink="http://www.w3.org/1999/xlink">
<g id="graph0" class="graph" transform="scale(1 1) rotate(0) translate(4 280)">
<title>dependencies</title>
<polygon fill="#ffffff" stroke="transparent" points="-4,4 -4,-280 1194,-280 1194,4 -4,4"/>
<text text-anchor="start" x="574.0091" y="-42.4" font-family="sans-serif" font-weight="bold" font-size="14.00" fill="#000000">Legend</text>
<polygon fill="#ffffb3" stroke="transparent" points="361,-10 361,-30 381,-30 381,-10 361,-10"/>
<text text-anchor="start" x="384.629" y="-15.4" font-family="sans-serif" font-size="14.00" fill="#000000"> &#160;Declarations</text>
<polygon fill="#8dd3c7" stroke="transparent" points="474,-10 474,-30 494,-30 494,-10 474,-10"/>
<text text-anchor="start" x="497.7251" y="-15.4" font-family="sans-serif" font-size="14.00" fill="#000000"> &#160;Module</text>
<polygon fill="#80b1d3" stroke="transparent" points="560,-10 560,-30 580,-30 580,-10 560,-10"/>
<text text-anchor="start" x="583.7812" y="-15.4" font-family="sans-serif" font-size="14.00" fill="#000000"> &#160;Bootstrap</text>
<polygon fill="#fdb462" stroke="transparent" points="657,-10 657,-30 677,-30 677,-10 657,-10"/>
<text text-anchor="start" x="680.6732" y="-15.4" font-family="sans-serif" font-size="14.00" fill="#000000"> &#160;Providers</text>
<polygon fill="#fb8072" stroke="transparent" points="753,-10 753,-30 773,-30 773,-10 753,-10"/>
<text text-anchor="start" x="776.7258" y="-15.4" font-family="sans-serif" font-size="14.00" fill="#000000"> &#160;Exports</text>
<g id="clust1" class="cluster">
<title>cluster_DashboardModule</title>
<polygon fill="none" stroke="#000000" stroke-dasharray="1,5" points="8,-70 8,-268 1182,-268 1182,-70 8,-70"/>
</g>
<g id="clust2" class="cluster">
<title>cluster_DashboardModule_declarations</title>
<polygon fill="none" stroke="#000000" points="164,-78 164,-130 1174,-130 1174,-78 164,-78"/>
</g>
<g id="clust9" class="cluster">
<title>cluster_DashboardModule_imports</title>
<polygon fill="none" stroke="#000000" points="16,-78 16,-130 156,-130 156,-78 16,-78"/>
</g>
<g id="clust10" class="cluster">
<title>cluster_DashboardModule_exports</title>
<polygon fill="none" stroke="#000000" points="398,-208 398,-260 703,-260 703,-208 398,-208"/>
</g>
<!-- DashboardComponent -->
<g id="node1" class="node">
<title>DashboardComponent</title>
<polygon fill="#ffffb3" stroke="#000000" points="1165.9734,-122 1024.0266,-122 1024.0266,-86 1165.9734,-86 1165.9734,-122"/>
<text text-anchor="middle" x="1095" y="-99.8" font-family="Times,serif" font-size="14.00" fill="#000000">DashboardComponent</text>
</g>
<!-- DashboardModule -->
<g id="node7" class="node">
<title>DashboardModule</title>
<polygon fill="#8dd3c7" stroke="#000000" points="605.191,-187 602.191,-191 581.191,-191 578.191,-187 484.809,-187 484.809,-151 605.191,-151 605.191,-187"/>
<text text-anchor="middle" x="545" y="-164.8" font-family="Times,serif" font-size="14.00" fill="#000000">DashboardModule</text>
</g>
<!-- DashboardComponent&#45;&gt;DashboardModule -->
<g id="edge1" class="edge">
<title>DashboardComponent&#45;&gt;DashboardModule</title>
<path fill="none" stroke="#000000" d="M1095,-122.2921C1095,-144.2057 1095,-178 1095,-178 1095,-178 615.1695,-178 615.1695,-178"/>
<polygon fill="#000000" stroke="#000000" points="615.1696,-174.5001 605.1695,-178 615.1695,-181.5001 615.1696,-174.5001"/>
</g>
<!-- DeleteActionComponent -->
<g id="node2" class="node">
<title>DeleteActionComponent</title>
<polygon fill="#ffffb3" stroke="#000000" points="1005.9664,-122 850.0336,-122 850.0336,-86 1005.9664,-86 1005.9664,-122"/>
<text text-anchor="middle" x="928" y="-99.8" font-family="Times,serif" font-size="14.00" fill="#000000">DeleteActionComponent</text>
</g>
<!-- DeleteActionComponent&#45;&gt;DashboardModule -->
<g id="edge2" class="edge">
<title>DeleteActionComponent&#45;&gt;DashboardModule</title>
<path fill="none" stroke="#000000" d="M928,-122.1061C928,-141.3391 928,-169 928,-169 928,-169 615.2651,-169 615.2651,-169"/>
<polygon fill="#000000" stroke="#000000" points="615.2651,-165.5001 605.2651,-169 615.265,-172.5001 615.2651,-165.5001"/>
</g>
<!-- DialogOverviewExampleDialog -->
<g id="node3" class="node">
<title>DialogOverviewExampleDialog</title>
<polygon fill="#ffffb3" stroke="#000000" points="831.6615,-122 634.3385,-122 634.3385,-86 831.6615,-86 831.6615,-122"/>
<text text-anchor="middle" x="733" y="-99.8" font-family="Times,serif" font-size="14.00" fill="#000000">DialogOverviewExampleDialog</text>
</g>
<!-- DialogOverviewExampleDialog&#45;&gt;DashboardModule -->
<g id="edge3" class="edge">
<title>DialogOverviewExampleDialog&#45;&gt;DashboardModule</title>
<path fill="none" stroke="#000000" d="M664.578,-122.027C664.578,-138.3976 664.578,-160 664.578,-160 664.578,-160 615.1393,-160 615.1393,-160"/>
<polygon fill="#000000" stroke="#000000" points="615.1394,-156.5001 605.1393,-160 615.1393,-163.5001 615.1394,-156.5001"/>
</g>
<!-- EditActionComponent -->
<g id="node4" class="node">
<title>EditActionComponent</title>
<polygon fill="#ffffb3" stroke="#000000" points="616.2688,-122 473.7312,-122 473.7312,-86 616.2688,-86 616.2688,-122"/>
<text text-anchor="middle" x="545" y="-99.8" font-family="Times,serif" font-size="14.00" fill="#000000">EditActionComponent</text>
</g>
<!-- EditActionComponent&#45;&gt;DashboardModule -->
<g id="edge4" class="edge">
<title>EditActionComponent&#45;&gt;DashboardModule</title>
<path fill="none" stroke="#000000" d="M545,-122.1061C545,-122.1061 545,-140.991 545,-140.991"/>
<polygon fill="#000000" stroke="#000000" points="541.5001,-140.9909 545,-150.991 548.5001,-140.991 541.5001,-140.9909"/>
</g>
<!-- HeaderComponent -->
<g id="node5" class="node">
<title>HeaderComponent</title>
<polygon fill="#ffffb3" stroke="#000000" points="455.7437,-122 334.2563,-122 334.2563,-86 455.7437,-86 455.7437,-122"/>
<text text-anchor="middle" x="395" y="-99.8" font-family="Times,serif" font-size="14.00" fill="#000000">HeaderComponent</text>
</g>
<!-- HeaderComponent&#45;&gt;DashboardModule -->
<g id="edge5" class="edge">
<title>HeaderComponent&#45;&gt;DashboardModule</title>
<path fill="none" stroke="#000000" d="M431.125,-122.027C431.125,-138.3976 431.125,-160 431.125,-160 431.125,-160 474.728,-160 474.728,-160"/>
<polygon fill="#000000" stroke="#000000" points="474.7281,-163.5001 484.728,-160 474.728,-156.5001 474.7281,-163.5001"/>
</g>
<!-- ImpressumComponent -->
<g id="node6" class="node">
<title>ImpressumComponent</title>
<polygon fill="#ffffb3" stroke="#000000" points="315.5393,-122 172.4607,-122 172.4607,-86 315.5393,-86 315.5393,-122"/>
<text text-anchor="middle" x="244" y="-99.8" font-family="Times,serif" font-size="14.00" fill="#000000">ImpressumComponent</text>
</g>
<!-- ImpressumComponent&#45;&gt;DashboardModule -->
<g id="edge6" class="edge">
<title>ImpressumComponent&#45;&gt;DashboardModule</title>
<path fill="none" stroke="#000000" d="M244,-122.1061C244,-141.3391 244,-169 244,-169 244,-169 474.8116,-169 474.8116,-169"/>
<polygon fill="#000000" stroke="#000000" points="474.8116,-172.5001 484.8116,-169 474.8116,-165.5001 474.8116,-172.5001"/>
</g>
<!-- DashboardComponent  -->
<g id="node9" class="node">
<title>DashboardComponent </title>
<polygon fill="#fb8072" stroke="#000000" points="694.9742,-252 549.0258,-252 549.0258,-216 694.9742,-216 694.9742,-252"/>
<text text-anchor="middle" x="622" y="-229.8" font-family="Times,serif" font-size="14.00" fill="#000000">DashboardComponent </text>
</g>
<!-- DashboardModule&#45;&gt;DashboardComponent  -->
<g id="edge8" class="edge">
<title>DashboardModule&#45;&gt;DashboardComponent </title>
<path fill="none" stroke="#000000" stroke-dasharray="5,2" d="M577.1794,-187.1061C577.1794,-187.1061 577.1794,-205.991 577.1794,-205.991"/>
<polygon fill="#000000" stroke="#000000" points="573.6794,-205.9909 577.1794,-215.991 580.6794,-205.991 573.6794,-205.9909"/>
</g>
<!-- HeaderComponent  -->
<g id="node10" class="node">
<title>HeaderComponent </title>
<polygon fill="#fb8072" stroke="#000000" points="531.7436,-252 406.2564,-252 406.2564,-216 531.7436,-216 531.7436,-252"/>
<text text-anchor="middle" x="469" y="-229.8" font-family="Times,serif" font-size="14.00" fill="#000000">HeaderComponent </text>
</g>
<!-- DashboardModule&#45;&gt;HeaderComponent  -->
<g id="edge9" class="edge">
<title>DashboardModule&#45;&gt;HeaderComponent </title>
<path fill="none" stroke="#000000" stroke-dasharray="5,2" d="M508.2632,-187.1061C508.2632,-187.1061 508.2632,-205.991 508.2632,-205.991"/>
<polygon fill="#000000" stroke="#000000" points="504.7632,-205.9909 508.2632,-215.991 511.7632,-205.991 504.7632,-205.9909"/>
</g>
<!-- StaticPagesModule -->
<g id="node8" class="node">
<title>StaticPagesModule</title>
<polygon fill="#8dd3c7" stroke="#000000" points="148.0898,-122 145.0898,-126 124.0898,-126 121.0898,-122 23.9102,-122 23.9102,-86 148.0898,-86 148.0898,-122"/>
<text text-anchor="middle" x="86" y="-99.8" font-family="Times,serif" font-size="14.00" fill="#000000">StaticPagesModule</text>
</g>
<!-- StaticPagesModule&#45;&gt;DashboardModule -->
<g id="edge7" class="edge">
<title>StaticPagesModule&#45;&gt;DashboardModule</title>
<path fill="none" stroke="#000000" d="M86,-122.2921C86,-144.2057 86,-178 86,-178 86,-178 474.5218,-178 474.5218,-178"/>
<polygon fill="#000000" stroke="#000000" points="474.5218,-181.5001 484.5218,-178 474.5217,-174.5001 474.5218,-181.5001"/>
</g>
</g>
</svg>
