<?xml version="1.0" encoding="UTF-8" standalone="no"?>
<!DOCTYPE svg PUBLIC "-//W3C//DTD SVG 1.1//EN"
 "http://www.w3.org/Graphics/SVG/1.1/DTD/svg11.dtd">
<!-- Generated by graphviz version 2.40.1 (20161225.0304)
 -->
<!-- Title: dependencies Pages: 1 -->
<svg width="910pt" height="211pt"
 viewBox="0.00 0.00 910.00 211.00" xmlns="http://www.w3.org/2000/svg" xmlns:xlink="http://www.w3.org/1999/xlink">
<g id="graph0" class="graph" transform="scale(1 1) rotate(0) translate(4 207)">
<title>dependencies</title>
<polygon fill="#ffffff" stroke="transparent" points="-4,4 -4,-207 906,-207 906,4 -4,4"/>
<text text-anchor="start" x="430.0091" y="-42.4" font-family="sans-serif" font-weight="bold" font-size="14.00" fill="#000000">Legend</text>
<polygon fill="#ffffb3" stroke="transparent" points="217,-10 217,-30 237,-30 237,-10 217,-10"/>
<text text-anchor="start" x="240.629" y="-15.4" font-family="sans-serif" font-size="14.00" fill="#000000"> &#160;Declarations</text>
<polygon fill="#8dd3c7" stroke="transparent" points="330,-10 330,-30 350,-30 350,-10 330,-10"/>
<text text-anchor="start" x="353.7251" y="-15.4" font-family="sans-serif" font-size="14.00" fill="#000000"> &#160;Module</text>
<polygon fill="#80b1d3" stroke="transparent" points="416,-10 416,-30 436,-30 436,-10 416,-10"/>
<text text-anchor="start" x="439.7812" y="-15.4" font-family="sans-serif" font-size="14.00" fill="#000000"> &#160;Bootstrap</text>
<polygon fill="#fdb462" stroke="transparent" points="513,-10 513,-30 533,-30 533,-10 513,-10"/>
<text text-anchor="start" x="536.6732" y="-15.4" font-family="sans-serif" font-size="14.00" fill="#000000"> &#160;Providers</text>
<polygon fill="#fb8072" stroke="transparent" points="609,-10 609,-30 629,-30 629,-10 609,-10"/>
<text text-anchor="start" x="632.7258" y="-15.4" font-family="sans-serif" font-size="14.00" fill="#000000"> &#160;Exports</text>
<g id="clust1" class="cluster">
<title>cluster_DashboardModule</title>
<polygon fill="none" stroke="#000000" stroke-dasharray="1,5" points="8,-70 8,-195 894,-195 894,-70 8,-70"/>
</g>
<g id="clust2" class="cluster">
<title>cluster_DashboardModule_declarations</title>
<polygon fill="none" stroke="#000000" points="16,-78 16,-130 886,-130 886,-78 16,-78"/>
</g>
<!-- DashboardComponent -->
<g id="node1" class="node">
<title>DashboardComponent</title>
<polygon fill="#ffffb3" stroke="#000000" points="877.9734,-122 736.0266,-122 736.0266,-86 877.9734,-86 877.9734,-122"/>
<text text-anchor="middle" x="807" y="-99.8" font-family="Times,serif" font-size="14.00" fill="#000000">DashboardComponent</text>
</g>
<!-- DashboardModule -->
<g id="node6" class="node">
<title>DashboardModule</title>
<polygon fill="#8dd3c7" stroke="#000000" points="505.191,-187 502.191,-191 481.191,-191 478.191,-187 384.809,-187 384.809,-151 505.191,-151 505.191,-187"/>
<text text-anchor="middle" x="445" y="-164.8" font-family="Times,serif" font-size="14.00" fill="#000000">DashboardModule</text>
</g>
<!-- DashboardComponent&#45;&gt;DashboardModule -->
<g id="edge1" class="edge">
<title>DashboardComponent&#45;&gt;DashboardModule</title>
<path fill="none" stroke="#000000" d="M807,-122.2843C807,-143.3211 807,-175 807,-175 807,-175 515.1833,-175 515.1833,-175"/>
<polygon fill="#000000" stroke="#000000" points="515.1833,-171.5001 505.1833,-175 515.1833,-178.5001 515.1833,-171.5001"/>
</g>
<!-- DeleteActionComponent -->
<g id="node2" class="node">
<title>DeleteActionComponent</title>
<polygon fill="#ffffb3" stroke="#000000" points="717.9664,-122 562.0336,-122 562.0336,-86 717.9664,-86 717.9664,-122"/>
<text text-anchor="middle" x="640" y="-99.8" font-family="Times,serif" font-size="14.00" fill="#000000">DeleteActionComponent</text>
</g>
<!-- DeleteActionComponent&#45;&gt;DashboardModule -->
<g id="edge2" class="edge">
<title>DeleteActionComponent&#45;&gt;DashboardModule</title>
<path fill="none" stroke="#000000" d="M640,-122.0225C640,-139.3734 640,-163 640,-163 640,-163 515.0976,-163 515.0976,-163"/>
<polygon fill="#000000" stroke="#000000" points="515.0976,-159.5001 505.0976,-163 515.0975,-166.5001 515.0976,-159.5001"/>
</g>
<!-- DialogOverviewExampleDialog -->
<g id="node3" class="node">
<title>DialogOverviewExampleDialog</title>
<polygon fill="#ffffb3" stroke="#000000" points="543.6615,-122 346.3385,-122 346.3385,-86 543.6615,-86 543.6615,-122"/>
<text text-anchor="middle" x="445" y="-99.8" font-family="Times,serif" font-size="14.00" fill="#000000">DialogOverviewExampleDialog</text>
</g>
<!-- DialogOverviewExampleDialog&#45;&gt;DashboardModule -->
<g id="edge3" class="edge">
<title>DialogOverviewExampleDialog&#45;&gt;DashboardModule</title>
<path fill="none" stroke="#000000" d="M445,-122.1061C445,-122.1061 445,-140.991 445,-140.991"/>
<polygon fill="#000000" stroke="#000000" points="441.5001,-140.9909 445,-150.991 448.5001,-140.991 441.5001,-140.9909"/>
</g>
<!-- EditActionComponent -->
<g id="node4" class="node">
<title>EditActionComponent</title>
<polygon fill="#ffffb3" stroke="#000000" points="328.2688,-122 185.7312,-122 185.7312,-86 328.2688,-86 328.2688,-122"/>
<text text-anchor="middle" x="257" y="-99.8" font-family="Times,serif" font-size="14.00" fill="#000000">EditActionComponent</text>
</g>
<!-- EditActionComponent&#45;&gt;DashboardModule -->
<g id="edge4" class="edge">
<title>EditActionComponent&#45;&gt;DashboardModule</title>
<path fill="none" stroke="#000000" d="M257,-122.0225C257,-139.3734 257,-163 257,-163 257,-163 374.7399,-163 374.7399,-163"/>
<polygon fill="#000000" stroke="#000000" points="374.7399,-166.5001 384.7399,-163 374.7399,-159.5001 374.7399,-166.5001"/>
</g>
<!-- ImpressumComponent -->
<g id="node5" class="node">
<title>ImpressumComponent</title>
<polygon fill="#ffffb3" stroke="#000000" points="167.5393,-122 24.4607,-122 24.4607,-86 167.5393,-86 167.5393,-122"/>
<text text-anchor="middle" x="96" y="-99.8" font-family="Times,serif" font-size="14.00" fill="#000000">ImpressumComponent</text>
</g>
<!-- ImpressumComponent&#45;&gt;DashboardModule -->
<g id="edge5" class="edge">
<title>ImpressumComponent&#45;&gt;DashboardModule</title>
<path fill="none" stroke="#000000" d="M96,-122.2843C96,-143.3211 96,-175 96,-175 96,-175 374.6073,-175 374.6073,-175"/>
<polygon fill="#000000" stroke="#000000" points="374.6073,-178.5001 384.6073,-175 374.6072,-171.5001 374.6073,-178.5001"/>
</g>
</g>
</svg>
