<?xml version="1.0" encoding="UTF-8" standalone="no"?>
<!DOCTYPE svg PUBLIC "-//W3C//DTD SVG 1.1//EN"
 "http://www.w3.org/Graphics/SVG/1.1/DTD/svg11.dtd">
<!-- Generated by graphviz version 2.40.1 (20161225.0304)
 -->
<!-- Title: dependencies Pages: 1 -->
<svg width="1808pt" height="211pt"
 viewBox="0.00 0.00 1808.00 211.00" xmlns="http://www.w3.org/2000/svg" xmlns:xlink="http://www.w3.org/1999/xlink">
<g id="graph0" class="graph" transform="scale(1 1) rotate(0) translate(4 207)">
<title>dependencies</title>
<polygon fill="#ffffff" stroke="transparent" points="-4,4 -4,-207 1804,-207 1804,4 -4,4"/>
<text text-anchor="start" x="879.0091" y="-42.4" font-family="sans-serif" font-weight="bold" font-size="14.00" fill="#000000">Legend</text>
<polygon fill="#ffffb3" stroke="transparent" points="666,-10 666,-30 686,-30 686,-10 666,-10"/>
<text text-anchor="start" x="689.629" y="-15.4" font-family="sans-serif" font-size="14.00" fill="#000000"> &#160;Declarations</text>
<polygon fill="#8dd3c7" stroke="transparent" points="779,-10 779,-30 799,-30 799,-10 779,-10"/>
<text text-anchor="start" x="802.7251" y="-15.4" font-family="sans-serif" font-size="14.00" fill="#000000"> &#160;Module</text>
<polygon fill="#80b1d3" stroke="transparent" points="865,-10 865,-30 885,-30 885,-10 865,-10"/>
<text text-anchor="start" x="888.7812" y="-15.4" font-family="sans-serif" font-size="14.00" fill="#000000"> &#160;Bootstrap</text>
<polygon fill="#fdb462" stroke="transparent" points="962,-10 962,-30 982,-30 982,-10 962,-10"/>
<text text-anchor="start" x="985.6732" y="-15.4" font-family="sans-serif" font-size="14.00" fill="#000000"> &#160;Providers</text>
<polygon fill="#fb8072" stroke="transparent" points="1058,-10 1058,-30 1078,-30 1078,-10 1058,-10"/>
<text text-anchor="start" x="1081.7258" y="-15.4" font-family="sans-serif" font-size="14.00" fill="#000000"> &#160;Exports</text>
<g id="clust1" class="cluster">
<title>cluster_MyEditionModule</title>
<polygon fill="none" stroke="#000000" stroke-dasharray="1,5" points="8,-70 8,-195 1792,-195 1792,-70 8,-70"/>
</g>
<g id="clust2" class="cluster">
<title>cluster_MyEditionModule_declarations</title>
<polygon fill="none" stroke="#000000" points="1160,-78 1160,-130 1784,-130 1784,-78 1160,-78"/>
</g>
<g id="clust9" class="cluster">
<title>cluster_MyEditionModule_providers</title>
<polygon fill="none" stroke="#000000" points="16,-78 16,-130 1152,-130 1152,-78 16,-78"/>
</g>
<!-- DialogCreateNewViewComponent -->
<g id="node1" class="node">
<title>DialogCreateNewViewComponent</title>
<polygon fill="#ffffb3" stroke="#000000" points="1776.2128,-122 1563.7872,-122 1563.7872,-86 1776.2128,-86 1776.2128,-122"/>
<text text-anchor="middle" x="1670" y="-99.8" font-family="Times,serif" font-size="14.00" fill="#000000">DialogCreateNewViewComponent</text>
</g>
<!-- MyEditionModule -->
<g id="node4" class="node">
<title>MyEditionModule</title>
<polygon fill="#8dd3c7" stroke="#000000" points="1013.219,-187 1010.219,-191 989.219,-191 986.219,-187 892.781,-187 892.781,-151 1013.219,-151 1013.219,-187"/>
<text text-anchor="middle" x="953" y="-164.8" font-family="Times,serif" font-size="14.00" fill="#000000">MyEditionModule</text>
</g>
<!-- DialogCreateNewViewComponent&#45;&gt;MyEditionModule -->
<g id="edge1" class="edge">
<title>DialogCreateNewViewComponent&#45;&gt;MyEditionModule</title>
<path fill="none" stroke="#000000" d="M1670,-122.2921C1670,-144.2057 1670,-178 1670,-178 1670,-178 1023.2051,-178 1023.2051,-178"/>
<polygon fill="#000000" stroke="#000000" points="1023.2051,-174.5001 1013.2051,-178 1023.2051,-181.5001 1023.2051,-174.5001"/>
</g>
<!-- EditionLandingPageComponent -->
<g id="node2" class="node">
<title>EditionLandingPageComponent</title>
<polygon fill="#ffffb3" stroke="#000000" points="1545.4269,-122 1348.5731,-122 1348.5731,-86 1545.4269,-86 1545.4269,-122"/>
<text text-anchor="middle" x="1447" y="-99.8" font-family="Times,serif" font-size="14.00" fill="#000000">EditionLandingPageComponent</text>
</g>
<!-- EditionLandingPageComponent&#45;&gt;MyEditionModule -->
<g id="edge2" class="edge">
<title>EditionLandingPageComponent&#45;&gt;MyEditionModule</title>
<path fill="none" stroke="#000000" d="M1447,-122.1061C1447,-141.3391 1447,-169 1447,-169 1447,-169 1023.5741,-169 1023.5741,-169"/>
<polygon fill="#000000" stroke="#000000" points="1023.5741,-165.5001 1013.5741,-169 1023.5741,-172.5001 1023.5741,-165.5001"/>
</g>
<!-- UpdateEditionComponent -->
<g id="node3" class="node">
<title>UpdateEditionComponent</title>
<polygon fill="#ffffb3" stroke="#000000" points="1330.4832,-122 1167.5168,-122 1167.5168,-86 1330.4832,-86 1330.4832,-122"/>
<text text-anchor="middle" x="1249" y="-99.8" font-family="Times,serif" font-size="14.00" fill="#000000">UpdateEditionComponent</text>
</g>
<!-- UpdateEditionComponent&#45;&gt;MyEditionModule -->
<g id="edge3" class="edge">
<title>UpdateEditionComponent&#45;&gt;MyEditionModule</title>
<path fill="none" stroke="#000000" d="M1249,-122.027C1249,-138.3976 1249,-160 1249,-160 1249,-160 1023.2568,-160 1023.2568,-160"/>
<polygon fill="#000000" stroke="#000000" points="1023.2568,-156.5001 1013.2568,-160 1023.2568,-163.5001 1023.2568,-156.5001"/>
</g>
<!-- ActionService -->
<g id="node5" class="node">
<title>ActionService</title>
<ellipse fill="#fdb462" stroke="#000000" cx="1078" cy="-104" rx="66.0492" ry="18"/>
<text text-anchor="middle" x="1078" y="-99.8" font-family="Times,serif" font-size="14.00" fill="#000000">ActionService</text>
</g>
<!-- ActionService&#45;&gt;MyEditionModule -->
<g id="edge4" class="edge">
<title>ActionService&#45;&gt;MyEditionModule</title>
<path fill="none" stroke="#000000" d="M1011.5591,-104C1006.095,-104 1002.6154,-104 1002.6154,-104 1002.6154,-104 1002.6154,-140.8939 1002.6154,-140.8939"/>
<polygon fill="#000000" stroke="#000000" points="999.1155,-140.8938 1002.6154,-150.8939 1006.1155,-140.8939 999.1155,-140.8938"/>
</g>
<!-- CreateEditionAndLinkToActionService -->
<g id="node6" class="node">
<title>CreateEditionAndLinkToActionService</title>
<ellipse fill="#fdb462" stroke="#000000" cx="828" cy="-104" rx="165.5103" ry="18"/>
<text text-anchor="middle" x="828" y="-99.8" font-family="Times,serif" font-size="14.00" fill="#000000">CreateEditionAndLinkToActionService</text>
</g>
<!-- CreateEditionAndLinkToActionService&#45;&gt;MyEditionModule -->
<g id="edge5" class="edge">
<title>CreateEditionAndLinkToActionService&#45;&gt;MyEditionModule</title>
<path fill="none" stroke="#000000" d="M943.1979,-117.1537C943.1979,-117.1537 943.1979,-140.6938 943.1979,-140.6938"/>
<polygon fill="#000000" stroke="#000000" points="939.698,-140.6938 943.1979,-150.6938 946.698,-140.6939 939.698,-140.6938"/>
</g>
<!-- CreateViewAndLinkToAction -->
<g id="node7" class="node">
<title>CreateViewAndLinkToAction</title>
<ellipse fill="#fdb462" stroke="#000000" cx="515" cy="-104" rx="129.054" ry="18"/>
<text text-anchor="middle" x="515" y="-99.8" font-family="Times,serif" font-size="14.00" fill="#000000">CreateViewAndLinkToAction</text>
</g>
<!-- CreateViewAndLinkToAction&#45;&gt;MyEditionModule -->
<g id="edge6" class="edge">
<title>CreateViewAndLinkToAction&#45;&gt;MyEditionModule</title>
<path fill="none" stroke="#000000" d="M515,-122.027C515,-138.3976 515,-160 515,-160 515,-160 882.5578,-160 882.5578,-160"/>
<polygon fill="#000000" stroke="#000000" points="882.5579,-163.5001 892.5578,-160 882.5578,-156.5001 882.5579,-163.5001"/>
</g>
<!-- PageSetService -->
<g id="node8" class="node">
<title>EditionService</title>
<ellipse fill="#fdb462" stroke="#000000" cx="300" cy="-104" rx="68.3555" ry="18"/>
<text text-anchor="middle" x="300" y="-99.8" font-family="Times,serif" font-size="14.00" fill="#000000">EditionService</text>
</g>
<!-- PageSetService&#45;&gt;MyEditionModule -->
<g id="edge7" class="edge">
<title>EditionService&#45;&gt;MyEditionModule</title>
<path fill="none" stroke="#000000" d="M300,-122.1061C300,-141.3391 300,-169 300,-169 300,-169 882.7378,-169 882.7378,-169"/>
<polygon fill="#000000" stroke="#000000" points="882.7378,-172.5001 892.7378,-169 882.7378,-165.5001 882.7378,-172.5001"/>
</g>
<!-- GenerateHashService -->
<g id="node9" class="node">
<title>GenerateHashService</title>
<ellipse fill="#fdb462" stroke="#000000" cx="119" cy="-104" rx="94.8587" ry="18"/>
<text text-anchor="middle" x="119" y="-99.8" font-family="Times,serif" font-size="14.00" fill="#000000">GenerateHashService</text>
</g>
<!-- GenerateHashService&#45;&gt;MyEditionModule -->
<g id="edge8" class="edge">
<title>GenerateHashService&#45;&gt;MyEditionModule</title>
<path fill="none" stroke="#000000" d="M119,-122.2921C119,-144.2057 119,-178 119,-178 119,-178 882.6853,-178 882.6853,-178"/>
<polygon fill="#000000" stroke="#000000" points="882.6853,-181.5001 892.6853,-178 882.6852,-174.5001 882.6853,-181.5001"/>
</g>
</g>
</svg>
