<?xml version="1.0" encoding="UTF-8" standalone="no"?>
<!DOCTYPE svg PUBLIC "-//W3C//DTD SVG 1.1//EN"
 "http://www.w3.org/Graphics/SVG/1.1/DTD/svg11.dtd">
<!-- Generated by graphviz version 2.40.1 (20161225.0304)
 -->
<!-- Title: dependencies Pages: 1 -->
<svg width="618pt" height="284pt"
 viewBox="0.00 0.00 618.00 284.00" xmlns="http://www.w3.org/2000/svg" xmlns:xlink="http://www.w3.org/1999/xlink">
<g id="graph0" class="graph" transform="scale(1 1) rotate(0) translate(4 280)">
<title>dependencies</title>
<polygon fill="#ffffff" stroke="transparent" points="-4,4 -4,-280 614,-280 614,4 -4,4"/>
<text text-anchor="start" x="284.0091" y="-42.4" font-family="sans-serif" font-weight="bold" font-size="14.00" fill="#000000">Legend</text>
<polygon fill="#ffffb3" stroke="transparent" points="71,-10 71,-30 91,-30 91,-10 71,-10"/>
<text text-anchor="start" x="94.629" y="-15.4" font-family="sans-serif" font-size="14.00" fill="#000000"> &#160;Declarations</text>
<polygon fill="#8dd3c7" stroke="transparent" points="184,-10 184,-30 204,-30 204,-10 184,-10"/>
<text text-anchor="start" x="207.7251" y="-15.4" font-family="sans-serif" font-size="14.00" fill="#000000"> &#160;Module</text>
<polygon fill="#80b1d3" stroke="transparent" points="270,-10 270,-30 290,-30 290,-10 270,-10"/>
<text text-anchor="start" x="293.7812" y="-15.4" font-family="sans-serif" font-size="14.00" fill="#000000"> &#160;Bootstrap</text>
<polygon fill="#fdb462" stroke="transparent" points="367,-10 367,-30 387,-30 387,-10 367,-10"/>
<text text-anchor="start" x="390.6732" y="-15.4" font-family="sans-serif" font-size="14.00" fill="#000000"> &#160;Providers</text>
<polygon fill="#fb8072" stroke="transparent" points="463,-10 463,-30 483,-30 483,-10 463,-10"/>
<text text-anchor="start" x="486.7258" y="-15.4" font-family="sans-serif" font-size="14.00" fill="#000000"> &#160;Exports</text>
<g id="clust1" class="cluster">
<title>cluster_CreateResourceModule</title>
<polygon fill="none" stroke="#000000" stroke-dasharray="1,5" points="8,-70 8,-268 602,-268 602,-70 8,-70"/>
</g>
<g id="clust2" class="cluster">
<title>cluster_CreateResourceModule_declarations</title>
<polygon fill="none" stroke="#000000" points="16,-78 16,-130 594,-130 594,-78 16,-78"/>
</g>
<g id="clust7" class="cluster">
<title>cluster_CreateResourceModule_exports</title>
<polygon fill="none" stroke="#000000" points="206,-208 206,-260 396,-260 396,-208 206,-208"/>
</g>
<!-- CreateDateValueComponent -->
<g id="node1" class="node">
<title>CreateDateValueComponent</title>
<polygon fill="#ffffb3" stroke="#000000" points="585.717,-122 408.283,-122 408.283,-86 585.717,-86 585.717,-122"/>
<text text-anchor="middle" x="497" y="-99.8" font-family="Times,serif" font-size="14.00" fill="#000000">CreateDateValueComponent</text>
</g>
<!-- CreateResourceModule -->
<g id="node4" class="node">
<title>CreateResourceModule</title>
<polygon fill="#8dd3c7" stroke="#000000" points="375.1671,-187 372.1671,-191 351.1671,-191 348.1671,-187 226.8329,-187 226.8329,-151 375.1671,-151 375.1671,-187"/>
<text text-anchor="middle" x="301" y="-164.8" font-family="Times,serif" font-size="14.00" fill="#000000">CreateResourceModule</text>
</g>
<!-- CreateDateValueComponent&#45;&gt;CreateResourceModule -->
<g id="edge1" class="edge">
<title>CreateDateValueComponent&#45;&gt;CreateResourceModule</title>
<path fill="none" stroke="#000000" d="M497,-122.1061C497,-141.3391 497,-169 497,-169 497,-169 385.0992,-169 385.0992,-169"/>
<polygon fill="#000000" stroke="#000000" points="385.0992,-165.5001 375.0992,-169 385.0992,-172.5001 385.0992,-165.5001"/>
</g>
<!-- CreateLinkValueComponent -->
<g id="node2" class="node">
<title>CreateLinkValueComponent</title>
<polygon fill="#ffffb3" stroke="#000000" points="389.7338,-122 212.2662,-122 212.2662,-86 389.7338,-86 389.7338,-122"/>
<text text-anchor="middle" x="301" y="-99.8" font-family="Times,serif" font-size="14.00" fill="#000000">CreateLinkValueComponent</text>
</g>
<!-- CreateLinkValueComponent&#45;&gt;CreateResourceModule -->
<g id="edge2" class="edge">
<title>CreateLinkValueComponent&#45;&gt;CreateResourceModule</title>
<path fill="none" stroke="#000000" d="M301,-122.1061C301,-122.1061 301,-140.991 301,-140.991"/>
<polygon fill="#000000" stroke="#000000" points="297.5001,-140.9909 301,-150.991 304.5001,-140.991 297.5001,-140.9909"/>
</g>
<!-- CreateResourceComponent -->
<g id="node3" class="node">
<title>CreateResourceComponent</title>
<polygon fill="#ffffb3" stroke="#000000" points="193.9496,-122 24.0504,-122 24.0504,-86 193.9496,-86 193.9496,-122"/>
<text text-anchor="middle" x="109" y="-99.8" font-family="Times,serif" font-size="14.00" fill="#000000">CreateResourceComponent</text>
</g>
<!-- CreateResourceComponent&#45;&gt;CreateResourceModule -->
<g id="edge3" class="edge">
<title>CreateResourceComponent&#45;&gt;CreateResourceModule</title>
<path fill="none" stroke="#000000" d="M109,-122.1061C109,-141.3391 109,-169 109,-169 109,-169 216.7678,-169 216.7678,-169"/>
<polygon fill="#000000" stroke="#000000" points="216.7678,-172.5001 226.7678,-169 216.7678,-165.5001 216.7678,-172.5001"/>
</g>
<!-- CreateResourceComponent  -->
<g id="node5" class="node">
<title>CreateResourceComponent </title>
<polygon fill="#fb8072" stroke="#000000" points="387.9502,-252 214.0498,-252 214.0498,-216 387.9502,-216 387.9502,-252"/>
<text text-anchor="middle" x="301" y="-229.8" font-family="Times,serif" font-size="14.00" fill="#000000">CreateResourceComponent </text>
</g>
<!-- CreateResourceModule&#45;&gt;CreateResourceComponent  -->
<g id="edge4" class="edge">
<title>CreateResourceModule&#45;&gt;CreateResourceComponent </title>
<path fill="none" stroke="#000000" stroke-dasharray="5,2" d="M301,-187.1061C301,-187.1061 301,-205.991 301,-205.991"/>
<polygon fill="#000000" stroke="#000000" points="297.5001,-205.9909 301,-215.991 304.5001,-205.991 297.5001,-205.9909"/>
</g>
</g>
</svg>
