<?xml version="1.0" encoding="UTF-8" standalone="no"?>
<!DOCTYPE svg PUBLIC "-//W3C//DTD SVG 1.1//EN"
 "http://www.w3.org/Graphics/SVG/1.1/DTD/svg11.dtd">
<!-- Generated by graphviz version 2.40.1 (20161225.0304)
 -->
<!-- Title: dependencies Pages: 1 -->
<svg width="876pt" height="284pt"
 viewBox="0.00 0.00 876.00 284.00" xmlns="http://www.w3.org/2000/svg" xmlns:xlink="http://www.w3.org/1999/xlink">
<g id="graph0" class="graph" transform="scale(1 1) rotate(0) translate(4 280)">
<title>dependencies</title>
<polygon fill="#ffffff" stroke="transparent" points="-4,4 -4,-280 872,-280 872,4 -4,4"/>
<text text-anchor="start" x="413.0091" y="-42.4" font-family="sans-serif" font-weight="bold" font-size="14.00" fill="#000000">Legend</text>
<polygon fill="#ffffb3" stroke="transparent" points="200,-10 200,-30 220,-30 220,-10 200,-10"/>
<text text-anchor="start" x="223.629" y="-15.4" font-family="sans-serif" font-size="14.00" fill="#000000"> &#160;Declarations</text>
<polygon fill="#8dd3c7" stroke="transparent" points="313,-10 313,-30 333,-30 333,-10 313,-10"/>
<text text-anchor="start" x="336.7251" y="-15.4" font-family="sans-serif" font-size="14.00" fill="#000000"> &#160;Module</text>
<polygon fill="#80b1d3" stroke="transparent" points="399,-10 399,-30 419,-30 419,-10 399,-10"/>
<text text-anchor="start" x="422.7812" y="-15.4" font-family="sans-serif" font-size="14.00" fill="#000000"> &#160;Bootstrap</text>
<polygon fill="#fdb462" stroke="transparent" points="496,-10 496,-30 516,-30 516,-10 496,-10"/>
<text text-anchor="start" x="519.6732" y="-15.4" font-family="sans-serif" font-size="14.00" fill="#000000"> &#160;Providers</text>
<polygon fill="#fb8072" stroke="transparent" points="592,-10 592,-30 612,-30 612,-10 592,-10"/>
<text text-anchor="start" x="615.7258" y="-15.4" font-family="sans-serif" font-size="14.00" fill="#000000"> &#160;Exports</text>
<g id="clust1" class="cluster">
<title>cluster_DevelopmentViewsModule</title>
<polygon fill="none" stroke="#000000" stroke-dasharray="1,5" points="8,-70 8,-268 860,-268 860,-70 8,-70"/>
</g>
<g id="clust3" class="cluster">
<title>cluster_DevelopmentViewsModule_imports</title>
<polygon fill="none" stroke="#000000" points="16,-78 16,-130 852,-130 852,-78 16,-78"/>
</g>
<g id="clust4" class="cluster">
<title>cluster_DevelopmentViewsModule_exports</title>
<polygon fill="none" stroke="#000000" points="323,-208 323,-260 481,-260 481,-208 323,-208"/>
</g>
<!-- CreateResourceViewModule -->
<g id="node1" class="node">
<title>CreateResourceViewModule</title>
<polygon fill="#8dd3c7" stroke="#000000" points="844.4861,-122 841.4861,-126 820.4861,-126 817.4861,-122 665.5139,-122 665.5139,-86 844.4861,-86 844.4861,-122"/>
<text text-anchor="middle" x="755" y="-99.8" font-family="Times,serif" font-size="14.00" fill="#000000">CreateResourceViewModule</text>
</g>
<!-- DevelopmentViewsModule -->
<g id="node6" class="node">
<title>DevelopmentViewsModule</title>
<polygon fill="#8dd3c7" stroke="#000000" points="487.2352,-187 484.2352,-191 463.2352,-191 460.2352,-187 316.7648,-187 316.7648,-151 487.2352,-151 487.2352,-187"/>
<text text-anchor="middle" x="402" y="-164.8" font-family="Times,serif" font-size="14.00" fill="#000000">DevelopmentViewsModule</text>
</g>
<!-- CreateResourceViewModule&#45;&gt;DevelopmentViewsModule -->
<g id="edge1" class="edge">
<title>CreateResourceViewModule&#45;&gt;DevelopmentViewsModule</title>
<path fill="none" stroke="#000000" d="M755,-122.1061C755,-141.3391 755,-169 755,-169 755,-169 497.4515,-169 497.4515,-169"/>
<polygon fill="#000000" stroke="#000000" points="497.4515,-165.5001 487.4515,-169 497.4514,-172.5001 497.4515,-165.5001"/>
</g>
<!-- EditResourceViewModule -->
<g id="node2" class="node">
<title>EditResourceViewModule</title>
<polygon fill="#8dd3c7" stroke="#000000" points="647.7879,-122 644.7879,-126 623.7879,-126 620.7879,-122 482.2121,-122 482.2121,-86 647.7879,-86 647.7879,-122"/>
<text text-anchor="middle" x="565" y="-99.8" font-family="Times,serif" font-size="14.00" fill="#000000">EditResourceViewModule</text>
</g>
<!-- EditResourceViewModule&#45;&gt;DevelopmentViewsModule -->
<g id="edge2" class="edge">
<title>EditResourceViewModule&#45;&gt;DevelopmentViewsModule</title>
<path fill="none" stroke="#000000" d="M482.1742,-104C476.7465,-104 473.3903,-104 473.3903,-104 473.3903,-104 473.3903,-140.8939 473.3903,-140.8939"/>
<polygon fill="#000000" stroke="#000000" points="469.8903,-140.8938 473.3903,-150.8939 476.8903,-140.8939 469.8903,-140.8938"/>
</g>
<!-- ImageViewModule -->
<g id="node3" class="node">
<title>ImageViewModule</title>
<polygon fill="#8dd3c7" stroke="#000000" points="464.3487,-122 461.3487,-126 440.3487,-126 437.3487,-122 339.6513,-122 339.6513,-86 464.3487,-86 464.3487,-122"/>
<text text-anchor="middle" x="402" y="-99.8" font-family="Times,serif" font-size="14.00" fill="#000000">ImageViewModule</text>
</g>
<!-- ImageViewModule&#45;&gt;DevelopmentViewsModule -->
<g id="edge3" class="edge">
<title>ImageViewModule&#45;&gt;DevelopmentViewsModule</title>
<path fill="none" stroke="#000000" d="M402,-122.1061C402,-122.1061 402,-140.991 402,-140.991"/>
<polygon fill="#000000" stroke="#000000" points="398.5001,-140.9909 402,-150.991 405.5001,-140.991 398.5001,-140.9909"/>
</g>
<!-- MetadataViewModule -->
<g id="node4" class="node">
<title>MetadataViewModule</title>
<polygon fill="#8dd3c7" stroke="#000000" points="321.9524,-122 318.9524,-126 297.9524,-126 294.9524,-122 180.0476,-122 180.0476,-86 321.9524,-86 321.9524,-122"/>
<text text-anchor="middle" x="251" y="-99.8" font-family="Times,serif" font-size="14.00" fill="#000000">MetadataViewModule</text>
</g>
<!-- MetadataViewModule&#45;&gt;DevelopmentViewsModule -->
<g id="edge4" class="edge">
<title>MetadataViewModule&#45;&gt;DevelopmentViewsModule</title>
<path fill="none" stroke="#000000" d="M322.2385,-104C327.4844,-104 330.7759,-104 330.7759,-104 330.7759,-104 330.7759,-140.8939 330.7759,-140.8939"/>
<polygon fill="#000000" stroke="#000000" points="327.276,-140.8938 330.7759,-150.8939 334.276,-140.8939 327.276,-140.8938"/>
</g>
<!-- TextDevViewModule -->
<g id="node5" class="node">
<title>TextDevViewModule</title>
<polygon fill="#8dd3c7" stroke="#000000" points="162.3473,-122 159.3473,-126 138.3473,-126 135.3473,-122 23.6527,-122 23.6527,-86 162.3473,-86 162.3473,-122"/>
<text text-anchor="middle" x="93" y="-99.8" font-family="Times,serif" font-size="14.00" fill="#000000">TextDevViewModule</text>
</g>
<!-- TextDevViewModule&#45;&gt;DevelopmentViewsModule -->
<g id="edge5" class="edge">
<title>TextDevViewModule&#45;&gt;DevelopmentViewsModule</title>
<path fill="none" stroke="#000000" d="M93,-122.1061C93,-141.3391 93,-169 93,-169 93,-169 306.7464,-169 306.7464,-169"/>
<polygon fill="#000000" stroke="#000000" points="306.7465,-172.5001 316.7464,-169 306.7464,-165.5001 306.7465,-172.5001"/>
</g>
<!-- TextDevViewModule  -->
<g id="node7" class="node">
<title>TextDevViewModule </title>
<polygon fill="#fb8072" stroke="#000000" points="473.3476,-252 330.6524,-252 330.6524,-216 473.3476,-216 473.3476,-252"/>
<text text-anchor="middle" x="402" y="-229.8" font-family="Times,serif" font-size="14.00" fill="#000000">TextDevViewModule </text>
</g>
<!-- DevelopmentViewsModule&#45;&gt;TextDevViewModule  -->
<g id="edge6" class="edge">
<title>DevelopmentViewsModule&#45;&gt;TextDevViewModule </title>
<path fill="none" stroke="#000000" stroke-dasharray="5,2" d="M402,-187.1061C402,-187.1061 402,-205.991 402,-205.991"/>
<polygon fill="#000000" stroke="#000000" points="398.5001,-205.9909 402,-215.991 405.5001,-205.991 398.5001,-205.9909"/>
</g>
</g>
</svg>
