<?xml version="1.0" encoding="UTF-8" standalone="no"?>
<!DOCTYPE svg PUBLIC "-//W3C//DTD SVG 1.1//EN"
 "http://www.w3.org/Graphics/SVG/1.1/DTD/svg11.dtd">
<!-- Generated by graphviz version 2.40.1 (20161225.0304)
 -->
<!-- Title: dependencies Pages: 1 -->
<svg width="504pt" height="284pt"
 viewBox="0.00 0.00 504.00 284.00" xmlns="http://www.w3.org/2000/svg" xmlns:xlink="http://www.w3.org/1999/xlink">
<g id="graph0" class="graph" transform="scale(1 1) rotate(0) translate(4 280)">
<title>dependencies</title>
<polygon fill="#ffffff" stroke="transparent" points="-4,4 -4,-280 500,-280 500,4 -4,4"/>
<text text-anchor="start" x="227.0091" y="-42.4" font-family="sans-serif" font-weight="bold" font-size="14.00" fill="#000000">Legend</text>
<polygon fill="#ffffb3" stroke="transparent" points="14,-10 14,-30 34,-30 34,-10 14,-10"/>
<text text-anchor="start" x="37.629" y="-15.4" font-family="sans-serif" font-size="14.00" fill="#000000"> &#160;Declarations</text>
<polygon fill="#8dd3c7" stroke="transparent" points="127,-10 127,-30 147,-30 147,-10 127,-10"/>
<text text-anchor="start" x="150.7251" y="-15.4" font-family="sans-serif" font-size="14.00" fill="#000000"> &#160;Module</text>
<polygon fill="#80b1d3" stroke="transparent" points="213,-10 213,-30 233,-30 233,-10 213,-10"/>
<text text-anchor="start" x="236.7812" y="-15.4" font-family="sans-serif" font-size="14.00" fill="#000000"> &#160;Bootstrap</text>
<polygon fill="#fdb462" stroke="transparent" points="310,-10 310,-30 330,-30 330,-10 310,-10"/>
<text text-anchor="start" x="333.6732" y="-15.4" font-family="sans-serif" font-size="14.00" fill="#000000"> &#160;Providers</text>
<polygon fill="#fb8072" stroke="transparent" points="406,-10 406,-30 426,-30 426,-10 406,-10"/>
<text text-anchor="start" x="429.7258" y="-15.4" font-family="sans-serif" font-size="14.00" fill="#000000"> &#160;Exports</text>
<g id="clust1" class="cluster">
<title>cluster_DevelopmentViewsModule</title>
<polygon fill="none" stroke="#000000" stroke-dasharray="1,5" points="12,-70 12,-268 484,-268 484,-70 12,-70"/>
</g>
<g id="clust3" class="cluster">
<title>cluster_DevelopmentViewsModule_imports</title>
<polygon fill="none" stroke="#000000" points="20,-78 20,-130 476,-130 476,-78 20,-78"/>
</g>
<g id="clust4" class="cluster">
<title>cluster_DevelopmentViewsModule_exports</title>
<polygon fill="none" stroke="#000000" points="176,-208 176,-260 334,-260 334,-208 176,-208"/>
</g>
<!-- ImageViewModule -->
<g id="node1" class="node">
<title>ImageViewModule</title>
<polygon fill="#8dd3c7" stroke="#000000" points="468.3487,-122 465.3487,-126 444.3487,-126 441.3487,-122 343.6513,-122 343.6513,-86 468.3487,-86 468.3487,-122"/>
<text text-anchor="middle" x="406" y="-99.8" font-family="Times,serif" font-size="14.00" fill="#000000">ImageViewModule</text>
</g>
<!-- DevelopmentViewsModule -->
<g id="node4" class="node">
<title>DevelopmentViewsModule</title>
<polygon fill="#8dd3c7" stroke="#000000" points="340.2352,-187 337.2352,-191 316.2352,-191 313.2352,-187 169.7648,-187 169.7648,-151 340.2352,-151 340.2352,-187"/>
<text text-anchor="middle" x="255" y="-164.8" font-family="Times,serif" font-size="14.00" fill="#000000">DevelopmentViewsModule</text>
</g>
<!-- ImageViewModule&#45;&gt;DevelopmentViewsModule -->
<g id="edge1" class="edge">
<title>ImageViewModule&#45;&gt;DevelopmentViewsModule</title>
<path fill="none" stroke="#000000" d="M343.6063,-104C337.3069,-104 333.1719,-104 333.1719,-104 333.1719,-104 333.1719,-140.8939 333.1719,-140.8939"/>
<polygon fill="#000000" stroke="#000000" points="329.6719,-140.8938 333.1719,-150.8939 336.6719,-140.8939 329.6719,-140.8938"/>
</g>
<!-- MetadataViewModule -->
<g id="node2" class="node">
<title>MetadataViewModule</title>
<polygon fill="#8dd3c7" stroke="#000000" points="325.9524,-122 322.9524,-126 301.9524,-126 298.9524,-122 184.0476,-122 184.0476,-86 325.9524,-86 325.9524,-122"/>
<text text-anchor="middle" x="255" y="-99.8" font-family="Times,serif" font-size="14.00" fill="#000000">MetadataViewModule</text>
</g>
<!-- MetadataViewModule&#45;&gt;DevelopmentViewsModule -->
<g id="edge2" class="edge">
<title>MetadataViewModule&#45;&gt;DevelopmentViewsModule</title>
<path fill="none" stroke="#000000" d="M255,-122.1061C255,-122.1061 255,-140.991 255,-140.991"/>
<polygon fill="#000000" stroke="#000000" points="251.5001,-140.9909 255,-150.991 258.5001,-140.991 251.5001,-140.9909"/>
</g>
<!-- TextDevViewModule -->
<g id="node3" class="node">
<title>TextDevViewModule</title>
<polygon fill="#8dd3c7" stroke="#000000" points="166.3473,-122 163.3473,-126 142.3473,-126 139.3473,-122 27.6527,-122 27.6527,-86 166.3473,-86 166.3473,-122"/>
<text text-anchor="middle" x="97" y="-99.8" font-family="Times,serif" font-size="14.00" fill="#000000">TextDevViewModule</text>
</g>
<!-- TextDevViewModule&#45;&gt;DevelopmentViewsModule -->
<g id="edge3" class="edge">
<title>TextDevViewModule&#45;&gt;DevelopmentViewsModule</title>
<path fill="none" stroke="#000000" d="M166.392,-104C172.7305,-104 176.8282,-104 176.8282,-104 176.8282,-104 176.8282,-140.8939 176.8282,-140.8939"/>
<polygon fill="#000000" stroke="#000000" points="173.3282,-140.8938 176.8282,-150.8939 180.3282,-140.8939 173.3282,-140.8938"/>
</g>
<!-- TextDevViewModule  -->
<g id="node5" class="node">
<title>TextDevViewModule </title>
<polygon fill="#fb8072" stroke="#000000" points="326.3476,-252 183.6524,-252 183.6524,-216 326.3476,-216 326.3476,-252"/>
<text text-anchor="middle" x="255" y="-229.8" font-family="Times,serif" font-size="14.00" fill="#000000">TextDevViewModule </text>
</g>
<!-- DevelopmentViewsModule&#45;&gt;TextDevViewModule  -->
<g id="edge4" class="edge">
<title>DevelopmentViewsModule&#45;&gt;TextDevViewModule </title>
<path fill="none" stroke="#000000" stroke-dasharray="5,2" d="M255,-187.1061C255,-187.1061 255,-205.991 255,-205.991"/>
<polygon fill="#000000" stroke="#000000" points="251.5001,-205.9909 255,-215.991 258.5001,-205.991 251.5001,-205.9909"/>
</g>
</g>
</svg>
