<?xml version="1.0" encoding="UTF-8" standalone="no"?>
<!DOCTYPE svg PUBLIC "-//W3C//DTD SVG 1.1//EN"
 "http://www.w3.org/Graphics/SVG/1.1/DTD/svg11.dtd">
<!-- Generated by graphviz version 2.40.1 (20161225.0304)
 -->
<!-- Title: dependencies Pages: 1 -->
<svg width="504pt" height="284pt"
 viewBox="0.00 0.00 504.00 284.00" xmlns="http://www.w3.org/2000/svg" xmlns:xlink="http://www.w3.org/1999/xlink">
<g id="graph0" class="graph" transform="scale(1 1) rotate(0) translate(4 280)">
<title>dependencies</title>
<polygon fill="#ffffff" stroke="transparent" points="-4,4 -4,-280 500,-280 500,4 -4,4"/>
<text text-anchor="start" x="227.0091" y="-42.4" font-family="sans-serif" font-weight="bold" font-size="14.00" fill="#000000">Legend</text>
<polygon fill="#ffffb3" stroke="transparent" points="14,-10 14,-30 34,-30 34,-10 14,-10"/>
<text text-anchor="start" x="37.629" y="-15.4" font-family="sans-serif" font-size="14.00" fill="#000000"> &#160;Declarations</text>
<polygon fill="#8dd3c7" stroke="transparent" points="127,-10 127,-30 147,-30 147,-10 127,-10"/>
<text text-anchor="start" x="150.7251" y="-15.4" font-family="sans-serif" font-size="14.00" fill="#000000"> &#160;Module</text>
<polygon fill="#80b1d3" stroke="transparent" points="213,-10 213,-30 233,-30 233,-10 213,-10"/>
<text text-anchor="start" x="236.7812" y="-15.4" font-family="sans-serif" font-size="14.00" fill="#000000"> &#160;Bootstrap</text>
<polygon fill="#fdb462" stroke="transparent" points="310,-10 310,-30 330,-30 330,-10 310,-10"/>
<text text-anchor="start" x="333.6732" y="-15.4" font-family="sans-serif" font-size="14.00" fill="#000000"> &#160;Providers</text>
<polygon fill="#fb8072" stroke="transparent" points="406,-10 406,-30 426,-30 426,-10 406,-10"/>
<text text-anchor="start" x="429.7258" y="-15.4" font-family="sans-serif" font-size="14.00" fill="#000000"> &#160;Exports</text>
<g id="clust1" class="cluster">
<title>cluster_NavigationModule</title>
<polygon fill="none" stroke="#000000" stroke-dasharray="1,5" points="82,-70 82,-268 414,-268 414,-70 82,-70"/>
</g>
<g id="clust2" class="cluster">
<title>cluster_NavigationModule_declarations</title>
<polygon fill="none" stroke="#000000" points="220,-78 220,-130 406,-130 406,-78 220,-78"/>
</g>
<g id="clust4" class="cluster">
<title>cluster_NavigationModule_imports</title>
<polygon fill="none" stroke="#000000" points="90,-78 90,-130 212,-130 212,-78 90,-78"/>
</g>
<g id="clust5" class="cluster">
<title>cluster_NavigationModule_exports</title>
<polygon fill="none" stroke="#000000" points="154,-208 154,-260 342,-260 342,-208 154,-208"/>
</g>
<!-- NavigationTreeComponent -->
<g id="node1" class="node">
<title>NavigationTreeComponent</title>
<polygon fill="#ffffb3" stroke="#000000" points="397.6825,-122 228.3175,-122 228.3175,-86 397.6825,-86 397.6825,-122"/>
<text text-anchor="middle" x="313" y="-99.8" font-family="Times,serif" font-size="14.00" fill="#000000">NavigationTreeComponent</text>
</g>
<!-- NavigationModule -->
<g id="node2" class="node">
<title>NavigationModule</title>
<polygon fill="#8dd3c7" stroke="#000000" points="308.7576,-187 305.7576,-191 284.7576,-191 281.7576,-187 187.2424,-187 187.2424,-151 308.7576,-151 308.7576,-187"/>
<text text-anchor="middle" x="248" y="-164.8" font-family="Times,serif" font-size="14.00" fill="#000000">NavigationModule</text>
</g>
<!-- NavigationTreeComponent&#45;&gt;NavigationModule -->
<g id="edge1" class="edge">
<title>NavigationTreeComponent&#45;&gt;NavigationModule</title>
<path fill="none" stroke="#000000" d="M268.6437,-122.1061C268.6437,-122.1061 268.6437,-140.991 268.6437,-140.991"/>
<polygon fill="#000000" stroke="#000000" points="265.1438,-140.9909 268.6437,-150.991 272.1438,-140.991 265.1438,-140.9909"/>
</g>
<!-- NavigationTreeComponent  -->
<g id="node4" class="node">
<title>NavigationTreeComponent </title>
<polygon fill="#fb8072" stroke="#000000" points="334.1827,-252 161.8173,-252 161.8173,-216 334.1827,-216 334.1827,-252"/>
<text text-anchor="middle" x="248" y="-229.8" font-family="Times,serif" font-size="14.00" fill="#000000">NavigationTreeComponent </text>
</g>
<!-- NavigationModule&#45;&gt;NavigationTreeComponent  -->
<g id="edge3" class="edge">
<title>NavigationModule&#45;&gt;NavigationTreeComponent </title>
<path fill="none" stroke="#000000" stroke-dasharray="5,2" d="M248,-187.1061C248,-187.1061 248,-205.991 248,-205.991"/>
<polygon fill="#000000" stroke="#000000" points="244.5001,-205.9909 248,-215.991 251.5001,-205.991 244.5001,-205.9909"/>
</g>
<!-- MaterialModule -->
<g id="node3" class="node">
<title>MaterialModule</title>
<polygon fill="#8dd3c7" stroke="#000000" points="204.4706,-122 201.4706,-126 180.4706,-126 177.4706,-122 97.5294,-122 97.5294,-86 204.4706,-86 204.4706,-122"/>
<text text-anchor="middle" x="151" y="-99.8" font-family="Times,serif" font-size="14.00" fill="#000000">MaterialModule</text>
</g>
<!-- MaterialModule&#45;&gt;NavigationModule -->
<g id="edge2" class="edge">
<title>MaterialModule&#45;&gt;NavigationModule</title>
<path fill="none" stroke="#000000" d="M195.8033,-122.1061C195.8033,-122.1061 195.8033,-140.991 195.8033,-140.991"/>
<polygon fill="#000000" stroke="#000000" points="192.3034,-140.9909 195.8033,-150.991 199.3034,-140.991 192.3034,-140.9909"/>
</g>
</g>
</svg>
