<?xml version="1.0" encoding="UTF-8" standalone="no"?>
<!DOCTYPE svg PUBLIC "-//W3C//DTD SVG 1.1//EN"
 "http://www.w3.org/Graphics/SVG/1.1/DTD/svg11.dtd">
<!-- Generated by graphviz version 2.40.1 (20161225.0304)
 -->
<!-- Title: dependencies Pages: 1 -->
<svg width="663pt" height="284pt"
 viewBox="0.00 0.00 663.00 284.00" xmlns="http://www.w3.org/2000/svg" xmlns:xlink="http://www.w3.org/1999/xlink">
<g id="graph0" class="graph" transform="scale(1 1) rotate(0) translate(4 280)">
<title>dependencies</title>
<polygon fill="#ffffff" stroke="transparent" points="-4,4 -4,-280 659,-280 659,4 -4,4"/>
<text text-anchor="start" x="306.5091" y="-42.4" font-family="sans-serif" font-weight="bold" font-size="14.00" fill="#000000">Legend</text>
<polygon fill="#ffffb3" stroke="transparent" points="93.5,-10 93.5,-30 113.5,-30 113.5,-10 93.5,-10"/>
<text text-anchor="start" x="117.129" y="-15.4" font-family="sans-serif" font-size="14.00" fill="#000000"> &#160;Declarations</text>
<polygon fill="#8dd3c7" stroke="transparent" points="206.5,-10 206.5,-30 226.5,-30 226.5,-10 206.5,-10"/>
<text text-anchor="start" x="230.2251" y="-15.4" font-family="sans-serif" font-size="14.00" fill="#000000"> &#160;Module</text>
<polygon fill="#80b1d3" stroke="transparent" points="292.5,-10 292.5,-30 312.5,-30 312.5,-10 292.5,-10"/>
<text text-anchor="start" x="316.2812" y="-15.4" font-family="sans-serif" font-size="14.00" fill="#000000"> &#160;Bootstrap</text>
<polygon fill="#fdb462" stroke="transparent" points="389.5,-10 389.5,-30 409.5,-30 409.5,-10 389.5,-10"/>
<text text-anchor="start" x="413.1732" y="-15.4" font-family="sans-serif" font-size="14.00" fill="#000000"> &#160;Providers</text>
<polygon fill="#fb8072" stroke="transparent" points="485.5,-10 485.5,-30 505.5,-30 505.5,-10 485.5,-10"/>
<text text-anchor="start" x="509.2258" y="-15.4" font-family="sans-serif" font-size="14.00" fill="#000000"> &#160;Exports</text>
<g id="clust1" class="cluster">
<title>cluster_RichTextModule</title>
<polygon fill="none" stroke="#000000" stroke-dasharray="1,5" points="8,-70 8,-268 647,-268 647,-70 8,-70"/>
</g>
<g id="clust2" class="cluster">
<title>cluster_RichTextModule_declarations</title>
<polygon fill="none" stroke="#000000" points="254,-78 254,-130 639,-130 639,-78 254,-78"/>
</g>
<g id="clust6" class="cluster">
<title>cluster_RichTextModule_exports</title>
<polygon fill="none" stroke="#000000" points="151,-208 151,-260 543,-260 543,-208 151,-208"/>
</g>
<g id="clust8" class="cluster">
<title>cluster_RichTextModule_providers</title>
<polygon fill="none" stroke="#000000" points="16,-78 16,-130 246,-130 246,-78 16,-78"/>
</g>
<!-- RichTextByIriComponent -->
<g id="node1" class="node">
<title>RichTextByIriComponent</title>
<polygon fill="#ffffb3" stroke="#000000" points="631.4804,-122 468.5196,-122 468.5196,-86 631.4804,-86 631.4804,-122"/>
<text text-anchor="middle" x="550" y="-99.8" font-family="Times,serif" font-size="14.00" fill="#000000">RichTextByIriComponent</text>
</g>
<!-- RichTextModule -->
<g id="node3" class="node">
<title>RichTextModule</title>
<polygon fill="#8dd3c7" stroke="#000000" points="411.6499,-187 408.6499,-191 387.6499,-191 384.6499,-187 300.3501,-187 300.3501,-151 411.6499,-151 411.6499,-187"/>
<text text-anchor="middle" x="356" y="-164.8" font-family="Times,serif" font-size="14.00" fill="#000000">RichTextModule</text>
</g>
<!-- RichTextByIriComponent&#45;&gt;RichTextModule -->
<g id="edge1" class="edge">
<title>RichTextByIriComponent&#45;&gt;RichTextModule</title>
<path fill="none" stroke="#000000" d="M501.875,-122.1061C501.875,-141.3391 501.875,-169 501.875,-169 501.875,-169 421.9819,-169 421.9819,-169"/>
<polygon fill="#000000" stroke="#000000" points="421.9819,-165.5001 411.9819,-169 421.9819,-172.5001 421.9819,-165.5001"/>
</g>
<!-- TextRichInnerhtmlComponent -->
<g id="node2" class="node">
<title>TextRichInnerhtmlComponent</title>
<polygon fill="#ffffb3" stroke="#000000" points="450.1399,-122 261.8601,-122 261.8601,-86 450.1399,-86 450.1399,-122"/>
<text text-anchor="middle" x="356" y="-99.8" font-family="Times,serif" font-size="14.00" fill="#000000">TextRichInnerhtmlComponent</text>
</g>
<!-- TextRichInnerhtmlComponent&#45;&gt;RichTextModule -->
<g id="edge2" class="edge">
<title>TextRichInnerhtmlComponent&#45;&gt;RichTextModule</title>
<path fill="none" stroke="#000000" d="M356,-122.1061C356,-122.1061 356,-140.991 356,-140.991"/>
<polygon fill="#000000" stroke="#000000" points="352.5001,-140.9909 356,-150.991 359.5001,-140.991 352.5001,-140.9909"/>
</g>
<!-- RichTextByIriComponent  -->
<g id="node4" class="node">
<title>RichTextByIriComponent </title>
<polygon fill="#fb8072" stroke="#000000" points="535.4811,-252 368.5189,-252 368.5189,-216 535.4811,-216 535.4811,-252"/>
<text text-anchor="middle" x="452" y="-229.8" font-family="Times,serif" font-size="14.00" fill="#000000">RichTextByIriComponent </text>
</g>
<!-- RichTextModule&#45;&gt;RichTextByIriComponent  -->
<g id="edge3" class="edge">
<title>RichTextModule&#45;&gt;RichTextByIriComponent </title>
<path fill="none" stroke="#000000" stroke-dasharray="5,2" d="M390.2922,-187.1061C390.2922,-187.1061 390.2922,-205.991 390.2922,-205.991"/>
<polygon fill="#000000" stroke="#000000" points="386.7923,-205.9909 390.2922,-215.991 393.7923,-205.991 386.7923,-205.9909"/>
</g>
<!-- TextRichInnerhtmlComponent  -->
<g id="node5" class="node">
<title>TextRichInnerhtmlComponent </title>
<polygon fill="#fb8072" stroke="#000000" points="351.1397,-252 158.8603,-252 158.8603,-216 351.1397,-216 351.1397,-252"/>
<text text-anchor="middle" x="255" y="-229.8" font-family="Times,serif" font-size="14.00" fill="#000000">TextRichInnerhtmlComponent </text>
</g>
<!-- RichTextModule&#45;&gt;TextRichInnerhtmlComponent  -->
<g id="edge4" class="edge">
<title>RichTextModule&#45;&gt;TextRichInnerhtmlComponent </title>
<path fill="none" stroke="#000000" stroke-dasharray="5,2" d="M325.6226,-187.1061C325.6226,-187.1061 325.6226,-205.991 325.6226,-205.991"/>
<polygon fill="#000000" stroke="#000000" points="322.1226,-205.9909 325.6226,-215.991 329.1226,-205.991 322.1226,-205.9909"/>
</g>
<!-- KnoraV2RequestService -->
<g id="node6" class="node">
<title>KnoraV2RequestService</title>
<ellipse fill="#fdb462" stroke="#000000" cx="131" cy="-104" rx="107.0627" ry="18"/>
<text text-anchor="middle" x="131" y="-99.8" font-family="Times,serif" font-size="14.00" fill="#000000">KnoraV2RequestService</text>
</g>
<!-- KnoraV2RequestService&#45;&gt;RichTextModule -->
<g id="edge5" class="edge">
<title>KnoraV2RequestService&#45;&gt;RichTextModule</title>
<path fill="none" stroke="#000000" d="M198.4808,-118.104C198.4808,-137.2211 198.4808,-169 198.4808,-169 198.4808,-169 290.0211,-169 290.0211,-169"/>
<polygon fill="#000000" stroke="#000000" points="290.0211,-172.5001 300.0211,-169 290.0211,-165.5001 290.0211,-172.5001"/>
</g>
</g>
</svg>
