<?xml version="1.0" encoding="UTF-8" standalone="no"?>
<!DOCTYPE svg PUBLIC "-//W3C//DTD SVG 1.1//EN"
 "http://www.w3.org/Graphics/SVG/1.1/DTD/svg11.dtd">
<!-- Generated by graphviz version 2.40.1 (20161225.0304)
 -->
<!-- Title: dependencies Pages: 1 -->
<svg width="504pt" height="284pt"
 viewBox="0.00 0.00 504.00 284.00" xmlns="http://www.w3.org/2000/svg" xmlns:xlink="http://www.w3.org/1999/xlink">
<g id="graph0" class="graph" transform="scale(1 1) rotate(0) translate(4 280)">
<title>dependencies</title>
<polygon fill="#ffffff" stroke="transparent" points="-4,4 -4,-280 500,-280 500,4 -4,4"/>
<text text-anchor="start" x="227.0091" y="-42.4" font-family="sans-serif" font-weight="bold" font-size="14.00" fill="#000000">Legend</text>
<polygon fill="#ffffb3" stroke="transparent" points="14,-10 14,-30 34,-30 34,-10 14,-10"/>
<text text-anchor="start" x="37.629" y="-15.4" font-family="sans-serif" font-size="14.00" fill="#000000"> &#160;Declarations</text>
<polygon fill="#8dd3c7" stroke="transparent" points="127,-10 127,-30 147,-30 147,-10 127,-10"/>
<text text-anchor="start" x="150.7251" y="-15.4" font-family="sans-serif" font-size="14.00" fill="#000000"> &#160;Module</text>
<polygon fill="#80b1d3" stroke="transparent" points="213,-10 213,-30 233,-30 233,-10 213,-10"/>
<text text-anchor="start" x="236.7812" y="-15.4" font-family="sans-serif" font-size="14.00" fill="#000000"> &#160;Bootstrap</text>
<polygon fill="#fdb462" stroke="transparent" points="310,-10 310,-30 330,-30 330,-10 310,-10"/>
<text text-anchor="start" x="333.6732" y="-15.4" font-family="sans-serif" font-size="14.00" fill="#000000"> &#160;Providers</text>
<polygon fill="#fb8072" stroke="transparent" points="406,-10 406,-30 426,-30 426,-10 406,-10"/>
<text text-anchor="start" x="429.7258" y="-15.4" font-family="sans-serif" font-size="14.00" fill="#000000"> &#160;Exports</text>
<g id="clust1" class="cluster">
<title>cluster_EditResourceViewModule</title>
<polygon fill="none" stroke="#000000" stroke-dasharray="1,5" points="55,-70 55,-268 441,-268 441,-70 55,-70"/>
</g>
<g id="clust2" class="cluster">
<title>cluster_EditResourceViewModule_declarations</title>
<polygon fill="none" stroke="#000000" points="229,-78 229,-130 433,-130 433,-78 229,-78"/>
</g>
<g id="clust4" class="cluster">
<title>cluster_EditResourceViewModule_imports</title>
<polygon fill="none" stroke="#000000" points="63,-78 63,-130 221,-130 221,-78 63,-78"/>
</g>
<g id="clust5" class="cluster">
<title>cluster_EditResourceViewModule_exports</title>
<polygon fill="none" stroke="#000000" points="145,-208 145,-260 351,-260 351,-208 145,-208"/>
</g>
<!-- EditResourceViewComponent -->
<g id="node1" class="node">
<title>EditResourceViewComponent</title>
<polygon fill="#ffffb3" stroke="#000000" points="424.5702,-122 237.4298,-122 237.4298,-86 424.5702,-86 424.5702,-122"/>
<text text-anchor="middle" x="331" y="-99.8" font-family="Times,serif" font-size="14.00" fill="#000000">EditResourceViewComponent</text>
</g>
<!-- EditResourceViewModule -->
<g id="node2" class="node">
<title>EditResourceViewModule</title>
<polygon fill="#8dd3c7" stroke="#000000" points="330.7879,-187 327.7879,-191 306.7879,-191 303.7879,-187 165.2121,-187 165.2121,-151 330.7879,-151 330.7879,-187"/>
<text text-anchor="middle" x="248" y="-164.8" font-family="Times,serif" font-size="14.00" fill="#000000">EditResourceViewModule</text>
</g>
<!-- EditResourceViewComponent&#45;&gt;EditResourceViewModule -->
<g id="edge1" class="edge">
<title>EditResourceViewComponent&#45;&gt;EditResourceViewModule</title>
<path fill="none" stroke="#000000" d="M284.0544,-122.1061C284.0544,-122.1061 284.0544,-140.991 284.0544,-140.991"/>
<polygon fill="#000000" stroke="#000000" points="280.5544,-140.9909 284.0544,-150.991 287.5544,-140.991 280.5544,-140.9909"/>
</g>
<!-- EditResourceViewComponent  -->
<g id="node4" class="node">
<title>EditResourceViewComponent </title>
<polygon fill="#fb8072" stroke="#000000" points="343.0707,-252 152.9293,-252 152.9293,-216 343.0707,-216 343.0707,-252"/>
<text text-anchor="middle" x="248" y="-229.8" font-family="Times,serif" font-size="14.00" fill="#000000">EditResourceViewComponent </text>
</g>
<!-- EditResourceViewModule&#45;&gt;EditResourceViewComponent  -->
<g id="edge3" class="edge">
<title>EditResourceViewModule&#45;&gt;EditResourceViewComponent </title>
<path fill="none" stroke="#000000" stroke-dasharray="5,2" d="M248,-187.1061C248,-187.1061 248,-205.991 248,-205.991"/>
<polygon fill="#000000" stroke="#000000" points="244.5001,-205.9909 248,-215.991 251.5001,-205.991 244.5001,-205.9909"/>
</g>
<!-- ResourceFormModule -->
<g id="node3" class="node">
<title>ResourceFormModule</title>
<polygon fill="#8dd3c7" stroke="#000000" points="212.9692,-122 209.9692,-126 188.9692,-126 185.9692,-122 71.0308,-122 71.0308,-86 212.9692,-86 212.9692,-122"/>
<text text-anchor="middle" x="142" y="-99.8" font-family="Times,serif" font-size="14.00" fill="#000000">ResourceFormModule</text>
</g>
<!-- ResourceFormModule&#45;&gt;EditResourceViewModule -->
<g id="edge2" class="edge">
<title>ResourceFormModule&#45;&gt;EditResourceViewModule</title>
<path fill="none" stroke="#000000" d="M189.1704,-122.1061C189.1704,-122.1061 189.1704,-140.991 189.1704,-140.991"/>
<polygon fill="#000000" stroke="#000000" points="185.6705,-140.9909 189.1704,-150.991 192.6705,-140.991 185.6705,-140.9909"/>
</g>
</g>
</svg>
