<?xml version="1.0" encoding="UTF-8" standalone="no"?>
<!DOCTYPE svg PUBLIC "-//W3C//DTD SVG 1.1//EN"
 "http://www.w3.org/Graphics/SVG/1.1/DTD/svg11.dtd">
<!-- Generated by graphviz version 2.40.1 (20161225.0304)
 -->
<!-- Title: dependencies Pages: 1 -->
<svg width="504pt" height="284pt"
 viewBox="0.00 0.00 504.00 284.00" xmlns="http://www.w3.org/2000/svg" xmlns:xlink="http://www.w3.org/1999/xlink">
<g id="graph0" class="graph" transform="scale(1 1) rotate(0) translate(4 280)">
<title>dependencies</title>
<polygon fill="#ffffff" stroke="transparent" points="-4,4 -4,-280 500,-280 500,4 -4,4"/>
<text text-anchor="start" x="227.0091" y="-42.4" font-family="sans-serif" font-weight="bold" font-size="14.00" fill="#000000">Legend</text>
<polygon fill="#ffffb3" stroke="transparent" points="14,-10 14,-30 34,-30 34,-10 14,-10"/>
<text text-anchor="start" x="37.629" y="-15.4" font-family="sans-serif" font-size="14.00" fill="#000000"> &#160;Declarations</text>
<polygon fill="#8dd3c7" stroke="transparent" points="127,-10 127,-30 147,-30 147,-10 127,-10"/>
<text text-anchor="start" x="150.7251" y="-15.4" font-family="sans-serif" font-size="14.00" fill="#000000"> &#160;Module</text>
<polygon fill="#80b1d3" stroke="transparent" points="213,-10 213,-30 233,-30 233,-10 213,-10"/>
<text text-anchor="start" x="236.7812" y="-15.4" font-family="sans-serif" font-size="14.00" fill="#000000"> &#160;Bootstrap</text>
<polygon fill="#fdb462" stroke="transparent" points="310,-10 310,-30 330,-30 330,-10 310,-10"/>
<text text-anchor="start" x="333.6732" y="-15.4" font-family="sans-serif" font-size="14.00" fill="#000000"> &#160;Providers</text>
<polygon fill="#fb8072" stroke="transparent" points="406,-10 406,-30 426,-30 426,-10 406,-10"/>
<text text-anchor="start" x="429.7258" y="-15.4" font-family="sans-serif" font-size="14.00" fill="#000000"> &#160;Exports</text>
<g id="clust1" class="cluster">
<title>cluster_CreateResourceModule</title>
<polygon fill="none" stroke="#000000" stroke-dasharray="1,5" points="59,-70 59,-268 437,-268 437,-70 59,-70"/>
</g>
<g id="clust2" class="cluster">
<title>cluster_CreateResourceModule_declarations</title>
<polygon fill="none" stroke="#000000" points="243,-78 243,-130 429,-130 429,-78 243,-78"/>
</g>
<g id="clust4" class="cluster">
<title>cluster_CreateResourceModule_imports</title>
<polygon fill="none" stroke="#000000" points="67,-78 67,-130 235,-130 235,-78 67,-78"/>
</g>
<g id="clust5" class="cluster">
<title>cluster_CreateResourceModule_exports</title>
<polygon fill="none" stroke="#000000" points="153,-208 153,-260 343,-260 343,-208 153,-208"/>
</g>
<!-- CreateResourceComponent -->
<g id="node1" class="node">
<title>CreateResourceComponent</title>
<polygon fill="#ffffb3" stroke="#000000" points="420.9496,-122 251.0504,-122 251.0504,-86 420.9496,-86 420.9496,-122"/>
<text text-anchor="middle" x="336" y="-99.8" font-family="Times,serif" font-size="14.00" fill="#000000">CreateResourceComponent</text>
</g>
<!-- CreateResourceModule -->
<g id="node2" class="node">
<title>CreateResourceModule</title>
<polygon fill="#8dd3c7" stroke="#000000" points="322.1671,-187 319.1671,-191 298.1671,-191 295.1671,-187 173.8329,-187 173.8329,-151 322.1671,-151 322.1671,-187"/>
<text text-anchor="middle" x="248" y="-164.8" font-family="Times,serif" font-size="14.00" fill="#000000">CreateResourceModule</text>
</g>
<!-- CreateResourceComponent&#45;&gt;CreateResourceModule -->
<g id="edge1" class="edge">
<title>CreateResourceComponent&#45;&gt;CreateResourceModule</title>
<path fill="none" stroke="#000000" d="M286.5544,-122.1061C286.5544,-122.1061 286.5544,-140.991 286.5544,-140.991"/>
<polygon fill="#000000" stroke="#000000" points="283.0544,-140.9909 286.5544,-150.991 290.0544,-140.991 283.0544,-140.9909"/>
</g>
<!-- CreateResourceComponent  -->
<g id="node4" class="node">
<title>CreateResourceComponent </title>
<polygon fill="#fb8072" stroke="#000000" points="334.9502,-252 161.0498,-252 161.0498,-216 334.9502,-216 334.9502,-252"/>
<text text-anchor="middle" x="248" y="-229.8" font-family="Times,serif" font-size="14.00" fill="#000000">CreateResourceComponent </text>
</g>
<!-- CreateResourceModule&#45;&gt;CreateResourceComponent  -->
<g id="edge3" class="edge">
<title>CreateResourceModule&#45;&gt;CreateResourceComponent </title>
<path fill="none" stroke="#000000" stroke-dasharray="5,2" d="M248,-187.1061C248,-187.1061 248,-205.991 248,-205.991"/>
<polygon fill="#000000" stroke="#000000" points="244.5001,-205.9909 248,-215.991 251.5001,-205.991 244.5001,-205.9909"/>
</g>
<!-- BaseTypeFormsModule -->
<g id="node3" class="node">
<title>BaseTypeFormsModule</title>
<polygon fill="#8dd3c7" stroke="#000000" points="226.8061,-122 223.8061,-126 202.8061,-126 199.8061,-122 75.1939,-122 75.1939,-86 226.8061,-86 226.8061,-122"/>
<text text-anchor="middle" x="151" y="-99.8" font-family="Times,serif" font-size="14.00" fill="#000000">BaseTypeFormsModule</text>
</g>
<!-- BaseTypeFormsModule&#45;&gt;CreateResourceModule -->
<g id="edge2" class="edge">
<title>BaseTypeFormsModule&#45;&gt;CreateResourceModule</title>
<path fill="none" stroke="#000000" d="M200.2847,-122.1061C200.2847,-122.1061 200.2847,-140.991 200.2847,-140.991"/>
<polygon fill="#000000" stroke="#000000" points="196.7848,-140.9909 200.2847,-150.991 203.7848,-140.991 196.7848,-140.9909"/>
</g>
</g>
</svg>
