<?xml version="1.0" encoding="UTF-8" standalone="no"?>
<!DOCTYPE svg PUBLIC "-//W3C//DTD SVG 1.1//EN"
 "http://www.w3.org/Graphics/SVG/1.1/DTD/svg11.dtd">
<!-- Generated by graphviz version 2.40.1 (20161225.0304)
 -->
<!-- Title: dependencies Pages: 1 -->
<svg width="640pt" height="284pt"
 viewBox="0.00 0.00 640.00 284.00" xmlns="http://www.w3.org/2000/svg" xmlns:xlink="http://www.w3.org/1999/xlink">
<g id="graph0" class="graph" transform="scale(1 1) rotate(0) translate(4 280)">
<title>dependencies</title>
<polygon fill="#ffffff" stroke="transparent" points="-4,4 -4,-280 636,-280 636,4 -4,4"/>
<text text-anchor="start" x="295.0091" y="-42.4" font-family="sans-serif" font-weight="bold" font-size="14.00" fill="#000000">Legend</text>
<polygon fill="#ffffb3" stroke="transparent" points="82,-10 82,-30 102,-30 102,-10 82,-10"/>
<text text-anchor="start" x="105.629" y="-15.4" font-family="sans-serif" font-size="14.00" fill="#000000"> &#160;Declarations</text>
<polygon fill="#8dd3c7" stroke="transparent" points="195,-10 195,-30 215,-30 215,-10 195,-10"/>
<text text-anchor="start" x="218.7251" y="-15.4" font-family="sans-serif" font-size="14.00" fill="#000000"> &#160;Module</text>
<polygon fill="#80b1d3" stroke="transparent" points="281,-10 281,-30 301,-30 301,-10 281,-10"/>
<text text-anchor="start" x="304.7812" y="-15.4" font-family="sans-serif" font-size="14.00" fill="#000000"> &#160;Bootstrap</text>
<polygon fill="#fdb462" stroke="transparent" points="378,-10 378,-30 398,-30 398,-10 378,-10"/>
<text text-anchor="start" x="401.6732" y="-15.4" font-family="sans-serif" font-size="14.00" fill="#000000"> &#160;Providers</text>
<polygon fill="#fb8072" stroke="transparent" points="474,-10 474,-30 494,-30 494,-10 474,-10"/>
<text text-anchor="start" x="497.7258" y="-15.4" font-family="sans-serif" font-size="14.00" fill="#000000"> &#160;Exports</text>
<g id="clust1" class="cluster">
<title>cluster_CreateResourceModule</title>
<polygon fill="none" stroke="#000000" stroke-dasharray="1,5" points="8,-70 8,-268 624,-268 624,-70 8,-70"/>
</g>
<g id="clust2" class="cluster">
<title>cluster_CreateResourceModule_declarations</title>
<polygon fill="none" stroke="#000000" points="430,-78 430,-130 616,-130 616,-78 430,-78"/>
</g>
<g id="clust4" class="cluster">
<title>cluster_CreateResourceModule_imports</title>
<polygon fill="none" stroke="#000000" points="254,-78 254,-130 422,-130 422,-78 254,-78"/>
</g>
<g id="clust5" class="cluster">
<title>cluster_CreateResourceModule_exports</title>
<polygon fill="none" stroke="#000000" points="243,-208 243,-260 433,-260 433,-208 243,-208"/>
</g>
<g id="clust7" class="cluster">
<title>cluster_CreateResourceModule_providers</title>
<polygon fill="none" stroke="#000000" points="16,-78 16,-130 246,-130 246,-78 16,-78"/>
</g>
<!-- CreateResourceComponent -->
<g id="node1" class="node">
<title>CreateResourceComponent</title>
<polygon fill="#ffffb3" stroke="#000000" points="607.9496,-122 438.0504,-122 438.0504,-86 607.9496,-86 607.9496,-122"/>
<text text-anchor="middle" x="523" y="-99.8" font-family="Times,serif" font-size="14.00" fill="#000000">CreateResourceComponent</text>
</g>
<!-- CreateResourceModule -->
<g id="node2" class="node">
<title>CreateResourceModule</title>
<polygon fill="#8dd3c7" stroke="#000000" points="412.1671,-187 409.1671,-191 388.1671,-191 385.1671,-187 263.8329,-187 263.8329,-151 412.1671,-151 412.1671,-187"/>
<text text-anchor="middle" x="338" y="-164.8" font-family="Times,serif" font-size="14.00" fill="#000000">CreateResourceModule</text>
</g>
<!-- CreateResourceComponent&#45;&gt;CreateResourceModule -->
<g id="edge1" class="edge">
<title>CreateResourceComponent&#45;&gt;CreateResourceModule</title>
<path fill="none" stroke="#000000" d="M523,-122.1061C523,-141.3391 523,-169 523,-169 523,-169 422.1806,-169 422.1806,-169"/>
<polygon fill="#000000" stroke="#000000" points="422.1807,-165.5001 412.1806,-169 422.1806,-172.5001 422.1807,-165.5001"/>
</g>
<!-- CreateResourceComponent  -->
<g id="node4" class="node">
<title>CreateResourceComponent </title>
<polygon fill="#fb8072" stroke="#000000" points="424.9502,-252 251.0498,-252 251.0498,-216 424.9502,-216 424.9502,-252"/>
<text text-anchor="middle" x="338" y="-229.8" font-family="Times,serif" font-size="14.00" fill="#000000">CreateResourceComponent </text>
</g>
<!-- CreateResourceModule&#45;&gt;CreateResourceComponent  -->
<g id="edge3" class="edge">
<title>CreateResourceModule&#45;&gt;CreateResourceComponent </title>
<path fill="none" stroke="#000000" stroke-dasharray="5,2" d="M338,-187.1061C338,-187.1061 338,-205.991 338,-205.991"/>
<polygon fill="#000000" stroke="#000000" points="334.5001,-205.9909 338,-215.991 341.5001,-205.991 334.5001,-205.9909"/>
</g>
<!-- BaseTypeFormsModule -->
<g id="node3" class="node">
<title>BaseTypeFormsModule</title>
<polygon fill="#8dd3c7" stroke="#000000" points="413.8061,-122 410.8061,-126 389.8061,-126 386.8061,-122 262.1939,-122 262.1939,-86 413.8061,-86 413.8061,-122"/>
<text text-anchor="middle" x="338" y="-99.8" font-family="Times,serif" font-size="14.00" fill="#000000">BaseTypeFormsModule</text>
</g>
<!-- BaseTypeFormsModule&#45;&gt;CreateResourceModule -->
<g id="edge2" class="edge">
<title>BaseTypeFormsModule&#45;&gt;CreateResourceModule</title>
<path fill="none" stroke="#000000" d="M338,-122.1061C338,-122.1061 338,-140.991 338,-140.991"/>
<polygon fill="#000000" stroke="#000000" points="334.5001,-140.9909 338,-150.991 341.5001,-140.991 334.5001,-140.9909"/>
</g>
<!-- KnoraV1RequestService -->
<g id="node5" class="node">
<title>KnoraV1RequestService</title>
<ellipse fill="#fdb462" stroke="#000000" cx="131" cy="-104" rx="107.0627" ry="18"/>
<text text-anchor="middle" x="131" y="-99.8" font-family="Times,serif" font-size="14.00" fill="#000000">KnoraV1RequestService</text>
</g>
<!-- KnoraV1RequestService&#45;&gt;CreateResourceModule -->
<g id="edge4" class="edge">
<title>KnoraV1RequestService&#45;&gt;CreateResourceModule</title>
<path fill="none" stroke="#000000" d="M131,-122.1061C131,-141.3391 131,-169 131,-169 131,-169 253.8529,-169 253.8529,-169"/>
<polygon fill="#000000" stroke="#000000" points="253.853,-172.5001 263.8529,-169 253.8529,-165.5001 253.853,-172.5001"/>
</g>
</g>
</svg>
