<?xml version="1.0" encoding="UTF-8" standalone="no"?>
<!DOCTYPE svg PUBLIC "-//W3C//DTD SVG 1.1//EN"
 "http://www.w3.org/Graphics/SVG/1.1/DTD/svg11.dtd">
<!-- Generated by graphviz version 2.40.1 (20161225.0304)
 -->
<!-- Title: dependencies Pages: 1 -->
<svg width="1610pt" height="284pt"
 viewBox="0.00 0.00 1610.00 284.00" xmlns="http://www.w3.org/2000/svg" xmlns:xlink="http://www.w3.org/1999/xlink">
<g id="graph0" class="graph" transform="scale(1 1) rotate(0) translate(4 280)">
<title>dependencies</title>
<polygon fill="#ffffff" stroke="transparent" points="-4,4 -4,-280 1606,-280 1606,4 -4,4"/>
<text text-anchor="start" x="780.0091" y="-42.4" font-family="sans-serif" font-weight="bold" font-size="14.00" fill="#000000">Legend</text>
<polygon fill="#ffffb3" stroke="transparent" points="567,-10 567,-30 587,-30 587,-10 567,-10"/>
<text text-anchor="start" x="590.629" y="-15.4" font-family="sans-serif" font-size="14.00" fill="#000000"> &#160;Declarations</text>
<polygon fill="#8dd3c7" stroke="transparent" points="680,-10 680,-30 700,-30 700,-10 680,-10"/>
<text text-anchor="start" x="703.7251" y="-15.4" font-family="sans-serif" font-size="14.00" fill="#000000"> &#160;Module</text>
<polygon fill="#80b1d3" stroke="transparent" points="766,-10 766,-30 786,-30 786,-10 766,-10"/>
<text text-anchor="start" x="789.7812" y="-15.4" font-family="sans-serif" font-size="14.00" fill="#000000"> &#160;Bootstrap</text>
<polygon fill="#fdb462" stroke="transparent" points="863,-10 863,-30 883,-30 883,-10 863,-10"/>
<text text-anchor="start" x="886.6732" y="-15.4" font-family="sans-serif" font-size="14.00" fill="#000000"> &#160;Providers</text>
<polygon fill="#fb8072" stroke="transparent" points="959,-10 959,-30 979,-30 979,-10 959,-10"/>
<text text-anchor="start" x="982.7258" y="-15.4" font-family="sans-serif" font-size="14.00" fill="#000000"> &#160;Exports</text>
<g id="clust1" class="cluster">
<title>cluster_D3jsModule</title>
<polygon fill="none" stroke="#000000" stroke-dasharray="1,5" points="8,-70 8,-268 1594,-268 1594,-70 8,-70"/>
</g>
<g id="clust2" class="cluster">
<title>cluster_D3jsModule_declarations</title>
<polygon fill="none" stroke="#000000" points="32,-78 32,-130 1571,-130 1571,-78 32,-78"/>
</g>
<g id="clust13" class="cluster">
<title>cluster_D3jsModule_exports</title>
<polygon fill="none" stroke="#000000" points="16,-208 16,-260 1586,-260 1586,-208 16,-208"/>
</g>
<!-- BarChartComponent -->
<g id="node1" class="node">
<title>BarChartComponent</title>
<polygon fill="#ffffb3" stroke="#000000" points="1563.1471,-122 1430.8529,-122 1430.8529,-86 1563.1471,-86 1563.1471,-122"/>
<text text-anchor="middle" x="1497" y="-99.8" font-family="Times,serif" font-size="14.00" fill="#000000">BarChartComponent</text>
</g>
<!-- D3jsModule -->
<g id="node10" class="node">
<title>D3jsModule</title>
<polygon fill="#8dd3c7" stroke="#000000" points="834.9916,-187 831.9916,-191 810.9916,-191 807.9916,-187 749.0084,-187 749.0084,-151 834.9916,-151 834.9916,-187"/>
<text text-anchor="middle" x="792" y="-164.8" font-family="Times,serif" font-size="14.00" fill="#000000">D3jsModule</text>
</g>
<!-- BarChartComponent&#45;&gt;D3jsModule -->
<g id="edge1" class="edge">
<title>BarChartComponent&#45;&gt;D3jsModule</title>
<path fill="none" stroke="#000000" d="M1436.3017,-122.2222C1436.3017,-140.8285 1436.3017,-167 1436.3017,-167 1436.3017,-167 845.0238,-167 845.0238,-167"/>
<polygon fill="#000000" stroke="#000000" points="845.0239,-163.5001 835.0238,-167 845.0238,-170.5001 845.0239,-163.5001"/>
</g>
<!-- BrushAndZoomComponent -->
<g id="node2" class="node">
<title>BrushAndZoomComponent</title>
<polygon fill="#ffffb3" stroke="#000000" points="1413.3243,-122 1240.6757,-122 1240.6757,-86 1413.3243,-86 1413.3243,-122"/>
<text text-anchor="middle" x="1327" y="-99.8" font-family="Times,serif" font-size="14.00" fill="#000000">BrushAndZoomComponent</text>
</g>
<!-- BrushAndZoomComponent&#45;&gt;D3jsModule -->
<g id="edge2" class="edge">
<title>BrushAndZoomComponent&#45;&gt;D3jsModule</title>
<path fill="none" stroke="#000000" d="M1244.463,-122.0225C1244.463,-139.3734 1244.463,-163 1244.463,-163 1244.463,-163 845.3841,-163 845.3841,-163"/>
<polygon fill="#000000" stroke="#000000" points="845.3841,-159.5001 835.3841,-163 845.384,-166.5001 845.3841,-159.5001"/>
</g>
<!-- D3tutorialComponent -->
<g id="node3" class="node">
<title>D3tutorialComponent</title>
<polygon fill="#ffffb3" stroke="#000000" points="1222.3767,-122 1083.6233,-122 1083.6233,-86 1222.3767,-86 1222.3767,-122"/>
<text text-anchor="middle" x="1153" y="-99.8" font-family="Times,serif" font-size="14.00" fill="#000000">D3tutorialComponent</text>
</g>
<!-- D3tutorialComponent&#45;&gt;D3jsModule -->
<g id="edge3" class="edge">
<title>D3tutorialComponent&#45;&gt;D3jsModule</title>
<path fill="none" stroke="#000000" d="M1177.5628,-122.0091C1177.5628,-138.0494 1177.5628,-159 1177.5628,-159 1177.5628,-159 845.1066,-159 845.1066,-159"/>
<polygon fill="#000000" stroke="#000000" points="845.1067,-155.5001 835.1066,-159 845.1066,-162.5001 845.1067,-155.5001"/>
</g>
<!-- LeafletExampleComponent -->
<g id="node4" class="node">
<title>LeafletExampleComponent</title>
<polygon fill="#ffffb3" stroke="#000000" points="1065.2338,-122 894.7662,-122 894.7662,-86 1065.2338,-86 1065.2338,-122"/>
<text text-anchor="middle" x="980" y="-99.8" font-family="Times,serif" font-size="14.00" fill="#000000">LeafletExampleComponent</text>
</g>
<!-- LeafletExampleComponent&#45;&gt;D3jsModule -->
<g id="edge4" class="edge">
<title>LeafletExampleComponent&#45;&gt;D3jsModule</title>
<path fill="none" stroke="#000000" d="M1008.8723,-122.1243C1008.8723,-136.7832 1008.8723,-155 1008.8723,-155 1008.8723,-155 845.1063,-155 845.1063,-155"/>
<polygon fill="#000000" stroke="#000000" points="845.1063,-151.5001 835.1063,-155 845.1062,-158.5001 845.1063,-151.5001"/>
</g>
<!-- MultiLineChartComponent -->
<g id="node5" class="node">
<title>MultiLineChartComponent</title>
<polygon fill="#ffffb3" stroke="#000000" points="876.7091,-122 707.2909,-122 707.2909,-86 876.7091,-86 876.7091,-122"/>
<text text-anchor="middle" x="792" y="-99.8" font-family="Times,serif" font-size="14.00" fill="#000000">MultiLineChartComponent</text>
</g>
<!-- MultiLineChartComponent&#45;&gt;D3jsModule -->
<g id="edge5" class="edge">
<title>MultiLineChartComponent&#45;&gt;D3jsModule</title>
<path fill="none" stroke="#000000" d="M792,-122.1061C792,-122.1061 792,-140.991 792,-140.991"/>
<polygon fill="#000000" stroke="#000000" points="788.5001,-140.9909 792,-150.991 795.5001,-140.991 788.5001,-140.9909"/>
</g>
<!-- PieChartComponent -->
<g id="node6" class="node">
<title>PieChartComponent</title>
<polygon fill="#ffffb3" stroke="#000000" points="689.323,-122 558.677,-122 558.677,-86 689.323,-86 689.323,-122"/>
<text text-anchor="middle" x="624" y="-99.8" font-family="Times,serif" font-size="14.00" fill="#000000">PieChartComponent</text>
</g>
<!-- PieChartComponent&#45;&gt;D3jsModule -->
<g id="edge6" class="edge">
<title>PieChartComponent&#45;&gt;D3jsModule</title>
<path fill="none" stroke="#000000" d="M644.8871,-122.1243C644.8871,-136.7832 644.8871,-155 644.8871,-155 644.8871,-155 738.657,-155 738.657,-155"/>
<polygon fill="#000000" stroke="#000000" points="738.657,-158.5001 748.657,-155 738.6569,-151.5001 738.657,-158.5001"/>
</g>
<!-- RadialBarchartComponent -->
<g id="node7" class="node">
<title>RadialBarchartComponent</title>
<polygon fill="#ffffb3" stroke="#000000" points="541.0716,-122 374.9284,-122 374.9284,-86 541.0716,-86 541.0716,-122"/>
<text text-anchor="middle" x="458" y="-99.8" font-family="Times,serif" font-size="14.00" fill="#000000">RadialBarchartComponent</text>
</g>
<!-- RadialBarchartComponent&#45;&gt;D3jsModule -->
<g id="edge7" class="edge">
<title>RadialBarchartComponent&#45;&gt;D3jsModule</title>
<path fill="none" stroke="#000000" d="M482.1786,-122.0091C482.1786,-138.0494 482.1786,-159 482.1786,-159 482.1786,-159 738.9207,-159 738.9207,-159"/>
<polygon fill="#000000" stroke="#000000" points="738.9207,-162.5001 748.9207,-159 738.9206,-155.5001 738.9207,-162.5001"/>
</g>
<!-- SankeyComponent -->
<g id="node8" class="node">
<title>SankeyComponent</title>
<polygon fill="#ffffb3" stroke="#000000" points="357.045,-122 234.955,-122 234.955,-86 357.045,-86 357.045,-122"/>
<text text-anchor="middle" x="296" y="-99.8" font-family="Times,serif" font-size="14.00" fill="#000000">SankeyComponent</text>
</g>
<!-- SankeyComponent&#45;&gt;D3jsModule -->
<g id="edge8" class="edge">
<title>SankeyComponent&#45;&gt;D3jsModule</title>
<path fill="none" stroke="#000000" d="M352.6471,-122.0225C352.6471,-139.3734 352.6471,-163 352.6471,-163 352.6471,-163 738.6707,-163 738.6707,-163"/>
<polygon fill="#000000" stroke="#000000" points="738.6708,-166.5001 748.6707,-163 738.6707,-159.5001 738.6708,-166.5001"/>
</g>
<!-- StackedBarChartComponent -->
<g id="node9" class="node">
<title>StackedBarChartComponent</title>
<polygon fill="#ffffb3" stroke="#000000" points="216.4636,-122 39.5364,-122 39.5364,-86 216.4636,-86 216.4636,-122"/>
<text text-anchor="middle" x="128" y="-99.8" font-family="Times,serif" font-size="14.00" fill="#000000">StackedBarChartComponent</text>
</g>
<!-- StackedBarChartComponent&#45;&gt;D3jsModule -->
<g id="edge9" class="edge">
<title>StackedBarChartComponent&#45;&gt;D3jsModule</title>
<path fill="none" stroke="#000000" d="M210.3568,-122.2222C210.3568,-140.8285 210.3568,-167 210.3568,-167 210.3568,-167 738.7574,-167 738.7574,-167"/>
<polygon fill="#000000" stroke="#000000" points="738.7574,-170.5001 748.7574,-167 738.7574,-163.5001 738.7574,-170.5001"/>
</g>
<!-- BarChartComponent  -->
<g id="node11" class="node">
<title>BarChartComponent </title>
<polygon fill="#fb8072" stroke="#000000" points="1578.1467,-252 1441.8533,-252 1441.8533,-216 1578.1467,-216 1578.1467,-252"/>
<text text-anchor="middle" x="1510" y="-229.8" font-family="Times,serif" font-size="14.00" fill="#000000">BarChartComponent </text>
</g>
<!-- D3jsModule&#45;&gt;BarChartComponent  -->
<g id="edge10" class="edge">
<title>D3jsModule&#45;&gt;BarChartComponent </title>
<path fill="none" stroke="#000000" stroke-dasharray="5,2" d="M835.1174,-171C989.0805,-171 1502.625,-171 1502.625,-171 1502.625,-171 1502.625,-205.7778 1502.625,-205.7778"/>
<polygon fill="#000000" stroke="#000000" points="1499.1251,-205.7778 1502.625,-215.7778 1506.1251,-205.7778 1499.1251,-205.7778"/>
</g>
<!-- BrushAndZoomComponent  -->
<g id="node12" class="node">
<title>BrushAndZoomComponent </title>
<polygon fill="#fb8072" stroke="#000000" points="1423.8241,-252 1248.1759,-252 1248.1759,-216 1423.8241,-216 1423.8241,-252"/>
<text text-anchor="middle" x="1336" y="-229.8" font-family="Times,serif" font-size="14.00" fill="#000000">BrushAndZoomComponent </text>
</g>
<!-- D3jsModule&#45;&gt;BrushAndZoomComponent  -->
<g id="edge11" class="edge">
<title>D3jsModule&#45;&gt;BrushAndZoomComponent </title>
<path fill="none" stroke="#000000" stroke-dasharray="5,2" d="M835.1675,-175C962.9811,-175 1330.625,-175 1330.625,-175 1330.625,-175 1330.625,-205.9775 1330.625,-205.9775"/>
<polygon fill="#000000" stroke="#000000" points="1327.1251,-205.9774 1330.625,-215.9775 1334.1251,-205.9775 1327.1251,-205.9774"/>
</g>
<!-- D3tutorialComponent  -->
<g id="node13" class="node">
<title>D3tutorialComponent </title>
<polygon fill="#fb8072" stroke="#000000" points="1230.3771,-252 1087.6229,-252 1087.6229,-216 1230.3771,-216 1230.3771,-252"/>
<text text-anchor="middle" x="1159" y="-229.8" font-family="Times,serif" font-size="14.00" fill="#000000">D3tutorialComponent </text>
</g>
<!-- D3jsModule&#45;&gt;D3tutorialComponent  -->
<g id="edge12" class="edge">
<title>D3jsModule&#45;&gt;D3tutorialComponent </title>
<path fill="none" stroke="#000000" stroke-dasharray="5,2" d="M835.1483,-179C926.8224,-179 1132.6872,-179 1132.6872,-179 1132.6872,-179 1132.6872,-205.9909 1132.6872,-205.9909"/>
<polygon fill="#000000" stroke="#000000" points="1129.1873,-205.9909 1132.6872,-215.9909 1136.1873,-205.991 1129.1873,-205.9909"/>
</g>
<!-- LeafletExampleComponent  -->
<g id="node14" class="node">
<title>LeafletExampleComponent </title>
<polygon fill="#fb8072" stroke="#000000" points="1070.2338,-252 895.7662,-252 895.7662,-216 1070.2338,-216 1070.2338,-252"/>
<text text-anchor="middle" x="983" y="-229.8" font-family="Times,serif" font-size="14.00" fill="#000000">LeafletExampleComponent </text>
</g>
<!-- D3jsModule&#45;&gt;LeafletExampleComponent  -->
<g id="edge13" class="edge">
<title>D3jsModule&#45;&gt;LeafletExampleComponent </title>
<path fill="none" stroke="#000000" stroke-dasharray="5,2" d="M835.4005,-183C882.8971,-183 952.3777,-183 952.3777,-183 952.3777,-183 952.3777,-205.8757 952.3777,-205.8757"/>
<polygon fill="#000000" stroke="#000000" points="948.8778,-205.8757 952.3777,-215.8757 955.8778,-205.8757 948.8778,-205.8757"/>
</g>
<!-- MultiLineChartComponent  -->
<g id="node15" class="node">
<title>MultiLineChartComponent </title>
<polygon fill="#fb8072" stroke="#000000" points="878.2092,-252 705.7908,-252 705.7908,-216 878.2092,-216 878.2092,-252"/>
<text text-anchor="middle" x="792" y="-229.8" font-family="Times,serif" font-size="14.00" fill="#000000">MultiLineChartComponent </text>
</g>
<!-- D3jsModule&#45;&gt;MultiLineChartComponent  -->
<g id="edge14" class="edge">
<title>D3jsModule&#45;&gt;MultiLineChartComponent </title>
<path fill="none" stroke="#000000" stroke-dasharray="5,2" d="M792,-187.1061C792,-187.1061 792,-205.991 792,-205.991"/>
<polygon fill="#000000" stroke="#000000" points="788.5001,-205.9909 792,-215.991 795.5001,-205.991 788.5001,-205.9909"/>
</g>
<!-- PieChartComponent  -->
<g id="node16" class="node">
<title>PieChartComponent </title>
<polygon fill="#fb8072" stroke="#000000" points="687.8227,-252 554.1773,-252 554.1773,-216 687.8227,-216 687.8227,-252"/>
<text text-anchor="middle" x="621" y="-229.8" font-family="Times,serif" font-size="14.00" fill="#000000">PieChartComponent </text>
</g>
<!-- D3jsModule&#45;&gt;PieChartComponent  -->
<g id="edge15" class="edge">
<title>D3jsModule&#45;&gt;PieChartComponent </title>
<path fill="none" stroke="#000000" stroke-dasharray="5,2" d="M748.8549,-183C692.7565,-183 601.8629,-183 601.8629,-183 601.8629,-183 601.8629,-205.8757 601.8629,-205.8757"/>
<polygon fill="#000000" stroke="#000000" points="598.363,-205.8757 601.8629,-215.8757 605.363,-205.8757 598.363,-205.8757"/>
</g>
<!-- RadialBarchartComponent  -->
<g id="node17" class="node">
<title>RadialBarchartComponent </title>
<polygon fill="#fb8072" stroke="#000000" points="535.5721,-252 366.4279,-252 366.4279,-216 535.5721,-216 535.5721,-252"/>
<text text-anchor="middle" x="451" y="-229.8" font-family="Times,serif" font-size="14.00" fill="#000000">RadialBarchartComponent </text>
</g>
<!-- D3jsModule&#45;&gt;RadialBarchartComponent  -->
<g id="edge16" class="edge">
<title>D3jsModule&#45;&gt;RadialBarchartComponent </title>
<path fill="none" stroke="#000000" stroke-dasharray="5,2" d="M748.8828,-179C652.6144,-179 428.5714,-179 428.5714,-179 428.5714,-179 428.5714,-205.9909 428.5714,-205.9909"/>
<polygon fill="#000000" stroke="#000000" points="425.0715,-205.9909 428.5714,-215.9909 432.0715,-205.991 425.0715,-205.9909"/>
</g>
<!-- SankeyComponent  -->
<g id="node18" class="node">
<title>SankeyComponent </title>
<polygon fill="#fb8072" stroke="#000000" points="348.0442,-252 221.9558,-252 221.9558,-216 348.0442,-216 348.0442,-252"/>
<text text-anchor="middle" x="285" y="-229.8" font-family="Times,serif" font-size="14.00" fill="#000000">SankeyComponent </text>
</g>
<!-- D3jsModule&#45;&gt;SankeyComponent  -->
<g id="edge17" class="edge">
<title>D3jsModule&#45;&gt;SankeyComponent </title>
<path fill="none" stroke="#000000" stroke-dasharray="5,2" d="M748.8837,-175C627.4503,-175 291.375,-175 291.375,-175 291.375,-175 291.375,-205.9775 291.375,-205.9775"/>
<polygon fill="#000000" stroke="#000000" points="287.8751,-205.9774 291.375,-215.9775 294.8751,-205.9775 287.8751,-205.9774"/>
</g>
<!-- StackedBarChartComponent  -->
<g id="node19" class="node">
<title>StackedBarChartComponent </title>
<polygon fill="#fb8072" stroke="#000000" points="204.4642,-252 23.5358,-252 23.5358,-216 204.4642,-216 204.4642,-252"/>
<text text-anchor="middle" x="114" y="-229.8" font-family="Times,serif" font-size="14.00" fill="#000000">StackedBarChartComponent </text>
</g>
<!-- D3jsModule&#45;&gt;StackedBarChartComponent  -->
<g id="edge18" class="edge">
<title>D3jsModule&#45;&gt;StackedBarChartComponent </title>
<path fill="none" stroke="#000000" stroke-dasharray="5,2" d="M748.8047,-171C600.6043,-171 121.875,-171 121.875,-171 121.875,-171 121.875,-205.7778 121.875,-205.7778"/>
<polygon fill="#000000" stroke="#000000" points="118.3751,-205.7778 121.875,-215.7778 125.3751,-205.7778 118.3751,-205.7778"/>
</g>
</g>
</svg>
