<?xml version="1.0" encoding="UTF-8" standalone="no"?>
<!DOCTYPE svg PUBLIC "-//W3C//DTD SVG 1.1//EN"
 "http://www.w3.org/Graphics/SVG/1.1/DTD/svg11.dtd">
<!-- Generated by graphviz version 2.40.1 (20161225.0304)
 -->
<!-- Title: dependencies Pages: 1 -->
<svg width="1343pt" height="284pt"
 viewBox="0.00 0.00 1343.00 284.00" xmlns="http://www.w3.org/2000/svg" xmlns:xlink="http://www.w3.org/1999/xlink">
<g id="graph0" class="graph" transform="scale(1 1) rotate(0) translate(4 280)">
<title>dependencies</title>
<polygon fill="#ffffff" stroke="transparent" points="-4,4 -4,-280 1339,-280 1339,4 -4,4"/>
<text text-anchor="start" x="646.5091" y="-42.4" font-family="sans-serif" font-weight="bold" font-size="14.00" fill="#000000">Legend</text>
<polygon fill="#ffffb3" stroke="transparent" points="433.5,-10 433.5,-30 453.5,-30 453.5,-10 433.5,-10"/>
<text text-anchor="start" x="457.129" y="-15.4" font-family="sans-serif" font-size="14.00" fill="#000000"> &#160;Declarations</text>
<polygon fill="#8dd3c7" stroke="transparent" points="546.5,-10 546.5,-30 566.5,-30 566.5,-10 546.5,-10"/>
<text text-anchor="start" x="570.2251" y="-15.4" font-family="sans-serif" font-size="14.00" fill="#000000"> &#160;Module</text>
<polygon fill="#80b1d3" stroke="transparent" points="632.5,-10 632.5,-30 652.5,-30 652.5,-10 632.5,-10"/>
<text text-anchor="start" x="656.2812" y="-15.4" font-family="sans-serif" font-size="14.00" fill="#000000"> &#160;Bootstrap</text>
<polygon fill="#fdb462" stroke="transparent" points="729.5,-10 729.5,-30 749.5,-30 749.5,-10 729.5,-10"/>
<text text-anchor="start" x="753.1732" y="-15.4" font-family="sans-serif" font-size="14.00" fill="#000000"> &#160;Providers</text>
<polygon fill="#fb8072" stroke="transparent" points="825.5,-10 825.5,-30 845.5,-30 845.5,-10 825.5,-10"/>
<text text-anchor="start" x="849.2258" y="-15.4" font-family="sans-serif" font-size="14.00" fill="#000000"> &#160;Exports</text>
<g id="clust1" class="cluster">
<title>cluster_TextViewModule</title>
<polygon fill="none" stroke="#000000" stroke-dasharray="1,5" points="8,-70 8,-268 1327,-268 1327,-70 8,-70"/>
</g>
<g id="clust2" class="cluster">
<title>cluster_TextViewModule_declarations</title>
<polygon fill="none" stroke="#000000" points="368,-78 368,-130 1319,-130 1319,-78 368,-78"/>
</g>
<g id="clust8" class="cluster">
<title>cluster_TextViewModule_imports</title>
<polygon fill="none" stroke="#000000" points="238,-78 238,-130 360,-130 360,-78 238,-78"/>
</g>
<g id="clust9" class="cluster">
<title>cluster_TextViewModule_exports</title>
<polygon fill="none" stroke="#000000" points="580,-208 580,-260 736,-260 736,-208 580,-208"/>
</g>
<g id="clust11" class="cluster">
<title>cluster_TextViewModule_providers</title>
<polygon fill="none" stroke="#000000" points="16,-78 16,-130 230,-130 230,-78 16,-78"/>
</g>
<!-- TextViewCanvasComponent -->
<g id="node1" class="node">
<title>TextViewCanvasComponent</title>
<polygon fill="#ffffb3" stroke="#000000" points="1311.0196,-122 1132.9804,-122 1132.9804,-86 1311.0196,-86 1311.0196,-122"/>
<text text-anchor="middle" x="1222" y="-99.8" font-family="Times,serif" font-size="14.00" fill="#000000">TextViewCanvasComponent</text>
</g>
<!-- TextViewModule -->
<g id="node6" class="node">
<title>TextViewModule</title>
<polygon fill="#8dd3c7" stroke="#000000" points="715.527,-187 712.527,-191 691.527,-191 688.527,-187 600.473,-187 600.473,-151 715.527,-151 715.527,-187"/>
<text text-anchor="middle" x="658" y="-164.8" font-family="Times,serif" font-size="14.00" fill="#000000">TextViewModule</text>
</g>
<!-- TextViewCanvasComponent&#45;&gt;TextViewModule -->
<g id="edge1" class="edge">
<title>TextViewCanvasComponent&#45;&gt;TextViewModule</title>
<path fill="none" stroke="#000000" d="M1222,-122.2921C1222,-144.2057 1222,-178 1222,-178 1222,-178 725.7074,-178 725.7074,-178"/>
<polygon fill="#000000" stroke="#000000" points="725.7074,-174.5001 715.7074,-178 725.7074,-181.5001 725.7074,-174.5001"/>
</g>
<!-- TextViewComponent -->
<g id="node2" class="node">
<title>TextViewComponent</title>
<polygon fill="#ffffb3" stroke="#000000" points="1114.8089,-122 977.1911,-122 977.1911,-86 1114.8089,-86 1114.8089,-122"/>
<text text-anchor="middle" x="1046" y="-99.8" font-family="Times,serif" font-size="14.00" fill="#000000">TextViewComponent</text>
</g>
<!-- TextViewComponent&#45;&gt;TextViewModule -->
<g id="edge2" class="edge">
<title>TextViewComponent&#45;&gt;TextViewModule</title>
<path fill="none" stroke="#000000" d="M1046,-122.1061C1046,-141.3391 1046,-169 1046,-169 1046,-169 725.6686,-169 725.6686,-169"/>
<polygon fill="#000000" stroke="#000000" points="725.6686,-165.5001 715.6686,-169 725.6685,-172.5001 725.6686,-165.5001"/>
</g>
<!-- TextViewMetadataComponent -->
<g id="node3" class="node">
<title>TextViewMetadataComponent</title>
<polygon fill="#ffffb3" stroke="#000000" points="959.8932,-122 770.1068,-122 770.1068,-86 959.8932,-86 959.8932,-122"/>
<text text-anchor="middle" x="865" y="-99.8" font-family="Times,serif" font-size="14.00" fill="#000000">TextViewMetadataComponent</text>
</g>
<!-- TextViewMetadataComponent&#45;&gt;TextViewModule -->
<g id="edge3" class="edge">
<title>TextViewMetadataComponent&#45;&gt;TextViewModule</title>
<path fill="none" stroke="#000000" d="M865,-122.027C865,-138.3976 865,-160 865,-160 865,-160 725.661,-160 725.661,-160"/>
<polygon fill="#000000" stroke="#000000" points="725.6611,-156.5001 715.661,-160 725.661,-163.5001 725.6611,-156.5001"/>
</g>
<!-- TextViewStructureComponent -->
<g id="node4" class="node">
<title>TextViewStructureComponent</title>
<polygon fill="#ffffb3" stroke="#000000" points="752.1232,-122 563.8768,-122 563.8768,-86 752.1232,-86 752.1232,-122"/>
<text text-anchor="middle" x="658" y="-99.8" font-family="Times,serif" font-size="14.00" fill="#000000">TextViewStructureComponent</text>
</g>
<!-- TextViewStructureComponent&#45;&gt;TextViewModule -->
<g id="edge4" class="edge">
<title>TextViewStructureComponent&#45;&gt;TextViewModule</title>
<path fill="none" stroke="#000000" d="M658,-122.1061C658,-122.1061 658,-140.991 658,-140.991"/>
<polygon fill="#000000" stroke="#000000" points="654.5001,-140.9909 658,-150.991 661.5001,-140.991 654.5001,-140.9909"/>
</g>
<!-- TextViewToolsComponent -->
<g id="node5" class="node">
<title>TextViewToolsComponent</title>
<polygon fill="#ffffb3" stroke="#000000" points="545.6965,-122 376.3035,-122 376.3035,-86 545.6965,-86 545.6965,-122"/>
<text text-anchor="middle" x="461" y="-99.8" font-family="Times,serif" font-size="14.00" fill="#000000">TextViewToolsComponent</text>
</g>
<!-- TextViewToolsComponent&#45;&gt;TextViewModule -->
<g id="edge5" class="edge">
<title>TextViewToolsComponent&#45;&gt;TextViewModule</title>
<path fill="none" stroke="#000000" d="M461,-122.027C461,-138.3976 461,-160 461,-160 461,-160 590.2246,-160 590.2246,-160"/>
<polygon fill="#000000" stroke="#000000" points="590.2246,-163.5001 600.2246,-160 590.2246,-156.5001 590.2246,-163.5001"/>
</g>
<!-- TextViewComponent  -->
<g id="node8" class="node">
<title>TextViewComponent </title>
<polygon fill="#fb8072" stroke="#000000" points="728.3087,-252 587.6913,-252 587.6913,-216 728.3087,-216 728.3087,-252"/>
<text text-anchor="middle" x="658" y="-229.8" font-family="Times,serif" font-size="14.00" fill="#000000">TextViewComponent </text>
</g>
<!-- TextViewModule&#45;&gt;TextViewComponent  -->
<g id="edge7" class="edge">
<title>TextViewModule&#45;&gt;TextViewComponent </title>
<path fill="none" stroke="#000000" stroke-dasharray="5,2" d="M658,-187.1061C658,-187.1061 658,-205.991 658,-205.991"/>
<polygon fill="#000000" stroke="#000000" points="654.5001,-205.9909 658,-215.991 661.5001,-205.991 654.5001,-205.9909"/>
</g>
<!-- MaterialModule -->
<g id="node7" class="node">
<title>MaterialModule</title>
<polygon fill="#8dd3c7" stroke="#000000" points="352.4706,-122 349.4706,-126 328.4706,-126 325.4706,-122 245.5294,-122 245.5294,-86 352.4706,-86 352.4706,-122"/>
<text text-anchor="middle" x="299" y="-99.8" font-family="Times,serif" font-size="14.00" fill="#000000">MaterialModule</text>
</g>
<!-- MaterialModule&#45;&gt;TextViewModule -->
<g id="edge6" class="edge">
<title>MaterialModule&#45;&gt;TextViewModule</title>
<path fill="none" stroke="#000000" d="M299,-122.1061C299,-141.3391 299,-169 299,-169 299,-169 590.3204,-169 590.3204,-169"/>
<polygon fill="#000000" stroke="#000000" points="590.3205,-172.5001 600.3204,-169 590.3204,-165.5001 590.3205,-172.5001"/>
</g>
<!-- CanvasOptionsService -->
<g id="node9" class="node">
<title>CanvasOptionsService</title>
<ellipse fill="#fdb462" stroke="#000000" cx="123" cy="-104" rx="98.9955" ry="18"/>
<text text-anchor="middle" x="123" y="-99.8" font-family="Times,serif" font-size="14.00" fill="#000000">CanvasOptionsService</text>
</g>
<!-- CanvasOptionsService&#45;&gt;TextViewModule -->
<g id="edge8" class="edge">
<title>CanvasOptionsService&#45;&gt;TextViewModule</title>
<path fill="none" stroke="#000000" d="M123,-122.2921C123,-144.2057 123,-178 123,-178 123,-178 590.2373,-178 590.2373,-178"/>
<polygon fill="#000000" stroke="#000000" points="590.2373,-181.5001 600.2373,-178 590.2373,-174.5001 590.2373,-181.5001"/>
</g>
</g>
</svg>
