<?xml version="1.0" encoding="UTF-8" standalone="no"?>
<!DOCTYPE svg PUBLIC "-//W3C//DTD SVG 1.1//EN"
 "http://www.w3.org/Graphics/SVG/1.1/DTD/svg11.dtd">
<!-- Generated by graphviz version 2.40.1 (20161225.0304)
 -->
<!-- Title: dependencies Pages: 1 -->
<svg width="4077pt" height="284pt"
 viewBox="0.00 0.00 4077.00 284.00" xmlns="http://www.w3.org/2000/svg" xmlns:xlink="http://www.w3.org/1999/xlink">
<g id="graph0" class="graph" transform="scale(1 1) rotate(0) translate(4 280)">
<title>dependencies</title>
<polygon fill="#ffffff" stroke="transparent" points="-4,4 -4,-280 4073,-280 4073,4 -4,4"/>
<text text-anchor="start" x="2013.5091" y="-42.4" font-family="sans-serif" font-weight="bold" font-size="14.00" fill="#000000">Legend</text>
<polygon fill="#ffffb3" stroke="transparent" points="1800.5,-10 1800.5,-30 1820.5,-30 1820.5,-10 1800.5,-10"/>
<text text-anchor="start" x="1824.129" y="-15.4" font-family="sans-serif" font-size="14.00" fill="#000000"> &#160;Declarations</text>
<polygon fill="#8dd3c7" stroke="transparent" points="1913.5,-10 1913.5,-30 1933.5,-30 1933.5,-10 1913.5,-10"/>
<text text-anchor="start" x="1937.2251" y="-15.4" font-family="sans-serif" font-size="14.00" fill="#000000"> &#160;Module</text>
<polygon fill="#80b1d3" stroke="transparent" points="1999.5,-10 1999.5,-30 2019.5,-30 2019.5,-10 1999.5,-10"/>
<text text-anchor="start" x="2023.2812" y="-15.4" font-family="sans-serif" font-size="14.00" fill="#000000"> &#160;Bootstrap</text>
<polygon fill="#fdb462" stroke="transparent" points="2096.5,-10 2096.5,-30 2116.5,-30 2116.5,-10 2096.5,-10"/>
<text text-anchor="start" x="2120.1732" y="-15.4" font-family="sans-serif" font-size="14.00" fill="#000000"> &#160;Providers</text>
<polygon fill="#fb8072" stroke="transparent" points="2192.5,-10 2192.5,-30 2212.5,-30 2212.5,-10 2192.5,-10"/>
<text text-anchor="start" x="2216.2258" y="-15.4" font-family="sans-serif" font-size="14.00" fill="#000000"> &#160;Exports</text>
<g id="clust1" class="cluster">
<title>cluster_CoreModule</title>
<polygon fill="none" stroke="#000000" stroke-dasharray="1,5" points="8,-70 8,-268 4061,-268 4061,-70 8,-70"/>
</g>
<g id="clust2" class="cluster">
<title>cluster_CoreModule_declarations</title>
<polygon fill="none" stroke="#000000" points="2764,-78 2764,-130 4053,-130 4053,-78 2764,-78"/>
</g>
<g id="clust11" class="cluster">
<title>cluster_CoreModule_imports</title>
<polygon fill="none" stroke="#000000" points="1380,-78 1380,-130 2756,-130 2756,-78 1380,-78"/>
</g>
<g id="clust12" class="cluster">
<title>cluster_CoreModule_exports</title>
<polygon fill="none" stroke="#000000" points="1999,-208 1999,-260 2273,-260 2273,-208 1999,-208"/>
</g>
<g id="clust14" class="cluster">
<title>cluster_CoreModule_providers</title>
<polygon fill="none" stroke="#000000" points="16,-78 16,-130 1372,-130 1372,-78 16,-78"/>
</g>
<!-- DialogUserSettingsDialog -->
<g id="node1" class="node">
<title>DialogUserSettingsDialog</title>
<polygon fill="#ffffb3" stroke="#000000" points="4044.745,-122 3881.255,-122 3881.255,-86 4044.745,-86 4044.745,-122"/>
<text text-anchor="middle" x="3963" y="-99.8" font-family="Times,serif" font-size="14.00" fill="#000000">DialogUserSettingsDialog</text>
</g>
<!-- CoreModule -->
<g id="node9" class="node">
<title>CoreModule</title>
<polygon fill="#8dd3c7" stroke="#000000" points="2176.2619,-187 2173.2619,-191 2152.2619,-191 2149.2619,-187 2089.7381,-187 2089.7381,-151 2176.2619,-151 2176.2619,-187"/>
<text text-anchor="middle" x="2133" y="-164.8" font-family="Times,serif" font-size="14.00" fill="#000000">CoreModule</text>
</g>
<!-- DialogUserSettingsDialog&#45;&gt;CoreModule -->
<g id="edge1" class="edge">
<title>DialogUserSettingsDialog&#45;&gt;CoreModule</title>
<path fill="none" stroke="#000000" d="M3963,-122.1532C3963,-145.7566 3963,-184 3963,-184 3963,-184 2186.4312,-184 2186.4312,-184"/>
<polygon fill="#000000" stroke="#000000" points="2186.4313,-180.5001 2176.4312,-184 2186.4312,-187.5001 2186.4313,-180.5001"/>
</g>
<!-- ExtendSessionComponent -->
<g id="node2" class="node">
<title>ExtendSessionComponent</title>
<polygon fill="#ffffb3" stroke="#000000" points="3862.7674,-122 3699.2326,-122 3699.2326,-86 3862.7674,-86 3862.7674,-122"/>
<text text-anchor="middle" x="3781" y="-99.8" font-family="Times,serif" font-size="14.00" fill="#000000">ExtendSessionComponent</text>
</g>
<!-- ExtendSessionComponent&#45;&gt;CoreModule -->
<g id="edge2" class="edge">
<title>ExtendSessionComponent&#45;&gt;CoreModule</title>
<path fill="none" stroke="#000000" d="M3781,-122.2479C3781,-145.0179 3781,-181 3781,-181 3781,-181 2186.6555,-181 2186.6555,-181"/>
<polygon fill="#000000" stroke="#000000" points="2186.6556,-177.5001 2176.6555,-181 2186.6555,-184.5001 2186.6556,-177.5001"/>
</g>
<!-- HeaderComponent -->
<g id="node3" class="node">
<title>HeaderComponent</title>
<polygon fill="#ffffb3" stroke="#000000" points="3680.7437,-122 3559.2563,-122 3559.2563,-86 3680.7437,-86 3680.7437,-122"/>
<text text-anchor="middle" x="3620" y="-99.8" font-family="Times,serif" font-size="14.00" fill="#000000">HeaderComponent</text>
</g>
<!-- HeaderComponent&#45;&gt;CoreModule -->
<g id="edge3" class="edge">
<title>HeaderComponent&#45;&gt;CoreModule</title>
<path fill="none" stroke="#000000" d="M3620,-122.2921C3620,-144.2057 3620,-178 3620,-178 3620,-178 2186.2977,-178 2186.2977,-178"/>
<polygon fill="#000000" stroke="#000000" points="2186.2978,-174.5001 2176.2977,-178 2186.2977,-181.5001 2186.2978,-174.5001"/>
</g>
<!-- InitPopupComponent -->
<g id="node4" class="node">
<title>InitPopupComponent</title>
<polygon fill="#ffffb3" stroke="#000000" points="3541.0575,-122 3404.9425,-122 3404.9425,-86 3541.0575,-86 3541.0575,-122"/>
<text text-anchor="middle" x="3473" y="-99.8" font-family="Times,serif" font-size="14.00" fill="#000000">InitPopupComponent</text>
</g>
<!-- InitPopupComponent&#45;&gt;CoreModule -->
<g id="edge4" class="edge">
<title>InitPopupComponent&#45;&gt;CoreModule</title>
<path fill="none" stroke="#000000" d="M3473,-122.2843C3473,-143.3211 3473,-175 3473,-175 3473,-175 2186.4437,-175 2186.4437,-175"/>
<polygon fill="#000000" stroke="#000000" points="2186.4437,-171.5001 2176.4437,-175 2186.4437,-178.5001 2186.4437,-171.5001"/>
</g>
<!-- MainComponent -->
<g id="node5" class="node">
<title>MainComponent</title>
<polygon fill="#ffffb3" stroke="#000000" points="3386.3823,-122 3275.6177,-122 3275.6177,-86 3386.3823,-86 3386.3823,-122"/>
<text text-anchor="middle" x="3331" y="-99.8" font-family="Times,serif" font-size="14.00" fill="#000000">MainComponent</text>
</g>
<!-- MainComponent&#45;&gt;CoreModule -->
<g id="edge5" class="edge">
<title>MainComponent&#45;&gt;CoreModule</title>
<path fill="none" stroke="#000000" d="M3331,-122.2228C3331,-142.3652 3331,-172 3331,-172 3331,-172 2186.3452,-172 2186.3452,-172"/>
<polygon fill="#000000" stroke="#000000" points="2186.3452,-168.5001 2176.3452,-172 2186.3452,-175.5001 2186.3452,-168.5001"/>
</g>
<!-- NavigationComponent -->
<g id="node6" class="node">
<title>NavigationComponent</title>
<polygon fill="#ffffb3" stroke="#000000" points="3257.5407,-122 3114.4593,-122 3114.4593,-86 3257.5407,-86 3257.5407,-122"/>
<text text-anchor="middle" x="3186" y="-99.8" font-family="Times,serif" font-size="14.00" fill="#000000">NavigationComponent</text>
</g>
<!-- NavigationComponent&#45;&gt;CoreModule -->
<g id="edge6" class="edge">
<title>NavigationComponent&#45;&gt;CoreModule</title>
<path fill="none" stroke="#000000" d="M3186,-122.1061C3186,-141.3391 3186,-169 3186,-169 3186,-169 2186.5732,-169 2186.5732,-169"/>
<polygon fill="#000000" stroke="#000000" points="2186.5732,-165.5001 2176.5732,-169 2186.5731,-172.5001 2186.5732,-165.5001"/>
</g>
<!-- PageNotFoundComponent -->
<g id="node7" class="node">
<title>PageNotFoundComponent</title>
<polygon fill="#ffffb3" stroke="#000000" points="3096.8243,-122 2931.1757,-122 2931.1757,-86 3096.8243,-86 3096.8243,-122"/>
<text text-anchor="middle" x="3014" y="-99.8" font-family="Times,serif" font-size="14.00" fill="#000000">PageNotFoundComponent</text>
</g>
<!-- PageNotFoundComponent&#45;&gt;CoreModule -->
<g id="edge7" class="edge">
<title>PageNotFoundComponent&#45;&gt;CoreModule</title>
<path fill="none" stroke="#000000" d="M3014,-122.2667C3014,-140.5552 3014,-166 3014,-166 3014,-166 2186.3884,-166 2186.3884,-166"/>
<polygon fill="#000000" stroke="#000000" points="2186.3885,-162.5001 2176.3884,-166 2186.3884,-169.5001 2186.3885,-162.5001"/>
</g>
<!-- PizzaPartyComponent -->
<g id="node8" class="node">
<title>PizzaPartyComponent</title>
<polygon fill="#ffffb3" stroke="#000000" points="2913.6979,-122 2772.3021,-122 2772.3021,-86 2913.6979,-86 2913.6979,-122"/>
<text text-anchor="middle" x="2843" y="-99.8" font-family="Times,serif" font-size="14.00" fill="#000000">PizzaPartyComponent</text>
</g>
<!-- PizzaPartyComponent&#45;&gt;CoreModule -->
<g id="edge8" class="edge">
<title>PizzaPartyComponent&#45;&gt;CoreModule</title>
<path fill="none" stroke="#000000" d="M2843,-122.0225C2843,-139.3734 2843,-163 2843,-163 2843,-163 2186.3449,-163 2186.3449,-163"/>
<polygon fill="#000000" stroke="#000000" points="2186.3449,-159.5001 2176.3449,-163 2186.3449,-166.5001 2186.3449,-159.5001"/>
</g>
<!-- HeaderComponent  -->
<g id="node19" class="node">
<title>HeaderComponent </title>
<polygon fill="#fb8072" stroke="#000000" points="2264.7436,-252 2139.2564,-252 2139.2564,-216 2264.7436,-216 2264.7436,-252"/>
<text text-anchor="middle" x="2202" y="-229.8" font-family="Times,serif" font-size="14.00" fill="#000000">HeaderComponent </text>
</g>
<!-- CoreModule&#45;&gt;HeaderComponent  -->
<g id="edge18" class="edge">
<title>CoreModule&#45;&gt;HeaderComponent </title>
<path fill="none" stroke="#000000" stroke-dasharray="5,2" d="M2157.8795,-187.1061C2157.8795,-187.1061 2157.8795,-205.991 2157.8795,-205.991"/>
<polygon fill="#000000" stroke="#000000" points="2154.3796,-205.9909 2157.8795,-215.991 2161.3796,-205.991 2154.3796,-205.9909"/>
</g>
<!-- MainComponent  -->
<g id="node20" class="node">
<title>MainComponent </title>
<polygon fill="#fb8072" stroke="#000000" points="2121.3828,-252 2006.6172,-252 2006.6172,-216 2121.3828,-216 2121.3828,-252"/>
<text text-anchor="middle" x="2064" y="-229.8" font-family="Times,serif" font-size="14.00" fill="#000000">MainComponent </text>
</g>
<!-- CoreModule&#45;&gt;MainComponent  -->
<g id="edge19" class="edge">
<title>CoreModule&#45;&gt;MainComponent </title>
<path fill="none" stroke="#000000" stroke-dasharray="5,2" d="M2105.4052,-187.1061C2105.4052,-187.1061 2105.4052,-205.991 2105.4052,-205.991"/>
<polygon fill="#000000" stroke="#000000" points="2101.9052,-205.9909 2105.4052,-215.991 2108.9052,-205.991 2101.9052,-205.9909"/>
</g>
<!-- DashboardModule -->
<g id="node10" class="node">
<title>DashboardModule</title>
<polygon fill="#8dd3c7" stroke="#000000" points="2748.191,-122 2745.191,-126 2724.191,-126 2721.191,-122 2627.809,-122 2627.809,-86 2748.191,-86 2748.191,-122"/>
<text text-anchor="middle" x="2688" y="-99.8" font-family="Times,serif" font-size="14.00" fill="#000000">DashboardModule</text>
</g>
<!-- DashboardModule&#45;&gt;CoreModule -->
<g id="edge9" class="edge">
<title>DashboardModule&#45;&gt;CoreModule</title>
<path fill="none" stroke="#000000" d="M2688,-122.027C2688,-138.3976 2688,-160 2688,-160 2688,-160 2186.5499,-160 2186.5499,-160"/>
<polygon fill="#000000" stroke="#000000" points="2186.55,-156.5001 2176.5499,-160 2186.5499,-163.5001 2186.55,-156.5001"/>
</g>
<!-- DevelopmentViewsModule -->
<g id="node11" class="node">
<title>DevelopmentViewsModule</title>
<polygon fill="#8dd3c7" stroke="#000000" points="2610.2352,-122 2607.2352,-126 2586.2352,-126 2583.2352,-122 2439.7648,-122 2439.7648,-86 2610.2352,-86 2610.2352,-122"/>
<text text-anchor="middle" x="2525" y="-99.8" font-family="Times,serif" font-size="14.00" fill="#000000">DevelopmentViewsModule</text>
</g>
<!-- DevelopmentViewsModule&#45;&gt;CoreModule -->
<g id="edge10" class="edge">
<title>DevelopmentViewsModule&#45;&gt;CoreModule</title>
<path fill="none" stroke="#000000" d="M2525,-122.2396C2525,-137.5706 2525,-157 2525,-157 2525,-157 2186.4486,-157 2186.4486,-157"/>
<polygon fill="#000000" stroke="#000000" points="2186.4486,-153.5001 2176.4486,-157 2186.4486,-160.5001 2186.4486,-153.5001"/>
</g>
<!-- HowToProgramWithNieOSModule -->
<g id="node12" class="node">
<title>HowToProgramWithNieOSModule</title>
<polygon fill="#8dd3c7" stroke="#000000" points="2421.1217,-122 2418.1217,-126 2397.1217,-126 2394.1217,-122 2204.8783,-122 2204.8783,-86 2421.1217,-86 2421.1217,-122"/>
<text text-anchor="middle" x="2313" y="-99.8" font-family="Times,serif" font-size="14.00" fill="#000000">HowToProgramWithNieOSModule</text>
</g>
<!-- HowToProgramWithNieOSModule&#45;&gt;CoreModule -->
<g id="edge11" class="edge">
<title>HowToProgramWithNieOSModule&#45;&gt;CoreModule</title>
<path fill="none" stroke="#000000" d="M2234.6555,-122.0511C2234.6555,-136.373 2234.6555,-154 2234.6555,-154 2234.6555,-154 2186.4059,-154 2186.4059,-154"/>
<polygon fill="#000000" stroke="#000000" points="2186.406,-150.5001 2176.4059,-154 2186.4059,-157.5001 2186.406,-150.5001"/>
</g>
<!-- MaterialModule -->
<g id="node13" class="node">
<title>MaterialModule</title>
<polygon fill="#8dd3c7" stroke="#000000" points="2186.4706,-122 2183.4706,-126 2162.4706,-126 2159.4706,-122 2079.5294,-122 2079.5294,-86 2186.4706,-86 2186.4706,-122"/>
<text text-anchor="middle" x="2133" y="-99.8" font-family="Times,serif" font-size="14.00" fill="#000000">MaterialModule</text>
</g>
<!-- MaterialModule&#45;&gt;CoreModule -->
<g id="edge12" class="edge">
<title>MaterialModule&#45;&gt;CoreModule</title>
<path fill="none" stroke="#000000" d="M2133,-122.1061C2133,-122.1061 2133,-140.991 2133,-140.991"/>
<polygon fill="#000000" stroke="#000000" points="2129.5001,-140.9909 2133,-150.991 2136.5001,-140.991 2129.5001,-140.9909"/>
</g>
<!-- MockupTutorialModule -->
<g id="node14" class="node">
<title>MockupTutorialModule</title>
<polygon fill="#8dd3c7" stroke="#000000" points="2061.8089,-122 2058.8089,-126 2037.8089,-126 2034.8089,-122 1910.1911,-122 1910.1911,-86 2061.8089,-86 2061.8089,-122"/>
<text text-anchor="middle" x="1986" y="-99.8" font-family="Times,serif" font-size="14.00" fill="#000000">MockupTutorialModule</text>
</g>
<!-- MockupTutorialModule&#45;&gt;CoreModule -->
<g id="edge13" class="edge">
<title>MockupTutorialModule&#45;&gt;CoreModule</title>
<path fill="none" stroke="#000000" d="M2034.2316,-122.0511C2034.2316,-136.373 2034.2316,-154 2034.2316,-154 2034.2316,-154 2079.6787,-154 2079.6787,-154"/>
<polygon fill="#000000" stroke="#000000" points="2079.6788,-157.5001 2089.6787,-154 2079.6787,-150.5001 2079.6788,-157.5001"/>
</g>
<!-- NIEOSModule -->
<g id="node15" class="node">
<title>NIEOSModule</title>
<polygon fill="#8dd3c7" stroke="#000000" points="1892.2591,-122 1889.2591,-126 1868.2591,-126 1865.2591,-122 1791.7409,-122 1791.7409,-86 1892.2591,-86 1892.2591,-122"/>
<text text-anchor="middle" x="1842" y="-99.8" font-family="Times,serif" font-size="14.00" fill="#000000">NIEOSModule</text>
</g>
<!-- NIEOSModule&#45;&gt;CoreModule -->
<g id="edge14" class="edge">
<title>NIEOSModule&#45;&gt;CoreModule</title>
<path fill="none" stroke="#000000" d="M1842,-122.2396C1842,-137.5706 1842,-157 1842,-157 1842,-157 2079.4344,-157 2079.4344,-157"/>
<polygon fill="#000000" stroke="#000000" points="2079.4344,-160.5001 2089.4344,-157 2079.4343,-153.5001 2079.4344,-160.5001"/>
</g>
<!-- StaticPagesModule -->
<g id="node16" class="node">
<title>StaticPagesModule</title>
<polygon fill="#8dd3c7" stroke="#000000" points="1774.0898,-122 1771.0898,-126 1750.0898,-126 1747.0898,-122 1649.9102,-122 1649.9102,-86 1774.0898,-86 1774.0898,-122"/>
<text text-anchor="middle" x="1712" y="-99.8" font-family="Times,serif" font-size="14.00" fill="#000000">StaticPagesModule</text>
</g>
<!-- StaticPagesModule&#45;&gt;CoreModule -->
<g id="edge15" class="edge">
<title>StaticPagesModule&#45;&gt;CoreModule</title>
<path fill="none" stroke="#000000" d="M1712,-122.027C1712,-138.3976 1712,-160 1712,-160 1712,-160 2079.5313,-160 2079.5313,-160"/>
<polygon fill="#000000" stroke="#000000" points="2079.5313,-163.5001 2089.5313,-160 2079.5313,-156.5001 2079.5313,-163.5001"/>
</g>
<!-- SynopsisModule -->
<g id="node17" class="node">
<title>SynopsisModule</title>
<polygon fill="#8dd3c7" stroke="#000000" points="1632.1123,-122 1629.1123,-126 1608.1123,-126 1605.1123,-122 1521.8877,-122 1521.8877,-86 1632.1123,-86 1632.1123,-122"/>
<text text-anchor="middle" x="1577" y="-99.8" font-family="Times,serif" font-size="14.00" fill="#000000">SynopsisModule</text>
</g>
<!-- SynopsisModule&#45;&gt;CoreModule -->
<g id="edge16" class="edge">
<title>SynopsisModule&#45;&gt;CoreModule</title>
<path fill="none" stroke="#000000" d="M1577,-122.0225C1577,-139.3734 1577,-163 1577,-163 1577,-163 2079.3716,-163 2079.3716,-163"/>
<polygon fill="#000000" stroke="#000000" points="2079.3716,-166.5001 2089.3716,-163 2079.3716,-159.5001 2079.3716,-166.5001"/>
</g>
<!-- TextViewModule -->
<g id="node18" class="node">
<title>TextViewModule</title>
<polygon fill="#8dd3c7" stroke="#000000" points="1503.527,-122 1500.527,-126 1479.527,-126 1476.527,-122 1388.473,-122 1388.473,-86 1503.527,-86 1503.527,-122"/>
<text text-anchor="middle" x="1446" y="-99.8" font-family="Times,serif" font-size="14.00" fill="#000000">TextViewModule</text>
</g>
<!-- TextViewModule&#45;&gt;CoreModule -->
<g id="edge17" class="edge">
<title>TextViewModule&#45;&gt;CoreModule</title>
<path fill="none" stroke="#000000" d="M1446,-122.2667C1446,-140.5552 1446,-166 1446,-166 1446,-166 2079.5039,-166 2079.5039,-166"/>
<polygon fill="#000000" stroke="#000000" points="2079.5039,-169.5001 2089.5039,-166 2079.5039,-162.5001 2079.5039,-169.5001"/>
</g>
<!-- AuthenticationService -->
<g id="node21" class="node">
<title>AuthenticationService</title>
<ellipse fill="#fdb462" stroke="#000000" cx="1267" cy="-104" rx="97.2683" ry="18"/>
<text text-anchor="middle" x="1267" y="-99.8" font-family="Times,serif" font-size="14.00" fill="#000000">AuthenticationService</text>
</g>
<!-- AuthenticationService&#45;&gt;CoreModule -->
<g id="edge20" class="edge">
<title>AuthenticationService&#45;&gt;CoreModule</title>
<path fill="none" stroke="#000000" d="M1267,-122.1061C1267,-141.3391 1267,-169 1267,-169 1267,-169 2079.4614,-169 2079.4614,-169"/>
<polygon fill="#000000" stroke="#000000" points="2079.4615,-172.5001 2089.4614,-169 2079.4614,-165.5001 2079.4615,-172.5001"/>
</g>
<!-- KnoraAuthService -->
<g id="node22" class="node">
<title>KnoraAuthService</title>
<ellipse fill="#fdb462" stroke="#000000" cx="1068" cy="-104" rx="83.3674" ry="18"/>
<text text-anchor="middle" x="1068" y="-99.8" font-family="Times,serif" font-size="14.00" fill="#000000">KnoraAuthService</text>
</g>
<!-- KnoraAuthService&#45;&gt;CoreModule -->
<g id="edge21" class="edge">
<title>KnoraAuthService&#45;&gt;CoreModule</title>
<path fill="none" stroke="#000000" d="M1068,-122.2228C1068,-142.3652 1068,-172 1068,-172 1068,-172 2079.599,-172 2079.599,-172"/>
<polygon fill="#000000" stroke="#000000" points="2079.5991,-175.5001 2089.599,-172 2079.599,-168.5001 2079.5991,-175.5001"/>
</g>
<!-- KnoraRequestService -->
<g id="node23" class="node">
<title>KnoraRequestService</title>
<ellipse fill="#fdb462" stroke="#000000" cx="871" cy="-104" rx="95.4637" ry="18"/>
<text text-anchor="middle" x="871" y="-99.8" font-family="Times,serif" font-size="14.00" fill="#000000">KnoraRequestService</text>
</g>
<!-- KnoraRequestService&#45;&gt;CoreModule -->
<g id="edge22" class="edge">
<title>KnoraRequestService&#45;&gt;CoreModule</title>
<path fill="none" stroke="#000000" d="M871,-122.2843C871,-143.3211 871,-175 871,-175 871,-175 2079.5591,-175 2079.5591,-175"/>
<polygon fill="#000000" stroke="#000000" points="2079.5591,-178.5001 2089.5591,-175 2079.5591,-171.5001 2079.5591,-178.5001"/>
</g>
<!-- ResultToTextMapperService -->
<g id="node24" class="node">
<title>ResultToTextMapperService</title>
<ellipse fill="#fdb462" stroke="#000000" cx="635" cy="-104" rx="123.2514" ry="18"/>
<text text-anchor="middle" x="635" y="-99.8" font-family="Times,serif" font-size="14.00" fill="#000000">ResultToTextMapperService</text>
</g>
<!-- ResultToTextMapperService&#45;&gt;CoreModule -->
<g id="edge23" class="edge">
<title>ResultToTextMapperService&#45;&gt;CoreModule</title>
<path fill="none" stroke="#000000" d="M635,-122.2921C635,-144.2057 635,-178 635,-178 635,-178 2079.382,-178 2079.382,-178"/>
<polygon fill="#000000" stroke="#000000" points="2079.382,-181.5001 2089.382,-178 2079.382,-174.5001 2079.382,-181.5001"/>
</g>
<!-- SparqlRequestService -->
<g id="node25" class="node">
<title>SparqlRequestService</title>
<ellipse fill="#fdb462" stroke="#000000" cx="398" cy="-104" rx="96.1247" ry="18"/>
<text text-anchor="middle" x="398" y="-99.8" font-family="Times,serif" font-size="14.00" fill="#000000">SparqlRequestService</text>
</g>
<!-- SparqlRequestService&#45;&gt;CoreModule -->
<g id="edge24" class="edge">
<title>SparqlRequestService&#45;&gt;CoreModule</title>
<path fill="none" stroke="#000000" d="M398,-122.2479C398,-145.0179 398,-181 398,-181 398,-181 2079.6793,-181 2079.6793,-181"/>
<polygon fill="#000000" stroke="#000000" points="2079.6793,-184.5001 2089.6793,-181 2079.6792,-177.5001 2079.6793,-184.5001"/>
</g>
<!-- SynopsisObjectStorageService -->
<g id="node26" class="node">
<title>SynopsisObjectStorageService</title>
<ellipse fill="#fdb462" stroke="#000000" cx="154" cy="-104" rx="130.2134" ry="18"/>
<text text-anchor="middle" x="154" y="-99.8" font-family="Times,serif" font-size="14.00" fill="#000000">SynopsisObjectStorageService</text>
</g>
<!-- SynopsisObjectStorageService&#45;&gt;CoreModule -->
<g id="edge25" class="edge">
<title>SynopsisObjectStorageService&#45;&gt;CoreModule</title>
<path fill="none" stroke="#000000" d="M154,-122.1532C154,-145.7566 154,-184 154,-184 154,-184 2079.3594,-184 2079.3594,-184"/>
<polygon fill="#000000" stroke="#000000" points="2079.3594,-187.5001 2089.3594,-184 2079.3593,-180.5001 2079.3594,-187.5001"/>
</g>
</g>
</svg>
