<?xml version="1.0" encoding="UTF-8" standalone="no"?>
<!DOCTYPE svg PUBLIC "-//W3C//DTD SVG 1.1//EN"
 "http://www.w3.org/Graphics/SVG/1.1/DTD/svg11.dtd">
<!-- Generated by graphviz version 2.40.1 (20161225.0304)
 -->
<!-- Title: dependencies Pages: 1 -->
<svg width="3764pt" height="284pt"
 viewBox="0.00 0.00 3764.00 284.00" xmlns="http://www.w3.org/2000/svg" xmlns:xlink="http://www.w3.org/1999/xlink">
<g id="graph0" class="graph" transform="scale(1 1) rotate(0) translate(4 280)">
<title>dependencies</title>
<polygon fill="#ffffff" stroke="transparent" points="-4,4 -4,-280 3760,-280 3760,4 -4,4"/>
<text text-anchor="start" x="1857.0091" y="-42.4" font-family="sans-serif" font-weight="bold" font-size="14.00" fill="#000000">Legend</text>
<polygon fill="#ffffb3" stroke="transparent" points="1644,-10 1644,-30 1664,-30 1664,-10 1644,-10"/>
<text text-anchor="start" x="1667.629" y="-15.4" font-family="sans-serif" font-size="14.00" fill="#000000"> &#160;Declarations</text>
<polygon fill="#8dd3c7" stroke="transparent" points="1757,-10 1757,-30 1777,-30 1777,-10 1757,-10"/>
<text text-anchor="start" x="1780.7251" y="-15.4" font-family="sans-serif" font-size="14.00" fill="#000000"> &#160;Module</text>
<polygon fill="#80b1d3" stroke="transparent" points="1843,-10 1843,-30 1863,-30 1863,-10 1843,-10"/>
<text text-anchor="start" x="1866.7812" y="-15.4" font-family="sans-serif" font-size="14.00" fill="#000000"> &#160;Bootstrap</text>
<polygon fill="#fdb462" stroke="transparent" points="1940,-10 1940,-30 1960,-30 1960,-10 1940,-10"/>
<text text-anchor="start" x="1963.6732" y="-15.4" font-family="sans-serif" font-size="14.00" fill="#000000"> &#160;Providers</text>
<polygon fill="#fb8072" stroke="transparent" points="2036,-10 2036,-30 2056,-30 2056,-10 2036,-10"/>
<text text-anchor="start" x="2059.7258" y="-15.4" font-family="sans-serif" font-size="14.00" fill="#000000"> &#160;Exports</text>
<g id="clust1" class="cluster">
<title>cluster_CoreModule</title>
<polygon fill="none" stroke="#000000" stroke-dasharray="1,5" points="8,-70 8,-268 3748,-268 3748,-70 8,-70"/>
</g>
<g id="clust2" class="cluster">
<title>cluster_CoreModule_declarations</title>
<polygon fill="none" stroke="#000000" points="2993,-78 2993,-130 3740,-130 3740,-78 2993,-78"/>
</g>
<g id="clust8" class="cluster">
<title>cluster_CoreModule_imports</title>
<polygon fill="none" stroke="#000000" points="1520,-78 1520,-130 2985,-130 2985,-78 1520,-78"/>
</g>
<g id="clust9" class="cluster">
<title>cluster_CoreModule_exports</title>
<polygon fill="none" stroke="#000000" points="1848,-208 1848,-260 2261,-260 2261,-208 1848,-208"/>
</g>
<g id="clust11" class="cluster">
<title>cluster_CoreModule_providers</title>
<polygon fill="none" stroke="#000000" points="16,-78 16,-130 1512,-130 1512,-78 16,-78"/>
</g>
<!-- FooterComponent -->
<g id="node1" class="node">
<title>FooterComponent</title>
<polygon fill="#ffffb3" stroke="#000000" points="3731.8809,-122 3614.1191,-122 3614.1191,-86 3731.8809,-86 3731.8809,-122"/>
<text text-anchor="middle" x="3673" y="-99.8" font-family="Times,serif" font-size="14.00" fill="#000000">FooterComponent</text>
</g>
<!-- CoreModule -->
<g id="node6" class="node">
<title>CoreModule</title>
<polygon fill="#8dd3c7" stroke="#000000" points="2094.2619,-187 2091.2619,-191 2070.2619,-191 2067.2619,-187 2007.7381,-187 2007.7381,-151 2094.2619,-151 2094.2619,-187"/>
<text text-anchor="middle" x="2051" y="-164.8" font-family="Times,serif" font-size="14.00" fill="#000000">CoreModule</text>
</g>
<!-- FooterComponent&#45;&gt;CoreModule -->
<g id="edge1" class="edge">
<title>FooterComponent&#45;&gt;CoreModule</title>
<path fill="none" stroke="#000000" d="M3673,-122.2479C3673,-145.0179 3673,-181 3673,-181 3673,-181 2104.3846,-181 2104.3846,-181"/>
<polygon fill="#000000" stroke="#000000" points="2104.3846,-177.5001 2094.3846,-181 2104.3845,-184.5001 2104.3846,-177.5001"/>
</g>
<!-- HeaderComponent -->
<g id="node2" class="node">
<title>HeaderComponent</title>
<polygon fill="#ffffb3" stroke="#000000" points="3595.7437,-122 3474.2563,-122 3474.2563,-86 3595.7437,-86 3595.7437,-122"/>
<text text-anchor="middle" x="3535" y="-99.8" font-family="Times,serif" font-size="14.00" fill="#000000">HeaderComponent</text>
</g>
<!-- HeaderComponent&#45;&gt;CoreModule -->
<g id="edge2" class="edge">
<title>HeaderComponent&#45;&gt;CoreModule</title>
<path fill="none" stroke="#000000" d="M3535,-122.2921C3535,-144.2057 3535,-178 3535,-178 3535,-178 2104.6096,-178 2104.6096,-178"/>
<polygon fill="#000000" stroke="#000000" points="2104.6097,-174.5001 2094.6096,-178 2104.6096,-181.5001 2104.6097,-174.5001"/>
</g>
<!-- MainComponent -->
<g id="node3" class="node">
<title>MainComponent</title>
<polygon fill="#ffffb3" stroke="#000000" points="3456.3823,-122 3345.6177,-122 3345.6177,-86 3456.3823,-86 3456.3823,-122"/>
<text text-anchor="middle" x="3401" y="-99.8" font-family="Times,serif" font-size="14.00" fill="#000000">MainComponent</text>
</g>
<!-- MainComponent&#45;&gt;CoreModule -->
<g id="edge3" class="edge">
<title>MainComponent&#45;&gt;CoreModule</title>
<path fill="none" stroke="#000000" d="M3401,-122.2843C3401,-143.3211 3401,-175 3401,-175 3401,-175 2104.3879,-175 2104.3879,-175"/>
<polygon fill="#000000" stroke="#000000" points="2104.388,-171.5001 2094.3879,-175 2104.3879,-178.5001 2104.388,-171.5001"/>
</g>
<!-- NavigationComponent -->
<g id="node4" class="node">
<title>NavigationComponent</title>
<polygon fill="#ffffb3" stroke="#000000" points="3327.5407,-122 3184.4593,-122 3184.4593,-86 3327.5407,-86 3327.5407,-122"/>
<text text-anchor="middle" x="3256" y="-99.8" font-family="Times,serif" font-size="14.00" fill="#000000">NavigationComponent</text>
</g>
<!-- NavigationComponent&#45;&gt;CoreModule -->
<g id="edge4" class="edge">
<title>NavigationComponent&#45;&gt;CoreModule</title>
<path fill="none" stroke="#000000" d="M3256,-122.2228C3256,-142.3652 3256,-172 3256,-172 3256,-172 2104.5985,-172 2104.5985,-172"/>
<polygon fill="#000000" stroke="#000000" points="2104.5985,-168.5001 2094.5985,-172 2104.5984,-175.5001 2104.5985,-168.5001"/>
</g>
<!-- PageNotFoundComponent -->
<g id="node5" class="node">
<title>PageNotFoundComponent</title>
<polygon fill="#ffffb3" stroke="#000000" points="3166.8243,-122 3001.1757,-122 3001.1757,-86 3166.8243,-86 3166.8243,-122"/>
<text text-anchor="middle" x="3084" y="-99.8" font-family="Times,serif" font-size="14.00" fill="#000000">PageNotFoundComponent</text>
</g>
<!-- PageNotFoundComponent&#45;&gt;CoreModule -->
<g id="edge5" class="edge">
<title>PageNotFoundComponent&#45;&gt;CoreModule</title>
<path fill="none" stroke="#000000" d="M3084,-122.1061C3084,-141.3391 3084,-169 3084,-169 3084,-169 2104.3987,-169 2104.3987,-169"/>
<polygon fill="#000000" stroke="#000000" points="2104.3987,-165.5001 2094.3987,-169 2104.3987,-172.5001 2104.3987,-165.5001"/>
</g>
<!-- FooterComponent  -->
<g id="node17" class="node">
<title>FooterComponent </title>
<polygon fill="#fb8072" stroke="#000000" points="2252.8814,-252 2131.1186,-252 2131.1186,-216 2252.8814,-216 2252.8814,-252"/>
<text text-anchor="middle" x="2192" y="-229.8" font-family="Times,serif" font-size="14.00" fill="#000000">FooterComponent </text>
</g>
<!-- CoreModule&#45;&gt;FooterComponent  -->
<g id="edge16" class="edge">
<title>CoreModule&#45;&gt;FooterComponent </title>
<path fill="none" stroke="#000000" stroke-dasharray="5,2" d="M2094.4114,-184C2125.4087,-184 2161.6429,-184 2161.6429,-184 2161.6429,-184 2161.6429,-205.9489 2161.6429,-205.9489"/>
<polygon fill="#000000" stroke="#000000" points="2158.143,-205.9488 2161.6429,-215.9489 2165.143,-205.9489 2158.143,-205.9488"/>
</g>
<!-- HeaderComponent  -->
<g id="node18" class="node">
<title>HeaderComponent </title>
<polygon fill="#fb8072" stroke="#000000" points="2113.7436,-252 1988.2564,-252 1988.2564,-216 2113.7436,-216 2113.7436,-252"/>
<text text-anchor="middle" x="2051" y="-229.8" font-family="Times,serif" font-size="14.00" fill="#000000">HeaderComponent </text>
</g>
<!-- CoreModule&#45;&gt;HeaderComponent  -->
<g id="edge17" class="edge">
<title>CoreModule&#45;&gt;HeaderComponent </title>
<path fill="none" stroke="#000000" stroke-dasharray="5,2" d="M2051,-187.1061C2051,-187.1061 2051,-205.991 2051,-205.991"/>
<polygon fill="#000000" stroke="#000000" points="2047.5001,-205.9909 2051,-215.991 2054.5001,-205.991 2047.5001,-205.9909"/>
</g>
<!-- MainComponent  -->
<g id="node19" class="node">
<title>MainComponent </title>
<polygon fill="#fb8072" stroke="#000000" points="1970.3828,-252 1855.6172,-252 1855.6172,-216 1970.3828,-216 1970.3828,-252"/>
<text text-anchor="middle" x="1913" y="-229.8" font-family="Times,serif" font-size="14.00" fill="#000000">MainComponent </text>
</g>
<!-- CoreModule&#45;&gt;MainComponent  -->
<g id="edge18" class="edge">
<title>CoreModule&#45;&gt;MainComponent </title>
<path fill="none" stroke="#000000" stroke-dasharray="5,2" d="M2007.6794,-184C1980.6278,-184 1950.9059,-184 1950.9059,-184 1950.9059,-184 1950.9059,-205.9489 1950.9059,-205.9489"/>
<polygon fill="#000000" stroke="#000000" points="1947.4059,-205.9488 1950.9059,-215.9489 1954.4059,-205.9489 1947.4059,-205.9488"/>
</g>
<!-- CreateResourceViewModule -->
<g id="node7" class="node">
<title>CreateResourceViewModule</title>
<polygon fill="#8dd3c7" stroke="#000000" points="2977.4861,-122 2974.4861,-126 2953.4861,-126 2950.4861,-122 2798.5139,-122 2798.5139,-86 2977.4861,-86 2977.4861,-122"/>
<text text-anchor="middle" x="2888" y="-99.8" font-family="Times,serif" font-size="14.00" fill="#000000">CreateResourceViewModule</text>
</g>
<!-- CreateResourceViewModule&#45;&gt;CoreModule -->
<g id="edge6" class="edge">
<title>CreateResourceViewModule&#45;&gt;CoreModule</title>
<path fill="none" stroke="#000000" d="M2888,-122.2667C2888,-140.5552 2888,-166 2888,-166 2888,-166 2104.5298,-166 2104.5298,-166"/>
<polygon fill="#000000" stroke="#000000" points="2104.5299,-162.5001 2094.5298,-166 2104.5298,-169.5001 2104.5299,-162.5001"/>
</g>
<!-- DashboardModule -->
<g id="node8" class="node">
<title>DashboardModule</title>
<polygon fill="#8dd3c7" stroke="#000000" points="2781.191,-122 2778.191,-126 2757.191,-126 2754.191,-122 2660.809,-122 2660.809,-86 2781.191,-86 2781.191,-122"/>
<text text-anchor="middle" x="2721" y="-99.8" font-family="Times,serif" font-size="14.00" fill="#000000">DashboardModule</text>
</g>
<!-- DashboardModule&#45;&gt;CoreModule -->
<g id="edge7" class="edge">
<title>DashboardModule&#45;&gt;CoreModule</title>
<path fill="none" stroke="#000000" d="M2721,-122.0225C2721,-139.3734 2721,-163 2721,-163 2721,-163 2104.4443,-163 2104.4443,-163"/>
<polygon fill="#000000" stroke="#000000" points="2104.4444,-159.5001 2094.4443,-163 2104.4443,-166.5001 2104.4444,-159.5001"/>
</g>
<!-- EditResourceViewModule -->
<g id="node9" class="node">
<title>EditResourceViewModule</title>
<polygon fill="#8dd3c7" stroke="#000000" points="2642.7879,-122 2639.7879,-126 2618.7879,-126 2615.7879,-122 2477.2121,-122 2477.2121,-86 2642.7879,-86 2642.7879,-122"/>
<text text-anchor="middle" x="2560" y="-99.8" font-family="Times,serif" font-size="14.00" fill="#000000">EditResourceViewModule</text>
</g>
<!-- EditResourceViewModule&#45;&gt;CoreModule -->
<g id="edge8" class="edge">
<title>EditResourceViewModule&#45;&gt;CoreModule</title>
<path fill="none" stroke="#000000" d="M2560,-122.027C2560,-138.3976 2560,-160 2560,-160 2560,-160 2104.3971,-160 2104.3971,-160"/>
<polygon fill="#000000" stroke="#000000" points="2104.3971,-156.5001 2094.3971,-160 2104.397,-163.5001 2104.3971,-156.5001"/>
</g>
<!-- ImageViewModule -->
<g id="node10" class="node">
<title>ImageViewModule</title>
<polygon fill="#8dd3c7" stroke="#000000" points="2459.3487,-122 2456.3487,-126 2435.3487,-126 2432.3487,-122 2334.6513,-122 2334.6513,-86 2459.3487,-86 2459.3487,-122"/>
<text text-anchor="middle" x="2397" y="-99.8" font-family="Times,serif" font-size="14.00" fill="#000000">ImageViewModule</text>
</g>
<!-- ImageViewModule&#45;&gt;CoreModule -->
<g id="edge9" class="edge">
<title>ImageViewModule&#45;&gt;CoreModule</title>
<path fill="none" stroke="#000000" d="M2397,-122.2396C2397,-137.5706 2397,-157 2397,-157 2397,-157 2104.4708,-157 2104.4708,-157"/>
<polygon fill="#000000" stroke="#000000" points="2104.4708,-153.5001 2094.4708,-157 2104.4708,-160.5001 2104.4708,-153.5001"/>
</g>
<!-- MaterialModule -->
<g id="node11" class="node">
<title>MaterialModule</title>
<polygon fill="#8dd3c7" stroke="#000000" points="2316.4706,-122 2313.4706,-126 2292.4706,-126 2289.4706,-122 2209.5294,-122 2209.5294,-86 2316.4706,-86 2316.4706,-122"/>
<text text-anchor="middle" x="2263" y="-99.8" font-family="Times,serif" font-size="14.00" fill="#000000">MaterialModule</text>
</g>
<!-- MaterialModule&#45;&gt;CoreModule -->
<g id="edge10" class="edge">
<title>MaterialModule&#45;&gt;CoreModule</title>
<path fill="none" stroke="#000000" d="M2231.1026,-122.0511C2231.1026,-136.373 2231.1026,-154 2231.1026,-154 2231.1026,-154 2104.5978,-154 2104.5978,-154"/>
<polygon fill="#000000" stroke="#000000" points="2104.5978,-150.5001 2094.5978,-154 2104.5978,-157.5001 2104.5978,-150.5001"/>
</g>
<!-- MetadataViewModule -->
<g id="node12" class="node">
<title>MetadataViewModule</title>
<polygon fill="#8dd3c7" stroke="#000000" points="2191.9524,-122 2188.9524,-126 2167.9524,-126 2164.9524,-122 2050.0476,-122 2050.0476,-86 2191.9524,-86 2191.9524,-122"/>
<text text-anchor="middle" x="2121" y="-99.8" font-family="Times,serif" font-size="14.00" fill="#000000">MetadataViewModule</text>
</g>
<!-- MetadataViewModule&#45;&gt;CoreModule -->
<g id="edge11" class="edge">
<title>MetadataViewModule&#45;&gt;CoreModule</title>
<path fill="none" stroke="#000000" d="M2072.2023,-122.1061C2072.2023,-122.1061 2072.2023,-140.991 2072.2023,-140.991"/>
<polygon fill="#000000" stroke="#000000" points="2068.7024,-140.9909 2072.2023,-150.991 2075.7024,-140.991 2068.7024,-140.9909"/>
</g>
<!-- NIEOSModule -->
<g id="node13" class="node">
<title>NIEOSModule</title>
<polygon fill="#8dd3c7" stroke="#000000" points="2032.2591,-122 2029.2591,-126 2008.2591,-126 2005.2591,-122 1931.7409,-122 1931.7409,-86 2032.2591,-86 2032.2591,-122"/>
<text text-anchor="middle" x="1982" y="-99.8" font-family="Times,serif" font-size="14.00" fill="#000000">NIEOSModule</text>
</g>
<!-- NIEOSModule&#45;&gt;CoreModule -->
<g id="edge12" class="edge">
<title>NIEOSModule&#45;&gt;CoreModule</title>
<path fill="none" stroke="#000000" d="M2019.9993,-122.1061C2019.9993,-122.1061 2019.9993,-140.991 2019.9993,-140.991"/>
<polygon fill="#000000" stroke="#000000" points="2016.4994,-140.9909 2019.9993,-150.991 2023.4994,-140.991 2016.4994,-140.9909"/>
</g>
<!-- StaticPagesModule -->
<g id="node14" class="node">
<title>StaticPagesModule</title>
<polygon fill="#8dd3c7" stroke="#000000" points="1914.0898,-122 1911.0898,-126 1890.0898,-126 1887.0898,-122 1789.9102,-122 1789.9102,-86 1914.0898,-86 1914.0898,-122"/>
<text text-anchor="middle" x="1852" y="-99.8" font-family="Times,serif" font-size="14.00" fill="#000000">StaticPagesModule</text>
</g>
<!-- StaticPagesModule&#45;&gt;CoreModule -->
<g id="edge13" class="edge">
<title>StaticPagesModule&#45;&gt;CoreModule</title>
<path fill="none" stroke="#000000" d="M1884.9269,-122.0511C1884.9269,-136.373 1884.9269,-154 1884.9269,-154 1884.9269,-154 1997.3662,-154 1997.3662,-154"/>
<polygon fill="#000000" stroke="#000000" points="1997.3663,-157.5001 2007.3662,-154 1997.3662,-150.5001 1997.3663,-157.5001"/>
</g>
<!-- SynopsisModule -->
<g id="node15" class="node">
<title>SynopsisModule</title>
<polygon fill="#8dd3c7" stroke="#000000" points="1772.1123,-122 1769.1123,-126 1748.1123,-126 1745.1123,-122 1661.8877,-122 1661.8877,-86 1772.1123,-86 1772.1123,-122"/>
<text text-anchor="middle" x="1717" y="-99.8" font-family="Times,serif" font-size="14.00" fill="#000000">SynopsisModule</text>
</g>
<!-- SynopsisModule&#45;&gt;CoreModule -->
<g id="edge14" class="edge">
<title>SynopsisModule&#45;&gt;CoreModule</title>
<path fill="none" stroke="#000000" d="M1717,-122.2396C1717,-137.5706 1717,-157 1717,-157 1717,-157 1997.6777,-157 1997.6777,-157"/>
<polygon fill="#000000" stroke="#000000" points="1997.6778,-160.5001 2007.6777,-157 1997.6777,-153.5001 1997.6778,-160.5001"/>
</g>
<!-- TextViewModule -->
<g id="node16" class="node">
<title>TextViewModule</title>
<polygon fill="#8dd3c7" stroke="#000000" points="1643.527,-122 1640.527,-126 1619.527,-126 1616.527,-122 1528.473,-122 1528.473,-86 1643.527,-86 1643.527,-122"/>
<text text-anchor="middle" x="1586" y="-99.8" font-family="Times,serif" font-size="14.00" fill="#000000">TextViewModule</text>
</g>
<!-- TextViewModule&#45;&gt;CoreModule -->
<g id="edge15" class="edge">
<title>TextViewModule&#45;&gt;CoreModule</title>
<path fill="none" stroke="#000000" d="M1586,-122.027C1586,-138.3976 1586,-160 1586,-160 1586,-160 1997.6715,-160 1997.6715,-160"/>
<polygon fill="#000000" stroke="#000000" points="1997.6715,-163.5001 2007.6715,-160 1997.6715,-156.5001 1997.6715,-163.5001"/>
</g>
<!-- AuthenticationService -->
<g id="node20" class="node">
<title>AuthenticationService</title>
<ellipse fill="#fdb462" stroke="#000000" cx="1407" cy="-104" rx="97.2683" ry="18"/>
<text text-anchor="middle" x="1407" y="-99.8" font-family="Times,serif" font-size="14.00" fill="#000000">AuthenticationService</text>
</g>
<!-- AuthenticationService&#45;&gt;CoreModule -->
<g id="edge19" class="edge">
<title>AuthenticationService&#45;&gt;CoreModule</title>
<path fill="none" stroke="#000000" d="M1407,-122.0225C1407,-139.3734 1407,-163 1407,-163 1407,-163 1997.4938,-163 1997.4938,-163"/>
<polygon fill="#000000" stroke="#000000" points="1997.4938,-166.5001 2007.4938,-163 1997.4937,-159.5001 1997.4938,-166.5001"/>
</g>
<!-- KnoraAuthService -->
<g id="node21" class="node">
<title>KnoraAuthService</title>
<ellipse fill="#fdb462" stroke="#000000" cx="1208" cy="-104" rx="83.3674" ry="18"/>
<text text-anchor="middle" x="1208" y="-99.8" font-family="Times,serif" font-size="14.00" fill="#000000">KnoraAuthService</text>
</g>
<!-- KnoraAuthService&#45;&gt;CoreModule -->
<g id="edge20" class="edge">
<title>KnoraAuthService&#45;&gt;CoreModule</title>
<path fill="none" stroke="#000000" d="M1208,-122.2667C1208,-140.5552 1208,-166 1208,-166 1208,-166 1997.4518,-166 1997.4518,-166"/>
<polygon fill="#000000" stroke="#000000" points="1997.4518,-169.5001 2007.4518,-166 1997.4518,-162.5001 1997.4518,-169.5001"/>
</g>
<!-- KnoraRequestService -->
<g id="node22" class="node">
<title>KnoraRequestService</title>
<ellipse fill="#fdb462" stroke="#000000" cx="1011" cy="-104" rx="95.4637" ry="18"/>
<text text-anchor="middle" x="1011" y="-99.8" font-family="Times,serif" font-size="14.00" fill="#000000">KnoraRequestService</text>
</g>
<!-- KnoraRequestService&#45;&gt;CoreModule -->
<g id="edge21" class="edge">
<title>KnoraRequestService&#45;&gt;CoreModule</title>
<path fill="none" stroke="#000000" d="M1011,-122.1061C1011,-141.3391 1011,-169 1011,-169 1011,-169 1997.6366,-169 1997.6366,-169"/>
<polygon fill="#000000" stroke="#000000" points="1997.6366,-172.5001 2007.6366,-169 1997.6365,-165.5001 1997.6366,-172.5001"/>
</g>
<!-- ResultToTextMapperService -->
<g id="node23" class="node">
<title>ResultToTextMapperService</title>
<ellipse fill="#fdb462" stroke="#000000" cx="775" cy="-104" rx="123.2514" ry="18"/>
<text text-anchor="middle" x="775" y="-99.8" font-family="Times,serif" font-size="14.00" fill="#000000">ResultToTextMapperService</text>
</g>
<!-- ResultToTextMapperService&#45;&gt;CoreModule -->
<g id="edge22" class="edge">
<title>ResultToTextMapperService&#45;&gt;CoreModule</title>
<path fill="none" stroke="#000000" d="M775,-122.2228C775,-142.3652 775,-172 775,-172 775,-172 1997.4463,-172 1997.4463,-172"/>
<polygon fill="#000000" stroke="#000000" points="1997.4464,-175.5001 2007.4463,-172 1997.4463,-168.5001 1997.4464,-175.5001"/>
</g>
<!-- SparqlRequestService -->
<g id="node24" class="node">
<title>SparqlRequestService</title>
<ellipse fill="#fdb462" stroke="#000000" cx="538" cy="-104" rx="96.1247" ry="18"/>
<text text-anchor="middle" x="538" y="-99.8" font-family="Times,serif" font-size="14.00" fill="#000000">SparqlRequestService</text>
</g>
<!-- SparqlRequestService&#45;&gt;CoreModule -->
<g id="edge23" class="edge">
<title>SparqlRequestService&#45;&gt;CoreModule</title>
<path fill="none" stroke="#000000" d="M538,-122.2843C538,-143.3211 538,-175 538,-175 538,-175 1997.3506,-175 1997.3506,-175"/>
<polygon fill="#000000" stroke="#000000" points="1997.3506,-178.5001 2007.3506,-175 1997.3505,-171.5001 1997.3506,-178.5001"/>
</g>
<!-- SynopsisObjectStorageService -->
<g id="node25" class="node">
<title>SynopsisObjectStorageService</title>
<ellipse fill="#fdb462" stroke="#000000" cx="294" cy="-104" rx="130.2134" ry="18"/>
<text text-anchor="middle" x="294" y="-99.8" font-family="Times,serif" font-size="14.00" fill="#000000">SynopsisObjectStorageService</text>
</g>
<!-- SynopsisObjectStorageService&#45;&gt;CoreModule -->
<g id="edge24" class="edge">
<title>SynopsisObjectStorageService&#45;&gt;CoreModule</title>
<path fill="none" stroke="#000000" d="M294,-122.2921C294,-144.2057 294,-178 294,-178 294,-178 1997.5683,-178 1997.5683,-178"/>
<polygon fill="#000000" stroke="#000000" points="1997.5683,-181.5001 2007.5683,-178 1997.5683,-174.5001 1997.5683,-181.5001"/>
</g>
<!-- ViewService -->
<g id="node26" class="node">
<title>ViewService</title>
<ellipse fill="#fdb462" stroke="#000000" cx="85" cy="-104" rx="60.8101" ry="18"/>
<text text-anchor="middle" x="85" y="-99.8" font-family="Times,serif" font-size="14.00" fill="#000000">ViewService</text>
</g>
<!-- ViewService&#45;&gt;CoreModule -->
<g id="edge25" class="edge">
<title>ViewService&#45;&gt;CoreModule</title>
<path fill="none" stroke="#000000" d="M85,-122.2479C85,-145.0179 85,-181 85,-181 85,-181 1997.646,-181 1997.646,-181"/>
<polygon fill="#000000" stroke="#000000" points="1997.6461,-184.5001 2007.646,-181 1997.646,-177.5001 1997.6461,-184.5001"/>
</g>
</g>
</svg>
