<?xml version="1.0" encoding="UTF-8" standalone="no"?>
<!DOCTYPE svg PUBLIC "-//W3C//DTD SVG 1.1//EN"
 "http://www.w3.org/Graphics/SVG/1.1/DTD/svg11.dtd">
<!-- Generated by graphviz version 2.40.1 (20161225.0304)
 -->
<!-- Title: dependencies Pages: 1 -->
<svg width="615pt" height="211pt"
 viewBox="0.00 0.00 615.00 211.00" xmlns="http://www.w3.org/2000/svg" xmlns:xlink="http://www.w3.org/1999/xlink">
<g id="graph0" class="graph" transform="scale(1 1) rotate(0) translate(4 207)">
<title>dependencies</title>
<polygon fill="#ffffff" stroke="transparent" points="-4,4 -4,-207 611,-207 611,4 -4,4"/>
<text text-anchor="start" x="282.5091" y="-42.4" font-family="sans-serif" font-weight="bold" font-size="14.00" fill="#000000">Legend</text>
<polygon fill="#ffffb3" stroke="transparent" points="69.5,-10 69.5,-30 89.5,-30 89.5,-10 69.5,-10"/>
<text text-anchor="start" x="93.129" y="-15.4" font-family="sans-serif" font-size="14.00" fill="#000000"> &#160;Declarations</text>
<polygon fill="#8dd3c7" stroke="transparent" points="182.5,-10 182.5,-30 202.5,-30 202.5,-10 182.5,-10"/>
<text text-anchor="start" x="206.2251" y="-15.4" font-family="sans-serif" font-size="14.00" fill="#000000"> &#160;Module</text>
<polygon fill="#80b1d3" stroke="transparent" points="268.5,-10 268.5,-30 288.5,-30 288.5,-10 268.5,-10"/>
<text text-anchor="start" x="292.2812" y="-15.4" font-family="sans-serif" font-size="14.00" fill="#000000"> &#160;Bootstrap</text>
<polygon fill="#fdb462" stroke="transparent" points="365.5,-10 365.5,-30 385.5,-30 385.5,-10 365.5,-10"/>
<text text-anchor="start" x="389.1732" y="-15.4" font-family="sans-serif" font-size="14.00" fill="#000000"> &#160;Providers</text>
<polygon fill="#fb8072" stroke="transparent" points="461.5,-10 461.5,-30 481.5,-30 481.5,-10 461.5,-10"/>
<text text-anchor="start" x="485.2258" y="-15.4" font-family="sans-serif" font-size="14.00" fill="#000000"> &#160;Exports</text>
<g id="clust1" class="cluster">
<title>cluster_MetadataViewModule</title>
<polygon fill="none" stroke="#000000" stroke-dasharray="1,5" points="8,-70 8,-195 599,-195 599,-70 8,-70"/>
</g>
<g id="clust2" class="cluster">
<title>cluster_MetadataViewModule_declarations</title>
<polygon fill="none" stroke="#000000" points="411,-78 411,-130 591,-130 591,-78 411,-78"/>
</g>
<g id="clust4" class="cluster">
<title>cluster_MetadataViewModule_imports</title>
<polygon fill="none" stroke="#000000" points="16,-78 16,-130 403,-130 403,-78 16,-78"/>
</g>
<!-- MetadataViewComponent -->
<g id="node1" class="node">
<title>MetadataViewComponent</title>
<polygon fill="#ffffb3" stroke="#000000" points="582.7352,-122 419.2648,-122 419.2648,-86 582.7352,-86 582.7352,-122"/>
<text text-anchor="middle" x="501" y="-99.8" font-family="Times,serif" font-size="14.00" fill="#000000">MetadataViewComponent</text>
</g>
<!-- MetadataViewModule -->
<g id="node2" class="node">
<title>MetadataViewModule</title>
<polygon fill="#8dd3c7" stroke="#000000" points="343.9524,-187 340.9524,-191 319.9524,-191 316.9524,-187 202.0476,-187 202.0476,-151 343.9524,-151 343.9524,-187"/>
<text text-anchor="middle" x="273" y="-164.8" font-family="Times,serif" font-size="14.00" fill="#000000">MetadataViewModule</text>
</g>
<!-- MetadataViewComponent&#45;&gt;MetadataViewModule -->
<g id="edge1" class="edge">
<title>MetadataViewComponent&#45;&gt;MetadataViewModule</title>
<path fill="none" stroke="#000000" d="M501,-122.1061C501,-141.3391 501,-169 501,-169 501,-169 354.2028,-169 354.2028,-169"/>
<polygon fill="#000000" stroke="#000000" points="354.2028,-165.5001 344.2028,-169 354.2027,-172.5001 354.2028,-165.5001"/>
</g>
<!-- FactSheetModule -->
<g id="node3" class="node">
<title>FactSheetModule</title>
<polygon fill="#8dd3c7" stroke="#000000" points="395.2549,-122 392.2549,-126 371.2549,-126 368.2549,-122 280.7451,-122 280.7451,-86 395.2549,-86 395.2549,-122"/>
<text text-anchor="middle" x="338" y="-99.8" font-family="Times,serif" font-size="14.00" fill="#000000">FactSheetModule</text>
</g>
<!-- FactSheetModule&#45;&gt;MetadataViewModule -->
<g id="edge2" class="edge">
<title>FactSheetModule&#45;&gt;MetadataViewModule</title>
<path fill="none" stroke="#000000" d="M312.2995,-122.1061C312.2995,-122.1061 312.2995,-140.991 312.2995,-140.991"/>
<polygon fill="#000000" stroke="#000000" points="308.7995,-140.9909 312.2995,-150.991 315.7995,-140.991 308.7995,-140.9909"/>
</g>
<!-- MaterialModule -->
<g id="node4" class="node">
<title>MaterialModule</title>
<polygon fill="#8dd3c7" stroke="#000000" points="262.4706,-122 259.4706,-126 238.4706,-126 235.4706,-122 155.5294,-122 155.5294,-86 262.4706,-86 262.4706,-122"/>
<text text-anchor="middle" x="209" y="-99.8" font-family="Times,serif" font-size="14.00" fill="#000000">MaterialModule</text>
</g>
<!-- MaterialModule&#45;&gt;MetadataViewModule -->
<g id="edge3" class="edge">
<title>MaterialModule&#45;&gt;MetadataViewModule</title>
<path fill="none" stroke="#000000" d="M232.2546,-122.1061C232.2546,-122.1061 232.2546,-140.991 232.2546,-140.991"/>
<polygon fill="#000000" stroke="#000000" points="228.7546,-140.9909 232.2546,-150.991 235.7546,-140.991 228.7546,-140.9909"/>
</g>
<!-- TagChipsModule -->
<g id="node5" class="node">
<title>TagChipsModule</title>
<polygon fill="#8dd3c7" stroke="#000000" points="137.9888,-122 134.9888,-126 113.9888,-126 110.9888,-122 24.0112,-122 24.0112,-86 137.9888,-86 137.9888,-122"/>
<text text-anchor="middle" x="81" y="-99.8" font-family="Times,serif" font-size="14.00" fill="#000000">TagChipsModule</text>
</g>
<!-- TagChipsModule&#45;&gt;MetadataViewModule -->
<g id="edge4" class="edge">
<title>TagChipsModule&#45;&gt;MetadataViewModule</title>
<path fill="none" stroke="#000000" d="M81,-122.1061C81,-141.3391 81,-169 81,-169 81,-169 191.7791,-169 191.7791,-169"/>
<polygon fill="#000000" stroke="#000000" points="191.7792,-172.5001 201.7791,-169 191.7791,-165.5001 191.7792,-172.5001"/>
</g>
</g>
</svg>
