<?xml version="1.0" encoding="UTF-8" standalone="no"?>
<!DOCTYPE svg PUBLIC "-//W3C//DTD SVG 1.1//EN"
 "http://www.w3.org/Graphics/SVG/1.1/DTD/svg11.dtd">
<!-- Generated by graphviz version 2.40.1 (20161225.0304)
 -->
<!-- Title: dependencies Pages: 1 -->
<svg width="504pt" height="284pt"
 viewBox="0.00 0.00 504.00 284.00" xmlns="http://www.w3.org/2000/svg" xmlns:xlink="http://www.w3.org/1999/xlink">
<g id="graph0" class="graph" transform="scale(1 1) rotate(0) translate(4 280)">
<title>dependencies</title>
<polygon fill="#ffffff" stroke="transparent" points="-4,4 -4,-280 500,-280 500,4 -4,4"/>
<text text-anchor="start" x="227.0091" y="-42.4" font-family="sans-serif" font-weight="bold" font-size="14.00" fill="#000000">Legend</text>
<polygon fill="#ffffb3" stroke="transparent" points="14,-10 14,-30 34,-30 34,-10 14,-10"/>
<text text-anchor="start" x="37.629" y="-15.4" font-family="sans-serif" font-size="14.00" fill="#000000"> &#160;Declarations</text>
<polygon fill="#8dd3c7" stroke="transparent" points="127,-10 127,-30 147,-30 147,-10 127,-10"/>
<text text-anchor="start" x="150.7251" y="-15.4" font-family="sans-serif" font-size="14.00" fill="#000000"> &#160;Module</text>
<polygon fill="#80b1d3" stroke="transparent" points="213,-10 213,-30 233,-30 233,-10 213,-10"/>
<text text-anchor="start" x="236.7812" y="-15.4" font-family="sans-serif" font-size="14.00" fill="#000000"> &#160;Bootstrap</text>
<polygon fill="#fdb462" stroke="transparent" points="310,-10 310,-30 330,-30 330,-10 310,-10"/>
<text text-anchor="start" x="333.6732" y="-15.4" font-family="sans-serif" font-size="14.00" fill="#000000"> &#160;Providers</text>
<polygon fill="#fb8072" stroke="transparent" points="406,-10 406,-30 426,-30 426,-10 406,-10"/>
<text text-anchor="start" x="429.7258" y="-15.4" font-family="sans-serif" font-size="14.00" fill="#000000"> &#160;Exports</text>
<g id="clust1" class="cluster">
<title>cluster_Project0062Module</title>
<polygon fill="none" stroke="#000000" stroke-dasharray="1,5" points="50,-70 50,-268 446,-268 446,-70 50,-70"/>
</g>
<g id="clust2" class="cluster">
<title>cluster_Project0062Module_declarations</title>
<polygon fill="none" stroke="#000000" points="194,-78 194,-130 438,-130 438,-78 194,-78"/>
</g>
<g id="clust4" class="cluster">
<title>cluster_Project0062Module_imports</title>
<polygon fill="none" stroke="#000000" points="58,-78 58,-130 186,-130 186,-78 58,-78"/>
</g>
<g id="clust5" class="cluster">
<title>cluster_Project0062Module_exports</title>
<polygon fill="none" stroke="#000000" points="124,-208 124,-260 372,-260 372,-208 124,-208"/>
</g>
<!-- P0062TranscriptionFrameComponent -->
<g id="node1" class="node">
<title>P0062TranscriptionFrameComponent</title>
<polygon fill="#ffffb3" stroke="#000000" points="430.2976,-122 201.7024,-122 201.7024,-86 430.2976,-86 430.2976,-122"/>
<text text-anchor="middle" x="316" y="-99.8" font-family="Times,serif" font-size="14.00" fill="#000000">P0062TranscriptionFrameComponent</text>
</g>
<!-- Project0062Module -->
<g id="node2" class="node">
<title>Project0062Module</title>
<polygon fill="#8dd3c7" stroke="#000000" points="311.7036,-187 308.7036,-191 287.7036,-191 284.7036,-187 184.2964,-187 184.2964,-151 311.7036,-151 311.7036,-187"/>
<text text-anchor="middle" x="248" y="-164.8" font-family="Times,serif" font-size="14.00" fill="#000000">Project0062Module</text>
</g>
<!-- P0062TranscriptionFrameComponent&#45;&gt;Project0062Module -->
<g id="edge1" class="edge">
<title>P0062TranscriptionFrameComponent&#45;&gt;Project0062Module</title>
<path fill="none" stroke="#000000" d="M256.7265,-122.1061C256.7265,-122.1061 256.7265,-140.991 256.7265,-140.991"/>
<polygon fill="#000000" stroke="#000000" points="253.2266,-140.9909 256.7265,-150.991 260.2266,-140.991 253.2266,-140.9909"/>
</g>
<!-- P0062TranscriptionFrameComponent  -->
<g id="node4" class="node">
<title>P0062TranscriptionFrameComponent </title>
<polygon fill="#fb8072" stroke="#000000" points="363.7975,-252 132.2025,-252 132.2025,-216 363.7975,-216 363.7975,-252"/>
<text text-anchor="middle" x="248" y="-229.8" font-family="Times,serif" font-size="14.00" fill="#000000">P0062TranscriptionFrameComponent </text>
</g>
<!-- Project0062Module&#45;&gt;P0062TranscriptionFrameComponent  -->
<g id="edge3" class="edge">
<title>Project0062Module&#45;&gt;P0062TranscriptionFrameComponent </title>
<path fill="none" stroke="#000000" stroke-dasharray="5,2" d="M248,-187.1061C248,-187.1061 248,-205.991 248,-205.991"/>
<polygon fill="#000000" stroke="#000000" points="244.5001,-205.9909 248,-215.991 251.5001,-205.991 244.5001,-205.9909"/>
</g>
<!-- RichTextModule -->
<g id="node3" class="node">
<title>RichTextModule</title>
<polygon fill="#8dd3c7" stroke="#000000" points="177.6499,-122 174.6499,-126 153.6499,-126 150.6499,-122 66.3501,-122 66.3501,-86 177.6499,-86 177.6499,-122"/>
<text text-anchor="middle" x="122" y="-99.8" font-family="Times,serif" font-size="14.00" fill="#000000">RichTextModule</text>
</g>
<!-- RichTextModule&#45;&gt;Project0062Module -->
<g id="edge2" class="edge">
<title>RichTextModule&#45;&gt;Project0062Module</title>
<path fill="none" stroke="#000000" d="M177.6918,-104C186.6902,-104 193.1248,-104 193.1248,-104 193.1248,-104 193.1248,-140.8939 193.1248,-140.8939"/>
<polygon fill="#000000" stroke="#000000" points="189.6249,-140.8938 193.1248,-150.8939 196.6249,-140.8939 189.6249,-140.8938"/>
</g>
</g>
</svg>
