<?xml version="1.0" encoding="UTF-8" standalone="no"?>
<!DOCTYPE svg PUBLIC "-//W3C//DTD SVG 1.1//EN"
 "http://www.w3.org/Graphics/SVG/1.1/DTD/svg11.dtd">
<!-- Generated by graphviz version 2.40.1 (20161225.0304)
 -->
<!-- Title: dependencies Pages: 1 -->
<svg width="893pt" height="284pt"
 viewBox="0.00 0.00 893.00 284.00" xmlns="http://www.w3.org/2000/svg" xmlns:xlink="http://www.w3.org/1999/xlink">
<g id="graph0" class="graph" transform="scale(1 1) rotate(0) translate(4 280)">
<title>dependencies</title>
<polygon fill="#ffffff" stroke="transparent" points="-4,4 -4,-280 889,-280 889,4 -4,4"/>
<text text-anchor="start" x="421.5091" y="-42.4" font-family="sans-serif" font-weight="bold" font-size="14.00" fill="#000000">Legend</text>
<polygon fill="#ffffb3" stroke="transparent" points="208.5,-10 208.5,-30 228.5,-30 228.5,-10 208.5,-10"/>
<text text-anchor="start" x="232.129" y="-15.4" font-family="sans-serif" font-size="14.00" fill="#000000"> &#160;Declarations</text>
<polygon fill="#8dd3c7" stroke="transparent" points="321.5,-10 321.5,-30 341.5,-30 341.5,-10 321.5,-10"/>
<text text-anchor="start" x="345.2251" y="-15.4" font-family="sans-serif" font-size="14.00" fill="#000000"> &#160;Module</text>
<polygon fill="#80b1d3" stroke="transparent" points="407.5,-10 407.5,-30 427.5,-30 427.5,-10 407.5,-10"/>
<text text-anchor="start" x="431.2812" y="-15.4" font-family="sans-serif" font-size="14.00" fill="#000000"> &#160;Bootstrap</text>
<polygon fill="#fdb462" stroke="transparent" points="504.5,-10 504.5,-30 524.5,-30 524.5,-10 504.5,-10"/>
<text text-anchor="start" x="528.1732" y="-15.4" font-family="sans-serif" font-size="14.00" fill="#000000"> &#160;Providers</text>
<polygon fill="#fb8072" stroke="transparent" points="600.5,-10 600.5,-30 620.5,-30 620.5,-10 600.5,-10"/>
<text text-anchor="start" x="624.2258" y="-15.4" font-family="sans-serif" font-size="14.00" fill="#000000"> &#160;Exports</text>
<g id="clust1" class="cluster">
<title>cluster_TextStructureModule</title>
<polygon fill="none" stroke="#000000" stroke-dasharray="1,5" points="8,-70 8,-268 877,-268 877,-70 8,-70"/>
</g>
<g id="clust2" class="cluster">
<title>cluster_TextStructureModule_declarations</title>
<polygon fill="none" stroke="#000000" points="146,-78 146,-130 869,-130 869,-78 146,-78"/>
</g>
<g id="clust7" class="cluster">
<title>cluster_TextStructureModule_imports</title>
<polygon fill="none" stroke="#000000" points="16,-78 16,-130 138,-130 138,-78 16,-78"/>
</g>
<g id="clust8" class="cluster">
<title>cluster_TextStructureModule_exports</title>
<polygon fill="none" stroke="#000000" points="74,-208 74,-260 812,-260 812,-208 74,-208"/>
</g>
<!-- TextLineComponent -->
<g id="node1" class="node">
<title>TextLineComponent</title>
<polygon fill="#ffffb3" stroke="#000000" points="861.1485,-122 728.8515,-122 728.8515,-86 861.1485,-86 861.1485,-122"/>
<text text-anchor="middle" x="795" y="-99.8" font-family="Times,serif" font-size="14.00" fill="#000000">TextLineComponent</text>
</g>
<!-- TextStructureModule -->
<g id="node5" class="node">
<title>TextStructureModule</title>
<polygon fill="#8dd3c7" stroke="#000000" points="505.0226,-187 502.0226,-191 481.0226,-191 478.0226,-187 368.9774,-187 368.9774,-151 505.0226,-151 505.0226,-187"/>
<text text-anchor="middle" x="437" y="-164.8" font-family="Times,serif" font-size="14.00" fill="#000000">TextStructureModule</text>
</g>
<!-- TextLineComponent&#45;&gt;TextStructureModule -->
<g id="edge1" class="edge">
<title>TextLineComponent&#45;&gt;TextStructureModule</title>
<path fill="none" stroke="#000000" d="M766.375,-122.1061C766.375,-141.3391 766.375,-169 766.375,-169 766.375,-169 515.2467,-169 515.2467,-169"/>
<polygon fill="#000000" stroke="#000000" points="515.2467,-165.5001 505.2467,-169 515.2467,-172.5001 515.2467,-165.5001"/>
</g>
<!-- TextLineGroupComponent -->
<g id="node2" class="node">
<title>TextLineGroupComponent</title>
<polygon fill="#ffffb3" stroke="#000000" points="710.4157,-122 541.5843,-122 541.5843,-86 710.4157,-86 710.4157,-122"/>
<text text-anchor="middle" x="626" y="-99.8" font-family="Times,serif" font-size="14.00" fill="#000000">TextLineGroupComponent</text>
</g>
<!-- TextLineGroupComponent&#45;&gt;TextStructureModule -->
<g id="edge2" class="edge">
<title>TextLineGroupComponent&#45;&gt;TextStructureModule</title>
<path fill="none" stroke="#000000" d="M595.875,-122.027C595.875,-138.3976 595.875,-160 595.875,-160 595.875,-160 515.2993,-160 515.2993,-160"/>
<polygon fill="#000000" stroke="#000000" points="515.2994,-156.5001 505.2993,-160 515.2993,-163.5001 515.2994,-156.5001"/>
</g>
<!-- TextLineMarginComponent -->
<g id="node3" class="node">
<title>TextLineMarginComponent</title>
<polygon fill="#ffffb3" stroke="#000000" points="523.8585,-122 350.1415,-122 350.1415,-86 523.8585,-86 523.8585,-122"/>
<text text-anchor="middle" x="437" y="-99.8" font-family="Times,serif" font-size="14.00" fill="#000000">TextLineMarginComponent</text>
</g>
<!-- TextLineMarginComponent&#45;&gt;TextStructureModule -->
<g id="edge3" class="edge">
<title>TextLineMarginComponent&#45;&gt;TextStructureModule</title>
<path fill="none" stroke="#000000" d="M437,-122.1061C437,-122.1061 437,-140.991 437,-140.991"/>
<polygon fill="#000000" stroke="#000000" points="433.5001,-140.9909 437,-150.991 440.5001,-140.991 433.5001,-140.9909"/>
</g>
<!-- TextLineNumberComponent -->
<g id="node4" class="node">
<title>TextLineNumberComponent</title>
<polygon fill="#ffffb3" stroke="#000000" points="332.021,-122 153.979,-122 153.979,-86 332.021,-86 332.021,-122"/>
<text text-anchor="middle" x="243" y="-99.8" font-family="Times,serif" font-size="14.00" fill="#000000">TextLineNumberComponent</text>
</g>
<!-- TextLineNumberComponent&#45;&gt;TextStructureModule -->
<g id="edge4" class="edge">
<title>TextLineNumberComponent&#45;&gt;TextStructureModule</title>
<path fill="none" stroke="#000000" d="M307.2905,-122.027C307.2905,-138.3976 307.2905,-160 307.2905,-160 307.2905,-160 358.7266,-160 358.7266,-160"/>
<polygon fill="#000000" stroke="#000000" points="358.7266,-163.5001 368.7266,-160 358.7265,-156.5001 358.7266,-163.5001"/>
</g>
<!-- TextLineComponent  -->
<g id="node7" class="node">
<title>TextLineComponent </title>
<polygon fill="#fb8072" stroke="#000000" points="804.1481,-252 667.8519,-252 667.8519,-216 804.1481,-216 804.1481,-252"/>
<text text-anchor="middle" x="736" y="-229.8" font-family="Times,serif" font-size="14.00" fill="#000000">TextLineComponent </text>
</g>
<!-- TextStructureModule&#45;&gt;TextLineComponent  -->
<g id="edge6" class="edge">
<title>TextStructureModule&#45;&gt;TextLineComponent </title>
<path fill="none" stroke="#000000" stroke-dasharray="5,2" d="M505.2129,-178C579.8636,-178 689.0668,-178 689.0668,-178 689.0668,-178 689.0668,-205.973 689.0668,-205.973"/>
<polygon fill="#000000" stroke="#000000" points="685.5669,-205.973 689.0668,-215.973 692.5669,-205.973 685.5669,-205.973"/>
</g>
<!-- TextLineGroupComponent  -->
<g id="node8" class="node">
<title>TextLineGroupComponent </title>
<polygon fill="#fb8072" stroke="#000000" points="649.9152,-252 478.0848,-252 478.0848,-216 649.9152,-216 649.9152,-252"/>
<text text-anchor="middle" x="564" y="-229.8" font-family="Times,serif" font-size="14.00" fill="#000000">TextLineGroupComponent </text>
</g>
<!-- TextStructureModule&#45;&gt;TextLineGroupComponent  -->
<g id="edge7" class="edge">
<title>TextStructureModule&#45;&gt;TextLineGroupComponent </title>
<path fill="none" stroke="#000000" stroke-dasharray="5,2" d="M491.6517,-187.1061C491.6517,-187.1061 491.6517,-205.991 491.6517,-205.991"/>
<polygon fill="#000000" stroke="#000000" points="488.1517,-205.9909 491.6517,-215.991 495.1517,-205.991 488.1517,-205.9909"/>
</g>
<!-- TextLineMarginComponent  -->
<g id="node9" class="node">
<title>TextLineMarginComponent </title>
<polygon fill="#fb8072" stroke="#000000" points="459.8588,-252 282.1412,-252 282.1412,-216 459.8588,-216 459.8588,-252"/>
<text text-anchor="middle" x="371" y="-229.8" font-family="Times,serif" font-size="14.00" fill="#000000">TextLineMarginComponent </text>
</g>
<!-- TextStructureModule&#45;&gt;TextLineMarginComponent  -->
<g id="edge8" class="edge">
<title>TextStructureModule&#45;&gt;TextLineMarginComponent </title>
<path fill="none" stroke="#000000" stroke-dasharray="5,2" d="M414.2092,-187.1061C414.2092,-187.1061 414.2092,-205.991 414.2092,-205.991"/>
<polygon fill="#000000" stroke="#000000" points="410.7092,-205.9909 414.2092,-215.991 417.7092,-205.991 410.7092,-205.9909"/>
</g>
<!-- TextLineNumberComponent  -->
<g id="node10" class="node">
<title>TextLineNumberComponent </title>
<polygon fill="#fb8072" stroke="#000000" points="264.0204,-252 81.9796,-252 81.9796,-216 264.0204,-216 264.0204,-252"/>
<text text-anchor="middle" x="173" y="-229.8" font-family="Times,serif" font-size="14.00" fill="#000000">TextLineNumberComponent </text>
</g>
<!-- TextStructureModule&#45;&gt;TextLineNumberComponent  -->
<g id="edge9" class="edge">
<title>TextStructureModule&#45;&gt;TextLineNumberComponent </title>
<path fill="none" stroke="#000000" stroke-dasharray="5,2" d="M368.864,-178C301.6432,-178 208.875,-178 208.875,-178 208.875,-178 208.875,-205.973 208.875,-205.973"/>
<polygon fill="#000000" stroke="#000000" points="205.3751,-205.973 208.875,-215.973 212.3751,-205.973 205.3751,-205.973"/>
</g>
<!-- SpaTextModule -->
<g id="node6" class="node">
<title>SpaTextModule</title>
<polygon fill="#8dd3c7" stroke="#000000" points="130.205,-122 127.205,-126 106.205,-126 103.205,-122 23.795,-122 23.795,-86 130.205,-86 130.205,-122"/>
<text text-anchor="middle" x="77" y="-99.8" font-family="Times,serif" font-size="14.00" fill="#000000">SpaTextModule</text>
</g>
<!-- SpaTextModule&#45;&gt;TextStructureModule -->
<g id="edge5" class="edge">
<title>SpaTextModule&#45;&gt;TextStructureModule</title>
<path fill="none" stroke="#000000" d="M106.0461,-122.1061C106.0461,-141.3391 106.0461,-169 106.0461,-169 106.0461,-169 358.8274,-169 358.8274,-169"/>
<polygon fill="#000000" stroke="#000000" points="358.8275,-172.5001 368.8274,-169 358.8274,-165.5001 358.8275,-172.5001"/>
</g>
</g>
</svg>
