<?xml version="1.0" encoding="UTF-8" standalone="no"?>
<!DOCTYPE svg PUBLIC "-//W3C//DTD SVG 1.1//EN"
 "http://www.w3.org/Graphics/SVG/1.1/DTD/svg11.dtd">
<!-- Generated by graphviz version 2.40.1 (20161225.0304)
 -->
<!-- Title: dependencies Pages: 1 -->
<svg width="6303pt" height="284pt"
 viewBox="0.00 0.00 6303.00 284.00" xmlns="http://www.w3.org/2000/svg" xmlns:xlink="http://www.w3.org/1999/xlink">
<g id="graph0" class="graph" transform="scale(1 1) rotate(0) translate(4 280)">
<title>dependencies</title>
<polygon fill="#ffffff" stroke="transparent" points="-4,4 -4,-280 6299,-280 6299,4 -4,4"/>
<text text-anchor="start" x="3126.5091" y="-42.4" font-family="sans-serif" font-weight="bold" font-size="14.00" fill="#000000">Legend</text>
<polygon fill="#ffffb3" stroke="transparent" points="2913.5,-10 2913.5,-30 2933.5,-30 2933.5,-10 2913.5,-10"/>
<text text-anchor="start" x="2937.129" y="-15.4" font-family="sans-serif" font-size="14.00" fill="#000000"> &#160;Declarations</text>
<polygon fill="#8dd3c7" stroke="transparent" points="3026.5,-10 3026.5,-30 3046.5,-30 3046.5,-10 3026.5,-10"/>
<text text-anchor="start" x="3050.2251" y="-15.4" font-family="sans-serif" font-size="14.00" fill="#000000"> &#160;Module</text>
<polygon fill="#80b1d3" stroke="transparent" points="3112.5,-10 3112.5,-30 3132.5,-30 3132.5,-10 3112.5,-10"/>
<text text-anchor="start" x="3136.2812" y="-15.4" font-family="sans-serif" font-size="14.00" fill="#000000"> &#160;Bootstrap</text>
<polygon fill="#fdb462" stroke="transparent" points="3209.5,-10 3209.5,-30 3229.5,-30 3229.5,-10 3209.5,-10"/>
<text text-anchor="start" x="3233.1732" y="-15.4" font-family="sans-serif" font-size="14.00" fill="#000000"> &#160;Providers</text>
<polygon fill="#fb8072" stroke="transparent" points="3305.5,-10 3305.5,-30 3325.5,-30 3325.5,-10 3305.5,-10"/>
<text text-anchor="start" x="3329.2258" y="-15.4" font-family="sans-serif" font-size="14.00" fill="#000000"> &#160;Exports</text>
<g id="clust1" class="cluster">
<title>cluster_SynopsisModule</title>
<polygon fill="none" stroke="#000000" stroke-dasharray="1,5" points="8,-70 8,-268 6287,-268 6287,-70 8,-70"/>
</g>
<g id="clust2" class="cluster">
<title>cluster_SynopsisModule_declarations</title>
<polygon fill="none" stroke="#000000" points="1617,-78 1617,-130 6279,-130 6279,-78 1617,-78"/>
</g>
<g id="clust28" class="cluster">
<title>cluster_SynopsisModule_imports</title>
<polygon fill="none" stroke="#000000" points="1487,-78 1487,-130 1609,-130 1609,-78 1487,-78"/>
</g>
<g id="clust29" class="cluster">
<title>cluster_SynopsisModule_exports</title>
<polygon fill="none" stroke="#000000" points="3184,-208 3184,-260 3576,-260 3576,-208 3184,-208"/>
</g>
<g id="clust31" class="cluster">
<title>cluster_SynopsisModule_providers</title>
<polygon fill="none" stroke="#000000" points="16,-78 16,-130 1479,-130 1479,-78 16,-78"/>
</g>
<!-- DraggableDirective -->
<g id="node1" class="node">
<title>DraggableDirective</title>
<polygon fill="#ffffb3" stroke="#000000" points="6271.385,-122 6144.615,-122 6144.615,-86 6271.385,-86 6271.385,-122"/>
<text text-anchor="middle" x="6208" y="-99.8" font-family="Times,serif" font-size="14.00" fill="#000000">DraggableDirective</text>
</g>
<!-- SynopsisModule -->
<g id="node26" class="node">
<title>SynopsisModule</title>
<polygon fill="#8dd3c7" stroke="#000000" points="3456.1123,-187 3453.1123,-191 3432.1123,-191 3429.1123,-187 3345.8877,-187 3345.8877,-151 3456.1123,-151 3456.1123,-187"/>
<text text-anchor="middle" x="3401" y="-164.8" font-family="Times,serif" font-size="14.00" fill="#000000">SynopsisModule</text>
</g>
<!-- DraggableDirective&#45;&gt;SynopsisModule -->
<g id="edge1" class="edge">
<title>DraggableDirective&#45;&gt;SynopsisModule</title>
<path fill="none" stroke="#000000" d="M6208,-122.3802C6208,-146.2785 6208,-185 6208,-185 6208,-185 3466.1257,-185 3466.1257,-185"/>
<polygon fill="#000000" stroke="#000000" points="3466.1257,-181.5001 3456.1257,-185 3466.1256,-188.5001 3466.1257,-181.5001"/>
</g>
<!-- DraggableStubDirective -->
<g id="node2" class="node">
<title>DraggableStubDirective</title>
<polygon fill="#ffffb3" stroke="#000000" points="6127.0576,-122 5974.9424,-122 5974.9424,-86 6127.0576,-86 6127.0576,-122"/>
<text text-anchor="middle" x="6051" y="-99.8" font-family="Times,serif" font-size="14.00" fill="#000000">DraggableStubDirective</text>
</g>
<!-- DraggableStubDirective&#45;&gt;SynopsisModule -->
<g id="edge2" class="edge">
<title>DraggableStubDirective&#45;&gt;SynopsisModule</title>
<path fill="none" stroke="#000000" d="M6051,-122.3228C6051,-145.6602 6051,-183 6051,-183 6051,-183 3466.349,-183 3466.349,-183"/>
<polygon fill="#000000" stroke="#000000" points="3466.3491,-179.5001 3456.349,-183 3466.349,-186.5001 3466.3491,-179.5001"/>
</g>
<!-- FloatDropTargetDirective -->
<g id="node3" class="node">
<title>FloatDropTargetDirective</title>
<polygon fill="#ffffb3" stroke="#000000" points="5957.1615,-122 5794.8385,-122 5794.8385,-86 5957.1615,-86 5957.1615,-122"/>
<text text-anchor="middle" x="5876" y="-99.8" font-family="Times,serif" font-size="14.00" fill="#000000">FloatDropTargetDirective</text>
</g>
<!-- FloatDropTargetDirective&#45;&gt;SynopsisModule -->
<g id="edge3" class="edge">
<title>FloatDropTargetDirective&#45;&gt;SynopsisModule</title>
<path fill="none" stroke="#000000" d="M5876,-122.2479C5876,-145.0179 5876,-181 5876,-181 5876,-181 3466.164,-181 3466.164,-181"/>
<polygon fill="#000000" stroke="#000000" points="3466.1641,-177.5001 3456.164,-181 3466.164,-184.5001 3466.1641,-177.5001"/>
</g>
<!-- FloatLightTableComponent -->
<g id="node4" class="node">
<title>FloatLightTableComponent</title>
<polygon fill="#ffffb3" stroke="#000000" points="5777.3173,-122 5604.6827,-122 5604.6827,-86 5777.3173,-86 5777.3173,-122"/>
<text text-anchor="middle" x="5691" y="-99.8" font-family="Times,serif" font-size="14.00" fill="#000000">FloatLightTableComponent</text>
</g>
<!-- FloatLightTableComponent&#45;&gt;SynopsisModule -->
<g id="edge4" class="edge">
<title>FloatLightTableComponent&#45;&gt;SynopsisModule</title>
<path fill="none" stroke="#000000" d="M5691,-122.2921C5691,-144.2057 5691,-178 5691,-178 5691,-178 3466.1904,-178 3466.1904,-178"/>
<polygon fill="#000000" stroke="#000000" points="3466.1904,-174.5001 3456.1904,-178 3466.1903,-181.5001 3466.1904,-174.5001"/>
</g>
<!-- FloatingImageObjectComponent -->
<g id="node5" class="node">
<title>FloatingImageObjectComponent</title>
<polygon fill="#ffffb3" stroke="#000000" points="5587.299,-122 5386.701,-122 5386.701,-86 5587.299,-86 5587.299,-122"/>
<text text-anchor="middle" x="5487" y="-99.8" font-family="Times,serif" font-size="14.00" fill="#000000">FloatingImageObjectComponent</text>
</g>
<!-- FloatingImageObjectComponent&#45;&gt;SynopsisModule -->
<g id="edge5" class="edge">
<title>FloatingImageObjectComponent&#45;&gt;SynopsisModule</title>
<path fill="none" stroke="#000000" d="M5487,-122.1686C5487,-143.498 5487,-176 5487,-176 5487,-176 3466.2581,-176 3466.2581,-176"/>
<polygon fill="#000000" stroke="#000000" points="3466.2582,-172.5001 3456.2581,-176 3466.2581,-179.5001 3466.2582,-172.5001"/>
</g>
<!-- FloatingTextObjectComponent -->
<g id="node6" class="node">
<title>FloatingTextObjectComponent</title>
<polygon fill="#ffffb3" stroke="#000000" points="5368.4762,-122 5177.5238,-122 5177.5238,-86 5368.4762,-86 5368.4762,-122"/>
<text text-anchor="middle" x="5273" y="-99.8" font-family="Times,serif" font-size="14.00" fill="#000000">FloatingTextObjectComponent</text>
</g>
<!-- FloatingTextObjectComponent&#45;&gt;SynopsisModule -->
<g id="edge6" class="edge">
<title>FloatingTextObjectComponent&#45;&gt;SynopsisModule</title>
<path fill="none" stroke="#000000" d="M5273,-122.0267C5273,-142.7672 5273,-174 5273,-174 5273,-174 3466.2642,-174 3466.2642,-174"/>
<polygon fill="#000000" stroke="#000000" points="3466.2642,-170.5001 3456.2642,-174 3466.2642,-177.5001 3466.2642,-170.5001"/>
</g>
<!-- LightTableComponent -->
<g id="node7" class="node">
<title>LightTableComponent</title>
<polygon fill="#ffffb3" stroke="#000000" points="5159.5393,-122 5016.4607,-122 5016.4607,-86 5159.5393,-86 5159.5393,-122"/>
<text text-anchor="middle" x="5088" y="-99.8" font-family="Times,serif" font-size="14.00" fill="#000000">LightTableComponent</text>
</g>
<!-- LightTableComponent&#45;&gt;SynopsisModule -->
<g id="edge7" class="edge">
<title>LightTableComponent&#45;&gt;SynopsisModule</title>
<path fill="none" stroke="#000000" d="M5088,-122.2228C5088,-142.3652 5088,-172 5088,-172 5088,-172 3466.1704,-172 3466.1704,-172"/>
<polygon fill="#000000" stroke="#000000" points="3466.1704,-168.5001 3456.1704,-172 3466.1704,-175.5001 3466.1704,-168.5001"/>
</g>
<!-- LightTableMenuComponent -->
<g id="node8" class="node">
<title>LightTableMenuComponent</title>
<polygon fill="#ffffb3" stroke="#000000" points="4998.1979,-122 4821.8021,-122 4821.8021,-86 4998.1979,-86 4998.1979,-122"/>
<text text-anchor="middle" x="4910" y="-99.8" font-family="Times,serif" font-size="14.00" fill="#000000">LightTableMenuComponent</text>
</g>
<!-- LightTableMenuComponent&#45;&gt;SynopsisModule -->
<g id="edge8" class="edge">
<title>LightTableMenuComponent&#45;&gt;SynopsisModule</title>
<path fill="none" stroke="#000000" d="M4910,-122.1061C4910,-141.3391 4910,-169 4910,-169 4910,-169 3466.4957,-169 3466.4957,-169"/>
<polygon fill="#000000" stroke="#000000" points="3466.4958,-165.5001 3456.4957,-169 3466.4957,-172.5001 3466.4958,-165.5001"/>
</g>
<!-- LoadLightTableComponent -->
<g id="node9" class="node">
<title>LoadLightTableComponent</title>
<polygon fill="#ffffb3" stroke="#000000" points="4804.3061,-122 4631.6939,-122 4631.6939,-86 4804.3061,-86 4804.3061,-122"/>
<text text-anchor="middle" x="4718" y="-99.8" font-family="Times,serif" font-size="14.00" fill="#000000">LoadLightTableComponent</text>
</g>
<!-- LoadLightTableComponent&#45;&gt;SynopsisModule -->
<g id="edge9" class="edge">
<title>LoadLightTableComponent&#45;&gt;SynopsisModule</title>
<path fill="none" stroke="#000000" d="M4718,-122.2222C4718,-140.8285 4718,-167 4718,-167 4718,-167 3466.3302,-167 3466.3302,-167"/>
<polygon fill="#000000" stroke="#000000" points="3466.3302,-163.5001 3456.3302,-167 3466.3301,-170.5001 3466.3302,-163.5001"/>
</g>
<!-- ModifiableDirective -->
<g id="node10" class="node">
<title>ModifiableDirective</title>
<polygon fill="#ffffb3" stroke="#000000" points="4614.2893,-122 4483.7107,-122 4483.7107,-86 4614.2893,-86 4614.2893,-122"/>
<text text-anchor="middle" x="4549" y="-99.8" font-family="Times,serif" font-size="14.00" fill="#000000">ModifiableDirective</text>
</g>
<!-- ModifiableDirective&#45;&gt;SynopsisModule -->
<g id="edge10" class="edge">
<title>ModifiableDirective&#45;&gt;SynopsisModule</title>
<path fill="none" stroke="#000000" d="M4549,-122.302C4549,-140.2699 4549,-165 4549,-165 4549,-165 3466.3704,-165 3466.3704,-165"/>
<polygon fill="#000000" stroke="#000000" points="3466.3705,-161.5001 3456.3704,-165 3466.3704,-168.5001 3466.3705,-161.5001"/>
</g>
<!-- ModifiableStubDirective -->
<g id="node11" class="node">
<title>ModifiableStubDirective</title>
<polygon fill="#ffffb3" stroke="#000000" points="4465.9622,-122 4310.0378,-122 4310.0378,-86 4465.9622,-86 4465.9622,-122"/>
<text text-anchor="middle" x="4388" y="-99.8" font-family="Times,serif" font-size="14.00" fill="#000000">ModifiableStubDirective</text>
</g>
<!-- ModifiableStubDirective&#45;&gt;SynopsisModule -->
<g id="edge11" class="edge">
<title>ModifiableStubDirective&#45;&gt;SynopsisModule</title>
<path fill="none" stroke="#000000" d="M4388,-122.0225C4388,-139.3734 4388,-163 4388,-163 4388,-163 3466.1803,-163 3466.1803,-163"/>
<polygon fill="#000000" stroke="#000000" points="3466.1804,-159.5001 3456.1803,-163 3466.1803,-166.5001 3466.1804,-159.5001"/>
</g>
<!-- RemoveObjectsByIdComponent -->
<g id="node12" class="node">
<title>RemoveObjectsByIdComponent</title>
<polygon fill="#ffffb3" stroke="#000000" points="4292.2478,-122 4093.7522,-122 4093.7522,-86 4292.2478,-86 4292.2478,-122"/>
<text text-anchor="middle" x="4193" y="-99.8" font-family="Times,serif" font-size="14.00" fill="#000000">RemoveObjectsByIdComponent</text>
</g>
<!-- RemoveObjectsByIdComponent&#45;&gt;SynopsisModule -->
<g id="edge12" class="edge">
<title>RemoveObjectsByIdComponent&#45;&gt;SynopsisModule</title>
<path fill="none" stroke="#000000" d="M4193,-122.027C4193,-138.3976 4193,-160 4193,-160 4193,-160 3466.0631,-160 3466.0631,-160"/>
<polygon fill="#000000" stroke="#000000" points="3466.0631,-156.5001 3456.0631,-160 3466.0631,-163.5001 3466.0631,-156.5001"/>
</g>
<!-- SaveLightTableComponent -->
<g id="node13" class="node">
<title>SaveLightTableComponent</title>
<polygon fill="#ffffb3" stroke="#000000" points="4075.2506,-122 3904.7494,-122 3904.7494,-86 4075.2506,-86 4075.2506,-122"/>
<text text-anchor="middle" x="3990" y="-99.8" font-family="Times,serif" font-size="14.00" fill="#000000">SaveLightTableComponent</text>
</g>
<!-- SaveLightTableComponent&#45;&gt;SynopsisModule -->
<g id="edge13" class="edge">
<title>SaveLightTableComponent&#45;&gt;SynopsisModule</title>
<path fill="none" stroke="#000000" d="M3990,-122.2819C3990,-137.9478 3990,-158 3990,-158 3990,-158 3466.147,-158 3466.147,-158"/>
<polygon fill="#000000" stroke="#000000" points="3466.147,-154.5001 3456.147,-158 3466.1469,-161.5001 3466.147,-154.5001"/>
</g>
<!-- SelectableDirective -->
<g id="node14" class="node">
<title>SelectableDirective</title>
<polygon fill="#ffffb3" stroke="#000000" points="3886.6108,-122 3761.3892,-122 3761.3892,-86 3886.6108,-86 3886.6108,-122"/>
<text text-anchor="middle" x="3824" y="-99.8" font-family="Times,serif" font-size="14.00" fill="#000000">SelectableDirective</text>
</g>
<!-- SelectableDirective&#45;&gt;SynopsisModule -->
<g id="edge14" class="edge">
<title>SelectableDirective&#45;&gt;SynopsisModule</title>
<path fill="none" stroke="#000000" d="M3824,-122.1871C3824,-137.1824 3824,-156 3824,-156 3824,-156 3466.2999,-156 3466.2999,-156"/>
<polygon fill="#000000" stroke="#000000" points="3466.2999,-152.5001 3456.2999,-156 3466.2998,-159.5001 3466.2999,-152.5001"/>
</g>
<!-- SelectableStubDirective -->
<g id="node15" class="node">
<title>SelectableStubDirective</title>
<polygon fill="#ffffb3" stroke="#000000" points="3743.7837,-122 3592.2163,-122 3592.2163,-86 3743.7837,-86 3743.7837,-122"/>
<text text-anchor="middle" x="3668" y="-99.8" font-family="Times,serif" font-size="14.00" fill="#000000">SelectableStubDirective</text>
</g>
<!-- SelectableStubDirective&#45;&gt;SynopsisModule -->
<g id="edge15" class="edge">
<title>SelectableStubDirective&#45;&gt;SynopsisModule</title>
<path fill="none" stroke="#000000" d="M3668,-122.0511C3668,-136.373 3668,-154 3668,-154 3668,-154 3466.3226,-154 3466.3226,-154"/>
<polygon fill="#000000" stroke="#000000" points="3466.3226,-150.5001 3456.3226,-154 3466.3225,-157.5001 3466.3226,-150.5001"/>
</g>
<!-- ShareLightTableComponent -->
<g id="node16" class="node">
<title>ShareLightTableComponent</title>
<polygon fill="#ffffb3" stroke="#000000" points="3574.9115,-122 3399.0885,-122 3399.0885,-86 3574.9115,-86 3574.9115,-122"/>
<text text-anchor="middle" x="3487" y="-99.8" font-family="Times,serif" font-size="14.00" fill="#000000">ShareLightTableComponent</text>
</g>
<!-- ShareLightTableComponent&#45;&gt;SynopsisModule -->
<g id="edge16" class="edge">
<title>ShareLightTableComponent&#45;&gt;SynopsisModule</title>
<path fill="none" stroke="#000000" d="M3427.6753,-122.1061C3427.6753,-122.1061 3427.6753,-140.991 3427.6753,-140.991"/>
<polygon fill="#000000" stroke="#000000" points="3424.1754,-140.9909 3427.6753,-150.991 3431.1754,-140.991 3424.1754,-140.9909"/>
</g>
<!-- SynopsisComponent -->
<g id="node17" class="node">
<title>SynopsisComponent</title>
<polygon fill="#ffffb3" stroke="#000000" points="3380.8948,-122 3249.1052,-122 3249.1052,-86 3380.8948,-86 3380.8948,-122"/>
<text text-anchor="middle" x="3315" y="-99.8" font-family="Times,serif" font-size="14.00" fill="#000000">SynopsisComponent</text>
</g>
<!-- SynopsisComponent&#45;&gt;SynopsisModule -->
<g id="edge17" class="edge">
<title>SynopsisComponent&#45;&gt;SynopsisModule</title>
<path fill="none" stroke="#000000" d="M3363.4457,-122.1061C3363.4457,-122.1061 3363.4457,-140.991 3363.4457,-140.991"/>
<polygon fill="#000000" stroke="#000000" points="3359.9457,-140.9909 3363.4457,-150.991 3366.9457,-140.991 3359.9457,-140.9909"/>
</g>
<!-- SynopsisObjectAnchorDirective -->
<g id="node18" class="node">
<title>SynopsisObjectAnchorDirective</title>
<polygon fill="#ffffb3" stroke="#000000" points="3230.944,-122 3033.056,-122 3033.056,-86 3230.944,-86 3230.944,-122"/>
<text text-anchor="middle" x="3132" y="-99.8" font-family="Times,serif" font-size="14.00" fill="#000000">SynopsisObjectAnchorDirective</text>
</g>
<!-- SynopsisObjectAnchorDirective&#45;&gt;SynopsisModule -->
<g id="edge18" class="edge">
<title>SynopsisObjectAnchorDirective&#45;&gt;SynopsisModule</title>
<path fill="none" stroke="#000000" d="M3211.3708,-122.0511C3211.3708,-136.373 3211.3708,-154 3211.3708,-154 3211.3708,-154 3335.8967,-154 3335.8967,-154"/>
<polygon fill="#000000" stroke="#000000" points="3335.8967,-157.5001 3345.8967,-154 3335.8966,-150.5001 3335.8967,-157.5001"/>
</g>
<!-- SynopsisObjectManagerComponent -->
<g id="node19" class="node">
<title>SynopsisObjectManagerComponent</title>
<polygon fill="#ffffb3" stroke="#000000" points="3015.4608,-122 2796.5392,-122 2796.5392,-86 3015.4608,-86 3015.4608,-122"/>
<text text-anchor="middle" x="2906" y="-99.8" font-family="Times,serif" font-size="14.00" fill="#000000">SynopsisObjectManagerComponent</text>
</g>
<!-- SynopsisObjectManagerComponent&#45;&gt;SynopsisModule -->
<g id="edge19" class="edge">
<title>SynopsisObjectManagerComponent&#45;&gt;SynopsisModule</title>
<path fill="none" stroke="#000000" d="M2906,-122.1871C2906,-137.1824 2906,-156 2906,-156 2906,-156 3335.6581,-156 3335.6581,-156"/>
<polygon fill="#000000" stroke="#000000" points="3335.6581,-159.5001 3345.6581,-156 3335.658,-152.5001 3335.6581,-159.5001"/>
</g>
<!-- SynopsisObjectToolboxComponent -->
<g id="node20" class="node">
<title>SynopsisObjectToolboxComponent</title>
<polygon fill="#ffffb3" stroke="#000000" points="2778.1553,-122 2561.8447,-122 2561.8447,-86 2778.1553,-86 2778.1553,-122"/>
<text text-anchor="middle" x="2670" y="-99.8" font-family="Times,serif" font-size="14.00" fill="#000000">SynopsisObjectToolboxComponent</text>
</g>
<!-- SynopsisObjectToolboxComponent&#45;&gt;SynopsisModule -->
<g id="edge20" class="edge">
<title>SynopsisObjectToolboxComponent&#45;&gt;SynopsisModule</title>
<path fill="none" stroke="#000000" d="M2670,-122.2819C2670,-137.9478 2670,-158 2670,-158 2670,-158 3335.7565,-158 3335.7565,-158"/>
<polygon fill="#000000" stroke="#000000" points="3335.7566,-161.5001 3345.7565,-158 3335.7565,-154.5001 3335.7566,-161.5001"/>
</g>
<!-- ThumbnailbarComponent -->
<g id="node21" class="node">
<title>ThumbnailbarComponent</title>
<polygon fill="#ffffb3" stroke="#000000" points="2543.147,-122 2382.853,-122 2382.853,-86 2543.147,-86 2543.147,-122"/>
<text text-anchor="middle" x="2463" y="-99.8" font-family="Times,serif" font-size="14.00" fill="#000000">ThumbnailbarComponent</text>
</g>
<!-- ThumbnailbarComponent&#45;&gt;SynopsisModule -->
<g id="edge21" class="edge">
<title>ThumbnailbarComponent&#45;&gt;SynopsisModule</title>
<path fill="none" stroke="#000000" d="M2463,-122.027C2463,-138.3976 2463,-160 2463,-160 2463,-160 3335.8257,-160 3335.8257,-160"/>
<polygon fill="#000000" stroke="#000000" points="3335.8258,-163.5001 3345.8257,-160 3335.8257,-156.5001 3335.8258,-163.5001"/>
</g>
<!-- TileDropTargetDirective -->
<g id="node22" class="node">
<title>TileDropTargetDirective</title>
<polygon fill="#ffffb3" stroke="#000000" points="2364.9314,-122 2209.0686,-122 2209.0686,-86 2364.9314,-86 2364.9314,-122"/>
<text text-anchor="middle" x="2287" y="-99.8" font-family="Times,serif" font-size="14.00" fill="#000000">TileDropTargetDirective</text>
</g>
<!-- TileDropTargetDirective&#45;&gt;SynopsisModule -->
<g id="edge22" class="edge">
<title>TileDropTargetDirective&#45;&gt;SynopsisModule</title>
<path fill="none" stroke="#000000" d="M2287,-122.0225C2287,-139.3734 2287,-163 2287,-163 2287,-163 3335.7566,-163 3335.7566,-163"/>
<polygon fill="#000000" stroke="#000000" points="3335.7566,-166.5001 3345.7566,-163 3335.7565,-159.5001 3335.7566,-166.5001"/>
</g>
<!-- TiledImageObjectComponent -->
<g id="node23" class="node">
<title>TiledImageObjectComponent</title>
<polygon fill="#ffffb3" stroke="#000000" points="2190.6783,-122 2007.3217,-122 2007.3217,-86 2190.6783,-86 2190.6783,-122"/>
<text text-anchor="middle" x="2099" y="-99.8" font-family="Times,serif" font-size="14.00" fill="#000000">TiledImageObjectComponent</text>
</g>
<!-- TiledImageObjectComponent&#45;&gt;SynopsisModule -->
<g id="edge23" class="edge">
<title>TiledImageObjectComponent&#45;&gt;SynopsisModule</title>
<path fill="none" stroke="#000000" d="M2099,-122.302C2099,-140.2699 2099,-165 2099,-165 2099,-165 3335.8863,-165 3335.8863,-165"/>
<polygon fill="#000000" stroke="#000000" points="3335.8863,-168.5001 3345.8863,-165 3335.8863,-161.5001 3335.8863,-168.5001"/>
</g>
<!-- TiledLightTableComponent -->
<g id="node24" class="node">
<title>TiledLightTableComponent</title>
<polygon fill="#ffffb3" stroke="#000000" points="1989.587,-122 1816.413,-122 1816.413,-86 1989.587,-86 1989.587,-122"/>
<text text-anchor="middle" x="1903" y="-99.8" font-family="Times,serif" font-size="14.00" fill="#000000">TiledLightTableComponent</text>
</g>
<!-- TiledLightTableComponent&#45;&gt;SynopsisModule -->
<g id="edge24" class="edge">
<title>TiledLightTableComponent&#45;&gt;SynopsisModule</title>
<path fill="none" stroke="#000000" d="M1903,-122.2222C1903,-140.8285 1903,-167 1903,-167 1903,-167 3335.9088,-167 3335.9088,-167"/>
<polygon fill="#000000" stroke="#000000" points="3335.9088,-170.5001 3345.9088,-167 3335.9088,-163.5001 3335.9088,-170.5001"/>
</g>
<!-- TiledTextObjectComponent -->
<g id="node25" class="node">
<title>TiledTextObjectComponent</title>
<polygon fill="#ffffb3" stroke="#000000" points="1798.8557,-122 1625.1443,-122 1625.1443,-86 1798.8557,-86 1798.8557,-122"/>
<text text-anchor="middle" x="1712" y="-99.8" font-family="Times,serif" font-size="14.00" fill="#000000">TiledTextObjectComponent</text>
</g>
<!-- TiledTextObjectComponent&#45;&gt;SynopsisModule -->
<g id="edge25" class="edge">
<title>TiledTextObjectComponent&#45;&gt;SynopsisModule</title>
<path fill="none" stroke="#000000" d="M1712,-122.1061C1712,-141.3391 1712,-169 1712,-169 1712,-169 3335.7642,-169 3335.7642,-169"/>
<polygon fill="#000000" stroke="#000000" points="3335.7642,-172.5001 3345.7642,-169 3335.7642,-165.5001 3335.7642,-172.5001"/>
</g>
<!-- SynopsisComponent  -->
<g id="node28" class="node">
<title>SynopsisComponent </title>
<polygon fill="#fb8072" stroke="#000000" points="3567.8954,-252 3432.1046,-252 3432.1046,-216 3567.8954,-216 3567.8954,-252"/>
<text text-anchor="middle" x="3500" y="-229.8" font-family="Times,serif" font-size="14.00" fill="#000000">SynopsisComponent </text>
</g>
<!-- SynopsisModule&#45;&gt;SynopsisComponent  -->
<g id="edge27" class="edge">
<title>SynopsisModule&#45;&gt;SynopsisComponent </title>
<path fill="none" stroke="#000000" stroke-dasharray="5,2" d="M3444.1794,-187.1061C3444.1794,-187.1061 3444.1794,-205.991 3444.1794,-205.991"/>
<polygon fill="#000000" stroke="#000000" points="3440.6794,-205.9909 3444.1794,-215.991 3447.6794,-205.991 3440.6794,-205.9909"/>
</g>
<!-- SynopsisObjectManagerComponent  -->
<g id="node29" class="node">
<title>SynopsisObjectManagerComponent </title>
<polygon fill="#fb8072" stroke="#000000" points="3414.4613,-252 3191.5387,-252 3191.5387,-216 3414.4613,-216 3414.4613,-252"/>
<text text-anchor="middle" x="3303" y="-229.8" font-family="Times,serif" font-size="14.00" fill="#000000">SynopsisObjectManagerComponent </text>
</g>
<!-- SynopsisModule&#45;&gt;SynopsisObjectManagerComponent  -->
<g id="edge28" class="edge">
<title>SynopsisModule&#45;&gt;SynopsisObjectManagerComponent </title>
<path fill="none" stroke="#000000" stroke-dasharray="5,2" d="M3380.0872,-187.1061C3380.0872,-187.1061 3380.0872,-205.991 3380.0872,-205.991"/>
<polygon fill="#000000" stroke="#000000" points="3376.5872,-205.9909 3380.0872,-215.991 3383.5872,-205.991 3376.5872,-205.9909"/>
</g>
<!-- MaterialModule -->
<g id="node27" class="node">
<title>MaterialModule</title>
<polygon fill="#8dd3c7" stroke="#000000" points="1601.4706,-122 1598.4706,-126 1577.4706,-126 1574.4706,-122 1494.5294,-122 1494.5294,-86 1601.4706,-86 1601.4706,-122"/>
<text text-anchor="middle" x="1548" y="-99.8" font-family="Times,serif" font-size="14.00" fill="#000000">MaterialModule</text>
</g>
<!-- MaterialModule&#45;&gt;SynopsisModule -->
<g id="edge26" class="edge">
<title>MaterialModule&#45;&gt;SynopsisModule</title>
<path fill="none" stroke="#000000" d="M1548,-122.2228C1548,-142.3652 1548,-172 1548,-172 1548,-172 3335.795,-172 3335.795,-172"/>
<polygon fill="#000000" stroke="#000000" points="3335.7951,-175.5001 3345.795,-172 3335.795,-168.5001 3335.7951,-175.5001"/>
</g>
<!-- DragService -->
<g id="node30" class="node">
<title>DragService</title>
<ellipse fill="#fdb462" stroke="#000000" cx="1412" cy="-104" rx="59.0872" ry="18"/>
<text text-anchor="middle" x="1412" y="-99.8" font-family="Times,serif" font-size="14.00" fill="#000000">DragService</text>
</g>
<!-- DragService&#45;&gt;SynopsisModule -->
<g id="edge29" class="edge">
<title>DragService&#45;&gt;SynopsisModule</title>
<path fill="none" stroke="#000000" d="M1412,-122.0267C1412,-142.7672 1412,-174 1412,-174 1412,-174 3335.7268,-174 3335.7268,-174"/>
<polygon fill="#000000" stroke="#000000" points="3335.7269,-177.5001 3345.7268,-174 3335.7268,-170.5001 3335.7269,-177.5001"/>
</g>
<!-- LightTableLayoutService -->
<g id="node31" class="node">
<title>LightTableLayoutService</title>
<ellipse fill="#fdb462" stroke="#000000" cx="1224" cy="-104" rx="110.0122" ry="18"/>
<text text-anchor="middle" x="1224" y="-99.8" font-family="Times,serif" font-size="14.00" fill="#000000">LightTableLayoutService</text>
</g>
<!-- LightTableLayoutService&#45;&gt;SynopsisModule -->
<g id="edge30" class="edge">
<title>LightTableLayoutService&#45;&gt;SynopsisModule</title>
<path fill="none" stroke="#000000" d="M1224,-122.1686C1224,-143.498 1224,-176 1224,-176 1224,-176 3335.8236,-176 3335.8236,-176"/>
<polygon fill="#000000" stroke="#000000" points="3335.8237,-179.5001 3345.8236,-176 3335.8236,-172.5001 3335.8237,-179.5001"/>
</g>
<!-- LightTableStashService -->
<g id="node32" class="node">
<title>LightTableStashService</title>
<ellipse fill="#fdb462" stroke="#000000" cx="992" cy="-104" rx="103.647" ry="18"/>
<text text-anchor="middle" x="992" y="-99.8" font-family="Times,serif" font-size="14.00" fill="#000000">LightTableStashService</text>
</g>
<!-- LightTableStashService&#45;&gt;SynopsisModule -->
<g id="edge31" class="edge">
<title>LightTableStashService&#45;&gt;SynopsisModule</title>
<path fill="none" stroke="#000000" d="M992,-122.2921C992,-144.2057 992,-178 992,-178 992,-178 3335.8695,-178 3335.8695,-178"/>
<polygon fill="#000000" stroke="#000000" points="3335.8696,-181.5001 3345.8695,-178 3335.8695,-174.5001 3335.8696,-181.5001"/>
</g>
<!-- SynopsisObjectModifierService -->
<g id="node33" class="node">
<title>SynopsisObjectModifierService</title>
<ellipse fill="#fdb462" stroke="#000000" cx="735" cy="-104" rx="134.8683" ry="18"/>
<text text-anchor="middle" x="735" y="-99.8" font-family="Times,serif" font-size="14.00" fill="#000000">SynopsisObjectModifierService</text>
</g>
<!-- SynopsisObjectModifierService&#45;&gt;SynopsisModule -->
<g id="edge32" class="edge">
<title>SynopsisObjectModifierService&#45;&gt;SynopsisModule</title>
<path fill="none" stroke="#000000" d="M735,-122.2479C735,-145.0179 735,-181 735,-181 735,-181 3335.9288,-181 3335.9288,-181"/>
<polygon fill="#000000" stroke="#000000" points="3335.9288,-184.5001 3345.9288,-181 3335.9287,-177.5001 3335.9288,-184.5001"/>
</g>
<!-- SynopsisObjectSelectorService -->
<g id="node34" class="node">
<title>SynopsisObjectSelectorService</title>
<ellipse fill="#fdb462" stroke="#000000" cx="450" cy="-104" rx="132.4976" ry="18"/>
<text text-anchor="middle" x="450" y="-99.8" font-family="Times,serif" font-size="14.00" fill="#000000">SynopsisObjectSelectorService</text>
</g>
<!-- SynopsisObjectSelectorService&#45;&gt;SynopsisModule -->
<g id="edge33" class="edge">
<title>SynopsisObjectSelectorService&#45;&gt;SynopsisModule</title>
<path fill="none" stroke="#000000" d="M450,-122.3228C450,-145.6602 450,-183 450,-183 450,-183 3335.6575,-183 3335.6575,-183"/>
<polygon fill="#000000" stroke="#000000" points="3335.6575,-186.5001 3345.6575,-183 3335.6575,-179.5001 3335.6575,-186.5001"/>
</g>
<!-- SynopsisObjectSerializerService -->
<g id="node35" class="node">
<title>SynopsisObjectSerializerService</title>
<ellipse fill="#fdb462" stroke="#000000" cx="162" cy="-104" rx="137.7106" ry="18"/>
<text text-anchor="middle" x="162" y="-99.8" font-family="Times,serif" font-size="14.00" fill="#000000">SynopsisObjectSerializerService</text>
</g>
<!-- SynopsisObjectSerializerService&#45;&gt;SynopsisModule -->
<g id="edge34" class="edge">
<title>SynopsisObjectSerializerService&#45;&gt;SynopsisModule</title>
<path fill="none" stroke="#000000" d="M162,-122.3802C162,-146.2785 162,-185 162,-185 162,-185 3335.8018,-185 3335.8018,-185"/>
<polygon fill="#000000" stroke="#000000" points="3335.8019,-188.5001 3345.8018,-185 3335.8018,-181.5001 3335.8019,-188.5001"/>
</g>
</g>
</svg>
