<?xml version="1.0" encoding="UTF-8" standalone="no"?>
<!DOCTYPE svg PUBLIC "-//W3C//DTD SVG 1.1//EN"
 "http://www.w3.org/Graphics/SVG/1.1/DTD/svg11.dtd">
<!-- Generated by graphviz version 2.47.0 (20210316.0004)
 -->
<!-- Title: dependencies Pages: 1 -->
<svg width="504pt" height="284pt"
 viewBox="0.00 0.00 504.00 284.00" xmlns="http://www.w3.org/2000/svg" xmlns:xlink="http://www.w3.org/1999/xlink">
<g id="graph0" class="graph" transform="scale(1 1) rotate(0) translate(4 280)">
<title>dependencies</title>
<polygon fill="white" stroke="transparent" points="-4,4 -4,-280 500,-280 500,4 -4,4"/>
<text text-anchor="start" x="227.01" y="-42.4" font-family="sans-serif" font-weight="bold" font-size="14.00">Legend</text>
<polygon fill="#ffffb3" stroke="transparent" points="14,-10 14,-30 34,-30 34,-10 14,-10"/>
<text text-anchor="start" x="37.63" y="-15.4" font-family="sans-serif" font-size="14.00"> &#160;Declarations</text>
<polygon fill="#8dd3c7" stroke="transparent" points="127,-10 127,-30 147,-30 147,-10 127,-10"/>
<text text-anchor="start" x="150.73" y="-15.4" font-family="sans-serif" font-size="14.00"> &#160;Module</text>
<polygon fill="#80b1d3" stroke="transparent" points="213,-10 213,-30 233,-30 233,-10 213,-10"/>
<text text-anchor="start" x="236.78" y="-15.4" font-family="sans-serif" font-size="14.00"> &#160;Bootstrap</text>
<polygon fill="#fdb462" stroke="transparent" points="310,-10 310,-30 330,-30 330,-10 310,-10"/>
<text text-anchor="start" x="333.67" y="-15.4" font-family="sans-serif" font-size="14.00"> &#160;Providers</text>
<polygon fill="#fb8072" stroke="transparent" points="406,-10 406,-30 426,-30 426,-10 406,-10"/>
<text text-anchor="start" x="429.73" y="-15.4" font-family="sans-serif" font-size="14.00"> &#160;Exports</text>
<g id="clust1" class="cluster">
<title>cluster_SharedPipeModule</title>
<polygon fill="none" stroke="black" stroke-dasharray="1,5" points="127,-70 127,-268 369,-268 369,-70 127,-70"/>
</g>
<g id="clust6" class="cluster">
<title>cluster_SharedPipeModule_exports</title>
<polygon fill="none" stroke="black" points="135,-208 135,-260 361,-260 361,-208 135,-208"/>
</g>
<g id="clust2" class="cluster">
<title>cluster_SharedPipeModule_declarations</title>
<polygon fill="none" stroke="black" points="139,-78 139,-130 357,-130 357,-78 139,-78"/>
</g>
<!-- LinkifyPipe -->
<g id="node1" class="node">
<title>LinkifyPipe</title>
<polygon fill="#ffffb3" stroke="black" points="349.38,-122 266.62,-122 266.62,-86 349.38,-86 349.38,-122"/>
<text text-anchor="middle" x="308" y="-99.8" font-family="Times,serif" font-size="14.00">LinkifyPipe</text>
</g>
<!-- SharedPipeModule -->
<g id="node3" class="node">
<title>SharedPipeModule</title>
<polygon fill="#8dd3c7" stroke="black" points="309.81,-187 306.81,-191 285.81,-191 282.81,-187 186.19,-187 186.19,-151 309.81,-151 309.81,-187"/>
<text text-anchor="middle" x="248" y="-164.8" font-family="Times,serif" font-size="14.00">SharedPipeModule</text>
</g>
<!-- LinkifyPipe&#45;&gt;SharedPipeModule -->
<g id="edge1" class="edge">
<title>LinkifyPipe&#45;&gt;SharedPipeModule</title>
<path fill="none" stroke="black" d="M288.11,-122.11C288.11,-122.11 288.11,-140.99 288.11,-140.99"/>
<polygon fill="black" stroke="black" points="284.61,-140.99 288.11,-150.99 291.61,-140.99 284.61,-140.99"/>
</g>
<!-- PrettyPrintPipe -->
<g id="node2" class="node">
<title>PrettyPrintPipe</title>
<polygon fill="#ffffb3" stroke="black" points="248.55,-122 147.45,-122 147.45,-86 248.55,-86 248.55,-122"/>
<text text-anchor="middle" x="198" y="-99.8" font-family="Times,serif" font-size="14.00">PrettyPrintPipe</text>
</g>
<!-- PrettyPrintPipe&#45;&gt;SharedPipeModule -->
<g id="edge2" class="edge">
<title>PrettyPrintPipe&#45;&gt;SharedPipeModule</title>
<path fill="none" stroke="black" d="M217.56,-122.11C217.56,-122.11 217.56,-140.99 217.56,-140.99"/>
<polygon fill="black" stroke="black" points="214.06,-140.99 217.56,-150.99 221.06,-140.99 214.06,-140.99"/>
</g>
<!-- LinkifyPipe  -->
<g id="node4" class="node">
<title>LinkifyPipe </title>
<polygon fill="#fb8072" stroke="black" points="353.38,-252 266.62,-252 266.62,-216 353.38,-216 353.38,-252"/>
<text text-anchor="middle" x="310" y="-229.8" font-family="Times,serif" font-size="14.00">LinkifyPipe </text>
</g>
<!-- SharedPipeModule&#45;&gt;LinkifyPipe  -->
<g id="edge3" class="edge">
<title>SharedPipeModule&#45;&gt;LinkifyPipe </title>
<path fill="none" stroke="black" stroke-dasharray="5,2" d="M288.23,-187.11C288.23,-187.11 288.23,-205.99 288.23,-205.99"/>
<polygon fill="black" stroke="black" points="284.73,-205.99 288.23,-215.99 291.73,-205.99 284.73,-205.99"/>
</g>
<!-- PrettyPrintPipe  -->
<g id="node5" class="node">
<title>PrettyPrintPipe </title>
<polygon fill="#fb8072" stroke="black" points="248.55,-252 143.45,-252 143.45,-216 248.55,-216 248.55,-252"/>
<text text-anchor="middle" x="196" y="-229.8" font-family="Times,serif" font-size="14.00">PrettyPrintPipe </text>
</g>
<!-- SharedPipeModule&#45;&gt;PrettyPrintPipe  -->
<g id="edge4" class="edge">
<title>SharedPipeModule&#45;&gt;PrettyPrintPipe </title>
<path fill="none" stroke="black" stroke-dasharray="5,2" d="M217.44,-187.11C217.44,-187.11 217.44,-205.99 217.44,-205.99"/>
<polygon fill="black" stroke="black" points="213.94,-205.99 217.44,-215.99 220.94,-205.99 213.94,-205.99"/>
</g>
</g>
</svg>
