<?xml version="1.0" encoding="UTF-8" standalone="no"?>
<!DOCTYPE svg PUBLIC "-//W3C//DTD SVG 1.1//EN"
 "http://www.w3.org/Graphics/SVG/1.1/DTD/svg11.dtd">
<!-- Generated by graphviz version 2.40.1 (20161225.0304)
 -->
<!-- Title: dependencies Pages: 1 -->
<svg width="504pt" height="284pt"
 viewBox="0.00 0.00 504.00 284.00" xmlns="http://www.w3.org/2000/svg" xmlns:xlink="http://www.w3.org/1999/xlink">
<g id="graph0" class="graph" transform="scale(1 1) rotate(0) translate(4 280)">
<title>dependencies</title>
<polygon fill="#ffffff" stroke="transparent" points="-4,4 -4,-280 500,-280 500,4 -4,4"/>
<text text-anchor="start" x="227.0091" y="-42.4" font-family="sans-serif" font-weight="bold" font-size="14.00" fill="#000000">Legend</text>
<polygon fill="#ffffb3" stroke="transparent" points="14,-10 14,-30 34,-30 34,-10 14,-10"/>
<text text-anchor="start" x="37.629" y="-15.4" font-family="sans-serif" font-size="14.00" fill="#000000"> &#160;Declarations</text>
<polygon fill="#8dd3c7" stroke="transparent" points="127,-10 127,-30 147,-30 147,-10 127,-10"/>
<text text-anchor="start" x="150.7251" y="-15.4" font-family="sans-serif" font-size="14.00" fill="#000000"> &#160;Module</text>
<polygon fill="#80b1d3" stroke="transparent" points="213,-10 213,-30 233,-30 233,-10 213,-10"/>
<text text-anchor="start" x="236.7812" y="-15.4" font-family="sans-serif" font-size="14.00" fill="#000000"> &#160;Bootstrap</text>
<polygon fill="#fdb462" stroke="transparent" points="310,-10 310,-30 330,-30 330,-10 310,-10"/>
<text text-anchor="start" x="333.6732" y="-15.4" font-family="sans-serif" font-size="14.00" fill="#000000"> &#160;Providers</text>
<polygon fill="#fb8072" stroke="transparent" points="406,-10 406,-30 426,-30 426,-10 406,-10"/>
<text text-anchor="start" x="429.7258" y="-15.4" font-family="sans-serif" font-size="14.00" fill="#000000"> &#160;Exports</text>
<g id="clust1" class="cluster">
<title>cluster_TagChipsModule</title>
<polygon fill="none" stroke="#000000" stroke-dasharray="1,5" points="99,-70 99,-268 397,-268 397,-70 99,-70"/>
</g>
<g id="clust2" class="cluster">
<title>cluster_TagChipsModule_declarations</title>
<polygon fill="none" stroke="#000000" points="237,-78 237,-130 389,-130 389,-78 237,-78"/>
</g>
<g id="clust4" class="cluster">
<title>cluster_TagChipsModule_imports</title>
<polygon fill="none" stroke="#000000" points="107,-78 107,-130 229,-130 229,-78 107,-78"/>
</g>
<g id="clust5" class="cluster">
<title>cluster_TagChipsModule_exports</title>
<polygon fill="none" stroke="#000000" points="170,-208 170,-260 326,-260 326,-208 170,-208"/>
</g>
<!-- TagChipsComponent -->
<g id="node1" class="node">
<title>TagChipsComponent</title>
<polygon fill="#ffffb3" stroke="#000000" points="380.7716,-122 245.2284,-122 245.2284,-86 380.7716,-86 380.7716,-122"/>
<text text-anchor="middle" x="313" y="-99.8" font-family="Times,serif" font-size="14.00" fill="#000000">TagChipsComponent</text>
</g>
<!-- TagChipsModule -->
<g id="node2" class="node">
<title>TagChipsModule</title>
<polygon fill="#8dd3c7" stroke="#000000" points="304.9888,-187 301.9888,-191 280.9888,-191 277.9888,-187 191.0112,-187 191.0112,-151 304.9888,-151 304.9888,-187"/>
<text text-anchor="middle" x="248" y="-164.8" font-family="Times,serif" font-size="14.00" fill="#000000">TagChipsModule</text>
</g>
<!-- TagChipsComponent&#45;&gt;TagChipsModule -->
<g id="edge1" class="edge">
<title>TagChipsComponent&#45;&gt;TagChipsModule</title>
<path fill="none" stroke="#000000" d="M275.0544,-122.1061C275.0544,-122.1061 275.0544,-140.991 275.0544,-140.991"/>
<polygon fill="#000000" stroke="#000000" points="271.5544,-140.9909 275.0544,-150.991 278.5544,-140.991 271.5544,-140.9909"/>
</g>
<!-- TagChipsComponent  -->
<g id="node4" class="node">
<title>TagChipsComponent </title>
<polygon fill="#fb8072" stroke="#000000" points="317.7717,-252 178.2283,-252 178.2283,-216 317.7717,-216 317.7717,-252"/>
<text text-anchor="middle" x="248" y="-229.8" font-family="Times,serif" font-size="14.00" fill="#000000">TagChipsComponent </text>
</g>
<!-- TagChipsModule&#45;&gt;TagChipsComponent  -->
<g id="edge3" class="edge">
<title>TagChipsModule&#45;&gt;TagChipsComponent </title>
<path fill="none" stroke="#000000" stroke-dasharray="5,2" d="M248,-187.1061C248,-187.1061 248,-205.991 248,-205.991"/>
<polygon fill="#000000" stroke="#000000" points="244.5001,-205.9909 248,-215.991 251.5001,-205.991 244.5001,-205.9909"/>
</g>
<!-- MaterialModule -->
<g id="node3" class="node">
<title>MaterialModule</title>
<polygon fill="#8dd3c7" stroke="#000000" points="221.4706,-122 218.4706,-126 197.4706,-126 194.4706,-122 114.5294,-122 114.5294,-86 221.4706,-86 221.4706,-122"/>
<text text-anchor="middle" x="168" y="-99.8" font-family="Times,serif" font-size="14.00" fill="#000000">MaterialModule</text>
</g>
<!-- MaterialModule&#45;&gt;TagChipsModule -->
<g id="edge2" class="edge">
<title>MaterialModule&#45;&gt;TagChipsModule</title>
<path fill="none" stroke="#000000" d="M206.2455,-122.1061C206.2455,-122.1061 206.2455,-140.991 206.2455,-140.991"/>
<polygon fill="#000000" stroke="#000000" points="202.7455,-140.9909 206.2455,-150.991 209.7455,-140.991 202.7455,-140.9909"/>
</g>
</g>
</svg>
