<?xml version="1.0" encoding="UTF-8" standalone="no"?>
<!DOCTYPE svg PUBLIC "-//W3C//DTD SVG 1.1//EN"
 "http://www.w3.org/Graphics/SVG/1.1/DTD/svg11.dtd">
<!-- Generated by graphviz version 2.40.1 (20161225.0304)
 -->
<!-- Title: dependencies Pages: 1 -->
<svg width="1449pt" height="284pt"
 viewBox="0.00 0.00 1449.00 284.00" xmlns="http://www.w3.org/2000/svg" xmlns:xlink="http://www.w3.org/1999/xlink">
<g id="graph0" class="graph" transform="scale(1 1) rotate(0) translate(4 280)">
<title>dependencies</title>
<polygon fill="#ffffff" stroke="transparent" points="-4,4 -4,-280 1445,-280 1445,4 -4,4"/>
<text text-anchor="start" x="699.5091" y="-42.4" font-family="sans-serif" font-weight="bold" font-size="14.00" fill="#000000">Legend</text>
<polygon fill="#ffffb3" stroke="transparent" points="486.5,-10 486.5,-30 506.5,-30 506.5,-10 486.5,-10"/>
<text text-anchor="start" x="510.129" y="-15.4" font-family="sans-serif" font-size="14.00" fill="#000000"> &#160;Declarations</text>
<polygon fill="#8dd3c7" stroke="transparent" points="599.5,-10 599.5,-30 619.5,-30 619.5,-10 599.5,-10"/>
<text text-anchor="start" x="623.2251" y="-15.4" font-family="sans-serif" font-size="14.00" fill="#000000"> &#160;Module</text>
<polygon fill="#80b1d3" stroke="transparent" points="685.5,-10 685.5,-30 705.5,-30 705.5,-10 685.5,-10"/>
<text text-anchor="start" x="709.2812" y="-15.4" font-family="sans-serif" font-size="14.00" fill="#000000"> &#160;Bootstrap</text>
<polygon fill="#fdb462" stroke="transparent" points="782.5,-10 782.5,-30 802.5,-30 802.5,-10 782.5,-10"/>
<text text-anchor="start" x="806.1732" y="-15.4" font-family="sans-serif" font-size="14.00" fill="#000000"> &#160;Providers</text>
<polygon fill="#fb8072" stroke="transparent" points="878.5,-10 878.5,-30 898.5,-30 898.5,-10 878.5,-10"/>
<text text-anchor="start" x="902.2258" y="-15.4" font-family="sans-serif" font-size="14.00" fill="#000000"> &#160;Exports</text>
<g id="clust1" class="cluster">
<title>cluster_ResourceFormModule</title>
<polygon fill="none" stroke="#000000" stroke-dasharray="1,5" points="8,-70 8,-268 1433,-268 1433,-70 8,-70"/>
</g>
<g id="clust2" class="cluster">
<title>cluster_ResourceFormModule_declarations</title>
<polygon fill="none" stroke="#000000" points="559,-78 559,-130 1425,-130 1425,-78 559,-78"/>
</g>
<g id="clust7" class="cluster">
<title>cluster_ResourceFormModule_imports</title>
<polygon fill="none" stroke="#000000" points="254,-78 254,-130 551,-130 551,-78 254,-78"/>
</g>
<g id="clust8" class="cluster">
<title>cluster_ResourceFormModule_exports</title>
<polygon fill="none" stroke="#000000" points="491,-208 491,-260 877,-260 877,-208 491,-208"/>
</g>
<g id="clust10" class="cluster">
<title>cluster_ResourceFormModule_providers</title>
<polygon fill="none" stroke="#000000" points="16,-78 16,-130 246,-130 246,-78 16,-78"/>
</g>
<!-- ResourceFormComponent -->
<g id="node1" class="node">
<title>ResourceFormComponent</title>
<polygon fill="#ffffb3" stroke="#000000" points="1416.752,-122 1253.248,-122 1253.248,-86 1416.752,-86 1416.752,-122"/>
<text text-anchor="middle" x="1335" y="-99.8" font-family="Times,serif" font-size="14.00" fill="#000000">ResourceFormComponent</text>
</g>
<!-- ResourceFormModule -->
<g id="node5" class="node">
<title>ResourceFormModule</title>
<polygon fill="#8dd3c7" stroke="#000000" points="758.9692,-187 755.9692,-191 734.9692,-191 731.9692,-187 617.0308,-187 617.0308,-151 758.9692,-151 758.9692,-187"/>
<text text-anchor="middle" x="688" y="-164.8" font-family="Times,serif" font-size="14.00" fill="#000000">ResourceFormModule</text>
</g>
<!-- ResourceFormComponent&#45;&gt;ResourceFormModule -->
<g id="edge1" class="edge">
<title>ResourceFormComponent&#45;&gt;ResourceFormModule</title>
<path fill="none" stroke="#000000" d="M1335,-122.2921C1335,-144.2057 1335,-178 1335,-178 1335,-178 769.0911,-178 769.0911,-178"/>
<polygon fill="#000000" stroke="#000000" points="769.0911,-174.5001 759.0911,-178 769.0911,-181.5001 769.0911,-174.5001"/>
</g>
<!-- ResourceFormV2Component -->
<g id="node2" class="node">
<title>ResourceFormV2Component</title>
<polygon fill="#ffffb3" stroke="#000000" points="1235.3585,-122 1054.6415,-122 1054.6415,-86 1235.3585,-86 1235.3585,-122"/>
<text text-anchor="middle" x="1145" y="-99.8" font-family="Times,serif" font-size="14.00" fill="#000000">ResourceFormV2Component</text>
</g>
<!-- ResourceFormV2Component&#45;&gt;ResourceFormModule -->
<g id="edge2" class="edge">
<title>ResourceFormV2Component&#45;&gt;ResourceFormModule</title>
<path fill="none" stroke="#000000" d="M1145,-122.1061C1145,-141.3391 1145,-169 1145,-169 1145,-169 769.1554,-169 769.1554,-169"/>
<polygon fill="#000000" stroke="#000000" points="769.1554,-165.5001 759.1554,-169 769.1553,-172.5001 769.1554,-165.5001"/>
</g>
<!-- ResourceValueHistoryComponent -->
<g id="node3" class="node">
<title>ResourceValueHistoryComponent</title>
<polygon fill="#ffffb3" stroke="#000000" points="1036.3375,-122 827.6625,-122 827.6625,-86 1036.3375,-86 1036.3375,-122"/>
<text text-anchor="middle" x="932" y="-99.8" font-family="Times,serif" font-size="14.00" fill="#000000">ResourceValueHistoryComponent</text>
</g>
<!-- ResourceValueHistoryComponent&#45;&gt;ResourceFormModule -->
<g id="edge3" class="edge">
<title>ResourceValueHistoryComponent&#45;&gt;ResourceFormModule</title>
<path fill="none" stroke="#000000" d="M848.1036,-122.027C848.1036,-138.3976 848.1036,-160 848.1036,-160 848.1036,-160 769.1561,-160 769.1561,-160"/>
<polygon fill="#000000" stroke="#000000" points="769.1562,-156.5001 759.1561,-160 769.1561,-163.5001 769.1562,-156.5001"/>
</g>
<!-- ResourceValueHistoryValueComponent -->
<g id="node4" class="node">
<title>ResourceValueHistoryValueComponent</title>
<polygon fill="#ffffb3" stroke="#000000" points="809.2639,-122 566.7361,-122 566.7361,-86 809.2639,-86 809.2639,-122"/>
<text text-anchor="middle" x="688" y="-99.8" font-family="Times,serif" font-size="14.00" fill="#000000">ResourceValueHistoryValueComponent</text>
</g>
<!-- ResourceValueHistoryValueComponent&#45;&gt;ResourceFormModule -->
<g id="edge4" class="edge">
<title>ResourceValueHistoryValueComponent&#45;&gt;ResourceFormModule</title>
<path fill="none" stroke="#000000" d="M688,-122.1061C688,-122.1061 688,-140.991 688,-140.991"/>
<polygon fill="#000000" stroke="#000000" points="684.5001,-140.9909 688,-150.991 691.5001,-140.991 684.5001,-140.9909"/>
</g>
<!-- ResourceFormComponent  -->
<g id="node8" class="node">
<title>ResourceFormComponent </title>
<polygon fill="#fb8072" stroke="#000000" points="868.752,-252 701.248,-252 701.248,-216 868.752,-216 868.752,-252"/>
<text text-anchor="middle" x="785" y="-229.8" font-family="Times,serif" font-size="14.00" fill="#000000">ResourceFormComponent </text>
</g>
<!-- ResourceFormModule&#45;&gt;ResourceFormComponent  -->
<g id="edge7" class="edge">
<title>ResourceFormModule&#45;&gt;ResourceFormComponent </title>
<path fill="none" stroke="#000000" stroke-dasharray="5,2" d="M730.1794,-187.1061C730.1794,-187.1061 730.1794,-205.991 730.1794,-205.991"/>
<polygon fill="#000000" stroke="#000000" points="726.6794,-205.9909 730.1794,-215.991 733.6794,-205.991 726.6794,-205.9909"/>
</g>
<!-- ResourceFormV2Component  -->
<g id="node9" class="node">
<title>ResourceFormV2Component </title>
<polygon fill="#fb8072" stroke="#000000" points="683.3587,-252 498.6413,-252 498.6413,-216 683.3587,-216 683.3587,-252"/>
<text text-anchor="middle" x="591" y="-229.8" font-family="Times,serif" font-size="14.00" fill="#000000">ResourceFormV2Component </text>
</g>
<!-- ResourceFormModule&#45;&gt;ResourceFormV2Component  -->
<g id="edge8" class="edge">
<title>ResourceFormModule&#45;&gt;ResourceFormV2Component </title>
<path fill="none" stroke="#000000" stroke-dasharray="5,2" d="M650.0973,-187.1061C650.0973,-187.1061 650.0973,-205.991 650.0973,-205.991"/>
<polygon fill="#000000" stroke="#000000" points="646.5974,-205.9909 650.0973,-215.991 653.5974,-205.991 646.5974,-205.9909"/>
</g>
<!-- BaseTypeFormsModule -->
<g id="node6" class="node">
<title>BaseTypeFormsModule</title>
<polygon fill="#8dd3c7" stroke="#000000" points="542.8061,-122 539.8061,-126 518.8061,-126 515.8061,-122 391.1939,-122 391.1939,-86 542.8061,-86 542.8061,-122"/>
<text text-anchor="middle" x="467" y="-99.8" font-family="Times,serif" font-size="14.00" fill="#000000">BaseTypeFormsModule</text>
</g>
<!-- BaseTypeFormsModule&#45;&gt;ResourceFormModule -->
<g id="edge5" class="edge">
<title>BaseTypeFormsModule&#45;&gt;ResourceFormModule</title>
<path fill="none" stroke="#000000" d="M520.7369,-122.027C520.7369,-138.3976 520.7369,-160 520.7369,-160 520.7369,-160 606.5802,-160 606.5802,-160"/>
<polygon fill="#000000" stroke="#000000" points="606.5802,-163.5001 616.5802,-160 606.5802,-156.5001 606.5802,-163.5001"/>
</g>
<!-- RichTextModule -->
<g id="node7" class="node">
<title>RichTextModule</title>
<polygon fill="#8dd3c7" stroke="#000000" points="373.6499,-122 370.6499,-126 349.6499,-126 346.6499,-122 262.3501,-122 262.3501,-86 373.6499,-86 373.6499,-122"/>
<text text-anchor="middle" x="318" y="-99.8" font-family="Times,serif" font-size="14.00" fill="#000000">RichTextModule</text>
</g>
<!-- RichTextModule&#45;&gt;ResourceFormModule -->
<g id="edge6" class="edge">
<title>RichTextModule&#45;&gt;ResourceFormModule</title>
<path fill="none" stroke="#000000" d="M318,-122.1061C318,-141.3391 318,-169 318,-169 318,-169 606.6603,-169 606.6603,-169"/>
<polygon fill="#000000" stroke="#000000" points="606.6603,-172.5001 616.6603,-169 606.6602,-165.5001 606.6603,-172.5001"/>
</g>
<!-- KnoraV1RequestService -->
<g id="node10" class="node">
<title>KnoraV1RequestService</title>
<ellipse fill="#fdb462" stroke="#000000" cx="131" cy="-104" rx="107.0627" ry="18"/>
<text text-anchor="middle" x="131" y="-99.8" font-family="Times,serif" font-size="14.00" fill="#000000">KnoraV1RequestService</text>
</g>
<!-- KnoraV1RequestService&#45;&gt;ResourceFormModule -->
<g id="edge9" class="edge">
<title>KnoraV1RequestService&#45;&gt;ResourceFormModule</title>
<path fill="none" stroke="#000000" d="M131,-122.2921C131,-144.2057 131,-178 131,-178 131,-178 606.8898,-178 606.8898,-178"/>
<polygon fill="#000000" stroke="#000000" points="606.8898,-181.5001 616.8898,-178 606.8898,-174.5001 606.8898,-181.5001"/>
</g>
</g>
</svg>
