<?xml version="1.0" encoding="UTF-8" standalone="no"?>
<!DOCTYPE svg PUBLIC "-//W3C//DTD SVG 1.1//EN"
 "http://www.w3.org/Graphics/SVG/1.1/DTD/svg11.dtd">
<!-- Generated by graphviz version 2.40.1 (20161225.0304)
 -->
<!-- Title: dependencies Pages: 1 -->
<svg width="1172pt" height="284pt"
 viewBox="0.00 0.00 1172.00 284.00" xmlns="http://www.w3.org/2000/svg" xmlns:xlink="http://www.w3.org/1999/xlink">
<g id="graph0" class="graph" transform="scale(1 1) rotate(0) translate(4 280)">
<title>dependencies</title>
<polygon fill="#ffffff" stroke="transparent" points="-4,4 -4,-280 1168,-280 1168,4 -4,4"/>
<text text-anchor="start" x="561.0091" y="-42.4" font-family="sans-serif" font-weight="bold" font-size="14.00" fill="#000000">Legend</text>
<polygon fill="#ffffb3" stroke="transparent" points="348,-10 348,-30 368,-30 368,-10 348,-10"/>
<text text-anchor="start" x="371.629" y="-15.4" font-family="sans-serif" font-size="14.00" fill="#000000"> &#160;Declarations</text>
<polygon fill="#8dd3c7" stroke="transparent" points="461,-10 461,-30 481,-30 481,-10 461,-10"/>
<text text-anchor="start" x="484.7251" y="-15.4" font-family="sans-serif" font-size="14.00" fill="#000000"> &#160;Module</text>
<polygon fill="#80b1d3" stroke="transparent" points="547,-10 547,-30 567,-30 567,-10 547,-10"/>
<text text-anchor="start" x="570.7812" y="-15.4" font-family="sans-serif" font-size="14.00" fill="#000000"> &#160;Bootstrap</text>
<polygon fill="#fdb462" stroke="transparent" points="644,-10 644,-30 664,-30 664,-10 644,-10"/>
<text text-anchor="start" x="667.6732" y="-15.4" font-family="sans-serif" font-size="14.00" fill="#000000"> &#160;Providers</text>
<polygon fill="#fb8072" stroke="transparent" points="740,-10 740,-30 760,-30 760,-10 740,-10"/>
<text text-anchor="start" x="763.7258" y="-15.4" font-family="sans-serif" font-size="14.00" fill="#000000"> &#160;Exports</text>
<g id="clust1" class="cluster">
<title>cluster_ResourceFormModule</title>
<polygon fill="none" stroke="#000000" stroke-dasharray="1,5" points="8,-70 8,-268 1156,-268 1156,-70 8,-70"/>
</g>
<g id="clust2" class="cluster">
<title>cluster_ResourceFormModule_declarations</title>
<polygon fill="none" stroke="#000000" points="192,-78 192,-130 1148,-130 1148,-78 192,-78"/>
</g>
<g id="clust7" class="cluster">
<title>cluster_ResourceFormModule_imports</title>
<polygon fill="none" stroke="#000000" points="16,-78 16,-130 184,-130 184,-78 16,-78"/>
</g>
<g id="clust8" class="cluster">
<title>cluster_ResourceFormModule_exports</title>
<polygon fill="none" stroke="#000000" points="504,-208 504,-260 688,-260 688,-208 504,-208"/>
</g>
<!-- ResourceFormComponent -->
<g id="node1" class="node">
<title>ResourceFormComponent</title>
<polygon fill="#ffffb3" stroke="#000000" points="1139.752,-122 976.248,-122 976.248,-86 1139.752,-86 1139.752,-122"/>
<text text-anchor="middle" x="1058" y="-99.8" font-family="Times,serif" font-size="14.00" fill="#000000">ResourceFormComponent</text>
</g>
<!-- ResourceFormModule -->
<g id="node5" class="node">
<title>ResourceFormModule</title>
<polygon fill="#8dd3c7" stroke="#000000" points="666.9692,-187 663.9692,-191 642.9692,-191 639.9692,-187 525.0308,-187 525.0308,-151 666.9692,-151 666.9692,-187"/>
<text text-anchor="middle" x="596" y="-164.8" font-family="Times,serif" font-size="14.00" fill="#000000">ResourceFormModule</text>
</g>
<!-- ResourceFormComponent&#45;&gt;ResourceFormModule -->
<g id="edge1" class="edge">
<title>ResourceFormComponent&#45;&gt;ResourceFormModule</title>
<path fill="none" stroke="#000000" d="M1058,-122.2843C1058,-143.3211 1058,-175 1058,-175 1058,-175 677.175,-175 677.175,-175"/>
<polygon fill="#000000" stroke="#000000" points="677.175,-171.5001 667.175,-175 677.175,-178.5001 677.175,-171.5001"/>
</g>
<!-- ResourceValueHistoryComponent -->
<g id="node2" class="node">
<title>ResourceValueHistoryComponent</title>
<polygon fill="#ffffb3" stroke="#000000" points="958.3375,-122 749.6625,-122 749.6625,-86 958.3375,-86 958.3375,-122"/>
<text text-anchor="middle" x="854" y="-99.8" font-family="Times,serif" font-size="14.00" fill="#000000">ResourceValueHistoryComponent</text>
</g>
<!-- ResourceValueHistoryComponent&#45;&gt;ResourceFormModule -->
<g id="edge2" class="edge">
<title>ResourceValueHistoryComponent&#45;&gt;ResourceFormModule</title>
<path fill="none" stroke="#000000" d="M854,-122.0225C854,-139.3734 854,-163 854,-163 854,-163 677.1826,-163 677.1826,-163"/>
<polygon fill="#000000" stroke="#000000" points="677.1826,-159.5001 667.1826,-163 677.1826,-166.5001 677.1826,-159.5001"/>
</g>
<!-- ResourceValueHistoryLinkTargetComponent -->
<g id="node3" class="node">
<title>ResourceValueHistoryLinkTargetComponent</title>
<polygon fill="#ffffb3" stroke="#000000" points="731.8137,-122 460.1863,-122 460.1863,-86 731.8137,-86 731.8137,-122"/>
<text text-anchor="middle" x="596" y="-99.8" font-family="Times,serif" font-size="14.00" fill="#000000">ResourceValueHistoryLinkTargetComponent</text>
</g>
<!-- ResourceValueHistoryLinkTargetComponent&#45;&gt;ResourceFormModule -->
<g id="edge3" class="edge">
<title>ResourceValueHistoryLinkTargetComponent&#45;&gt;ResourceFormModule</title>
<path fill="none" stroke="#000000" d="M596,-122.1061C596,-122.1061 596,-140.991 596,-140.991"/>
<polygon fill="#000000" stroke="#000000" points="592.5001,-140.9909 596,-150.991 599.5001,-140.991 592.5001,-140.9909"/>
</g>
<!-- ResourceValueHistoryValueComponent -->
<g id="node4" class="node">
<title>ResourceValueHistoryValueComponent</title>
<polygon fill="#ffffb3" stroke="#000000" points="442.2639,-122 199.7361,-122 199.7361,-86 442.2639,-86 442.2639,-122"/>
<text text-anchor="middle" x="321" y="-99.8" font-family="Times,serif" font-size="14.00" fill="#000000">ResourceValueHistoryValueComponent</text>
</g>
<!-- ResourceValueHistoryValueComponent&#45;&gt;ResourceFormModule -->
<g id="edge4" class="edge">
<title>ResourceValueHistoryValueComponent&#45;&gt;ResourceFormModule</title>
<path fill="none" stroke="#000000" d="M321,-122.0225C321,-139.3734 321,-163 321,-163 321,-163 514.823,-163 514.823,-163"/>
<polygon fill="#000000" stroke="#000000" points="514.8231,-166.5001 524.823,-163 514.823,-159.5001 514.8231,-166.5001"/>
</g>
<!-- ResourceFormComponent  -->
<g id="node7" class="node">
<title>ResourceFormComponent </title>
<polygon fill="#fb8072" stroke="#000000" points="679.752,-252 512.248,-252 512.248,-216 679.752,-216 679.752,-252"/>
<text text-anchor="middle" x="596" y="-229.8" font-family="Times,serif" font-size="14.00" fill="#000000">ResourceFormComponent </text>
</g>
<!-- ResourceFormModule&#45;&gt;ResourceFormComponent  -->
<g id="edge6" class="edge">
<title>ResourceFormModule&#45;&gt;ResourceFormComponent </title>
<path fill="none" stroke="#000000" stroke-dasharray="5,2" d="M596,-187.1061C596,-187.1061 596,-205.991 596,-205.991"/>
<polygon fill="#000000" stroke="#000000" points="592.5001,-205.9909 596,-215.991 599.5001,-205.991 592.5001,-205.9909"/>
</g>
<!-- BaseTypeFormsModule -->
<g id="node6" class="node">
<title>BaseTypeFormsModule</title>
<polygon fill="#8dd3c7" stroke="#000000" points="175.8061,-122 172.8061,-126 151.8061,-126 148.8061,-122 24.1939,-122 24.1939,-86 175.8061,-86 175.8061,-122"/>
<text text-anchor="middle" x="100" y="-99.8" font-family="Times,serif" font-size="14.00" fill="#000000">BaseTypeFormsModule</text>
</g>
<!-- BaseTypeFormsModule&#45;&gt;ResourceFormModule -->
<g id="edge5" class="edge">
<title>BaseTypeFormsModule&#45;&gt;ResourceFormModule</title>
<path fill="none" stroke="#000000" d="M100,-122.2843C100,-143.3211 100,-175 100,-175 100,-175 514.9353,-175 514.9353,-175"/>
<polygon fill="#000000" stroke="#000000" points="514.9353,-178.5001 524.9353,-175 514.9353,-171.5001 514.9353,-178.5001"/>
</g>
</g>
</svg>
