<?xml version="1.0" encoding="UTF-8" standalone="no"?>
<!DOCTYPE svg PUBLIC "-//W3C//DTD SVG 1.1//EN"
 "http://www.w3.org/Graphics/SVG/1.1/DTD/svg11.dtd">
<!-- Generated by graphviz version 2.40.1 (20161225.0304)
 -->
<!-- Title: dependencies Pages: 1 -->
<svg width="504pt" height="211pt"
 viewBox="0.00 0.00 504.00 211.00" xmlns="http://www.w3.org/2000/svg" xmlns:xlink="http://www.w3.org/1999/xlink">
<g id="graph0" class="graph" transform="scale(1 1) rotate(0) translate(4 207)">
<title>dependencies</title>
<polygon fill="#ffffff" stroke="transparent" points="-4,4 -4,-207 500,-207 500,4 -4,4"/>
<text text-anchor="start" x="227.0091" y="-42.4" font-family="sans-serif" font-weight="bold" font-size="14.00" fill="#000000">Legend</text>
<polygon fill="#ffffb3" stroke="transparent" points="14,-10 14,-30 34,-30 34,-10 14,-10"/>
<text text-anchor="start" x="37.629" y="-15.4" font-family="sans-serif" font-size="14.00" fill="#000000"> &#160;Declarations</text>
<polygon fill="#8dd3c7" stroke="transparent" points="127,-10 127,-30 147,-30 147,-10 127,-10"/>
<text text-anchor="start" x="150.7251" y="-15.4" font-family="sans-serif" font-size="14.00" fill="#000000"> &#160;Module</text>
<polygon fill="#80b1d3" stroke="transparent" points="213,-10 213,-30 233,-30 233,-10 213,-10"/>
<text text-anchor="start" x="236.7812" y="-15.4" font-family="sans-serif" font-size="14.00" fill="#000000"> &#160;Bootstrap</text>
<polygon fill="#fdb462" stroke="transparent" points="310,-10 310,-30 330,-30 330,-10 310,-10"/>
<text text-anchor="start" x="333.6732" y="-15.4" font-family="sans-serif" font-size="14.00" fill="#000000"> &#160;Providers</text>
<polygon fill="#fb8072" stroke="transparent" points="406,-10 406,-30 426,-30 426,-10 406,-10"/>
<text text-anchor="start" x="429.7258" y="-15.4" font-family="sans-serif" font-size="14.00" fill="#000000"> &#160;Exports</text>
<g id="clust1" class="cluster">
<title>cluster_MockupTutorialModule</title>
<polygon fill="none" stroke="#000000" stroke-dasharray="1,5" points="50,-70 50,-195 446,-195 446,-70 50,-70"/>
</g>
<g id="clust2" class="cluster">
<title>cluster_MockupTutorialModule_declarations</title>
<polygon fill="none" stroke="#000000" points="58,-78 58,-130 438,-130 438,-78 58,-78"/>
</g>
<!-- MyMainComponentComponent -->
<g id="node1" class="node">
<title>MyMainComponentComponent</title>
<polygon fill="#ffffb3" stroke="#000000" points="429.6595,-122 234.3405,-122 234.3405,-86 429.6595,-86 429.6595,-122"/>
<text text-anchor="middle" x="332" y="-99.8" font-family="Times,serif" font-size="14.00" fill="#000000">MyMainComponentComponent</text>
</g>
<!-- MockupTutorialModule -->
<g id="node3" class="node">
<title>MockupTutorialModule</title>
<polygon fill="#8dd3c7" stroke="#000000" points="311.8089,-187 308.8089,-191 287.8089,-191 284.8089,-187 160.1911,-187 160.1911,-151 311.8089,-151 311.8089,-187"/>
<text text-anchor="middle" x="236" y="-164.8" font-family="Times,serif" font-size="14.00" fill="#000000">MockupTutorialModule</text>
</g>
<!-- MyMainComponentComponent&#45;&gt;MockupTutorialModule -->
<g id="edge1" class="edge">
<title>MyMainComponentComponent&#45;&gt;MockupTutorialModule</title>
<path fill="none" stroke="#000000" d="M272.9124,-122.1061C272.9124,-122.1061 272.9124,-140.991 272.9124,-140.991"/>
<polygon fill="#000000" stroke="#000000" points="269.4124,-140.9909 272.9124,-150.991 276.4124,-140.991 269.4124,-140.9909"/>
</g>
<!-- TextDisplayComponent -->
<g id="node2" class="node">
<title>TextDisplayComponent</title>
<polygon fill="#ffffb3" stroke="#000000" points="216.0379,-122 65.9621,-122 65.9621,-86 216.0379,-86 216.0379,-122"/>
<text text-anchor="middle" x="141" y="-99.8" font-family="Times,serif" font-size="14.00" fill="#000000">TextDisplayComponent</text>
</g>
<!-- TextDisplayComponent&#45;&gt;MockupTutorialModule -->
<g id="edge2" class="edge">
<title>TextDisplayComponent&#45;&gt;MockupTutorialModule</title>
<path fill="none" stroke="#000000" d="M188.3072,-122.1061C188.3072,-122.1061 188.3072,-140.991 188.3072,-140.991"/>
<polygon fill="#000000" stroke="#000000" points="184.8072,-140.9909 188.3072,-150.991 191.8072,-140.991 184.8072,-140.9909"/>
</g>
</g>
</svg>
