<?xml version="1.0" encoding="UTF-8" standalone="no"?>
<!DOCTYPE svg PUBLIC "-//W3C//DTD SVG 1.1//EN"
 "http://www.w3.org/Graphics/SVG/1.1/DTD/svg11.dtd">
<!-- Generated by graphviz version 2.40.1 (20161225.0304)
 -->
<!-- Title: dependencies Pages: 1 -->
<svg width="1819pt" height="211pt"
 viewBox="0.00 0.00 1819.00 211.00" xmlns="http://www.w3.org/2000/svg" xmlns:xlink="http://www.w3.org/1999/xlink">
<g id="graph0" class="graph" transform="scale(1 1) rotate(0) translate(4 207)">
<title>dependencies</title>
<polygon fill="#ffffff" stroke="transparent" points="-4,4 -4,-207 1815,-207 1815,4 -4,4"/>
<text text-anchor="start" x="884.5091" y="-42.4" font-family="sans-serif" font-weight="bold" font-size="14.00" fill="#000000">Legend</text>
<polygon fill="#ffffb3" stroke="transparent" points="671.5,-10 671.5,-30 691.5,-30 691.5,-10 671.5,-10"/>
<text text-anchor="start" x="695.129" y="-15.4" font-family="sans-serif" font-size="14.00" fill="#000000"> &#160;Declarations</text>
<polygon fill="#8dd3c7" stroke="transparent" points="784.5,-10 784.5,-30 804.5,-30 804.5,-10 784.5,-10"/>
<text text-anchor="start" x="808.2251" y="-15.4" font-family="sans-serif" font-size="14.00" fill="#000000"> &#160;Module</text>
<polygon fill="#80b1d3" stroke="transparent" points="870.5,-10 870.5,-30 890.5,-30 890.5,-10 870.5,-10"/>
<text text-anchor="start" x="894.2812" y="-15.4" font-family="sans-serif" font-size="14.00" fill="#000000"> &#160;Bootstrap</text>
<polygon fill="#fdb462" stroke="transparent" points="967.5,-10 967.5,-30 987.5,-30 987.5,-10 967.5,-10"/>
<text text-anchor="start" x="991.1732" y="-15.4" font-family="sans-serif" font-size="14.00" fill="#000000"> &#160;Providers</text>
<polygon fill="#fb8072" stroke="transparent" points="1063.5,-10 1063.5,-30 1083.5,-30 1083.5,-10 1063.5,-10"/>
<text text-anchor="start" x="1087.2258" y="-15.4" font-family="sans-serif" font-size="14.00" fill="#000000"> &#160;Exports</text>
<g id="clust1" class="cluster">
<title>cluster_MyPageSetModule</title>
<polygon fill="none" stroke="#000000" stroke-dasharray="1,5" points="8,-70 8,-195 1803,-195 1803,-70 8,-70"/>
</g>
<g id="clust2" class="cluster">
<title>cluster_MyPageSetModule_declarations</title>
<polygon fill="none" stroke="#000000" points="1166,-78 1166,-130 1795,-130 1795,-78 1166,-78"/>
</g>
<g id="clust9" class="cluster">
<title>cluster_MyPageSetModule_providers</title>
<polygon fill="none" stroke="#000000" points="16,-78 16,-130 1158,-130 1158,-78 16,-78"/>
</g>
<!-- DialogCreateNewPageComponent -->
<g id="node1" class="node">
<title>DialogCreateNewPageComponent</title>
<polygon fill="#ffffb3" stroke="#000000" points="1786.6064,-122 1577.3936,-122 1577.3936,-86 1786.6064,-86 1786.6064,-122"/>
<text text-anchor="middle" x="1682" y="-99.8" font-family="Times,serif" font-size="14.00" fill="#000000">DialogCreateNewPageComponent</text>
</g>
<!-- MyPageSetModule -->
<g id="node4" class="node">
<title>MyPageSetModule</title>
<polygon fill="#8dd3c7" stroke="#000000" points="1040.094,-187 1037.094,-191 1016.094,-191 1013.094,-187 915.906,-187 915.906,-151 1040.094,-151 1040.094,-187"/>
<text text-anchor="middle" x="978" y="-164.8" font-family="Times,serif" font-size="14.00" fill="#000000">MyPageSetModule</text>
</g>
<!-- DialogCreateNewPageComponent&#45;&gt;MyPageSetModule -->
<g id="edge1" class="edge">
<title>DialogCreateNewPageComponent&#45;&gt;MyPageSetModule</title>
<path fill="none" stroke="#000000" d="M1682,-122.2921C1682,-144.2057 1682,-178 1682,-178 1682,-178 1050.1665,-178 1050.1665,-178"/>
<polygon fill="#000000" stroke="#000000" points="1050.1665,-174.5001 1040.1665,-178 1050.1664,-181.5001 1050.1665,-174.5001"/>
</g>
<!-- PageSetLandingPageComponent -->
<g id="node2" class="node">
<title>PageSetLandingPageComponent</title>
<polygon fill="#ffffb3" stroke="#000000" points="1559.3018,-122 1358.6982,-122 1358.6982,-86 1559.3018,-86 1559.3018,-122"/>
<text text-anchor="middle" x="1459" y="-99.8" font-family="Times,serif" font-size="14.00" fill="#000000">PageSetLandingPageComponent</text>
</g>
<!-- PageSetLandingPageComponent&#45;&gt;MyPageSetModule -->
<g id="edge2" class="edge">
<title>PageSetLandingPageComponent&#45;&gt;MyPageSetModule</title>
<path fill="none" stroke="#000000" d="M1459,-122.1061C1459,-141.3391 1459,-169 1459,-169 1459,-169 1050.3892,-169 1050.3892,-169"/>
<polygon fill="#000000" stroke="#000000" points="1050.3893,-165.5001 1040.3892,-169 1050.3892,-172.5001 1050.3893,-165.5001"/>
</g>
<!-- UpdatePageSetComponent -->
<g id="node3" class="node">
<title>UpdatePageSetComponent</title>
<polygon fill="#ffffb3" stroke="#000000" points="1340.3585,-122 1173.6415,-122 1173.6415,-86 1340.3585,-86 1340.3585,-122"/>
<text text-anchor="middle" x="1257" y="-99.8" font-family="Times,serif" font-size="14.00" fill="#000000">UpdatePageSetComponent</text>
</g>
<!-- UpdatePageSetComponent&#45;&gt;MyPageSetModule -->
<g id="edge3" class="edge">
<title>UpdatePageSetComponent&#45;&gt;MyPageSetModule</title>
<path fill="none" stroke="#000000" d="M1257,-122.027C1257,-138.3976 1257,-160 1257,-160 1257,-160 1050.2658,-160 1050.2658,-160"/>
<polygon fill="#000000" stroke="#000000" points="1050.2658,-156.5001 1040.2658,-160 1050.2657,-163.5001 1050.2658,-156.5001"/>
</g>
<!-- ActionService -->
<g id="node5" class="node">
<title>ActionService</title>
<ellipse fill="#fdb462" stroke="#000000" cx="1084" cy="-104" rx="66.0492" ry="18"/>
<text text-anchor="middle" x="1084" y="-99.8" font-family="Times,serif" font-size="14.00" fill="#000000">ActionService</text>
</g>
<!-- ActionService&#45;&gt;MyPageSetModule -->
<g id="edge4" class="edge">
<title>ActionService&#45;&gt;MyPageSetModule</title>
<path fill="none" stroke="#000000" d="M1028.8864,-114.1563C1028.8864,-114.1563 1028.8864,-140.8074 1028.8864,-140.8074"/>
<polygon fill="#000000" stroke="#000000" points="1025.3865,-140.8074 1028.8864,-150.8074 1032.3865,-140.8075 1025.3865,-140.8074"/>
</g>
<!-- CreatePageAndLinkToAction -->
<g id="node6" class="node">
<title>CreatePageAndLinkToAction</title>
<ellipse fill="#fdb462" stroke="#000000" cx="873" cy="-104" rx="126.7683" ry="18"/>
<text text-anchor="middle" x="873" y="-99.8" font-family="Times,serif" font-size="14.00" fill="#000000">CreatePageAndLinkToAction</text>
</g>
<!-- CreatePageAndLinkToAction&#45;&gt;MyPageSetModule -->
<g id="edge5" class="edge">
<title>CreatePageAndLinkToAction&#45;&gt;MyPageSetModule</title>
<path fill="none" stroke="#000000" d="M957.9186,-117.468C957.9186,-117.468 957.9186,-140.8642 957.9186,-140.8642"/>
<polygon fill="#000000" stroke="#000000" points="954.4187,-140.8641 957.9186,-150.8642 961.4187,-140.8642 954.4187,-140.8641"/>
</g>
<!-- CreatePageSetAndLinkToActionService -->
<g id="node7" class="node">
<title>CreatePageSetAndLinkToActionService</title>
<ellipse fill="#fdb462" stroke="#000000" cx="560" cy="-104" rx="168.3565" ry="18"/>
<text text-anchor="middle" x="560" y="-99.8" font-family="Times,serif" font-size="14.00" fill="#000000">CreatePageSetAndLinkToActionService</text>
</g>
<!-- CreatePageSetAndLinkToActionService&#45;&gt;MyPageSetModule -->
<g id="edge6" class="edge">
<title>CreatePageSetAndLinkToActionService&#45;&gt;MyPageSetModule</title>
<path fill="none" stroke="#000000" d="M560,-122.027C560,-138.3976 560,-160 560,-160 560,-160 905.8725,-160 905.8725,-160"/>
<polygon fill="#000000" stroke="#000000" points="905.8726,-163.5001 915.8725,-160 905.8725,-156.5001 905.8726,-163.5001"/>
</g>
<!-- GenerateHashService -->
<g id="node8" class="node">
<title>GenerateHashService</title>
<ellipse fill="#fdb462" stroke="#000000" cx="279" cy="-104" rx="94.8587" ry="18"/>
<text text-anchor="middle" x="279" y="-99.8" font-family="Times,serif" font-size="14.00" fill="#000000">GenerateHashService</text>
</g>
<!-- GenerateHashService&#45;&gt;MyPageSetModule -->
<g id="edge7" class="edge">
<title>GenerateHashService&#45;&gt;MyPageSetModule</title>
<path fill="none" stroke="#000000" d="M279,-122.1061C279,-141.3391 279,-169 279,-169 279,-169 905.6612,-169 905.6612,-169"/>
<polygon fill="#000000" stroke="#000000" points="905.6612,-172.5001 915.6612,-169 905.6611,-165.5001 905.6612,-172.5001"/>
</g>
<!-- PageSetService -->
<g id="node9" class="node">
<title>PageSetService</title>
<ellipse fill="#fdb462" stroke="#000000" cx="95" cy="-104" rx="71.2017" ry="18"/>
<text text-anchor="middle" x="95" y="-99.8" font-family="Times,serif" font-size="14.00" fill="#000000">PageSetService</text>
</g>
<!-- PageSetService&#45;&gt;MyPageSetModule -->
<g id="edge8" class="edge">
<title>PageSetService&#45;&gt;MyPageSetModule</title>
<path fill="none" stroke="#000000" d="M95,-122.2921C95,-144.2057 95,-178 95,-178 95,-178 905.9092,-178 905.9092,-178"/>
<polygon fill="#000000" stroke="#000000" points="905.9092,-181.5001 915.9092,-178 905.9091,-174.5001 905.9092,-181.5001"/>
</g>
</g>
</svg>
