<?xml version="1.0" encoding="UTF-8" standalone="no"?>
<!DOCTYPE svg PUBLIC "-//W3C//DTD SVG 1.1//EN"
 "http://www.w3.org/Graphics/SVG/1.1/DTD/svg11.dtd">
<!-- Generated by graphviz version 2.40.1 (20161225.0304)
 -->
<!-- Title: dependencies Pages: 1 -->
<svg width="828pt" height="284pt"
 viewBox="0.00 0.00 828.00 284.00" xmlns="http://www.w3.org/2000/svg" xmlns:xlink="http://www.w3.org/1999/xlink">
<g id="graph0" class="graph" transform="scale(1 1) rotate(0) translate(4 280)">
<title>dependencies</title>
<polygon fill="#ffffff" stroke="transparent" points="-4,4 -4,-280 824,-280 824,4 -4,4"/>
<text text-anchor="start" x="389.0091" y="-42.4" font-family="sans-serif" font-weight="bold" font-size="14.00" fill="#000000">Legend</text>
<polygon fill="#ffffb3" stroke="transparent" points="176,-10 176,-30 196,-30 196,-10 176,-10"/>
<text text-anchor="start" x="199.629" y="-15.4" font-family="sans-serif" font-size="14.00" fill="#000000"> &#160;Declarations</text>
<polygon fill="#8dd3c7" stroke="transparent" points="289,-10 289,-30 309,-30 309,-10 289,-10"/>
<text text-anchor="start" x="312.7251" y="-15.4" font-family="sans-serif" font-size="14.00" fill="#000000"> &#160;Module</text>
<polygon fill="#80b1d3" stroke="transparent" points="375,-10 375,-30 395,-30 395,-10 375,-10"/>
<text text-anchor="start" x="398.7812" y="-15.4" font-family="sans-serif" font-size="14.00" fill="#000000"> &#160;Bootstrap</text>
<polygon fill="#fdb462" stroke="transparent" points="472,-10 472,-30 492,-30 492,-10 472,-10"/>
<text text-anchor="start" x="495.6732" y="-15.4" font-family="sans-serif" font-size="14.00" fill="#000000"> &#160;Providers</text>
<polygon fill="#fb8072" stroke="transparent" points="568,-10 568,-30 588,-30 588,-10 568,-10"/>
<text text-anchor="start" x="591.7258" y="-15.4" font-family="sans-serif" font-size="14.00" fill="#000000"> &#160;Exports</text>
<g id="clust1" class="cluster">
<title>cluster_ImageFrameModule</title>
<polygon fill="none" stroke="#000000" stroke-dasharray="1,5" points="8,-70 8,-268 812,-268 812,-70 8,-70"/>
</g>
<g id="clust2" class="cluster">
<title>cluster_ImageFrameModule_declarations</title>
<polygon fill="none" stroke="#000000" points="228,-78 228,-130 804,-130 804,-78 228,-78"/>
</g>
<g id="clust7" class="cluster">
<title>cluster_ImageFrameModule_exports</title>
<polygon fill="none" stroke="#000000" points="119,-208 119,-260 704,-260 704,-208 119,-208"/>
</g>
<g id="clust9" class="cluster">
<title>cluster_ImageFrameModule_providers</title>
<polygon fill="none" stroke="#000000" points="16,-78 16,-130 220,-130 220,-78 16,-78"/>
</g>
<!-- ImageFrameComponent -->
<g id="node1" class="node">
<title>ImageFrameComponent</title>
<polygon fill="#ffffb3" stroke="#000000" points="796.0758,-122 643.9242,-122 643.9242,-86 796.0758,-86 796.0758,-122"/>
<text text-anchor="middle" x="720" y="-99.8" font-family="Times,serif" font-size="14.00" fill="#000000">ImageFrameComponent</text>
</g>
<!-- ImageFrameModule -->
<g id="node4" class="node">
<title>ImageFrameModule</title>
<polygon fill="#8dd3c7" stroke="#000000" points="495.2935,-187 492.2935,-191 471.2935,-191 468.2935,-187 364.7065,-187 364.7065,-151 495.2935,-151 495.2935,-187"/>
<text text-anchor="middle" x="430" y="-164.8" font-family="Times,serif" font-size="14.00" fill="#000000">ImageFrameModule</text>
</g>
<!-- ImageFrameComponent&#45;&gt;ImageFrameModule -->
<g id="edge1" class="edge">
<title>ImageFrameComponent&#45;&gt;ImageFrameModule</title>
<path fill="none" stroke="#000000" d="M669.875,-122.0225C669.875,-139.3734 669.875,-163 669.875,-163 669.875,-163 505.23,-163 505.23,-163"/>
<polygon fill="#000000" stroke="#000000" points="505.2301,-159.5001 495.23,-163 505.23,-166.5001 505.2301,-159.5001"/>
</g>
<!-- ImageFrameSizesComponent -->
<g id="node2" class="node">
<title>ImageFrameSizesComponent</title>
<polygon fill="#ffffb3" stroke="#000000" points="625.6232,-122 444.3768,-122 444.3768,-86 625.6232,-86 625.6232,-122"/>
<text text-anchor="middle" x="535" y="-99.8" font-family="Times,serif" font-size="14.00" fill="#000000">ImageFrameSizesComponent</text>
</g>
<!-- ImageFrameSizesComponent&#45;&gt;ImageFrameModule -->
<g id="edge2" class="edge">
<title>ImageFrameSizesComponent&#45;&gt;ImageFrameModule</title>
<path fill="none" stroke="#000000" d="M469.6676,-122.1061C469.6676,-122.1061 469.6676,-140.991 469.6676,-140.991"/>
<polygon fill="#000000" stroke="#000000" points="466.1677,-140.9909 469.6676,-150.991 473.1677,-140.991 466.1677,-140.9909"/>
</g>
<!-- ImageWithOverlayComponent -->
<g id="node3" class="node">
<title>ImageWithOverlayComponent</title>
<polygon fill="#ffffb3" stroke="#000000" points="425.896,-122 236.104,-122 236.104,-86 425.896,-86 425.896,-122"/>
<text text-anchor="middle" x="331" y="-99.8" font-family="Times,serif" font-size="14.00" fill="#000000">ImageWithOverlayComponent</text>
</g>
<!-- ImageWithOverlayComponent&#45;&gt;ImageFrameModule -->
<g id="edge3" class="edge">
<title>ImageWithOverlayComponent&#45;&gt;ImageFrameModule</title>
<path fill="none" stroke="#000000" d="M395.2756,-122.1061C395.2756,-122.1061 395.2756,-140.991 395.2756,-140.991"/>
<polygon fill="#000000" stroke="#000000" points="391.7757,-140.9909 395.2756,-150.991 398.7757,-140.991 391.7757,-140.9909"/>
</g>
<!-- ImageFrameComponent  -->
<g id="node5" class="node">
<title>ImageFrameComponent </title>
<polygon fill="#fb8072" stroke="#000000" points="695.5764,-252 540.4236,-252 540.4236,-216 695.5764,-216 695.5764,-252"/>
<text text-anchor="middle" x="618" y="-229.8" font-family="Times,serif" font-size="14.00" fill="#000000">ImageFrameComponent </text>
</g>
<!-- ImageFrameModule&#45;&gt;ImageFrameComponent  -->
<g id="edge4" class="edge">
<title>ImageFrameModule&#45;&gt;ImageFrameComponent </title>
<path fill="none" stroke="#000000" stroke-dasharray="5,2" d="M495.3346,-175C536.9227,-175 583.0118,-175 583.0118,-175 583.0118,-175 583.0118,-205.9775 583.0118,-205.9775"/>
<polygon fill="#000000" stroke="#000000" points="579.5118,-205.9774 583.0118,-215.9775 586.5118,-205.9775 579.5118,-205.9774"/>
</g>
<!-- ImageFrameSizesComponent  -->
<g id="node6" class="node">
<title>ImageFrameSizesComponent </title>
<polygon fill="#fb8072" stroke="#000000" points="522.6228,-252 337.3772,-252 337.3772,-216 522.6228,-216 522.6228,-252"/>
<text text-anchor="middle" x="430" y="-229.8" font-family="Times,serif" font-size="14.00" fill="#000000">ImageFrameSizesComponent </text>
</g>
<!-- ImageFrameModule&#45;&gt;ImageFrameSizesComponent  -->
<g id="edge5" class="edge">
<title>ImageFrameModule&#45;&gt;ImageFrameSizesComponent </title>
<path fill="none" stroke="#000000" stroke-dasharray="5,2" d="M430,-187.1061C430,-187.1061 430,-205.991 430,-205.991"/>
<polygon fill="#000000" stroke="#000000" points="426.5001,-205.9909 430,-215.991 433.5001,-205.991 426.5001,-205.9909"/>
</g>
<!-- ImageWithOverlayComponent  -->
<g id="node7" class="node">
<title>ImageWithOverlayComponent </title>
<polygon fill="#fb8072" stroke="#000000" points="319.3956,-252 126.6044,-252 126.6044,-216 319.3956,-216 319.3956,-252"/>
<text text-anchor="middle" x="223" y="-229.8" font-family="Times,serif" font-size="14.00" fill="#000000">ImageWithOverlayComponent </text>
</g>
<!-- ImageFrameModule&#45;&gt;ImageWithOverlayComponent  -->
<g id="edge6" class="edge">
<title>ImageFrameModule&#45;&gt;ImageWithOverlayComponent </title>
<path fill="none" stroke="#000000" stroke-dasharray="5,2" d="M364.6025,-175C323.3714,-175 277.875,-175 277.875,-175 277.875,-175 277.875,-205.9775 277.875,-205.9775"/>
<polygon fill="#000000" stroke="#000000" points="274.3751,-205.9774 277.875,-215.9775 281.3751,-205.9775 274.3751,-205.9774"/>
</g>
<!-- RegionToSvgService -->
<g id="node8" class="node">
<title>RegionToSvgService</title>
<ellipse fill="#fdb462" stroke="#000000" cx="118" cy="-104" rx="93.7823" ry="18"/>
<text text-anchor="middle" x="118" y="-99.8" font-family="Times,serif" font-size="14.00" fill="#000000">RegionToSvgService</text>
</g>
<!-- RegionToSvgService&#45;&gt;ImageFrameModule -->
<g id="edge7" class="edge">
<title>RegionToSvgService&#45;&gt;ImageFrameModule</title>
<path fill="none" stroke="#000000" d="M169.0966,-119.194C169.0966,-136.6752 169.0966,-163 169.0966,-163 169.0966,-163 354.8361,-163 354.8361,-163"/>
<polygon fill="#000000" stroke="#000000" points="354.8361,-166.5001 364.8361,-163 354.836,-159.5001 354.8361,-166.5001"/>
</g>
</g>
</svg>
