<?xml version="1.0" encoding="UTF-8" standalone="no"?>
<!DOCTYPE svg PUBLIC "-//W3C//DTD SVG 1.1//EN"
 "http://www.w3.org/Graphics/SVG/1.1/DTD/svg11.dtd">
<!-- Generated by graphviz version 2.40.1 (20161225.0304)
 -->
<!-- Title: dependencies Pages: 1 -->
<svg width="1181pt" height="284pt"
 viewBox="0.00 0.00 1181.00 284.00" xmlns="http://www.w3.org/2000/svg" xmlns:xlink="http://www.w3.org/1999/xlink">
<g id="graph0" class="graph" transform="scale(1 1) rotate(0) translate(4 280)">
<title>dependencies</title>
<polygon fill="#ffffff" stroke="transparent" points="-4,4 -4,-280 1177,-280 1177,4 -4,4"/>
<text text-anchor="start" x="565.5091" y="-42.4" font-family="sans-serif" font-weight="bold" font-size="14.00" fill="#000000">Legend</text>
<polygon fill="#ffffb3" stroke="transparent" points="352.5,-10 352.5,-30 372.5,-30 372.5,-10 352.5,-10"/>
<text text-anchor="start" x="376.129" y="-15.4" font-family="sans-serif" font-size="14.00" fill="#000000"> &#160;Declarations</text>
<polygon fill="#8dd3c7" stroke="transparent" points="465.5,-10 465.5,-30 485.5,-30 485.5,-10 465.5,-10"/>
<text text-anchor="start" x="489.2251" y="-15.4" font-family="sans-serif" font-size="14.00" fill="#000000"> &#160;Module</text>
<polygon fill="#80b1d3" stroke="transparent" points="551.5,-10 551.5,-30 571.5,-30 571.5,-10 551.5,-10"/>
<text text-anchor="start" x="575.2812" y="-15.4" font-family="sans-serif" font-size="14.00" fill="#000000"> &#160;Bootstrap</text>
<polygon fill="#fdb462" stroke="transparent" points="648.5,-10 648.5,-30 668.5,-30 668.5,-10 648.5,-10"/>
<text text-anchor="start" x="672.1732" y="-15.4" font-family="sans-serif" font-size="14.00" fill="#000000"> &#160;Providers</text>
<polygon fill="#fb8072" stroke="transparent" points="744.5,-10 744.5,-30 764.5,-30 764.5,-10 744.5,-10"/>
<text text-anchor="start" x="768.2258" y="-15.4" font-family="sans-serif" font-size="14.00" fill="#000000"> &#160;Exports</text>
<g id="clust1" class="cluster">
<title>cluster_AppModule</title>
<polygon fill="none" stroke="#000000" stroke-dasharray="1,5" points="8,-70 8,-268 1165,-268 1165,-70 8,-70"/>
</g>
<g id="clust2" class="cluster">
<title>cluster_AppModule_declarations</title>
<polygon fill="none" stroke="#000000" points="1035,-78 1035,-130 1157,-130 1157,-78 1035,-78"/>
</g>
<g id="clust4" class="cluster">
<title>cluster_AppModule_imports</title>
<polygon fill="none" stroke="#000000" points="925,-78 925,-130 1027,-130 1027,-78 925,-78"/>
</g>
<g id="clust6" class="cluster">
<title>cluster_AppModule_bootstrap</title>
<polygon fill="none" stroke="#000000" points="570,-208 570,-260 694,-260 694,-208 570,-208"/>
</g>
<g id="clust7" class="cluster">
<title>cluster_AppModule_providers</title>
<polygon fill="none" stroke="#000000" points="16,-78 16,-130 917,-130 917,-78 16,-78"/>
</g>
<!-- AppComponent -->
<g id="node1" class="node">
<title>AppComponent</title>
<polygon fill="#ffffb3" stroke="#000000" points="1148.9399,-122 1043.0601,-122 1043.0601,-86 1148.9399,-86 1148.9399,-122"/>
<text text-anchor="middle" x="1096" y="-99.8" font-family="Times,serif" font-size="14.00" fill="#000000">AppComponent</text>
</g>
<!-- AppModule -->
<g id="node2" class="node">
<title>AppModule</title>
<polygon fill="#8dd3c7" stroke="#000000" points="673.6571,-187 670.6571,-191 649.6571,-191 646.6571,-187 590.3429,-187 590.3429,-151 673.6571,-151 673.6571,-187"/>
<text text-anchor="middle" x="632" y="-164.8" font-family="Times,serif" font-size="14.00" fill="#000000">AppModule</text>
</g>
<!-- AppComponent&#45;&gt;AppModule -->
<g id="edge1" class="edge">
<title>AppComponent&#45;&gt;AppModule</title>
<path fill="none" stroke="#000000" d="M1096,-122.2921C1096,-144.2057 1096,-178 1096,-178 1096,-178 683.9953,-178 683.9953,-178"/>
<polygon fill="#000000" stroke="#000000" points="683.9953,-174.5001 673.9953,-178 683.9952,-181.5001 683.9953,-174.5001"/>
</g>
<!-- AppComponent  -->
<g id="node4" class="node">
<title>AppComponent </title>
<polygon fill="#80b1d3" stroke="#000000" points="686.439,-252 577.561,-252 577.561,-216 686.439,-216 686.439,-252"/>
<text text-anchor="middle" x="632" y="-229.8" font-family="Times,serif" font-size="14.00" fill="#000000">AppComponent </text>
</g>
<!-- AppModule&#45;&gt;AppComponent  -->
<g id="edge3" class="edge">
<title>AppModule&#45;&gt;AppComponent </title>
<path fill="none" stroke="#000000" stroke-dasharray="1,5" d="M632,-187.1061C632,-187.1061 632,-205.991 632,-205.991"/>
<polygon fill="#000000" stroke="#000000" points="628.5001,-205.9909 632,-215.991 635.5001,-205.991 628.5001,-205.9909"/>
</g>
<!-- CoreModule -->
<g id="node3" class="node">
<title>CoreModule</title>
<polygon fill="#8dd3c7" stroke="#000000" points="1019.2619,-122 1016.2619,-126 995.2619,-126 992.2619,-122 932.7381,-122 932.7381,-86 1019.2619,-86 1019.2619,-122"/>
<text text-anchor="middle" x="976" y="-99.8" font-family="Times,serif" font-size="14.00" fill="#000000">CoreModule</text>
</g>
<!-- CoreModule&#45;&gt;AppModule -->
<g id="edge2" class="edge">
<title>CoreModule&#45;&gt;AppModule</title>
<path fill="none" stroke="#000000" d="M976,-122.1061C976,-141.3391 976,-169 976,-169 976,-169 683.8372,-169 683.8372,-169"/>
<polygon fill="#000000" stroke="#000000" points="683.8373,-165.5001 673.8372,-169 683.8372,-172.5001 683.8373,-165.5001"/>
</g>
<!-- AlertService -->
<g id="node5" class="node">
<title>AlertService</title>
<ellipse fill="#fdb462" stroke="#000000" cx="849" cy="-104" rx="59.6646" ry="18"/>
<text text-anchor="middle" x="849" y="-99.8" font-family="Times,serif" font-size="14.00" fill="#000000">AlertService</text>
</g>
<!-- AlertService&#45;&gt;AppModule -->
<g id="edge4" class="edge">
<title>AlertService&#45;&gt;AppModule</title>
<path fill="none" stroke="#000000" d="M849,-122.027C849,-138.3976 849,-160 849,-160 849,-160 683.8398,-160 683.8398,-160"/>
<polygon fill="#000000" stroke="#000000" points="683.8398,-156.5001 673.8398,-160 683.8397,-163.5001 683.8398,-156.5001"/>
</g>
<!-- AuthGuard -->
<g id="node6" class="node">
<title>AuthGuard</title>
<ellipse fill="#fdb462" stroke="#000000" cx="717" cy="-104" rx="54.4566" ry="18"/>
<text text-anchor="middle" x="717" y="-99.8" font-family="Times,serif" font-size="14.00" fill="#000000">AuthGuard</text>
</g>
<!-- AuthGuard&#45;&gt;AppModule -->
<g id="edge5" class="edge">
<title>AuthGuard&#45;&gt;AppModule</title>
<path fill="none" stroke="#000000" d="M668.175,-112.2323C668.175,-112.2323 668.175,-140.7574 668.175,-140.7574"/>
<polygon fill="#000000" stroke="#000000" points="664.6751,-140.7574 668.175,-150.7574 671.6751,-140.7575 664.6751,-140.7574"/>
</g>
<!-- AuthenticationService -->
<g id="node7" class="node">
<title>AuthenticationService</title>
<ellipse fill="#fdb462" stroke="#000000" cx="547" cy="-104" rx="97.2683" ry="18"/>
<text text-anchor="middle" x="547" y="-99.8" font-family="Times,serif" font-size="14.00" fill="#000000">AuthenticationService</text>
</g>
<!-- AuthenticationService&#45;&gt;AppModule -->
<g id="edge6" class="edge">
<title>AuthenticationService&#45;&gt;AppModule</title>
<path fill="none" stroke="#000000" d="M617.2779,-116.5327C617.2779,-116.5327 617.2779,-140.8507 617.2779,-140.8507"/>
<polygon fill="#000000" stroke="#000000" points="613.778,-140.8506 617.2779,-150.8507 620.778,-140.8507 613.778,-140.8506"/>
</g>
<!-- JwtInterceptor -->
<g id="node8" class="node">
<title>JwtInterceptor</title>
<ellipse fill="#fdb462" stroke="#000000" cx="365" cy="-104" rx="66.6094" ry="18"/>
<text text-anchor="middle" x="365" y="-99.8" font-family="Times,serif" font-size="14.00" fill="#000000">JwtInterceptor</text>
</g>
<!-- JwtInterceptor&#45;&gt;AppModule -->
<g id="edge7" class="edge">
<title>JwtInterceptor&#45;&gt;AppModule</title>
<path fill="none" stroke="#000000" d="M365,-122.027C365,-138.3976 365,-160 365,-160 365,-160 580.2813,-160 580.2813,-160"/>
<polygon fill="#000000" stroke="#000000" points="580.2813,-163.5001 590.2813,-160 580.2812,-156.5001 580.2813,-163.5001"/>
</g>
<!-- UserService -->
<g id="node9" class="node">
<title>UserService</title>
<ellipse fill="#fdb462" stroke="#000000" cx="222" cy="-104" rx="58.4415" ry="18"/>
<text text-anchor="middle" x="222" y="-99.8" font-family="Times,serif" font-size="14.00" fill="#000000">UserService</text>
</g>
<!-- UserService&#45;&gt;AppModule -->
<g id="edge8" class="edge">
<title>UserService&#45;&gt;AppModule</title>
<path fill="none" stroke="#000000" d="M222,-122.1061C222,-141.3391 222,-169 222,-169 222,-169 580.0496,-169 580.0496,-169"/>
<polygon fill="#000000" stroke="#000000" points="580.0496,-172.5001 590.0496,-169 580.0496,-165.5001 580.0496,-172.5001"/>
</g>
<!-- ViewService -->
<g id="node10" class="node">
<title>ViewService</title>
<ellipse fill="#fdb462" stroke="#000000" cx="85" cy="-104" rx="60.8101" ry="18"/>
<text text-anchor="middle" x="85" y="-99.8" font-family="Times,serif" font-size="14.00" fill="#000000">ViewService</text>
</g>
<!-- ViewService&#45;&gt;AppModule -->
<g id="edge9" class="edge">
<title>ViewService&#45;&gt;AppModule</title>
<path fill="none" stroke="#000000" d="M85,-122.2921C85,-144.2057 85,-178 85,-178 85,-178 579.9861,-178 579.9861,-178"/>
<polygon fill="#000000" stroke="#000000" points="579.9861,-181.5001 589.9861,-178 579.9861,-174.5001 579.9861,-181.5001"/>
</g>
</g>
</svg>
