<?xml version="1.0" encoding="UTF-8" standalone="no"?>
<!DOCTYPE svg PUBLIC "-//W3C//DTD SVG 1.1//EN"
 "http://www.w3.org/Graphics/SVG/1.1/DTD/svg11.dtd">
<!-- Generated by graphviz version 2.47.0 (20210316.0004)
 -->
<!-- Title: dependencies Pages: 1 -->
<svg width="1689pt" height="211pt"
 viewBox="0.00 0.00 1689.00 211.00" xmlns="http://www.w3.org/2000/svg" xmlns:xlink="http://www.w3.org/1999/xlink">
<g id="graph0" class="graph" transform="scale(1 1) rotate(0) translate(4 207)">
<title>dependencies</title>
<polygon fill="white" stroke="transparent" points="-4,4 -4,-207 1685,-207 1685,4 -4,4"/>
<text text-anchor="start" x="819.51" y="-42.4" font-family="sans-serif" font-weight="bold" font-size="14.00">Legend</text>
<polygon fill="#ffffb3" stroke="transparent" points="606.5,-10 606.5,-30 626.5,-30 626.5,-10 606.5,-10"/>
<text text-anchor="start" x="630.13" y="-15.4" font-family="sans-serif" font-size="14.00"> &#160;Declarations</text>
<polygon fill="#8dd3c7" stroke="transparent" points="719.5,-10 719.5,-30 739.5,-30 739.5,-10 719.5,-10"/>
<text text-anchor="start" x="743.23" y="-15.4" font-family="sans-serif" font-size="14.00"> &#160;Module</text>
<polygon fill="#80b1d3" stroke="transparent" points="805.5,-10 805.5,-30 825.5,-30 825.5,-10 805.5,-10"/>
<text text-anchor="start" x="829.28" y="-15.4" font-family="sans-serif" font-size="14.00"> &#160;Bootstrap</text>
<polygon fill="#fdb462" stroke="transparent" points="902.5,-10 902.5,-30 922.5,-30 922.5,-10 902.5,-10"/>
<text text-anchor="start" x="926.17" y="-15.4" font-family="sans-serif" font-size="14.00"> &#160;Providers</text>
<polygon fill="#fb8072" stroke="transparent" points="998.5,-10 998.5,-30 1018.5,-30 1018.5,-10 998.5,-10"/>
<text text-anchor="start" x="1022.23" y="-15.4" font-family="sans-serif" font-size="14.00"> &#160;Exports</text>
<g id="clust1" class="cluster">
<title>cluster_MyPageSetModule</title>
<polygon fill="none" stroke="black" stroke-dasharray="1,5" points="8,-70 8,-195 1673,-195 1673,-70 8,-70"/>
</g>
<g id="clust2" class="cluster">
<title>cluster_MyPageSetModule_declarations</title>
<polygon fill="none" stroke="black" points="390,-78 390,-130 1665,-130 1665,-78 390,-78"/>
</g>
<g id="clust13" class="cluster">
<title>cluster_MyPageSetModule_providers</title>
<polygon fill="none" stroke="black" points="16,-78 16,-130 382,-130 382,-78 16,-78"/>
</g>
<!-- DeletePageComponent -->
<g id="node1" class="node">
<title>DeletePageComponent</title>
<polygon fill="#ffffb3" stroke="black" points="1656.58,-122 1511.42,-122 1511.42,-86 1656.58,-86 1656.58,-122"/>
<text text-anchor="middle" x="1584" y="-99.8" font-family="Times,serif" font-size="14.00">DeletePageComponent</text>
</g>
<!-- MyPageSetModule -->
<g id="node8" class="node">
<title>MyPageSetModule</title>
<polygon fill="#8dd3c7" stroke="black" points="923.09,-187 920.09,-191 899.09,-191 896.09,-187 798.91,-187 798.91,-151 923.09,-151 923.09,-187"/>
<text text-anchor="middle" x="861" y="-164.8" font-family="Times,serif" font-size="14.00">MyPageSetModule</text>
</g>
<!-- DeletePageComponent&#45;&gt;MyPageSetModule -->
<g id="edge1" class="edge">
<title>DeletePageComponent&#45;&gt;MyPageSetModule</title>
<path fill="none" stroke="black" d="M1584,-122.01C1584,-144.49 1584,-180 1584,-180 1584,-180 933.27,-180 933.27,-180"/>
<polygon fill="black" stroke="black" points="933.27,-176.5 923.27,-180 933.27,-183.5 933.27,-176.5"/>
</g>
<!-- DialogCreateNewPageComponent -->
<g id="node2" class="node">
<title>DialogCreateNewPageComponent</title>
<polygon fill="#ffffb3" stroke="black" points="1493.61,-122 1284.39,-122 1284.39,-86 1493.61,-86 1493.61,-122"/>
<text text-anchor="middle" x="1389" y="-99.8" font-family="Times,serif" font-size="14.00">DialogCreateNewPageComponent</text>
</g>
<!-- DialogCreateNewPageComponent&#45;&gt;MyPageSetModule -->
<g id="edge2" class="edge">
<title>DialogCreateNewPageComponent&#45;&gt;MyPageSetModule</title>
<path fill="none" stroke="black" d="M1389,-122.13C1389,-142.57 1389,-173 1389,-173 1389,-173 933.12,-173 933.12,-173"/>
<polygon fill="black" stroke="black" points="933.12,-169.5 923.12,-173 933.12,-176.5 933.12,-169.5"/>
</g>
<!-- DuplicatePageComponent -->
<g id="node3" class="node">
<title>DuplicatePageComponent</title>
<polygon fill="#ffffb3" stroke="black" points="1266.47,-122 1103.53,-122 1103.53,-86 1266.47,-86 1266.47,-122"/>
<text text-anchor="middle" x="1185" y="-99.8" font-family="Times,serif" font-size="14.00">DuplicatePageComponent</text>
</g>
<!-- DuplicatePageComponent&#45;&gt;MyPageSetModule -->
<g id="edge3" class="edge">
<title>DuplicatePageComponent&#45;&gt;MyPageSetModule</title>
<path fill="none" stroke="black" d="M1185,-122.27C1185,-140.56 1185,-166 1185,-166 1185,-166 933.09,-166 933.09,-166"/>
<polygon fill="black" stroke="black" points="933.09,-162.5 923.09,-166 933.09,-169.5 933.09,-162.5"/>
</g>
<!-- EditPageComponent -->
<g id="node4" class="node">
<title>EditPageComponent</title>
<polygon fill="#ffffb3" stroke="black" points="1085.88,-122 954.12,-122 954.12,-86 1085.88,-86 1085.88,-122"/>
<text text-anchor="middle" x="1020" y="-99.8" font-family="Times,serif" font-size="14.00">EditPageComponent</text>
</g>
<!-- EditPageComponent&#45;&gt;MyPageSetModule -->
<g id="edge4" class="edge">
<title>EditPageComponent&#45;&gt;MyPageSetModule</title>
<path fill="none" stroke="black" d="M1020,-122.01C1020,-138.05 1020,-159 1020,-159 1020,-159 933.38,-159 933.38,-159"/>
<polygon fill="black" stroke="black" points="933.38,-155.5 923.38,-159 933.38,-162.5 933.38,-155.5"/>
</g>
<!-- EditPageSetComponent -->
<g id="node5" class="node">
<title>EditPageSetComponent</title>
<polygon fill="#ffffb3" stroke="black" points="935.77,-122 786.23,-122 786.23,-86 935.77,-86 935.77,-122"/>
<text text-anchor="middle" x="861" y="-99.8" font-family="Times,serif" font-size="14.00">EditPageSetComponent</text>
</g>
<!-- EditPageSetComponent&#45;&gt;MyPageSetModule -->
<g id="edge5" class="edge">
<title>EditPageSetComponent&#45;&gt;MyPageSetModule</title>
<path fill="none" stroke="black" d="M861,-122.11C861,-122.11 861,-140.99 861,-140.99"/>
<polygon fill="black" stroke="black" points="857.5,-140.99 861,-150.99 864.5,-140.99 857.5,-140.99"/>
</g>
<!-- PageSetLandingPageComponent -->
<g id="node6" class="node">
<title>PageSetLandingPageComponent</title>
<polygon fill="#ffffb3" stroke="black" points="768.3,-122 567.7,-122 567.7,-86 768.3,-86 768.3,-122"/>
<text text-anchor="middle" x="668" y="-99.8" font-family="Times,serif" font-size="14.00">PageSetLandingPageComponent</text>
</g>
<!-- PageSetLandingPageComponent&#45;&gt;MyPageSetModule -->
<g id="edge6" class="edge">
<title>PageSetLandingPageComponent&#45;&gt;MyPageSetModule</title>
<path fill="none" stroke="black" d="M668,-122.01C668,-138.05 668,-159 668,-159 668,-159 788.87,-159 788.87,-159"/>
<polygon fill="black" stroke="black" points="788.87,-162.5 798.87,-159 788.87,-155.5 788.87,-162.5"/>
</g>
<!-- SubPageListComponent -->
<g id="node7" class="node">
<title>SubPageListComponent</title>
<polygon fill="#ffffb3" stroke="black" points="550.11,-122 397.89,-122 397.89,-86 550.11,-86 550.11,-122"/>
<text text-anchor="middle" x="474" y="-99.8" font-family="Times,serif" font-size="14.00">SubPageListComponent</text>
</g>
<!-- SubPageListComponent&#45;&gt;MyPageSetModule -->
<g id="edge7" class="edge">
<title>SubPageListComponent&#45;&gt;MyPageSetModule</title>
<path fill="none" stroke="black" d="M474,-122.27C474,-140.56 474,-166 474,-166 474,-166 788.82,-166 788.82,-166"/>
<polygon fill="black" stroke="black" points="788.82,-169.5 798.82,-166 788.82,-162.5 788.82,-169.5"/>
</g>
<!-- GenerateHashService -->
<g id="node9" class="node">
<title>GenerateHashService</title>
<ellipse fill="#fdb462" stroke="black" cx="279" cy="-104" rx="94.86" ry="18"/>
<text text-anchor="middle" x="279" y="-99.8" font-family="Times,serif" font-size="14.00">GenerateHashService</text>
</g>
<!-- GenerateHashService&#45;&gt;MyPageSetModule -->
<g id="edge8" class="edge">
<title>GenerateHashService&#45;&gt;MyPageSetModule</title>
<path fill="none" stroke="black" d="M279,-122.13C279,-142.57 279,-173 279,-173 279,-173 788.72,-173 788.72,-173"/>
<polygon fill="black" stroke="black" points="788.72,-176.5 798.72,-173 788.72,-169.5 788.72,-176.5"/>
</g>
<!-- PageSetService -->
<g id="node10" class="node">
<title>PageSetService</title>
<ellipse fill="#fdb462" stroke="black" cx="95" cy="-104" rx="71.2" ry="18"/>
<text text-anchor="middle" x="95" y="-99.8" font-family="Times,serif" font-size="14.00">PageSetService</text>
</g>
<!-- PageSetService&#45;&gt;MyPageSetModule -->
<g id="edge9" class="edge">
<title>PageSetService&#45;&gt;MyPageSetModule</title>
<path fill="none" stroke="black" d="M95,-122.01C95,-144.49 95,-180 95,-180 95,-180 788.64,-180 788.64,-180"/>
<polygon fill="black" stroke="black" points="788.64,-183.5 798.64,-180 788.64,-176.5 788.64,-183.5"/>
</g>
</g>
</svg>
