<?xml version="1.0" encoding="UTF-8" standalone="no"?>
<!DOCTYPE svg PUBLIC "-//W3C//DTD SVG 1.1//EN"
 "http://www.w3.org/Graphics/SVG/1.1/DTD/svg11.dtd">
<!-- Generated by graphviz version 2.40.1 (20161225.0304)
 -->
<!-- Title: dependencies Pages: 1 -->
<svg width="1519pt" height="211pt"
 viewBox="0.00 0.00 1519.00 211.00" xmlns="http://www.w3.org/2000/svg" xmlns:xlink="http://www.w3.org/1999/xlink">
<g id="graph0" class="graph" transform="scale(1 1) rotate(0) translate(4 207)">
<title>dependencies</title>
<polygon fill="#ffffff" stroke="transparent" points="-4,4 -4,-207 1515,-207 1515,4 -4,4"/>
<text text-anchor="start" x="734.5091" y="-42.4" font-family="sans-serif" font-weight="bold" font-size="14.00" fill="#000000">Legend</text>
<polygon fill="#ffffb3" stroke="transparent" points="521.5,-10 521.5,-30 541.5,-30 541.5,-10 521.5,-10"/>
<text text-anchor="start" x="545.129" y="-15.4" font-family="sans-serif" font-size="14.00" fill="#000000"> &#160;Declarations</text>
<polygon fill="#8dd3c7" stroke="transparent" points="634.5,-10 634.5,-30 654.5,-30 654.5,-10 634.5,-10"/>
<text text-anchor="start" x="658.2251" y="-15.4" font-family="sans-serif" font-size="14.00" fill="#000000"> &#160;Module</text>
<polygon fill="#80b1d3" stroke="transparent" points="720.5,-10 720.5,-30 740.5,-30 740.5,-10 720.5,-10"/>
<text text-anchor="start" x="744.2812" y="-15.4" font-family="sans-serif" font-size="14.00" fill="#000000"> &#160;Bootstrap</text>
<polygon fill="#fdb462" stroke="transparent" points="817.5,-10 817.5,-30 837.5,-30 837.5,-10 817.5,-10"/>
<text text-anchor="start" x="841.1732" y="-15.4" font-family="sans-serif" font-size="14.00" fill="#000000"> &#160;Providers</text>
<polygon fill="#fb8072" stroke="transparent" points="913.5,-10 913.5,-30 933.5,-30 933.5,-10 913.5,-10"/>
<text text-anchor="start" x="937.2258" y="-15.4" font-family="sans-serif" font-size="14.00" fill="#000000"> &#160;Exports</text>
<g id="clust1" class="cluster">
<title>cluster_MyPageSetModule</title>
<polygon fill="none" stroke="#000000" stroke-dasharray="1,5" points="8,-70 8,-195 1503,-195 1503,-70 8,-70"/>
</g>
<g id="clust2" class="cluster">
<title>cluster_MyPageSetModule_declarations</title>
<polygon fill="none" stroke="#000000" points="390,-78 390,-130 1495,-130 1495,-78 390,-78"/>
</g>
<g id="clust12" class="cluster">
<title>cluster_MyPageSetModule_providers</title>
<polygon fill="none" stroke="#000000" points="16,-78 16,-130 382,-130 382,-78 16,-78"/>
</g>
<!-- DeletePageComponent -->
<g id="node1" class="node">
<title>DeletePageComponent</title>
<polygon fill="#ffffb3" stroke="#000000" points="1486.5758,-122 1341.4242,-122 1341.4242,-86 1486.5758,-86 1486.5758,-122"/>
<text text-anchor="middle" x="1414" y="-99.8" font-family="Times,serif" font-size="14.00" fill="#000000">DeletePageComponent</text>
</g>
<!-- MyPageSetModule -->
<g id="node7" class="node">
<title>MyPageSetModule</title>
<polygon fill="#8dd3c7" stroke="#000000" points="832.094,-187 829.094,-191 808.094,-191 805.094,-187 707.906,-187 707.906,-151 832.094,-151 832.094,-187"/>
<text text-anchor="middle" x="770" y="-164.8" font-family="Times,serif" font-size="14.00" fill="#000000">MyPageSetModule</text>
</g>
<!-- DeletePageComponent&#45;&gt;MyPageSetModule -->
<g id="edge1" class="edge">
<title>DeletePageComponent&#45;&gt;MyPageSetModule</title>
<path fill="none" stroke="#000000" d="M1414,-122.2921C1414,-144.2057 1414,-178 1414,-178 1414,-178 842.3346,-178 842.3346,-178"/>
<polygon fill="#000000" stroke="#000000" points="842.3346,-174.5001 832.3346,-178 842.3345,-181.5001 842.3346,-174.5001"/>
</g>
<!-- DialogCreateNewPageComponent -->
<g id="node2" class="node">
<title>DialogCreateNewPageComponent</title>
<polygon fill="#ffffb3" stroke="#000000" points="1323.6064,-122 1114.3936,-122 1114.3936,-86 1323.6064,-86 1323.6064,-122"/>
<text text-anchor="middle" x="1219" y="-99.8" font-family="Times,serif" font-size="14.00" fill="#000000">DialogCreateNewPageComponent</text>
</g>
<!-- DialogCreateNewPageComponent&#45;&gt;MyPageSetModule -->
<g id="edge2" class="edge">
<title>DialogCreateNewPageComponent&#45;&gt;MyPageSetModule</title>
<path fill="none" stroke="#000000" d="M1219,-122.1061C1219,-141.3391 1219,-169 1219,-169 1219,-169 842.4315,-169 842.4315,-169"/>
<polygon fill="#000000" stroke="#000000" points="842.4316,-165.5001 832.4315,-169 842.4315,-172.5001 842.4316,-165.5001"/>
</g>
<!-- DuplicatePageComponent -->
<g id="node3" class="node">
<title>DuplicatePageComponent</title>
<polygon fill="#ffffb3" stroke="#000000" points="1096.4664,-122 933.5336,-122 933.5336,-86 1096.4664,-86 1096.4664,-122"/>
<text text-anchor="middle" x="1015" y="-99.8" font-family="Times,serif" font-size="14.00" fill="#000000">DuplicatePageComponent</text>
</g>
<!-- DuplicatePageComponent&#45;&gt;MyPageSetModule -->
<g id="edge3" class="edge">
<title>DuplicatePageComponent&#45;&gt;MyPageSetModule</title>
<path fill="none" stroke="#000000" d="M1015,-122.027C1015,-138.3976 1015,-160 1015,-160 1015,-160 842.1406,-160 842.1406,-160"/>
<polygon fill="#000000" stroke="#000000" points="842.1406,-156.5001 832.1406,-160 842.1405,-163.5001 842.1406,-156.5001"/>
</g>
<!-- EditPageComponent -->
<g id="node4" class="node">
<title>EditPageComponent</title>
<polygon fill="#ffffb3" stroke="#000000" points="915.8781,-122 784.1219,-122 784.1219,-86 915.8781,-86 915.8781,-122"/>
<text text-anchor="middle" x="850" y="-99.8" font-family="Times,serif" font-size="14.00" fill="#000000">EditPageComponent</text>
</g>
<!-- EditPageComponent&#45;&gt;MyPageSetModule -->
<g id="edge4" class="edge">
<title>EditPageComponent&#45;&gt;MyPageSetModule</title>
<path fill="none" stroke="#000000" d="M808.054,-122.1061C808.054,-122.1061 808.054,-140.991 808.054,-140.991"/>
<polygon fill="#000000" stroke="#000000" points="804.5541,-140.9909 808.054,-150.991 811.5541,-140.991 804.5541,-140.9909"/>
</g>
<!-- EditPageSetComponent -->
<g id="node5" class="node">
<title>EditPageSetComponent</title>
<polygon fill="#ffffb3" stroke="#000000" points="765.766,-122 616.234,-122 616.234,-86 765.766,-86 765.766,-122"/>
<text text-anchor="middle" x="691" y="-99.8" font-family="Times,serif" font-size="14.00" fill="#000000">EditPageSetComponent</text>
</g>
<!-- EditPageSetComponent&#45;&gt;MyPageSetModule -->
<g id="edge5" class="edge">
<title>EditPageSetComponent&#45;&gt;MyPageSetModule</title>
<path fill="none" stroke="#000000" d="M736.918,-122.1061C736.918,-122.1061 736.918,-140.991 736.918,-140.991"/>
<polygon fill="#000000" stroke="#000000" points="733.418,-140.9909 736.918,-150.991 740.418,-140.991 733.418,-140.9909"/>
</g>
<!-- PageSetLandingPageComponent -->
<g id="node6" class="node">
<title>PageSetLandingPageComponent</title>
<polygon fill="#ffffb3" stroke="#000000" points="598.3018,-122 397.6982,-122 397.6982,-86 598.3018,-86 598.3018,-122"/>
<text text-anchor="middle" x="498" y="-99.8" font-family="Times,serif" font-size="14.00" fill="#000000">PageSetLandingPageComponent</text>
</g>
<!-- PageSetLandingPageComponent&#45;&gt;MyPageSetModule -->
<g id="edge6" class="edge">
<title>PageSetLandingPageComponent&#45;&gt;MyPageSetModule</title>
<path fill="none" stroke="#000000" d="M498,-122.027C498,-138.3976 498,-160 498,-160 498,-160 697.9386,-160 697.9386,-160"/>
<polygon fill="#000000" stroke="#000000" points="697.9387,-163.5001 707.9386,-160 697.9386,-156.5001 697.9387,-163.5001"/>
</g>
<!-- GenerateHashService -->
<g id="node8" class="node">
<title>GenerateHashService</title>
<ellipse fill="#fdb462" stroke="#000000" cx="279" cy="-104" rx="94.8587" ry="18"/>
<text text-anchor="middle" x="279" y="-99.8" font-family="Times,serif" font-size="14.00" fill="#000000">GenerateHashService</text>
</g>
<!-- GenerateHashService&#45;&gt;MyPageSetModule -->
<g id="edge7" class="edge">
<title>GenerateHashService&#45;&gt;MyPageSetModule</title>
<path fill="none" stroke="#000000" d="M279,-122.1061C279,-141.3391 279,-169 279,-169 279,-169 697.8145,-169 697.8145,-169"/>
<polygon fill="#000000" stroke="#000000" points="697.8145,-172.5001 707.8145,-169 697.8145,-165.5001 697.8145,-172.5001"/>
</g>
<!-- PageSetService -->
<g id="node9" class="node">
<title>PageSetService</title>
<ellipse fill="#fdb462" stroke="#000000" cx="95" cy="-104" rx="71.2017" ry="18"/>
<text text-anchor="middle" x="95" y="-99.8" font-family="Times,serif" font-size="14.00" fill="#000000">PageSetService</text>
</g>
<!-- PageSetService&#45;&gt;MyPageSetModule -->
<g id="edge8" class="edge">
<title>PageSetService&#45;&gt;MyPageSetModule</title>
<path fill="none" stroke="#000000" d="M95,-122.2921C95,-144.2057 95,-178 95,-178 95,-178 697.7075,-178 697.7075,-178"/>
<polygon fill="#000000" stroke="#000000" points="697.7076,-181.5001 707.7075,-178 697.7075,-174.5001 697.7076,-181.5001"/>
</g>
</g>
</svg>
