<?xml version="1.0" encoding="UTF-8" standalone="no"?>
<!DOCTYPE svg PUBLIC "-//W3C//DTD SVG 1.1//EN"
 "http://www.w3.org/Graphics/SVG/1.1/DTD/svg11.dtd">
<!-- Generated by graphviz version 2.40.1 (20161225.0304)
 -->
<!-- Title: dependencies Pages: 1 -->
<svg width="568pt" height="284pt"
 viewBox="0.00 0.00 568.00 284.00" xmlns="http://www.w3.org/2000/svg" xmlns:xlink="http://www.w3.org/1999/xlink">
<g id="graph0" class="graph" transform="scale(1 1) rotate(0) translate(4 280)">
<title>dependencies</title>
<polygon fill="#ffffff" stroke="transparent" points="-4,4 -4,-280 564,-280 564,4 -4,4"/>
<text text-anchor="start" x="259.0091" y="-42.4" font-family="sans-serif" font-weight="bold" font-size="14.00" fill="#000000">Legend</text>
<polygon fill="#ffffb3" stroke="transparent" points="46,-10 46,-30 66,-30 66,-10 46,-10"/>
<text text-anchor="start" x="69.629" y="-15.4" font-family="sans-serif" font-size="14.00" fill="#000000"> &#160;Declarations</text>
<polygon fill="#8dd3c7" stroke="transparent" points="159,-10 159,-30 179,-30 179,-10 159,-10"/>
<text text-anchor="start" x="182.7251" y="-15.4" font-family="sans-serif" font-size="14.00" fill="#000000"> &#160;Module</text>
<polygon fill="#80b1d3" stroke="transparent" points="245,-10 245,-30 265,-30 265,-10 245,-10"/>
<text text-anchor="start" x="268.7812" y="-15.4" font-family="sans-serif" font-size="14.00" fill="#000000"> &#160;Bootstrap</text>
<polygon fill="#fdb462" stroke="transparent" points="342,-10 342,-30 362,-30 362,-10 342,-10"/>
<text text-anchor="start" x="365.6732" y="-15.4" font-family="sans-serif" font-size="14.00" fill="#000000"> &#160;Providers</text>
<polygon fill="#fb8072" stroke="transparent" points="438,-10 438,-30 458,-30 458,-10 438,-10"/>
<text text-anchor="start" x="461.7258" y="-15.4" font-family="sans-serif" font-size="14.00" fill="#000000"> &#160;Exports</text>
<g id="clust1" class="cluster">
<title>cluster_ImageViewModule</title>
<polygon fill="none" stroke="#000000" stroke-dasharray="1,5" points="8,-70 8,-268 552,-268 552,-70 8,-70"/>
</g>
<g id="clust2" class="cluster">
<title>cluster_ImageViewModule_declarations</title>
<polygon fill="none" stroke="#000000" points="382,-78 382,-130 544,-130 544,-78 382,-78"/>
</g>
<g id="clust4" class="cluster">
<title>cluster_ImageViewModule_imports</title>
<polygon fill="none" stroke="#000000" points="228,-78 228,-130 374,-130 374,-78 228,-78"/>
</g>
<g id="clust5" class="cluster">
<title>cluster_ImageViewModule_exports</title>
<polygon fill="none" stroke="#000000" points="218,-208 218,-260 384,-260 384,-208 218,-208"/>
</g>
<g id="clust7" class="cluster">
<title>cluster_ImageViewModule_providers</title>
<polygon fill="none" stroke="#000000" points="16,-78 16,-130 220,-130 220,-78 16,-78"/>
</g>
<!-- ImageViewComponent -->
<g id="node1" class="node">
<title>ImageViewComponent</title>
<polygon fill="#ffffb3" stroke="#000000" points="536.1317,-122 389.8683,-122 389.8683,-86 536.1317,-86 536.1317,-122"/>
<text text-anchor="middle" x="463" y="-99.8" font-family="Times,serif" font-size="14.00" fill="#000000">ImageViewComponent</text>
</g>
<!-- ImageViewModule -->
<g id="node2" class="node">
<title>ImageViewModule</title>
<polygon fill="#8dd3c7" stroke="#000000" points="363.3487,-187 360.3487,-191 339.3487,-191 336.3487,-187 238.6513,-187 238.6513,-151 363.3487,-151 363.3487,-187"/>
<text text-anchor="middle" x="301" y="-164.8" font-family="Times,serif" font-size="14.00" fill="#000000">ImageViewModule</text>
</g>
<!-- ImageViewComponent&#45;&gt;ImageViewModule -->
<g id="edge1" class="edge">
<title>ImageViewComponent&#45;&gt;ImageViewModule</title>
<path fill="none" stroke="#000000" d="M463,-122.1061C463,-141.3391 463,-169 463,-169 463,-169 373.6334,-169 373.6334,-169"/>
<polygon fill="#000000" stroke="#000000" points="373.6335,-165.5001 363.6334,-169 373.6334,-172.5001 373.6335,-165.5001"/>
</g>
<!-- ImageViewComponent  -->
<g id="node4" class="node">
<title>ImageViewComponent </title>
<polygon fill="#fb8072" stroke="#000000" points="376.1313,-252 225.8687,-252 225.8687,-216 376.1313,-216 376.1313,-252"/>
<text text-anchor="middle" x="301" y="-229.8" font-family="Times,serif" font-size="14.00" fill="#000000">ImageViewComponent </text>
</g>
<!-- ImageViewModule&#45;&gt;ImageViewComponent  -->
<g id="edge3" class="edge">
<title>ImageViewModule&#45;&gt;ImageViewComponent </title>
<path fill="none" stroke="#000000" stroke-dasharray="5,2" d="M301,-187.1061C301,-187.1061 301,-205.991 301,-205.991"/>
<polygon fill="#000000" stroke="#000000" points="297.5001,-205.9909 301,-215.991 304.5001,-205.991 297.5001,-205.9909"/>
</g>
<!-- ImageFrameModule -->
<g id="node3" class="node">
<title>ImageFrameModule</title>
<polygon fill="#8dd3c7" stroke="#000000" points="366.2935,-122 363.2935,-126 342.2935,-126 339.2935,-122 235.7065,-122 235.7065,-86 366.2935,-86 366.2935,-122"/>
<text text-anchor="middle" x="301" y="-99.8" font-family="Times,serif" font-size="14.00" fill="#000000">ImageFrameModule</text>
</g>
<!-- ImageFrameModule&#45;&gt;ImageViewModule -->
<g id="edge2" class="edge">
<title>ImageFrameModule&#45;&gt;ImageViewModule</title>
<path fill="none" stroke="#000000" d="M301,-122.1061C301,-122.1061 301,-140.991 301,-140.991"/>
<polygon fill="#000000" stroke="#000000" points="297.5001,-140.9909 301,-150.991 304.5001,-140.991 297.5001,-140.9909"/>
</g>
<!-- RegionToSvgService -->
<g id="node5" class="node">
<title>RegionToSvgService</title>
<ellipse fill="#fdb462" stroke="#000000" cx="118" cy="-104" rx="93.7823" ry="18"/>
<text text-anchor="middle" x="118" y="-99.8" font-family="Times,serif" font-size="14.00" fill="#000000">RegionToSvgService</text>
</g>
<!-- RegionToSvgService&#45;&gt;ImageViewModule -->
<g id="edge4" class="edge">
<title>RegionToSvgService&#45;&gt;ImageViewModule</title>
<path fill="none" stroke="#000000" d="M118,-122.1061C118,-141.3391 118,-169 118,-169 118,-169 228.5336,-169 228.5336,-169"/>
<polygon fill="#000000" stroke="#000000" points="228.5336,-172.5001 238.5336,-169 228.5336,-165.5001 228.5336,-172.5001"/>
</g>
</g>
</svg>
