<?xml version="1.0" encoding="UTF-8" standalone="no"?>
<!DOCTYPE svg PUBLIC "-//W3C//DTD SVG 1.1//EN"
 "http://www.w3.org/Graphics/SVG/1.1/DTD/svg11.dtd">
<!-- Generated by graphviz version 2.40.1 (20161225.0304)
 -->
<!-- Title: dependencies Pages: 1 -->
<svg width="548pt" height="284pt"
 viewBox="0.00 0.00 548.00 284.00" xmlns="http://www.w3.org/2000/svg" xmlns:xlink="http://www.w3.org/1999/xlink">
<g id="graph0" class="graph" transform="scale(1 1) rotate(0) translate(4 280)">
<title>dependencies</title>
<polygon fill="#ffffff" stroke="transparent" points="-4,4 -4,-280 544,-280 544,4 -4,4"/>
<text text-anchor="start" x="249.0091" y="-42.4" font-family="sans-serif" font-weight="bold" font-size="14.00" fill="#000000">Legend</text>
<polygon fill="#ffffb3" stroke="transparent" points="36,-10 36,-30 56,-30 56,-10 36,-10"/>
<text text-anchor="start" x="59.629" y="-15.4" font-family="sans-serif" font-size="14.00" fill="#000000"> &#160;Declarations</text>
<polygon fill="#8dd3c7" stroke="transparent" points="149,-10 149,-30 169,-30 169,-10 149,-10"/>
<text text-anchor="start" x="172.7251" y="-15.4" font-family="sans-serif" font-size="14.00" fill="#000000"> &#160;Module</text>
<polygon fill="#80b1d3" stroke="transparent" points="235,-10 235,-30 255,-30 255,-10 235,-10"/>
<text text-anchor="start" x="258.7812" y="-15.4" font-family="sans-serif" font-size="14.00" fill="#000000"> &#160;Bootstrap</text>
<polygon fill="#fdb462" stroke="transparent" points="332,-10 332,-30 352,-30 352,-10 332,-10"/>
<text text-anchor="start" x="355.6732" y="-15.4" font-family="sans-serif" font-size="14.00" fill="#000000"> &#160;Providers</text>
<polygon fill="#fb8072" stroke="transparent" points="428,-10 428,-30 448,-30 448,-10 428,-10"/>
<text text-anchor="start" x="451.7258" y="-15.4" font-family="sans-serif" font-size="14.00" fill="#000000"> &#160;Exports</text>
<g id="clust1" class="cluster">
<title>cluster_ImageViewModule</title>
<polygon fill="none" stroke="#000000" stroke-dasharray="1,5" points="8,-70 8,-268 532,-268 532,-70 8,-70"/>
</g>
<g id="clust2" class="cluster">
<title>cluster_ImageViewModule_declarations</title>
<polygon fill="none" stroke="#000000" points="170,-78 170,-130 524,-130 524,-78 170,-78"/>
</g>
<g id="clust5" class="cluster">
<title>cluster_ImageViewModule_imports</title>
<polygon fill="none" stroke="#000000" points="16,-78 16,-130 162,-130 162,-78 16,-78"/>
</g>
<g id="clust6" class="cluster">
<title>cluster_ImageViewModule_exports</title>
<polygon fill="none" stroke="#000000" points="90,-208 90,-260 450,-260 450,-208 90,-208"/>
</g>
<!-- ImageFrameOldComponent -->
<g id="node1" class="node">
<title>ImageFrameOldComponent</title>
<polygon fill="#ffffb3" stroke="#000000" points="515.573,-122 342.427,-122 342.427,-86 515.573,-86 515.573,-122"/>
<text text-anchor="middle" x="429" y="-99.8" font-family="Times,serif" font-size="14.00" fill="#000000">ImageFrameOldComponent</text>
</g>
<!-- ImageViewModule -->
<g id="node3" class="node">
<title>ImageViewModule</title>
<polygon fill="#8dd3c7" stroke="#000000" points="313.3487,-187 310.3487,-191 289.3487,-191 286.3487,-187 188.6513,-187 188.6513,-151 313.3487,-151 313.3487,-187"/>
<text text-anchor="middle" x="251" y="-164.8" font-family="Times,serif" font-size="14.00" fill="#000000">ImageViewModule</text>
</g>
<!-- ImageFrameOldComponent&#45;&gt;ImageViewModule -->
<g id="edge1" class="edge">
<title>ImageFrameOldComponent&#45;&gt;ImageViewModule</title>
<path fill="none" stroke="#000000" d="M392.375,-122.1061C392.375,-141.3391 392.375,-169 392.375,-169 392.375,-169 323.4207,-169 323.4207,-169"/>
<polygon fill="#000000" stroke="#000000" points="323.4207,-165.5001 313.4207,-169 323.4206,-172.5001 323.4207,-165.5001"/>
</g>
<!-- ImageViewComponent -->
<g id="node2" class="node">
<title>ImageViewComponent</title>
<polygon fill="#ffffb3" stroke="#000000" points="324.1317,-122 177.8683,-122 177.8683,-86 324.1317,-86 324.1317,-122"/>
<text text-anchor="middle" x="251" y="-99.8" font-family="Times,serif" font-size="14.00" fill="#000000">ImageViewComponent</text>
</g>
<!-- ImageViewComponent&#45;&gt;ImageViewModule -->
<g id="edge2" class="edge">
<title>ImageViewComponent&#45;&gt;ImageViewModule</title>
<path fill="none" stroke="#000000" d="M251,-122.1061C251,-122.1061 251,-140.991 251,-140.991"/>
<polygon fill="#000000" stroke="#000000" points="247.5001,-140.9909 251,-150.991 254.5001,-140.991 247.5001,-140.9909"/>
</g>
<!-- ImageFrameOldComponent  -->
<g id="node5" class="node">
<title>ImageFrameOldComponent </title>
<polygon fill="#fb8072" stroke="#000000" points="442.0735,-252 265.9265,-252 265.9265,-216 442.0735,-216 442.0735,-252"/>
<text text-anchor="middle" x="354" y="-229.8" font-family="Times,serif" font-size="14.00" fill="#000000">ImageFrameOldComponent </text>
</g>
<!-- ImageViewModule&#45;&gt;ImageFrameOldComponent  -->
<g id="edge4" class="edge">
<title>ImageViewModule&#45;&gt;ImageFrameOldComponent </title>
<path fill="none" stroke="#000000" stroke-dasharray="5,2" d="M289.5689,-187.1061C289.5689,-187.1061 289.5689,-205.991 289.5689,-205.991"/>
<polygon fill="#000000" stroke="#000000" points="286.069,-205.9909 289.5689,-215.991 293.069,-205.991 286.069,-205.9909"/>
</g>
<!-- ImageViewComponent  -->
<g id="node6" class="node">
<title>ImageViewComponent </title>
<polygon fill="#fb8072" stroke="#000000" points="248.1313,-252 97.8687,-252 97.8687,-216 248.1313,-216 248.1313,-252"/>
<text text-anchor="middle" x="173" y="-229.8" font-family="Times,serif" font-size="14.00" fill="#000000">ImageViewComponent </text>
</g>
<!-- ImageViewModule&#45;&gt;ImageViewComponent  -->
<g id="edge5" class="edge">
<title>ImageViewModule&#45;&gt;ImageViewComponent </title>
<path fill="none" stroke="#000000" stroke-dasharray="5,2" d="M218.3207,-187.1061C218.3207,-187.1061 218.3207,-205.991 218.3207,-205.991"/>
<polygon fill="#000000" stroke="#000000" points="214.8207,-205.9909 218.3207,-215.991 221.8207,-205.991 214.8207,-205.9909"/>
</g>
<!-- ImageFrameModule -->
<g id="node4" class="node">
<title>ImageFrameModule</title>
<polygon fill="#8dd3c7" stroke="#000000" points="154.2935,-122 151.2935,-126 130.2935,-126 127.2935,-122 23.7065,-122 23.7065,-86 154.2935,-86 154.2935,-122"/>
<text text-anchor="middle" x="89" y="-99.8" font-family="Times,serif" font-size="14.00" fill="#000000">ImageFrameModule</text>
</g>
<!-- ImageFrameModule&#45;&gt;ImageViewModule -->
<g id="edge3" class="edge">
<title>ImageFrameModule&#45;&gt;ImageViewModule</title>
<path fill="none" stroke="#000000" d="M126.0405,-122.1061C126.0405,-141.3391 126.0405,-169 126.0405,-169 126.0405,-169 178.5203,-169 178.5203,-169"/>
<polygon fill="#000000" stroke="#000000" points="178.5203,-172.5001 188.5203,-169 178.5202,-165.5001 178.5203,-172.5001"/>
</g>
</g>
</svg>
