<?xml version="1.0" encoding="UTF-8" standalone="no"?>
<!DOCTYPE svg PUBLIC "-//W3C//DTD SVG 1.1//EN"
 "http://www.w3.org/Graphics/SVG/1.1/DTD/svg11.dtd">
<!-- Generated by graphviz version 2.40.1 (20161225.0304)
 -->
<!-- Title: dependencies Pages: 1 -->
<svg width="504pt" height="284pt"
 viewBox="0.00 0.00 504.00 284.00" xmlns="http://www.w3.org/2000/svg" xmlns:xlink="http://www.w3.org/1999/xlink">
<g id="graph0" class="graph" transform="scale(1 1) rotate(0) translate(4 280)">
<title>dependencies</title>
<polygon fill="#ffffff" stroke="transparent" points="-4,4 -4,-280 500,-280 500,4 -4,4"/>
<text text-anchor="start" x="227.0091" y="-42.4" font-family="sans-serif" font-weight="bold" font-size="14.00" fill="#000000">Legend</text>
<polygon fill="#ffffb3" stroke="transparent" points="14,-10 14,-30 34,-30 34,-10 14,-10"/>
<text text-anchor="start" x="37.629" y="-15.4" font-family="sans-serif" font-size="14.00" fill="#000000"> &#160;Declarations</text>
<polygon fill="#8dd3c7" stroke="transparent" points="127,-10 127,-30 147,-30 147,-10 127,-10"/>
<text text-anchor="start" x="150.7251" y="-15.4" font-family="sans-serif" font-size="14.00" fill="#000000"> &#160;Module</text>
<polygon fill="#80b1d3" stroke="transparent" points="213,-10 213,-30 233,-30 233,-10 213,-10"/>
<text text-anchor="start" x="236.7812" y="-15.4" font-family="sans-serif" font-size="14.00" fill="#000000"> &#160;Bootstrap</text>
<polygon fill="#fdb462" stroke="transparent" points="310,-10 310,-30 330,-30 330,-10 310,-10"/>
<text text-anchor="start" x="333.6732" y="-15.4" font-family="sans-serif" font-size="14.00" fill="#000000"> &#160;Providers</text>
<polygon fill="#fb8072" stroke="transparent" points="406,-10 406,-30 426,-30 426,-10 406,-10"/>
<text text-anchor="start" x="429.7258" y="-15.4" font-family="sans-serif" font-size="14.00" fill="#000000"> &#160;Exports</text>
<g id="clust1" class="cluster">
<title>cluster_ImageViewModule</title>
<polygon fill="none" stroke="#000000" stroke-dasharray="1,5" points="82,-70 82,-268 414,-268 414,-70 82,-70"/>
</g>
<g id="clust2" class="cluster">
<title>cluster_ImageViewModule_declarations</title>
<polygon fill="none" stroke="#000000" points="244,-78 244,-130 406,-130 406,-78 244,-78"/>
</g>
<g id="clust4" class="cluster">
<title>cluster_ImageViewModule_imports</title>
<polygon fill="none" stroke="#000000" points="90,-78 90,-130 236,-130 236,-78 90,-78"/>
</g>
<g id="clust5" class="cluster">
<title>cluster_ImageViewModule_exports</title>
<polygon fill="none" stroke="#000000" points="165,-208 165,-260 331,-260 331,-208 165,-208"/>
</g>
<!-- ImageViewComponent -->
<g id="node1" class="node">
<title>ImageViewComponent</title>
<polygon fill="#ffffb3" stroke="#000000" points="398.1317,-122 251.8683,-122 251.8683,-86 398.1317,-86 398.1317,-122"/>
<text text-anchor="middle" x="325" y="-99.8" font-family="Times,serif" font-size="14.00" fill="#000000">ImageViewComponent</text>
</g>
<!-- ImageViewModule -->
<g id="node2" class="node">
<title>ImageViewModule</title>
<polygon fill="#8dd3c7" stroke="#000000" points="310.3487,-187 307.3487,-191 286.3487,-191 283.3487,-187 185.6513,-187 185.6513,-151 310.3487,-151 310.3487,-187"/>
<text text-anchor="middle" x="248" y="-164.8" font-family="Times,serif" font-size="14.00" fill="#000000">ImageViewModule</text>
</g>
<!-- ImageViewComponent&#45;&gt;ImageViewModule -->
<g id="edge1" class="edge">
<title>ImageViewComponent&#45;&gt;ImageViewModule</title>
<path fill="none" stroke="#000000" d="M281.0544,-122.1061C281.0544,-122.1061 281.0544,-140.991 281.0544,-140.991"/>
<polygon fill="#000000" stroke="#000000" points="277.5544,-140.9909 281.0544,-150.991 284.5544,-140.991 277.5544,-140.9909"/>
</g>
<!-- ImageViewComponent  -->
<g id="node4" class="node">
<title>ImageViewComponent </title>
<polygon fill="#fb8072" stroke="#000000" points="323.1313,-252 172.8687,-252 172.8687,-216 323.1313,-216 323.1313,-252"/>
<text text-anchor="middle" x="248" y="-229.8" font-family="Times,serif" font-size="14.00" fill="#000000">ImageViewComponent </text>
</g>
<!-- ImageViewModule&#45;&gt;ImageViewComponent  -->
<g id="edge3" class="edge">
<title>ImageViewModule&#45;&gt;ImageViewComponent </title>
<path fill="none" stroke="#000000" stroke-dasharray="5,2" d="M248,-187.1061C248,-187.1061 248,-205.991 248,-205.991"/>
<polygon fill="#000000" stroke="#000000" points="244.5001,-205.9909 248,-215.991 251.5001,-205.991 244.5001,-205.9909"/>
</g>
<!-- ImageFrameModule -->
<g id="node3" class="node">
<title>ImageFrameModule</title>
<polygon fill="#8dd3c7" stroke="#000000" points="228.2935,-122 225.2935,-126 204.2935,-126 201.2935,-122 97.7065,-122 97.7065,-86 228.2935,-86 228.2935,-122"/>
<text text-anchor="middle" x="163" y="-99.8" font-family="Times,serif" font-size="14.00" fill="#000000">ImageFrameModule</text>
</g>
<!-- ImageFrameModule&#45;&gt;ImageViewModule -->
<g id="edge2" class="edge">
<title>ImageFrameModule&#45;&gt;ImageViewModule</title>
<path fill="none" stroke="#000000" d="M206.8612,-122.1061C206.8612,-122.1061 206.8612,-140.991 206.8612,-140.991"/>
<polygon fill="#000000" stroke="#000000" points="203.3612,-140.9909 206.8612,-150.991 210.3612,-140.991 203.3612,-140.9909"/>
</g>
</g>
</svg>
