<?xml version="1.0" encoding="UTF-8" standalone="no"?>
<!DOCTYPE svg PUBLIC "-//W3C//DTD SVG 1.1//EN"
 "http://www.w3.org/Graphics/SVG/1.1/DTD/svg11.dtd">
<!-- Generated by graphviz version 2.47.0 (20210316.0004)
 -->
<!-- Title: dependencies Pages: 1 -->
<svg width="504pt" height="284pt"
 viewBox="0.00 0.00 504.00 284.00" xmlns="http://www.w3.org/2000/svg" xmlns:xlink="http://www.w3.org/1999/xlink">
<g id="graph0" class="graph" transform="scale(1 1) rotate(0) translate(4 280)">
<title>dependencies</title>
<polygon fill="white" stroke="transparent" points="-4,4 -4,-280 500,-280 500,4 -4,4"/>
<text text-anchor="start" x="227.01" y="-42.4" font-family="sans-serif" font-weight="bold" font-size="14.00">Legend</text>
<polygon fill="#ffffb3" stroke="transparent" points="14,-10 14,-30 34,-30 34,-10 14,-10"/>
<text text-anchor="start" x="37.63" y="-15.4" font-family="sans-serif" font-size="14.00"> &#160;Declarations</text>
<polygon fill="#8dd3c7" stroke="transparent" points="127,-10 127,-30 147,-30 147,-10 127,-10"/>
<text text-anchor="start" x="150.73" y="-15.4" font-family="sans-serif" font-size="14.00"> &#160;Module</text>
<polygon fill="#80b1d3" stroke="transparent" points="213,-10 213,-30 233,-30 233,-10 213,-10"/>
<text text-anchor="start" x="236.78" y="-15.4" font-family="sans-serif" font-size="14.00"> &#160;Bootstrap</text>
<polygon fill="#fdb462" stroke="transparent" points="310,-10 310,-30 330,-30 330,-10 310,-10"/>
<text text-anchor="start" x="333.67" y="-15.4" font-family="sans-serif" font-size="14.00"> &#160;Providers</text>
<polygon fill="#fb8072" stroke="transparent" points="406,-10 406,-30 426,-30 426,-10 406,-10"/>
<text text-anchor="start" x="429.73" y="-15.4" font-family="sans-serif" font-size="14.00"> &#160;Exports</text>
<g id="clust1" class="cluster">
<title>cluster_KnoraV2ViewerModule</title>
<polygon fill="none" stroke="black" stroke-dasharray="1,5" points="21,-70 21,-268 475,-268 475,-70 21,-70"/>
</g>
<g id="clust2" class="cluster">
<title>cluster_KnoraV2ViewerModule_declarations</title>
<polygon fill="none" stroke="black" points="29,-78 29,-130 467,-130 467,-78 29,-78"/>
</g>
<g id="clust6" class="cluster">
<title>cluster_KnoraV2ViewerModule_exports</title>
<polygon fill="none" stroke="black" points="164,-208 164,-260 358,-260 358,-208 164,-208"/>
</g>
<!-- KnoraV2ViewerComponent -->
<g id="node1" class="node">
<title>KnoraV2ViewerComponent</title>
<polygon fill="#ffffb3" stroke="black" points="459.11,-122 284.89,-122 284.89,-86 459.11,-86 459.11,-122"/>
<text text-anchor="middle" x="372" y="-99.8" font-family="Times,serif" font-size="14.00">KnoraV2ViewerComponent</text>
</g>
<!-- KnoraV2ViewerModule -->
<g id="node3" class="node">
<title>KnoraV2ViewerModule</title>
<polygon fill="#8dd3c7" stroke="black" points="337.33,-187 334.33,-191 313.33,-191 310.33,-187 184.67,-187 184.67,-151 337.33,-151 337.33,-187"/>
<text text-anchor="middle" x="261" y="-164.8" font-family="Times,serif" font-size="14.00">KnoraV2ViewerModule</text>
</g>
<!-- KnoraV2ViewerComponent&#45;&gt;KnoraV2ViewerModule -->
<g id="edge1" class="edge">
<title>KnoraV2ViewerComponent&#45;&gt;KnoraV2ViewerModule</title>
<path fill="none" stroke="black" d="M311.05,-122.11C311.05,-122.11 311.05,-140.99 311.05,-140.99"/>
<polygon fill="black" stroke="black" points="307.55,-140.99 311.05,-150.99 314.55,-140.99 307.55,-140.99"/>
</g>
<!-- KnoraV2ViewerInnerhtmlComponent -->
<g id="node2" class="node">
<title>KnoraV2ViewerInnerhtmlComponent</title>
<polygon fill="#ffffb3" stroke="black" points="266.82,-122 37.18,-122 37.18,-86 266.82,-86 266.82,-122"/>
<text text-anchor="middle" x="152" y="-99.8" font-family="Times,serif" font-size="14.00">KnoraV2ViewerInnerhtmlComponent</text>
</g>
<!-- KnoraV2ViewerInnerhtmlComponent&#45;&gt;KnoraV2ViewerModule -->
<g id="edge2" class="edge">
<title>KnoraV2ViewerInnerhtmlComponent&#45;&gt;KnoraV2ViewerModule</title>
<path fill="none" stroke="black" d="M225.75,-122.11C225.75,-122.11 225.75,-140.99 225.75,-140.99"/>
<polygon fill="black" stroke="black" points="222.25,-140.99 225.75,-150.99 229.25,-140.99 222.25,-140.99"/>
</g>
<!-- KnoraV2ViewerComponent  -->
<g id="node4" class="node">
<title>KnoraV2ViewerComponent </title>
<polygon fill="#fb8072" stroke="black" points="350.11,-252 171.89,-252 171.89,-216 350.11,-216 350.11,-252"/>
<text text-anchor="middle" x="261" y="-229.8" font-family="Times,serif" font-size="14.00">KnoraV2ViewerComponent </text>
</g>
<!-- KnoraV2ViewerModule&#45;&gt;KnoraV2ViewerComponent  -->
<g id="edge3" class="edge">
<title>KnoraV2ViewerModule&#45;&gt;KnoraV2ViewerComponent </title>
<path fill="none" stroke="black" stroke-dasharray="5,2" d="M261,-187.11C261,-187.11 261,-205.99 261,-205.99"/>
<polygon fill="black" stroke="black" points="257.5,-205.99 261,-215.99 264.5,-205.99 257.5,-205.99"/>
</g>
</g>
</svg>
