<?xml version="1.0" encoding="UTF-8" standalone="no"?>
<!DOCTYPE svg PUBLIC "-//W3C//DTD SVG 1.1//EN"
 "http://www.w3.org/Graphics/SVG/1.1/DTD/svg11.dtd">
<!-- Generated by graphviz version 2.47.0 (20210316.0004)
 -->
<!-- Title: dependencies Pages: 1 -->
<svg width="504pt" height="284pt"
 viewBox="0.00 0.00 504.00 284.00" xmlns="http://www.w3.org/2000/svg" xmlns:xlink="http://www.w3.org/1999/xlink">
<g id="graph0" class="graph" transform="scale(1 1) rotate(0) translate(4 280)">
<title>dependencies</title>
<polygon fill="white" stroke="transparent" points="-4,4 -4,-280 500,-280 500,4 -4,4"/>
<text text-anchor="start" x="227.01" y="-42.4" font-family="sans-serif" font-weight="bold" font-size="14.00">Legend</text>
<polygon fill="#ffffb3" stroke="transparent" points="14,-10 14,-30 34,-30 34,-10 14,-10"/>
<text text-anchor="start" x="37.63" y="-15.4" font-family="sans-serif" font-size="14.00"> &#160;Declarations</text>
<polygon fill="#8dd3c7" stroke="transparent" points="127,-10 127,-30 147,-30 147,-10 127,-10"/>
<text text-anchor="start" x="150.73" y="-15.4" font-family="sans-serif" font-size="14.00"> &#160;Module</text>
<polygon fill="#80b1d3" stroke="transparent" points="213,-10 213,-30 233,-30 233,-10 213,-10"/>
<text text-anchor="start" x="236.78" y="-15.4" font-family="sans-serif" font-size="14.00"> &#160;Bootstrap</text>
<polygon fill="#fdb462" stroke="transparent" points="310,-10 310,-30 330,-30 330,-10 310,-10"/>
<text text-anchor="start" x="333.67" y="-15.4" font-family="sans-serif" font-size="14.00"> &#160;Providers</text>
<polygon fill="#fb8072" stroke="transparent" points="406,-10 406,-30 426,-30 426,-10 406,-10"/>
<text text-anchor="start" x="429.73" y="-15.4" font-family="sans-serif" font-size="14.00"> &#160;Exports</text>
<g id="clust1" class="cluster">
<title>cluster_TreeNavigationModule</title>
<polygon fill="none" stroke="black" stroke-dasharray="1,5" points="82,-70 82,-268 414,-268 414,-70 82,-70"/>
</g>
<g id="clust5" class="cluster">
<title>cluster_TreeNavigationModule_exports</title>
<polygon fill="none" stroke="black" points="154,-208 154,-260 342,-260 342,-208 154,-208"/>
</g>
<g id="clust2" class="cluster">
<title>cluster_TreeNavigationModule_declarations</title>
<polygon fill="none" stroke="black" points="220,-78 220,-130 406,-130 406,-78 220,-78"/>
</g>
<g id="clust4" class="cluster">
<title>cluster_TreeNavigationModule_imports</title>
<polygon fill="none" stroke="black" points="90,-78 90,-130 212,-130 212,-78 90,-78"/>
</g>
<!-- TreeNavigationComponent -->
<g id="node1" class="node">
<title>TreeNavigationComponent</title>
<polygon fill="#ffffb3" stroke="black" points="397.68,-122 228.32,-122 228.32,-86 397.68,-86 397.68,-122"/>
<text text-anchor="middle" x="313" y="-99.8" font-family="Times,serif" font-size="14.00">TreeNavigationComponent</text>
</g>
<!-- TreeNavigationModule -->
<g id="node2" class="node">
<title>TreeNavigationModule</title>
<polygon fill="#8dd3c7" stroke="black" points="321.9,-187 318.9,-191 297.9,-191 294.9,-187 174.1,-187 174.1,-151 321.9,-151 321.9,-187"/>
<text text-anchor="middle" x="248" y="-164.8" font-family="Times,serif" font-size="14.00">TreeNavigationModule</text>
</g>
<!-- TreeNavigationComponent&#45;&gt;TreeNavigationModule -->
<g id="edge1" class="edge">
<title>TreeNavigationComponent&#45;&gt;TreeNavigationModule</title>
<path fill="none" stroke="black" d="M275.05,-122.11C275.05,-122.11 275.05,-140.99 275.05,-140.99"/>
<polygon fill="black" stroke="black" points="271.55,-140.99 275.05,-150.99 278.55,-140.99 271.55,-140.99"/>
</g>
<!-- TreeNavigationComponent  -->
<g id="node4" class="node">
<title>TreeNavigationComponent </title>
<polygon fill="#fb8072" stroke="black" points="334.18,-252 161.82,-252 161.82,-216 334.18,-216 334.18,-252"/>
<text text-anchor="middle" x="248" y="-229.8" font-family="Times,serif" font-size="14.00">TreeNavigationComponent </text>
</g>
<!-- TreeNavigationModule&#45;&gt;TreeNavigationComponent  -->
<g id="edge3" class="edge">
<title>TreeNavigationModule&#45;&gt;TreeNavigationComponent </title>
<path fill="none" stroke="black" stroke-dasharray="5,2" d="M248,-187.11C248,-187.11 248,-205.99 248,-205.99"/>
<polygon fill="black" stroke="black" points="244.5,-205.99 248,-215.99 251.5,-205.99 244.5,-205.99"/>
</g>
<!-- MaterialModule -->
<g id="node3" class="node">
<title>MaterialModule</title>
<polygon fill="#8dd3c7" stroke="black" points="204.47,-122 201.47,-126 180.47,-126 177.47,-122 97.53,-122 97.53,-86 204.47,-86 204.47,-122"/>
<text text-anchor="middle" x="151" y="-99.8" font-family="Times,serif" font-size="14.00">MaterialModule</text>
</g>
<!-- MaterialModule&#45;&gt;TreeNavigationModule -->
<g id="edge2" class="edge">
<title>MaterialModule&#45;&gt;TreeNavigationModule</title>
<path fill="none" stroke="black" d="M189.39,-122.11C189.39,-122.11 189.39,-140.99 189.39,-140.99"/>
<polygon fill="black" stroke="black" points="185.89,-140.99 189.39,-150.99 192.89,-140.99 185.89,-140.99"/>
</g>
</g>
</svg>
