<?xml version="1.0" encoding="UTF-8" standalone="no"?>
<!DOCTYPE svg PUBLIC "-//W3C//DTD SVG 1.1//EN"
 "http://www.w3.org/Graphics/SVG/1.1/DTD/svg11.dtd">
<!-- Generated by graphviz version 2.47.0 (20210316.0004)
 -->
<!-- Title: dependencies Pages: 1 -->
<svg width="948pt" height="284pt"
 viewBox="0.00 0.00 948.00 284.00" xmlns="http://www.w3.org/2000/svg" xmlns:xlink="http://www.w3.org/1999/xlink">
<g id="graph0" class="graph" transform="scale(1 1) rotate(0) translate(4 280)">
<title>dependencies</title>
<polygon fill="white" stroke="transparent" points="-4,4 -4,-280 944,-280 944,4 -4,4"/>
<text text-anchor="start" x="449.01" y="-42.4" font-family="sans-serif" font-weight="bold" font-size="14.00">Legend</text>
<polygon fill="#ffffb3" stroke="transparent" points="236,-10 236,-30 256,-30 256,-10 236,-10"/>
<text text-anchor="start" x="259.63" y="-15.4" font-family="sans-serif" font-size="14.00"> &#160;Declarations</text>
<polygon fill="#8dd3c7" stroke="transparent" points="349,-10 349,-30 369,-30 369,-10 349,-10"/>
<text text-anchor="start" x="372.73" y="-15.4" font-family="sans-serif" font-size="14.00"> &#160;Module</text>
<polygon fill="#80b1d3" stroke="transparent" points="435,-10 435,-30 455,-30 455,-10 435,-10"/>
<text text-anchor="start" x="458.78" y="-15.4" font-family="sans-serif" font-size="14.00"> &#160;Bootstrap</text>
<polygon fill="#fdb462" stroke="transparent" points="532,-10 532,-30 552,-30 552,-10 532,-10"/>
<text text-anchor="start" x="555.67" y="-15.4" font-family="sans-serif" font-size="14.00"> &#160;Providers</text>
<polygon fill="#fb8072" stroke="transparent" points="628,-10 628,-30 648,-30 648,-10 628,-10"/>
<text text-anchor="start" x="651.73" y="-15.4" font-family="sans-serif" font-size="14.00"> &#160;Exports</text>
<g id="clust1" class="cluster">
<title>cluster_HierarchicalNavigationModule</title>
<polygon fill="none" stroke="black" stroke-dasharray="1,5" points="8,-70 8,-268 932,-268 932,-70 8,-70"/>
</g>
<g id="clust7" class="cluster">
<title>cluster_HierarchicalNavigationModule_exports</title>
<polygon fill="none" stroke="black" points="274,-208 274,-260 536,-260 536,-208 274,-208"/>
</g>
<g id="clust2" class="cluster">
<title>cluster_HierarchicalNavigationModule_declarations</title>
<polygon fill="none" stroke="black" points="146,-78 146,-130 924,-130 924,-78 146,-78"/>
</g>
<g id="clust6" class="cluster">
<title>cluster_HierarchicalNavigationModule_imports</title>
<polygon fill="none" stroke="black" points="16,-78 16,-130 138,-130 138,-78 16,-78"/>
</g>
<!-- HierarchicalNavigationNodeComponent -->
<g id="node1" class="node">
<title>HierarchicalNavigationNodeComponent</title>
<polygon fill="#ffffb3" stroke="black" points="915.53,-122 672.47,-122 672.47,-86 915.53,-86 915.53,-122"/>
<text text-anchor="middle" x="794" y="-99.8" font-family="Times,serif" font-size="14.00">HierarchicalNavigationNodeComponent</text>
</g>
<!-- HierarchicalNavigationModule -->
<g id="node4" class="node">
<title>HierarchicalNavigationModule</title>
<polygon fill="#8dd3c7" stroke="black" points="500.43,-187 497.43,-191 476.43,-191 473.43,-187 309.57,-187 309.57,-151 500.43,-151 500.43,-187"/>
<text text-anchor="middle" x="405" y="-164.8" font-family="Times,serif" font-size="14.00">HierarchicalNavigationModule</text>
</g>
<!-- HierarchicalNavigationNodeComponent&#45;&gt;HierarchicalNavigationModule -->
<g id="edge1" class="edge">
<title>HierarchicalNavigationNodeComponent&#45;&gt;HierarchicalNavigationModule</title>
<path fill="none" stroke="black" d="M794,-122.11C794,-141.34 794,-169 794,-169 794,-169 510.66,-169 510.66,-169"/>
<polygon fill="black" stroke="black" points="510.66,-165.5 500.66,-169 510.66,-172.5 510.66,-165.5"/>
</g>
<!-- HierarchicalNavigationRootComponent -->
<g id="node2" class="node">
<title>HierarchicalNavigationRootComponent</title>
<polygon fill="#ffffb3" stroke="black" points="654.94,-122 415.06,-122 415.06,-86 654.94,-86 654.94,-122"/>
<text text-anchor="middle" x="535" y="-99.8" font-family="Times,serif" font-size="14.00">HierarchicalNavigationRootComponent</text>
</g>
<!-- HierarchicalNavigationRootComponent&#45;&gt;HierarchicalNavigationModule -->
<g id="edge2" class="edge">
<title>HierarchicalNavigationRootComponent&#45;&gt;HierarchicalNavigationModule</title>
<path fill="none" stroke="black" d="M457.75,-122.11C457.75,-122.11 457.75,-140.99 457.75,-140.99"/>
<polygon fill="black" stroke="black" points="454.25,-140.99 457.75,-150.99 461.25,-140.99 454.25,-140.99"/>
</g>
<!-- HierarchicalNavigationViewComponent -->
<g id="node3" class="node">
<title>HierarchicalNavigationViewComponent</title>
<polygon fill="#ffffb3" stroke="black" points="397.53,-122 154.47,-122 154.47,-86 397.53,-86 397.53,-122"/>
<text text-anchor="middle" x="276" y="-99.8" font-family="Times,serif" font-size="14.00">HierarchicalNavigationViewComponent</text>
</g>
<!-- HierarchicalNavigationViewComponent&#45;&gt;HierarchicalNavigationModule -->
<g id="edge3" class="edge">
<title>HierarchicalNavigationViewComponent&#45;&gt;HierarchicalNavigationModule</title>
<path fill="none" stroke="black" d="M353.53,-122.11C353.53,-122.11 353.53,-140.99 353.53,-140.99"/>
<polygon fill="black" stroke="black" points="350.03,-140.99 353.53,-150.99 357.03,-140.99 350.03,-140.99"/>
</g>
<!-- HierarchicalNavigationViewComponent  -->
<g id="node6" class="node">
<title>HierarchicalNavigationViewComponent </title>
<polygon fill="#fb8072" stroke="black" points="528.03,-252 281.97,-252 281.97,-216 528.03,-216 528.03,-252"/>
<text text-anchor="middle" x="405" y="-229.8" font-family="Times,serif" font-size="14.00">HierarchicalNavigationViewComponent </text>
</g>
<!-- HierarchicalNavigationModule&#45;&gt;HierarchicalNavigationViewComponent  -->
<g id="edge5" class="edge">
<title>HierarchicalNavigationModule&#45;&gt;HierarchicalNavigationViewComponent </title>
<path fill="none" stroke="black" stroke-dasharray="5,2" d="M405,-187.11C405,-187.11 405,-205.99 405,-205.99"/>
<polygon fill="black" stroke="black" points="401.5,-205.99 405,-215.99 408.5,-205.99 401.5,-205.99"/>
</g>
<!-- MaterialModule -->
<g id="node5" class="node">
<title>MaterialModule</title>
<polygon fill="#8dd3c7" stroke="black" points="130.47,-122 127.47,-126 106.47,-126 103.47,-122 23.53,-122 23.53,-86 130.47,-86 130.47,-122"/>
<text text-anchor="middle" x="77" y="-99.8" font-family="Times,serif" font-size="14.00">MaterialModule</text>
</g>
<!-- MaterialModule&#45;&gt;HierarchicalNavigationModule -->
<g id="edge4" class="edge">
<title>MaterialModule&#45;&gt;HierarchicalNavigationModule</title>
<path fill="none" stroke="black" d="M77,-122.11C77,-141.34 77,-169 77,-169 77,-169 299.25,-169 299.25,-169"/>
<polygon fill="black" stroke="black" points="299.25,-172.5 309.25,-169 299.25,-165.5 299.25,-172.5"/>
</g>
</g>
</svg>
