<?xml version="1.0" encoding="UTF-8" standalone="no"?>
<!DOCTYPE svg PUBLIC "-//W3C//DTD SVG 1.1//EN"
 "http://www.w3.org/Graphics/SVG/1.1/DTD/svg11.dtd">
<!-- Generated by graphviz version 2.40.1 (20161225.0304)
 -->
<!-- Title: dependencies Pages: 1 -->
<svg width="508pt" height="284pt"
 viewBox="0.00 0.00 508.00 284.00" xmlns="http://www.w3.org/2000/svg" xmlns:xlink="http://www.w3.org/1999/xlink">
<g id="graph0" class="graph" transform="scale(1 1) rotate(0) translate(4 280)">
<title>dependencies</title>
<polygon fill="#ffffff" stroke="transparent" points="-4,4 -4,-280 504,-280 504,4 -4,4"/>
<text text-anchor="start" x="229.0091" y="-42.4" font-family="sans-serif" font-weight="bold" font-size="14.00" fill="#000000">Legend</text>
<polygon fill="#ffffb3" stroke="transparent" points="16,-10 16,-30 36,-30 36,-10 16,-10"/>
<text text-anchor="start" x="39.629" y="-15.4" font-family="sans-serif" font-size="14.00" fill="#000000"> &#160;Declarations</text>
<polygon fill="#8dd3c7" stroke="transparent" points="129,-10 129,-30 149,-30 149,-10 129,-10"/>
<text text-anchor="start" x="152.7251" y="-15.4" font-family="sans-serif" font-size="14.00" fill="#000000"> &#160;Module</text>
<polygon fill="#80b1d3" stroke="transparent" points="215,-10 215,-30 235,-30 235,-10 215,-10"/>
<text text-anchor="start" x="238.7812" y="-15.4" font-family="sans-serif" font-size="14.00" fill="#000000"> &#160;Bootstrap</text>
<polygon fill="#fdb462" stroke="transparent" points="312,-10 312,-30 332,-30 332,-10 312,-10"/>
<text text-anchor="start" x="335.6732" y="-15.4" font-family="sans-serif" font-size="14.00" fill="#000000"> &#160;Providers</text>
<polygon fill="#fb8072" stroke="transparent" points="408,-10 408,-30 428,-30 428,-10 408,-10"/>
<text text-anchor="start" x="431.7258" y="-15.4" font-family="sans-serif" font-size="14.00" fill="#000000"> &#160;Exports</text>
<g id="clust1" class="cluster">
<title>cluster_AppModule</title>
<polygon fill="none" stroke="#000000" stroke-dasharray="1,5" points="8,-70 8,-268 492,-268 492,-70 8,-70"/>
</g>
<g id="clust2" class="cluster">
<title>cluster_AppModule_declarations</title>
<polygon fill="none" stroke="#000000" points="362,-78 362,-130 484,-130 484,-78 362,-78"/>
</g>
<g id="clust4" class="cluster">
<title>cluster_AppModule_imports</title>
<polygon fill="none" stroke="#000000" points="252,-78 252,-130 354,-130 354,-78 252,-78"/>
</g>
<g id="clust6" class="cluster">
<title>cluster_AppModule_bootstrap</title>
<polygon fill="none" stroke="#000000" points="241,-208 241,-260 365,-260 365,-208 241,-208"/>
</g>
<g id="clust7" class="cluster">
<title>cluster_AppModule_providers</title>
<polygon fill="none" stroke="#000000" points="16,-78 16,-130 244,-130 244,-78 16,-78"/>
</g>
<!-- AppComponent -->
<g id="node1" class="node">
<title>AppComponent</title>
<polygon fill="#ffffb3" stroke="#000000" points="475.9399,-122 370.0601,-122 370.0601,-86 475.9399,-86 475.9399,-122"/>
<text text-anchor="middle" x="423" y="-99.8" font-family="Times,serif" font-size="14.00" fill="#000000">AppComponent</text>
</g>
<!-- AppModule -->
<g id="node2" class="node">
<title>AppModule</title>
<polygon fill="#8dd3c7" stroke="#000000" points="344.6571,-187 341.6571,-191 320.6571,-191 317.6571,-187 261.3429,-187 261.3429,-151 344.6571,-151 344.6571,-187"/>
<text text-anchor="middle" x="303" y="-164.8" font-family="Times,serif" font-size="14.00" fill="#000000">AppModule</text>
</g>
<!-- AppComponent&#45;&gt;AppModule -->
<g id="edge1" class="edge">
<title>AppComponent&#45;&gt;AppModule</title>
<path fill="none" stroke="#000000" d="M423,-122.1061C423,-141.3391 423,-169 423,-169 423,-169 354.9702,-169 354.9702,-169"/>
<polygon fill="#000000" stroke="#000000" points="354.9702,-165.5001 344.9702,-169 354.9701,-172.5001 354.9702,-165.5001"/>
</g>
<!-- AppComponent  -->
<g id="node4" class="node">
<title>AppComponent </title>
<polygon fill="#80b1d3" stroke="#000000" points="357.439,-252 248.561,-252 248.561,-216 357.439,-216 357.439,-252"/>
<text text-anchor="middle" x="303" y="-229.8" font-family="Times,serif" font-size="14.00" fill="#000000">AppComponent </text>
</g>
<!-- AppModule&#45;&gt;AppComponent  -->
<g id="edge3" class="edge">
<title>AppModule&#45;&gt;AppComponent </title>
<path fill="none" stroke="#000000" stroke-dasharray="1,5" d="M303,-187.1061C303,-187.1061 303,-205.991 303,-205.991"/>
<polygon fill="#000000" stroke="#000000" points="299.5001,-205.9909 303,-215.991 306.5001,-205.991 299.5001,-205.9909"/>
</g>
<!-- CoreModule -->
<g id="node3" class="node">
<title>CoreModule</title>
<polygon fill="#8dd3c7" stroke="#000000" points="346.2619,-122 343.2619,-126 322.2619,-126 319.2619,-122 259.7381,-122 259.7381,-86 346.2619,-86 346.2619,-122"/>
<text text-anchor="middle" x="303" y="-99.8" font-family="Times,serif" font-size="14.00" fill="#000000">CoreModule</text>
</g>
<!-- CoreModule&#45;&gt;AppModule -->
<g id="edge2" class="edge">
<title>CoreModule&#45;&gt;AppModule</title>
<path fill="none" stroke="#000000" d="M303,-122.1061C303,-122.1061 303,-140.991 303,-140.991"/>
<polygon fill="#000000" stroke="#000000" points="299.5001,-140.9909 303,-150.991 306.5001,-140.991 299.5001,-140.9909"/>
</g>
<!-- FakeBackendInterceptor -->
<g id="node5" class="node">
<title>FakeBackendInterceptor</title>
<ellipse fill="#fdb462" stroke="#000000" cx="130" cy="-104" rx="105.8996" ry="18"/>
<text text-anchor="middle" x="130" y="-99.8" font-family="Times,serif" font-size="14.00" fill="#000000">FakeBackendInterceptor</text>
</g>
<!-- FakeBackendInterceptor&#45;&gt;AppModule -->
<g id="edge4" class="edge">
<title>FakeBackendInterceptor&#45;&gt;AppModule</title>
<path fill="none" stroke="#000000" d="M130,-122.1061C130,-141.3391 130,-169 130,-169 130,-169 251.1215,-169 251.1215,-169"/>
<polygon fill="#000000" stroke="#000000" points="251.1216,-172.5001 261.1215,-169 251.1215,-165.5001 251.1216,-172.5001"/>
</g>
</g>
</svg>
