<?xml version="1.0" encoding="UTF-8" standalone="no"?>
<!DOCTYPE svg PUBLIC "-//W3C//DTD SVG 1.1//EN"
 "http://www.w3.org/Graphics/SVG/1.1/DTD/svg11.dtd">
<!-- Generated by graphviz version 2.40.1 (20161225.0304)
 -->
<!-- Title: dependencies Pages: 1 -->
<svg width="1054pt" height="284pt"
 viewBox="0.00 0.00 1054.00 284.00" xmlns="http://www.w3.org/2000/svg" xmlns:xlink="http://www.w3.org/1999/xlink">
<g id="graph0" class="graph" transform="scale(1 1) rotate(0) translate(4 280)">
<title>dependencies</title>
<polygon fill="#ffffff" stroke="transparent" points="-4,4 -4,-280 1050,-280 1050,4 -4,4"/>
<text text-anchor="start" x="502.0091" y="-42.4" font-family="sans-serif" font-weight="bold" font-size="14.00" fill="#000000">Legend</text>
<polygon fill="#ffffb3" stroke="transparent" points="289,-10 289,-30 309,-30 309,-10 289,-10"/>
<text text-anchor="start" x="312.629" y="-15.4" font-family="sans-serif" font-size="14.00" fill="#000000"> &#160;Declarations</text>
<polygon fill="#8dd3c7" stroke="transparent" points="402,-10 402,-30 422,-30 422,-10 402,-10"/>
<text text-anchor="start" x="425.7251" y="-15.4" font-family="sans-serif" font-size="14.00" fill="#000000"> &#160;Module</text>
<polygon fill="#80b1d3" stroke="transparent" points="488,-10 488,-30 508,-30 508,-10 488,-10"/>
<text text-anchor="start" x="511.7812" y="-15.4" font-family="sans-serif" font-size="14.00" fill="#000000"> &#160;Bootstrap</text>
<polygon fill="#fdb462" stroke="transparent" points="585,-10 585,-30 605,-30 605,-10 585,-10"/>
<text text-anchor="start" x="608.6732" y="-15.4" font-family="sans-serif" font-size="14.00" fill="#000000"> &#160;Providers</text>
<polygon fill="#fb8072" stroke="transparent" points="681,-10 681,-30 701,-30 701,-10 681,-10"/>
<text text-anchor="start" x="704.7258" y="-15.4" font-family="sans-serif" font-size="14.00" fill="#000000"> &#160;Exports</text>
<g id="clust1" class="cluster">
<title>cluster_AppModule</title>
<polygon fill="none" stroke="#000000" stroke-dasharray="1,5" points="8,-70 8,-268 1038,-268 1038,-70 8,-70"/>
</g>
<g id="clust2" class="cluster">
<title>cluster_AppModule_declarations</title>
<polygon fill="none" stroke="#000000" points="908,-78 908,-130 1030,-130 1030,-78 908,-78"/>
</g>
<g id="clust4" class="cluster">
<title>cluster_AppModule_imports</title>
<polygon fill="none" stroke="#000000" points="798,-78 798,-130 900,-130 900,-78 798,-78"/>
</g>
<g id="clust6" class="cluster">
<title>cluster_AppModule_bootstrap</title>
<polygon fill="none" stroke="#000000" points="485,-208 485,-260 609,-260 609,-208 485,-208"/>
</g>
<g id="clust7" class="cluster">
<title>cluster_AppModule_providers</title>
<polygon fill="none" stroke="#000000" points="16,-78 16,-130 790,-130 790,-78 16,-78"/>
</g>
<!-- AppComponent -->
<g id="node1" class="node">
<title>AppComponent</title>
<polygon fill="#ffffb3" stroke="#000000" points="1021.9399,-122 916.0601,-122 916.0601,-86 1021.9399,-86 1021.9399,-122"/>
<text text-anchor="middle" x="969" y="-99.8" font-family="Times,serif" font-size="14.00" fill="#000000">AppComponent</text>
</g>
<!-- AppModule -->
<g id="node2" class="node">
<title>AppModule</title>
<polygon fill="#8dd3c7" stroke="#000000" points="588.6571,-187 585.6571,-191 564.6571,-191 561.6571,-187 505.3429,-187 505.3429,-151 588.6571,-151 588.6571,-187"/>
<text text-anchor="middle" x="547" y="-164.8" font-family="Times,serif" font-size="14.00" fill="#000000">AppModule</text>
</g>
<!-- AppComponent&#45;&gt;AppModule -->
<g id="edge1" class="edge">
<title>AppComponent&#45;&gt;AppModule</title>
<path fill="none" stroke="#000000" d="M969,-122.2921C969,-144.2057 969,-178 969,-178 969,-178 599.0058,-178 599.0058,-178"/>
<polygon fill="#000000" stroke="#000000" points="599.0058,-174.5001 589.0058,-178 599.0057,-181.5001 599.0058,-174.5001"/>
</g>
<!-- AppComponent  -->
<g id="node4" class="node">
<title>AppComponent </title>
<polygon fill="#80b1d3" stroke="#000000" points="601.439,-252 492.561,-252 492.561,-216 601.439,-216 601.439,-252"/>
<text text-anchor="middle" x="547" y="-229.8" font-family="Times,serif" font-size="14.00" fill="#000000">AppComponent </text>
</g>
<!-- AppModule&#45;&gt;AppComponent  -->
<g id="edge3" class="edge">
<title>AppModule&#45;&gt;AppComponent </title>
<path fill="none" stroke="#000000" stroke-dasharray="1,5" d="M547,-187.1061C547,-187.1061 547,-205.991 547,-205.991"/>
<polygon fill="#000000" stroke="#000000" points="543.5001,-205.9909 547,-215.991 550.5001,-205.991 543.5001,-205.9909"/>
</g>
<!-- CoreModule -->
<g id="node3" class="node">
<title>CoreModule</title>
<polygon fill="#8dd3c7" stroke="#000000" points="892.2619,-122 889.2619,-126 868.2619,-126 865.2619,-122 805.7381,-122 805.7381,-86 892.2619,-86 892.2619,-122"/>
<text text-anchor="middle" x="849" y="-99.8" font-family="Times,serif" font-size="14.00" fill="#000000">CoreModule</text>
</g>
<!-- CoreModule&#45;&gt;AppModule -->
<g id="edge2" class="edge">
<title>CoreModule&#45;&gt;AppModule</title>
<path fill="none" stroke="#000000" d="M849,-122.1061C849,-141.3391 849,-169 849,-169 849,-169 598.6747,-169 598.6747,-169"/>
<polygon fill="#000000" stroke="#000000" points="598.6748,-165.5001 588.6747,-169 598.6747,-172.5001 598.6748,-165.5001"/>
</g>
<!-- AlertService -->
<g id="node5" class="node">
<title>AlertService</title>
<ellipse fill="#fdb462" stroke="#000000" cx="722" cy="-104" rx="59.6646" ry="18"/>
<text text-anchor="middle" x="722" y="-99.8" font-family="Times,serif" font-size="14.00" fill="#000000">AlertService</text>
</g>
<!-- AlertService&#45;&gt;AppModule -->
<g id="edge4" class="edge">
<title>AlertService&#45;&gt;AppModule</title>
<path fill="none" stroke="#000000" d="M722,-122.027C722,-138.3976 722,-160 722,-160 722,-160 598.9169,-160 598.9169,-160"/>
<polygon fill="#000000" stroke="#000000" points="598.9169,-156.5001 588.9169,-160 598.9168,-163.5001 598.9169,-156.5001"/>
</g>
<!-- AuthenticationService -->
<g id="node6" class="node">
<title>AuthenticationService</title>
<ellipse fill="#fdb462" stroke="#000000" cx="547" cy="-104" rx="97.2683" ry="18"/>
<text text-anchor="middle" x="547" y="-99.8" font-family="Times,serif" font-size="14.00" fill="#000000">AuthenticationService</text>
</g>
<!-- AuthenticationService&#45;&gt;AppModule -->
<g id="edge5" class="edge">
<title>AuthenticationService&#45;&gt;AppModule</title>
<path fill="none" stroke="#000000" d="M547,-122.1061C547,-122.1061 547,-140.991 547,-140.991"/>
<polygon fill="#000000" stroke="#000000" points="543.5001,-140.9909 547,-150.991 550.5001,-140.991 543.5001,-140.9909"/>
</g>
<!-- JwtInterceptor -->
<g id="node7" class="node">
<title>JwtInterceptor</title>
<ellipse fill="#fdb462" stroke="#000000" cx="365" cy="-104" rx="66.6094" ry="18"/>
<text text-anchor="middle" x="365" y="-99.8" font-family="Times,serif" font-size="14.00" fill="#000000">JwtInterceptor</text>
</g>
<!-- JwtInterceptor&#45;&gt;AppModule -->
<g id="edge6" class="edge">
<title>JwtInterceptor&#45;&gt;AppModule</title>
<path fill="none" stroke="#000000" d="M365,-122.027C365,-138.3976 365,-160 365,-160 365,-160 495.2455,-160 495.2455,-160"/>
<polygon fill="#000000" stroke="#000000" points="495.2456,-163.5001 505.2455,-160 495.2455,-156.5001 495.2456,-163.5001"/>
</g>
<!-- UserService -->
<g id="node8" class="node">
<title>UserService</title>
<ellipse fill="#fdb462" stroke="#000000" cx="222" cy="-104" rx="58.4415" ry="18"/>
<text text-anchor="middle" x="222" y="-99.8" font-family="Times,serif" font-size="14.00" fill="#000000">UserService</text>
</g>
<!-- UserService&#45;&gt;AppModule -->
<g id="edge7" class="edge">
<title>UserService&#45;&gt;AppModule</title>
<path fill="none" stroke="#000000" d="M222,-122.1061C222,-141.3391 222,-169 222,-169 222,-169 495.1773,-169 495.1773,-169"/>
<polygon fill="#000000" stroke="#000000" points="495.1773,-172.5001 505.1773,-169 495.1772,-165.5001 495.1773,-172.5001"/>
</g>
<!-- ViewService -->
<g id="node9" class="node">
<title>ViewService</title>
<ellipse fill="#fdb462" stroke="#000000" cx="85" cy="-104" rx="60.8101" ry="18"/>
<text text-anchor="middle" x="85" y="-99.8" font-family="Times,serif" font-size="14.00" fill="#000000">ViewService</text>
</g>
<!-- ViewService&#45;&gt;AppModule -->
<g id="edge8" class="edge">
<title>ViewService&#45;&gt;AppModule</title>
<path fill="none" stroke="#000000" d="M85,-122.2921C85,-144.2057 85,-178 85,-178 85,-178 495.1857,-178 495.1857,-178"/>
<polygon fill="#000000" stroke="#000000" points="495.1858,-181.5001 505.1857,-178 495.1857,-174.5001 495.1858,-181.5001"/>
</g>
</g>
</svg>
