<?xml version="1.0" encoding="UTF-8" standalone="no"?>
<!DOCTYPE svg PUBLIC "-//W3C//DTD SVG 1.1//EN"
 "http://www.w3.org/Graphics/SVG/1.1/DTD/svg11.dtd">
<!-- Generated by graphviz version 2.40.1 (20161225.0304)
 -->
<!-- Title: dependencies Pages: 1 -->
<svg width="1050pt" height="284pt"
 viewBox="0.00 0.00 1050.00 284.00" xmlns="http://www.w3.org/2000/svg" xmlns:xlink="http://www.w3.org/1999/xlink">
<g id="graph0" class="graph" transform="scale(1 1) rotate(0) translate(4 280)">
<title>dependencies</title>
<polygon fill="#ffffff" stroke="transparent" points="-4,4 -4,-280 1046,-280 1046,4 -4,4"/>
<text text-anchor="start" x="500.0091" y="-42.4" font-family="sans-serif" font-weight="bold" font-size="14.00" fill="#000000">Legend</text>
<polygon fill="#ffffb3" stroke="transparent" points="287,-10 287,-30 307,-30 307,-10 287,-10"/>
<text text-anchor="start" x="310.629" y="-15.4" font-family="sans-serif" font-size="14.00" fill="#000000"> &#160;Declarations</text>
<polygon fill="#8dd3c7" stroke="transparent" points="400,-10 400,-30 420,-30 420,-10 400,-10"/>
<text text-anchor="start" x="423.7251" y="-15.4" font-family="sans-serif" font-size="14.00" fill="#000000"> &#160;Module</text>
<polygon fill="#80b1d3" stroke="transparent" points="486,-10 486,-30 506,-30 506,-10 486,-10"/>
<text text-anchor="start" x="509.7812" y="-15.4" font-family="sans-serif" font-size="14.00" fill="#000000"> &#160;Bootstrap</text>
<polygon fill="#fdb462" stroke="transparent" points="583,-10 583,-30 603,-30 603,-10 583,-10"/>
<text text-anchor="start" x="606.6732" y="-15.4" font-family="sans-serif" font-size="14.00" fill="#000000"> &#160;Providers</text>
<polygon fill="#fb8072" stroke="transparent" points="679,-10 679,-30 699,-30 699,-10 679,-10"/>
<text text-anchor="start" x="702.7258" y="-15.4" font-family="sans-serif" font-size="14.00" fill="#000000"> &#160;Exports</text>
<g id="clust1" class="cluster">
<title>cluster_AppModule</title>
<polygon fill="none" stroke="#000000" stroke-dasharray="1,5" points="8,-70 8,-268 1034,-268 1034,-70 8,-70"/>
</g>
<g id="clust2" class="cluster">
<title>cluster_AppModule_declarations</title>
<polygon fill="none" stroke="#000000" points="904,-78 904,-130 1026,-130 1026,-78 904,-78"/>
</g>
<g id="clust4" class="cluster">
<title>cluster_AppModule_imports</title>
<polygon fill="none" stroke="#000000" points="794,-78 794,-130 896,-130 896,-78 794,-78"/>
</g>
<g id="clust6" class="cluster">
<title>cluster_AppModule_bootstrap</title>
<polygon fill="none" stroke="#000000" points="481,-208 481,-260 605,-260 605,-208 481,-208"/>
</g>
<g id="clust7" class="cluster">
<title>cluster_AppModule_providers</title>
<polygon fill="none" stroke="#000000" points="16,-78 16,-130 786,-130 786,-78 16,-78"/>
</g>
<!-- AppComponent -->
<g id="node1" class="node">
<title>AppComponent</title>
<polygon fill="#ffffb3" stroke="#000000" points="1017.9399,-122 912.0601,-122 912.0601,-86 1017.9399,-86 1017.9399,-122"/>
<text text-anchor="middle" x="965" y="-99.8" font-family="Times,serif" font-size="14.00" fill="#000000">AppComponent</text>
</g>
<!-- AppModule -->
<g id="node2" class="node">
<title>AppModule</title>
<polygon fill="#8dd3c7" stroke="#000000" points="584.6571,-187 581.6571,-191 560.6571,-191 557.6571,-187 501.3429,-187 501.3429,-151 584.6571,-151 584.6571,-187"/>
<text text-anchor="middle" x="543" y="-164.8" font-family="Times,serif" font-size="14.00" fill="#000000">AppModule</text>
</g>
<!-- AppComponent&#45;&gt;AppModule -->
<g id="edge1" class="edge">
<title>AppComponent&#45;&gt;AppModule</title>
<path fill="none" stroke="#000000" d="M965,-122.2921C965,-144.2057 965,-178 965,-178 965,-178 595.0058,-178 595.0058,-178"/>
<polygon fill="#000000" stroke="#000000" points="595.0058,-174.5001 585.0058,-178 595.0057,-181.5001 595.0058,-174.5001"/>
</g>
<!-- AppComponent  -->
<g id="node4" class="node">
<title>AppComponent </title>
<polygon fill="#80b1d3" stroke="#000000" points="597.439,-252 488.561,-252 488.561,-216 597.439,-216 597.439,-252"/>
<text text-anchor="middle" x="543" y="-229.8" font-family="Times,serif" font-size="14.00" fill="#000000">AppComponent </text>
</g>
<!-- AppModule&#45;&gt;AppComponent  -->
<g id="edge3" class="edge">
<title>AppModule&#45;&gt;AppComponent </title>
<path fill="none" stroke="#000000" stroke-dasharray="1,5" d="M543,-187.1061C543,-187.1061 543,-205.991 543,-205.991"/>
<polygon fill="#000000" stroke="#000000" points="539.5001,-205.9909 543,-215.991 546.5001,-205.991 539.5001,-205.9909"/>
</g>
<!-- CoreModule -->
<g id="node3" class="node">
<title>CoreModule</title>
<polygon fill="#8dd3c7" stroke="#000000" points="888.2619,-122 885.2619,-126 864.2619,-126 861.2619,-122 801.7381,-122 801.7381,-86 888.2619,-86 888.2619,-122"/>
<text text-anchor="middle" x="845" y="-99.8" font-family="Times,serif" font-size="14.00" fill="#000000">CoreModule</text>
</g>
<!-- CoreModule&#45;&gt;AppModule -->
<g id="edge2" class="edge">
<title>CoreModule&#45;&gt;AppModule</title>
<path fill="none" stroke="#000000" d="M845,-122.1061C845,-141.3391 845,-169 845,-169 845,-169 594.6747,-169 594.6747,-169"/>
<polygon fill="#000000" stroke="#000000" points="594.6748,-165.5001 584.6747,-169 594.6747,-172.5001 594.6748,-165.5001"/>
</g>
<!-- AlertService -->
<g id="node5" class="node">
<title>AlertService</title>
<ellipse fill="#fdb462" stroke="#000000" cx="718" cy="-104" rx="59.6646" ry="18"/>
<text text-anchor="middle" x="718" y="-99.8" font-family="Times,serif" font-size="14.00" fill="#000000">AlertService</text>
</g>
<!-- AlertService&#45;&gt;AppModule -->
<g id="edge4" class="edge">
<title>AlertService&#45;&gt;AppModule</title>
<path fill="none" stroke="#000000" d="M718,-122.027C718,-138.3976 718,-160 718,-160 718,-160 594.9169,-160 594.9169,-160"/>
<polygon fill="#000000" stroke="#000000" points="594.9169,-156.5001 584.9169,-160 594.9168,-163.5001 594.9169,-156.5001"/>
</g>
<!-- AuthenticationService -->
<g id="node6" class="node">
<title>AuthenticationService</title>
<ellipse fill="#fdb462" stroke="#000000" cx="543" cy="-104" rx="97.2683" ry="18"/>
<text text-anchor="middle" x="543" y="-99.8" font-family="Times,serif" font-size="14.00" fill="#000000">AuthenticationService</text>
</g>
<!-- AuthenticationService&#45;&gt;AppModule -->
<g id="edge5" class="edge">
<title>AuthenticationService&#45;&gt;AppModule</title>
<path fill="none" stroke="#000000" d="M543,-122.1061C543,-122.1061 543,-140.991 543,-140.991"/>
<polygon fill="#000000" stroke="#000000" points="539.5001,-140.9909 543,-150.991 546.5001,-140.991 539.5001,-140.9909"/>
</g>
<!-- JwtInterceptor -->
<g id="node7" class="node">
<title>JwtInterceptor</title>
<ellipse fill="#fdb462" stroke="#000000" cx="361" cy="-104" rx="66.6094" ry="18"/>
<text text-anchor="middle" x="361" y="-99.8" font-family="Times,serif" font-size="14.00" fill="#000000">JwtInterceptor</text>
</g>
<!-- JwtInterceptor&#45;&gt;AppModule -->
<g id="edge6" class="edge">
<title>JwtInterceptor&#45;&gt;AppModule</title>
<path fill="none" stroke="#000000" d="M361,-122.027C361,-138.3976 361,-160 361,-160 361,-160 491.2455,-160 491.2455,-160"/>
<polygon fill="#000000" stroke="#000000" points="491.2456,-163.5001 501.2455,-160 491.2455,-156.5001 491.2456,-163.5001"/>
</g>
<!-- PageService -->
<g id="node8" class="node">
<title>PageService</title>
<ellipse fill="#fdb462" stroke="#000000" cx="217" cy="-104" rx="58.5251" ry="18"/>
<text text-anchor="middle" x="217" y="-99.8" font-family="Times,serif" font-size="14.00" fill="#000000">PageService</text>
</g>
<!-- PageService&#45;&gt;AppModule -->
<g id="edge7" class="edge">
<title>PageService&#45;&gt;AppModule</title>
<path fill="none" stroke="#000000" d="M217,-122.1061C217,-141.3391 217,-169 217,-169 217,-169 491.0486,-169 491.0486,-169"/>
<polygon fill="#000000" stroke="#000000" points="491.0486,-172.5001 501.0486,-169 491.0486,-165.5001 491.0486,-172.5001"/>
</g>
<!-- UserService -->
<g id="node9" class="node">
<title>UserService</title>
<ellipse fill="#fdb462" stroke="#000000" cx="82" cy="-104" rx="58.4415" ry="18"/>
<text text-anchor="middle" x="82" y="-99.8" font-family="Times,serif" font-size="14.00" fill="#000000">UserService</text>
</g>
<!-- UserService&#45;&gt;AppModule -->
<g id="edge8" class="edge">
<title>UserService&#45;&gt;AppModule</title>
<path fill="none" stroke="#000000" d="M82,-122.2921C82,-144.2057 82,-178 82,-178 82,-178 491.2763,-178 491.2763,-178"/>
<polygon fill="#000000" stroke="#000000" points="491.2763,-181.5001 501.2763,-178 491.2762,-174.5001 491.2763,-181.5001"/>
</g>
</g>
</svg>
