<?xml version="1.0" encoding="UTF-8" standalone="no"?>
<!DOCTYPE svg PUBLIC "-//W3C//DTD SVG 1.1//EN"
 "http://www.w3.org/Graphics/SVG/1.1/DTD/svg11.dtd">
<!-- Generated by graphviz version 2.40.1 (20161225.0304)
 -->
<!-- Title: dependencies Pages: 1 -->
<svg width="858pt" height="284pt"
 viewBox="0.00 0.00 858.00 284.00" xmlns="http://www.w3.org/2000/svg" xmlns:xlink="http://www.w3.org/1999/xlink">
<g id="graph0" class="graph" transform="scale(1 1) rotate(0) translate(4 280)">
<title>dependencies</title>
<polygon fill="#ffffff" stroke="transparent" points="-4,4 -4,-280 854,-280 854,4 -4,4"/>
<text text-anchor="start" x="404.0091" y="-42.4" font-family="sans-serif" font-weight="bold" font-size="14.00" fill="#000000">Legend</text>
<polygon fill="#ffffb3" stroke="transparent" points="191,-10 191,-30 211,-30 211,-10 191,-10"/>
<text text-anchor="start" x="214.629" y="-15.4" font-family="sans-serif" font-size="14.00" fill="#000000"> &#160;Declarations</text>
<polygon fill="#8dd3c7" stroke="transparent" points="304,-10 304,-30 324,-30 324,-10 304,-10"/>
<text text-anchor="start" x="327.7251" y="-15.4" font-family="sans-serif" font-size="14.00" fill="#000000"> &#160;Module</text>
<polygon fill="#80b1d3" stroke="transparent" points="390,-10 390,-30 410,-30 410,-10 390,-10"/>
<text text-anchor="start" x="413.7812" y="-15.4" font-family="sans-serif" font-size="14.00" fill="#000000"> &#160;Bootstrap</text>
<polygon fill="#fdb462" stroke="transparent" points="487,-10 487,-30 507,-30 507,-10 487,-10"/>
<text text-anchor="start" x="510.6732" y="-15.4" font-family="sans-serif" font-size="14.00" fill="#000000"> &#160;Providers</text>
<polygon fill="#fb8072" stroke="transparent" points="583,-10 583,-30 603,-30 603,-10 583,-10"/>
<text text-anchor="start" x="606.7258" y="-15.4" font-family="sans-serif" font-size="14.00" fill="#000000"> &#160;Exports</text>
<g id="clust1" class="cluster">
<title>cluster_AppModule</title>
<polygon fill="none" stroke="#000000" stroke-dasharray="1,5" points="8,-70 8,-268 842,-268 842,-70 8,-70"/>
</g>
<g id="clust2" class="cluster">
<title>cluster_AppModule_declarations</title>
<polygon fill="none" stroke="#000000" points="712,-78 712,-130 834,-130 834,-78 712,-78"/>
</g>
<g id="clust4" class="cluster">
<title>cluster_AppModule_imports</title>
<polygon fill="none" stroke="#000000" points="602,-78 602,-130 704,-130 704,-78 602,-78"/>
</g>
<g id="clust6" class="cluster">
<title>cluster_AppModule_bootstrap</title>
<polygon fill="none" stroke="#000000" points="464,-208 464,-260 588,-260 588,-208 464,-208"/>
</g>
<g id="clust7" class="cluster">
<title>cluster_AppModule_providers</title>
<polygon fill="none" stroke="#000000" points="16,-78 16,-130 594,-130 594,-78 16,-78"/>
</g>
<!-- AppComponent -->
<g id="node1" class="node">
<title>AppComponent</title>
<polygon fill="#ffffb3" stroke="#000000" points="825.9399,-122 720.0601,-122 720.0601,-86 825.9399,-86 825.9399,-122"/>
<text text-anchor="middle" x="773" y="-99.8" font-family="Times,serif" font-size="14.00" fill="#000000">AppComponent</text>
</g>
<!-- AppModule -->
<g id="node2" class="node">
<title>AppModule</title>
<polygon fill="#8dd3c7" stroke="#000000" points="567.6571,-187 564.6571,-191 543.6571,-191 540.6571,-187 484.3429,-187 484.3429,-151 567.6571,-151 567.6571,-187"/>
<text text-anchor="middle" x="526" y="-164.8" font-family="Times,serif" font-size="14.00" fill="#000000">AppModule</text>
</g>
<!-- AppComponent&#45;&gt;AppModule -->
<g id="edge1" class="edge">
<title>AppComponent&#45;&gt;AppModule</title>
<path fill="none" stroke="#000000" d="M773,-122.2843C773,-143.3211 773,-175 773,-175 773,-175 577.9002,-175 577.9002,-175"/>
<polygon fill="#000000" stroke="#000000" points="577.9002,-171.5001 567.9002,-175 577.9001,-178.5001 577.9002,-171.5001"/>
</g>
<!-- AppComponent  -->
<g id="node4" class="node">
<title>AppComponent </title>
<polygon fill="#80b1d3" stroke="#000000" points="580.439,-252 471.561,-252 471.561,-216 580.439,-216 580.439,-252"/>
<text text-anchor="middle" x="526" y="-229.8" font-family="Times,serif" font-size="14.00" fill="#000000">AppComponent </text>
</g>
<!-- AppModule&#45;&gt;AppComponent  -->
<g id="edge3" class="edge">
<title>AppModule&#45;&gt;AppComponent </title>
<path fill="none" stroke="#000000" stroke-dasharray="1,5" d="M526,-187.1061C526,-187.1061 526,-205.991 526,-205.991"/>
<polygon fill="#000000" stroke="#000000" points="522.5001,-205.9909 526,-215.991 529.5001,-205.991 522.5001,-205.9909"/>
</g>
<!-- CoreModule -->
<g id="node3" class="node">
<title>CoreModule</title>
<polygon fill="#8dd3c7" stroke="#000000" points="696.2619,-122 693.2619,-126 672.2619,-126 669.2619,-122 609.7381,-122 609.7381,-86 696.2619,-86 696.2619,-122"/>
<text text-anchor="middle" x="653" y="-99.8" font-family="Times,serif" font-size="14.00" fill="#000000">CoreModule</text>
</g>
<!-- CoreModule&#45;&gt;AppModule -->
<g id="edge2" class="edge">
<title>CoreModule&#45;&gt;AppModule</title>
<path fill="none" stroke="#000000" d="M653,-122.0225C653,-139.3734 653,-163 653,-163 653,-163 577.9365,-163 577.9365,-163"/>
<polygon fill="#000000" stroke="#000000" points="577.9366,-159.5001 567.9365,-163 577.9365,-166.5001 577.9366,-159.5001"/>
</g>
<!-- AlertService -->
<g id="node5" class="node">
<title>AlertService</title>
<ellipse fill="#fdb462" stroke="#000000" cx="526" cy="-104" rx="59.6646" ry="18"/>
<text text-anchor="middle" x="526" y="-99.8" font-family="Times,serif" font-size="14.00" fill="#000000">AlertService</text>
</g>
<!-- AlertService&#45;&gt;AppModule -->
<g id="edge4" class="edge">
<title>AlertService&#45;&gt;AppModule</title>
<path fill="none" stroke="#000000" d="M526,-122.1061C526,-122.1061 526,-140.991 526,-140.991"/>
<polygon fill="#000000" stroke="#000000" points="522.5001,-140.9909 526,-150.991 529.5001,-140.991 522.5001,-140.9909"/>
</g>
<!-- AuthenticationService -->
<g id="node6" class="node">
<title>AuthenticationService</title>
<ellipse fill="#fdb462" stroke="#000000" cx="351" cy="-104" rx="97.2683" ry="18"/>
<text text-anchor="middle" x="351" y="-99.8" font-family="Times,serif" font-size="14.00" fill="#000000">AuthenticationService</text>
</g>
<!-- AuthenticationService&#45;&gt;AppModule -->
<g id="edge5" class="edge">
<title>AuthenticationService&#45;&gt;AppModule</title>
<path fill="none" stroke="#000000" d="M351,-122.0225C351,-139.3734 351,-163 351,-163 351,-163 474.0831,-163 474.0831,-163"/>
<polygon fill="#000000" stroke="#000000" points="474.0832,-166.5001 484.0831,-163 474.0831,-159.5001 474.0832,-166.5001"/>
</g>
<!-- FakeBackendInterceptor -->
<g id="node7" class="node">
<title>FakeBackendInterceptor</title>
<ellipse fill="#fdb462" stroke="#000000" cx="130" cy="-104" rx="105.8996" ry="18"/>
<text text-anchor="middle" x="130" y="-99.8" font-family="Times,serif" font-size="14.00" fill="#000000">FakeBackendInterceptor</text>
</g>
<!-- FakeBackendInterceptor&#45;&gt;AppModule -->
<g id="edge6" class="edge">
<title>FakeBackendInterceptor&#45;&gt;AppModule</title>
<path fill="none" stroke="#000000" d="M130,-122.2843C130,-143.3211 130,-175 130,-175 130,-175 473.996,-175 473.996,-175"/>
<polygon fill="#000000" stroke="#000000" points="473.996,-178.5001 483.996,-175 473.9959,-171.5001 473.996,-178.5001"/>
</g>
</g>
</svg>
