<?xml version="1.0" encoding="UTF-8" standalone="no"?>
<!DOCTYPE svg PUBLIC "-//W3C//DTD SVG 1.1//EN"
 "http://www.w3.org/Graphics/SVG/1.1/DTD/svg11.dtd">
<!-- Generated by graphviz version 2.40.1 (20161225.0304)
 -->
<!-- Title: dependencies Pages: 1 -->
<svg width="574pt" height="284pt"
 viewBox="0.00 0.00 574.00 284.00" xmlns="http://www.w3.org/2000/svg" xmlns:xlink="http://www.w3.org/1999/xlink">
<g id="graph0" class="graph" transform="scale(1 1) rotate(0) translate(4 280)">
<title>dependencies</title>
<polygon fill="#ffffff" stroke="transparent" points="-4,4 -4,-280 570,-280 570,4 -4,4"/>
<text text-anchor="start" x="262.0091" y="-42.4" font-family="sans-serif" font-weight="bold" font-size="14.00" fill="#000000">Legend</text>
<polygon fill="#ffffb3" stroke="transparent" points="49,-10 49,-30 69,-30 69,-10 49,-10"/>
<text text-anchor="start" x="72.629" y="-15.4" font-family="sans-serif" font-size="14.00" fill="#000000"> &#160;Declarations</text>
<polygon fill="#8dd3c7" stroke="transparent" points="162,-10 162,-30 182,-30 182,-10 162,-10"/>
<text text-anchor="start" x="185.7251" y="-15.4" font-family="sans-serif" font-size="14.00" fill="#000000"> &#160;Module</text>
<polygon fill="#80b1d3" stroke="transparent" points="248,-10 248,-30 268,-30 268,-10 248,-10"/>
<text text-anchor="start" x="271.7812" y="-15.4" font-family="sans-serif" font-size="14.00" fill="#000000"> &#160;Bootstrap</text>
<polygon fill="#fdb462" stroke="transparent" points="345,-10 345,-30 365,-30 365,-10 345,-10"/>
<text text-anchor="start" x="368.6732" y="-15.4" font-family="sans-serif" font-size="14.00" fill="#000000"> &#160;Providers</text>
<polygon fill="#fb8072" stroke="transparent" points="441,-10 441,-30 461,-30 461,-10 441,-10"/>
<text text-anchor="start" x="464.7258" y="-15.4" font-family="sans-serif" font-size="14.00" fill="#000000"> &#160;Exports</text>
<g id="clust1" class="cluster">
<title>cluster_DataManagementToolModule</title>
<polygon fill="none" stroke="#000000" stroke-dasharray="1,5" points="8,-70 8,-268 558,-268 558,-70 8,-70"/>
</g>
<g id="clust2" class="cluster">
<title>cluster_DataManagementToolModule_declarations</title>
<polygon fill="none" stroke="#000000" points="162,-78 162,-130 550,-130 550,-78 162,-78"/>
</g>
<g id="clust6" class="cluster">
<title>cluster_DataManagementToolModule_exports</title>
<polygon fill="none" stroke="#000000" points="183,-208 183,-260 357,-260 357,-208 183,-208"/>
</g>
<g id="clust8" class="cluster">
<title>cluster_DataManagementToolModule_providers</title>
<polygon fill="none" stroke="#000000" points="16,-78 16,-130 154,-130 154,-78 16,-78"/>
</g>
<!-- DataChooserComponent -->
<g id="node1" class="node">
<title>DataChooserComponent</title>
<polygon fill="#ffffb3" stroke="#000000" points="542.4158,-122 387.5842,-122 387.5842,-86 542.4158,-86 542.4158,-122"/>
<text text-anchor="middle" x="465" y="-99.8" font-family="Times,serif" font-size="14.00" fill="#000000">DataChooserComponent</text>
</g>
<!-- DataManagementToolModule -->
<g id="node3" class="node">
<title>DataManagementToolModule</title>
<polygon fill="#8dd3c7" stroke="#000000" points="362.5043,-187 359.5043,-191 338.5043,-191 335.5043,-187 177.4957,-187 177.4957,-151 362.5043,-151 362.5043,-187"/>
<text text-anchor="middle" x="270" y="-164.8" font-family="Times,serif" font-size="14.00" fill="#000000">DataManagementToolModule</text>
</g>
<!-- DataChooserComponent&#45;&gt;DataManagementToolModule -->
<g id="edge1" class="edge">
<title>DataChooserComponent&#45;&gt;DataManagementToolModule</title>
<path fill="none" stroke="#000000" d="M465,-122.1061C465,-141.3391 465,-169 465,-169 465,-169 372.6458,-169 372.6458,-169"/>
<polygon fill="#000000" stroke="#000000" points="372.6459,-165.5001 362.6458,-169 372.6458,-172.5001 372.6459,-165.5001"/>
</g>
<!-- DataChooserSettingsComponent -->
<g id="node2" class="node">
<title>DataChooserSettingsComponent</title>
<polygon fill="#ffffb3" stroke="#000000" points="369.5294,-122 170.4706,-122 170.4706,-86 369.5294,-86 369.5294,-122"/>
<text text-anchor="middle" x="270" y="-99.8" font-family="Times,serif" font-size="14.00" fill="#000000">DataChooserSettingsComponent</text>
</g>
<!-- DataChooserSettingsComponent&#45;&gt;DataManagementToolModule -->
<g id="edge2" class="edge">
<title>DataChooserSettingsComponent&#45;&gt;DataManagementToolModule</title>
<path fill="none" stroke="#000000" d="M270,-122.1061C270,-122.1061 270,-140.991 270,-140.991"/>
<polygon fill="#000000" stroke="#000000" points="266.5001,-140.9909 270,-150.991 273.5001,-140.991 266.5001,-140.9909"/>
</g>
<!-- DataChooserComponent  -->
<g id="node4" class="node">
<title>DataChooserComponent </title>
<polygon fill="#fb8072" stroke="#000000" points="348.9152,-252 191.0848,-252 191.0848,-216 348.9152,-216 348.9152,-252"/>
<text text-anchor="middle" x="270" y="-229.8" font-family="Times,serif" font-size="14.00" fill="#000000">DataChooserComponent </text>
</g>
<!-- DataManagementToolModule&#45;&gt;DataChooserComponent  -->
<g id="edge3" class="edge">
<title>DataManagementToolModule&#45;&gt;DataChooserComponent </title>
<path fill="none" stroke="#000000" stroke-dasharray="5,2" d="M270,-187.1061C270,-187.1061 270,-205.991 270,-205.991"/>
<polygon fill="#000000" stroke="#000000" points="266.5001,-205.9909 270,-215.991 273.5001,-205.991 266.5001,-205.9909"/>
</g>
<!-- FileDatabase -->
<g id="node5" class="node">
<title>FileDatabase</title>
<ellipse fill="#fdb462" stroke="#000000" cx="85" cy="-104" rx="61.3896" ry="18"/>
<text text-anchor="middle" x="85" y="-99.8" font-family="Times,serif" font-size="14.00" fill="#000000">FileDatabase</text>
</g>
<!-- FileDatabase&#45;&gt;DataManagementToolModule -->
<g id="edge4" class="edge">
<title>FileDatabase&#45;&gt;DataManagementToolModule</title>
<path fill="none" stroke="#000000" d="M85,-122.1061C85,-141.3391 85,-169 85,-169 85,-169 167.229,-169 167.229,-169"/>
<polygon fill="#000000" stroke="#000000" points="167.229,-172.5001 177.229,-169 167.229,-165.5001 167.229,-172.5001"/>
</g>
</g>
</svg>
