<?xml version="1.0" encoding="UTF-8" standalone="no"?>
<!DOCTYPE svg PUBLIC "-//W3C//DTD SVG 1.1//EN"
 "http://www.w3.org/Graphics/SVG/1.1/DTD/svg11.dtd">
<!-- Generated by graphviz version 2.40.1 (20161225.0304)
 -->
<!-- Title: dependencies Pages: 1 -->
<svg width="504pt" height="284pt"
 viewBox="0.00 0.00 504.00 284.00" xmlns="http://www.w3.org/2000/svg" xmlns:xlink="http://www.w3.org/1999/xlink">
<g id="graph0" class="graph" transform="scale(1 1) rotate(0) translate(4 280)">
<title>dependencies</title>
<polygon fill="#ffffff" stroke="transparent" points="-4,4 -4,-280 500,-280 500,4 -4,4"/>
<text text-anchor="start" x="227.0091" y="-42.4" font-family="sans-serif" font-weight="bold" font-size="14.00" fill="#000000">Legend</text>
<polygon fill="#ffffb3" stroke="transparent" points="14,-10 14,-30 34,-30 34,-10 14,-10"/>
<text text-anchor="start" x="37.629" y="-15.4" font-family="sans-serif" font-size="14.00" fill="#000000"> &#160;Declarations</text>
<polygon fill="#8dd3c7" stroke="transparent" points="127,-10 127,-30 147,-30 147,-10 127,-10"/>
<text text-anchor="start" x="150.7251" y="-15.4" font-family="sans-serif" font-size="14.00" fill="#000000"> &#160;Module</text>
<polygon fill="#80b1d3" stroke="transparent" points="213,-10 213,-30 233,-30 233,-10 213,-10"/>
<text text-anchor="start" x="236.7812" y="-15.4" font-family="sans-serif" font-size="14.00" fill="#000000"> &#160;Bootstrap</text>
<polygon fill="#fdb462" stroke="transparent" points="310,-10 310,-30 330,-30 330,-10 310,-10"/>
<text text-anchor="start" x="333.6732" y="-15.4" font-family="sans-serif" font-size="14.00" fill="#000000"> &#160;Providers</text>
<polygon fill="#fb8072" stroke="transparent" points="406,-10 406,-30 426,-30 426,-10 406,-10"/>
<text text-anchor="start" x="429.7258" y="-15.4" font-family="sans-serif" font-size="14.00" fill="#000000"> &#160;Exports</text>
<g id="clust1" class="cluster">
<title>cluster_DataManagementToolModule</title>
<polygon fill="none" stroke="#000000" stroke-dasharray="1,5" points="46,-70 46,-268 450,-268 450,-70 46,-70"/>
</g>
<g id="clust2" class="cluster">
<title>cluster_DataManagementToolModule_declarations</title>
<polygon fill="none" stroke="#000000" points="54,-78 54,-130 442,-130 442,-78 54,-78"/>
</g>
<g id="clust6" class="cluster">
<title>cluster_DataManagementToolModule_exports</title>
<polygon fill="none" stroke="#000000" points="168,-208 168,-260 342,-260 342,-208 168,-208"/>
</g>
<!-- DataChooserComponent -->
<g id="node1" class="node">
<title>DataChooserComponent</title>
<polygon fill="#ffffb3" stroke="#000000" points="434.4158,-122 279.5842,-122 279.5842,-86 434.4158,-86 434.4158,-122"/>
<text text-anchor="middle" x="357" y="-99.8" font-family="Times,serif" font-size="14.00" fill="#000000">DataChooserComponent</text>
</g>
<!-- DataManagementToolModule -->
<g id="node3" class="node">
<title>DataManagementToolModule</title>
<polygon fill="#8dd3c7" stroke="#000000" points="347.5043,-187 344.5043,-191 323.5043,-191 320.5043,-187 162.4957,-187 162.4957,-151 347.5043,-151 347.5043,-187"/>
<text text-anchor="middle" x="255" y="-164.8" font-family="Times,serif" font-size="14.00" fill="#000000">DataManagementToolModule</text>
</g>
<!-- DataChooserComponent&#45;&gt;DataManagementToolModule -->
<g id="edge1" class="edge">
<title>DataChooserComponent&#45;&gt;DataManagementToolModule</title>
<path fill="none" stroke="#000000" d="M313.7721,-122.1061C313.7721,-122.1061 313.7721,-140.991 313.7721,-140.991"/>
<polygon fill="#000000" stroke="#000000" points="310.2722,-140.9909 313.7721,-150.991 317.2722,-140.991 310.2722,-140.9909"/>
</g>
<!-- DataChooserSettingsComponent -->
<g id="node2" class="node">
<title>DataChooserSettingsComponent</title>
<polygon fill="#ffffb3" stroke="#000000" points="261.5294,-122 62.4706,-122 62.4706,-86 261.5294,-86 261.5294,-122"/>
<text text-anchor="middle" x="162" y="-99.8" font-family="Times,serif" font-size="14.00" fill="#000000">DataChooserSettingsComponent</text>
</g>
<!-- DataChooserSettingsComponent&#45;&gt;DataManagementToolModule -->
<g id="edge2" class="edge">
<title>DataChooserSettingsComponent&#45;&gt;DataManagementToolModule</title>
<path fill="none" stroke="#000000" d="M212.0063,-122.1061C212.0063,-122.1061 212.0063,-140.991 212.0063,-140.991"/>
<polygon fill="#000000" stroke="#000000" points="208.5064,-140.9909 212.0063,-150.991 215.5064,-140.991 208.5064,-140.9909"/>
</g>
<!-- DataChooserComponent  -->
<g id="node4" class="node">
<title>DataChooserComponent </title>
<polygon fill="#fb8072" stroke="#000000" points="333.9152,-252 176.0848,-252 176.0848,-216 333.9152,-216 333.9152,-252"/>
<text text-anchor="middle" x="255" y="-229.8" font-family="Times,serif" font-size="14.00" fill="#000000">DataChooserComponent </text>
</g>
<!-- DataManagementToolModule&#45;&gt;DataChooserComponent  -->
<g id="edge3" class="edge">
<title>DataManagementToolModule&#45;&gt;DataChooserComponent </title>
<path fill="none" stroke="#000000" stroke-dasharray="5,2" d="M255,-187.1061C255,-187.1061 255,-205.991 255,-205.991"/>
<polygon fill="#000000" stroke="#000000" points="251.5001,-205.9909 255,-215.991 258.5001,-205.991 251.5001,-205.9909"/>
</g>
</g>
</svg>
