<?xml version="1.0" encoding="UTF-8" standalone="no"?>
<!DOCTYPE svg PUBLIC "-//W3C//DTD SVG 1.1//EN"
 "http://www.w3.org/Graphics/SVG/1.1/DTD/svg11.dtd">
<!-- Generated by graphviz version 2.40.1 (20161225.0304)
 -->
<!-- Title: dependencies Pages: 1 -->
<svg width="752pt" height="284pt"
 viewBox="0.00 0.00 752.00 284.00" xmlns="http://www.w3.org/2000/svg" xmlns:xlink="http://www.w3.org/1999/xlink">
<g id="graph0" class="graph" transform="scale(1 1) rotate(0) translate(4 280)">
<title>dependencies</title>
<polygon fill="#ffffff" stroke="transparent" points="-4,4 -4,-280 748,-280 748,4 -4,4"/>
<text text-anchor="start" x="351.0091" y="-42.4" font-family="sans-serif" font-weight="bold" font-size="14.00" fill="#000000">Legend</text>
<polygon fill="#ffffb3" stroke="transparent" points="138,-10 138,-30 158,-30 158,-10 138,-10"/>
<text text-anchor="start" x="161.629" y="-15.4" font-family="sans-serif" font-size="14.00" fill="#000000"> &#160;Declarations</text>
<polygon fill="#8dd3c7" stroke="transparent" points="251,-10 251,-30 271,-30 271,-10 251,-10"/>
<text text-anchor="start" x="274.7251" y="-15.4" font-family="sans-serif" font-size="14.00" fill="#000000"> &#160;Module</text>
<polygon fill="#80b1d3" stroke="transparent" points="337,-10 337,-30 357,-30 357,-10 337,-10"/>
<text text-anchor="start" x="360.7812" y="-15.4" font-family="sans-serif" font-size="14.00" fill="#000000"> &#160;Bootstrap</text>
<polygon fill="#fdb462" stroke="transparent" points="434,-10 434,-30 454,-30 454,-10 434,-10"/>
<text text-anchor="start" x="457.6732" y="-15.4" font-family="sans-serif" font-size="14.00" fill="#000000"> &#160;Providers</text>
<polygon fill="#fb8072" stroke="transparent" points="530,-10 530,-30 550,-30 550,-10 530,-10"/>
<text text-anchor="start" x="553.7258" y="-15.4" font-family="sans-serif" font-size="14.00" fill="#000000"> &#160;Exports</text>
<g id="clust1" class="cluster">
<title>cluster_DataManagementToolModule</title>
<polygon fill="none" stroke="#000000" stroke-dasharray="1,5" points="8,-70 8,-268 736,-268 736,-70 8,-70"/>
</g>
<g id="clust2" class="cluster">
<title>cluster_DataManagementToolModule_declarations</title>
<polygon fill="none" stroke="#000000" points="162,-78 162,-130 728,-130 728,-78 162,-78"/>
</g>
<g id="clust7" class="cluster">
<title>cluster_DataManagementToolModule_exports</title>
<polygon fill="none" stroke="#000000" points="262,-208 262,-260 436,-260 436,-208 262,-208"/>
</g>
<g id="clust9" class="cluster">
<title>cluster_DataManagementToolModule_providers</title>
<polygon fill="none" stroke="#000000" points="16,-78 16,-130 154,-130 154,-78 16,-78"/>
</g>
<!-- DataChooserComponent -->
<g id="node1" class="node">
<title>DataChooserComponent</title>
<polygon fill="#ffffb3" stroke="#000000" points="720.4158,-122 565.5842,-122 565.5842,-86 720.4158,-86 720.4158,-122"/>
<text text-anchor="middle" x="643" y="-99.8" font-family="Times,serif" font-size="14.00" fill="#000000">DataChooserComponent</text>
</g>
<!-- DataManagementToolModule -->
<g id="node4" class="node">
<title>DataManagementToolModule</title>
<polygon fill="#8dd3c7" stroke="#000000" points="441.5043,-187 438.5043,-191 417.5043,-191 414.5043,-187 256.4957,-187 256.4957,-151 441.5043,-151 441.5043,-187"/>
<text text-anchor="middle" x="349" y="-164.8" font-family="Times,serif" font-size="14.00" fill="#000000">DataManagementToolModule</text>
</g>
<!-- DataChooserComponent&#45;&gt;DataManagementToolModule -->
<g id="edge1" class="edge">
<title>DataChooserComponent&#45;&gt;DataManagementToolModule</title>
<path fill="none" stroke="#000000" d="M643,-122.1061C643,-141.3391 643,-169 643,-169 643,-169 451.6199,-169 451.6199,-169"/>
<polygon fill="#000000" stroke="#000000" points="451.6199,-165.5001 441.6199,-169 451.6199,-172.5001 451.6199,-165.5001"/>
</g>
<!-- DataChooserSettingsComponent -->
<g id="node2" class="node">
<title>DataChooserSettingsComponent</title>
<polygon fill="#ffffb3" stroke="#000000" points="547.5294,-122 348.4706,-122 348.4706,-86 547.5294,-86 547.5294,-122"/>
<text text-anchor="middle" x="448" y="-99.8" font-family="Times,serif" font-size="14.00" fill="#000000">DataChooserSettingsComponent</text>
</g>
<!-- DataChooserSettingsComponent&#45;&gt;DataManagementToolModule -->
<g id="edge2" class="edge">
<title>DataChooserSettingsComponent&#45;&gt;DataManagementToolModule</title>
<path fill="none" stroke="#000000" d="M394.9937,-122.1061C394.9937,-122.1061 394.9937,-140.991 394.9937,-140.991"/>
<polygon fill="#000000" stroke="#000000" points="391.4938,-140.9909 394.9937,-150.991 398.4938,-140.991 391.4938,-140.9909"/>
</g>
<!-- ResponseTreeComponent -->
<g id="node3" class="node">
<title>ResponseTreeComponent</title>
<polygon fill="#ffffb3" stroke="#000000" points="330.1302,-122 169.8698,-122 169.8698,-86 330.1302,-86 330.1302,-122"/>
<text text-anchor="middle" x="250" y="-99.8" font-family="Times,serif" font-size="14.00" fill="#000000">ResponseTreeComponent</text>
</g>
<!-- ResponseTreeComponent&#45;&gt;DataManagementToolModule -->
<g id="edge3" class="edge">
<title>ResponseTreeComponent&#45;&gt;DataManagementToolModule</title>
<path fill="none" stroke="#000000" d="M293.2816,-122.1061C293.2816,-122.1061 293.2816,-140.991 293.2816,-140.991"/>
<polygon fill="#000000" stroke="#000000" points="289.7816,-140.9909 293.2816,-150.991 296.7816,-140.991 289.7816,-140.9909"/>
</g>
<!-- DataChooserComponent  -->
<g id="node5" class="node">
<title>DataChooserComponent </title>
<polygon fill="#fb8072" stroke="#000000" points="427.9152,-252 270.0848,-252 270.0848,-216 427.9152,-216 427.9152,-252"/>
<text text-anchor="middle" x="349" y="-229.8" font-family="Times,serif" font-size="14.00" fill="#000000">DataChooserComponent </text>
</g>
<!-- DataManagementToolModule&#45;&gt;DataChooserComponent  -->
<g id="edge4" class="edge">
<title>DataManagementToolModule&#45;&gt;DataChooserComponent </title>
<path fill="none" stroke="#000000" stroke-dasharray="5,2" d="M349,-187.1061C349,-187.1061 349,-205.991 349,-205.991"/>
<polygon fill="#000000" stroke="#000000" points="345.5001,-205.9909 349,-215.991 352.5001,-205.991 345.5001,-205.9909"/>
</g>
<!-- FileDatabase -->
<g id="node6" class="node">
<title>FileDatabase</title>
<ellipse fill="#fdb462" stroke="#000000" cx="85" cy="-104" rx="61.3896" ry="18"/>
<text text-anchor="middle" x="85" y="-99.8" font-family="Times,serif" font-size="14.00" fill="#000000">FileDatabase</text>
</g>
<!-- FileDatabase&#45;&gt;DataManagementToolModule -->
<g id="edge5" class="edge">
<title>FileDatabase&#45;&gt;DataManagementToolModule</title>
<path fill="none" stroke="#000000" d="M85,-122.1061C85,-141.3391 85,-169 85,-169 85,-169 246.2947,-169 246.2947,-169"/>
<polygon fill="#000000" stroke="#000000" points="246.2947,-172.5001 256.2947,-169 246.2947,-165.5001 246.2947,-172.5001"/>
</g>
</g>
</svg>
