<?xml version="1.0" encoding="UTF-8" standalone="no"?>
<!DOCTYPE svg PUBLIC "-//W3C//DTD SVG 1.1//EN"
 "http://www.w3.org/Graphics/SVG/1.1/DTD/svg11.dtd">
<!-- Generated by graphviz version 2.40.1 (20161225.0304)
 -->
<!-- Title: dependencies Pages: 1 -->
<svg width="719pt" height="211pt"
 viewBox="0.00 0.00 719.00 211.00" xmlns="http://www.w3.org/2000/svg" xmlns:xlink="http://www.w3.org/1999/xlink">
<g id="graph0" class="graph" transform="scale(1 1) rotate(0) translate(4 207)">
<title>dependencies</title>
<polygon fill="#ffffff" stroke="transparent" points="-4,4 -4,-207 715,-207 715,4 -4,4"/>
<text text-anchor="start" x="334.5091" y="-42.4" font-family="sans-serif" font-weight="bold" font-size="14.00" fill="#000000">Legend</text>
<polygon fill="#ffffb3" stroke="transparent" points="121.5,-10 121.5,-30 141.5,-30 141.5,-10 121.5,-10"/>
<text text-anchor="start" x="145.129" y="-15.4" font-family="sans-serif" font-size="14.00" fill="#000000"> &#160;Declarations</text>
<polygon fill="#8dd3c7" stroke="transparent" points="234.5,-10 234.5,-30 254.5,-30 254.5,-10 234.5,-10"/>
<text text-anchor="start" x="258.2251" y="-15.4" font-family="sans-serif" font-size="14.00" fill="#000000"> &#160;Module</text>
<polygon fill="#80b1d3" stroke="transparent" points="320.5,-10 320.5,-30 340.5,-30 340.5,-10 320.5,-10"/>
<text text-anchor="start" x="344.2812" y="-15.4" font-family="sans-serif" font-size="14.00" fill="#000000"> &#160;Bootstrap</text>
<polygon fill="#fdb462" stroke="transparent" points="417.5,-10 417.5,-30 437.5,-30 437.5,-10 417.5,-10"/>
<text text-anchor="start" x="441.1732" y="-15.4" font-family="sans-serif" font-size="14.00" fill="#000000"> &#160;Providers</text>
<polygon fill="#fb8072" stroke="transparent" points="513.5,-10 513.5,-30 533.5,-30 533.5,-10 513.5,-10"/>
<text text-anchor="start" x="537.2258" y="-15.4" font-family="sans-serif" font-size="14.00" fill="#000000"> &#160;Exports</text>
<g id="clust1" class="cluster">
<title>cluster_MetadataViewModule</title>
<polygon fill="none" stroke="#000000" stroke-dasharray="1,5" points="8,-70 8,-195 703,-195 703,-70 8,-70"/>
</g>
<g id="clust2" class="cluster">
<title>cluster_MetadataViewModule_declarations</title>
<polygon fill="none" stroke="#000000" points="515,-78 515,-130 695,-130 695,-78 515,-78"/>
</g>
<g id="clust4" class="cluster">
<title>cluster_MetadataViewModule_imports</title>
<polygon fill="none" stroke="#000000" points="16,-78 16,-130 507,-130 507,-78 16,-78"/>
</g>
<!-- MetadataViewComponent -->
<g id="node1" class="node">
<title>MetadataViewComponent</title>
<polygon fill="#ffffb3" stroke="#000000" points="686.7352,-122 523.2648,-122 523.2648,-86 686.7352,-86 686.7352,-122"/>
<text text-anchor="middle" x="605" y="-99.8" font-family="Times,serif" font-size="14.00" fill="#000000">MetadataViewComponent</text>
</g>
<!-- MetadataViewModule -->
<g id="node2" class="node">
<title>MetadataViewModule</title>
<polygon fill="#8dd3c7" stroke="#000000" points="408.9524,-187 405.9524,-191 384.9524,-191 381.9524,-187 267.0476,-187 267.0476,-151 408.9524,-151 408.9524,-187"/>
<text text-anchor="middle" x="338" y="-164.8" font-family="Times,serif" font-size="14.00" fill="#000000">MetadataViewModule</text>
</g>
<!-- MetadataViewComponent&#45;&gt;MetadataViewModule -->
<g id="edge1" class="edge">
<title>MetadataViewComponent&#45;&gt;MetadataViewModule</title>
<path fill="none" stroke="#000000" d="M605,-122.1061C605,-141.3391 605,-169 605,-169 605,-169 419.2004,-169 419.2004,-169"/>
<polygon fill="#000000" stroke="#000000" points="419.2004,-165.5001 409.2004,-169 419.2003,-172.5001 419.2004,-165.5001"/>
</g>
<!-- D3jsModule -->
<g id="node3" class="node">
<title>D3jsModule</title>
<polygon fill="#8dd3c7" stroke="#000000" points="498.9916,-122 495.9916,-126 474.9916,-126 471.9916,-122 413.0084,-122 413.0084,-86 498.9916,-86 498.9916,-122"/>
<text text-anchor="middle" x="456" y="-99.8" font-family="Times,serif" font-size="14.00" fill="#000000">D3jsModule</text>
</g>
<!-- D3jsModule&#45;&gt;MetadataViewModule -->
<g id="edge2" class="edge">
<title>D3jsModule&#45;&gt;MetadataViewModule</title>
<path fill="none" stroke="#000000" d="M412.8105,-104C406.5533,-104 402.1767,-104 402.1767,-104 402.1767,-104 402.1767,-140.8939 402.1767,-140.8939"/>
<polygon fill="#000000" stroke="#000000" points="398.6768,-140.8938 402.1767,-150.8939 405.6768,-140.8939 398.6768,-140.8938"/>
</g>
<!-- FactSheetModule -->
<g id="node4" class="node">
<title>FactSheetModule</title>
<polygon fill="#8dd3c7" stroke="#000000" points="395.2549,-122 392.2549,-126 371.2549,-126 368.2549,-122 280.7451,-122 280.7451,-86 395.2549,-86 395.2549,-122"/>
<text text-anchor="middle" x="338" y="-99.8" font-family="Times,serif" font-size="14.00" fill="#000000">FactSheetModule</text>
</g>
<!-- FactSheetModule&#45;&gt;MetadataViewModule -->
<g id="edge3" class="edge">
<title>FactSheetModule&#45;&gt;MetadataViewModule</title>
<path fill="none" stroke="#000000" d="M338,-122.1061C338,-122.1061 338,-140.991 338,-140.991"/>
<polygon fill="#000000" stroke="#000000" points="334.5001,-140.9909 338,-150.991 341.5001,-140.991 334.5001,-140.9909"/>
</g>
<!-- MaterialModule -->
<g id="node5" class="node">
<title>MaterialModule</title>
<polygon fill="#8dd3c7" stroke="#000000" points="262.4706,-122 259.4706,-126 238.4706,-126 235.4706,-122 155.5294,-122 155.5294,-86 262.4706,-86 262.4706,-122"/>
<text text-anchor="middle" x="209" y="-99.8" font-family="Times,serif" font-size="14.00" fill="#000000">MaterialModule</text>
</g>
<!-- MaterialModule&#45;&gt;MetadataViewModule -->
<g id="edge4" class="edge">
<title>MaterialModule&#45;&gt;MetadataViewModule</title>
<path fill="none" stroke="#000000" d="M262.5319,-104C269.2495,-104 273.8233,-104 273.8233,-104 273.8233,-104 273.8233,-140.8939 273.8233,-140.8939"/>
<polygon fill="#000000" stroke="#000000" points="270.3233,-140.8938 273.8233,-150.8939 277.3233,-140.8939 270.3233,-140.8938"/>
</g>
<!-- TagChipsModule -->
<g id="node6" class="node">
<title>TagChipsModule</title>
<polygon fill="#8dd3c7" stroke="#000000" points="137.9888,-122 134.9888,-126 113.9888,-126 110.9888,-122 24.0112,-122 24.0112,-86 137.9888,-86 137.9888,-122"/>
<text text-anchor="middle" x="81" y="-99.8" font-family="Times,serif" font-size="14.00" fill="#000000">TagChipsModule</text>
</g>
<!-- TagChipsModule&#45;&gt;MetadataViewModule -->
<g id="edge5" class="edge">
<title>TagChipsModule&#45;&gt;MetadataViewModule</title>
<path fill="none" stroke="#000000" d="M81,-122.1061C81,-141.3391 81,-169 81,-169 81,-169 256.7525,-169 256.7525,-169"/>
<polygon fill="#000000" stroke="#000000" points="256.7525,-172.5001 266.7525,-169 256.7524,-165.5001 256.7525,-172.5001"/>
</g>
</g>
</svg>
