<?xml version="1.0" encoding="UTF-8" standalone="no"?>
<!DOCTYPE svg PUBLIC "-//W3C//DTD SVG 1.1//EN"
 "http://www.w3.org/Graphics/SVG/1.1/DTD/svg11.dtd">
<!-- Generated by graphviz version 2.40.1 (20161225.0304)
 -->
<!-- Title: dependencies Pages: 1 -->
<svg width="1010pt" height="211pt"
 viewBox="0.00 0.00 1010.00 211.00" xmlns="http://www.w3.org/2000/svg" xmlns:xlink="http://www.w3.org/1999/xlink">
<g id="graph0" class="graph" transform="scale(1 1) rotate(0) translate(4 207)">
<title>dependencies</title>
<polygon fill="#ffffff" stroke="transparent" points="-4,4 -4,-207 1006,-207 1006,4 -4,4"/>
<text text-anchor="start" x="480.0091" y="-42.4" font-family="sans-serif" font-weight="bold" font-size="14.00" fill="#000000">Legend</text>
<polygon fill="#ffffb3" stroke="transparent" points="267,-10 267,-30 287,-30 287,-10 267,-10"/>
<text text-anchor="start" x="290.629" y="-15.4" font-family="sans-serif" font-size="14.00" fill="#000000"> &#160;Declarations</text>
<polygon fill="#8dd3c7" stroke="transparent" points="380,-10 380,-30 400,-30 400,-10 380,-10"/>
<text text-anchor="start" x="403.7251" y="-15.4" font-family="sans-serif" font-size="14.00" fill="#000000"> &#160;Module</text>
<polygon fill="#80b1d3" stroke="transparent" points="466,-10 466,-30 486,-30 486,-10 466,-10"/>
<text text-anchor="start" x="489.7812" y="-15.4" font-family="sans-serif" font-size="14.00" fill="#000000"> &#160;Bootstrap</text>
<polygon fill="#fdb462" stroke="transparent" points="563,-10 563,-30 583,-30 583,-10 563,-10"/>
<text text-anchor="start" x="586.6732" y="-15.4" font-family="sans-serif" font-size="14.00" fill="#000000"> &#160;Providers</text>
<polygon fill="#fb8072" stroke="transparent" points="659,-10 659,-30 679,-30 679,-10 659,-10"/>
<text text-anchor="start" x="682.7258" y="-15.4" font-family="sans-serif" font-size="14.00" fill="#000000"> &#160;Exports</text>
<g id="clust1" class="cluster">
<title>cluster_MetadataViewModule</title>
<polygon fill="none" stroke="#000000" stroke-dasharray="1,5" points="8,-70 8,-195 994,-195 994,-70 8,-70"/>
</g>
<g id="clust2" class="cluster">
<title>cluster_MetadataViewModule_declarations</title>
<polygon fill="none" stroke="#000000" points="806,-78 806,-130 986,-130 986,-78 806,-78"/>
</g>
<g id="clust4" class="cluster">
<title>cluster_MetadataViewModule_imports</title>
<polygon fill="none" stroke="#000000" points="16,-78 16,-130 798,-130 798,-78 16,-78"/>
</g>
<!-- MetadataViewComponent -->
<g id="node1" class="node">
<title>MetadataViewComponent</title>
<polygon fill="#ffffb3" stroke="#000000" points="977.7352,-122 814.2648,-122 814.2648,-86 977.7352,-86 977.7352,-122"/>
<text text-anchor="middle" x="896" y="-99.8" font-family="Times,serif" font-size="14.00" fill="#000000">MetadataViewComponent</text>
</g>
<!-- MetadataViewModule -->
<g id="node2" class="node">
<title>MetadataViewModule</title>
<polygon fill="#8dd3c7" stroke="#000000" points="570.9524,-187 567.9524,-191 546.9524,-191 543.9524,-187 429.0476,-187 429.0476,-151 570.9524,-151 570.9524,-187"/>
<text text-anchor="middle" x="500" y="-164.8" font-family="Times,serif" font-size="14.00" fill="#000000">MetadataViewModule</text>
</g>
<!-- MetadataViewComponent&#45;&gt;MetadataViewModule -->
<g id="edge1" class="edge">
<title>MetadataViewComponent&#45;&gt;MetadataViewModule</title>
<path fill="none" stroke="#000000" d="M896,-122.2843C896,-143.3211 896,-175 896,-175 896,-175 581.2542,-175 581.2542,-175"/>
<polygon fill="#000000" stroke="#000000" points="581.2543,-171.5001 571.2542,-175 581.2542,-178.5001 581.2543,-171.5001"/>
</g>
<!-- D3jsModule -->
<g id="node3" class="node">
<title>D3jsModule</title>
<polygon fill="#8dd3c7" stroke="#000000" points="789.9916,-122 786.9916,-126 765.9916,-126 762.9916,-122 704.0084,-122 704.0084,-86 789.9916,-86 789.9916,-122"/>
<text text-anchor="middle" x="747" y="-99.8" font-family="Times,serif" font-size="14.00" fill="#000000">D3jsModule</text>
</g>
<!-- D3jsModule&#45;&gt;MetadataViewModule -->
<g id="edge2" class="edge">
<title>D3jsModule&#45;&gt;MetadataViewModule</title>
<path fill="none" stroke="#000000" d="M747,-122.0225C747,-139.3734 747,-163 747,-163 747,-163 581.1113,-163 581.1113,-163"/>
<polygon fill="#000000" stroke="#000000" points="581.1113,-159.5001 571.1113,-163 581.1112,-166.5001 581.1113,-159.5001"/>
</g>
<!-- FactSheetModule -->
<g id="node4" class="node">
<title>FactSheetModule</title>
<polygon fill="#8dd3c7" stroke="#000000" points="686.2549,-122 683.2549,-126 662.2549,-126 659.2549,-122 571.7451,-122 571.7451,-86 686.2549,-86 686.2549,-122"/>
<text text-anchor="middle" x="629" y="-99.8" font-family="Times,serif" font-size="14.00" fill="#000000">FactSheetModule</text>
</g>
<!-- FactSheetModule&#45;&gt;MetadataViewModule -->
<g id="edge3" class="edge">
<title>FactSheetModule&#45;&gt;MetadataViewModule</title>
<path fill="none" stroke="#000000" d="M571.5147,-104C565.8985,-104 562.2307,-104 562.2307,-104 562.2307,-104 562.2307,-140.8939 562.2307,-140.8939"/>
<polygon fill="#000000" stroke="#000000" points="558.7308,-140.8938 562.2307,-150.8939 565.7308,-140.8939 558.7308,-140.8938"/>
</g>
<!-- MaterialModule -->
<g id="node5" class="node">
<title>MaterialModule</title>
<polygon fill="#8dd3c7" stroke="#000000" points="553.4706,-122 550.4706,-126 529.4706,-126 526.4706,-122 446.5294,-122 446.5294,-86 553.4706,-86 553.4706,-122"/>
<text text-anchor="middle" x="500" y="-99.8" font-family="Times,serif" font-size="14.00" fill="#000000">MaterialModule</text>
</g>
<!-- MaterialModule&#45;&gt;MetadataViewModule -->
<g id="edge4" class="edge">
<title>MaterialModule&#45;&gt;MetadataViewModule</title>
<path fill="none" stroke="#000000" d="M500,-122.1061C500,-122.1061 500,-140.991 500,-140.991"/>
<polygon fill="#000000" stroke="#000000" points="496.5001,-140.9909 500,-150.991 503.5001,-140.991 496.5001,-140.9909"/>
</g>
<!-- Project0041Module -->
<g id="node6" class="node">
<title>Project0041Module</title>
<polygon fill="#8dd3c7" stroke="#000000" points="428.7036,-122 425.7036,-126 404.7036,-126 401.7036,-122 301.2964,-122 301.2964,-86 428.7036,-86 428.7036,-122"/>
<text text-anchor="middle" x="365" y="-99.8" font-family="Times,serif" font-size="14.00" fill="#000000">Project0041Module</text>
</g>
<!-- Project0041Module&#45;&gt;MetadataViewModule -->
<g id="edge5" class="edge">
<title>Project0041Module&#45;&gt;MetadataViewModule</title>
<path fill="none" stroke="#000000" d="M428.8463,-104C434.2871,-104 437.7693,-104 437.7693,-104 437.7693,-104 437.7693,-140.8939 437.7693,-140.8939"/>
<polygon fill="#000000" stroke="#000000" points="434.2693,-140.8938 437.7693,-150.8939 441.2693,-140.8939 434.2693,-140.8938"/>
</g>
<!-- Project0062Module -->
<g id="node7" class="node">
<title>Project0062Module</title>
<polygon fill="#8dd3c7" stroke="#000000" points="283.7036,-122 280.7036,-126 259.7036,-126 256.7036,-122 156.2964,-122 156.2964,-86 283.7036,-86 283.7036,-122"/>
<text text-anchor="middle" x="220" y="-99.8" font-family="Times,serif" font-size="14.00" fill="#000000">Project0062Module</text>
</g>
<!-- Project0062Module&#45;&gt;MetadataViewModule -->
<g id="edge6" class="edge">
<title>Project0062Module&#45;&gt;MetadataViewModule</title>
<path fill="none" stroke="#000000" d="M220,-122.0225C220,-139.3734 220,-163 220,-163 220,-163 418.9822,-163 418.9822,-163"/>
<polygon fill="#000000" stroke="#000000" points="418.9822,-166.5001 428.9822,-163 418.9822,-159.5001 418.9822,-166.5001"/>
</g>
<!-- TagChipsModule -->
<g id="node8" class="node">
<title>TagChipsModule</title>
<polygon fill="#8dd3c7" stroke="#000000" points="137.9888,-122 134.9888,-126 113.9888,-126 110.9888,-122 24.0112,-122 24.0112,-86 137.9888,-86 137.9888,-122"/>
<text text-anchor="middle" x="81" y="-99.8" font-family="Times,serif" font-size="14.00" fill="#000000">TagChipsModule</text>
</g>
<!-- TagChipsModule&#45;&gt;MetadataViewModule -->
<g id="edge7" class="edge">
<title>TagChipsModule&#45;&gt;MetadataViewModule</title>
<path fill="none" stroke="#000000" d="M81,-122.2843C81,-143.3211 81,-175 81,-175 81,-175 418.9224,-175 418.9224,-175"/>
<polygon fill="#000000" stroke="#000000" points="418.9224,-178.5001 428.9224,-175 418.9223,-171.5001 418.9224,-178.5001"/>
</g>
</g>
</svg>
