<?xml version="1.0" encoding="UTF-8" standalone="no"?>
<!DOCTYPE svg PUBLIC "-//W3C//DTD SVG 1.1//EN"
 "http://www.w3.org/Graphics/SVG/1.1/DTD/svg11.dtd">
<!-- Generated by graphviz version 2.40.1 (20161225.0304)
 -->
<!-- Title: dependencies Pages: 1 -->
<svg width="1219pt" height="211pt"
 viewBox="0.00 0.00 1219.00 211.00" xmlns="http://www.w3.org/2000/svg" xmlns:xlink="http://www.w3.org/1999/xlink">
<g id="graph0" class="graph" transform="scale(1 1) rotate(0) translate(4 207)">
<title>dependencies</title>
<polygon fill="#ffffff" stroke="transparent" points="-4,4 -4,-207 1215,-207 1215,4 -4,4"/>
<text text-anchor="start" x="584.5091" y="-42.4" font-family="sans-serif" font-weight="bold" font-size="14.00" fill="#000000">Legend</text>
<polygon fill="#ffffb3" stroke="transparent" points="371.5,-10 371.5,-30 391.5,-30 391.5,-10 371.5,-10"/>
<text text-anchor="start" x="395.129" y="-15.4" font-family="sans-serif" font-size="14.00" fill="#000000"> &#160;Declarations</text>
<polygon fill="#8dd3c7" stroke="transparent" points="484.5,-10 484.5,-30 504.5,-30 504.5,-10 484.5,-10"/>
<text text-anchor="start" x="508.2251" y="-15.4" font-family="sans-serif" font-size="14.00" fill="#000000"> &#160;Module</text>
<polygon fill="#80b1d3" stroke="transparent" points="570.5,-10 570.5,-30 590.5,-30 590.5,-10 570.5,-10"/>
<text text-anchor="start" x="594.2812" y="-15.4" font-family="sans-serif" font-size="14.00" fill="#000000"> &#160;Bootstrap</text>
<polygon fill="#fdb462" stroke="transparent" points="667.5,-10 667.5,-30 687.5,-30 687.5,-10 667.5,-10"/>
<text text-anchor="start" x="691.1732" y="-15.4" font-family="sans-serif" font-size="14.00" fill="#000000"> &#160;Providers</text>
<polygon fill="#fb8072" stroke="transparent" points="763.5,-10 763.5,-30 783.5,-30 783.5,-10 763.5,-10"/>
<text text-anchor="start" x="787.2258" y="-15.4" font-family="sans-serif" font-size="14.00" fill="#000000"> &#160;Exports</text>
<g id="clust1" class="cluster">
<title>cluster_MetadataViewModule</title>
<polygon fill="none" stroke="#000000" stroke-dasharray="1,5" points="8,-70 8,-195 1203,-195 1203,-70 8,-70"/>
</g>
<g id="clust2" class="cluster">
<title>cluster_MetadataViewModule_declarations</title>
<polygon fill="none" stroke="#000000" points="1015,-78 1015,-130 1195,-130 1195,-78 1015,-78"/>
</g>
<g id="clust4" class="cluster">
<title>cluster_MetadataViewModule_imports</title>
<polygon fill="none" stroke="#000000" points="16,-78 16,-130 1007,-130 1007,-78 16,-78"/>
</g>
<!-- MetadataViewComponent -->
<g id="node1" class="node">
<title>MetadataViewComponent</title>
<polygon fill="#ffffb3" stroke="#000000" points="1186.7352,-122 1023.2648,-122 1023.2648,-86 1186.7352,-86 1186.7352,-122"/>
<text text-anchor="middle" x="1105" y="-99.8" font-family="Times,serif" font-size="14.00" fill="#000000">MetadataViewComponent</text>
</g>
<!-- MetadataViewModule -->
<g id="node2" class="node">
<title>MetadataViewModule</title>
<polygon fill="#8dd3c7" stroke="#000000" points="653.9524,-187 650.9524,-191 629.9524,-191 626.9524,-187 512.0476,-187 512.0476,-151 653.9524,-151 653.9524,-187"/>
<text text-anchor="middle" x="583" y="-164.8" font-family="Times,serif" font-size="14.00" fill="#000000">MetadataViewModule</text>
</g>
<!-- MetadataViewComponent&#45;&gt;MetadataViewModule -->
<g id="edge1" class="edge">
<title>MetadataViewComponent&#45;&gt;MetadataViewModule</title>
<path fill="none" stroke="#000000" d="M1105,-122.2921C1105,-144.2057 1105,-178 1105,-178 1105,-178 664.2147,-178 664.2147,-178"/>
<polygon fill="#000000" stroke="#000000" points="664.2148,-174.5001 654.2147,-178 664.2147,-181.5001 664.2148,-174.5001"/>
</g>
<!-- D3jsModule -->
<g id="node3" class="node">
<title>D3jsModule</title>
<polygon fill="#8dd3c7" stroke="#000000" points="998.9916,-122 995.9916,-126 974.9916,-126 971.9916,-122 913.0084,-122 913.0084,-86 998.9916,-86 998.9916,-122"/>
<text text-anchor="middle" x="956" y="-99.8" font-family="Times,serif" font-size="14.00" fill="#000000">D3jsModule</text>
</g>
<!-- D3jsModule&#45;&gt;MetadataViewModule -->
<g id="edge2" class="edge">
<title>D3jsModule&#45;&gt;MetadataViewModule</title>
<path fill="none" stroke="#000000" d="M956,-122.1061C956,-141.3391 956,-169 956,-169 956,-169 664.0364,-169 664.0364,-169"/>
<polygon fill="#000000" stroke="#000000" points="664.0365,-165.5001 654.0364,-169 664.0364,-172.5001 664.0365,-165.5001"/>
</g>
<!-- FactSheetModule -->
<g id="node4" class="node">
<title>FactSheetModule</title>
<polygon fill="#8dd3c7" stroke="#000000" points="895.2549,-122 892.2549,-126 871.2549,-126 868.2549,-122 780.7451,-122 780.7451,-86 895.2549,-86 895.2549,-122"/>
<text text-anchor="middle" x="838" y="-99.8" font-family="Times,serif" font-size="14.00" fill="#000000">FactSheetModule</text>
</g>
<!-- FactSheetModule&#45;&gt;MetadataViewModule -->
<g id="edge3" class="edge">
<title>FactSheetModule&#45;&gt;MetadataViewModule</title>
<path fill="none" stroke="#000000" d="M838,-122.027C838,-138.3976 838,-160 838,-160 838,-160 664.0317,-160 664.0317,-160"/>
<polygon fill="#000000" stroke="#000000" points="664.0318,-156.5001 654.0317,-160 664.0317,-163.5001 664.0318,-156.5001"/>
</g>
<!-- HierarchicalNavigationModule -->
<g id="node5" class="node">
<title>HierarchicalNavigationModule</title>
<polygon fill="#8dd3c7" stroke="#000000" points="762.43,-122 759.43,-126 738.43,-126 735.43,-122 571.57,-122 571.57,-86 762.43,-86 762.43,-122"/>
<text text-anchor="middle" x="667" y="-99.8" font-family="Times,serif" font-size="14.00" fill="#000000">HierarchicalNavigationModule</text>
</g>
<!-- HierarchicalNavigationModule&#45;&gt;MetadataViewModule -->
<g id="edge4" class="edge">
<title>HierarchicalNavigationModule&#45;&gt;MetadataViewModule</title>
<path fill="none" stroke="#000000" d="M612.7556,-122.1061C612.7556,-122.1061 612.7556,-140.991 612.7556,-140.991"/>
<polygon fill="#000000" stroke="#000000" points="609.2557,-140.9909 612.7556,-150.991 616.2557,-140.991 609.2557,-140.9909"/>
</g>
<!-- MaterialModule -->
<g id="node6" class="node">
<title>MaterialModule</title>
<polygon fill="#8dd3c7" stroke="#000000" points="553.4706,-122 550.4706,-126 529.4706,-126 526.4706,-122 446.5294,-122 446.5294,-86 553.4706,-86 553.4706,-122"/>
<text text-anchor="middle" x="500" y="-99.8" font-family="Times,serif" font-size="14.00" fill="#000000">MaterialModule</text>
</g>
<!-- MaterialModule&#45;&gt;MetadataViewModule -->
<g id="edge5" class="edge">
<title>MaterialModule&#45;&gt;MetadataViewModule</title>
<path fill="none" stroke="#000000" d="M532.7546,-122.1061C532.7546,-122.1061 532.7546,-140.991 532.7546,-140.991"/>
<polygon fill="#000000" stroke="#000000" points="529.2546,-140.9909 532.7546,-150.991 536.2546,-140.991 529.2546,-140.9909"/>
</g>
<!-- Project0041Module -->
<g id="node7" class="node">
<title>Project0041Module</title>
<polygon fill="#8dd3c7" stroke="#000000" points="428.7036,-122 425.7036,-126 404.7036,-126 401.7036,-122 301.2964,-122 301.2964,-86 428.7036,-86 428.7036,-122"/>
<text text-anchor="middle" x="365" y="-99.8" font-family="Times,serif" font-size="14.00" fill="#000000">Project0041Module</text>
</g>
<!-- Project0041Module&#45;&gt;MetadataViewModule -->
<g id="edge6" class="edge">
<title>Project0041Module&#45;&gt;MetadataViewModule</title>
<path fill="none" stroke="#000000" d="M365,-122.027C365,-138.3976 365,-160 365,-160 365,-160 501.9203,-160 501.9203,-160"/>
<polygon fill="#000000" stroke="#000000" points="501.9203,-163.5001 511.9203,-160 501.9203,-156.5001 501.9203,-163.5001"/>
</g>
<!-- Project0062Module -->
<g id="node8" class="node">
<title>Project0062Module</title>
<polygon fill="#8dd3c7" stroke="#000000" points="283.7036,-122 280.7036,-126 259.7036,-126 256.7036,-122 156.2964,-122 156.2964,-86 283.7036,-86 283.7036,-122"/>
<text text-anchor="middle" x="220" y="-99.8" font-family="Times,serif" font-size="14.00" fill="#000000">Project0062Module</text>
</g>
<!-- Project0062Module&#45;&gt;MetadataViewModule -->
<g id="edge7" class="edge">
<title>Project0062Module&#45;&gt;MetadataViewModule</title>
<path fill="none" stroke="#000000" d="M220,-122.1061C220,-141.3391 220,-169 220,-169 220,-169 501.716,-169 501.716,-169"/>
<polygon fill="#000000" stroke="#000000" points="501.716,-172.5001 511.716,-169 501.716,-165.5001 501.716,-172.5001"/>
</g>
<!-- TagChipsModule -->
<g id="node9" class="node">
<title>TagChipsModule</title>
<polygon fill="#8dd3c7" stroke="#000000" points="137.9888,-122 134.9888,-126 113.9888,-126 110.9888,-122 24.0112,-122 24.0112,-86 137.9888,-86 137.9888,-122"/>
<text text-anchor="middle" x="81" y="-99.8" font-family="Times,serif" font-size="14.00" fill="#000000">TagChipsModule</text>
</g>
<!-- TagChipsModule&#45;&gt;MetadataViewModule -->
<g id="edge8" class="edge">
<title>TagChipsModule&#45;&gt;MetadataViewModule</title>
<path fill="none" stroke="#000000" d="M81,-122.2921C81,-144.2057 81,-178 81,-178 81,-178 501.8748,-178 501.8748,-178"/>
<polygon fill="#000000" stroke="#000000" points="501.8748,-181.5001 511.8748,-178 501.8747,-174.5001 501.8748,-181.5001"/>
</g>
</g>
</svg>
