<?xml version="1.0" encoding="UTF-8" standalone="no"?>
<!DOCTYPE svg PUBLIC "-//W3C//DTD SVG 1.1//EN"
 "http://www.w3.org/Graphics/SVG/1.1/DTD/svg11.dtd">
<!-- Generated by graphviz version 2.40.1 (20161225.0304)
 -->
<!-- Title: dependencies Pages: 1 -->
<svg width="1450pt" height="284pt"
 viewBox="0.00 0.00 1450.00 284.00" xmlns="http://www.w3.org/2000/svg" xmlns:xlink="http://www.w3.org/1999/xlink">
<g id="graph0" class="graph" transform="scale(1 1) rotate(0) translate(4 280)">
<title>dependencies</title>
<polygon fill="#ffffff" stroke="transparent" points="-4,4 -4,-280 1446,-280 1446,4 -4,4"/>
<text text-anchor="start" x="700.0091" y="-42.4" font-family="sans-serif" font-weight="bold" font-size="14.00" fill="#000000">Legend</text>
<polygon fill="#ffffb3" stroke="transparent" points="487,-10 487,-30 507,-30 507,-10 487,-10"/>
<text text-anchor="start" x="510.629" y="-15.4" font-family="sans-serif" font-size="14.00" fill="#000000"> &#160;Declarations</text>
<polygon fill="#8dd3c7" stroke="transparent" points="600,-10 600,-30 620,-30 620,-10 600,-10"/>
<text text-anchor="start" x="623.7251" y="-15.4" font-family="sans-serif" font-size="14.00" fill="#000000"> &#160;Module</text>
<polygon fill="#80b1d3" stroke="transparent" points="686,-10 686,-30 706,-30 706,-10 686,-10"/>
<text text-anchor="start" x="709.7812" y="-15.4" font-family="sans-serif" font-size="14.00" fill="#000000"> &#160;Bootstrap</text>
<polygon fill="#fdb462" stroke="transparent" points="783,-10 783,-30 803,-30 803,-10 783,-10"/>
<text text-anchor="start" x="806.6732" y="-15.4" font-family="sans-serif" font-size="14.00" fill="#000000"> &#160;Providers</text>
<polygon fill="#fb8072" stroke="transparent" points="879,-10 879,-30 899,-30 899,-10 879,-10"/>
<text text-anchor="start" x="902.7258" y="-15.4" font-family="sans-serif" font-size="14.00" fill="#000000"> &#160;Exports</text>
<g id="clust1" class="cluster">
<title>cluster_Project0041Module</title>
<polygon fill="none" stroke="#000000" stroke-dasharray="1,5" points="8,-70 8,-268 1434,-268 1434,-70 8,-70"/>
</g>
<g id="clust2" class="cluster">
<title>cluster_Project0041Module_declarations</title>
<polygon fill="none" stroke="#000000" points="734,-78 734,-130 1426,-130 1426,-78 734,-78"/>
</g>
<g id="clust7" class="cluster">
<title>cluster_Project0041Module_imports</title>
<polygon fill="none" stroke="#000000" points="254,-78 254,-130 726,-130 726,-78 254,-78"/>
</g>
<g id="clust8" class="cluster">
<title>cluster_Project0041Module_exports</title>
<polygon fill="none" stroke="#000000" points="635,-208 635,-260 813,-260 813,-208 635,-208"/>
</g>
<g id="clust10" class="cluster">
<title>cluster_Project0041Module_providers</title>
<polygon fill="none" stroke="#000000" points="16,-78 16,-130 246,-130 246,-78 16,-78"/>
</g>
<!-- P0041EditionComponent -->
<g id="node1" class="node">
<title>P0041EditionComponent</title>
<polygon fill="#ffffb3" stroke="#000000" points="1418.3398,-122 1259.6602,-122 1259.6602,-86 1418.3398,-86 1418.3398,-122"/>
<text text-anchor="middle" x="1339" y="-99.8" font-family="Times,serif" font-size="14.00" fill="#000000">P0041EditionComponent</text>
</g>
<!-- Project0041Module -->
<g id="node5" class="node">
<title>Project0041Module</title>
<polygon fill="#8dd3c7" stroke="#000000" points="787.7036,-187 784.7036,-191 763.7036,-191 760.7036,-187 660.2964,-187 660.2964,-151 787.7036,-151 787.7036,-187"/>
<text text-anchor="middle" x="724" y="-164.8" font-family="Times,serif" font-size="14.00" fill="#000000">Project0041Module</text>
</g>
<!-- P0041EditionComponent&#45;&gt;Project0041Module -->
<g id="edge1" class="edge">
<title>P0041EditionComponent&#45;&gt;Project0041Module</title>
<path fill="none" stroke="#000000" d="M1339,-122.2921C1339,-144.2057 1339,-178 1339,-178 1339,-178 797.7871,-178 797.7871,-178"/>
<polygon fill="#000000" stroke="#000000" points="797.7872,-174.5001 787.7871,-178 797.7871,-181.5001 797.7872,-174.5001"/>
</g>
<!-- P0041KandaComponent -->
<g id="node2" class="node">
<title>P0041KandaComponent</title>
<polygon fill="#ffffb3" stroke="#000000" points="1241.6512,-122 1088.3488,-122 1088.3488,-86 1241.6512,-86 1241.6512,-122"/>
<text text-anchor="middle" x="1165" y="-99.8" font-family="Times,serif" font-size="14.00" fill="#000000">P0041KandaComponent</text>
</g>
<!-- P0041KandaComponent&#45;&gt;Project0041Module -->
<g id="edge2" class="edge">
<title>P0041KandaComponent&#45;&gt;Project0041Module</title>
<path fill="none" stroke="#000000" d="M1165,-122.1061C1165,-141.3391 1165,-169 1165,-169 1165,-169 797.6542,-169 797.6542,-169"/>
<polygon fill="#000000" stroke="#000000" points="797.6542,-165.5001 787.6542,-169 797.6542,-172.5001 797.6542,-165.5001"/>
</g>
<!-- P0041StropheComponent -->
<g id="node3" class="node">
<title>P0041StropheComponent</title>
<polygon fill="#ffffb3" stroke="#000000" points="1070.1638,-122 909.8362,-122 909.8362,-86 1070.1638,-86 1070.1638,-122"/>
<text text-anchor="middle" x="990" y="-99.8" font-family="Times,serif" font-size="14.00" fill="#000000">P0041StropheComponent</text>
</g>
<!-- P0041StropheComponent&#45;&gt;Project0041Module -->
<g id="edge3" class="edge">
<title>P0041StropheComponent&#45;&gt;Project0041Module</title>
<path fill="none" stroke="#000000" d="M990,-122.027C990,-138.3976 990,-160 990,-160 990,-160 797.7136,-160 797.7136,-160"/>
<polygon fill="#000000" stroke="#000000" points="797.7137,-156.5001 787.7136,-160 797.7136,-163.5001 797.7137,-156.5001"/>
</g>
<!-- P0041SuktaComponent -->
<g id="node4" class="node">
<title>P0041SuktaComponent</title>
<polygon fill="#ffffb3" stroke="#000000" points="891.5028,-122 742.4972,-122 742.4972,-86 891.5028,-86 891.5028,-122"/>
<text text-anchor="middle" x="817" y="-99.8" font-family="Times,serif" font-size="14.00" fill="#000000">P0041SuktaComponent</text>
</g>
<!-- P0041SuktaComponent&#45;&gt;Project0041Module -->
<g id="edge4" class="edge">
<title>P0041SuktaComponent&#45;&gt;Project0041Module</title>
<path fill="none" stroke="#000000" d="M765.0502,-122.1061C765.0502,-122.1061 765.0502,-140.991 765.0502,-140.991"/>
<polygon fill="#000000" stroke="#000000" points="761.5502,-140.9909 765.0502,-150.991 768.5502,-140.991 761.5502,-140.9909"/>
</g>
<!-- P0041EditionComponent  -->
<g id="node9" class="node">
<title>P0041EditionComponent </title>
<polygon fill="#fb8072" stroke="#000000" points="804.8395,-252 643.1605,-252 643.1605,-216 804.8395,-216 804.8395,-252"/>
<text text-anchor="middle" x="724" y="-229.8" font-family="Times,serif" font-size="14.00" fill="#000000">P0041EditionComponent </text>
</g>
<!-- Project0041Module&#45;&gt;P0041EditionComponent  -->
<g id="edge8" class="edge">
<title>Project0041Module&#45;&gt;P0041EditionComponent </title>
<path fill="none" stroke="#000000" stroke-dasharray="5,2" d="M724,-187.1061C724,-187.1061 724,-205.991 724,-205.991"/>
<polygon fill="#000000" stroke="#000000" points="720.5001,-205.9909 724,-215.991 727.5001,-205.991 720.5001,-205.9909"/>
</g>
<!-- ComplexTextViewsModule -->
<g id="node6" class="node">
<title>ComplexTextViewsModule</title>
<polygon fill="#8dd3c7" stroke="#000000" points="718.3033,-122 715.3033,-126 694.3033,-126 691.3033,-122 545.6967,-122 545.6967,-86 718.3033,-86 718.3033,-122"/>
<text text-anchor="middle" x="632" y="-99.8" font-family="Times,serif" font-size="14.00" fill="#000000">ComplexTextViewsModule</text>
</g>
<!-- ComplexTextViewsModule&#45;&gt;Project0041Module -->
<g id="edge5" class="edge">
<title>ComplexTextViewsModule&#45;&gt;Project0041Module</title>
<path fill="none" stroke="#000000" d="M689.2749,-122.1061C689.2749,-122.1061 689.2749,-140.991 689.2749,-140.991"/>
<polygon fill="#000000" stroke="#000000" points="685.775,-140.9909 689.2749,-150.991 692.775,-140.991 685.775,-140.9909"/>
</g>
<!-- RichTextModule -->
<g id="node7" class="node">
<title>RichTextModule</title>
<polygon fill="#8dd3c7" stroke="#000000" points="527.6499,-122 524.6499,-126 503.6499,-126 500.6499,-122 416.3501,-122 416.3501,-86 527.6499,-86 527.6499,-122"/>
<text text-anchor="middle" x="472" y="-99.8" font-family="Times,serif" font-size="14.00" fill="#000000">RichTextModule</text>
</g>
<!-- RichTextModule&#45;&gt;Project0041Module -->
<g id="edge6" class="edge">
<title>RichTextModule&#45;&gt;Project0041Module</title>
<path fill="none" stroke="#000000" d="M472,-122.027C472,-138.3976 472,-160 472,-160 472,-160 650.084,-160 650.084,-160"/>
<polygon fill="#000000" stroke="#000000" points="650.084,-163.5001 660.084,-160 650.084,-156.5001 650.084,-163.5001"/>
</g>
<!-- TextStructureModule -->
<g id="node8" class="node">
<title>TextStructureModule</title>
<polygon fill="#8dd3c7" stroke="#000000" points="398.0226,-122 395.0226,-126 374.0226,-126 371.0226,-122 261.9774,-122 261.9774,-86 398.0226,-86 398.0226,-122"/>
<text text-anchor="middle" x="330" y="-99.8" font-family="Times,serif" font-size="14.00" fill="#000000">TextStructureModule</text>
</g>
<!-- TextStructureModule&#45;&gt;Project0041Module -->
<g id="edge7" class="edge">
<title>TextStructureModule&#45;&gt;Project0041Module</title>
<path fill="none" stroke="#000000" d="M330,-122.1061C330,-141.3391 330,-169 330,-169 330,-169 650.2592,-169 650.2592,-169"/>
<polygon fill="#000000" stroke="#000000" points="650.2592,-172.5001 660.2592,-169 650.2592,-165.5001 650.2592,-172.5001"/>
</g>
<!-- KnoraV2RequestService -->
<g id="node10" class="node">
<title>KnoraV2RequestService</title>
<ellipse fill="#fdb462" stroke="#000000" cx="131" cy="-104" rx="107.0627" ry="18"/>
<text text-anchor="middle" x="131" y="-99.8" font-family="Times,serif" font-size="14.00" fill="#000000">KnoraV2RequestService</text>
</g>
<!-- KnoraV2RequestService&#45;&gt;Project0041Module -->
<g id="edge9" class="edge">
<title>KnoraV2RequestService&#45;&gt;Project0041Module</title>
<path fill="none" stroke="#000000" d="M131,-122.2921C131,-144.2057 131,-178 131,-178 131,-178 650.2572,-178 650.2572,-178"/>
<polygon fill="#000000" stroke="#000000" points="650.2572,-181.5001 660.2572,-178 650.2571,-174.5001 650.2572,-181.5001"/>
</g>
</g>
</svg>
