<?xml version="1.0" encoding="UTF-8" standalone="no"?>
<!DOCTYPE svg PUBLIC "-//W3C//DTD SVG 1.1//EN"
 "http://www.w3.org/Graphics/SVG/1.1/DTD/svg11.dtd">
<!-- Generated by graphviz version 2.47.0 (20210316.0004)
 -->
<!-- Title: dependencies Pages: 1 -->
<svg width="594pt" height="211pt"
 viewBox="0.00 0.00 594.00 211.00" xmlns="http://www.w3.org/2000/svg" xmlns:xlink="http://www.w3.org/1999/xlink">
<g id="graph0" class="graph" transform="scale(1 1) rotate(0) translate(4 207)">
<title>dependencies</title>
<polygon fill="white" stroke="transparent" points="-4,4 -4,-207 590,-207 590,4 -4,4"/>
<text text-anchor="start" x="272.01" y="-42.4" font-family="sans-serif" font-weight="bold" font-size="14.00">Legend</text>
<polygon fill="#ffffb3" stroke="transparent" points="59,-10 59,-30 79,-30 79,-10 59,-10"/>
<text text-anchor="start" x="82.63" y="-15.4" font-family="sans-serif" font-size="14.00"> &#160;Declarations</text>
<polygon fill="#8dd3c7" stroke="transparent" points="172,-10 172,-30 192,-30 192,-10 172,-10"/>
<text text-anchor="start" x="195.73" y="-15.4" font-family="sans-serif" font-size="14.00"> &#160;Module</text>
<polygon fill="#80b1d3" stroke="transparent" points="258,-10 258,-30 278,-30 278,-10 258,-10"/>
<text text-anchor="start" x="281.78" y="-15.4" font-family="sans-serif" font-size="14.00"> &#160;Bootstrap</text>
<polygon fill="#fdb462" stroke="transparent" points="355,-10 355,-30 375,-30 375,-10 355,-10"/>
<text text-anchor="start" x="378.67" y="-15.4" font-family="sans-serif" font-size="14.00"> &#160;Providers</text>
<polygon fill="#fb8072" stroke="transparent" points="451,-10 451,-30 471,-30 471,-10 451,-10"/>
<text text-anchor="start" x="474.73" y="-15.4" font-family="sans-serif" font-size="14.00"> &#160;Exports</text>
<g id="clust1" class="cluster">
<title>cluster_HowToProgramWithNieOSModule</title>
<polygon fill="none" stroke="black" stroke-dasharray="1,5" points="8,-70 8,-195 578,-195 578,-70 8,-70"/>
</g>
<g id="clust2" class="cluster">
<title>cluster_HowToProgramWithNieOSModule_declarations</title>
<polygon fill="none" stroke="black" points="16,-78 16,-130 570,-130 570,-78 16,-78"/>
</g>
<!-- DictionaryComponent -->
<g id="node1" class="node">
<title>DictionaryComponent</title>
<polygon fill="#ffffb3" stroke="black" points="561.7,-122 420.3,-122 420.3,-86 561.7,-86 561.7,-122"/>
<text text-anchor="middle" x="491" y="-99.8" font-family="Times,serif" font-size="14.00">DictionaryComponent</text>
</g>
<!-- HowToProgramWithNieOSModule -->
<g id="node4" class="node">
<title>HowToProgramWithNieOSModule</title>
<polygon fill="#8dd3c7" stroke="black" points="405.12,-187 402.12,-191 381.12,-191 378.12,-187 188.88,-187 188.88,-151 405.12,-151 405.12,-187"/>
<text text-anchor="middle" x="297" y="-164.8" font-family="Times,serif" font-size="14.00">HowToProgramWithNieOSModule</text>
</g>
<!-- DictionaryComponent&#45;&gt;HowToProgramWithNieOSModule -->
<g id="edge1" class="edge">
<title>DictionaryComponent&#45;&gt;HowToProgramWithNieOSModule</title>
<path fill="none" stroke="black" d="M491,-122.11C491,-141.34 491,-169 491,-169 491,-169 415.34,-169 415.34,-169"/>
<polygon fill="black" stroke="black" points="415.34,-165.5 405.34,-169 415.34,-172.5 415.34,-165.5"/>
</g>
<!-- MyPractiseComponentComponent -->
<g id="node2" class="node">
<title>MyPractiseComponentComponent</title>
<polygon fill="#ffffb3" stroke="black" points="402.42,-122 191.58,-122 191.58,-86 402.42,-86 402.42,-122"/>
<text text-anchor="middle" x="297" y="-99.8" font-family="Times,serif" font-size="14.00">MyPractiseComponentComponent</text>
</g>
<!-- MyPractiseComponentComponent&#45;&gt;HowToProgramWithNieOSModule -->
<g id="edge2" class="edge">
<title>MyPractiseComponentComponent&#45;&gt;HowToProgramWithNieOSModule</title>
<path fill="none" stroke="black" d="M297,-122.11C297,-122.11 297,-140.99 297,-140.99"/>
<polygon fill="black" stroke="black" points="293.5,-140.99 297,-150.99 300.5,-140.99 293.5,-140.99"/>
</g>
<!-- TextDisplayComponent -->
<g id="node3" class="node">
<title>TextDisplayComponent</title>
<polygon fill="#ffffb3" stroke="black" points="174.04,-122 23.96,-122 23.96,-86 174.04,-86 174.04,-122"/>
<text text-anchor="middle" x="99" y="-99.8" font-family="Times,serif" font-size="14.00">TextDisplayComponent</text>
</g>
<!-- TextDisplayComponent&#45;&gt;HowToProgramWithNieOSModule -->
<g id="edge3" class="edge">
<title>TextDisplayComponent&#45;&gt;HowToProgramWithNieOSModule</title>
<path fill="none" stroke="black" d="M99,-122.11C99,-141.34 99,-169 99,-169 99,-169 178.73,-169 178.73,-169"/>
<polygon fill="black" stroke="black" points="178.73,-172.5 188.73,-169 178.73,-165.5 178.73,-172.5"/>
</g>
</g>
</svg>
