<?xml version="1.0" encoding="UTF-8" standalone="no"?>
<!DOCTYPE svg PUBLIC "-//W3C//DTD SVG 1.1//EN"
 "http://www.w3.org/Graphics/SVG/1.1/DTD/svg11.dtd">
<!-- Generated by graphviz version 2.40.1 (20161225.0304)
 -->
<!-- Title: dependencies Pages: 1 -->
<svg width="594pt" height="211pt"
 viewBox="0.00 0.00 594.00 211.00" xmlns="http://www.w3.org/2000/svg" xmlns:xlink="http://www.w3.org/1999/xlink">
<g id="graph0" class="graph" transform="scale(1 1) rotate(0) translate(4 207)">
<title>dependencies</title>
<polygon fill="#ffffff" stroke="transparent" points="-4,4 -4,-207 590,-207 590,4 -4,4"/>
<text text-anchor="start" x="272.0091" y="-42.4" font-family="sans-serif" font-weight="bold" font-size="14.00" fill="#000000">Legend</text>
<polygon fill="#ffffb3" stroke="transparent" points="59,-10 59,-30 79,-30 79,-10 59,-10"/>
<text text-anchor="start" x="82.629" y="-15.4" font-family="sans-serif" font-size="14.00" fill="#000000"> &#160;Declarations</text>
<polygon fill="#8dd3c7" stroke="transparent" points="172,-10 172,-30 192,-30 192,-10 172,-10"/>
<text text-anchor="start" x="195.7251" y="-15.4" font-family="sans-serif" font-size="14.00" fill="#000000"> &#160;Module</text>
<polygon fill="#80b1d3" stroke="transparent" points="258,-10 258,-30 278,-30 278,-10 258,-10"/>
<text text-anchor="start" x="281.7812" y="-15.4" font-family="sans-serif" font-size="14.00" fill="#000000"> &#160;Bootstrap</text>
<polygon fill="#fdb462" stroke="transparent" points="355,-10 355,-30 375,-30 375,-10 355,-10"/>
<text text-anchor="start" x="378.6732" y="-15.4" font-family="sans-serif" font-size="14.00" fill="#000000"> &#160;Providers</text>
<polygon fill="#fb8072" stroke="transparent" points="451,-10 451,-30 471,-30 471,-10 451,-10"/>
<text text-anchor="start" x="474.7258" y="-15.4" font-family="sans-serif" font-size="14.00" fill="#000000"> &#160;Exports</text>
<g id="clust1" class="cluster">
<title>cluster_HowToProgramWithNieOSModule</title>
<polygon fill="none" stroke="#000000" stroke-dasharray="1,5" points="8,-70 8,-195 578,-195 578,-70 8,-70"/>
</g>
<g id="clust2" class="cluster">
<title>cluster_HowToProgramWithNieOSModule_declarations</title>
<polygon fill="none" stroke="#000000" points="16,-78 16,-130 570,-130 570,-78 16,-78"/>
</g>
<!-- DictionaryComponent -->
<g id="node1" class="node">
<title>DictionaryComponent</title>
<polygon fill="#ffffb3" stroke="#000000" points="561.7007,-122 420.2993,-122 420.2993,-86 561.7007,-86 561.7007,-122"/>
<text text-anchor="middle" x="491" y="-99.8" font-family="Times,serif" font-size="14.00" fill="#000000">DictionaryComponent</text>
</g>
<!-- HowToProgramWithNieOSModule -->
<g id="node4" class="node">
<title>HowToProgramWithNieOSModule</title>
<polygon fill="#8dd3c7" stroke="#000000" points="405.1217,-187 402.1217,-191 381.1217,-191 378.1217,-187 188.8783,-187 188.8783,-151 405.1217,-151 405.1217,-187"/>
<text text-anchor="middle" x="297" y="-164.8" font-family="Times,serif" font-size="14.00" fill="#000000">HowToProgramWithNieOSModule</text>
</g>
<!-- DictionaryComponent&#45;&gt;HowToProgramWithNieOSModule -->
<g id="edge1" class="edge">
<title>DictionaryComponent&#45;&gt;HowToProgramWithNieOSModule</title>
<path fill="none" stroke="#000000" d="M491,-122.1061C491,-141.3391 491,-169 491,-169 491,-169 415.3441,-169 415.3441,-169"/>
<polygon fill="#000000" stroke="#000000" points="415.3441,-165.5001 405.3441,-169 415.344,-172.5001 415.3441,-165.5001"/>
</g>
<!-- MyPractiseComponentComponent -->
<g id="node2" class="node">
<title>MyPractiseComponentComponent</title>
<polygon fill="#ffffb3" stroke="#000000" points="402.4226,-122 191.5774,-122 191.5774,-86 402.4226,-86 402.4226,-122"/>
<text text-anchor="middle" x="297" y="-99.8" font-family="Times,serif" font-size="14.00" fill="#000000">MyPractiseComponentComponent</text>
</g>
<!-- MyPractiseComponentComponent&#45;&gt;HowToProgramWithNieOSModule -->
<g id="edge2" class="edge">
<title>MyPractiseComponentComponent&#45;&gt;HowToProgramWithNieOSModule</title>
<path fill="none" stroke="#000000" d="M297,-122.1061C297,-122.1061 297,-140.991 297,-140.991"/>
<polygon fill="#000000" stroke="#000000" points="293.5001,-140.9909 297,-150.991 300.5001,-140.991 293.5001,-140.9909"/>
</g>
<!-- TextDisplayComponent -->
<g id="node3" class="node">
<title>TextDisplayComponent</title>
<polygon fill="#ffffb3" stroke="#000000" points="174.0379,-122 23.9621,-122 23.9621,-86 174.0379,-86 174.0379,-122"/>
<text text-anchor="middle" x="99" y="-99.8" font-family="Times,serif" font-size="14.00" fill="#000000">TextDisplayComponent</text>
</g>
<!-- TextDisplayComponent&#45;&gt;HowToProgramWithNieOSModule -->
<g id="edge3" class="edge">
<title>TextDisplayComponent&#45;&gt;HowToProgramWithNieOSModule</title>
<path fill="none" stroke="#000000" d="M99,-122.1061C99,-141.3391 99,-169 99,-169 99,-169 178.7308,-169 178.7308,-169"/>
<polygon fill="#000000" stroke="#000000" points="178.7309,-172.5001 188.7308,-169 178.7308,-165.5001 178.7309,-172.5001"/>
</g>
</g>
</svg>
