<?xml version="1.0" encoding="UTF-8" standalone="no"?>
<!DOCTYPE svg PUBLIC "-//W3C//DTD SVG 1.1//EN"
 "http://www.w3.org/Graphics/SVG/1.1/DTD/svg11.dtd">
<!-- Generated by graphviz version 2.40.1 (20161225.0304)
 -->
<!-- Title: dependencies Pages: 1 -->
<svg width="504pt" height="211pt"
 viewBox="0.00 0.00 504.00 211.00" xmlns="http://www.w3.org/2000/svg" xmlns:xlink="http://www.w3.org/1999/xlink">
<g id="graph0" class="graph" transform="scale(1 1) rotate(0) translate(4 207)">
<title>dependencies</title>
<polygon fill="#ffffff" stroke="transparent" points="-4,4 -4,-207 500,-207 500,4 -4,4"/>
<text text-anchor="start" x="227.0091" y="-42.4" font-family="sans-serif" font-weight="bold" font-size="14.00" fill="#000000">Legend</text>
<polygon fill="#ffffb3" stroke="transparent" points="14,-10 14,-30 34,-30 34,-10 14,-10"/>
<text text-anchor="start" x="37.629" y="-15.4" font-family="sans-serif" font-size="14.00" fill="#000000"> &#160;Declarations</text>
<polygon fill="#8dd3c7" stroke="transparent" points="127,-10 127,-30 147,-30 147,-10 127,-10"/>
<text text-anchor="start" x="150.7251" y="-15.4" font-family="sans-serif" font-size="14.00" fill="#000000"> &#160;Module</text>
<polygon fill="#80b1d3" stroke="transparent" points="213,-10 213,-30 233,-30 233,-10 213,-10"/>
<text text-anchor="start" x="236.7812" y="-15.4" font-family="sans-serif" font-size="14.00" fill="#000000"> &#160;Bootstrap</text>
<polygon fill="#fdb462" stroke="transparent" points="310,-10 310,-30 330,-30 330,-10 310,-10"/>
<text text-anchor="start" x="333.6732" y="-15.4" font-family="sans-serif" font-size="14.00" fill="#000000"> &#160;Providers</text>
<polygon fill="#fb8072" stroke="transparent" points="406,-10 406,-30 426,-30 426,-10 406,-10"/>
<text text-anchor="start" x="429.7258" y="-15.4" font-family="sans-serif" font-size="14.00" fill="#000000"> &#160;Exports</text>
<g id="clust1" class="cluster">
<title>cluster_HowToProgramWithNieOSModule</title>
<polygon fill="none" stroke="#000000" stroke-dasharray="1,5" points="47,-70 47,-195 449,-195 449,-70 47,-70"/>
</g>
<g id="clust2" class="cluster">
<title>cluster_HowToProgramWithNieOSModule_declarations</title>
<polygon fill="none" stroke="#000000" points="55,-78 55,-130 441,-130 441,-78 55,-78"/>
</g>
<!-- DictionaryComponent -->
<g id="node1" class="node">
<title>DictionaryComponent</title>
<polygon fill="#ffffb3" stroke="#000000" points="432.7007,-122 291.2993,-122 291.2993,-86 432.7007,-86 432.7007,-122"/>
<text text-anchor="middle" x="362" y="-99.8" font-family="Times,serif" font-size="14.00" fill="#000000">DictionaryComponent</text>
</g>
<!-- HowToProgramWithNieOSModule -->
<g id="node3" class="node">
<title>HowToProgramWithNieOSModule</title>
<polygon fill="#8dd3c7" stroke="#000000" points="358.1217,-187 355.1217,-191 334.1217,-191 331.1217,-187 141.8783,-187 141.8783,-151 358.1217,-151 358.1217,-187"/>
<text text-anchor="middle" x="250" y="-164.8" font-family="Times,serif" font-size="14.00" fill="#000000">HowToProgramWithNieOSModule</text>
</g>
<!-- DictionaryComponent&#45;&gt;HowToProgramWithNieOSModule -->
<g id="edge1" class="edge">
<title>DictionaryComponent&#45;&gt;HowToProgramWithNieOSModule</title>
<path fill="none" stroke="#000000" d="M324.8552,-122.1061C324.8552,-122.1061 324.8552,-140.991 324.8552,-140.991"/>
<polygon fill="#000000" stroke="#000000" points="321.3553,-140.9909 324.8552,-150.991 328.3553,-140.991 321.3553,-140.9909"/>
</g>
<!-- MyPractiseComponentComponent -->
<g id="node2" class="node">
<title>MyPractiseComponentComponent</title>
<polygon fill="#ffffb3" stroke="#000000" points="273.4226,-122 62.5774,-122 62.5774,-86 273.4226,-86 273.4226,-122"/>
<text text-anchor="middle" x="168" y="-99.8" font-family="Times,serif" font-size="14.00" fill="#000000">MyPractiseComponentComponent</text>
</g>
<!-- MyPractiseComponentComponent&#45;&gt;HowToProgramWithNieOSModule -->
<g id="edge2" class="edge">
<title>MyPractiseComponentComponent&#45;&gt;HowToProgramWithNieOSModule</title>
<path fill="none" stroke="#000000" d="M207.4502,-122.1061C207.4502,-122.1061 207.4502,-140.991 207.4502,-140.991"/>
<polygon fill="#000000" stroke="#000000" points="203.9503,-140.9909 207.4502,-150.991 210.9503,-140.991 203.9503,-140.9909"/>
</g>
</g>
</svg>
