<?xml version="1.0" encoding="UTF-8" standalone="no"?>
<!DOCTYPE svg PUBLIC "-//W3C//DTD SVG 1.1//EN"
 "http://www.w3.org/Graphics/SVG/1.1/DTD/svg11.dtd">
<!-- Generated by graphviz version 2.40.1 (20161225.0304)
 -->
<!-- Title: dependencies Pages: 1 -->
<svg width="1956pt" height="284pt"
 viewBox="0.00 0.00 1956.00 284.00" xmlns="http://www.w3.org/2000/svg" xmlns:xlink="http://www.w3.org/1999/xlink">
<g id="graph0" class="graph" transform="scale(1 1) rotate(0) translate(4 280)">
<title>dependencies</title>
<polygon fill="#ffffff" stroke="transparent" points="-4,4 -4,-280 1952,-280 1952,4 -4,4"/>
<text text-anchor="start" x="953.0091" y="-42.4" font-family="sans-serif" font-weight="bold" font-size="14.00" fill="#000000">Legend</text>
<polygon fill="#ffffb3" stroke="transparent" points="740,-10 740,-30 760,-30 760,-10 740,-10"/>
<text text-anchor="start" x="763.629" y="-15.4" font-family="sans-serif" font-size="14.00" fill="#000000"> &#160;Declarations</text>
<polygon fill="#8dd3c7" stroke="transparent" points="853,-10 853,-30 873,-30 873,-10 853,-10"/>
<text text-anchor="start" x="876.7251" y="-15.4" font-family="sans-serif" font-size="14.00" fill="#000000"> &#160;Module</text>
<polygon fill="#80b1d3" stroke="transparent" points="939,-10 939,-30 959,-30 959,-10 939,-10"/>
<text text-anchor="start" x="962.7812" y="-15.4" font-family="sans-serif" font-size="14.00" fill="#000000"> &#160;Bootstrap</text>
<polygon fill="#fdb462" stroke="transparent" points="1036,-10 1036,-30 1056,-30 1056,-10 1036,-10"/>
<text text-anchor="start" x="1059.6732" y="-15.4" font-family="sans-serif" font-size="14.00" fill="#000000"> &#160;Providers</text>
<polygon fill="#fb8072" stroke="transparent" points="1132,-10 1132,-30 1152,-30 1152,-10 1132,-10"/>
<text text-anchor="start" x="1155.7258" y="-15.4" font-family="sans-serif" font-size="14.00" fill="#000000"> &#160;Exports</text>
<g id="clust1" class="cluster">
<title>cluster_NIEOSModule</title>
<polygon fill="none" stroke="#000000" stroke-dasharray="1,5" points="8,-70 8,-268 1940,-268 1940,-70 8,-70"/>
</g>
<g id="clust2" class="cluster">
<title>cluster_NIEOSModule_declarations</title>
<polygon fill="none" stroke="#000000" points="1390,-78 1390,-130 1932,-130 1932,-78 1390,-78"/>
</g>
<g id="clust7" class="cluster">
<title>cluster_NIEOSModule_imports</title>
<polygon fill="none" stroke="#000000" points="506,-78 506,-130 1382,-130 1382,-78 506,-78"/>
</g>
<g id="clust8" class="cluster">
<title>cluster_NIEOSModule_exports</title>
<polygon fill="none" stroke="#000000" points="1017,-208 1017,-260 1159,-260 1159,-208 1017,-208"/>
</g>
<g id="clust10" class="cluster">
<title>cluster_NIEOSModule_providers</title>
<polygon fill="none" stroke="#000000" points="16,-78 16,-130 498,-130 498,-78 16,-78"/>
</g>
<!-- GrapesjsComponent -->
<g id="node1" class="node">
<title>GrapesjsComponent</title>
<polygon fill="#ffffb3" stroke="#000000" points="1924.309,-122 1793.691,-122 1793.691,-86 1924.309,-86 1924.309,-122"/>
<text text-anchor="middle" x="1859" y="-99.8" font-family="Times,serif" font-size="14.00" fill="#000000">GrapesjsComponent</text>
</g>
<!-- NIEOSModule -->
<g id="node5" class="node">
<title>NIEOSModule</title>
<polygon fill="#8dd3c7" stroke="#000000" points="1138.2591,-187 1135.2591,-191 1114.2591,-191 1111.2591,-187 1037.7409,-187 1037.7409,-151 1138.2591,-151 1138.2591,-187"/>
<text text-anchor="middle" x="1088" y="-164.8" font-family="Times,serif" font-size="14.00" fill="#000000">NIEOSModule</text>
</g>
<!-- GrapesjsComponent&#45;&gt;NIEOSModule -->
<g id="edge1" class="edge">
<title>GrapesjsComponent&#45;&gt;NIEOSModule</title>
<path fill="none" stroke="#000000" d="M1859,-122.2479C1859,-145.0179 1859,-181 1859,-181 1859,-181 1148.2901,-181 1148.2901,-181"/>
<polygon fill="#000000" stroke="#000000" points="1148.2901,-177.5001 1138.2901,-181 1148.29,-184.5001 1148.2901,-177.5001"/>
</g>
<!-- NIEOSComponent -->
<g id="node2" class="node">
<title>NIEOSComponent</title>
<polygon fill="#ffffb3" stroke="#000000" points="1776.0423,-122 1653.9577,-122 1653.9577,-86 1776.0423,-86 1776.0423,-122"/>
<text text-anchor="middle" x="1715" y="-99.8" font-family="Times,serif" font-size="14.00" fill="#000000">NIEOSComponent</text>
</g>
<!-- NIEOSComponent&#45;&gt;NIEOSModule -->
<g id="edge2" class="edge">
<title>NIEOSComponent&#45;&gt;NIEOSModule</title>
<path fill="none" stroke="#000000" d="M1715,-122.2843C1715,-143.3211 1715,-175 1715,-175 1715,-175 1148.5143,-175 1148.5143,-175"/>
<polygon fill="#000000" stroke="#000000" points="1148.5143,-171.5001 1138.5143,-175 1148.5142,-178.5001 1148.5143,-171.5001"/>
</g>
<!-- Popup -->
<g id="node3" class="node">
<title>Popup</title>
<polygon fill="#ffffb3" stroke="#000000" points="1636,-122 1582,-122 1582,-86 1636,-86 1636,-122"/>
<text text-anchor="middle" x="1609" y="-99.8" font-family="Times,serif" font-size="14.00" fill="#000000">Popup</text>
</g>
<!-- Popup&#45;&gt;NIEOSModule -->
<g id="edge3" class="edge">
<title>Popup&#45;&gt;NIEOSModule</title>
<path fill="none" stroke="#000000" d="M1609,-122.1061C1609,-141.3391 1609,-169 1609,-169 1609,-169 1148.4291,-169 1148.4291,-169"/>
<polygon fill="#000000" stroke="#000000" points="1148.4291,-165.5001 1138.4291,-169 1148.429,-172.5001 1148.4291,-165.5001"/>
</g>
<!-- TextlistViewerComponent -->
<g id="node4" class="node">
<title>TextlistViewerComponent</title>
<polygon fill="#ffffb3" stroke="#000000" points="1563.8005,-122 1398.1995,-122 1398.1995,-86 1563.8005,-86 1563.8005,-122"/>
<text text-anchor="middle" x="1481" y="-99.8" font-family="Times,serif" font-size="14.00" fill="#000000">TextlistViewerComponent</text>
</g>
<!-- TextlistViewerComponent&#45;&gt;NIEOSModule -->
<g id="edge4" class="edge">
<title>TextlistViewerComponent&#45;&gt;NIEOSModule</title>
<path fill="none" stroke="#000000" d="M1481,-122.0225C1481,-139.3734 1481,-163 1481,-163 1481,-163 1148.5733,-163 1148.5733,-163"/>
<polygon fill="#000000" stroke="#000000" points="1148.5734,-159.5001 1138.5733,-163 1148.5733,-166.5001 1148.5734,-159.5001"/>
</g>
<!-- NIEOSComponent  -->
<g id="node12" class="node">
<title>NIEOSComponent </title>
<polygon fill="#fb8072" stroke="#000000" points="1151.0414,-252 1024.9586,-252 1024.9586,-216 1151.0414,-216 1151.0414,-252"/>
<text text-anchor="middle" x="1088" y="-229.8" font-family="Times,serif" font-size="14.00" fill="#000000">NIEOSComponent </text>
</g>
<!-- NIEOSModule&#45;&gt;NIEOSComponent  -->
<g id="edge11" class="edge">
<title>NIEOSModule&#45;&gt;NIEOSComponent </title>
<path fill="none" stroke="#000000" stroke-dasharray="5,2" d="M1088,-187.1061C1088,-187.1061 1088,-205.991 1088,-205.991"/>
<polygon fill="#000000" stroke="#000000" points="1084.5001,-205.9909 1088,-215.991 1091.5001,-205.991 1084.5001,-205.9909"/>
</g>
<!-- CreateResourceModule -->
<g id="node6" class="node">
<title>CreateResourceModule</title>
<polygon fill="#8dd3c7" stroke="#000000" points="1374.1671,-122 1371.1671,-126 1350.1671,-126 1347.1671,-122 1225.8329,-122 1225.8329,-86 1374.1671,-86 1374.1671,-122"/>
<text text-anchor="middle" x="1300" y="-99.8" font-family="Times,serif" font-size="14.00" fill="#000000">CreateResourceModule</text>
</g>
<!-- CreateResourceModule&#45;&gt;NIEOSModule -->
<g id="edge5" class="edge">
<title>CreateResourceModule&#45;&gt;NIEOSModule</title>
<path fill="none" stroke="#000000" d="M1300,-122.2396C1300,-137.5706 1300,-157 1300,-157 1300,-157 1148.5099,-157 1148.5099,-157"/>
<polygon fill="#000000" stroke="#000000" points="1148.51,-153.5001 1138.5099,-157 1148.5099,-160.5001 1148.51,-153.5001"/>
</g>
<!-- D3jsModule -->
<g id="node7" class="node">
<title>D3jsModule</title>
<polygon fill="#8dd3c7" stroke="#000000" points="1207.9916,-122 1204.9916,-126 1183.9916,-126 1180.9916,-122 1122.0084,-122 1122.0084,-86 1207.9916,-86 1207.9916,-122"/>
<text text-anchor="middle" x="1165" y="-99.8" font-family="Times,serif" font-size="14.00" fill="#000000">D3jsModule</text>
</g>
<!-- D3jsModule&#45;&gt;NIEOSModule -->
<g id="edge6" class="edge">
<title>D3jsModule&#45;&gt;NIEOSModule</title>
<path fill="none" stroke="#000000" d="M1130.1918,-122.1061C1130.1918,-122.1061 1130.1918,-140.991 1130.1918,-140.991"/>
<polygon fill="#000000" stroke="#000000" points="1126.6919,-140.9909 1130.1918,-150.991 1133.6919,-140.991 1126.6919,-140.9909"/>
</g>
<!-- DataManagementToolModule -->
<g id="node8" class="node">
<title>DataManagementToolModule</title>
<polygon fill="#8dd3c7" stroke="#000000" points="1103.5043,-122 1100.5043,-126 1079.5043,-126 1076.5043,-122 918.4957,-122 918.4957,-86 1103.5043,-86 1103.5043,-122"/>
<text text-anchor="middle" x="1011" y="-99.8" font-family="Times,serif" font-size="14.00" fill="#000000">DataManagementToolModule</text>
</g>
<!-- DataManagementToolModule&#45;&gt;NIEOSModule -->
<g id="edge7" class="edge">
<title>DataManagementToolModule&#45;&gt;NIEOSModule</title>
<path fill="none" stroke="#000000" d="M1070.6862,-122.1061C1070.6862,-122.1061 1070.6862,-140.991 1070.6862,-140.991"/>
<polygon fill="#000000" stroke="#000000" points="1067.1863,-140.9909 1070.6862,-150.991 1074.1863,-140.991 1067.1863,-140.9909"/>
</g>
<!-- MyPageSetModule -->
<g id="node9" class="node">
<title>MyPageSetModule</title>
<polygon fill="#8dd3c7" stroke="#000000" points="900.094,-122 897.094,-126 876.094,-126 873.094,-122 775.906,-122 775.906,-86 900.094,-86 900.094,-122"/>
<text text-anchor="middle" x="838" y="-99.8" font-family="Times,serif" font-size="14.00" fill="#000000">MyPageSetModule</text>
</g>
<!-- MyPageSetModule&#45;&gt;NIEOSModule -->
<g id="edge8" class="edge">
<title>MyPageSetModule&#45;&gt;NIEOSModule</title>
<path fill="none" stroke="#000000" d="M838,-122.2396C838,-137.5706 838,-157 838,-157 838,-157 1027.7095,-157 1027.7095,-157"/>
<polygon fill="#000000" stroke="#000000" points="1027.7095,-160.5001 1037.7095,-157 1027.7095,-153.5001 1027.7095,-160.5001"/>
</g>
<!-- SynopsisModule -->
<g id="node10" class="node">
<title>SynopsisModule</title>
<polygon fill="#8dd3c7" stroke="#000000" points="758.1123,-122 755.1123,-126 734.1123,-126 731.1123,-122 647.8877,-122 647.8877,-86 758.1123,-86 758.1123,-122"/>
<text text-anchor="middle" x="703" y="-99.8" font-family="Times,serif" font-size="14.00" fill="#000000">SynopsisModule</text>
</g>
<!-- SynopsisModule&#45;&gt;NIEOSModule -->
<g id="edge9" class="edge">
<title>SynopsisModule&#45;&gt;NIEOSModule</title>
<path fill="none" stroke="#000000" d="M703,-122.0225C703,-139.3734 703,-163 703,-163 703,-163 1027.668,-163 1027.668,-163"/>
<polygon fill="#000000" stroke="#000000" points="1027.668,-166.5001 1037.668,-163 1027.6679,-159.5001 1027.668,-166.5001"/>
</g>
<!-- TextViewModule -->
<g id="node11" class="node">
<title>TextViewModule</title>
<polygon fill="#8dd3c7" stroke="#000000" points="629.527,-122 626.527,-126 605.527,-126 602.527,-122 514.473,-122 514.473,-86 629.527,-86 629.527,-122"/>
<text text-anchor="middle" x="572" y="-99.8" font-family="Times,serif" font-size="14.00" fill="#000000">TextViewModule</text>
</g>
<!-- TextViewModule&#45;&gt;NIEOSModule -->
<g id="edge10" class="edge">
<title>TextViewModule&#45;&gt;NIEOSModule</title>
<path fill="none" stroke="#000000" d="M572,-122.1061C572,-141.3391 572,-169 572,-169 572,-169 1027.5842,-169 1027.5842,-169"/>
<polygon fill="#000000" stroke="#000000" points="1027.5843,-172.5001 1037.5842,-169 1027.5842,-165.5001 1027.5843,-172.5001"/>
</g>
<!-- GenerateHashService -->
<g id="node13" class="node">
<title>GenerateHashService</title>
<ellipse fill="#fdb462" stroke="#000000" cx="395" cy="-104" rx="94.8587" ry="18"/>
<text text-anchor="middle" x="395" y="-99.8" font-family="Times,serif" font-size="14.00" fill="#000000">GenerateHashService</text>
</g>
<!-- GenerateHashService&#45;&gt;NIEOSModule -->
<g id="edge12" class="edge">
<title>GenerateHashService&#45;&gt;NIEOSModule</title>
<path fill="none" stroke="#000000" d="M395,-122.2843C395,-143.3211 395,-175 395,-175 395,-175 1027.6029,-175 1027.6029,-175"/>
<polygon fill="#000000" stroke="#000000" points="1027.603,-178.5001 1037.6029,-175 1027.6029,-171.5001 1027.603,-178.5001"/>
</g>
<!-- SendGravSearchQueryService -->
<g id="node14" class="node">
<title>SendGravSearchQueryService</title>
<ellipse fill="#fdb462" stroke="#000000" cx="153" cy="-104" rx="129.0134" ry="18"/>
<text text-anchor="middle" x="153" y="-99.8" font-family="Times,serif" font-size="14.00" fill="#000000">SendGravSearchQueryService</text>
</g>
<!-- SendGravSearchQueryService&#45;&gt;NIEOSModule -->
<g id="edge13" class="edge">
<title>SendGravSearchQueryService&#45;&gt;NIEOSModule</title>
<path fill="none" stroke="#000000" d="M153,-122.2479C153,-145.0179 153,-181 153,-181 153,-181 1027.7303,-181 1027.7303,-181"/>
<polygon fill="#000000" stroke="#000000" points="1027.7304,-184.5001 1037.7303,-181 1027.7303,-177.5001 1027.7304,-184.5001"/>
</g>
</g>
</svg>
