<?xml version="1.0" encoding="UTF-8" standalone="no"?>
<!DOCTYPE svg PUBLIC "-//W3C//DTD SVG 1.1//EN"
 "http://www.w3.org/Graphics/SVG/1.1/DTD/svg11.dtd">
<!-- Generated by graphviz version 2.40.1 (20161225.0304)
 -->
<!-- Title: dependencies Pages: 1 -->
<svg width="7219pt" height="284pt"
 viewBox="0.00 0.00 7219.00 284.00" xmlns="http://www.w3.org/2000/svg" xmlns:xlink="http://www.w3.org/1999/xlink">
<g id="graph0" class="graph" transform="scale(1 1) rotate(0) translate(4 280)">
<title>dependencies</title>
<polygon fill="#ffffff" stroke="transparent" points="-4,4 -4,-280 7215,-280 7215,4 -4,4"/>
<text text-anchor="start" x="3584.5091" y="-42.4" font-family="sans-serif" font-weight="bold" font-size="14.00" fill="#000000">Legend</text>
<polygon fill="#ffffb3" stroke="transparent" points="3371.5,-10 3371.5,-30 3391.5,-30 3391.5,-10 3371.5,-10"/>
<text text-anchor="start" x="3395.129" y="-15.4" font-family="sans-serif" font-size="14.00" fill="#000000"> &#160;Declarations</text>
<polygon fill="#8dd3c7" stroke="transparent" points="3484.5,-10 3484.5,-30 3504.5,-30 3504.5,-10 3484.5,-10"/>
<text text-anchor="start" x="3508.2251" y="-15.4" font-family="sans-serif" font-size="14.00" fill="#000000"> &#160;Module</text>
<polygon fill="#80b1d3" stroke="transparent" points="3570.5,-10 3570.5,-30 3590.5,-30 3590.5,-10 3570.5,-10"/>
<text text-anchor="start" x="3594.2812" y="-15.4" font-family="sans-serif" font-size="14.00" fill="#000000"> &#160;Bootstrap</text>
<polygon fill="#fdb462" stroke="transparent" points="3667.5,-10 3667.5,-30 3687.5,-30 3687.5,-10 3667.5,-10"/>
<text text-anchor="start" x="3691.1732" y="-15.4" font-family="sans-serif" font-size="14.00" fill="#000000"> &#160;Providers</text>
<polygon fill="#fb8072" stroke="transparent" points="3763.5,-10 3763.5,-30 3783.5,-30 3783.5,-10 3763.5,-10"/>
<text text-anchor="start" x="3787.2258" y="-15.4" font-family="sans-serif" font-size="14.00" fill="#000000"> &#160;Exports</text>
<g id="clust1" class="cluster">
<title>cluster_NIEOSModule</title>
<polygon fill="none" stroke="#000000" stroke-dasharray="1,5" points="8,-70 8,-268 7203,-268 7203,-70 8,-70"/>
</g>
<g id="clust2" class="cluster">
<title>cluster_NIEOSModule_declarations</title>
<polygon fill="none" stroke="#000000" points="2603,-78 2603,-130 7195,-130 7195,-78 2603,-78"/>
</g>
<g id="clust29" class="cluster">
<title>cluster_NIEOSModule_imports</title>
<polygon fill="none" stroke="#000000" points="646,-78 646,-130 2595,-130 2595,-78 646,-78"/>
</g>
<g id="clust30" class="cluster">
<title>cluster_NIEOSModule_exports</title>
<polygon fill="none" stroke="#000000" points="3412,-208 3412,-260 3692,-260 3692,-208 3412,-208"/>
</g>
<g id="clust32" class="cluster">
<title>cluster_NIEOSModule_providers</title>
<polygon fill="none" stroke="#000000" points="16,-78 16,-130 638,-130 638,-78 16,-78"/>
</g>
<!-- DataAssignmentComponent -->
<g id="node1" class="node">
<title>DataAssignmentComponent</title>
<polygon fill="#ffffb3" stroke="#000000" points="7187.1414,-122 7012.8586,-122 7012.8586,-86 7187.1414,-86 7187.1414,-122"/>
<text text-anchor="middle" x="7100" y="-99.8" font-family="Times,serif" font-size="14.00" fill="#000000">DataAssignmentComponent</text>
</g>
<!-- NIEOSModule -->
<g id="node27" class="node">
<title>NIEOSModule</title>
<polygon fill="#8dd3c7" stroke="#000000" points="3596.2591,-187 3593.2591,-191 3572.2591,-191 3569.2591,-187 3495.7409,-187 3495.7409,-151 3596.2591,-151 3596.2591,-187"/>
<text text-anchor="middle" x="3546" y="-164.8" font-family="Times,serif" font-size="14.00" fill="#000000">NIEOSModule</text>
</g>
<!-- DataAssignmentComponent&#45;&gt;NIEOSModule -->
<g id="edge1" class="edge">
<title>DataAssignmentComponent&#45;&gt;NIEOSModule</title>
<path fill="none" stroke="#000000" d="M7100,-122.1985C7100,-146.3563 7100,-186 7100,-186 7100,-186 3606.5813,-186 3606.5813,-186"/>
<polygon fill="#000000" stroke="#000000" points="3606.5814,-182.5001 3596.5813,-186 3606.5813,-189.5001 3606.5814,-182.5001"/>
</g>
<!-- DataListView -->
<g id="node2" class="node">
<title>DataListView</title>
<polygon fill="#ffffb3" stroke="#000000" points="6994.0244,-122 6899.9756,-122 6899.9756,-86 6994.0244,-86 6994.0244,-122"/>
<text text-anchor="middle" x="6947" y="-99.8" font-family="Times,serif" font-size="14.00" fill="#000000">DataListView</text>
</g>
<!-- DataListView&#45;&gt;NIEOSModule -->
<g id="edge2" class="edge">
<title>DataListView&#45;&gt;NIEOSModule</title>
<path fill="none" stroke="#000000" d="M6947,-122.1532C6947,-145.7566 6947,-184 6947,-184 6947,-184 3606.3828,-184 3606.3828,-184"/>
<polygon fill="#000000" stroke="#000000" points="3606.3829,-180.5001 3596.3828,-184 3606.3828,-187.5001 3606.3829,-180.5001"/>
</g>
<!-- DataListViewDetailsDialogComponent -->
<g id="node3" class="node">
<title>DataListViewDetailsDialogComponent</title>
<polygon fill="#ffffb3" stroke="#000000" points="6881.6105,-122 6644.3895,-122 6644.3895,-86 6881.6105,-86 6881.6105,-122"/>
<text text-anchor="middle" x="6763" y="-99.8" font-family="Times,serif" font-size="14.00" fill="#000000">DataListViewDetailsDialogComponent</text>
</g>
<!-- DataListViewDetailsDialogComponent&#45;&gt;NIEOSModule -->
<g id="edge3" class="edge">
<title>DataListViewDetailsDialogComponent&#45;&gt;NIEOSModule</title>
<path fill="none" stroke="#000000" d="M6763,-122.0908C6763,-145.1328 6763,-182 6763,-182 6763,-182 3606.5314,-182 3606.5314,-182"/>
<polygon fill="#000000" stroke="#000000" points="3606.5314,-178.5001 3596.5314,-182 3606.5314,-185.5001 3606.5314,-178.5001"/>
</g>
<!-- DataListViewSettings -->
<g id="node4" class="node">
<title>DataListViewSettings</title>
<polygon fill="#ffffb3" stroke="#000000" points="6625.6373,-122 6486.3627,-122 6486.3627,-86 6625.6373,-86 6625.6373,-122"/>
<text text-anchor="middle" x="6556" y="-99.8" font-family="Times,serif" font-size="14.00" fill="#000000">DataListViewSettings</text>
</g>
<!-- DataListViewSettings&#45;&gt;NIEOSModule -->
<g id="edge4" class="edge">
<title>DataListViewSettings&#45;&gt;NIEOSModule</title>
<path fill="none" stroke="#000000" d="M6556,-122.2479C6556,-145.0179 6556,-181 6556,-181 6556,-181 3606.3552,-181 3606.3552,-181"/>
<polygon fill="#000000" stroke="#000000" points="3606.3553,-177.5001 3596.3552,-181 3606.3552,-184.5001 3606.3553,-177.5001"/>
</g>
<!-- DataListViewTableComponent -->
<g id="node5" class="node">
<title>DataListViewTableComponent</title>
<polygon fill="#ffffb3" stroke="#000000" points="6467.7282,-122 6276.2718,-122 6276.2718,-86 6467.7282,-86 6467.7282,-122"/>
<text text-anchor="middle" x="6372" y="-99.8" font-family="Times,serif" font-size="14.00" fill="#000000">DataListViewTableComponent</text>
</g>
<!-- DataListViewTableComponent&#45;&gt;NIEOSModule -->
<g id="edge5" class="edge">
<title>DataListViewTableComponent&#45;&gt;NIEOSModule</title>
<path fill="none" stroke="#000000" d="M6372,-122.1554C6372,-144.3519 6372,-179 6372,-179 6372,-179 3606.5519,-179 3606.5519,-179"/>
<polygon fill="#000000" stroke="#000000" points="3606.5519,-175.5001 3596.5519,-179 3606.5519,-182.5001 3606.5519,-175.5001"/>
</g>
<!-- DataManagementComponent -->
<g id="node6" class="node">
<title>DataManagementComponent</title>
<polygon fill="#ffffb3" stroke="#000000" points="6258.3431,-122 6077.6569,-122 6077.6569,-86 6258.3431,-86 6258.3431,-122"/>
<text text-anchor="middle" x="6168" y="-99.8" font-family="Times,serif" font-size="14.00" fill="#000000">DataManagementComponent</text>
</g>
<!-- DataManagementComponent&#45;&gt;NIEOSModule -->
<g id="edge6" class="edge">
<title>DataManagementComponent&#45;&gt;NIEOSModule</title>
<path fill="none" stroke="#000000" d="M6168,-122.0449C6168,-143.6623 6168,-177 6168,-177 6168,-177 3606.3262,-177 3606.3262,-177"/>
<polygon fill="#000000" stroke="#000000" points="3606.3263,-173.5001 3596.3262,-177 3606.3262,-180.5001 3606.3263,-173.5001"/>
</g>
<!-- Frame -->
<g id="node7" class="node">
<title>Frame</title>
<polygon fill="#ffffb3" stroke="#000000" points="6060,-122 6006,-122 6006,-86 6060,-86 6060,-122"/>
<text text-anchor="middle" x="6033" y="-99.8" font-family="Times,serif" font-size="14.00" fill="#000000">Frame</text>
</g>
<!-- Frame&#45;&gt;NIEOSModule -->
<g id="edge7" class="edge">
<title>Frame&#45;&gt;NIEOSModule</title>
<path fill="none" stroke="#000000" d="M6033,-122.2843C6033,-143.3211 6033,-175 6033,-175 6033,-175 3606.5229,-175 3606.5229,-175"/>
<polygon fill="#000000" stroke="#000000" points="3606.5229,-171.5001 3596.5229,-175 3606.5229,-178.5001 3606.5229,-171.5001"/>
</g>
<!-- FrameSettingsComponent -->
<g id="node8" class="node">
<title>FrameSettingsComponent</title>
<polygon fill="#ffffb3" stroke="#000000" points="5988.2091,-122 5825.7909,-122 5825.7909,-86 5988.2091,-86 5988.2091,-122"/>
<text text-anchor="middle" x="5907" y="-99.8" font-family="Times,serif" font-size="14.00" fill="#000000">FrameSettingsComponent</text>
</g>
<!-- FrameSettingsComponent&#45;&gt;NIEOSModule -->
<g id="edge8" class="edge">
<title>FrameSettingsComponent&#45;&gt;NIEOSModule</title>
<path fill="none" stroke="#000000" d="M5907,-122.0267C5907,-142.7672 5907,-174 5907,-174 5907,-174 3606.4051,-174 3606.4051,-174"/>
<polygon fill="#000000" stroke="#000000" points="3606.4052,-170.5001 3596.4051,-174 3606.4051,-177.5001 3606.4052,-170.5001"/>
</g>
<!-- GrapesjsComponent -->
<g id="node9" class="node">
<title>GrapesjsComponent</title>
<polygon fill="#ffffb3" stroke="#000000" points="5808.309,-122 5677.691,-122 5677.691,-86 5808.309,-86 5808.309,-122"/>
<text text-anchor="middle" x="5743" y="-99.8" font-family="Times,serif" font-size="14.00" fill="#000000">GrapesjsComponent</text>
</g>
<!-- GrapesjsComponent&#45;&gt;NIEOSModule -->
<g id="edge9" class="edge">
<title>GrapesjsComponent&#45;&gt;NIEOSModule</title>
<path fill="none" stroke="#000000" d="M5743,-122.2228C5743,-142.3652 5743,-172 5743,-172 5743,-172 3606.2788,-172 3606.2788,-172"/>
<polygon fill="#000000" stroke="#000000" points="3606.2788,-168.5001 3596.2788,-172 3606.2788,-175.5001 3606.2788,-168.5001"/>
</g>
<!-- HighlightPipe -->
<g id="node10" class="node">
<title>HighlightPipe</title>
<polygon fill="#ffffb3" stroke="#000000" points="5660.0578,-122 5565.9422,-122 5565.9422,-86 5660.0578,-86 5660.0578,-122"/>
<text text-anchor="middle" x="5613" y="-99.8" font-family="Times,serif" font-size="14.00" fill="#000000">HighlightPipe</text>
</g>
<!-- HighlightPipe&#45;&gt;NIEOSModule -->
<g id="edge10" class="edge">
<title>HighlightPipe&#45;&gt;NIEOSModule</title>
<path fill="none" stroke="#000000" d="M5613,-122.0348C5613,-141.5762 5613,-170 5613,-170 5613,-170 3606.3256,-170 3606.3256,-170"/>
<polygon fill="#000000" stroke="#000000" points="3606.3257,-166.5001 3596.3256,-170 3606.3256,-173.5001 3606.3257,-166.5001"/>
</g>
<!-- KeyValueFormComponent -->
<g id="node11" class="node">
<title>KeyValueFormComponent</title>
<polygon fill="#ffffb3" stroke="#000000" points="5548.4143,-122 5379.5857,-122 5379.5857,-86 5548.4143,-86 5548.4143,-122"/>
<text text-anchor="middle" x="5464" y="-99.8" font-family="Times,serif" font-size="14.00" fill="#000000">KeyValueFormComponent</text>
</g>
<!-- KeyValueFormComponent&#45;&gt;NIEOSModule -->
<g id="edge11" class="edge">
<title>KeyValueFormComponent&#45;&gt;NIEOSModule</title>
<path fill="none" stroke="#000000" d="M5464,-122.1061C5464,-141.3391 5464,-169 5464,-169 5464,-169 3606.316,-169 3606.316,-169"/>
<polygon fill="#000000" stroke="#000000" points="3606.316,-165.5001 3596.316,-169 3606.3159,-172.5001 3606.316,-165.5001"/>
</g>
<!-- LoadVariablesComponent -->
<g id="node12" class="node">
<title>LoadVariablesComponent</title>
<polygon fill="#ffffb3" stroke="#000000" points="5361.7366,-122 5198.2634,-122 5198.2634,-86 5361.7366,-86 5361.7366,-122"/>
<text text-anchor="middle" x="5280" y="-99.8" font-family="Times,serif" font-size="14.00" fill="#000000">LoadVariablesComponent</text>
</g>
<!-- LoadVariablesComponent&#45;&gt;NIEOSModule -->
<g id="edge12" class="edge">
<title>LoadVariablesComponent&#45;&gt;NIEOSModule</title>
<path fill="none" stroke="#000000" d="M5280,-122.2222C5280,-140.8285 5280,-167 5280,-167 5280,-167 3606.4897,-167 3606.4897,-167"/>
<polygon fill="#000000" stroke="#000000" points="3606.4898,-163.5001 3596.4897,-167 3606.4897,-170.5001 3606.4898,-163.5001"/>
</g>
<!-- NewGjsBoxDialogComponent -->
<g id="node13" class="node">
<title>NewGjsBoxDialogComponent</title>
<polygon fill="#ffffb3" stroke="#000000" points="5180.1413,-122 4991.8587,-122 4991.8587,-86 5180.1413,-86 5180.1413,-122"/>
<text text-anchor="middle" x="5086" y="-99.8" font-family="Times,serif" font-size="14.00" fill="#000000">NewGjsBoxDialogComponent</text>
</g>
<!-- NewGjsBoxDialogComponent&#45;&gt;NIEOSModule -->
<g id="edge13" class="edge">
<title>NewGjsBoxDialogComponent&#45;&gt;NIEOSModule</title>
<path fill="none" stroke="#000000" d="M5086,-122.302C5086,-140.2699 5086,-165 5086,-165 5086,-165 3606.363,-165 3606.363,-165"/>
<polygon fill="#000000" stroke="#000000" points="3606.363,-161.5001 3596.363,-165 3606.363,-168.5001 3606.363,-161.5001"/>
</g>
<!-- OpenbisLoginComponent -->
<g id="node14" class="node">
<title>OpenbisLoginComponent</title>
<polygon fill="#ffffb3" stroke="#000000" points="4973.9326,-122 4812.0674,-122 4812.0674,-86 4973.9326,-86 4973.9326,-122"/>
<text text-anchor="middle" x="4893" y="-99.8" font-family="Times,serif" font-size="14.00" fill="#000000">OpenbisLoginComponent</text>
</g>
<!-- OpenbisLoginComponent&#45;&gt;NIEOSModule -->
<g id="edge14" class="edge">
<title>OpenbisLoginComponent&#45;&gt;NIEOSModule</title>
<path fill="none" stroke="#000000" d="M4893,-122.0225C4893,-139.3734 4893,-163 4893,-163 4893,-163 3606.3456,-163 3606.3456,-163"/>
<polygon fill="#000000" stroke="#000000" points="3606.3456,-159.5001 3596.3456,-163 3606.3456,-166.5001 3606.3456,-159.5001"/>
</g>
<!-- PageComponent -->
<g id="node15" class="node">
<title>PageComponent</title>
<polygon fill="#ffffb3" stroke="#000000" points="4794.0452,-122 4685.9548,-122 4685.9548,-86 4794.0452,-86 4794.0452,-122"/>
<text text-anchor="middle" x="4740" y="-99.8" font-family="Times,serif" font-size="14.00" fill="#000000">PageComponent</text>
</g>
<!-- PageComponent&#45;&gt;NIEOSModule -->
<g id="edge15" class="edge">
<title>PageComponent&#45;&gt;NIEOSModule</title>
<path fill="none" stroke="#000000" d="M4740,-122.0336C4740,-139.0597 4740,-162 4740,-162 4740,-162 3606.5421,-162 3606.5421,-162"/>
<polygon fill="#000000" stroke="#000000" points="3606.5421,-158.5001 3596.5421,-162 3606.542,-165.5001 3606.5421,-158.5001"/>
</g>
<!-- PageMenuComponent -->
<g id="node16" class="node">
<title>PageMenuComponent</title>
<polygon fill="#ffffb3" stroke="#000000" points="4667.7035,-122 4526.2965,-122 4526.2965,-86 4667.7035,-86 4667.7035,-122"/>
<text text-anchor="middle" x="4597" y="-99.8" font-family="Times,serif" font-size="14.00" fill="#000000">PageMenuComponent</text>
</g>
<!-- PageMenuComponent&#45;&gt;NIEOSModule -->
<g id="edge16" class="edge">
<title>PageMenuComponent&#45;&gt;NIEOSModule</title>
<path fill="none" stroke="#000000" d="M4597,-122.027C4597,-138.3976 4597,-160 4597,-160 4597,-160 3606.3378,-160 3606.3378,-160"/>
<polygon fill="#000000" stroke="#000000" points="3606.3379,-156.5001 3596.3378,-160 3606.3378,-163.5001 3606.3379,-156.5001"/>
</g>
<!-- ParzivalFassungComponent -->
<g id="node17" class="node">
<title>ParzivalFassungComponent</title>
<polygon fill="#ffffb3" stroke="#000000" points="4508.587,-122 4335.413,-122 4335.413,-86 4508.587,-86 4508.587,-122"/>
<text text-anchor="middle" x="4422" y="-99.8" font-family="Times,serif" font-size="14.00" fill="#000000">ParzivalFassungComponent</text>
</g>
<!-- ParzivalFassungComponent&#45;&gt;NIEOSModule -->
<g id="edge17" class="edge">
<title>ParzivalFassungComponent&#45;&gt;NIEOSModule</title>
<path fill="none" stroke="#000000" d="M4422,-122.2819C4422,-137.9478 4422,-158 4422,-158 4422,-158 3606.5634,-158 3606.5634,-158"/>
<polygon fill="#000000" stroke="#000000" points="3606.5635,-154.5001 3596.5634,-158 3606.5634,-161.5001 3606.5635,-154.5001"/>
</g>
<!-- QueryAppInputMapComponent -->
<g id="node18" class="node">
<title>QueryAppInputMapComponent</title>
<polygon fill="#ffffb3" stroke="#000000" points="4317.6315,-122 4122.3685,-122 4122.3685,-86 4317.6315,-86 4317.6315,-122"/>
<text text-anchor="middle" x="4220" y="-99.8" font-family="Times,serif" font-size="14.00" fill="#000000">QueryAppInputMapComponent</text>
</g>
<!-- QueryAppInputMapComponent&#45;&gt;NIEOSModule -->
<g id="edge18" class="edge">
<title>QueryAppInputMapComponent&#45;&gt;NIEOSModule</title>
<path fill="none" stroke="#000000" d="M4220,-122.2396C4220,-137.5706 4220,-157 4220,-157 4220,-157 3606.3839,-157 3606.3839,-157"/>
<polygon fill="#000000" stroke="#000000" points="3606.3839,-153.5001 3596.3839,-157 3606.3839,-160.5001 3606.3839,-153.5001"/>
</g>
<!-- QueryEntryComponent -->
<g id="node19" class="node">
<title>QueryEntryComponent</title>
<polygon fill="#ffffb3" stroke="#000000" points="4103.9186,-122 3956.0814,-122 3956.0814,-86 4103.9186,-86 4103.9186,-122"/>
<text text-anchor="middle" x="4030" y="-99.8" font-family="Times,serif" font-size="14.00" fill="#000000">QueryEntryComponent</text>
</g>
<!-- QueryEntryComponent&#45;&gt;NIEOSModule -->
<g id="edge19" class="edge">
<title>QueryEntryComponent&#45;&gt;NIEOSModule</title>
<path fill="none" stroke="#000000" d="M4030,-122.1243C4030,-136.7832 4030,-155 4030,-155 4030,-155 3606.4268,-155 3606.4268,-155"/>
<polygon fill="#000000" stroke="#000000" points="3606.4268,-151.5001 3596.4268,-155 3606.4267,-158.5001 3606.4268,-151.5001"/>
</g>
<!-- QueryInformationDialogComponent -->
<g id="node20" class="node">
<title>QueryInformationDialogComponent</title>
<polygon fill="#ffffb3" stroke="#000000" points="3938.785,-122 3717.215,-122 3717.215,-86 3938.785,-86 3938.785,-122"/>
<text text-anchor="middle" x="3828" y="-99.8" font-family="Times,serif" font-size="14.00" fill="#000000">QueryInformationDialogComponent</text>
</g>
<!-- QueryInformationDialogComponent&#45;&gt;NIEOSModule -->
<g id="edge20" class="edge">
<title>QueryInformationDialogComponent&#45;&gt;NIEOSModule</title>
<path fill="none" stroke="#000000" d="M3828,-122.2458C3828,-136.1772 3828,-153 3828,-153 3828,-153 3606.4159,-153 3606.4159,-153"/>
<polygon fill="#000000" stroke="#000000" points="3606.416,-149.5001 3596.4159,-153 3606.4159,-156.5001 3606.416,-149.5001"/>
</g>
<!-- QueryListComponent -->
<g id="node21" class="node">
<title>QueryListComponent</title>
<polygon fill="#ffffb3" stroke="#000000" points="3699.0926,-122 3560.9074,-122 3560.9074,-86 3699.0926,-86 3699.0926,-122"/>
<text text-anchor="middle" x="3630" y="-99.8" font-family="Times,serif" font-size="14.00" fill="#000000">QueryListComponent</text>
</g>
<!-- QueryListComponent&#45;&gt;NIEOSModule -->
<g id="edge21" class="edge">
<title>QueryListComponent&#45;&gt;NIEOSModule</title>
<path fill="none" stroke="#000000" d="M3578.6666,-122.1061C3578.6666,-122.1061 3578.6666,-140.991 3578.6666,-140.991"/>
<polygon fill="#000000" stroke="#000000" points="3575.1666,-140.9909 3578.6666,-150.991 3582.1666,-140.991 3575.1666,-140.9909"/>
</g>
<!-- ResponseTreeComponent -->
<g id="node22" class="node">
<title>ResponseTreeComponent</title>
<polygon fill="#ffffb3" stroke="#000000" points="3543.1302,-122 3382.8698,-122 3382.8698,-86 3543.1302,-86 3543.1302,-122"/>
<text text-anchor="middle" x="3463" y="-99.8" font-family="Times,serif" font-size="14.00" fill="#000000">ResponseTreeComponent</text>
</g>
<!-- ResponseTreeComponent&#45;&gt;NIEOSModule -->
<g id="edge22" class="edge">
<title>ResponseTreeComponent&#45;&gt;NIEOSModule</title>
<path fill="none" stroke="#000000" d="M3519.4678,-122.1061C3519.4678,-122.1061 3519.4678,-140.991 3519.4678,-140.991"/>
<polygon fill="#000000" stroke="#000000" points="3515.9678,-140.9909 3519.4678,-150.991 3522.9678,-140.991 3515.9678,-140.9909"/>
</g>
<!-- SimpleImageAppComponent -->
<g id="node23" class="node">
<title>SimpleImageAppComponent</title>
<polygon fill="#ffffb3" stroke="#000000" points="3365.0884,-122 3184.9116,-122 3184.9116,-86 3365.0884,-86 3365.0884,-122"/>
<text text-anchor="middle" x="3275" y="-99.8" font-family="Times,serif" font-size="14.00" fill="#000000">SimpleImageAppComponent</text>
</g>
<!-- SimpleImageAppComponent&#45;&gt;NIEOSModule -->
<g id="edge23" class="edge">
<title>SimpleImageAppComponent&#45;&gt;NIEOSModule</title>
<path fill="none" stroke="#000000" d="M3275,-122.2458C3275,-136.1772 3275,-153 3275,-153 3275,-153 3485.6621,-153 3485.6621,-153"/>
<polygon fill="#000000" stroke="#000000" points="3485.6621,-156.5001 3495.6621,-153 3485.6621,-149.5001 3485.6621,-156.5001"/>
</g>
<!-- TextlistViewerComponent -->
<g id="node24" class="node">
<title>TextlistViewerComponent</title>
<polygon fill="#ffffb3" stroke="#000000" points="3166.8005,-122 3001.1995,-122 3001.1995,-86 3166.8005,-86 3166.8005,-122"/>
<text text-anchor="middle" x="3084" y="-99.8" font-family="Times,serif" font-size="14.00" fill="#000000">TextlistViewerComponent</text>
</g>
<!-- TextlistViewerComponent&#45;&gt;NIEOSModule -->
<g id="edge24" class="edge">
<title>TextlistViewerComponent&#45;&gt;NIEOSModule</title>
<path fill="none" stroke="#000000" d="M3084,-122.1243C3084,-136.7832 3084,-155 3084,-155 3084,-155 3485.6784,-155 3485.6784,-155"/>
<polygon fill="#000000" stroke="#000000" points="3485.6785,-158.5001 3495.6784,-155 3485.6784,-151.5001 3485.6785,-158.5001"/>
</g>
<!-- UpdateLinkedAppsComponent -->
<g id="node25" class="node">
<title>UpdateLinkedAppsComponent</title>
<polygon fill="#ffffb3" stroke="#000000" points="2983.4678,-122 2792.5322,-122 2792.5322,-86 2983.4678,-86 2983.4678,-122"/>
<text text-anchor="middle" x="2888" y="-99.8" font-family="Times,serif" font-size="14.00" fill="#000000">UpdateLinkedAppsComponent</text>
</g>
<!-- UpdateLinkedAppsComponent&#45;&gt;NIEOSModule -->
<g id="edge25" class="edge">
<title>UpdateLinkedAppsComponent&#45;&gt;NIEOSModule</title>
<path fill="none" stroke="#000000" d="M2888,-122.2396C2888,-137.5706 2888,-157 2888,-157 2888,-157 3485.732,-157 3485.732,-157"/>
<polygon fill="#000000" stroke="#000000" points="3485.732,-160.5001 3495.732,-157 3485.732,-153.5001 3485.732,-160.5001"/>
</g>
<!-- YoutubeVideoComponent -->
<g id="node26" class="node">
<title>YoutubeVideoComponent</title>
<polygon fill="#ffffb3" stroke="#000000" points="2774.7562,-122 2611.2438,-122 2611.2438,-86 2774.7562,-86 2774.7562,-122"/>
<text text-anchor="middle" x="2693" y="-99.8" font-family="Times,serif" font-size="14.00" fill="#000000">YoutubeVideoComponent</text>
</g>
<!-- YoutubeVideoComponent&#45;&gt;NIEOSModule -->
<g id="edge26" class="edge">
<title>YoutubeVideoComponent&#45;&gt;NIEOSModule</title>
<path fill="none" stroke="#000000" d="M2693,-122.2819C2693,-137.9478 2693,-158 2693,-158 2693,-158 3485.5109,-158 3485.5109,-158"/>
<polygon fill="#000000" stroke="#000000" points="3485.511,-161.5001 3495.5109,-158 3485.5109,-154.5001 3485.511,-161.5001"/>
</g>
<!-- GrapesjsComponent  -->
<g id="node41" class="node">
<title>GrapesjsComponent </title>
<polygon fill="#fb8072" stroke="#000000" points="3683.8087,-252 3550.1913,-252 3550.1913,-216 3683.8087,-216 3683.8087,-252"/>
<text text-anchor="middle" x="3617" y="-229.8" font-family="Times,serif" font-size="14.00" fill="#000000">GrapesjsComponent </text>
</g>
<!-- NIEOSModule&#45;&gt;GrapesjsComponent  -->
<g id="edge40" class="edge">
<title>NIEOSModule&#45;&gt;GrapesjsComponent </title>
<path fill="none" stroke="#000000" stroke-dasharray="5,2" d="M3573.2376,-187.1061C3573.2376,-187.1061 3573.2376,-205.991 3573.2376,-205.991"/>
<polygon fill="#000000" stroke="#000000" points="3569.7376,-205.9909 3573.2376,-215.991 3576.7376,-205.991 3569.7376,-205.9909"/>
</g>
<!-- PageComponent  -->
<g id="node42" class="node">
<title>PageComponent </title>
<polygon fill="#fb8072" stroke="#000000" points="3532.0442,-252 3419.9558,-252 3419.9558,-216 3532.0442,-216 3532.0442,-252"/>
<text text-anchor="middle" x="3476" y="-229.8" font-family="Times,serif" font-size="14.00" fill="#000000">PageComponent </text>
</g>
<!-- NIEOSModule&#45;&gt;PageComponent  -->
<g id="edge41" class="edge">
<title>NIEOSModule&#45;&gt;PageComponent </title>
<path fill="none" stroke="#000000" stroke-dasharray="5,2" d="M3513.8214,-187.1061C3513.8214,-187.1061 3513.8214,-205.991 3513.8214,-205.991"/>
<polygon fill="#000000" stroke="#000000" points="3510.3214,-205.9909 3513.8214,-215.991 3517.3214,-205.991 3510.3214,-205.9909"/>
</g>
<!-- ComplexTextViewsModule -->
<g id="node28" class="node">
<title>ComplexTextViewsModule</title>
<polygon fill="#8dd3c7" stroke="#000000" points="2587.3033,-122 2584.3033,-126 2563.3033,-126 2560.3033,-122 2414.6967,-122 2414.6967,-86 2587.3033,-86 2587.3033,-122"/>
<text text-anchor="middle" x="2501" y="-99.8" font-family="Times,serif" font-size="14.00" fill="#000000">ComplexTextViewsModule</text>
</g>
<!-- ComplexTextViewsModule&#45;&gt;NIEOSModule -->
<g id="edge27" class="edge">
<title>ComplexTextViewsModule&#45;&gt;NIEOSModule</title>
<path fill="none" stroke="#000000" d="M2501,-122.027C2501,-138.3976 2501,-160 2501,-160 2501,-160 3485.5975,-160 3485.5975,-160"/>
<polygon fill="#000000" stroke="#000000" points="3485.5975,-163.5001 3495.5975,-160 3485.5974,-156.5001 3485.5975,-163.5001"/>
</g>
<!-- CreateResourceModule -->
<g id="node29" class="node">
<title>CreateResourceModule</title>
<polygon fill="#8dd3c7" stroke="#000000" points="2397.1671,-122 2394.1671,-126 2373.1671,-126 2370.1671,-122 2248.8329,-122 2248.8329,-86 2397.1671,-86 2397.1671,-122"/>
<text text-anchor="middle" x="2323" y="-99.8" font-family="Times,serif" font-size="14.00" fill="#000000">CreateResourceModule</text>
</g>
<!-- CreateResourceModule&#45;&gt;NIEOSModule -->
<g id="edge28" class="edge">
<title>CreateResourceModule&#45;&gt;NIEOSModule</title>
<path fill="none" stroke="#000000" d="M2323,-122.0336C2323,-139.0597 2323,-162 2323,-162 2323,-162 3485.3922,-162 3485.3922,-162"/>
<polygon fill="#000000" stroke="#000000" points="3485.3923,-165.5001 3495.3922,-162 3485.3922,-158.5001 3485.3923,-165.5001"/>
</g>
<!-- D3jsModule -->
<g id="node30" class="node">
<title>D3jsModule</title>
<polygon fill="#8dd3c7" stroke="#000000" points="2230.9916,-122 2227.9916,-126 2206.9916,-126 2203.9916,-122 2145.0084,-122 2145.0084,-86 2230.9916,-86 2230.9916,-122"/>
<text text-anchor="middle" x="2188" y="-99.8" font-family="Times,serif" font-size="14.00" fill="#000000">D3jsModule</text>
</g>
<!-- D3jsModule&#45;&gt;NIEOSModule -->
<g id="edge29" class="edge">
<title>D3jsModule&#45;&gt;NIEOSModule</title>
<path fill="none" stroke="#000000" d="M2188,-122.0225C2188,-139.3734 2188,-163 2188,-163 2188,-163 3485.6511,-163 3485.6511,-163"/>
<polygon fill="#000000" stroke="#000000" points="3485.6512,-166.5001 3495.6511,-163 3485.6511,-159.5001 3485.6512,-166.5001"/>
</g>
<!-- DataManagementToolModule -->
<g id="node31" class="node">
<title>DataManagementToolModule</title>
<polygon fill="#8dd3c7" stroke="#000000" points="2126.5043,-122 2123.5043,-126 2102.5043,-126 2099.5043,-122 1941.4957,-122 1941.4957,-86 2126.5043,-86 2126.5043,-122"/>
<text text-anchor="middle" x="2034" y="-99.8" font-family="Times,serif" font-size="14.00" fill="#000000">DataManagementToolModule</text>
</g>
<!-- DataManagementToolModule&#45;&gt;NIEOSModule -->
<g id="edge30" class="edge">
<title>DataManagementToolModule&#45;&gt;NIEOSModule</title>
<path fill="none" stroke="#000000" d="M2034,-122.302C2034,-140.2699 2034,-165 2034,-165 2034,-165 3485.6931,-165 3485.6931,-165"/>
<polygon fill="#000000" stroke="#000000" points="3485.6931,-168.5001 3495.6931,-165 3485.693,-161.5001 3485.6931,-168.5001"/>
</g>
<!-- HtmlViewerModule -->
<g id="node32" class="node">
<title>HtmlViewerModule</title>
<polygon fill="#8dd3c7" stroke="#000000" points="1922.5227,-122 1919.5227,-126 1898.5227,-126 1895.5227,-122 1793.4773,-122 1793.4773,-86 1922.5227,-86 1922.5227,-122"/>
<text text-anchor="middle" x="1858" y="-99.8" font-family="Times,serif" font-size="14.00" fill="#000000">HtmlViewerModule</text>
</g>
<!-- HtmlViewerModule&#45;&gt;NIEOSModule -->
<g id="edge31" class="edge">
<title>HtmlViewerModule&#45;&gt;NIEOSModule</title>
<path fill="none" stroke="#000000" d="M1858,-122.2222C1858,-140.8285 1858,-167 1858,-167 1858,-167 3485.4815,-167 3485.4815,-167"/>
<polygon fill="#000000" stroke="#000000" points="3485.4815,-170.5001 3495.4815,-167 3485.4815,-163.5001 3485.4815,-170.5001"/>
</g>
<!-- ImageFrameModule -->
<g id="node33" class="node">
<title>ImageFrameModule</title>
<polygon fill="#8dd3c7" stroke="#000000" points="1775.2935,-122 1772.2935,-126 1751.2935,-126 1748.2935,-122 1644.7065,-122 1644.7065,-86 1775.2935,-86 1775.2935,-122"/>
<text text-anchor="middle" x="1710" y="-99.8" font-family="Times,serif" font-size="14.00" fill="#000000">ImageFrameModule</text>
</g>
<!-- ImageFrameModule&#45;&gt;NIEOSModule -->
<g id="edge32" class="edge">
<title>ImageFrameModule&#45;&gt;NIEOSModule</title>
<path fill="none" stroke="#000000" d="M1710,-122.1061C1710,-141.3391 1710,-169 1710,-169 1710,-169 3485.46,-169 3485.46,-169"/>
<polygon fill="#000000" stroke="#000000" points="3485.46,-172.5001 3495.46,-169 3485.4599,-165.5001 3485.46,-172.5001"/>
</g>
<!-- MyPageSetModule -->
<g id="node34" class="node">
<title>MyPageSetModule</title>
<polygon fill="#8dd3c7" stroke="#000000" points="1627.094,-122 1624.094,-126 1603.094,-126 1600.094,-122 1502.906,-122 1502.906,-86 1627.094,-86 1627.094,-122"/>
<text text-anchor="middle" x="1565" y="-99.8" font-family="Times,serif" font-size="14.00" fill="#000000">MyPageSetModule</text>
</g>
<!-- MyPageSetModule&#45;&gt;NIEOSModule -->
<g id="edge33" class="edge">
<title>MyPageSetModule&#45;&gt;NIEOSModule</title>
<path fill="none" stroke="#000000" d="M1565,-122.0348C1565,-141.5762 1565,-170 1565,-170 1565,-170 3485.5416,-170 3485.5416,-170"/>
<polygon fill="#000000" stroke="#000000" points="3485.5416,-173.5001 3495.5416,-170 3485.5415,-166.5001 3485.5416,-173.5001"/>
</g>
<!-- NavigationModule -->
<g id="node35" class="node">
<title>NavigationModule</title>
<polygon fill="#8dd3c7" stroke="#000000" points="1484.7576,-122 1481.7576,-126 1460.7576,-126 1457.7576,-122 1363.2424,-122 1363.2424,-86 1484.7576,-86 1484.7576,-122"/>
<text text-anchor="middle" x="1424" y="-99.8" font-family="Times,serif" font-size="14.00" fill="#000000">NavigationModule</text>
</g>
<!-- NavigationModule&#45;&gt;NIEOSModule -->
<g id="edge34" class="edge">
<title>NavigationModule&#45;&gt;NIEOSModule</title>
<path fill="none" stroke="#000000" d="M1424,-122.2228C1424,-142.3652 1424,-172 1424,-172 1424,-172 3485.6388,-172 3485.6388,-172"/>
<polygon fill="#000000" stroke="#000000" points="3485.6388,-175.5001 3495.6388,-172 3485.6387,-168.5001 3485.6388,-175.5001"/>
</g>
<!-- Project0041Module -->
<g id="node36" class="node">
<title>Project0041Module</title>
<polygon fill="#8dd3c7" stroke="#000000" points="1345.7036,-122 1342.7036,-126 1321.7036,-126 1318.7036,-122 1218.2964,-122 1218.2964,-86 1345.7036,-86 1345.7036,-122"/>
<text text-anchor="middle" x="1282" y="-99.8" font-family="Times,serif" font-size="14.00" fill="#000000">Project0041Module</text>
</g>
<!-- Project0041Module&#45;&gt;NIEOSModule -->
<g id="edge35" class="edge">
<title>Project0041Module&#45;&gt;NIEOSModule</title>
<path fill="none" stroke="#000000" d="M1282,-122.0267C1282,-142.7672 1282,-174 1282,-174 1282,-174 3485.5388,-174 3485.5388,-174"/>
<polygon fill="#000000" stroke="#000000" points="3485.5389,-177.5001 3495.5388,-174 3485.5388,-170.5001 3485.5389,-177.5001"/>
</g>
<!-- ResourceFormModule -->
<g id="node37" class="node">
<title>ResourceFormModule</title>
<polygon fill="#8dd3c7" stroke="#000000" points="1199.9692,-122 1196.9692,-126 1175.9692,-126 1172.9692,-122 1058.0308,-122 1058.0308,-86 1199.9692,-86 1199.9692,-122"/>
<text text-anchor="middle" x="1129" y="-99.8" font-family="Times,serif" font-size="14.00" fill="#000000">ResourceFormModule</text>
</g>
<!-- ResourceFormModule&#45;&gt;NIEOSModule -->
<g id="edge36" class="edge">
<title>ResourceFormModule&#45;&gt;NIEOSModule</title>
<path fill="none" stroke="#000000" d="M1129,-122.2843C1129,-143.3211 1129,-175 1129,-175 1129,-175 3485.5175,-175 3485.5175,-175"/>
<polygon fill="#000000" stroke="#000000" points="3485.5176,-178.5001 3495.5175,-175 3485.5175,-171.5001 3485.5176,-178.5001"/>
</g>
<!-- StaticPagesModule -->
<g id="node38" class="node">
<title>StaticPagesModule</title>
<polygon fill="#8dd3c7" stroke="#000000" points="1040.0898,-122 1037.0898,-126 1016.0898,-126 1013.0898,-122 915.9102,-122 915.9102,-86 1040.0898,-86 1040.0898,-122"/>
<text text-anchor="middle" x="978" y="-99.8" font-family="Times,serif" font-size="14.00" fill="#000000">StaticPagesModule</text>
</g>
<!-- StaticPagesModule&#45;&gt;NIEOSModule -->
<g id="edge37" class="edge">
<title>StaticPagesModule&#45;&gt;NIEOSModule</title>
<path fill="none" stroke="#000000" d="M978,-122.0449C978,-143.6623 978,-177 978,-177 978,-177 3485.568,-177 3485.568,-177"/>
<polygon fill="#000000" stroke="#000000" points="3485.568,-180.5001 3495.568,-177 3485.5679,-173.5001 3485.568,-180.5001"/>
</g>
<!-- SynopsisModule -->
<g id="node39" class="node">
<title>SynopsisModule</title>
<polygon fill="#8dd3c7" stroke="#000000" points="898.1123,-122 895.1123,-126 874.1123,-126 871.1123,-122 787.8877,-122 787.8877,-86 898.1123,-86 898.1123,-122"/>
<text text-anchor="middle" x="843" y="-99.8" font-family="Times,serif" font-size="14.00" fill="#000000">SynopsisModule</text>
</g>
<!-- SynopsisModule&#45;&gt;NIEOSModule -->
<g id="edge38" class="edge">
<title>SynopsisModule&#45;&gt;NIEOSModule</title>
<path fill="none" stroke="#000000" d="M843,-122.1554C843,-144.3519 843,-179 843,-179 843,-179 3485.6038,-179 3485.6038,-179"/>
<polygon fill="#000000" stroke="#000000" points="3485.6038,-182.5001 3495.6038,-179 3485.6037,-175.5001 3485.6038,-182.5001"/>
</g>
<!-- TextViewModule -->
<g id="node40" class="node">
<title>TextViewModule</title>
<polygon fill="#8dd3c7" stroke="#000000" points="769.527,-122 766.527,-126 745.527,-126 742.527,-122 654.473,-122 654.473,-86 769.527,-86 769.527,-122"/>
<text text-anchor="middle" x="712" y="-99.8" font-family="Times,serif" font-size="14.00" fill="#000000">TextViewModule</text>
</g>
<!-- TextViewModule&#45;&gt;NIEOSModule -->
<g id="edge39" class="edge">
<title>TextViewModule&#45;&gt;NIEOSModule</title>
<path fill="none" stroke="#000000" d="M712,-122.2479C712,-145.0179 712,-181 712,-181 712,-181 3485.6078,-181 3485.6078,-181"/>
<polygon fill="#000000" stroke="#000000" points="3485.6079,-184.5001 3495.6078,-181 3485.6078,-177.5001 3485.6079,-184.5001"/>
</g>
<!-- FileDatabase -->
<g id="node43" class="node">
<title>FileDatabase</title>
<ellipse fill="#fdb462" stroke="#000000" cx="569" cy="-104" rx="61.3896" ry="18"/>
<text text-anchor="middle" x="569" y="-99.8" font-family="Times,serif" font-size="14.00" fill="#000000">FileDatabase</text>
</g>
<!-- FileDatabase&#45;&gt;NIEOSModule -->
<g id="edge42" class="edge">
<title>FileDatabase&#45;&gt;NIEOSModule</title>
<path fill="none" stroke="#000000" d="M569,-122.0908C569,-145.1328 569,-182 569,-182 569,-182 3485.5777,-182 3485.5777,-182"/>
<polygon fill="#000000" stroke="#000000" points="3485.5777,-185.5001 3495.5777,-182 3485.5777,-178.5001 3485.5777,-185.5001"/>
</g>
<!-- GenerateHashService -->
<g id="node44" class="node">
<title>GenerateHashService</title>
<ellipse fill="#fdb462" stroke="#000000" cx="395" cy="-104" rx="94.8587" ry="18"/>
<text text-anchor="middle" x="395" y="-99.8" font-family="Times,serif" font-size="14.00" fill="#000000">GenerateHashService</text>
</g>
<!-- GenerateHashService&#45;&gt;NIEOSModule -->
<g id="edge43" class="edge">
<title>GenerateHashService&#45;&gt;NIEOSModule</title>
<path fill="none" stroke="#000000" d="M395,-122.1532C395,-145.7566 395,-184 395,-184 395,-184 3485.5496,-184 3485.5496,-184"/>
<polygon fill="#000000" stroke="#000000" points="3485.5496,-187.5001 3495.5496,-184 3485.5495,-180.5001 3485.5496,-187.5001"/>
</g>
<!-- SendGravSearchQueryService -->
<g id="node45" class="node">
<title>SendGravSearchQueryService</title>
<ellipse fill="#fdb462" stroke="#000000" cx="153" cy="-104" rx="129.0134" ry="18"/>
<text text-anchor="middle" x="153" y="-99.8" font-family="Times,serif" font-size="14.00" fill="#000000">SendGravSearchQueryService</text>
</g>
<!-- SendGravSearchQueryService&#45;&gt;NIEOSModule -->
<g id="edge44" class="edge">
<title>SendGravSearchQueryService&#45;&gt;NIEOSModule</title>
<path fill="none" stroke="#000000" d="M153,-122.1985C153,-146.3563 153,-186 153,-186 153,-186 3485.7357,-186 3485.7357,-186"/>
<polygon fill="#000000" stroke="#000000" points="3485.7357,-189.5001 3495.7357,-186 3485.7357,-182.5001 3485.7357,-189.5001"/>
</g>
</g>
</svg>
