<?xml version="1.0" encoding="UTF-8" standalone="no"?>
<!DOCTYPE svg PUBLIC "-//W3C//DTD SVG 1.1//EN"
 "http://www.w3.org/Graphics/SVG/1.1/DTD/svg11.dtd">
<!-- Generated by graphviz version 2.40.1 (20161225.0304)
 -->
<!-- Title: dependencies Pages: 1 -->
<svg width="6736pt" height="284pt"
 viewBox="0.00 0.00 6736.00 284.00" xmlns="http://www.w3.org/2000/svg" xmlns:xlink="http://www.w3.org/1999/xlink">
<g id="graph0" class="graph" transform="scale(1 1) rotate(0) translate(4 280)">
<title>dependencies</title>
<polygon fill="#ffffff" stroke="transparent" points="-4,4 -4,-280 6732,-280 6732,4 -4,4"/>
<text text-anchor="start" x="3343.0091" y="-42.4" font-family="sans-serif" font-weight="bold" font-size="14.00" fill="#000000">Legend</text>
<polygon fill="#ffffb3" stroke="transparent" points="3130,-10 3130,-30 3150,-30 3150,-10 3130,-10"/>
<text text-anchor="start" x="3153.629" y="-15.4" font-family="sans-serif" font-size="14.00" fill="#000000"> &#160;Declarations</text>
<polygon fill="#8dd3c7" stroke="transparent" points="3243,-10 3243,-30 3263,-30 3263,-10 3243,-10"/>
<text text-anchor="start" x="3266.7251" y="-15.4" font-family="sans-serif" font-size="14.00" fill="#000000"> &#160;Module</text>
<polygon fill="#80b1d3" stroke="transparent" points="3329,-10 3329,-30 3349,-30 3349,-10 3329,-10"/>
<text text-anchor="start" x="3352.7812" y="-15.4" font-family="sans-serif" font-size="14.00" fill="#000000"> &#160;Bootstrap</text>
<polygon fill="#fdb462" stroke="transparent" points="3426,-10 3426,-30 3446,-30 3446,-10 3426,-10"/>
<text text-anchor="start" x="3449.6732" y="-15.4" font-family="sans-serif" font-size="14.00" fill="#000000"> &#160;Providers</text>
<polygon fill="#fb8072" stroke="transparent" points="3522,-10 3522,-30 3542,-30 3542,-10 3522,-10"/>
<text text-anchor="start" x="3545.7258" y="-15.4" font-family="sans-serif" font-size="14.00" fill="#000000"> &#160;Exports</text>
<g id="clust1" class="cluster">
<title>cluster_NIEOSModule</title>
<polygon fill="none" stroke="#000000" stroke-dasharray="1,5" points="8,-70 8,-268 6720,-268 6720,-70 8,-70"/>
</g>
<g id="clust2" class="cluster">
<title>cluster_NIEOSModule_declarations</title>
<polygon fill="none" stroke="#000000" points="2461,-78 2461,-130 6712,-130 6712,-78 2461,-78"/>
</g>
<g id="clust27" class="cluster">
<title>cluster_NIEOSModule_imports</title>
<polygon fill="none" stroke="#000000" points="646,-78 646,-130 2453,-130 2453,-78 646,-78"/>
</g>
<g id="clust28" class="cluster">
<title>cluster_NIEOSModule_exports</title>
<polygon fill="none" stroke="#000000" points="3172,-208 3172,-260 3452,-260 3452,-208 3172,-208"/>
</g>
<g id="clust30" class="cluster">
<title>cluster_NIEOSModule_providers</title>
<polygon fill="none" stroke="#000000" points="16,-78 16,-130 638,-130 638,-78 16,-78"/>
</g>
<!-- DataAssignmentComponent -->
<g id="node1" class="node">
<title>DataAssignmentComponent</title>
<polygon fill="#ffffb3" stroke="#000000" points="6704.1414,-122 6529.8586,-122 6529.8586,-86 6704.1414,-86 6704.1414,-122"/>
<text text-anchor="middle" x="6617" y="-99.8" font-family="Times,serif" font-size="14.00" fill="#000000">DataAssignmentComponent</text>
</g>
<!-- NIEOSModule -->
<g id="node25" class="node">
<title>NIEOSModule</title>
<polygon fill="#8dd3c7" stroke="#000000" points="3356.2591,-187 3353.2591,-191 3332.2591,-191 3329.2591,-187 3255.7409,-187 3255.7409,-151 3356.2591,-151 3356.2591,-187"/>
<text text-anchor="middle" x="3306" y="-164.8" font-family="Times,serif" font-size="14.00" fill="#000000">NIEOSModule</text>
</g>
<!-- DataAssignmentComponent&#45;&gt;NIEOSModule -->
<g id="edge1" class="edge">
<title>DataAssignmentComponent&#45;&gt;NIEOSModule</title>
<path fill="none" stroke="#000000" d="M6617,-122.1985C6617,-146.3563 6617,-186 6617,-186 6617,-186 3366.3543,-186 3366.3543,-186"/>
<polygon fill="#000000" stroke="#000000" points="3366.3543,-182.5001 3356.3543,-186 3366.3542,-189.5001 3366.3543,-182.5001"/>
</g>
<!-- DataListView -->
<g id="node2" class="node">
<title>DataListView</title>
<polygon fill="#ffffb3" stroke="#000000" points="6511.0244,-122 6416.9756,-122 6416.9756,-86 6511.0244,-86 6511.0244,-122"/>
<text text-anchor="middle" x="6464" y="-99.8" font-family="Times,serif" font-size="14.00" fill="#000000">DataListView</text>
</g>
<!-- DataListView&#45;&gt;NIEOSModule -->
<g id="edge2" class="edge">
<title>DataListView&#45;&gt;NIEOSModule</title>
<path fill="none" stroke="#000000" d="M6464,-122.1532C6464,-145.7566 6464,-184 6464,-184 6464,-184 3366.5625,-184 3366.5625,-184"/>
<polygon fill="#000000" stroke="#000000" points="3366.5626,-180.5001 3356.5625,-184 3366.5625,-187.5001 3366.5626,-180.5001"/>
</g>
<!-- DataListViewDetailsDialogComponent -->
<g id="node3" class="node">
<title>DataListViewDetailsDialogComponent</title>
<polygon fill="#ffffb3" stroke="#000000" points="6398.6105,-122 6161.3895,-122 6161.3895,-86 6398.6105,-86 6398.6105,-122"/>
<text text-anchor="middle" x="6280" y="-99.8" font-family="Times,serif" font-size="14.00" fill="#000000">DataListViewDetailsDialogComponent</text>
</g>
<!-- DataListViewDetailsDialogComponent&#45;&gt;NIEOSModule -->
<g id="edge3" class="edge">
<title>DataListViewDetailsDialogComponent&#45;&gt;NIEOSModule</title>
<path fill="none" stroke="#000000" d="M6280,-122.0908C6280,-145.1328 6280,-182 6280,-182 6280,-182 3366.3715,-182 3366.3715,-182"/>
<polygon fill="#000000" stroke="#000000" points="3366.3715,-178.5001 3356.3715,-182 3366.3715,-185.5001 3366.3715,-178.5001"/>
</g>
<!-- DataListViewSettings -->
<g id="node4" class="node">
<title>DataListViewSettings</title>
<polygon fill="#ffffb3" stroke="#000000" points="6142.6373,-122 6003.3627,-122 6003.3627,-86 6142.6373,-86 6142.6373,-122"/>
<text text-anchor="middle" x="6073" y="-99.8" font-family="Times,serif" font-size="14.00" fill="#000000">DataListViewSettings</text>
</g>
<!-- DataListViewSettings&#45;&gt;NIEOSModule -->
<g id="edge4" class="edge">
<title>DataListViewSettings&#45;&gt;NIEOSModule</title>
<path fill="none" stroke="#000000" d="M6073,-122.0109C6073,-144.4852 6073,-180 6073,-180 6073,-180 3366.3885,-180 3366.3885,-180"/>
<polygon fill="#000000" stroke="#000000" points="3366.3885,-176.5001 3356.3885,-180 3366.3885,-183.5001 3366.3885,-176.5001"/>
</g>
<!-- DataListViewTableComponent -->
<g id="node5" class="node">
<title>DataListViewTableComponent</title>
<polygon fill="#ffffb3" stroke="#000000" points="5984.7282,-122 5793.2718,-122 5793.2718,-86 5984.7282,-86 5984.7282,-122"/>
<text text-anchor="middle" x="5889" y="-99.8" font-family="Times,serif" font-size="14.00" fill="#000000">DataListViewTableComponent</text>
</g>
<!-- DataListViewTableComponent&#45;&gt;NIEOSModule -->
<g id="edge5" class="edge">
<title>DataListViewTableComponent&#45;&gt;NIEOSModule</title>
<path fill="none" stroke="#000000" d="M5889,-122.2921C5889,-144.2057 5889,-178 5889,-178 5889,-178 3366.4382,-178 3366.4382,-178"/>
<polygon fill="#000000" stroke="#000000" points="3366.4383,-174.5001 3356.4382,-178 3366.4382,-181.5001 3366.4383,-174.5001"/>
</g>
<!-- DataManagementComponent -->
<g id="node6" class="node">
<title>DataManagementComponent</title>
<polygon fill="#ffffb3" stroke="#000000" points="5775.3431,-122 5594.6569,-122 5594.6569,-86 5775.3431,-86 5775.3431,-122"/>
<text text-anchor="middle" x="5685" y="-99.8" font-family="Times,serif" font-size="14.00" fill="#000000">DataManagementComponent</text>
</g>
<!-- DataManagementComponent&#45;&gt;NIEOSModule -->
<g id="edge6" class="edge">
<title>DataManagementComponent&#45;&gt;NIEOSModule</title>
<path fill="none" stroke="#000000" d="M5685,-122.0449C5685,-143.6623 5685,-177 5685,-177 5685,-177 3366.5132,-177 3366.5132,-177"/>
<polygon fill="#000000" stroke="#000000" points="3366.5132,-173.5001 3356.5132,-177 3366.5132,-180.5001 3366.5132,-173.5001"/>
</g>
<!-- Frame -->
<g id="node7" class="node">
<title>Frame</title>
<polygon fill="#ffffb3" stroke="#000000" points="5577,-122 5523,-122 5523,-86 5577,-86 5577,-122"/>
<text text-anchor="middle" x="5550" y="-99.8" font-family="Times,serif" font-size="14.00" fill="#000000">Frame</text>
</g>
<!-- Frame&#45;&gt;NIEOSModule -->
<g id="edge7" class="edge">
<title>Frame&#45;&gt;NIEOSModule</title>
<path fill="none" stroke="#000000" d="M5550,-122.2843C5550,-143.3211 5550,-175 5550,-175 5550,-175 3366.2819,-175 3366.2819,-175"/>
<polygon fill="#000000" stroke="#000000" points="3366.2819,-171.5001 3356.2819,-175 3366.2818,-178.5001 3366.2819,-171.5001"/>
</g>
<!-- FrameSettingsComponent -->
<g id="node8" class="node">
<title>FrameSettingsComponent</title>
<polygon fill="#ffffb3" stroke="#000000" points="5505.2091,-122 5342.7909,-122 5342.7909,-86 5505.2091,-86 5505.2091,-122"/>
<text text-anchor="middle" x="5424" y="-99.8" font-family="Times,serif" font-size="14.00" fill="#000000">FrameSettingsComponent</text>
</g>
<!-- FrameSettingsComponent&#45;&gt;NIEOSModule -->
<g id="edge8" class="edge">
<title>FrameSettingsComponent&#45;&gt;NIEOSModule</title>
<path fill="none" stroke="#000000" d="M5424,-122.1289C5424,-142.5724 5424,-173 5424,-173 5424,-173 3366.2663,-173 3366.2663,-173"/>
<polygon fill="#000000" stroke="#000000" points="3366.2664,-169.5001 3356.2663,-173 3366.2663,-176.5001 3366.2664,-169.5001"/>
</g>
<!-- GrapesjsComponent -->
<g id="node9" class="node">
<title>GrapesjsComponent</title>
<polygon fill="#ffffb3" stroke="#000000" points="5325.309,-122 5194.691,-122 5194.691,-86 5325.309,-86 5325.309,-122"/>
<text text-anchor="middle" x="5260" y="-99.8" font-family="Times,serif" font-size="14.00" fill="#000000">GrapesjsComponent</text>
</g>
<!-- GrapesjsComponent&#45;&gt;NIEOSModule -->
<g id="edge9" class="edge">
<title>GrapesjsComponent&#45;&gt;NIEOSModule</title>
<path fill="none" stroke="#000000" d="M5260,-122.308C5260,-142.1455 5260,-171 5260,-171 5260,-171 3366.265,-171 3366.265,-171"/>
<polygon fill="#000000" stroke="#000000" points="3366.265,-167.5001 3356.265,-171 3366.265,-174.5001 3366.265,-167.5001"/>
</g>
<!-- HighlightPipe -->
<g id="node10" class="node">
<title>HighlightPipe</title>
<polygon fill="#ffffb3" stroke="#000000" points="5177.0578,-122 5082.9422,-122 5082.9422,-86 5177.0578,-86 5177.0578,-122"/>
<text text-anchor="middle" x="5130" y="-99.8" font-family="Times,serif" font-size="14.00" fill="#000000">HighlightPipe</text>
</g>
<!-- HighlightPipe&#45;&gt;NIEOSModule -->
<g id="edge10" class="edge">
<title>HighlightPipe&#45;&gt;NIEOSModule</title>
<path fill="none" stroke="#000000" d="M5130,-122.1061C5130,-141.3391 5130,-169 5130,-169 5130,-169 3366.6879,-169 3366.6879,-169"/>
<polygon fill="#000000" stroke="#000000" points="3366.688,-165.5001 3356.6879,-169 3366.6879,-172.5001 3366.688,-165.5001"/>
</g>
<!-- KeyValueFormComponent -->
<g id="node11" class="node">
<title>KeyValueFormComponent</title>
<polygon fill="#ffffb3" stroke="#000000" points="5065.4143,-122 4896.5857,-122 4896.5857,-86 5065.4143,-86 5065.4143,-122"/>
<text text-anchor="middle" x="4981" y="-99.8" font-family="Times,serif" font-size="14.00" fill="#000000">KeyValueFormComponent</text>
</g>
<!-- KeyValueFormComponent&#45;&gt;NIEOSModule -->
<g id="edge11" class="edge">
<title>KeyValueFormComponent&#45;&gt;NIEOSModule</title>
<path fill="none" stroke="#000000" d="M4981,-122.1686C4981,-141.0898 4981,-168 4981,-168 4981,-168 3366.5858,-168 3366.5858,-168"/>
<polygon fill="#000000" stroke="#000000" points="3366.5858,-164.5001 3356.5858,-168 3366.5857,-171.5001 3366.5858,-164.5001"/>
</g>
<!-- LoadVariablesComponent -->
<g id="node12" class="node">
<title>LoadVariablesComponent</title>
<polygon fill="#ffffb3" stroke="#000000" points="4878.7366,-122 4715.2634,-122 4715.2634,-86 4878.7366,-86 4878.7366,-122"/>
<text text-anchor="middle" x="4797" y="-99.8" font-family="Times,serif" font-size="14.00" fill="#000000">LoadVariablesComponent</text>
</g>
<!-- LoadVariablesComponent&#45;&gt;NIEOSModule -->
<g id="edge12" class="edge">
<title>LoadVariablesComponent&#45;&gt;NIEOSModule</title>
<path fill="none" stroke="#000000" d="M4797,-122.2667C4797,-140.5552 4797,-166 4797,-166 4797,-166 3366.4626,-166 3366.4626,-166"/>
<polygon fill="#000000" stroke="#000000" points="3366.4626,-162.5001 3356.4626,-166 3366.4626,-169.5001 3366.4626,-162.5001"/>
</g>
<!-- NewGjsBoxDialogComponent -->
<g id="node13" class="node">
<title>NewGjsBoxDialogComponent</title>
<polygon fill="#ffffb3" stroke="#000000" points="4697.1413,-122 4508.8587,-122 4508.8587,-86 4697.1413,-86 4697.1413,-122"/>
<text text-anchor="middle" x="4603" y="-99.8" font-family="Times,serif" font-size="14.00" fill="#000000">NewGjsBoxDialogComponent</text>
</g>
<!-- NewGjsBoxDialogComponent&#45;&gt;NIEOSModule -->
<g id="edge13" class="edge">
<title>NewGjsBoxDialogComponent&#45;&gt;NIEOSModule</title>
<path fill="none" stroke="#000000" d="M4603,-122.002C4603,-139.6754 4603,-164 4603,-164 4603,-164 3366.4459,-164 3366.4459,-164"/>
<polygon fill="#000000" stroke="#000000" points="3366.4459,-160.5001 3356.4459,-164 3366.4458,-167.5001 3366.4459,-160.5001"/>
</g>
<!-- OpenbisLoginComponent -->
<g id="node14" class="node">
<title>OpenbisLoginComponent</title>
<polygon fill="#ffffb3" stroke="#000000" points="4490.9326,-122 4329.0674,-122 4329.0674,-86 4490.9326,-86 4490.9326,-122"/>
<text text-anchor="middle" x="4410" y="-99.8" font-family="Times,serif" font-size="14.00" fill="#000000">OpenbisLoginComponent</text>
</g>
<!-- OpenbisLoginComponent&#45;&gt;NIEOSModule -->
<g id="edge14" class="edge">
<title>OpenbisLoginComponent&#45;&gt;NIEOSModule</title>
<path fill="none" stroke="#000000" d="M4410,-122.0336C4410,-139.0597 4410,-162 4410,-162 4410,-162 3366.3053,-162 3366.3053,-162"/>
<polygon fill="#000000" stroke="#000000" points="3366.3054,-158.5001 3356.3053,-162 3366.3053,-165.5001 3366.3054,-158.5001"/>
</g>
<!-- PageComponent -->
<g id="node15" class="node">
<title>PageComponent</title>
<polygon fill="#ffffb3" stroke="#000000" points="4311.0452,-122 4202.9548,-122 4202.9548,-86 4311.0452,-86 4311.0452,-122"/>
<text text-anchor="middle" x="4257" y="-99.8" font-family="Times,serif" font-size="14.00" fill="#000000">PageComponent</text>
</g>
<!-- PageComponent&#45;&gt;NIEOSModule -->
<g id="edge15" class="edge">
<title>PageComponent&#45;&gt;NIEOSModule</title>
<path fill="none" stroke="#000000" d="M4257,-122.027C4257,-138.3976 4257,-160 4257,-160 4257,-160 3366.4584,-160 3366.4584,-160"/>
<polygon fill="#000000" stroke="#000000" points="3366.4585,-156.5001 3356.4584,-160 3366.4584,-163.5001 3366.4585,-156.5001"/>
</g>
<!-- ParzivalFassungComponent -->
<g id="node16" class="node">
<title>ParzivalFassungComponent</title>
<polygon fill="#ffffb3" stroke="#000000" points="4184.587,-122 4011.413,-122 4011.413,-86 4184.587,-86 4184.587,-122"/>
<text text-anchor="middle" x="4098" y="-99.8" font-family="Times,serif" font-size="14.00" fill="#000000">ParzivalFassungComponent</text>
</g>
<!-- ParzivalFassungComponent&#45;&gt;NIEOSModule -->
<g id="edge16" class="edge">
<title>ParzivalFassungComponent&#45;&gt;NIEOSModule</title>
<path fill="none" stroke="#000000" d="M4098,-122.0091C4098,-138.0494 4098,-159 4098,-159 4098,-159 3366.4456,-159 3366.4456,-159"/>
<polygon fill="#000000" stroke="#000000" points="3366.4456,-155.5001 3356.4456,-159 3366.4456,-162.5001 3366.4456,-155.5001"/>
</g>
<!-- QueryAppInputMapComponent -->
<g id="node17" class="node">
<title>QueryAppInputMapComponent</title>
<polygon fill="#ffffb3" stroke="#000000" points="3993.6315,-122 3798.3685,-122 3798.3685,-86 3993.6315,-86 3993.6315,-122"/>
<text text-anchor="middle" x="3896" y="-99.8" font-family="Times,serif" font-size="14.00" fill="#000000">QueryAppInputMapComponent</text>
</g>
<!-- QueryAppInputMapComponent&#45;&gt;NIEOSModule -->
<g id="edge17" class="edge">
<title>QueryAppInputMapComponent&#45;&gt;NIEOSModule</title>
<path fill="none" stroke="#000000" d="M3896,-122.2396C3896,-137.5706 3896,-157 3896,-157 3896,-157 3366.3031,-157 3366.3031,-157"/>
<polygon fill="#000000" stroke="#000000" points="3366.3031,-153.5001 3356.3031,-157 3366.303,-160.5001 3366.3031,-153.5001"/>
</g>
<!-- QueryEntryComponent -->
<g id="node18" class="node">
<title>QueryEntryComponent</title>
<polygon fill="#ffffb3" stroke="#000000" points="3779.9186,-122 3632.0814,-122 3632.0814,-86 3779.9186,-86 3779.9186,-122"/>
<text text-anchor="middle" x="3706" y="-99.8" font-family="Times,serif" font-size="14.00" fill="#000000">QueryEntryComponent</text>
</g>
<!-- QueryEntryComponent&#45;&gt;NIEOSModule -->
<g id="edge18" class="edge">
<title>QueryEntryComponent&#45;&gt;NIEOSModule</title>
<path fill="none" stroke="#000000" d="M3706,-122.1243C3706,-136.7832 3706,-155 3706,-155 3706,-155 3366.6603,-155 3366.6603,-155"/>
<polygon fill="#000000" stroke="#000000" points="3366.6603,-151.5001 3356.6603,-155 3366.6602,-158.5001 3366.6603,-151.5001"/>
</g>
<!-- QueryInformationDialogComponent -->
<g id="node19" class="node">
<title>QueryInformationDialogComponent</title>
<polygon fill="#ffffb3" stroke="#000000" points="3614.785,-122 3393.215,-122 3393.215,-86 3614.785,-86 3614.785,-122"/>
<text text-anchor="middle" x="3504" y="-99.8" font-family="Times,serif" font-size="14.00" fill="#000000">QueryInformationDialogComponent</text>
</g>
<!-- QueryInformationDialogComponent&#45;&gt;NIEOSModule -->
<g id="edge19" class="edge">
<title>QueryInformationDialogComponent&#45;&gt;NIEOSModule</title>
<path fill="none" stroke="#000000" d="M3418.631,-122.2458C3418.631,-136.1772 3418.631,-153 3418.631,-153 3418.631,-153 3366.3857,-153 3366.3857,-153"/>
<polygon fill="#000000" stroke="#000000" points="3366.3858,-149.5001 3356.3857,-153 3366.3857,-156.5001 3366.3858,-149.5001"/>
</g>
<!-- QueryListComponent -->
<g id="node20" class="node">
<title>QueryListComponent</title>
<polygon fill="#ffffb3" stroke="#000000" points="3375.0926,-122 3236.9074,-122 3236.9074,-86 3375.0926,-86 3375.0926,-122"/>
<text text-anchor="middle" x="3306" y="-99.8" font-family="Times,serif" font-size="14.00" fill="#000000">QueryListComponent</text>
</g>
<!-- QueryListComponent&#45;&gt;NIEOSModule -->
<g id="edge20" class="edge">
<title>QueryListComponent&#45;&gt;NIEOSModule</title>
<path fill="none" stroke="#000000" d="M3306,-122.1061C3306,-122.1061 3306,-140.991 3306,-140.991"/>
<polygon fill="#000000" stroke="#000000" points="3302.5001,-140.9909 3306,-150.991 3309.5001,-140.991 3302.5001,-140.9909"/>
</g>
<!-- ResponseTreeComponent -->
<g id="node21" class="node">
<title>ResponseTreeComponent</title>
<polygon fill="#ffffb3" stroke="#000000" points="3219.1302,-122 3058.8698,-122 3058.8698,-86 3219.1302,-86 3219.1302,-122"/>
<text text-anchor="middle" x="3139" y="-99.8" font-family="Times,serif" font-size="14.00" fill="#000000">ResponseTreeComponent</text>
</g>
<!-- ResponseTreeComponent&#45;&gt;NIEOSModule -->
<g id="edge21" class="edge">
<title>ResponseTreeComponent&#45;&gt;NIEOSModule</title>
<path fill="none" stroke="#000000" d="M3199.6464,-122.2458C3199.6464,-136.1772 3199.6464,-153 3199.6464,-153 3199.6464,-153 3245.6263,-153 3245.6263,-153"/>
<polygon fill="#000000" stroke="#000000" points="3245.6263,-156.5001 3255.6263,-153 3245.6263,-149.5001 3245.6263,-156.5001"/>
</g>
<!-- SimpleImageAppComponent -->
<g id="node22" class="node">
<title>SimpleImageAppComponent</title>
<polygon fill="#ffffb3" stroke="#000000" points="3041.0884,-122 2860.9116,-122 2860.9116,-86 3041.0884,-86 3041.0884,-122"/>
<text text-anchor="middle" x="2951" y="-99.8" font-family="Times,serif" font-size="14.00" fill="#000000">SimpleImageAppComponent</text>
</g>
<!-- SimpleImageAppComponent&#45;&gt;NIEOSModule -->
<g id="edge22" class="edge">
<title>SimpleImageAppComponent&#45;&gt;NIEOSModule</title>
<path fill="none" stroke="#000000" d="M2951,-122.1243C2951,-136.7832 2951,-155 2951,-155 2951,-155 3245.5142,-155 3245.5142,-155"/>
<polygon fill="#000000" stroke="#000000" points="3245.5142,-158.5001 3255.5142,-155 3245.5141,-151.5001 3245.5142,-158.5001"/>
</g>
<!-- TextlistViewerComponent -->
<g id="node23" class="node">
<title>TextlistViewerComponent</title>
<polygon fill="#ffffb3" stroke="#000000" points="2842.8005,-122 2677.1995,-122 2677.1995,-86 2842.8005,-86 2842.8005,-122"/>
<text text-anchor="middle" x="2760" y="-99.8" font-family="Times,serif" font-size="14.00" fill="#000000">TextlistViewerComponent</text>
</g>
<!-- TextlistViewerComponent&#45;&gt;NIEOSModule -->
<g id="edge23" class="edge">
<title>TextlistViewerComponent&#45;&gt;NIEOSModule</title>
<path fill="none" stroke="#000000" d="M2760,-122.2396C2760,-137.5706 2760,-157 2760,-157 2760,-157 3245.6123,-157 3245.6123,-157"/>
<polygon fill="#000000" stroke="#000000" points="3245.6123,-160.5001 3255.6123,-157 3245.6123,-153.5001 3245.6123,-160.5001"/>
</g>
<!-- UpdateLinkedAppsComponent -->
<g id="node24" class="node">
<title>UpdateLinkedAppsComponent</title>
<polygon fill="#ffffb3" stroke="#000000" points="2659.4678,-122 2468.5322,-122 2468.5322,-86 2659.4678,-86 2659.4678,-122"/>
<text text-anchor="middle" x="2564" y="-99.8" font-family="Times,serif" font-size="14.00" fill="#000000">UpdateLinkedAppsComponent</text>
</g>
<!-- UpdateLinkedAppsComponent&#45;&gt;NIEOSModule -->
<g id="edge24" class="edge">
<title>UpdateLinkedAppsComponent&#45;&gt;NIEOSModule</title>
<path fill="none" stroke="#000000" d="M2564,-122.0091C2564,-138.0494 2564,-159 2564,-159 2564,-159 3245.5827,-159 3245.5827,-159"/>
<polygon fill="#000000" stroke="#000000" points="3245.5827,-162.5001 3255.5827,-159 3245.5826,-155.5001 3245.5827,-162.5001"/>
</g>
<!-- GrapesjsComponent  -->
<g id="node38" class="node">
<title>GrapesjsComponent </title>
<polygon fill="#fb8072" stroke="#000000" points="3443.8087,-252 3310.1913,-252 3310.1913,-216 3443.8087,-216 3443.8087,-252"/>
<text text-anchor="middle" x="3377" y="-229.8" font-family="Times,serif" font-size="14.00" fill="#000000">GrapesjsComponent </text>
</g>
<!-- NIEOSModule&#45;&gt;GrapesjsComponent  -->
<g id="edge37" class="edge">
<title>NIEOSModule&#45;&gt;GrapesjsComponent </title>
<path fill="none" stroke="#000000" stroke-dasharray="5,2" d="M3333.2376,-187.1061C3333.2376,-187.1061 3333.2376,-205.991 3333.2376,-205.991"/>
<polygon fill="#000000" stroke="#000000" points="3329.7376,-205.9909 3333.2376,-215.991 3336.7376,-205.991 3329.7376,-205.9909"/>
</g>
<!-- PageComponent  -->
<g id="node39" class="node">
<title>PageComponent </title>
<polygon fill="#fb8072" stroke="#000000" points="3292.0442,-252 3179.9558,-252 3179.9558,-216 3292.0442,-216 3292.0442,-252"/>
<text text-anchor="middle" x="3236" y="-229.8" font-family="Times,serif" font-size="14.00" fill="#000000">PageComponent </text>
</g>
<!-- NIEOSModule&#45;&gt;PageComponent  -->
<g id="edge38" class="edge">
<title>NIEOSModule&#45;&gt;PageComponent </title>
<path fill="none" stroke="#000000" stroke-dasharray="5,2" d="M3273.8214,-187.1061C3273.8214,-187.1061 3273.8214,-205.991 3273.8214,-205.991"/>
<polygon fill="#000000" stroke="#000000" points="3270.3214,-205.9909 3273.8214,-215.991 3277.3214,-205.991 3270.3214,-205.9909"/>
</g>
<!-- ComplexTextViewsModule -->
<g id="node26" class="node">
<title>ComplexTextViewsModule</title>
<polygon fill="#8dd3c7" stroke="#000000" points="2445.3033,-122 2442.3033,-126 2421.3033,-126 2418.3033,-122 2272.6967,-122 2272.6967,-86 2445.3033,-86 2445.3033,-122"/>
<text text-anchor="middle" x="2359" y="-99.8" font-family="Times,serif" font-size="14.00" fill="#000000">ComplexTextViewsModule</text>
</g>
<!-- ComplexTextViewsModule&#45;&gt;NIEOSModule -->
<g id="edge25" class="edge">
<title>ComplexTextViewsModule&#45;&gt;NIEOSModule</title>
<path fill="none" stroke="#000000" d="M2359,-122.027C2359,-138.3976 2359,-160 2359,-160 2359,-160 3245.42,-160 3245.42,-160"/>
<polygon fill="#000000" stroke="#000000" points="3245.42,-163.5001 3255.42,-160 3245.4199,-156.5001 3245.42,-163.5001"/>
</g>
<!-- CreateResourceModule -->
<g id="node27" class="node">
<title>CreateResourceModule</title>
<polygon fill="#8dd3c7" stroke="#000000" points="2255.1671,-122 2252.1671,-126 2231.1671,-126 2228.1671,-122 2106.8329,-122 2106.8329,-86 2255.1671,-86 2255.1671,-122"/>
<text text-anchor="middle" x="2181" y="-99.8" font-family="Times,serif" font-size="14.00" fill="#000000">CreateResourceModule</text>
</g>
<!-- CreateResourceModule&#45;&gt;NIEOSModule -->
<g id="edge26" class="edge">
<title>CreateResourceModule&#45;&gt;NIEOSModule</title>
<path fill="none" stroke="#000000" d="M2181,-122.0336C2181,-139.0597 2181,-162 2181,-162 2181,-162 3245.4756,-162 3245.4756,-162"/>
<polygon fill="#000000" stroke="#000000" points="3245.4756,-165.5001 3255.4756,-162 3245.4755,-158.5001 3245.4756,-165.5001"/>
</g>
<!-- D3jsModule -->
<g id="node28" class="node">
<title>D3jsModule</title>
<polygon fill="#8dd3c7" stroke="#000000" points="2088.9916,-122 2085.9916,-126 2064.9916,-126 2061.9916,-122 2003.0084,-122 2003.0084,-86 2088.9916,-86 2088.9916,-122"/>
<text text-anchor="middle" x="2046" y="-99.8" font-family="Times,serif" font-size="14.00" fill="#000000">D3jsModule</text>
</g>
<!-- D3jsModule&#45;&gt;NIEOSModule -->
<g id="edge27" class="edge">
<title>D3jsModule&#45;&gt;NIEOSModule</title>
<path fill="none" stroke="#000000" d="M2046,-122.002C2046,-139.6754 2046,-164 2046,-164 2046,-164 3245.4381,-164 3245.4381,-164"/>
<polygon fill="#000000" stroke="#000000" points="3245.4382,-167.5001 3255.4381,-164 3245.4381,-160.5001 3245.4382,-167.5001"/>
</g>
<!-- DataManagementToolModule -->
<g id="node29" class="node">
<title>DataManagementToolModule</title>
<polygon fill="#8dd3c7" stroke="#000000" points="1984.5043,-122 1981.5043,-126 1960.5043,-126 1957.5043,-122 1799.4957,-122 1799.4957,-86 1984.5043,-86 1984.5043,-122"/>
<text text-anchor="middle" x="1892" y="-99.8" font-family="Times,serif" font-size="14.00" fill="#000000">DataManagementToolModule</text>
</g>
<!-- DataManagementToolModule&#45;&gt;NIEOSModule -->
<g id="edge28" class="edge">
<title>DataManagementToolModule&#45;&gt;NIEOSModule</title>
<path fill="none" stroke="#000000" d="M1892,-122.2667C1892,-140.5552 1892,-166 1892,-166 1892,-166 3245.675,-166 3245.675,-166"/>
<polygon fill="#000000" stroke="#000000" points="3245.675,-169.5001 3255.675,-166 3245.675,-162.5001 3245.675,-169.5001"/>
</g>
<!-- HtmlViewerModule -->
<g id="node30" class="node">
<title>HtmlViewerModule</title>
<polygon fill="#8dd3c7" stroke="#000000" points="1780.5227,-122 1777.5227,-126 1756.5227,-126 1753.5227,-122 1651.4773,-122 1651.4773,-86 1780.5227,-86 1780.5227,-122"/>
<text text-anchor="middle" x="1716" y="-99.8" font-family="Times,serif" font-size="14.00" fill="#000000">HtmlViewerModule</text>
</g>
<!-- HtmlViewerModule&#45;&gt;NIEOSModule -->
<g id="edge29" class="edge">
<title>HtmlViewerModule&#45;&gt;NIEOSModule</title>
<path fill="none" stroke="#000000" d="M1716,-122.1686C1716,-141.0898 1716,-168 1716,-168 1716,-168 3245.3444,-168 3245.3444,-168"/>
<polygon fill="#000000" stroke="#000000" points="3245.3445,-171.5001 3255.3444,-168 3245.3444,-164.5001 3245.3445,-171.5001"/>
</g>
<!-- ImageFrameModule -->
<g id="node31" class="node">
<title>ImageFrameModule</title>
<polygon fill="#8dd3c7" stroke="#000000" points="1633.2935,-122 1630.2935,-126 1609.2935,-126 1606.2935,-122 1502.7065,-122 1502.7065,-86 1633.2935,-86 1633.2935,-122"/>
<text text-anchor="middle" x="1568" y="-99.8" font-family="Times,serif" font-size="14.00" fill="#000000">ImageFrameModule</text>
</g>
<!-- ImageFrameModule&#45;&gt;NIEOSModule -->
<g id="edge30" class="edge">
<title>ImageFrameModule&#45;&gt;NIEOSModule</title>
<path fill="none" stroke="#000000" d="M1568,-122.1061C1568,-141.3391 1568,-169 1568,-169 1568,-169 3245.3938,-169 3245.3938,-169"/>
<polygon fill="#000000" stroke="#000000" points="3245.3938,-172.5001 3255.3938,-169 3245.3938,-165.5001 3245.3938,-172.5001"/>
</g>
<!-- MyPageSetModule -->
<g id="node32" class="node">
<title>MyPageSetModule</title>
<polygon fill="#8dd3c7" stroke="#000000" points="1485.094,-122 1482.094,-126 1461.094,-126 1458.094,-122 1360.906,-122 1360.906,-86 1485.094,-86 1485.094,-122"/>
<text text-anchor="middle" x="1423" y="-99.8" font-family="Times,serif" font-size="14.00" fill="#000000">MyPageSetModule</text>
</g>
<!-- MyPageSetModule&#45;&gt;NIEOSModule -->
<g id="edge31" class="edge">
<title>MyPageSetModule&#45;&gt;NIEOSModule</title>
<path fill="none" stroke="#000000" d="M1423,-122.308C1423,-142.1455 1423,-171 1423,-171 1423,-171 3245.6343,-171 3245.6343,-171"/>
<polygon fill="#000000" stroke="#000000" points="3245.6343,-174.5001 3255.6343,-171 3245.6343,-167.5001 3245.6343,-174.5001"/>
</g>
<!-- NavigationModule -->
<g id="node33" class="node">
<title>NavigationModule</title>
<polygon fill="#8dd3c7" stroke="#000000" points="1342.7576,-122 1339.7576,-126 1318.7576,-126 1315.7576,-122 1221.2424,-122 1221.2424,-86 1342.7576,-86 1342.7576,-122"/>
<text text-anchor="middle" x="1282" y="-99.8" font-family="Times,serif" font-size="14.00" fill="#000000">NavigationModule</text>
</g>
<!-- NavigationModule&#45;&gt;NIEOSModule -->
<g id="edge32" class="edge">
<title>NavigationModule&#45;&gt;NIEOSModule</title>
<path fill="none" stroke="#000000" d="M1282,-122.1289C1282,-142.5724 1282,-173 1282,-173 1282,-173 3245.7161,-173 3245.7161,-173"/>
<polygon fill="#000000" stroke="#000000" points="3245.7161,-176.5001 3255.7161,-173 3245.716,-169.5001 3245.7161,-176.5001"/>
</g>
<!-- Project0041Module -->
<g id="node34" class="node">
<title>Project0041Module</title>
<polygon fill="#8dd3c7" stroke="#000000" points="1203.7036,-122 1200.7036,-126 1179.7036,-126 1176.7036,-122 1076.2964,-122 1076.2964,-86 1203.7036,-86 1203.7036,-122"/>
<text text-anchor="middle" x="1140" y="-99.8" font-family="Times,serif" font-size="14.00" fill="#000000">Project0041Module</text>
</g>
<!-- Project0041Module&#45;&gt;NIEOSModule -->
<g id="edge33" class="edge">
<title>Project0041Module&#45;&gt;NIEOSModule</title>
<path fill="none" stroke="#000000" d="M1140,-122.2843C1140,-143.3211 1140,-175 1140,-175 1140,-175 3245.6475,-175 3245.6475,-175"/>
<polygon fill="#000000" stroke="#000000" points="3245.6476,-178.5001 3255.6475,-175 3245.6475,-171.5001 3245.6476,-178.5001"/>
</g>
<!-- ResourceFormModule -->
<g id="node35" class="node">
<title>ResourceFormModule</title>
<polygon fill="#8dd3c7" stroke="#000000" points="1057.9692,-122 1054.9692,-126 1033.9692,-126 1030.9692,-122 916.0308,-122 916.0308,-86 1057.9692,-86 1057.9692,-122"/>
<text text-anchor="middle" x="987" y="-99.8" font-family="Times,serif" font-size="14.00" fill="#000000">ResourceFormModule</text>
</g>
<!-- ResourceFormModule&#45;&gt;NIEOSModule -->
<g id="edge34" class="edge">
<title>ResourceFormModule&#45;&gt;NIEOSModule</title>
<path fill="none" stroke="#000000" d="M987,-122.0449C987,-143.6623 987,-177 987,-177 987,-177 3245.6797,-177 3245.6797,-177"/>
<polygon fill="#000000" stroke="#000000" points="3245.6797,-180.5001 3255.6797,-177 3245.6797,-173.5001 3245.6797,-180.5001"/>
</g>
<!-- SynopsisModule -->
<g id="node36" class="node">
<title>SynopsisModule</title>
<polygon fill="#8dd3c7" stroke="#000000" points="898.1123,-122 895.1123,-126 874.1123,-126 871.1123,-122 787.8877,-122 787.8877,-86 898.1123,-86 898.1123,-122"/>
<text text-anchor="middle" x="843" y="-99.8" font-family="Times,serif" font-size="14.00" fill="#000000">SynopsisModule</text>
</g>
<!-- SynopsisModule&#45;&gt;NIEOSModule -->
<g id="edge35" class="edge">
<title>SynopsisModule&#45;&gt;NIEOSModule</title>
<path fill="none" stroke="#000000" d="M843,-122.2921C843,-144.2057 843,-178 843,-178 843,-178 3245.6845,-178 3245.6845,-178"/>
<polygon fill="#000000" stroke="#000000" points="3245.6846,-181.5001 3255.6845,-178 3245.6845,-174.5001 3245.6846,-181.5001"/>
</g>
<!-- TextViewModule -->
<g id="node37" class="node">
<title>TextViewModule</title>
<polygon fill="#8dd3c7" stroke="#000000" points="769.527,-122 766.527,-126 745.527,-126 742.527,-122 654.473,-122 654.473,-86 769.527,-86 769.527,-122"/>
<text text-anchor="middle" x="712" y="-99.8" font-family="Times,serif" font-size="14.00" fill="#000000">TextViewModule</text>
</g>
<!-- TextViewModule&#45;&gt;NIEOSModule -->
<g id="edge36" class="edge">
<title>TextViewModule&#45;&gt;NIEOSModule</title>
<path fill="none" stroke="#000000" d="M712,-122.0109C712,-144.4852 712,-180 712,-180 712,-180 3245.6358,-180 3245.6358,-180"/>
<polygon fill="#000000" stroke="#000000" points="3245.6359,-183.5001 3255.6358,-180 3245.6358,-176.5001 3245.6359,-183.5001"/>
</g>
<!-- FileDatabase -->
<g id="node40" class="node">
<title>FileDatabase</title>
<ellipse fill="#fdb462" stroke="#000000" cx="569" cy="-104" rx="61.3896" ry="18"/>
<text text-anchor="middle" x="569" y="-99.8" font-family="Times,serif" font-size="14.00" fill="#000000">FileDatabase</text>
</g>
<!-- FileDatabase&#45;&gt;NIEOSModule -->
<g id="edge39" class="edge">
<title>FileDatabase&#45;&gt;NIEOSModule</title>
<path fill="none" stroke="#000000" d="M569,-122.0908C569,-145.1328 569,-182 569,-182 569,-182 3245.5655,-182 3245.5655,-182"/>
<polygon fill="#000000" stroke="#000000" points="3245.5655,-185.5001 3255.5655,-182 3245.5654,-178.5001 3245.5655,-185.5001"/>
</g>
<!-- GenerateHashService -->
<g id="node41" class="node">
<title>GenerateHashService</title>
<ellipse fill="#fdb462" stroke="#000000" cx="395" cy="-104" rx="94.8587" ry="18"/>
<text text-anchor="middle" x="395" y="-99.8" font-family="Times,serif" font-size="14.00" fill="#000000">GenerateHashService</text>
</g>
<!-- GenerateHashService&#45;&gt;NIEOSModule -->
<g id="edge40" class="edge">
<title>GenerateHashService&#45;&gt;NIEOSModule</title>
<path fill="none" stroke="#000000" d="M395,-122.1532C395,-145.7566 395,-184 395,-184 395,-184 3245.4741,-184 3245.4741,-184"/>
<polygon fill="#000000" stroke="#000000" points="3245.4742,-187.5001 3255.4741,-184 3245.4741,-180.5001 3245.4742,-187.5001"/>
</g>
<!-- SendGravSearchQueryService -->
<g id="node42" class="node">
<title>SendGravSearchQueryService</title>
<ellipse fill="#fdb462" stroke="#000000" cx="153" cy="-104" rx="129.0134" ry="18"/>
<text text-anchor="middle" x="153" y="-99.8" font-family="Times,serif" font-size="14.00" fill="#000000">SendGravSearchQueryService</text>
</g>
<!-- SendGravSearchQueryService&#45;&gt;NIEOSModule -->
<g id="edge41" class="edge">
<title>SendGravSearchQueryService&#45;&gt;NIEOSModule</title>
<path fill="none" stroke="#000000" d="M153,-122.1985C153,-146.3563 153,-186 153,-186 153,-186 3245.5175,-186 3245.5175,-186"/>
<polygon fill="#000000" stroke="#000000" points="3245.5176,-189.5001 3255.5175,-186 3245.5175,-182.5001 3245.5176,-189.5001"/>
</g>
</g>
</svg>
