<?xml version="1.0" encoding="UTF-8" standalone="no"?>
<!DOCTYPE svg PUBLIC "-//W3C//DTD SVG 1.1//EN"
 "http://www.w3.org/Graphics/SVG/1.1/DTD/svg11.dtd">
<!-- Generated by graphviz version 2.40.1 (20161225.0304)
 -->
<!-- Title: dependencies Pages: 1 -->
<svg width="3882pt" height="284pt"
 viewBox="0.00 0.00 3882.00 284.00" xmlns="http://www.w3.org/2000/svg" xmlns:xlink="http://www.w3.org/1999/xlink">
<g id="graph0" class="graph" transform="scale(1 1) rotate(0) translate(4 280)">
<title>dependencies</title>
<polygon fill="#ffffff" stroke="transparent" points="-4,4 -4,-280 3878,-280 3878,4 -4,4"/>
<text text-anchor="start" x="1916.0091" y="-42.4" font-family="sans-serif" font-weight="bold" font-size="14.00" fill="#000000">Legend</text>
<polygon fill="#ffffb3" stroke="transparent" points="1703,-10 1703,-30 1723,-30 1723,-10 1703,-10"/>
<text text-anchor="start" x="1726.629" y="-15.4" font-family="sans-serif" font-size="14.00" fill="#000000"> &#160;Declarations</text>
<polygon fill="#8dd3c7" stroke="transparent" points="1816,-10 1816,-30 1836,-30 1836,-10 1816,-10"/>
<text text-anchor="start" x="1839.7251" y="-15.4" font-family="sans-serif" font-size="14.00" fill="#000000"> &#160;Module</text>
<polygon fill="#80b1d3" stroke="transparent" points="1902,-10 1902,-30 1922,-30 1922,-10 1902,-10"/>
<text text-anchor="start" x="1925.7812" y="-15.4" font-family="sans-serif" font-size="14.00" fill="#000000"> &#160;Bootstrap</text>
<polygon fill="#fdb462" stroke="transparent" points="1999,-10 1999,-30 2019,-30 2019,-10 1999,-10"/>
<text text-anchor="start" x="2022.6732" y="-15.4" font-family="sans-serif" font-size="14.00" fill="#000000"> &#160;Providers</text>
<polygon fill="#fb8072" stroke="transparent" points="2095,-10 2095,-30 2115,-30 2115,-10 2095,-10"/>
<text text-anchor="start" x="2118.7258" y="-15.4" font-family="sans-serif" font-size="14.00" fill="#000000"> &#160;Exports</text>
<g id="clust1" class="cluster">
<title>cluster_NIEOSModule</title>
<polygon fill="none" stroke="#000000" stroke-dasharray="1,5" points="8,-70 8,-268 3866,-268 3866,-70 8,-70"/>
</g>
<g id="clust2" class="cluster">
<title>cluster_NIEOSModule_declarations</title>
<polygon fill="none" stroke="#000000" points="1390,-78 1390,-130 3858,-130 3858,-78 1390,-78"/>
</g>
<g id="clust17" class="cluster">
<title>cluster_NIEOSModule_imports</title>
<polygon fill="none" stroke="#000000" points="506,-78 506,-130 1382,-130 1382,-78 506,-78"/>
</g>
<g id="clust18" class="cluster">
<title>cluster_NIEOSModule_exports</title>
<polygon fill="none" stroke="#000000" points="1904,-208 1904,-260 2032,-260 2032,-208 1904,-208"/>
</g>
<g id="clust20" class="cluster">
<title>cluster_NIEOSModule_providers</title>
<polygon fill="none" stroke="#000000" points="16,-78 16,-130 498,-130 498,-78 16,-78"/>
</g>
<!-- DataAssignmentComponent -->
<g id="node1" class="node">
<title>DataAssignmentComponent</title>
<polygon fill="#ffffb3" stroke="#000000" points="3850.1414,-122 3675.8586,-122 3675.8586,-86 3850.1414,-86 3850.1414,-122"/>
<text text-anchor="middle" x="3763" y="-99.8" font-family="Times,serif" font-size="14.00" fill="#000000">DataAssignmentComponent</text>
</g>
<!-- NIEOSModule -->
<g id="node15" class="node">
<title>NIEOSModule</title>
<polygon fill="#8dd3c7" stroke="#000000" points="2018.2591,-187 2015.2591,-191 1994.2591,-191 1991.2591,-187 1917.7409,-187 1917.7409,-151 2018.2591,-151 2018.2591,-187"/>
<text text-anchor="middle" x="1968" y="-164.8" font-family="Times,serif" font-size="14.00" fill="#000000">NIEOSModule</text>
</g>
<!-- DataAssignmentComponent&#45;&gt;NIEOSModule -->
<g id="edge1" class="edge">
<title>DataAssignmentComponent&#45;&gt;NIEOSModule</title>
<path fill="none" stroke="#000000" d="M3763,-122.1532C3763,-145.7566 3763,-184 3763,-184 3763,-184 2028.3547,-184 2028.3547,-184"/>
<polygon fill="#000000" stroke="#000000" points="2028.3547,-180.5001 2018.3547,-184 2028.3547,-187.5001 2028.3547,-180.5001"/>
</g>
<!-- DataManagementComponent -->
<g id="node2" class="node">
<title>DataManagementComponent</title>
<polygon fill="#ffffb3" stroke="#000000" points="3657.3431,-122 3476.6569,-122 3476.6569,-86 3657.3431,-86 3657.3431,-122"/>
<text text-anchor="middle" x="3567" y="-99.8" font-family="Times,serif" font-size="14.00" fill="#000000">DataManagementComponent</text>
</g>
<!-- DataManagementComponent&#45;&gt;NIEOSModule -->
<g id="edge2" class="edge">
<title>DataManagementComponent&#45;&gt;NIEOSModule</title>
<path fill="none" stroke="#000000" d="M3567,-122.2479C3567,-145.0179 3567,-181 3567,-181 3567,-181 2028.4958,-181 2028.4958,-181"/>
<polygon fill="#000000" stroke="#000000" points="2028.4959,-177.5001 2018.4958,-181 2028.4958,-184.5001 2028.4959,-177.5001"/>
</g>
<!-- Frame -->
<g id="node3" class="node">
<title>Frame</title>
<polygon fill="#ffffb3" stroke="#000000" points="3459,-122 3405,-122 3405,-86 3459,-86 3459,-122"/>
<text text-anchor="middle" x="3432" y="-99.8" font-family="Times,serif" font-size="14.00" fill="#000000">Frame</text>
</g>
<!-- Frame&#45;&gt;NIEOSModule -->
<g id="edge3" class="edge">
<title>Frame&#45;&gt;NIEOSModule</title>
<path fill="none" stroke="#000000" d="M3432,-122.2921C3432,-144.2057 3432,-178 3432,-178 3432,-178 2028.3942,-178 2028.3942,-178"/>
<polygon fill="#000000" stroke="#000000" points="2028.3942,-174.5001 2018.3942,-178 2028.3942,-181.5001 2028.3942,-174.5001"/>
</g>
<!-- FrameSettingsComponent -->
<g id="node4" class="node">
<title>FrameSettingsComponent</title>
<polygon fill="#ffffb3" stroke="#000000" points="3387.2091,-122 3224.7909,-122 3224.7909,-86 3387.2091,-86 3387.2091,-122"/>
<text text-anchor="middle" x="3306" y="-99.8" font-family="Times,serif" font-size="14.00" fill="#000000">FrameSettingsComponent</text>
</g>
<!-- FrameSettingsComponent&#45;&gt;NIEOSModule -->
<g id="edge4" class="edge">
<title>FrameSettingsComponent&#45;&gt;NIEOSModule</title>
<path fill="none" stroke="#000000" d="M3306,-122.0267C3306,-142.7672 3306,-174 3306,-174 3306,-174 2028.4125,-174 2028.4125,-174"/>
<polygon fill="#000000" stroke="#000000" points="2028.4126,-170.5001 2018.4125,-174 2028.4125,-177.5001 2028.4126,-170.5001"/>
</g>
<!-- KeyValueFormComponent -->
<g id="node5" class="node">
<title>KeyValueFormComponent</title>
<polygon fill="#ffffb3" stroke="#000000" points="3207.4143,-122 3038.5857,-122 3038.5857,-86 3207.4143,-86 3207.4143,-122"/>
<text text-anchor="middle" x="3123" y="-99.8" font-family="Times,serif" font-size="14.00" fill="#000000">KeyValueFormComponent</text>
</g>
<!-- KeyValueFormComponent&#45;&gt;NIEOSModule -->
<g id="edge5" class="edge">
<title>KeyValueFormComponent&#45;&gt;NIEOSModule</title>
<path fill="none" stroke="#000000" d="M3123,-122.308C3123,-142.1455 3123,-171 3123,-171 3123,-171 2028.3716,-171 2028.3716,-171"/>
<polygon fill="#000000" stroke="#000000" points="2028.3716,-167.5001 2018.3716,-171 2028.3716,-174.5001 2028.3716,-167.5001"/>
</g>
<!-- LoadVariablesComponent -->
<g id="node6" class="node">
<title>LoadVariablesComponent</title>
<polygon fill="#ffffb3" stroke="#000000" points="3020.7366,-122 2857.2634,-122 2857.2634,-86 3020.7366,-86 3020.7366,-122"/>
<text text-anchor="middle" x="2939" y="-99.8" font-family="Times,serif" font-size="14.00" fill="#000000">LoadVariablesComponent</text>
</g>
<!-- LoadVariablesComponent&#45;&gt;NIEOSModule -->
<g id="edge6" class="edge">
<title>LoadVariablesComponent&#45;&gt;NIEOSModule</title>
<path fill="none" stroke="#000000" d="M2939,-122.1686C2939,-141.0898 2939,-168 2939,-168 2939,-168 2028.4988,-168 2028.4988,-168"/>
<polygon fill="#000000" stroke="#000000" points="2028.4988,-164.5001 2018.4988,-168 2028.4987,-171.5001 2028.4988,-164.5001"/>
</g>
<!-- NewGjsBoxDialogComponent -->
<g id="node7" class="node">
<title>NewGjsBoxDialogComponent</title>
<polygon fill="#ffffb3" stroke="#000000" points="2839.1413,-122 2650.8587,-122 2650.8587,-86 2839.1413,-86 2839.1413,-122"/>
<text text-anchor="middle" x="2745" y="-99.8" font-family="Times,serif" font-size="14.00" fill="#000000">NewGjsBoxDialogComponent</text>
</g>
<!-- NewGjsBoxDialogComponent&#45;&gt;NIEOSModule -->
<g id="edge7" class="edge">
<title>NewGjsBoxDialogComponent&#45;&gt;NIEOSModule</title>
<path fill="none" stroke="#000000" d="M2745,-122.302C2745,-140.2699 2745,-165 2745,-165 2745,-165 2028.3825,-165 2028.3825,-165"/>
<polygon fill="#000000" stroke="#000000" points="2028.3825,-161.5001 2018.3825,-165 2028.3824,-168.5001 2028.3825,-161.5001"/>
</g>
<!-- PageComponent -->
<g id="node8" class="node">
<title>PageComponent</title>
<polygon fill="#ffffb3" stroke="#000000" points="2632.0452,-122 2523.9548,-122 2523.9548,-86 2632.0452,-86 2632.0452,-122"/>
<text text-anchor="middle" x="2578" y="-99.8" font-family="Times,serif" font-size="14.00" fill="#000000">PageComponent</text>
</g>
<!-- PageComponent&#45;&gt;NIEOSModule -->
<g id="edge8" class="edge">
<title>PageComponent&#45;&gt;NIEOSModule</title>
<path fill="none" stroke="#000000" d="M2578,-122.0352C2578,-138.7344 2578,-161 2578,-161 2578,-161 2028.4378,-161 2028.4378,-161"/>
<polygon fill="#000000" stroke="#000000" points="2028.4379,-157.5001 2018.4378,-161 2028.4378,-164.5001 2028.4379,-157.5001"/>
</g>
<!-- QueryAppInputMapComponent -->
<g id="node9" class="node">
<title>QueryAppInputMapComponent</title>
<polygon fill="#ffffb3" stroke="#000000" points="2505.6315,-122 2310.3685,-122 2310.3685,-86 2505.6315,-86 2505.6315,-122"/>
<text text-anchor="middle" x="2408" y="-99.8" font-family="Times,serif" font-size="14.00" fill="#000000">QueryAppInputMapComponent</text>
</g>
<!-- QueryAppInputMapComponent&#45;&gt;NIEOSModule -->
<g id="edge9" class="edge">
<title>QueryAppInputMapComponent&#45;&gt;NIEOSModule</title>
<path fill="none" stroke="#000000" d="M2408,-122.2819C2408,-137.9478 2408,-158 2408,-158 2408,-158 2028.4736,-158 2028.4736,-158"/>
<polygon fill="#000000" stroke="#000000" points="2028.4736,-154.5001 2018.4736,-158 2028.4736,-161.5001 2028.4736,-154.5001"/>
</g>
<!-- QueryEntryComponent -->
<g id="node10" class="node">
<title>QueryEntryComponent</title>
<polygon fill="#ffffb3" stroke="#000000" points="2291.9186,-122 2144.0814,-122 2144.0814,-86 2291.9186,-86 2291.9186,-122"/>
<text text-anchor="middle" x="2218" y="-99.8" font-family="Times,serif" font-size="14.00" fill="#000000">QueryEntryComponent</text>
</g>
<!-- QueryEntryComponent&#45;&gt;NIEOSModule -->
<g id="edge10" class="edge">
<title>QueryEntryComponent&#45;&gt;NIEOSModule</title>
<path fill="none" stroke="#000000" d="M2218,-122.1243C2218,-136.7832 2218,-155 2218,-155 2218,-155 2028.2905,-155 2028.2905,-155"/>
<polygon fill="#000000" stroke="#000000" points="2028.2905,-151.5001 2018.2905,-155 2028.2905,-158.5001 2028.2905,-151.5001"/>
</g>
<!-- QueryListComponent -->
<g id="node11" class="node">
<title>QueryListComponent</title>
<polygon fill="#ffffb3" stroke="#000000" points="2126.0926,-122 1987.9074,-122 1987.9074,-86 2126.0926,-86 2126.0926,-122"/>
<text text-anchor="middle" x="2057" y="-99.8" font-family="Times,serif" font-size="14.00" fill="#000000">QueryListComponent</text>
</g>
<!-- QueryListComponent&#45;&gt;NIEOSModule -->
<g id="edge11" class="edge">
<title>QueryListComponent&#45;&gt;NIEOSModule</title>
<path fill="none" stroke="#000000" d="M2003.1666,-122.1061C2003.1666,-122.1061 2003.1666,-140.991 2003.1666,-140.991"/>
<polygon fill="#000000" stroke="#000000" points="1999.6666,-140.9909 2003.1666,-150.991 2006.6666,-140.991 1999.6666,-140.9909"/>
</g>
<!-- SimpleImageAppComponent -->
<g id="node12" class="node">
<title>SimpleImageAppComponent</title>
<polygon fill="#ffffb3" stroke="#000000" points="1970.0884,-122 1789.9116,-122 1789.9116,-86 1970.0884,-86 1970.0884,-122"/>
<text text-anchor="middle" x="1880" y="-99.8" font-family="Times,serif" font-size="14.00" fill="#000000">SimpleImageAppComponent</text>
</g>
<!-- SimpleImageAppComponent&#45;&gt;NIEOSModule -->
<g id="edge12" class="edge">
<title>SimpleImageAppComponent&#45;&gt;NIEOSModule</title>
<path fill="none" stroke="#000000" d="M1943.8324,-122.1061C1943.8324,-122.1061 1943.8324,-140.991 1943.8324,-140.991"/>
<polygon fill="#000000" stroke="#000000" points="1940.3325,-140.9909 1943.8324,-150.991 1947.3325,-140.991 1940.3325,-140.9909"/>
</g>
<!-- TextlistViewerComponent -->
<g id="node13" class="node">
<title>TextlistViewerComponent</title>
<polygon fill="#ffffb3" stroke="#000000" points="1771.8005,-122 1606.1995,-122 1606.1995,-86 1771.8005,-86 1771.8005,-122"/>
<text text-anchor="middle" x="1689" y="-99.8" font-family="Times,serif" font-size="14.00" fill="#000000">TextlistViewerComponent</text>
</g>
<!-- TextlistViewerComponent&#45;&gt;NIEOSModule -->
<g id="edge13" class="edge">
<title>TextlistViewerComponent&#45;&gt;NIEOSModule</title>
<path fill="none" stroke="#000000" d="M1689,-122.1243C1689,-136.7832 1689,-155 1689,-155 1689,-155 1907.4752,-155 1907.4752,-155"/>
<polygon fill="#000000" stroke="#000000" points="1907.4752,-158.5001 1917.4752,-155 1907.4752,-151.5001 1907.4752,-158.5001"/>
</g>
<!-- UpdateLinkedAppsComponent -->
<g id="node14" class="node">
<title>UpdateLinkedAppsComponent</title>
<polygon fill="#ffffb3" stroke="#000000" points="1588.4678,-122 1397.5322,-122 1397.5322,-86 1588.4678,-86 1588.4678,-122"/>
<text text-anchor="middle" x="1493" y="-99.8" font-family="Times,serif" font-size="14.00" fill="#000000">UpdateLinkedAppsComponent</text>
</g>
<!-- UpdateLinkedAppsComponent&#45;&gt;NIEOSModule -->
<g id="edge14" class="edge">
<title>UpdateLinkedAppsComponent&#45;&gt;NIEOSModule</title>
<path fill="none" stroke="#000000" d="M1493,-122.2819C1493,-137.9478 1493,-158 1493,-158 1493,-158 1907.6164,-158 1907.6164,-158"/>
<polygon fill="#000000" stroke="#000000" points="1907.6164,-161.5001 1917.6164,-158 1907.6163,-154.5001 1907.6164,-161.5001"/>
</g>
<!-- PageComponent  -->
<g id="node22" class="node">
<title>PageComponent </title>
<polygon fill="#fb8072" stroke="#000000" points="2024.0442,-252 1911.9558,-252 1911.9558,-216 2024.0442,-216 2024.0442,-252"/>
<text text-anchor="middle" x="1968" y="-229.8" font-family="Times,serif" font-size="14.00" fill="#000000">PageComponent </text>
</g>
<!-- NIEOSModule&#45;&gt;PageComponent  -->
<g id="edge21" class="edge">
<title>NIEOSModule&#45;&gt;PageComponent </title>
<path fill="none" stroke="#000000" stroke-dasharray="5,2" d="M1968,-187.1061C1968,-187.1061 1968,-205.991 1968,-205.991"/>
<polygon fill="#000000" stroke="#000000" points="1964.5001,-205.9909 1968,-215.991 1971.5001,-205.991 1964.5001,-205.9909"/>
</g>
<!-- CreateResourceModule -->
<g id="node16" class="node">
<title>CreateResourceModule</title>
<polygon fill="#8dd3c7" stroke="#000000" points="1374.1671,-122 1371.1671,-126 1350.1671,-126 1347.1671,-122 1225.8329,-122 1225.8329,-86 1374.1671,-86 1374.1671,-122"/>
<text text-anchor="middle" x="1300" y="-99.8" font-family="Times,serif" font-size="14.00" fill="#000000">CreateResourceModule</text>
</g>
<!-- CreateResourceModule&#45;&gt;NIEOSModule -->
<g id="edge15" class="edge">
<title>CreateResourceModule&#45;&gt;NIEOSModule</title>
<path fill="none" stroke="#000000" d="M1300,-122.0352C1300,-138.7344 1300,-161 1300,-161 1300,-161 1907.5176,-161 1907.5176,-161"/>
<polygon fill="#000000" stroke="#000000" points="1907.5176,-164.5001 1917.5176,-161 1907.5176,-157.5001 1907.5176,-164.5001"/>
</g>
<!-- D3jsModule -->
<g id="node17" class="node">
<title>D3jsModule</title>
<polygon fill="#8dd3c7" stroke="#000000" points="1207.9916,-122 1204.9916,-126 1183.9916,-126 1180.9916,-122 1122.0084,-122 1122.0084,-86 1207.9916,-86 1207.9916,-122"/>
<text text-anchor="middle" x="1165" y="-99.8" font-family="Times,serif" font-size="14.00" fill="#000000">D3jsModule</text>
</g>
<!-- D3jsModule&#45;&gt;NIEOSModule -->
<g id="edge16" class="edge">
<title>D3jsModule&#45;&gt;NIEOSModule</title>
<path fill="none" stroke="#000000" d="M1165,-122.302C1165,-140.2699 1165,-165 1165,-165 1165,-165 1907.4646,-165 1907.4646,-165"/>
<polygon fill="#000000" stroke="#000000" points="1907.4646,-168.5001 1917.4646,-165 1907.4645,-161.5001 1907.4646,-168.5001"/>
</g>
<!-- DataManagementToolModule -->
<g id="node18" class="node">
<title>DataManagementToolModule</title>
<polygon fill="#8dd3c7" stroke="#000000" points="1103.5043,-122 1100.5043,-126 1079.5043,-126 1076.5043,-122 918.4957,-122 918.4957,-86 1103.5043,-86 1103.5043,-122"/>
<text text-anchor="middle" x="1011" y="-99.8" font-family="Times,serif" font-size="14.00" fill="#000000">DataManagementToolModule</text>
</g>
<!-- DataManagementToolModule&#45;&gt;NIEOSModule -->
<g id="edge17" class="edge">
<title>DataManagementToolModule&#45;&gt;NIEOSModule</title>
<path fill="none" stroke="#000000" d="M1011,-122.1686C1011,-141.0898 1011,-168 1011,-168 1011,-168 1907.5596,-168 1907.5596,-168"/>
<polygon fill="#000000" stroke="#000000" points="1907.5596,-171.5001 1917.5596,-168 1907.5595,-164.5001 1907.5596,-171.5001"/>
</g>
<!-- MyPageSetModule -->
<g id="node19" class="node">
<title>MyPageSetModule</title>
<polygon fill="#8dd3c7" stroke="#000000" points="900.094,-122 897.094,-126 876.094,-126 873.094,-122 775.906,-122 775.906,-86 900.094,-86 900.094,-122"/>
<text text-anchor="middle" x="838" y="-99.8" font-family="Times,serif" font-size="14.00" fill="#000000">MyPageSetModule</text>
</g>
<!-- MyPageSetModule&#45;&gt;NIEOSModule -->
<g id="edge18" class="edge">
<title>MyPageSetModule&#45;&gt;NIEOSModule</title>
<path fill="none" stroke="#000000" d="M838,-122.308C838,-142.1455 838,-171 838,-171 838,-171 1907.6197,-171 1907.6197,-171"/>
<polygon fill="#000000" stroke="#000000" points="1907.6198,-174.5001 1917.6197,-171 1907.6197,-167.5001 1907.6198,-174.5001"/>
</g>
<!-- SynopsisModule -->
<g id="node20" class="node">
<title>SynopsisModule</title>
<polygon fill="#8dd3c7" stroke="#000000" points="758.1123,-122 755.1123,-126 734.1123,-126 731.1123,-122 647.8877,-122 647.8877,-86 758.1123,-86 758.1123,-122"/>
<text text-anchor="middle" x="703" y="-99.8" font-family="Times,serif" font-size="14.00" fill="#000000">SynopsisModule</text>
</g>
<!-- SynopsisModule&#45;&gt;NIEOSModule -->
<g id="edge19" class="edge">
<title>SynopsisModule&#45;&gt;NIEOSModule</title>
<path fill="none" stroke="#000000" d="M703,-122.0267C703,-142.7672 703,-174 703,-174 703,-174 1907.6299,-174 1907.6299,-174"/>
<polygon fill="#000000" stroke="#000000" points="1907.6299,-177.5001 1917.6299,-174 1907.6298,-170.5001 1907.6299,-177.5001"/>
</g>
<!-- TextViewModule -->
<g id="node21" class="node">
<title>TextViewModule</title>
<polygon fill="#8dd3c7" stroke="#000000" points="629.527,-122 626.527,-126 605.527,-126 602.527,-122 514.473,-122 514.473,-86 629.527,-86 629.527,-122"/>
<text text-anchor="middle" x="572" y="-99.8" font-family="Times,serif" font-size="14.00" fill="#000000">TextViewModule</text>
</g>
<!-- TextViewModule&#45;&gt;NIEOSModule -->
<g id="edge20" class="edge">
<title>TextViewModule&#45;&gt;NIEOSModule</title>
<path fill="none" stroke="#000000" d="M572,-122.2921C572,-144.2057 572,-178 572,-178 572,-178 1907.4909,-178 1907.4909,-178"/>
<polygon fill="#000000" stroke="#000000" points="1907.4909,-181.5001 1917.4909,-178 1907.4909,-174.5001 1907.4909,-181.5001"/>
</g>
<!-- GenerateHashService -->
<g id="node23" class="node">
<title>GenerateHashService</title>
<ellipse fill="#fdb462" stroke="#000000" cx="395" cy="-104" rx="94.8587" ry="18"/>
<text text-anchor="middle" x="395" y="-99.8" font-family="Times,serif" font-size="14.00" fill="#000000">GenerateHashService</text>
</g>
<!-- GenerateHashService&#45;&gt;NIEOSModule -->
<g id="edge22" class="edge">
<title>GenerateHashService&#45;&gt;NIEOSModule</title>
<path fill="none" stroke="#000000" d="M395,-122.2479C395,-145.0179 395,-181 395,-181 395,-181 1907.445,-181 1907.445,-181"/>
<polygon fill="#000000" stroke="#000000" points="1907.4451,-184.5001 1917.445,-181 1907.445,-177.5001 1907.4451,-184.5001"/>
</g>
<!-- SendGravSearchQueryService -->
<g id="node24" class="node">
<title>SendGravSearchQueryService</title>
<ellipse fill="#fdb462" stroke="#000000" cx="153" cy="-104" rx="129.0134" ry="18"/>
<text text-anchor="middle" x="153" y="-99.8" font-family="Times,serif" font-size="14.00" fill="#000000">SendGravSearchQueryService</text>
</g>
<!-- SendGravSearchQueryService&#45;&gt;NIEOSModule -->
<g id="edge23" class="edge">
<title>SendGravSearchQueryService&#45;&gt;NIEOSModule</title>
<path fill="none" stroke="#000000" d="M153,-122.1532C153,-145.7566 153,-184 153,-184 153,-184 1907.5622,-184 1907.5622,-184"/>
<polygon fill="#000000" stroke="#000000" points="1907.5622,-187.5001 1917.5622,-184 1907.5622,-180.5001 1907.5622,-187.5001"/>
</g>
</g>
</svg>
