<?xml version="1.0" encoding="UTF-8" standalone="no"?>
<!DOCTYPE svg PUBLIC "-//W3C//DTD SVG 1.1//EN"
 "http://www.w3.org/Graphics/SVG/1.1/DTD/svg11.dtd">
<!-- Generated by graphviz version 2.40.1 (20161225.0304)
 -->
<!-- Title: dependencies Pages: 1 -->
<svg width="1952pt" height="284pt"
 viewBox="0.00 0.00 1952.00 284.00" xmlns="http://www.w3.org/2000/svg" xmlns:xlink="http://www.w3.org/1999/xlink">
<g id="graph0" class="graph" transform="scale(1 1) rotate(0) translate(4 280)">
<title>dependencies</title>
<polygon fill="#ffffff" stroke="transparent" points="-4,4 -4,-280 1948,-280 1948,4 -4,4"/>
<text text-anchor="start" x="951.0091" y="-42.4" font-family="sans-serif" font-weight="bold" font-size="14.00" fill="#000000">Legend</text>
<polygon fill="#ffffb3" stroke="transparent" points="738,-10 738,-30 758,-30 758,-10 738,-10"/>
<text text-anchor="start" x="761.629" y="-15.4" font-family="sans-serif" font-size="14.00" fill="#000000"> &#160;Declarations</text>
<polygon fill="#8dd3c7" stroke="transparent" points="851,-10 851,-30 871,-30 871,-10 851,-10"/>
<text text-anchor="start" x="874.7251" y="-15.4" font-family="sans-serif" font-size="14.00" fill="#000000"> &#160;Module</text>
<polygon fill="#80b1d3" stroke="transparent" points="937,-10 937,-30 957,-30 957,-10 937,-10"/>
<text text-anchor="start" x="960.7812" y="-15.4" font-family="sans-serif" font-size="14.00" fill="#000000"> &#160;Bootstrap</text>
<polygon fill="#fdb462" stroke="transparent" points="1034,-10 1034,-30 1054,-30 1054,-10 1034,-10"/>
<text text-anchor="start" x="1057.6732" y="-15.4" font-family="sans-serif" font-size="14.00" fill="#000000"> &#160;Providers</text>
<polygon fill="#fb8072" stroke="transparent" points="1130,-10 1130,-30 1150,-30 1150,-10 1130,-10"/>
<text text-anchor="start" x="1153.7258" y="-15.4" font-family="sans-serif" font-size="14.00" fill="#000000"> &#160;Exports</text>
<g id="clust1" class="cluster">
<title>cluster_NIEOSModule</title>
<polygon fill="none" stroke="#000000" stroke-dasharray="1,5" points="8,-70 8,-268 1936,-268 1936,-70 8,-70"/>
</g>
<g id="clust2" class="cluster">
<title>cluster_NIEOSModule_declarations</title>
<polygon fill="none" stroke="#000000" points="1386,-78 1386,-130 1928,-130 1928,-78 1386,-78"/>
</g>
<g id="clust7" class="cluster">
<title>cluster_NIEOSModule_imports</title>
<polygon fill="none" stroke="#000000" points="506,-78 506,-130 1378,-130 1378,-78 506,-78"/>
</g>
<g id="clust8" class="cluster">
<title>cluster_NIEOSModule_exports</title>
<polygon fill="none" stroke="#000000" points="1013,-208 1013,-260 1155,-260 1155,-208 1013,-208"/>
</g>
<g id="clust10" class="cluster">
<title>cluster_NIEOSModule_providers</title>
<polygon fill="none" stroke="#000000" points="16,-78 16,-130 498,-130 498,-78 16,-78"/>
</g>
<!-- GrapesjsComponent -->
<g id="node1" class="node">
<title>GrapesjsComponent</title>
<polygon fill="#ffffb3" stroke="#000000" points="1920.309,-122 1789.691,-122 1789.691,-86 1920.309,-86 1920.309,-122"/>
<text text-anchor="middle" x="1855" y="-99.8" font-family="Times,serif" font-size="14.00" fill="#000000">GrapesjsComponent</text>
</g>
<!-- NIEOSModule -->
<g id="node5" class="node">
<title>NIEOSModule</title>
<polygon fill="#8dd3c7" stroke="#000000" points="1134.2591,-187 1131.2591,-191 1110.2591,-191 1107.2591,-187 1033.7409,-187 1033.7409,-151 1134.2591,-151 1134.2591,-187"/>
<text text-anchor="middle" x="1084" y="-164.8" font-family="Times,serif" font-size="14.00" fill="#000000">NIEOSModule</text>
</g>
<!-- GrapesjsComponent&#45;&gt;NIEOSModule -->
<g id="edge1" class="edge">
<title>GrapesjsComponent&#45;&gt;NIEOSModule</title>
<path fill="none" stroke="#000000" d="M1855,-122.2479C1855,-145.0179 1855,-181 1855,-181 1855,-181 1144.2901,-181 1144.2901,-181"/>
<polygon fill="#000000" stroke="#000000" points="1144.2901,-177.5001 1134.2901,-181 1144.29,-184.5001 1144.2901,-177.5001"/>
</g>
<!-- NIEOSComponent -->
<g id="node2" class="node">
<title>NIEOSComponent</title>
<polygon fill="#ffffb3" stroke="#000000" points="1772.0423,-122 1649.9577,-122 1649.9577,-86 1772.0423,-86 1772.0423,-122"/>
<text text-anchor="middle" x="1711" y="-99.8" font-family="Times,serif" font-size="14.00" fill="#000000">NIEOSComponent</text>
</g>
<!-- NIEOSComponent&#45;&gt;NIEOSModule -->
<g id="edge2" class="edge">
<title>NIEOSComponent&#45;&gt;NIEOSModule</title>
<path fill="none" stroke="#000000" d="M1711,-122.2843C1711,-143.3211 1711,-175 1711,-175 1711,-175 1144.5143,-175 1144.5143,-175"/>
<polygon fill="#000000" stroke="#000000" points="1144.5143,-171.5001 1134.5143,-175 1144.5142,-178.5001 1144.5143,-171.5001"/>
</g>
<!-- Popup -->
<g id="node3" class="node">
<title>Popup</title>
<polygon fill="#ffffb3" stroke="#000000" points="1632,-122 1578,-122 1578,-86 1632,-86 1632,-122"/>
<text text-anchor="middle" x="1605" y="-99.8" font-family="Times,serif" font-size="14.00" fill="#000000">Popup</text>
</g>
<!-- Popup&#45;&gt;NIEOSModule -->
<g id="edge3" class="edge">
<title>Popup&#45;&gt;NIEOSModule</title>
<path fill="none" stroke="#000000" d="M1605,-122.1061C1605,-141.3391 1605,-169 1605,-169 1605,-169 1144.4291,-169 1144.4291,-169"/>
<polygon fill="#000000" stroke="#000000" points="1144.4291,-165.5001 1134.4291,-169 1144.429,-172.5001 1144.4291,-165.5001"/>
</g>
<!-- TextlistViewerComponent -->
<g id="node4" class="node">
<title>TextlistViewerComponent</title>
<polygon fill="#ffffb3" stroke="#000000" points="1559.8005,-122 1394.1995,-122 1394.1995,-86 1559.8005,-86 1559.8005,-122"/>
<text text-anchor="middle" x="1477" y="-99.8" font-family="Times,serif" font-size="14.00" fill="#000000">TextlistViewerComponent</text>
</g>
<!-- TextlistViewerComponent&#45;&gt;NIEOSModule -->
<g id="edge4" class="edge">
<title>TextlistViewerComponent&#45;&gt;NIEOSModule</title>
<path fill="none" stroke="#000000" d="M1477,-122.0225C1477,-139.3734 1477,-163 1477,-163 1477,-163 1144.5733,-163 1144.5733,-163"/>
<polygon fill="#000000" stroke="#000000" points="1144.5734,-159.5001 1134.5733,-163 1144.5733,-166.5001 1144.5734,-159.5001"/>
</g>
<!-- NIEOSComponent  -->
<g id="node12" class="node">
<title>NIEOSComponent </title>
<polygon fill="#fb8072" stroke="#000000" points="1147.0414,-252 1020.9586,-252 1020.9586,-216 1147.0414,-216 1147.0414,-252"/>
<text text-anchor="middle" x="1084" y="-229.8" font-family="Times,serif" font-size="14.00" fill="#000000">NIEOSComponent </text>
</g>
<!-- NIEOSModule&#45;&gt;NIEOSComponent  -->
<g id="edge11" class="edge">
<title>NIEOSModule&#45;&gt;NIEOSComponent </title>
<path fill="none" stroke="#000000" stroke-dasharray="5,2" d="M1084,-187.1061C1084,-187.1061 1084,-205.991 1084,-205.991"/>
<polygon fill="#000000" stroke="#000000" points="1080.5001,-205.9909 1084,-215.991 1087.5001,-205.991 1080.5001,-205.9909"/>
</g>
<!-- CreateResourceModule -->
<g id="node6" class="node">
<title>CreateResourceModule</title>
<polygon fill="#8dd3c7" stroke="#000000" points="1370.1671,-122 1367.1671,-126 1346.1671,-126 1343.1671,-122 1221.8329,-122 1221.8329,-86 1370.1671,-86 1370.1671,-122"/>
<text text-anchor="middle" x="1296" y="-99.8" font-family="Times,serif" font-size="14.00" fill="#000000">CreateResourceModule</text>
</g>
<!-- CreateResourceModule&#45;&gt;NIEOSModule -->
<g id="edge5" class="edge">
<title>CreateResourceModule&#45;&gt;NIEOSModule</title>
<path fill="none" stroke="#000000" d="M1296,-122.2396C1296,-137.5706 1296,-157 1296,-157 1296,-157 1144.5099,-157 1144.5099,-157"/>
<polygon fill="#000000" stroke="#000000" points="1144.51,-153.5001 1134.5099,-157 1144.5099,-160.5001 1144.51,-153.5001"/>
</g>
<!-- D3jsModule -->
<g id="node7" class="node">
<title>D3jsModule</title>
<polygon fill="#8dd3c7" stroke="#000000" points="1203.9916,-122 1200.9916,-126 1179.9916,-126 1176.9916,-122 1118.0084,-122 1118.0084,-86 1203.9916,-86 1203.9916,-122"/>
<text text-anchor="middle" x="1161" y="-99.8" font-family="Times,serif" font-size="14.00" fill="#000000">D3jsModule</text>
</g>
<!-- D3jsModule&#45;&gt;NIEOSModule -->
<g id="edge6" class="edge">
<title>D3jsModule&#45;&gt;NIEOSModule</title>
<path fill="none" stroke="#000000" d="M1126.1918,-122.1061C1126.1918,-122.1061 1126.1918,-140.991 1126.1918,-140.991"/>
<polygon fill="#000000" stroke="#000000" points="1122.6919,-140.9909 1126.1918,-150.991 1129.6919,-140.991 1122.6919,-140.9909"/>
</g>
<!-- DataManagementToolModule -->
<g id="node8" class="node">
<title>DataManagementToolModule</title>
<polygon fill="#8dd3c7" stroke="#000000" points="1099.5043,-122 1096.5043,-126 1075.5043,-126 1072.5043,-122 914.4957,-122 914.4957,-86 1099.5043,-86 1099.5043,-122"/>
<text text-anchor="middle" x="1007" y="-99.8" font-family="Times,serif" font-size="14.00" fill="#000000">DataManagementToolModule</text>
</g>
<!-- DataManagementToolModule&#45;&gt;NIEOSModule -->
<g id="edge7" class="edge">
<title>DataManagementToolModule&#45;&gt;NIEOSModule</title>
<path fill="none" stroke="#000000" d="M1066.6862,-122.1061C1066.6862,-122.1061 1066.6862,-140.991 1066.6862,-140.991"/>
<polygon fill="#000000" stroke="#000000" points="1063.1863,-140.9909 1066.6862,-150.991 1070.1863,-140.991 1063.1863,-140.9909"/>
</g>
<!-- MyEditionModule -->
<g id="node9" class="node">
<title>MyEditionModule</title>
<polygon fill="#8dd3c7" stroke="#000000" points="896.219,-122 893.219,-126 872.219,-126 869.219,-122 775.781,-122 775.781,-86 896.219,-86 896.219,-122"/>
<text text-anchor="middle" x="836" y="-99.8" font-family="Times,serif" font-size="14.00" fill="#000000">MyEditionModule</text>
</g>
<!-- MyEditionModule&#45;&gt;NIEOSModule -->
<g id="edge8" class="edge">
<title>MyEditionModule&#45;&gt;NIEOSModule</title>
<path fill="none" stroke="#000000" d="M836,-122.2396C836,-137.5706 836,-157 836,-157 836,-157 1023.5146,-157 1023.5146,-157"/>
<polygon fill="#000000" stroke="#000000" points="1023.5146,-160.5001 1033.5146,-157 1023.5145,-153.5001 1023.5146,-160.5001"/>
</g>
<!-- SynopsisModule -->
<g id="node10" class="node">
<title>SynopsisModule</title>
<polygon fill="#8dd3c7" stroke="#000000" points="758.1123,-122 755.1123,-126 734.1123,-126 731.1123,-122 647.8877,-122 647.8877,-86 758.1123,-86 758.1123,-122"/>
<text text-anchor="middle" x="703" y="-99.8" font-family="Times,serif" font-size="14.00" fill="#000000">SynopsisModule</text>
</g>
<!-- SynopsisModule&#45;&gt;NIEOSModule -->
<g id="edge9" class="edge">
<title>SynopsisModule&#45;&gt;NIEOSModule</title>
<path fill="none" stroke="#000000" d="M703,-122.0225C703,-139.3734 703,-163 703,-163 703,-163 1023.4061,-163 1023.4061,-163"/>
<polygon fill="#000000" stroke="#000000" points="1023.4062,-166.5001 1033.4061,-163 1023.4061,-159.5001 1023.4062,-166.5001"/>
</g>
<!-- TextViewModule -->
<g id="node11" class="node">
<title>TextViewModule</title>
<polygon fill="#8dd3c7" stroke="#000000" points="629.527,-122 626.527,-126 605.527,-126 602.527,-122 514.473,-122 514.473,-86 629.527,-86 629.527,-122"/>
<text text-anchor="middle" x="572" y="-99.8" font-family="Times,serif" font-size="14.00" fill="#000000">TextViewModule</text>
</g>
<!-- TextViewModule&#45;&gt;NIEOSModule -->
<g id="edge10" class="edge">
<title>TextViewModule&#45;&gt;NIEOSModule</title>
<path fill="none" stroke="#000000" d="M572,-122.1061C572,-141.3391 572,-169 572,-169 572,-169 1023.5062,-169 1023.5062,-169"/>
<polygon fill="#000000" stroke="#000000" points="1023.5063,-172.5001 1033.5062,-169 1023.5062,-165.5001 1023.5063,-172.5001"/>
</g>
<!-- GenerateHashService -->
<g id="node13" class="node">
<title>GenerateHashService</title>
<ellipse fill="#fdb462" stroke="#000000" cx="395" cy="-104" rx="94.8587" ry="18"/>
<text text-anchor="middle" x="395" y="-99.8" font-family="Times,serif" font-size="14.00" fill="#000000">GenerateHashService</text>
</g>
<!-- GenerateHashService&#45;&gt;NIEOSModule -->
<g id="edge12" class="edge">
<title>GenerateHashService&#45;&gt;NIEOSModule</title>
<path fill="none" stroke="#000000" d="M395,-122.2843C395,-143.3211 395,-175 395,-175 395,-175 1023.6153,-175 1023.6153,-175"/>
<polygon fill="#000000" stroke="#000000" points="1023.6154,-178.5001 1033.6153,-175 1023.6153,-171.5001 1023.6154,-178.5001"/>
</g>
<!-- SendGravSearchQueryService -->
<g id="node14" class="node">
<title>SendGravSearchQueryService</title>
<ellipse fill="#fdb462" stroke="#000000" cx="153" cy="-104" rx="129.0134" ry="18"/>
<text text-anchor="middle" x="153" y="-99.8" font-family="Times,serif" font-size="14.00" fill="#000000">SendGravSearchQueryService</text>
</g>
<!-- SendGravSearchQueryService&#45;&gt;NIEOSModule -->
<g id="edge13" class="edge">
<title>SendGravSearchQueryService&#45;&gt;NIEOSModule</title>
<path fill="none" stroke="#000000" d="M153,-122.2479C153,-145.0179 153,-181 153,-181 153,-181 1023.6153,-181 1023.6153,-181"/>
<polygon fill="#000000" stroke="#000000" points="1023.6153,-184.5001 1033.6153,-181 1023.6153,-177.5001 1023.6153,-184.5001"/>
</g>
</g>
</svg>
