<?xml version="1.0" encoding="UTF-8" standalone="no"?>
<!DOCTYPE svg PUBLIC "-//W3C//DTD SVG 1.1//EN"
 "http://www.w3.org/Graphics/SVG/1.1/DTD/svg11.dtd">
<!-- Generated by graphviz version 2.40.1 (20161225.0304)
 -->
<!-- Title: dependencies Pages: 1 -->
<svg width="1388pt" height="284pt"
 viewBox="0.00 0.00 1388.00 284.00" xmlns="http://www.w3.org/2000/svg" xmlns:xlink="http://www.w3.org/1999/xlink">
<g id="graph0" class="graph" transform="scale(1 1) rotate(0) translate(4 280)">
<title>dependencies</title>
<polygon fill="#ffffff" stroke="transparent" points="-4,4 -4,-280 1384,-280 1384,4 -4,4"/>
<text text-anchor="start" x="669.0091" y="-42.4" font-family="sans-serif" font-weight="bold" font-size="14.00" fill="#000000">Legend</text>
<polygon fill="#ffffb3" stroke="transparent" points="456,-10 456,-30 476,-30 476,-10 456,-10"/>
<text text-anchor="start" x="479.629" y="-15.4" font-family="sans-serif" font-size="14.00" fill="#000000"> &#160;Declarations</text>
<polygon fill="#8dd3c7" stroke="transparent" points="569,-10 569,-30 589,-30 589,-10 569,-10"/>
<text text-anchor="start" x="592.7251" y="-15.4" font-family="sans-serif" font-size="14.00" fill="#000000"> &#160;Module</text>
<polygon fill="#80b1d3" stroke="transparent" points="655,-10 655,-30 675,-30 675,-10 655,-10"/>
<text text-anchor="start" x="678.7812" y="-15.4" font-family="sans-serif" font-size="14.00" fill="#000000"> &#160;Bootstrap</text>
<polygon fill="#fdb462" stroke="transparent" points="752,-10 752,-30 772,-30 772,-10 752,-10"/>
<text text-anchor="start" x="775.6732" y="-15.4" font-family="sans-serif" font-size="14.00" fill="#000000"> &#160;Providers</text>
<polygon fill="#fb8072" stroke="transparent" points="848,-10 848,-30 868,-30 868,-10 848,-10"/>
<text text-anchor="start" x="871.7258" y="-15.4" font-family="sans-serif" font-size="14.00" fill="#000000"> &#160;Exports</text>
<g id="clust1" class="cluster">
<title>cluster_NIEOSModule</title>
<polygon fill="none" stroke="#000000" stroke-dasharray="1,5" points="8,-70 8,-268 1372,-268 1372,-70 8,-70"/>
</g>
<g id="clust2" class="cluster">
<title>cluster_NIEOSModule_declarations</title>
<polygon fill="none" stroke="#000000" points="1006,-78 1006,-130 1364,-130 1364,-78 1006,-78"/>
</g>
<g id="clust6" class="cluster">
<title>cluster_NIEOSModule_imports</title>
<polygon fill="none" stroke="#000000" points="230,-78 230,-130 998,-130 998,-78 230,-78"/>
</g>
<g id="clust7" class="cluster">
<title>cluster_NIEOSModule_exports</title>
<polygon fill="none" stroke="#000000" points="660,-208 660,-260 802,-260 802,-208 660,-208"/>
</g>
<g id="clust9" class="cluster">
<title>cluster_NIEOSModule_providers</title>
<polygon fill="none" stroke="#000000" points="16,-78 16,-130 222,-130 222,-78 16,-78"/>
</g>
<!-- GrapesjsComponent -->
<g id="node1" class="node">
<title>GrapesjsComponent</title>
<polygon fill="#ffffb3" stroke="#000000" points="1356.309,-122 1225.691,-122 1225.691,-86 1356.309,-86 1356.309,-122"/>
<text text-anchor="middle" x="1291" y="-99.8" font-family="Times,serif" font-size="14.00" fill="#000000">GrapesjsComponent</text>
</g>
<!-- NIEOSModule -->
<g id="node4" class="node">
<title>NIEOSModule</title>
<polygon fill="#8dd3c7" stroke="#000000" points="781.2591,-187 778.2591,-191 757.2591,-191 754.2591,-187 680.7409,-187 680.7409,-151 781.2591,-151 781.2591,-187"/>
<text text-anchor="middle" x="731" y="-164.8" font-family="Times,serif" font-size="14.00" fill="#000000">NIEOSModule</text>
</g>
<!-- GrapesjsComponent&#45;&gt;NIEOSModule -->
<g id="edge1" class="edge">
<title>GrapesjsComponent&#45;&gt;NIEOSModule</title>
<path fill="none" stroke="#000000" d="M1291,-122.0109C1291,-144.4852 1291,-180 1291,-180 1291,-180 791.6839,-180 791.6839,-180"/>
<polygon fill="#000000" stroke="#000000" points="791.684,-176.5001 781.6839,-180 791.6839,-183.5001 791.684,-176.5001"/>
</g>
<!-- NIEOSComponent -->
<g id="node2" class="node">
<title>NIEOSComponent</title>
<polygon fill="#ffffb3" stroke="#000000" points="1208.0423,-122 1085.9577,-122 1085.9577,-86 1208.0423,-86 1208.0423,-122"/>
<text text-anchor="middle" x="1147" y="-99.8" font-family="Times,serif" font-size="14.00" fill="#000000">NIEOSComponent</text>
</g>
<!-- NIEOSComponent&#45;&gt;NIEOSModule -->
<g id="edge2" class="edge">
<title>NIEOSComponent&#45;&gt;NIEOSModule</title>
<path fill="none" stroke="#000000" d="M1147,-122.1289C1147,-142.5724 1147,-173 1147,-173 1147,-173 791.5939,-173 791.5939,-173"/>
<polygon fill="#000000" stroke="#000000" points="791.5939,-169.5001 781.5939,-173 791.5938,-176.5001 791.5939,-169.5001"/>
</g>
<!-- Popup -->
<g id="node3" class="node">
<title>Popup</title>
<polygon fill="#ffffb3" stroke="#000000" points="1068,-122 1014,-122 1014,-86 1068,-86 1068,-122"/>
<text text-anchor="middle" x="1041" y="-99.8" font-family="Times,serif" font-size="14.00" fill="#000000">Popup</text>
</g>
<!-- Popup&#45;&gt;NIEOSModule -->
<g id="edge3" class="edge">
<title>Popup&#45;&gt;NIEOSModule</title>
<path fill="none" stroke="#000000" d="M1041,-122.2667C1041,-140.5552 1041,-166 1041,-166 1041,-166 791.4968,-166 791.4968,-166"/>
<polygon fill="#000000" stroke="#000000" points="791.4968,-162.5001 781.4968,-166 791.4968,-169.5001 791.4968,-162.5001"/>
</g>
<!-- NIEOSComponent  -->
<g id="node10" class="node">
<title>NIEOSComponent </title>
<polygon fill="#fb8072" stroke="#000000" points="794.0414,-252 667.9586,-252 667.9586,-216 794.0414,-216 794.0414,-252"/>
<text text-anchor="middle" x="731" y="-229.8" font-family="Times,serif" font-size="14.00" fill="#000000">NIEOSComponent </text>
</g>
<!-- NIEOSModule&#45;&gt;NIEOSComponent  -->
<g id="edge9" class="edge">
<title>NIEOSModule&#45;&gt;NIEOSComponent </title>
<path fill="none" stroke="#000000" stroke-dasharray="5,2" d="M731,-187.1061C731,-187.1061 731,-205.991 731,-205.991"/>
<polygon fill="#000000" stroke="#000000" points="727.5001,-205.9909 731,-215.991 734.5001,-205.991 727.5001,-205.9909"/>
</g>
<!-- CreateResourceModule -->
<g id="node5" class="node">
<title>CreateResourceModule</title>
<polygon fill="#8dd3c7" stroke="#000000" points="990.1671,-122 987.1671,-126 966.1671,-126 963.1671,-122 841.8329,-122 841.8329,-86 990.1671,-86 990.1671,-122"/>
<text text-anchor="middle" x="916" y="-99.8" font-family="Times,serif" font-size="14.00" fill="#000000">CreateResourceModule</text>
</g>
<!-- CreateResourceModule&#45;&gt;NIEOSModule -->
<g id="edge4" class="edge">
<title>CreateResourceModule&#45;&gt;NIEOSModule</title>
<path fill="none" stroke="#000000" d="M916,-122.0091C916,-138.0494 916,-159 916,-159 916,-159 791.5521,-159 791.5521,-159"/>
<polygon fill="#000000" stroke="#000000" points="791.5521,-155.5001 781.5521,-159 791.552,-162.5001 791.5521,-155.5001"/>
</g>
<!-- DataManagementToolModule -->
<g id="node6" class="node">
<title>DataManagementToolModule</title>
<polygon fill="#8dd3c7" stroke="#000000" points="823.5043,-122 820.5043,-126 799.5043,-126 796.5043,-122 638.4957,-122 638.4957,-86 823.5043,-86 823.5043,-122"/>
<text text-anchor="middle" x="731" y="-99.8" font-family="Times,serif" font-size="14.00" fill="#000000">DataManagementToolModule</text>
</g>
<!-- DataManagementToolModule&#45;&gt;NIEOSModule -->
<g id="edge5" class="edge">
<title>DataManagementToolModule&#45;&gt;NIEOSModule</title>
<path fill="none" stroke="#000000" d="M731,-122.1061C731,-122.1061 731,-140.991 731,-140.991"/>
<polygon fill="#000000" stroke="#000000" points="727.5001,-140.9909 731,-150.991 734.5001,-140.991 727.5001,-140.9909"/>
</g>
<!-- MyEditionModule -->
<g id="node7" class="node">
<title>MyEditionModule</title>
<polygon fill="#8dd3c7" stroke="#000000" points="620.219,-122 617.219,-126 596.219,-126 593.219,-122 499.781,-122 499.781,-86 620.219,-86 620.219,-122"/>
<text text-anchor="middle" x="560" y="-99.8" font-family="Times,serif" font-size="14.00" fill="#000000">MyEditionModule</text>
</g>
<!-- MyEditionModule&#45;&gt;NIEOSModule -->
<g id="edge6" class="edge">
<title>MyEditionModule&#45;&gt;NIEOSModule</title>
<path fill="none" stroke="#000000" d="M560,-122.0091C560,-138.0494 560,-159 560,-159 560,-159 670.6192,-159 670.6192,-159"/>
<polygon fill="#000000" stroke="#000000" points="670.6193,-162.5001 680.6192,-159 670.6192,-155.5001 670.6193,-162.5001"/>
</g>
<!-- SynopsisModule -->
<g id="node8" class="node">
<title>SynopsisModule</title>
<polygon fill="#8dd3c7" stroke="#000000" points="482.1123,-122 479.1123,-126 458.1123,-126 455.1123,-122 371.8877,-122 371.8877,-86 482.1123,-86 482.1123,-122"/>
<text text-anchor="middle" x="427" y="-99.8" font-family="Times,serif" font-size="14.00" fill="#000000">SynopsisModule</text>
</g>
<!-- SynopsisModule&#45;&gt;NIEOSModule -->
<g id="edge7" class="edge">
<title>SynopsisModule&#45;&gt;NIEOSModule</title>
<path fill="none" stroke="#000000" d="M427,-122.2667C427,-140.5552 427,-166 427,-166 427,-166 670.4593,-166 670.4593,-166"/>
<polygon fill="#000000" stroke="#000000" points="670.4594,-169.5001 680.4593,-166 670.4593,-162.5001 670.4594,-169.5001"/>
</g>
<!-- TextViewModule -->
<g id="node9" class="node">
<title>TextViewModule</title>
<polygon fill="#8dd3c7" stroke="#000000" points="353.527,-122 350.527,-126 329.527,-126 326.527,-122 238.473,-122 238.473,-86 353.527,-86 353.527,-122"/>
<text text-anchor="middle" x="296" y="-99.8" font-family="Times,serif" font-size="14.00" fill="#000000">TextViewModule</text>
</g>
<!-- TextViewModule&#45;&gt;NIEOSModule -->
<g id="edge8" class="edge">
<title>TextViewModule&#45;&gt;NIEOSModule</title>
<path fill="none" stroke="#000000" d="M296,-122.1289C296,-142.5724 296,-173 296,-173 296,-173 670.675,-173 670.675,-173"/>
<polygon fill="#000000" stroke="#000000" points="670.6751,-176.5001 680.675,-173 670.675,-169.5001 670.6751,-176.5001"/>
</g>
<!-- GenerateHashService -->
<g id="node11" class="node">
<title>GenerateHashService</title>
<ellipse fill="#fdb462" stroke="#000000" cx="119" cy="-104" rx="94.8587" ry="18"/>
<text text-anchor="middle" x="119" y="-99.8" font-family="Times,serif" font-size="14.00" fill="#000000">GenerateHashService</text>
</g>
<!-- GenerateHashService&#45;&gt;NIEOSModule -->
<g id="edge10" class="edge">
<title>GenerateHashService&#45;&gt;NIEOSModule</title>
<path fill="none" stroke="#000000" d="M119,-122.0109C119,-144.4852 119,-180 119,-180 119,-180 670.6574,-180 670.6574,-180"/>
<polygon fill="#000000" stroke="#000000" points="670.6575,-183.5001 680.6574,-180 670.6574,-176.5001 670.6575,-183.5001"/>
</g>
</g>
</svg>
