<?xml version="1.0" encoding="UTF-8" standalone="no"?>
<!DOCTYPE svg PUBLIC "-//W3C//DTD SVG 1.1//EN"
 "http://www.w3.org/Graphics/SVG/1.1/DTD/svg11.dtd">
<!-- Generated by graphviz version 2.40.1 (20161225.0304)
 -->
<!-- Title: dependencies Pages: 1 -->
<svg width="1392pt" height="284pt"
 viewBox="0.00 0.00 1392.00 284.00" xmlns="http://www.w3.org/2000/svg" xmlns:xlink="http://www.w3.org/1999/xlink">
<g id="graph0" class="graph" transform="scale(1 1) rotate(0) translate(4 280)">
<title>dependencies</title>
<polygon fill="#ffffff" stroke="transparent" points="-4,4 -4,-280 1388,-280 1388,4 -4,4"/>
<text text-anchor="start" x="671.0091" y="-42.4" font-family="sans-serif" font-weight="bold" font-size="14.00" fill="#000000">Legend</text>
<polygon fill="#ffffb3" stroke="transparent" points="458,-10 458,-30 478,-30 478,-10 458,-10"/>
<text text-anchor="start" x="481.629" y="-15.4" font-family="sans-serif" font-size="14.00" fill="#000000"> &#160;Declarations</text>
<polygon fill="#8dd3c7" stroke="transparent" points="571,-10 571,-30 591,-30 591,-10 571,-10"/>
<text text-anchor="start" x="594.7251" y="-15.4" font-family="sans-serif" font-size="14.00" fill="#000000"> &#160;Module</text>
<polygon fill="#80b1d3" stroke="transparent" points="657,-10 657,-30 677,-30 677,-10 657,-10"/>
<text text-anchor="start" x="680.7812" y="-15.4" font-family="sans-serif" font-size="14.00" fill="#000000"> &#160;Bootstrap</text>
<polygon fill="#fdb462" stroke="transparent" points="754,-10 754,-30 774,-30 774,-10 754,-10"/>
<text text-anchor="start" x="777.6732" y="-15.4" font-family="sans-serif" font-size="14.00" fill="#000000"> &#160;Providers</text>
<polygon fill="#fb8072" stroke="transparent" points="850,-10 850,-30 870,-30 870,-10 850,-10"/>
<text text-anchor="start" x="873.7258" y="-15.4" font-family="sans-serif" font-size="14.00" fill="#000000"> &#160;Exports</text>
<g id="clust1" class="cluster">
<title>cluster_JoinedTextViewModule</title>
<polygon fill="none" stroke="#000000" stroke-dasharray="1,5" points="8,-70 8,-268 1376,-268 1376,-70 8,-70"/>
</g>
<g id="clust2" class="cluster">
<title>cluster_JoinedTextViewModule_declarations</title>
<polygon fill="none" stroke="#000000" points="152,-78 152,-130 1368,-130 1368,-78 152,-78"/>
</g>
<g id="clust9" class="cluster">
<title>cluster_JoinedTextViewModule_imports</title>
<polygon fill="none" stroke="#000000" points="16,-78 16,-130 144,-130 144,-78 16,-78"/>
</g>
<g id="clust10" class="cluster">
<title>cluster_JoinedTextViewModule_exports</title>
<polygon fill="none" stroke="#000000" points="580,-208 580,-260 774,-260 774,-208 580,-208"/>
</g>
<!-- JoinedTextBlockComponent -->
<g id="node1" class="node">
<title>JoinedTextBlockComponent</title>
<polygon fill="#ffffb3" stroke="#000000" points="1360.4818,-122 1183.5182,-122 1183.5182,-86 1360.4818,-86 1360.4818,-122"/>
<text text-anchor="middle" x="1272" y="-99.8" font-family="Times,serif" font-size="14.00" fill="#000000">JoinedTextBlockComponent</text>
</g>
<!-- JoinedTextViewModule -->
<g id="node7" class="node">
<title>JoinedTextViewModule</title>
<polygon fill="#8dd3c7" stroke="#000000" points="753.0758,-187 750.0758,-191 729.0758,-191 726.0758,-187 600.9242,-187 600.9242,-151 753.0758,-151 753.0758,-187"/>
<text text-anchor="middle" x="677" y="-164.8" font-family="Times,serif" font-size="14.00" fill="#000000">JoinedTextViewModule</text>
</g>
<!-- JoinedTextBlockComponent&#45;&gt;JoinedTextViewModule -->
<g id="edge1" class="edge">
<title>JoinedTextBlockComponent&#45;&gt;JoinedTextViewModule</title>
<path fill="none" stroke="#000000" d="M1272,-122.2921C1272,-144.2057 1272,-178 1272,-178 1272,-178 763.2644,-178 763.2644,-178"/>
<polygon fill="#000000" stroke="#000000" points="763.2644,-174.5001 753.2644,-178 763.2644,-181.5001 763.2644,-174.5001"/>
</g>
<!-- JoinedTextLineComponent -->
<g id="node2" class="node">
<title>JoinedTextLineComponent</title>
<polygon fill="#ffffb3" stroke="#000000" points="1165.6979,-122 996.3021,-122 996.3021,-86 1165.6979,-86 1165.6979,-122"/>
<text text-anchor="middle" x="1081" y="-99.8" font-family="Times,serif" font-size="14.00" fill="#000000">JoinedTextLineComponent</text>
</g>
<!-- JoinedTextLineComponent&#45;&gt;JoinedTextViewModule -->
<g id="edge2" class="edge">
<title>JoinedTextLineComponent&#45;&gt;JoinedTextViewModule</title>
<path fill="none" stroke="#000000" d="M1081,-122.1061C1081,-141.3391 1081,-169 1081,-169 1081,-169 763.4643,-169 763.4643,-169"/>
<polygon fill="#000000" stroke="#000000" points="763.4643,-165.5001 753.4643,-169 763.4642,-172.5001 763.4643,-165.5001"/>
</g>
<!-- JoinedTextLinepartComponent -->
<g id="node3" class="node">
<title>JoinedTextLinepartComponent</title>
<polygon fill="#ffffb3" stroke="#000000" points="978.4636,-122 787.5364,-122 787.5364,-86 978.4636,-86 978.4636,-122"/>
<text text-anchor="middle" x="883" y="-99.8" font-family="Times,serif" font-size="14.00" fill="#000000">JoinedTextLinepartComponent</text>
</g>
<!-- JoinedTextLinepartComponent&#45;&gt;JoinedTextViewModule -->
<g id="edge3" class="edge">
<title>JoinedTextLinepartComponent&#45;&gt;JoinedTextViewModule</title>
<path fill="none" stroke="#000000" d="M883,-122.027C883,-138.3976 883,-160 883,-160 883,-160 763.1215,-160 763.1215,-160"/>
<polygon fill="#000000" stroke="#000000" points="763.1216,-156.5001 753.1215,-160 763.1215,-163.5001 763.1216,-156.5001"/>
</g>
<!-- JoinedTextMarginComponent -->
<g id="node4" class="node">
<title>JoinedTextMarginComponent</title>
<polygon fill="#ffffb3" stroke="#000000" points="769.2506,-122 584.7494,-122 584.7494,-86 769.2506,-86 769.2506,-122"/>
<text text-anchor="middle" x="677" y="-99.8" font-family="Times,serif" font-size="14.00" fill="#000000">JoinedTextMarginComponent</text>
</g>
<!-- JoinedTextMarginComponent&#45;&gt;JoinedTextViewModule -->
<g id="edge4" class="edge">
<title>JoinedTextMarginComponent&#45;&gt;JoinedTextViewModule</title>
<path fill="none" stroke="#000000" d="M677,-122.1061C677,-122.1061 677,-140.991 677,-140.991"/>
<polygon fill="#000000" stroke="#000000" points="673.5001,-140.9909 677,-150.991 680.5001,-140.991 673.5001,-140.9909"/>
</g>
<!-- JoinedTextTextwrapperComponent -->
<g id="node5" class="node">
<title>JoinedTextTextwrapperComponent</title>
<polygon fill="#ffffb3" stroke="#000000" points="566.5548,-122 351.4452,-122 351.4452,-86 566.5548,-86 566.5548,-122"/>
<text text-anchor="middle" x="459" y="-99.8" font-family="Times,serif" font-size="14.00" fill="#000000">JoinedTextTextwrapperComponent</text>
</g>
<!-- JoinedTextTextwrapperComponent&#45;&gt;JoinedTextViewModule -->
<g id="edge5" class="edge">
<title>JoinedTextTextwrapperComponent&#45;&gt;JoinedTextViewModule</title>
<path fill="none" stroke="#000000" d="M459,-122.027C459,-138.3976 459,-160 459,-160 459,-160 590.7542,-160 590.7542,-160"/>
<polygon fill="#000000" stroke="#000000" points="590.7542,-163.5001 600.7542,-160 590.7541,-156.5001 590.7542,-163.5001"/>
</g>
<!-- JoinedTextViewComponent -->
<g id="node6" class="node">
<title>JoinedTextViewComponent</title>
<polygon fill="#ffffb3" stroke="#000000" points="333.8585,-122 160.1415,-122 160.1415,-86 333.8585,-86 333.8585,-122"/>
<text text-anchor="middle" x="247" y="-99.8" font-family="Times,serif" font-size="14.00" fill="#000000">JoinedTextViewComponent</text>
</g>
<!-- JoinedTextViewComponent&#45;&gt;JoinedTextViewModule -->
<g id="edge6" class="edge">
<title>JoinedTextViewComponent&#45;&gt;JoinedTextViewModule</title>
<path fill="none" stroke="#000000" d="M247,-122.1061C247,-141.3391 247,-169 247,-169 247,-169 590.6201,-169 590.6201,-169"/>
<polygon fill="#000000" stroke="#000000" points="590.6201,-172.5001 600.6201,-169 590.6201,-165.5001 590.6201,-172.5001"/>
</g>
<!-- JoinedTextViewComponent  -->
<g id="node9" class="node">
<title>JoinedTextViewComponent </title>
<polygon fill="#fb8072" stroke="#000000" points="765.8588,-252 588.1412,-252 588.1412,-216 765.8588,-216 765.8588,-252"/>
<text text-anchor="middle" x="677" y="-229.8" font-family="Times,serif" font-size="14.00" fill="#000000">JoinedTextViewComponent </text>
</g>
<!-- JoinedTextViewModule&#45;&gt;JoinedTextViewComponent  -->
<g id="edge8" class="edge">
<title>JoinedTextViewModule&#45;&gt;JoinedTextViewComponent </title>
<path fill="none" stroke="#000000" stroke-dasharray="5,2" d="M677,-187.1061C677,-187.1061 677,-205.991 677,-205.991"/>
<polygon fill="#000000" stroke="#000000" points="673.5001,-205.9909 677,-215.991 680.5001,-205.991 673.5001,-205.9909"/>
</g>
<!-- RichTextModule -->
<g id="node8" class="node">
<title>RichTextModule</title>
<polygon fill="#8dd3c7" stroke="#000000" points="135.6499,-122 132.6499,-126 111.6499,-126 108.6499,-122 24.3501,-122 24.3501,-86 135.6499,-86 135.6499,-122"/>
<text text-anchor="middle" x="80" y="-99.8" font-family="Times,serif" font-size="14.00" fill="#000000">RichTextModule</text>
</g>
<!-- RichTextModule&#45;&gt;JoinedTextViewModule -->
<g id="edge7" class="edge">
<title>RichTextModule&#45;&gt;JoinedTextViewModule</title>
<path fill="none" stroke="#000000" d="M80,-122.2921C80,-144.2057 80,-178 80,-178 80,-178 590.7831,-178 590.7831,-178"/>
<polygon fill="#000000" stroke="#000000" points="590.7832,-181.5001 600.7831,-178 590.7831,-174.5001 590.7832,-181.5001"/>
</g>
</g>
</svg>
