<?xml version="1.0" encoding="UTF-8" standalone="no"?>
<!DOCTYPE svg PUBLIC "-//W3C//DTD SVG 1.1//EN"
 "http://www.w3.org/Graphics/SVG/1.1/DTD/svg11.dtd">
<!-- Generated by graphviz version 2.47.0 (20210316.0004)
 -->
<!-- Title: dependencies Pages: 1 -->
<svg width="1473pt" height="284pt"
 viewBox="0.00 0.00 1473.00 284.00" xmlns="http://www.w3.org/2000/svg" xmlns:xlink="http://www.w3.org/1999/xlink">
<g id="graph0" class="graph" transform="scale(1 1) rotate(0) translate(4 280)">
<title>dependencies</title>
<polygon fill="white" stroke="transparent" points="-4,4 -4,-280 1469,-280 1469,4 -4,4"/>
<text text-anchor="start" x="711.51" y="-42.4" font-family="sans-serif" font-weight="bold" font-size="14.00">Legend</text>
<polygon fill="#ffffb3" stroke="transparent" points="498.5,-10 498.5,-30 518.5,-30 518.5,-10 498.5,-10"/>
<text text-anchor="start" x="522.13" y="-15.4" font-family="sans-serif" font-size="14.00"> &#160;Declarations</text>
<polygon fill="#8dd3c7" stroke="transparent" points="611.5,-10 611.5,-30 631.5,-30 631.5,-10 611.5,-10"/>
<text text-anchor="start" x="635.23" y="-15.4" font-family="sans-serif" font-size="14.00"> &#160;Module</text>
<polygon fill="#80b1d3" stroke="transparent" points="697.5,-10 697.5,-30 717.5,-30 717.5,-10 697.5,-10"/>
<text text-anchor="start" x="721.28" y="-15.4" font-family="sans-serif" font-size="14.00"> &#160;Bootstrap</text>
<polygon fill="#fdb462" stroke="transparent" points="794.5,-10 794.5,-30 814.5,-30 814.5,-10 794.5,-10"/>
<text text-anchor="start" x="818.17" y="-15.4" font-family="sans-serif" font-size="14.00"> &#160;Providers</text>
<polygon fill="#fb8072" stroke="transparent" points="890.5,-10 890.5,-30 910.5,-30 910.5,-10 890.5,-10"/>
<text text-anchor="start" x="914.23" y="-15.4" font-family="sans-serif" font-size="14.00"> &#160;Exports</text>
<g id="clust1" class="cluster">
<title>cluster_JoinedTextViewModule</title>
<polygon fill="none" stroke="black" stroke-dasharray="1,5" points="8,-70 8,-268 1457,-268 1457,-70 8,-70"/>
</g>
<g id="clust2" class="cluster">
<title>cluster_JoinedTextViewModule_declarations</title>
<polygon fill="none" stroke="black" points="16,-78 16,-130 1449,-130 1449,-78 16,-78"/>
</g>
<g id="clust11" class="cluster">
<title>cluster_JoinedTextViewModule_exports</title>
<polygon fill="none" stroke="black" points="650,-208 650,-260 844,-260 844,-208 650,-208"/>
</g>
<!-- JoinedTextBlockComponent -->
<g id="node1" class="node">
<title>JoinedTextBlockComponent</title>
<polygon fill="#ffffb3" stroke="black" points="1441.48,-122 1264.52,-122 1264.52,-86 1441.48,-86 1441.48,-122"/>
<text text-anchor="middle" x="1353" y="-99.8" font-family="Times,serif" font-size="14.00">JoinedTextBlockComponent</text>
</g>
<!-- JoinedTextViewModule -->
<g id="node8" class="node">
<title>JoinedTextViewModule</title>
<polygon fill="#8dd3c7" stroke="black" points="823.08,-187 820.08,-191 799.08,-191 796.08,-187 670.92,-187 670.92,-151 823.08,-151 823.08,-187"/>
<text text-anchor="middle" x="747" y="-164.8" font-family="Times,serif" font-size="14.00">JoinedTextViewModule</text>
</g>
<!-- JoinedTextBlockComponent&#45;&gt;JoinedTextViewModule -->
<g id="edge1" class="edge">
<title>JoinedTextBlockComponent&#45;&gt;JoinedTextViewModule</title>
<path fill="none" stroke="black" d="M1353,-122.29C1353,-144.21 1353,-178 1353,-178 1353,-178 833.14,-178 833.14,-178"/>
<polygon fill="black" stroke="black" points="833.14,-174.5 823.14,-178 833.14,-181.5 833.14,-174.5"/>
</g>
<!-- JoinedTextInnerhtmlComponent -->
<g id="node2" class="node">
<title>JoinedTextInnerhtmlComponent</title>
<polygon fill="#ffffb3" stroke="black" points="1246.25,-122 1047.75,-122 1047.75,-86 1246.25,-86 1246.25,-122"/>
<text text-anchor="middle" x="1147" y="-99.8" font-family="Times,serif" font-size="14.00">JoinedTextInnerhtmlComponent</text>
</g>
<!-- JoinedTextInnerhtmlComponent&#45;&gt;JoinedTextViewModule -->
<g id="edge2" class="edge">
<title>JoinedTextInnerhtmlComponent&#45;&gt;JoinedTextViewModule</title>
<path fill="none" stroke="black" d="M1147,-122.11C1147,-141.34 1147,-169 1147,-169 1147,-169 833.18,-169 833.18,-169"/>
<polygon fill="black" stroke="black" points="833.18,-165.5 823.18,-169 833.18,-172.5 833.18,-165.5"/>
</g>
<!-- JoinedTextLineComponent -->
<g id="node3" class="node">
<title>JoinedTextLineComponent</title>
<polygon fill="#ffffb3" stroke="black" points="1029.7,-122 860.3,-122 860.3,-86 1029.7,-86 1029.7,-122"/>
<text text-anchor="middle" x="945" y="-99.8" font-family="Times,serif" font-size="14.00">JoinedTextLineComponent</text>
</g>
<!-- JoinedTextLineComponent&#45;&gt;JoinedTextViewModule -->
<g id="edge3" class="edge">
<title>JoinedTextLineComponent&#45;&gt;JoinedTextViewModule</title>
<path fill="none" stroke="black" d="M945,-122.03C945,-138.4 945,-160 945,-160 945,-160 833.27,-160 833.27,-160"/>
<polygon fill="black" stroke="black" points="833.27,-156.5 823.27,-160 833.27,-163.5 833.27,-156.5"/>
</g>
<!-- JoinedTextLinepartComponent -->
<g id="node4" class="node">
<title>JoinedTextLinepartComponent</title>
<polygon fill="#ffffb3" stroke="black" points="842.46,-122 651.54,-122 651.54,-86 842.46,-86 842.46,-122"/>
<text text-anchor="middle" x="747" y="-99.8" font-family="Times,serif" font-size="14.00">JoinedTextLinepartComponent</text>
</g>
<!-- JoinedTextLinepartComponent&#45;&gt;JoinedTextViewModule -->
<g id="edge4" class="edge">
<title>JoinedTextLinepartComponent&#45;&gt;JoinedTextViewModule</title>
<path fill="none" stroke="black" d="M747,-122.11C747,-122.11 747,-140.99 747,-140.99"/>
<polygon fill="black" stroke="black" points="743.5,-140.99 747,-150.99 750.5,-140.99 743.5,-140.99"/>
</g>
<!-- JoinedTextMarginComponent -->
<g id="node5" class="node">
<title>JoinedTextMarginComponent</title>
<polygon fill="#ffffb3" stroke="black" points="633.25,-122 448.75,-122 448.75,-86 633.25,-86 633.25,-122"/>
<text text-anchor="middle" x="541" y="-99.8" font-family="Times,serif" font-size="14.00">JoinedTextMarginComponent</text>
</g>
<!-- JoinedTextMarginComponent&#45;&gt;JoinedTextViewModule -->
<g id="edge5" class="edge">
<title>JoinedTextMarginComponent&#45;&gt;JoinedTextViewModule</title>
<path fill="none" stroke="black" d="M541,-122.03C541,-138.4 541,-160 541,-160 541,-160 660.88,-160 660.88,-160"/>
<polygon fill="black" stroke="black" points="660.88,-163.5 670.88,-160 660.88,-156.5 660.88,-163.5"/>
</g>
<!-- JoinedTextTextwrapperComponent -->
<g id="node6" class="node">
<title>JoinedTextTextwrapperComponent</title>
<polygon fill="#ffffb3" stroke="black" points="430.55,-122 215.45,-122 215.45,-86 430.55,-86 430.55,-122"/>
<text text-anchor="middle" x="323" y="-99.8" font-family="Times,serif" font-size="14.00">JoinedTextTextwrapperComponent</text>
</g>
<!-- JoinedTextTextwrapperComponent&#45;&gt;JoinedTextViewModule -->
<g id="edge6" class="edge">
<title>JoinedTextTextwrapperComponent&#45;&gt;JoinedTextViewModule</title>
<path fill="none" stroke="black" d="M323,-122.11C323,-141.34 323,-169 323,-169 323,-169 660.71,-169 660.71,-169"/>
<polygon fill="black" stroke="black" points="660.71,-172.5 670.71,-169 660.71,-165.5 660.71,-172.5"/>
</g>
<!-- JoinedTextViewComponent -->
<g id="node7" class="node">
<title>JoinedTextViewComponent</title>
<polygon fill="#ffffb3" stroke="black" points="197.86,-122 24.14,-122 24.14,-86 197.86,-86 197.86,-122"/>
<text text-anchor="middle" x="111" y="-99.8" font-family="Times,serif" font-size="14.00">JoinedTextViewComponent</text>
</g>
<!-- JoinedTextViewComponent&#45;&gt;JoinedTextViewModule -->
<g id="edge7" class="edge">
<title>JoinedTextViewComponent&#45;&gt;JoinedTextViewModule</title>
<path fill="none" stroke="black" d="M111,-122.29C111,-144.21 111,-178 111,-178 111,-178 660.92,-178 660.92,-178"/>
<polygon fill="black" stroke="black" points="660.92,-181.5 670.92,-178 660.92,-174.5 660.92,-181.5"/>
</g>
<!-- JoinedTextViewComponent  -->
<g id="node9" class="node">
<title>JoinedTextViewComponent </title>
<polygon fill="#fb8072" stroke="black" points="835.86,-252 658.14,-252 658.14,-216 835.86,-216 835.86,-252"/>
<text text-anchor="middle" x="747" y="-229.8" font-family="Times,serif" font-size="14.00">JoinedTextViewComponent </text>
</g>
<!-- JoinedTextViewModule&#45;&gt;JoinedTextViewComponent  -->
<g id="edge8" class="edge">
<title>JoinedTextViewModule&#45;&gt;JoinedTextViewComponent </title>
<path fill="none" stroke="black" stroke-dasharray="5,2" d="M747,-187.11C747,-187.11 747,-205.99 747,-205.99"/>
<polygon fill="black" stroke="black" points="743.5,-205.99 747,-215.99 750.5,-205.99 743.5,-205.99"/>
</g>
</g>
</svg>
